<svg width="58" height="63" viewBox="0 0 58 63" fill="none" xmlns="http://www.w3.org/2000/svg">
<path d="M56.4294 25.1623C56.1793 22.4815 53.2134 20.6888 53.2134 20.6888C53.2134 20.6888 56.994 19.7413 57.3835 15.6013C57.6301 12.9601 55.8291 10.2034 51.3089 8.97526L52.8668 3.53777L49.1577 2.62987L47.6033 8.05416L44.5267 7.30143L46.0811 1.87714L42.3649 0.969238L40.8105 6.39353L34.8359 4.93098L33.8532 8.35459L37.4909 9.24268L32.7455 25.8061L29.1079 24.9114L28.0645 28.543L34.039 30.0055L32.4846 35.4397L36.2152 36.3674L37.7732 30.9332L40.8498 31.686L39.2775 37.1268L43.0045 38.0281L44.5625 32.5939L45.4236 32.8019C52.6846 34.4856 56.8582 29.7843 56.4294 25.1623ZM43.6405 10.7481C43.6405 10.7481 45.1485 11.108 47.3139 11.6461C49.3686 12.1579 50.9337 13.835 50.4513 15.7267C49.9689 17.6185 47.8285 18.8235 45.5808 18.3085C43.519 17.8331 41.7431 17.3709 41.7431 17.3709L43.6405 10.7481ZM43.8085 28.5133C41.6645 28.0313 38.8952 27.3115 38.8952 27.3115L40.8605 20.4346C40.8605 20.4346 43.3618 21.0949 45.588 21.5901C48.2501 22.1976 49.876 23.812 49.2899 25.9745C48.7039 28.1369 46.6993 29.1637 43.8085 28.5133Z" fill="url(#paint0_linear_13_446)"/>
<defs>
<linearGradient id="paint0_linear_13_446" x1="42.735" y1="0.969238" x2="42.735" y2="38.0281" gradientUnits="userSpaceOnUse">
<stop stop-color="#E0C21A"/>
<stop offset="1" stop-color="#F1B31C"/>
</linearGradient>
</defs>
</svg>
