<svg width="24" height="24" viewBox="0 0 24 24" fill="none" xmlns="http://www.w3.org/2000/svg">
<g clip-path="url(#clip0_8_1139)">
<path d="M12 24C18.6274 24 24 18.6274 24 12C24 5.37258 18.6274 0 12 0C5.37258 0 0 5.37258 0 12C0 18.6274 5.37258 24 12 24Z" fill="#0D1E30"/>
<g filter="url(#filter0_d_8_1139)">
<path d="M11.7938 4.54518C12.153 4.35993 12.5918 4.78818 12.4013 5.14143C12.2895 5.42943 11.8688 5.50593 11.6543 5.28618C11.427 5.07618 11.5013 4.65918 11.7938 4.54443V4.54518ZM7.92753 4.95468C8.14578 4.86618 8.42253 5.06268 8.40003 5.29743C8.42253 5.55093 8.10753 5.73843 7.88478 5.61768C7.59003 5.50518 7.62378 5.03418 7.92753 4.95468V4.95468ZM15.846 5.62443C15.5048 5.58393 15.4508 5.05593 15.7785 4.94943C16.0335 4.82793 16.2675 5.05668 16.305 5.29443C16.251 5.49693 16.0785 5.68293 15.846 5.62443V5.62443ZM8.80728 6.57318C9.17253 6.34593 9.69303 6.68418 9.63678 7.10193C9.61803 7.52268 9.04953 7.76718 8.72853 7.48218C8.41803 7.25868 8.46528 6.74568 8.80728 6.57318ZM14.3798 6.81468C14.5425 6.40218 15.2025 6.38868 15.3878 6.79068C15.5715 7.10343 15.3458 7.49118 15.0195 7.59768C14.5868 7.67718 14.1765 7.21668 14.3798 6.81468ZM11.328 7.57443C11.3243 7.21893 11.6528 6.95493 11.9955 6.93018C12.2235 6.97518 12.471 7.07043 12.5685 7.29618C12.7508 7.60818 12.5888 8.03643 12.261 8.17968C12.111 8.26218 11.9325 8.23143 11.769 8.22168C11.5193 8.10168 11.3085 7.86393 11.328 7.57443ZM5.57853 8.09193C5.91228 7.88943 6.36228 8.25693 6.23553 8.61393C6.16653 8.92218 5.74503 9.04743 5.50428 8.85093C5.24703 8.66643 5.28753 8.22318 5.57928 8.09118L5.57853 8.09193ZM17.925 8.09043C18.2078 7.87443 18.675 8.12268 18.6405 8.47368C18.66 8.79393 18.2558 9.03618 17.9753 8.87118C17.6663 8.73393 17.634 8.26593 17.925 8.09118V8.09043ZM12.945 8.72868C13.4115 8.56368 13.9665 8.76093 14.232 9.17118C14.583 9.67143 14.397 10.4334 13.8518 10.7207C13.2878 11.0604 12.4635 10.7732 12.2543 10.1522C12.018 9.59718 12.363 8.90268 12.9443 8.72868H12.945ZM10.2053 8.78343C10.7228 8.54343 11.4195 8.74443 11.6693 9.26493C11.9633 9.77193 11.736 10.4777 11.2103 10.7394C10.6838 11.0342 9.94053 10.8107 9.68628 10.2669C9.40053 9.74043 9.65403 9.02568 10.2053 8.78343V8.78343ZM7.46253 9.70518C7.50228 9.37743 7.81653 9.16368 8.13378 9.14118C8.29923 9.15865 8.45386 9.23174 8.57239 9.34849C8.69091 9.46524 8.76632 9.61876 8.78628 9.78393C8.76378 10.1214 8.49903 10.4499 8.13603 10.4484C7.73628 10.4822 7.38603 10.0907 7.46253 9.70518V9.70518ZM15.564 9.21318C15.9743 8.97843 16.5435 9.31968 16.5255 9.78318C16.5533 10.2744 15.9233 10.6202 15.5153 10.3322C15.0908 10.0922 15.1238 9.41718 15.564 9.21318ZM9.09153 10.9434C9.57003 10.8137 10.119 11.0357 10.3538 11.4692C10.611 11.9057 10.506 12.5117 10.1063 12.8327C9.59253 13.3022 8.64678 13.1132 8.37378 12.4727C8.05953 11.8854 8.44128 11.0979 9.09078 10.9427L9.09153 10.9434ZM14.2868 10.9412C14.7525 10.8099 15.3 10.9862 15.5505 11.4039C15.882 11.8817 15.7238 12.5949 15.231 12.9024C14.7135 13.2602 13.914 13.0727 13.629 12.5132C13.284 11.9349 13.6313 11.1174 14.2868 10.9412V10.9412ZM6.00678 11.4857C6.42078 11.3319 6.87978 11.7812 6.71178 12.1854C6.60978 12.5529 6.08253 12.6894 5.81028 12.4179C5.49153 12.1629 5.60928 11.5967 6.00678 11.4857V11.4857ZM17.2335 12.0722C17.2258 11.9071 17.2835 11.7456 17.3942 11.6228C17.5048 11.5001 17.6595 11.426 17.8245 11.4167C18.108 11.4617 18.384 11.6867 18.3615 11.9904C18.3878 12.3917 17.8965 12.6639 17.5485 12.4757C17.3858 12.3939 17.3025 12.2297 17.2335 12.0722ZM3.97053 11.6852C4.21953 11.5779 4.52778 11.7902 4.47078 12.0624C4.45728 12.3707 3.99453 12.4899 3.82503 12.2319C3.67503 12.0527 3.76503 11.7774 3.97053 11.6844V11.6852ZM19.6823 11.6784C19.8578 11.5562 20.1398 11.6439 20.2088 11.8457C20.3265 12.0662 20.1105 12.3677 19.8585 12.3309C19.5045 12.3624 19.3905 11.8322 19.6823 11.6784ZM10.4445 13.1582C11.1 12.9909 11.805 13.5287 11.8095 14.1932C11.8515 14.8644 11.157 15.4592 10.4865 15.3047C9.96753 15.2222 9.56028 14.7302 9.57753 14.2149C9.57603 13.7214 9.95403 13.2624 10.4445 13.1582V13.1582ZM13.041 13.1574C13.7063 12.9744 14.4323 13.5219 14.4218 14.2014C14.457 14.8599 13.7843 15.4352 13.1273 15.3039C12.5085 15.2259 12.0525 14.5577 12.225 13.9667C12.312 13.5737 12.6465 13.2542 13.041 13.1567V13.1574ZM8.03403 13.5662C8.49453 13.4889 8.92653 13.9937 8.73978 14.4242C8.60328 14.8832 7.92528 15.0069 7.62528 14.6327C7.27428 14.2727 7.53678 13.6157 8.03403 13.5662V13.5662ZM15.6495 13.5864C16.0605 13.4169 16.5645 13.7664 16.533 14.2052C16.5495 14.6874 15.927 15.0204 15.5258 14.7384C15.0705 14.4857 15.1538 13.7409 15.6495 13.5864V13.5864ZM17.778 15.6864C17.6175 15.3917 17.9093 15.0009 18.243 15.0557C18.408 15.0527 18.5243 15.1809 18.63 15.2889C18.6518 15.4637 18.6885 15.6722 18.5408 15.8064C18.3405 16.0562 17.8868 15.9849 17.778 15.6864V15.6864ZM5.57703 15.1374C5.88828 14.9342 6.33603 15.2379 6.26553 15.5949C6.22803 15.9122 5.82303 16.0929 5.55678 15.9129C5.27028 15.7502 5.28078 15.2859 5.57703 15.1374V15.1374ZM11.7218 15.7997C12.129 15.6234 12.648 15.9722 12.609 16.4132C12.639 16.9007 11.9978 17.2382 11.5995 16.9457C11.157 16.6944 11.2313 15.9549 11.7218 15.7997V15.7997ZM8.87628 16.4529C9.22278 16.2737 9.68778 16.5834 9.65628 16.9659C9.66678 17.2794 9.35628 17.5464 9.04128 17.4999C8.78103 17.4947 8.61153 17.2644 8.52753 17.0462C8.53203 16.8084 8.63178 16.5437 8.87628 16.4537V16.4529ZM14.6408 16.4589C14.9978 16.2414 15.5048 16.5534 15.471 16.9614C15.48 17.3889 14.907 17.6619 14.5748 17.3814C14.2538 17.1617 14.2928 16.6337 14.6408 16.4589ZM15.6435 18.8964C15.4845 18.6609 15.6713 18.3767 15.9285 18.3227C16.1363 18.3639 16.356 18.5177 16.3118 18.7532C16.2818 19.0734 15.8063 19.1709 15.6435 18.8972V18.8964ZM7.68528 18.6917C7.74828 18.5042 7.90128 18.3189 8.12553 18.3677C8.45178 18.3902 8.54853 18.8747 8.26278 19.0239C8.00628 19.1942 7.70778 18.9609 7.68528 18.6917ZM11.5253 18.9069C11.5875 18.6294 11.9513 18.4952 12.1913 18.6422C12.3503 18.7097 12.3968 18.8837 12.4373 19.0322C12.4159 19.1093 12.3959 19.1868 12.3773 19.2647C12.279 19.3787 12.1523 19.4934 11.9888 19.4897C11.685 19.5249 11.4105 19.1867 11.5245 18.9069H11.5253Z" fill="black"/>
</g>
<path d="M11.7938 4.54518C12.153 4.35993 12.5918 4.78818 12.4013 5.14143C12.2895 5.42943 11.8688 5.50593 11.6543 5.28618C11.427 5.07618 11.5013 4.65918 11.7938 4.54443V4.54518ZM7.92753 4.95468C8.14578 4.86618 8.42253 5.06268 8.40003 5.29743C8.42253 5.55093 8.10753 5.73843 7.88478 5.61768C7.59003 5.50518 7.62378 5.03418 7.92753 4.95468V4.95468ZM15.846 5.62443C15.5048 5.58393 15.4508 5.05593 15.7785 4.94943C16.0335 4.82793 16.2675 5.05668 16.305 5.29443C16.251 5.49693 16.0785 5.68293 15.846 5.62443V5.62443ZM8.80728 6.57318C9.17253 6.34593 9.69303 6.68418 9.63678 7.10193C9.61803 7.52268 9.04953 7.76718 8.72853 7.48218C8.41803 7.25868 8.46528 6.74568 8.80728 6.57318ZM14.3798 6.81468C14.5425 6.40218 15.2025 6.38868 15.3878 6.79068C15.5715 7.10343 15.3458 7.49118 15.0195 7.59768C14.5868 7.67718 14.1765 7.21668 14.3798 6.81468ZM11.328 7.57443C11.3243 7.21893 11.6528 6.95493 11.9955 6.93018C12.2235 6.97518 12.471 7.07043 12.5685 7.29618C12.7508 7.60818 12.5888 8.03643 12.261 8.17968C12.111 8.26218 11.9325 8.23143 11.769 8.22168C11.5193 8.10168 11.3085 7.86393 11.328 7.57443ZM5.57853 8.09193C5.91228 7.88943 6.36228 8.25693 6.23553 8.61393C6.16653 8.92218 5.74503 9.04743 5.50428 8.85093C5.24703 8.66643 5.28753 8.22318 5.57928 8.09118L5.57853 8.09193ZM17.925 8.09043C18.2078 7.87443 18.675 8.12268 18.6405 8.47368C18.66 8.79393 18.2558 9.03618 17.9753 8.87118C17.6663 8.73393 17.634 8.26593 17.925 8.09118V8.09043ZM12.945 8.72868C13.4115 8.56368 13.9665 8.76093 14.232 9.17118C14.583 9.67143 14.397 10.4334 13.8518 10.7207C13.2878 11.0604 12.4635 10.7732 12.2543 10.1522C12.018 9.59718 12.363 8.90268 12.9443 8.72868H12.945ZM10.2053 8.78343C10.7228 8.54343 11.4195 8.74443 11.6693 9.26493C11.9633 9.77193 11.736 10.4777 11.2103 10.7394C10.6838 11.0342 9.94053 10.8107 9.68628 10.2669C9.40053 9.74043 9.65403 9.02568 10.2053 8.78343V8.78343ZM7.46253 9.70518C7.50228 9.37743 7.81653 9.16368 8.13378 9.14118C8.29923 9.15865 8.45386 9.23174 8.57239 9.34849C8.69091 9.46524 8.76632 9.61876 8.78628 9.78393C8.76378 10.1214 8.49903 10.4499 8.13603 10.4484C7.73628 10.4822 7.38603 10.0907 7.46253 9.70518V9.70518ZM15.564 9.21318C15.9743 8.97843 16.5435 9.31968 16.5255 9.78318C16.5533 10.2744 15.9233 10.6202 15.5153 10.3322C15.0908 10.0922 15.1238 9.41718 15.564 9.21318ZM9.09153 10.9434C9.57003 10.8137 10.119 11.0357 10.3538 11.4692C10.611 11.9057 10.506 12.5117 10.1063 12.8327C9.59253 13.3022 8.64678 13.1132 8.37378 12.4727C8.05953 11.8854 8.44128 11.0979 9.09078 10.9427L9.09153 10.9434ZM14.2868 10.9412C14.7525 10.8099 15.3 10.9862 15.5505 11.4039C15.882 11.8817 15.7238 12.5949 15.231 12.9024C14.7135 13.2602 13.914 13.0727 13.629 12.5132C13.284 11.9349 13.6313 11.1174 14.2868 10.9412V10.9412ZM6.00678 11.4857C6.42078 11.3319 6.87978 11.7812 6.71178 12.1854C6.60978 12.5529 6.08253 12.6894 5.81028 12.4179C5.49153 12.1629 5.60928 11.5967 6.00678 11.4857V11.4857ZM17.2335 12.0722C17.2258 11.9071 17.2835 11.7456 17.3942 11.6228C17.5048 11.5001 17.6595 11.426 17.8245 11.4167C18.108 11.4617 18.384 11.6867 18.3615 11.9904C18.3878 12.3917 17.8965 12.6639 17.5485 12.4757C17.3858 12.3939 17.3025 12.2297 17.2335 12.0722ZM3.97053 11.6852C4.21953 11.5779 4.52778 11.7902 4.47078 12.0624C4.45728 12.3707 3.99453 12.4899 3.82503 12.2319C3.67503 12.0527 3.76503 11.7774 3.97053 11.6844V11.6852ZM19.6823 11.6784C19.8578 11.5562 20.1398 11.6439 20.2088 11.8457C20.3265 12.0662 20.1105 12.3677 19.8585 12.3309C19.5045 12.3624 19.3905 11.8322 19.6823 11.6784ZM10.4445 13.1582C11.1 12.9909 11.805 13.5287 11.8095 14.1932C11.8515 14.8644 11.157 15.4592 10.4865 15.3047C9.96753 15.2222 9.56028 14.7302 9.57753 14.2149C9.57603 13.7214 9.95403 13.2624 10.4445 13.1582V13.1582ZM13.041 13.1574C13.7063 12.9744 14.4323 13.5219 14.4218 14.2014C14.457 14.8599 13.7843 15.4352 13.1273 15.3039C12.5085 15.2259 12.0525 14.5577 12.225 13.9667C12.312 13.5737 12.6465 13.2542 13.041 13.1567V13.1574ZM8.03403 13.5662C8.49453 13.4889 8.92653 13.9937 8.73978 14.4242C8.60328 14.8832 7.92528 15.0069 7.62528 14.6327C7.27428 14.2727 7.53678 13.6157 8.03403 13.5662V13.5662ZM15.6495 13.5864C16.0605 13.4169 16.5645 13.7664 16.533 14.2052C16.5495 14.6874 15.927 15.0204 15.5258 14.7384C15.0705 14.4857 15.1538 13.7409 15.6495 13.5864V13.5864ZM17.778 15.6864C17.6175 15.3917 17.9093 15.0009 18.243 15.0557C18.408 15.0527 18.5243 15.1809 18.63 15.2889C18.6518 15.4637 18.6885 15.6722 18.5408 15.8064C18.3405 16.0562 17.8868 15.9849 17.778 15.6864V15.6864ZM5.57703 15.1374C5.88828 14.9342 6.33603 15.2379 6.26553 15.5949C6.22803 15.9122 5.82303 16.0929 5.55678 15.9129C5.27028 15.7502 5.28078 15.2859 5.57703 15.1374V15.1374ZM11.7218 15.7997C12.129 15.6234 12.648 15.9722 12.609 16.4132C12.639 16.9007 11.9978 17.2382 11.5995 16.9457C11.157 16.6944 11.2313 15.9549 11.7218 15.7997V15.7997ZM8.87628 16.4529C9.22278 16.2737 9.68778 16.5834 9.65628 16.9659C9.66678 17.2794 9.35628 17.5464 9.04128 17.4999C8.78103 17.4947 8.61153 17.2644 8.52753 17.0462C8.53203 16.8084 8.63178 16.5437 8.87628 16.4537V16.4529ZM14.6408 16.4589C14.9978 16.2414 15.5048 16.5534 15.471 16.9614C15.48 17.3889 14.907 17.6619 14.5748 17.3814C14.2538 17.1617 14.2928 16.6337 14.6408 16.4589ZM15.6435 18.8964C15.4845 18.6609 15.6713 18.3767 15.9285 18.3227C16.1363 18.3639 16.356 18.5177 16.3118 18.7532C16.2818 19.0734 15.8063 19.1709 15.6435 18.8972V18.8964ZM7.68528 18.6917C7.74828 18.5042 7.90128 18.3189 8.12553 18.3677C8.45178 18.3902 8.54853 18.8747 8.26278 19.0239C8.00628 19.1942 7.70778 18.9609 7.68528 18.6917ZM11.5253 18.9069C11.5875 18.6294 11.9513 18.4952 12.1913 18.6422C12.3503 18.7097 12.3968 18.8837 12.4373 19.0322C12.4159 19.1093 12.3959 19.1868 12.3773 19.2647C12.279 19.3787 12.1523 19.4934 11.9888 19.4897C11.685 19.5249 11.4105 19.1867 11.5245 18.9069H11.5253Z" fill="white"/>
</g>
<defs>
<filter id="filter0_d_8_1139" x="2.75037" y="4.00049" width="18.4915" height="16.9917" filterUnits="userSpaceOnUse" color-interpolation-filters="sRGB">
<feFlood flood-opacity="0" result="BackgroundImageFix"/>
<feColorMatrix in="SourceAlpha" type="matrix" values="0 0 0 0 0 0 0 0 0 0 0 0 0 0 0 0 0 0 127 0" result="hardAlpha"/>
<feOffset dy="0.5"/>
<feGaussianBlur stdDeviation="0.5"/>
<feColorMatrix type="matrix" values="0 0 0 0 0 0 0 0 0 0 0 0 0 0 0 0 0 0 0.204257 0"/>
<feBlend mode="normal" in2="BackgroundImageFix" result="effect1_dropShadow_8_1139"/>
<feBlend mode="normal" in="SourceGraphic" in2="effect1_dropShadow_8_1139" result="shape"/>
</filter>
<clipPath id="clip0_8_1139">
<rect width="24" height="24" fill="white"/>
</clipPath>
</defs>
</svg>
