<svg width="25" height="25" viewBox="0 0 25 25" fill="none" xmlns="http://www.w3.org/2000/svg">
<g clip-path="url(#clip0_18_10547)">
<path d="M12.3359 24.5C18.9634 24.5 24.3359 19.1274 24.3359 12.5C24.3359 5.87258 18.9634 0.5 12.3359 0.5C5.70852 0.5 0.335938 5.87258 0.335938 12.5C0.335938 19.1274 5.70852 24.5 12.3359 24.5Z" fill="black"/>
<path d="M8.02344 17.687L9.75069 14.6975L11.4764 11.7185L13.1924 8.729L13.4774 8.255L13.6027 8.729L14.1292 10.697L13.5397 11.7185L11.8139 14.6975L10.0979 17.687H12.1604L13.8869 14.6975L14.7817 13.1503L15.2032 14.6975L16.0027 17.687H17.8552L17.0557 14.6975L16.2554 11.7185L16.0454 10.9497L17.3294 8.729H15.4559L15.3922 8.50775L14.7397 6.06575L14.6557 5.75H12.8557L12.8137 5.813L11.1292 8.729L9.40269 11.7185L7.68744 14.6975L5.96094 17.687H8.02344Z" fill="white"/>
</g>
<defs>
<clipPath id="clip0_18_10547">
<rect width="24" height="24" fill="white" transform="translate(0.335938 0.5)"/>
</clipPath>
</defs>
</svg>
