<svg width="24" height="24" viewBox="0 0 24 24" fill="none" xmlns="http://www.w3.org/2000/svg">
<g clip-path="url(#clip0_18_9793)">
<path d="M12 24C18.6274 24 24 18.6274 24 12C24 5.37258 18.6274 0 12 0C5.37258 0 0 5.37258 0 12C0 18.6274 5.37258 24 12 24Z" fill="black"/>
<path d="M7.6875 17.187L9.41475 14.1975L11.1405 11.2185L12.8565 8.229L13.1415 7.755L13.2667 8.229L13.7933 10.197L13.2038 11.2185L11.478 14.1975L9.762 17.187H11.8245L13.551 14.1975L14.4458 12.6503L14.8673 14.1975L15.6668 17.187H17.5193L16.7198 14.1975L15.9195 11.2185L15.7095 10.4497L16.9935 8.229H15.12L15.0563 8.00775L14.4038 5.56575L14.3198 5.25H12.5198L12.4777 5.313L10.7933 8.229L9.06675 11.2185L7.3515 14.1975L5.625 17.187H7.6875Z" fill="white"/>
</g>
<defs>
<clipPath id="clip0_18_9793">
<rect width="24" height="24" fill="white"/>
</clipPath>
</defs>
</svg>
