<svg width="24" height="24" viewBox="0 0 24 24" fill="none" xmlns="http://www.w3.org/2000/svg">
<g clip-path="url(#clip0_18_9797)">
<path d="M12 24C18.6274 24 24 18.6274 24 12C24 5.37258 18.6274 0 12 0C5.37258 0 0 5.37258 0 12C0 18.6274 5.37258 24 12 24Z" fill="black"/>
<path d="M5.63328 17.4375C5.62276 17.2604 5.62226 17.0829 5.63178 16.9058C5.69178 16.8878 5.75328 16.8757 5.81628 16.8682C5.99778 16.8375 6.17703 16.7955 6.35403 16.743C6.40203 16.728 6.45003 16.7115 6.49653 16.6935C6.72903 16.6042 6.93453 16.4572 7.09053 16.2667C7.19853 16.134 7.29303 15.9907 7.37403 15.8392C7.48803 15.6322 7.58928 15.4185 7.67853 15.1995C7.85928 14.7585 8.03928 14.316 8.21853 13.8727L10.0628 9.303C10.6455 7.85475 11.2178 6.40275 11.778 4.94625C11.7893 4.91625 11.802 4.88775 11.8148 4.85775C12.0218 4.80075 12.2258 4.74225 12.4373 4.6875C12.4493 4.7175 12.4613 4.743 12.471 4.77L13.1835 6.72075C13.9904 8.93844 14.8087 11.152 15.6383 13.3613C15.8663 13.965 16.0958 14.5687 16.3275 15.1702C16.419 15.4162 16.5263 15.6562 16.6493 15.8887C16.7034 15.9881 16.7619 16.0849 16.8248 16.179C17.0175 16.473 17.3168 16.6853 17.6625 16.7723C17.8485 16.821 18.0375 16.8578 18.228 16.8825L18.3638 16.902C18.3833 16.9612 18.3713 17.0183 18.3728 17.0745C18.375 17.1315 18.3728 17.1945 18.3728 17.2552C18.375 17.3137 18.3735 17.3715 18.3698 17.43C18.3503 17.433 18.3353 17.436 18.3203 17.4375H13.548C13.543 17.4273 13.5395 17.4164 13.5375 17.4053V16.926C13.5388 16.9188 13.5408 16.9118 13.5435 16.905C13.5831 16.8941 13.6235 16.8865 13.6643 16.8825C13.8608 16.8578 14.0543 16.8202 14.2463 16.7715C14.3228 16.7505 14.3985 16.7235 14.4735 16.6965C14.511 16.6815 14.547 16.6642 14.5815 16.644C14.7698 16.5405 14.8455 16.3785 14.829 16.1715C14.8207 16.0777 14.8038 15.9848 14.7788 15.894C14.7413 15.7515 14.6888 15.6143 14.6393 15.4763C13.6508 12.7751 12.673 10.0701 11.706 7.36125C11.6955 7.33125 11.6925 7.299 11.6618 7.27275C11.652 7.27875 11.6393 7.28325 11.6318 7.2915C11.6239 7.30517 11.6179 7.31979 11.6138 7.335C11.1413 8.667 10.638 9.9885 10.1363 11.31C9.76653 12.2895 9.39603 13.2675 9.05103 14.2552C8.91331 14.6514 8.77955 15.0489 8.64978 15.4478C8.59894 15.6 8.5613 15.7563 8.53728 15.915C8.51891 16.0208 8.51588 16.1286 8.52828 16.2352C8.53642 16.3047 8.55905 16.3718 8.59471 16.432C8.63036 16.4922 8.67825 16.5442 8.73528 16.5848C8.81178 16.638 8.89578 16.6808 8.98428 16.71C9.12528 16.7588 9.27078 16.7955 9.41853 16.8195C9.58128 16.8488 9.74553 16.8712 9.90903 16.8967L9.94428 16.9028C9.94821 16.9144 9.95073 16.9265 9.95178 16.9387V17.4022C9.95064 17.4114 9.94863 17.4205 9.94578 17.4293C9.93117 17.4325 9.9164 17.435 9.90153 17.4368H5.63328V17.4375V17.4375Z" fill="white"/>
</g>
<defs>
<clipPath id="clip0_18_9797">
<rect width="24" height="24" fill="white"/>
</clipPath>
</defs>
</svg>
