<svg width="25" height="25" viewBox="0 0 25 25" fill="none" xmlns="http://www.w3.org/2000/svg">
<g clip-path="url(#clip0_18_10571)">
<path d="M12.3359 24.5C18.9634 24.5 24.3359 19.1274 24.3359 12.5C24.3359 5.87258 18.9634 0.5 12.3359 0.5C5.70852 0.5 0.335938 5.87258 0.335938 12.5C0.335938 19.1274 5.70852 24.5 12.3359 24.5Z" fill="black"/>
<path d="M5.96922 17.9375C5.9587 17.7604 5.9582 17.5829 5.96772 17.4058C6.02772 17.3878 6.08922 17.3757 6.15222 17.3682C6.33372 17.3375 6.51297 17.2955 6.68997 17.243C6.73797 17.228 6.78597 17.2115 6.83247 17.1935C7.06497 17.1042 7.27047 16.9572 7.42647 16.7667C7.53447 16.634 7.62897 16.4907 7.70997 16.3392C7.82397 16.1322 7.92522 15.9185 8.01447 15.6995C8.19522 15.2585 8.37522 14.816 8.55447 14.3727L10.3987 9.803C10.9815 8.35475 11.5537 6.90275 12.114 5.44625C12.1252 5.41625 12.138 5.38775 12.1507 5.35775C12.3577 5.30075 12.5617 5.24225 12.7732 5.1875C12.7852 5.2175 12.7972 5.243 12.807 5.27L13.5195 7.22075C14.3264 9.43844 15.1446 11.652 15.9742 13.8613C16.2022 14.465 16.4317 15.0687 16.6635 15.6702C16.755 15.9162 16.8622 16.1562 16.9852 16.3887C17.0393 16.4881 17.0979 16.5849 17.1607 16.679C17.3535 16.973 17.6527 17.1853 17.9985 17.2723C18.1845 17.321 18.3735 17.3578 18.564 17.3825L18.6997 17.402C18.7192 17.4612 18.7072 17.5183 18.7087 17.5745C18.711 17.6315 18.7087 17.6945 18.7087 17.7552C18.711 17.8137 18.7095 17.8715 18.7057 17.93C18.6862 17.933 18.6712 17.936 18.6562 17.9375H13.884C13.879 17.9273 13.8754 17.9164 13.8735 17.9053V17.426C13.8747 17.4188 13.8767 17.4118 13.8795 17.405C13.919 17.3941 13.9594 17.3865 14.0002 17.3825C14.1967 17.3578 14.3902 17.3202 14.5822 17.2715C14.6587 17.2505 14.7345 17.2235 14.8095 17.1965C14.847 17.1815 14.883 17.1642 14.9175 17.144C15.1057 17.0405 15.1815 16.8785 15.165 16.6715C15.1566 16.5777 15.1398 16.4848 15.1147 16.394C15.0772 16.2515 15.0247 16.1143 14.9752 15.9763C13.9867 13.2751 13.009 10.5701 12.042 7.86125C12.0315 7.83125 12.0285 7.799 11.9977 7.77275C11.988 7.77875 11.9752 7.78325 11.9677 7.7915C11.9599 7.80517 11.9538 7.81979 11.9497 7.835C11.4772 9.167 10.974 10.4885 10.4722 11.81C10.1025 12.7895 9.73197 13.7675 9.38697 14.7552C9.24925 15.1514 9.1155 15.5489 8.98572 15.9478C8.93488 16.1 8.89724 16.2563 8.87322 16.415C8.85485 16.5208 8.85182 16.6286 8.86422 16.7352C8.87236 16.8047 8.89499 16.8718 8.93065 16.932C8.9663 16.9922 9.01419 17.0442 9.07122 17.0848C9.14772 17.138 9.23172 17.1808 9.32022 17.21C9.46122 17.2588 9.60672 17.2955 9.75447 17.3195C9.91722 17.3488 10.0815 17.3712 10.245 17.3967L10.2802 17.4028C10.2842 17.4144 10.2867 17.4265 10.2877 17.4387V17.9022C10.2866 17.9114 10.2846 17.9205 10.2817 17.9293C10.2671 17.9325 10.2523 17.935 10.2375 17.9368H5.96922V17.9375V17.9375Z" fill="white"/>
</g>
<defs>
<clipPath id="clip0_18_10571">
<rect width="24" height="24" fill="white" transform="translate(0.335938 0.5)"/>
</clipPath>
</defs>
</svg>
