<svg width="25" height="25" viewBox="0 0 25 25" fill="none" xmlns="http://www.w3.org/2000/svg">
<g clip-path="url(#clip0_18_10596)">
<path d="M12.3359 24.5C18.9634 24.5 24.3359 19.1274 24.3359 12.5C24.3359 5.87258 18.9634 0.5 12.3359 0.5C5.70852 0.5 0.335938 5.87258 0.335938 12.5C0.335938 19.1274 5.70852 24.5 12.3359 24.5Z" fill="#2E3148"/>
<path d="M12.3505 4.64746C11.3793 4.64746 10.5918 8.17021 10.5918 12.515C10.5918 16.8597 11.3793 20.3825 12.3505 20.3825C13.321 20.3825 14.1085 16.8597 14.1085 12.515C14.1085 8.17021 13.321 4.64746 12.3505 4.64746ZM12.472 19.9377C12.361 20.0862 12.2493 19.9752 12.2493 19.9752C11.8023 19.4562 11.5788 18.494 11.5788 18.494C10.7965 15.9762 10.9825 10.571 10.9825 10.571C11.35 6.28021 12.019 5.26621 12.2463 5.04121C12.2696 5.01814 12.3003 5.00404 12.3329 5.00144C12.3656 4.99883 12.3982 5.00787 12.4248 5.02696C12.7548 5.26171 13.0323 6.23971 13.0323 6.23971C13.8498 9.27571 13.7755 12.1257 13.7755 12.1257C13.8498 14.6067 13.366 17.3832 13.366 17.3832C12.9933 19.4937 12.472 19.9377 12.472 19.9377Z" fill="white"/>
<path d="M19.1749 8.59994C18.6912 7.75694 15.2449 8.82719 11.4747 10.9894C7.70442 13.1517 5.04493 15.5869 5.52718 16.4299C6.01093 17.2729 9.45793 16.2027 13.2282 14.0404C16.9984 11.8782 19.6587 9.44219 19.1757 8.59994H19.1749ZM5.97268 16.3137C5.78818 16.2912 5.83018 16.1382 5.83018 16.1382C6.05668 15.4932 6.77968 14.8197 6.77968 14.8197C8.57443 12.8884 13.3564 10.3602 13.3564 10.3602C17.2609 8.54369 18.4737 8.62019 18.7812 8.70419C18.8129 8.7129 18.8405 8.73262 18.8591 8.75983C18.8776 8.78703 18.8859 8.81995 18.8824 8.85269C18.8449 9.25544 18.1324 9.98294 18.1324 9.98294C15.9079 12.2037 13.3984 13.5589 13.3984 13.5589C11.2834 14.8579 8.63368 15.8187 8.63368 15.8187C6.61768 16.5447 5.97268 16.3137 5.97268 16.3137V16.3137Z" fill="white"/>
<path d="M19.1573 16.4577C19.6448 15.6177 16.9921 13.1704 13.2338 10.9917C9.47631 8.81367 6.03081 7.73067 5.54406 8.57217C5.05656 9.41442 7.71006 11.8594 11.4691 14.0382C15.2288 16.2162 18.6706 17.2992 19.1573 16.4577ZM5.86731 8.89692C5.79456 8.72592 5.94681 8.68467 5.94681 8.68467C6.61956 8.55717 7.56456 8.84742 7.56456 8.84742C10.1348 9.43242 14.7181 12.3034 14.7181 12.3034C18.2468 14.7724 18.7883 15.8607 18.8693 16.1689C18.8775 16.2006 18.8743 16.2341 18.8601 16.2637C18.846 16.2932 18.8219 16.3167 18.7921 16.3302C18.4246 16.4989 17.4383 16.2477 17.4383 16.2477C14.4008 15.4332 11.9716 13.9414 11.9716 13.9414C9.78906 12.7639 7.63056 10.9527 7.63056 10.9527C5.99031 9.57118 5.86806 8.89767 5.86806 8.89767L5.86656 8.89692H5.86731Z" fill="white"/>
<path d="M12.3317 13.4217C12.8429 13.4217 13.2572 13.0073 13.2572 12.4962C13.2572 11.985 12.8429 11.5707 12.3317 11.5707C11.8206 11.5707 11.4062 11.985 11.4062 12.4962C11.4062 13.0073 11.8206 13.4217 12.3317 13.4217Z" fill="white"/>
<path d="M16.127 9.69202C16.5412 9.69202 16.877 9.35623 16.877 8.94202C16.877 8.5278 16.5412 8.19202 16.127 8.19202C15.7127 8.19202 15.377 8.5278 15.377 8.94202C15.377 9.35623 15.7127 9.69202 16.127 9.69202Z" fill="white"/>
<path d="M7.31641 11.5804C7.73062 11.5804 8.06641 11.2447 8.06641 10.8304C8.06641 10.4162 7.73062 10.0804 7.31641 10.0804C6.90219 10.0804 6.56641 10.4162 6.56641 10.8304C6.56641 11.2447 6.90219 11.5804 7.31641 11.5804Z" fill="white"/>
<path d="M11.2402 18.392C11.6544 18.392 11.9902 18.0562 11.9902 17.642C11.9902 17.2278 11.6544 16.892 11.2402 16.892C10.826 16.892 10.4902 17.2278 10.4902 17.642C10.4902 18.0562 10.826 18.392 11.2402 18.392Z" fill="white"/>
</g>
<defs>
<clipPath id="clip0_18_10596">
<rect width="24" height="24" fill="white" transform="translate(0.335938 0.5)"/>
</clipPath>
</defs>
</svg>
