<svg width="24" height="24" viewBox="0 0 24 24" fill="none" xmlns="http://www.w3.org/2000/svg">
<g clip-path="url(#clip0_18_9801)">
<path d="M12 24C18.6274 24 24 18.6274 24 12C24 5.37258 18.6274 0 12 0C5.37258 0 0 5.37258 0 12C0 18.6274 5.37258 24 12 24Z" fill="#2E3148"/>
<path d="M12.015 4.14752C11.0438 4.14752 10.2563 7.67027 10.2563 12.015C10.2563 16.3598 11.0438 19.8825 12.015 19.8825C12.9855 19.8825 13.773 16.3598 13.773 12.015C13.773 7.67027 12.9855 4.14752 12.015 4.14752ZM12.1365 19.4378C12.0255 19.5863 11.9138 19.4753 11.9138 19.4753C11.4668 18.9563 11.2433 17.994 11.2433 17.994C10.461 15.4763 10.647 10.071 10.647 10.071C11.0145 5.78027 11.6835 4.76627 11.9108 4.54127C11.934 4.51819 11.9647 4.5041 11.9974 4.50149C12.0301 4.49889 12.0626 4.50793 12.0893 4.52702C12.4193 4.76177 12.6968 5.73977 12.6968 5.73977C13.5143 8.77577 13.44 11.6258 13.44 11.6258C13.5143 14.1068 13.0305 16.8833 13.0305 16.8833C12.6578 18.9938 12.1365 19.4378 12.1365 19.4378Z" fill="white"/>
<path d="M18.8385 8.10005C18.3548 7.25705 14.9085 8.3273 11.1382 10.4896C7.368 12.6518 4.7085 15.0871 5.19075 15.9301C5.6745 16.7731 9.1215 15.7028 12.8917 13.5406C16.662 11.3783 19.3222 8.9423 18.8392 8.10005H18.8385ZM5.63625 15.8138C5.45175 15.7913 5.49375 15.6383 5.49375 15.6383C5.72025 14.9933 6.44325 14.3198 6.44325 14.3198C8.238 12.3886 13.02 9.8603 13.02 9.8603C16.9245 8.0438 18.1373 8.1203 18.4448 8.2043C18.4765 8.21301 18.5041 8.23274 18.5227 8.25994C18.5412 8.28714 18.5495 8.32006 18.546 8.3528C18.5085 8.75555 17.796 9.48305 17.796 9.48305C15.5715 11.7038 13.062 13.0591 13.062 13.0591C10.947 14.3581 8.29725 15.3188 8.29725 15.3188C6.28125 16.0448 5.63625 15.8138 5.63625 15.8138V15.8138Z" fill="white"/>
<path d="M18.8213 15.9577C19.3088 15.1177 16.656 12.6705 12.8978 10.4917C9.14025 8.31374 5.69475 7.23074 5.208 8.07224C4.7205 8.91449 7.374 11.3595 11.133 13.5382C14.8928 15.7162 18.3345 16.7992 18.8213 15.9577ZM5.53125 8.39699C5.4585 8.22599 5.61075 8.18474 5.61075 8.18474C6.2835 8.05724 7.2285 8.34749 7.2285 8.34749C9.79875 8.93249 14.382 11.8035 14.382 11.8035C17.9108 14.2725 18.4523 15.3607 18.5333 15.669C18.5415 15.7007 18.5382 15.7342 18.5241 15.7637C18.5099 15.7932 18.4858 15.8168 18.456 15.8302C18.0885 15.999 17.1023 15.7477 17.1023 15.7477C14.0648 14.9332 11.6355 13.4415 11.6355 13.4415C9.453 12.264 7.2945 10.4527 7.2945 10.4527C5.65425 9.07124 5.532 8.39774 5.532 8.39774L5.5305 8.39699H5.53125Z" fill="white"/>
<path d="M11.9963 12.9217C12.5074 12.9217 12.9218 12.5074 12.9218 11.9962C12.9218 11.4851 12.5074 11.0707 11.9963 11.0707C11.4851 11.0707 11.0708 11.4851 11.0708 11.9962C11.0708 12.5074 11.4851 12.9217 11.9963 12.9217Z" fill="white"/>
<path d="M15.7912 9.19207C16.2055 9.19207 16.5412 8.85628 16.5412 8.44207C16.5412 8.02785 16.2055 7.69207 15.7912 7.69207C15.377 7.69207 15.0412 8.02785 15.0412 8.44207C15.0412 8.85628 15.377 9.19207 15.7912 9.19207Z" fill="white"/>
<path d="M6.9795 11.0805C7.39371 11.0805 7.7295 10.7447 7.7295 10.3305C7.7295 9.91624 7.39371 9.58045 6.9795 9.58045C6.56529 9.58045 6.2295 9.91624 6.2295 10.3305C6.2295 10.7447 6.56529 11.0805 6.9795 11.0805Z" fill="white"/>
<path d="M10.9043 17.892C11.3185 17.892 11.6543 17.5562 11.6543 17.142C11.6543 16.7278 11.3185 16.392 10.9043 16.392C10.49 16.392 10.1543 16.7278 10.1543 17.142C10.1543 17.5562 10.49 17.892 10.9043 17.892Z" fill="white"/>
</g>
<defs>
<clipPath id="clip0_18_9801">
<rect width="24" height="24" fill="white"/>
</clipPath>
</defs>
</svg>
