<svg width="50" height="51" viewBox="0 0 50 51" fill="none" xmlns="http://www.w3.org/2000/svg">
<mask id="mask0_2_4969" style="mask-type:alpha" maskUnits="userSpaceOnUse" x="0" y="0" width="50" height="51">
<rect y="0.5" width="49.0196" height="50" fill="#D9D9D9"/>
</mask>
<g mask="url(#mask0_2_4969)">
<path d="M24.714 46.3333C21.8546 46.3333 19.1738 45.7777 16.6718 44.6666C14.1697 43.5555 11.9911 42.0538 10.1358 40.1614C8.28056 38.2691 6.80827 36.0468 5.71895 33.4948C4.62962 30.9427 4.08496 28.2083 4.08496 25.2916C4.08496 20.2222 5.66789 15.7517 8.83374 11.8802C11.9996 8.00864 16.0335 5.60413 20.9355 4.66663C20.3227 8.10413 20.5099 11.4635 21.4971 14.7448C22.4843 18.026 24.1864 20.8993 26.6033 23.3645C29.0203 25.8298 31.8372 27.5659 35.0541 28.5729C38.271 29.5798 41.5645 29.7708 44.9346 29.1458C44.0496 34.1458 41.7007 38.2604 37.8881 41.4895C34.0754 44.7187 29.6841 46.3333 24.714 46.3333Z" fill="#F9D905"/>
</g>
</svg>
