<svg width="69" height="62" viewBox="0 0 69 62" fill="none" xmlns="http://www.w3.org/2000/svg">
<mask id="mask0_3_1508" style="mask-type:alpha" maskUnits="userSpaceOnUse" x="0" y="0" width="69" height="62">
<rect x="0.222656" y="0.725586" width="68" height="61" fill="#D9D9D9"/>
</mask>
<g mask="url(#mask0_3_1508)">
<path d="M34.5058 56.6423C30.5392 56.6423 26.8204 55.9645 23.3496 54.6089C19.8787 53.2534 16.8565 51.4213 14.2829 49.1126C11.7093 46.8039 9.66694 44.0928 8.15583 40.9792C6.64472 37.8657 5.88916 34.5298 5.88916 30.9714C5.88916 24.7867 8.08499 19.3327 12.4767 14.6094C16.8683 9.88618 22.4642 6.95267 29.2642 5.80892C28.4142 10.0027 28.6739 14.1011 30.0433 18.1042C31.4128 22.1074 33.7739 25.6127 37.1267 28.6204C40.4794 31.628 44.3871 33.7461 48.8496 34.9745C53.3121 36.203 57.8808 36.436 62.5558 35.6735C61.328 41.7735 58.0697 46.7933 52.7808 50.7329C47.4919 54.6725 41.4003 56.6423 34.5058 56.6423Z" fill="#F9D905"/>
</g>
</svg>
