<svg width="70" height="70" viewBox="0 0 70 70" fill="none" xmlns="http://www.w3.org/2000/svg">
<g clip-path="url(#clip0_15_7096)">
<path d="M35 70C54.33 70 70 54.33 70 35C70 15.67 54.33 0 35 0C15.67 0 0 15.67 0 35C0 54.33 15.67 70 35 70Z" fill="#F3BA2F"/>
<path d="M26.5038 31.5088L35 23.0125L43.5006 31.5131L48.4444 26.5694L35 13.125L21.56 26.565L26.5038 31.5088ZM13.125 35L18.0688 30.0562L23.0125 35L18.0688 39.9438L13.125 35ZM26.5038 38.4913L35 46.9875L43.5006 38.4869L48.4444 43.4284L35 56.875L21.56 43.435L21.5534 43.4284L26.5038 38.4913ZM46.9875 35L51.9312 30.0562L56.875 35L51.9312 39.9438L46.9875 35ZM40.0137 34.9956H40.0181V35L35 40.0181L29.9884 35.0087L29.9797 35L29.9884 34.9934L30.8656 34.1141L31.2922 33.6875L35 29.9819L40.0159 34.9978L40.0137 34.9956Z" fill="white"/>
</g>
<defs>
<clipPath id="clip0_15_7096">
<rect width="70" height="70" fill="white"/>
</clipPath>
</defs>
</svg>
