<svg width="30" height="30" viewBox="0 0 30 30" fill="none" xmlns="http://www.w3.org/2000/svg">
<g clip-path="url(#clip0_15_7428)">
<path d="M30 15C30 17.9667 29.1203 20.8668 27.4721 23.3336C25.8238 25.8003 23.4812 27.7229 20.7403 28.8582C17.9994 29.9935 14.9834 30.2906 12.0737 29.7118C9.16394 29.133 6.49119 27.7044 4.39341 25.6066C2.29562 23.5088 0.867006 20.8361 0.288228 17.9264C-0.290551 15.0166 0.0064992 12.0006 1.14181 9.25975C2.27713 6.51886 4.19972 4.17618 6.66645 2.52796C9.13319 0.879735 12.0333 0 15 0C18.9783 0 22.7936 1.58035 25.6066 4.3934C28.4197 7.20644 30 11.0218 30 15V15Z" fill="#F7931A"/>
<path fill-rule="evenodd" clip-rule="evenodd" d="M10.6609 6.84952L14.1082 7.7727L14.8786 4.90088L16.6023 5.36861L15.8618 8.12179L17.2677 8.49952L18.0095 5.71633L19.7632 6.18542L19.0077 8.98361C19.0077 8.98361 21.8714 9.6177 22.545 11.9468C23.2186 14.2759 21.0641 15.4991 20.3986 15.5454C20.3986 15.5454 22.9077 16.9213 22.0459 19.6282C21.1841 22.335 18.5386 22.8191 15.7555 22.1986L15 25.1004L13.2464 24.6313L14.0168 21.7745L12.6259 21.3954L11.8555 24.2727L10.1155 23.805L10.8873 20.9413L7.34863 19.9868L8.24045 18.0068C8.24045 18.0068 9.23863 18.2795 9.61636 18.3695C9.99409 18.4595 10.2368 18.0668 10.3432 17.6741C10.4495 17.2813 12.0518 10.7727 12.2032 10.2368C12.3545 9.70088 12.2932 9.28224 11.6577 9.11724C11.0223 8.95224 10.1577 8.69451 10.1577 8.69451L10.6609 6.84952ZM14.1382 15.4691L13.1836 19.2641C13.1836 19.2641 17.9168 20.9727 18.5223 18.5686C19.1277 16.1645 14.1382 15.4691 14.1382 15.4691ZM14.5773 13.6691L15.5141 10.1918C15.5141 10.1918 19.5668 10.9172 19.0677 12.8522C18.5686 14.7872 16.1795 14.0454 14.5773 13.6691Z" fill="white"/>
</g>
<defs>
<clipPath id="clip0_15_7428">
<rect width="30" height="30" fill="white"/>
</clipPath>
</defs>
</svg>
