<svg width="70" height="70" viewBox="0 0 70 70" fill="none" xmlns="http://www.w3.org/2000/svg">
<g clip-path="url(#clip0_15_7109)">
<path d="M35 70C54.33 70 70 54.33 70 35C70 15.67 54.33 0 35 0C15.67 0 0 15.67 0 35C0 54.33 15.67 70 35 70Z" fill="#F7931A"/>
<path d="M50.7258 30.6688C51.4126 26.0838 47.9192 23.6184 43.1461 21.9734L44.6948 15.7609L40.9148 14.8203L39.4055 20.8687C38.4123 20.6194 37.393 20.3875 36.3758 20.1556L37.8961 14.0678L34.1161 13.125L32.5673 19.3353C31.7448 19.1472 30.9355 18.9634 30.1523 18.7666L30.1567 18.7469L24.9417 17.4453L23.9355 21.4834C23.9355 21.4834 26.742 22.1266 26.683 22.1659C28.2142 22.5488 28.4898 23.5616 28.4439 24.3666L26.6808 31.4431C26.7858 31.4694 26.9214 31.5087 27.0745 31.5678L26.6742 31.4694L24.2023 41.3831C24.0142 41.8469 23.5395 42.5447 22.4676 42.28C22.507 42.3347 19.7201 41.5953 19.7201 41.5953L17.8433 45.9222L22.7651 47.1494C23.6795 47.3791 24.5764 47.6197 25.4579 47.845L23.8939 54.1275L27.6717 55.0681L29.2205 48.8556C30.253 49.1334 31.2548 49.3916 32.2348 49.6366L30.6905 55.8228L34.4705 56.7634L36.0345 50.4941C42.4833 51.7147 47.3308 51.2225 49.3717 45.3906C51.0167 40.6963 49.2908 37.9859 45.898 36.2206C48.3698 35.6519 50.2292 34.0266 50.7258 30.6688V30.6688ZM42.0851 42.7831C40.9192 47.4797 33.0114 44.94 30.4476 44.3034L32.5258 35.98C35.0895 36.6209 43.308 37.8875 42.0851 42.7831ZM43.2555 30.6009C42.1901 34.8731 35.6101 32.7009 33.4773 32.1694L35.3586 24.6225C37.4914 25.1541 44.3667 26.145 43.2555 30.6009Z" fill="white"/>
</g>
<defs>
<clipPath id="clip0_15_7109">
<rect width="70" height="70" fill="white"/>
</clipPath>
</defs>
</svg>
