<svg width="136" height="50" viewBox="0 0 136 50" fill="none" xmlns="http://www.w3.org/2000/svg">
<g clip-path="url(#clip0_2_3526)">
<path d="M0.0148926 35.5236L0.813709 35.54L1.61253 35.3245L2.41134 33.6888L3.21016 33.2163L4.00898 33.2234L4.80779 34.0813L5.60661 35.2796L6.40543 34.3332L7.20424 34.2059L8.00306 33.8135L8.80188 32.6754L9.60069 32.9667L10.3995 32.7444L11.1983 32.6758L11.9971 32.946L12.796 32.9075L13.5948 32.2241L14.3936 32.5165L15.1924 32.8938L15.9912 35.1653L16.79 38.3411L17.5889 40.6245L18.3877 44.5228L19.1865 45.0758L19.9853 45.0065L20.7841 45.3302L21.5829 45.5362L22.3818 44.5323L23.1806 44.9684L23.9794 44.6378L24.7782 42.827L25.577 42.8267L26.3758 42.0972L27.1747 43.0051L27.9735 43.6419L28.7723 43.7365L29.5711 45.3329L30.3699 44.3198L31.1687 44.2719L31.9676 45.1163L32.7664 45.6501L33.5652 46.3518L34.364 47.318L35.1628 44.5763L35.9616 45.2425L36.7605 44.9249L37.5593 44.5283L38.3581 44.7681L39.1569 44.7522L39.9557 46.8203L40.7545 46.8782L41.5534 46.771L42.3522 46.6828L43.151 47.4985L43.9498 47.4999L44.7486 48.873L45.5474 48.2841L46.3463 47.7492L47.1451 47.2875L47.9439 47.4224L48.7427 46.4109L49.5415 47.5009L50.3403 48.5551L51.1392 47.9524L51.938 47.9478L52.7368 47.9792L53.5356 48.0342L54.3344 48.6537L55.1332 48.7515L55.9321 49.4087L56.7309 50L57.5297 49.6115L58.3285 49.8299L59.1273 48.7351L59.9261 48.4785L60.725 48.1924L61.5238 48.9459L62.3226 48.362L63.1214 47.2575L63.9202 45.6559L64.719 44.6862L65.5179 44.88L66.3167 42.9104L67.1155 42.5315L67.9143 42.9977L68.7131 41.674L69.5119 33.0697L70.3108 34.7542L71.1096 33.7721L71.9084 38.2842L72.7072 35.0039L73.506 34.4021L74.3048 36.184L75.1037 33.9895L75.9025 32.7207L76.7013 32.1446L77.5001 31.4168L78.2989 31.7833L79.0977 33.8356L79.8966 33.2439L80.6954 33.2344L81.4942 32.3675L82.293 32.5503L83.0918 33.005L83.8906 33.2151L84.6894 34.7424L85.4883 34.2254L86.2871 32.8718L87.0859 32.4852L87.8847 31.869L88.6835 27.0394L89.4823 25.9743L90.2812 24.3803L91.08 23.5149L91.8788 23.4209L92.6776 20.3085L93.4764 19.5647L94.2752 20.7828L95.0741 20.0224L95.8729 20.4606L96.6717 23.328L97.4705 24.161L98.2693 24.1486L99.0681 23.1639L99.867 22.9809L100.666 22.4073L101.465 21.3978L102.263 20.3177L103.062 20.3962L103.861 20.6808L104.66 20.2264L105.459 19.4894L106.257 18.9651L107.056 18.7094L107.855 17.9368L108.654 17.7204L109.453 15.9371L110.252 18.2345L111.05 17.5115L111.849 19.1066L112.648 23.12L113.447 21.3587L114.246 19.4688L115.044 12.7632L115.843 11.7139L116.642 9.23935L117.441 8.86777L118.24 10.1336L119.039 9.75709L119.837 9.10947L120.636 5.66053L121.435 0L122.234 46.4097L123.033 23.1337L123.831 16.6795L124.63 19.4173L125.429 18.9629L126.228 17.933L127.027 16.1956L127.826 18.426L128.624 19.4695L129.423 19.7361L130.222 18.4172L131.021 18.2384L131.82 19.5515L132.618 19.1593L133.417 13.3118L134.216 14.5311" stroke="#57FF84" stroke-width="1.25"/>
</g>
<defs>
<clipPath id="clip0_2_3526">
<rect width="135" height="50" fill="white" transform="translate(0.0148926)"/>
</clipPath>
</defs>
</svg>
