<svg width="136" height="50" viewBox="0 0 136 50" fill="none" xmlns="http://www.w3.org/2000/svg">
<g clip-path="url(#clip0_2_4423)">
<path d="M0.0148926 5.86922L0.813709 7.46489L1.61253 5.72555L2.41134 2.74293L3.21016 1.41855L4.00898 3.8382L4.80779 9.61585L5.60661 6.67226L6.40543 6.98202L7.20424 7.15314L8.00306 3.24359L8.80188 3.24604L9.60069 2.25691L10.3995 1.98354L11.1983 1.08743L11.9971 1.57632L12.796 2.92196L13.5948 1.58772L14.3936 0L15.1924 1.24757L15.9912 7.22069L16.79 13.0982L17.5889 21.0942L18.3877 24.7653L19.1865 30.7358L19.9853 33.8514L20.7841 35.0085L21.5829 37.9271L22.3818 35.6972L23.1806 36.1998L23.9794 34.9627L24.7782 34.3612L25.577 31.3018L26.3758 27.6776L27.1747 27.5169L27.9735 32.4881L28.7723 31.3672L29.5711 27.774L30.3699 27.8269L31.1687 28.6109L31.9676 34.4534L32.7664 25.5873L33.5652 24.6857L34.364 29.4887L35.1628 28.4351L35.9616 32.4044L36.7605 28.355L37.5593 18.4039L38.3581 21.0373L39.1569 27.933L39.9557 34.9799L40.7545 33.2213L41.5534 36.2127L42.3522 37.8716L43.151 39.0597L43.9498 37.4087L44.7486 35.1135L45.5474 34.5594L46.3463 33.2867L47.1451 34.3803L47.9439 32.6146L48.7427 31.489L49.5415 32.9382L50.3403 41.8022L51.1392 41.1671L51.938 39.154L52.7368 39.9627L53.5356 44.2317L54.3344 42.6946L55.1332 44.0238L55.9321 43.79L56.7309 50L57.5297 45.5191L58.3285 45.4515L59.1273 41.8575L59.9261 44.416L60.725 40.2453L61.5238 39.0716L62.3226 38.742L63.1214 44.9449L63.9202 38.8544L64.719 39.913L65.5179 39.4575L66.3167 39.2357L67.1155 38.4375L67.9143 39.4971L68.7131 35.8595L69.5119 35.5306L70.3108 38.6122L71.1096 35.0748L71.9084 31.4617L72.7072 30.9675L73.506 32.7548L74.3048 33.5891L75.1037 29.36L75.9025 26.4814L76.7013 28.59L77.5001 25.889L78.2989 23.39L79.0977 21.7186L79.8966 22.4252L80.6954 23.8329L81.4942 16.2473L82.293 15.8699L83.0918 19.7124L83.8906 26.9402L84.6894 25.7901L85.4883 23.2323L86.2871 20.9825L87.0859 20.7808L87.8847 20.8382L88.6835 19.4056L89.4823 16.8677L90.2812 20.5515L91.08 21.5334L91.8788 15.5945L92.6776 15.9029L93.4764 18.1382L94.2752 18.3409L95.0741 21.1062L95.8729 21.5442L96.6717 24.8651L97.4705 22.3876L98.2693 26.2586L99.0681 23.5728L99.867 21.134L100.666 21.4275L101.465 22.9975L102.263 21.7459L103.062 22.5007L103.861 23.2698L104.66 26.6287L105.459 25.9263L106.257 26.6934L107.056 25.7605L107.855 22.7589L108.654 21.511L109.453 22.467L110.252 21.6678L111.05 18.0954L111.849 19.2734L112.648 14.969L113.447 14.0149L114.246 14.2039L115.044 16.1179L115.843 14.2583L116.642 14.765L117.441 14.1043L118.24 16.2369L119.039 15.0699L119.837 13.7526L120.636 9.80207L121.435 12.7941L122.234 10.0967L123.033 10.0369L123.831 10.6922L124.63 10.2534L125.429 9.58008L126.228 10.2445L127.027 10.6016L127.826 13.877L128.624 19.7792L129.423 16.9235L130.222 19.6456L131.021 15.0062L131.82 14.8363L132.618 14.7414L133.417 14.2268L134.216 17.0137" stroke="#FF3A33" stroke-width="1.25"/>
</g>
<defs>
<clipPath id="clip0_2_4423">
<rect width="135" height="50" fill="white" transform="translate(0.0148926)"/>
</clipPath>
</defs>
</svg>
