<svg width="136" height="50" viewBox="0 0 136 50" fill="none" xmlns="http://www.w3.org/2000/svg">
<g clip-path="url(#clip0_2_4567)">
<path d="M0.0148926 18.8339L0.818464 20.4858L1.62204 15.4416L2.42561 17.5753L3.22918 19.2652L4.03275 23.4953L4.83632 13.8863L5.63989 14.0999L6.44346 13.9782L7.24704 13.2223L8.05061 14.2222L8.85418 16.4661L9.65775 16.2267L10.4613 16.1797L11.2649 16.2799L12.0685 14.7688L12.872 14.7938L13.6756 15.7498L14.4792 15.2659L15.2828 21.7406L16.0863 31.9248L16.8899 34.8856L17.6935 40.0361L18.497 43.2883L19.3006 45.9074L20.1042 47.5551L20.9077 48.4905L21.7113 46.1017L22.5149 49.1346L23.3185 46.3206L24.122 45.0182L24.9256 38.335L25.7292 29.9698L26.5327 16.9869L27.3363 15.3103L28.1399 13.1835L28.9435 7.9737L29.747 11.3247L30.5506 8.01355L31.3542 16.4001L32.1577 13.5098L32.9613 13.2132L33.7649 15.2573L34.5685 7.52783L35.372 14.3866L36.1756 11.1465L36.9792 22.2497L37.7827 23.6547L38.5863 34.5851L39.3899 29.8508L40.1935 22.5579L40.997 26.8332L41.8006 26.5149L42.6042 26.7957L43.4077 16.9119L44.2113 18.4356L45.0149 15.4677L45.8185 17.5275L46.622 22.3936L47.4256 23.937L48.2292 27.7801L49.0327 33.3421L49.8363 37.8468L50.6399 36.0504L51.4435 35.9376L52.247 41.3198L53.0506 43.7531L53.8542 38.3446L54.6577 44.4563L55.4613 45.3198L56.2649 50L57.0685 44.0847L57.872 46.1987L58.6756 45.1095L59.4792 48.3042L60.2827 42.9503L61.0863 44.0616L61.8899 43.3634L62.6935 43.8218L63.497 41.4403L64.3006 41.4432L65.1042 42.5569L65.9078 45.8123L66.7113 45.8587L67.5149 45.8699L68.3185 43.4602L69.122 43.0223L69.9256 44.5277L70.7292 45.0764L71.5328 45.0252L72.3363 42.0936L73.1399 42.1266L73.9435 41.8266L74.747 30.9697L75.5506 25.7936L76.3542 27.4547L77.1578 27.0561L77.9613 25.3439L78.7649 26.5473L79.5685 30.8761L80.372 31.0559L81.1756 28.68L81.9792 27.5418L82.7828 31.6577L83.5863 36.111L84.3899 29.2219L85.1935 27.1917L85.997 29.0117L86.8006 30.0593L87.6042 30.7971L88.4078 30.6333L89.2113 28.1849L90.0149 29.61L90.8185 26.9304L91.622 24.0321L92.4256 28.481L93.2292 25.4502L94.0328 28.8427L94.8363 32.7538L95.6399 31.9224L96.4435 33.3232L97.247 34.9236L98.0506 36.7764L98.8542 34.0211L99.6578 31.6464L100.461 31.3585L101.265 33.0506L102.068 29.8103L102.872 28.889L103.676 30.1187L104.479 32.7113L105.283 23.9219L106.086 20.7837L106.89 18.2311L107.693 14.9876L108.497 14.8628L109.301 18.8941L110.104 17.8989L110.908 17.4426L111.711 17.9161L112.515 17.0554L113.318 19.8664L114.122 21.6114L114.926 19.1249L115.729 18.1468L116.533 19.3263L117.336 17.9119L118.14 19.6712L118.943 18.2633L119.747 17.9562L120.551 16.7557L121.354 16.0423L122.158 15.1963L122.961 15.4447L123.765 17.7889L124.568 11.2022L125.372 8.96517L126.176 3.3186L126.979 0L127.783 5.94038L128.586 6.4095L129.39 6.83399L130.193 5.13456L130.997 5.61883L131.801 8.57806L132.604 12.2557L133.408 6.74434L134.211 9.2373" stroke="#57FF84" stroke-width="1.25"/>
</g>
<defs>
<clipPath id="clip0_2_4567">
<rect width="135" height="50" fill="white" transform="translate(0.0148926)"/>
</clipPath>
</defs>
</svg>
