<svg width="136" height="50" viewBox="0 0 136 50" fill="none" xmlns="http://www.w3.org/2000/svg">
<g clip-path="url(#clip0_2_3310)">
<path d="M0.0148926 4.4636L0.813709 3.69865L1.61253 3.77516L2.41134 2.48274L3.21016 5.69824L4.00898 12.0688L4.80779 12.6162L5.60661 9.56776L6.40543 9.36682L7.20424 8.04229L8.00306 3.75397L8.80188 1.97037L9.60069 2.55884L10.3995 0.717334L11.1983 1.6382L11.9971 2.67668L12.796 1.76186L13.5948 0L14.3936 0.622478L15.1924 1.50641L15.9912 7.46089L16.79 21.2327L17.5889 25.0398L18.3877 30.9561L19.1865 34.875L19.9853 36.4347L20.7841 35.6862L21.5829 34.0123L22.3818 32.3603L23.1806 36.241L23.9794 35.8099L24.7782 35.0112L25.577 32.6466L26.3758 31.7503L27.1747 30.0829L27.9735 31.4838L28.7723 32.6461L29.5711 28.0696L30.3699 28.6878L31.1687 27.3576L31.9676 33.4663L32.7664 31.76L33.5652 31.7006L34.364 34.8122L35.1628 31.5497L35.9616 34.1961L36.7605 31.1748L37.5593 30.086L38.3581 30.2057L39.1569 37.0423L39.9557 36.0302L40.7545 33.9215L41.5534 34.6071L42.3522 35.2047L43.151 36.377L43.9498 35.4874L44.7486 34.7899L45.5474 32.6917L46.3463 32.6279L47.1451 31.9792L47.9439 34.5872L48.7427 34.3831L49.5415 38.8044L50.3403 47.1132L51.1392 39.9627L51.938 37.4679L52.7368 43.0927L53.5356 41.0339L54.3344 42.743L55.1332 47.9402L55.9321 46.971L56.7309 50L57.5297 46.4462L58.3285 45.79L59.1273 43.0259L59.9261 44.2749L60.725 41.0995L61.5238 39.9325L62.3226 39.6435L63.1214 40.8793L63.9202 35.4543L64.719 35.7039L65.5179 36.0138L66.3167 35.3405L67.1155 33.6323L67.9143 35.5843L68.7131 34.089L69.5119 32.9701L70.3108 32.572L71.1096 33.1685L71.9084 31.8138L72.7072 32.0996L73.506 32.6521L74.3048 31.4418L75.1037 27.4467L75.9025 22.7263L76.7013 24.6418L77.5001 21.6193L78.2989 21.9391L79.0977 22.8746L79.8966 23.7842L80.6954 23.4398L81.4942 20.3139L82.293 18.0464L83.0918 20.1071L83.8906 22.3377L84.6894 23.3628L85.4883 19.8615L86.2871 18.0709L87.0859 15.6821L87.8847 17.1869L88.6835 16.2757L89.4823 14.7675L90.2812 16.3392L91.08 15.7466L91.8788 15.6974L92.6776 17.3813L93.4764 17.8233L94.2752 17.7907L95.0741 22.1654L95.8729 20.5001L96.6717 20.7901L97.4705 22.4694L98.2693 24.7631L99.0681 22.5258L99.867 20.0597L100.666 22.2319L101.465 23.1497L102.263 21.0579L103.062 23.1865L103.861 24.8498L104.66 25.5828L105.459 25.436L106.257 24.9915L107.056 24.0145L107.855 24.987L108.654 24.2236L109.453 25.8011L110.252 24.4579L111.05 23.2738L111.849 24.1613L112.648 19.3463L113.447 20.2885L114.246 23.7392L115.044 24.4082L115.843 23.1263L116.642 24.7092L117.441 24.4387L118.24 25.9289L119.039 21.2467L119.837 19.4616L120.636 11.6979L121.435 8.49471L122.234 11.4906L123.033 12.8795L123.831 15.099L124.63 16.3437L125.429 14.2188L126.228 15.6209L127.027 15.8473L127.826 20.5653L128.624 25.2444L129.423 22.1985L130.222 22.7352L131.021 20.7058L131.82 17.4822L132.618 20.0518L133.417 18.5501L134.216 25.1851" stroke="#FF3A33" stroke-width="1.25"/>
</g>
<defs>
<clipPath id="clip0_2_3310">
<rect width="135" height="50" fill="white" transform="translate(0.0148926)"/>
</clipPath>
</defs>
</svg>
