<svg width="15" height="14" viewBox="0 0 15 14" fill="none" xmlns="http://www.w3.org/2000/svg">
<path d="M7.75 1.3125C8.78906 1.3125 9.73698 1.56771 10.5938 2.07812C11.4505 2.57031 12.1432 3.26302 12.6719 4.15625C13.1823 5.04948 13.4375 5.9974 13.4375 7C13.4375 8.0026 13.1823 8.95052 12.6719 9.84375C12.1432 10.737 11.4505 11.4297 10.5938 11.9219C9.73698 12.4323 8.78906 12.6875 7.75 12.6875C6.71094 12.6875 5.76302 12.4323 4.90625 11.9219C4.04948 11.4297 3.35677 10.737 2.82812 9.84375C2.31771 8.95052 2.0625 8.0026 2.0625 7C2.0625 5.9974 2.31771 5.04948 2.82812 4.15625C3.35677 3.26302 4.04948 2.57031 4.90625 2.07812C5.76302 1.56771 6.71094 1.3125 7.75 1.3125ZM7.75 14C9.02604 13.9818 10.1927 13.6719 11.25 13.0703C12.3073 12.4505 13.1641 11.5938 13.8203 10.5C14.4401 9.38802 14.75 8.22135 14.75 7C14.75 5.77865 14.4401 4.61198 13.8203 3.5C13.1641 2.40625 12.3073 1.54948 11.25 0.929688C10.1927 0.328125 9.02604 0.0182292 7.75 0C6.47396 0.0182292 5.30729 0.328125 4.25 0.929688C3.19271 1.54948 2.33594 2.40625 1.67969 3.5C1.0599 4.61198 0.75 5.77865 0.75 7C0.75 8.22135 1.0599 9.38802 1.67969 10.5C2.33594 11.5938 3.19271 12.4505 4.25 13.0703C5.30729 13.6719 6.47396 13.9818 7.75 14ZM6.65625 9.1875C6.25521 9.22396 6.03646 9.44271 6 9.84375C6.03646 10.2448 6.25521 10.4635 6.65625 10.5H8.84375C9.24479 10.4635 9.46354 10.2448 9.5 9.84375C9.46354 9.44271 9.24479 9.22396 8.84375 9.1875H8.625V6.78125C8.58854 6.38021 8.36979 6.16146 7.96875 6.125H6.65625C6.25521 6.16146 6.03646 6.38021 6 6.78125C6.03646 7.18229 6.25521 7.40104 6.65625 7.4375H7.3125V9.1875H6.65625ZM7.75 5.25C8.00521 5.25 8.21484 5.16797 8.37891 5.00391C8.54297 4.83984 8.625 4.63021 8.625 4.375C8.625 4.11979 8.54297 3.91016 8.37891 3.74609C8.21484 3.58203 8.00521 3.5 7.75 3.5C7.49479 3.5 7.28516 3.58203 7.12109 3.74609C6.95703 3.91016 6.875 4.11979 6.875 4.375C6.875 4.63021 6.95703 4.83984 7.12109 5.00391C7.28516 5.16797 7.49479 5.25 7.75 5.25Z" fill="#F6E717"/>
</svg>
