<svg width="136" height="50" viewBox="0 0 136 50" fill="none" xmlns="http://www.w3.org/2000/svg">
<g clip-path="url(#clip0_2_4064)">
<path d="M0.0148926 5.55382L0.813709 4.63882L1.61253 4.15552L2.41134 1.21285L3.21016 3.17694L4.00898 4.96575L4.80779 9.31224L5.60661 6.15517L6.40543 7.58787L7.20424 7.70221L8.00306 4.13042L8.80188 2.80514L9.60069 3.68087L10.3995 1.72448L11.1983 0.730375L11.9971 2.01456L12.796 1.47622L13.5948 0L14.3936 2.69113L15.1924 2.93688L15.9912 9.07222L16.79 20.3604L17.5889 19.1142L18.3877 24.1295L19.1865 24.4363L19.9853 26.0233L20.7841 31.3594L21.5829 29.7378L22.3818 30.0729L23.1806 29.6464L23.9794 27.3681L24.7782 27.4115L25.577 25.7473L26.3758 23.4171L27.1747 25.4125L27.9735 25.3362L28.7723 25.57L29.5711 22.1048L30.3699 22.1384L31.1687 22.5119L31.9676 27.9564L32.7664 29.9695L33.5652 30.3145L34.364 33.2858L35.1628 29.5116L35.9616 28.5163L36.7605 25.1552L37.5593 29.4863L38.3581 29.5856L39.1569 36.9125L39.9557 37.6116L40.7545 36.7613L41.5534 38.1629L42.3522 35.8468L43.151 38.36L43.9498 36.0094L44.7486 35.5723L45.5474 35.0296L46.3463 34.6978L47.1451 35.0481L47.9439 36.5362L48.7427 36.4473L49.5415 40.739L50.3403 47.9316L51.1392 42.9748L51.938 41.739L52.7368 44.4996L53.5356 45.8184L54.3344 44.4574L55.1332 48.805L55.9321 47.398L56.7309 50L57.5297 47.2851L58.3285 46.8086L59.1273 45.0282L59.9261 48.1219L60.725 45.5116L61.5238 45.4849L62.3226 45.9607L63.1214 47.2031L63.9202 43.6084L64.719 44.6853L65.5179 44.9616L66.3167 44.6717L67.1155 42.2556L67.9143 42.1731L68.7131 40.0839L69.5119 37.9252L70.3108 39.5042L71.1096 39.5609L71.9084 38.661L72.7072 36.9642L73.506 39.5761L74.3048 36.6052L75.1037 35.9355L75.9025 32.5121L76.7013 34.422L77.5001 32.8254L78.2989 33.3151L79.0977 32.8139L79.8966 34.3107L80.6954 35.8104L81.4942 35.4085L82.293 34.0867L83.0918 34.4988L83.8906 36.9189L84.6894 37.4501L85.4883 36.0782L86.2871 34.5319L87.0859 32.9908L87.8847 33.7045L88.6835 33.0291L89.4823 32.6443L90.2812 34.0865L91.08 34.5087L91.8788 33.5817L92.6776 35.7343L93.4764 36.0723L94.2752 36.4581L95.0741 38.6351L95.8729 38.6964L96.6717 40.1163L97.4705 41.0545L98.2693 42.1916L99.0681 39.6319L99.867 38.2916L100.666 40.7176L101.465 40.505L102.263 38.1843L103.062 38.859L103.861 39.8306L104.66 40.4282L105.459 39.5444L106.257 38.835L107.056 39.1066L107.855 38.4314L108.654 37.8559L109.453 38.6701L110.252 36.8253L111.05 35.5417L111.849 36.9755L112.648 33.349L113.447 31.7926L114.246 34.6897L115.044 35.0336L115.843 34.6096L116.642 35.0816L117.441 35.2746L118.24 36.8211L119.039 34.7743L119.837 32.8435L120.636 27.2498L121.435 27.4349L122.234 27.9489L123.033 27.6882L123.831 29.0559L124.63 29.8304L125.429 28.5455L126.228 30.3737L127.027 30.8647L127.826 33.2194L128.624 35.6547L129.423 33.2781L130.222 33.6405L131.021 33.0434L131.82 28.0184L132.618 30.296L133.417 28.7151L134.216 35.1088" stroke="#FF3A33" stroke-width="1.25"/>
</g>
<defs>
<clipPath id="clip0_2_4064">
<rect width="135" height="50" fill="white" transform="translate(0.0148926)"/>
</clipPath>
</defs>
</svg>
