<svg width="13" height="14" viewBox="0 0 13 14" fill="none" xmlns="http://www.w3.org/2000/svg">
<path d="M3.5 0C3.90104 0.0364583 4.11979 0.255208 4.15625 0.65625V1.75H8.09375V0.65625C8.13021 0.255208 8.34896 0.0364583 8.75 0C9.15104 0.0364583 9.36979 0.255208 9.40625 0.65625V1.75H10.5C10.9922 1.76823 11.4023 1.94141 11.7305 2.26953C12.0586 2.59766 12.2318 3.00781 12.25 3.5V3.9375V5.25V12.25C12.2318 12.7422 12.0586 13.1523 11.7305 13.4805C11.4023 13.8086 10.9922 13.9818 10.5 14H1.75C1.25781 13.9818 0.847656 13.8086 0.519531 13.4805C0.191406 13.1523 0.0182292 12.7422 0 12.25V5.25V3.9375V3.5C0.0182292 3.00781 0.191406 2.59766 0.519531 2.26953C0.847656 1.94141 1.25781 1.76823 1.75 1.75H2.84375V0.65625C2.88021 0.255208 3.09896 0.0364583 3.5 0ZM10.9375 5.25H1.3125V12.25C1.33073 12.5234 1.47656 12.6693 1.75 12.6875H10.5C10.7734 12.6693 10.9193 12.5234 10.9375 12.25V5.25ZM3.0625 7H9.1875C9.46094 7.01823 9.60677 7.16406 9.625 7.4375V9.1875C9.60677 9.46094 9.46094 9.60677 9.1875 9.625H3.0625C2.78906 9.60677 2.64323 9.46094 2.625 9.1875V7.4375C2.64323 7.16406 2.78906 7.01823 3.0625 7Z" fill="white" fill-opacity="0.5"/>
</svg>
