<svg width="136" height="50" viewBox="0 0 136 50" fill="none" xmlns="http://www.w3.org/2000/svg">
<g clip-path="url(#clip0_2_1943)">
<path d="M0.0148926 8.33901L0.813709 10.2168L1.61253 7.24912L2.41134 6.21352L3.21016 6.08214L4.00898 6.68024L4.80779 7.37569L5.60661 4.16826L6.40543 5.84024L7.20424 3.95309L8.00306 3.2508L8.80188 2.37732L9.60069 1.41116L10.3995 0.582801L11.1983 0.807909L11.9971 0L12.796 2.75868L13.5948 1.95454L14.3936 3.01487L15.1924 4.96493L15.9912 11.6928L16.79 20.7178L17.5889 19.667L18.3877 24.7784L19.1865 21.0708L19.9853 23.6291L20.7841 26.3755L21.5829 29.2195L22.3818 29.1277L23.1806 29.5746L23.9794 30.1084L24.7782 27.2932L25.577 25.898L26.3758 24.0185L27.1747 24.8743L27.9735 24.6427L28.7723 26.3273L29.5711 25.3248L30.3699 25.8092L31.1687 26.3422L31.9676 30.0272L32.7664 29.0194L33.5652 30.5023L34.364 33.0683L35.1628 31.2078L35.9616 30.8364L36.7605 27.6379L37.5593 29.7321L38.3581 33.6517L39.1569 37.6275L39.9557 42.1236L40.7545 42.1182L41.5534 44.0218L42.3522 41.2822L43.151 42.2868L43.9498 40.3979L44.7486 39.2879L45.5474 39.8594L46.3463 38.2356L47.1451 38.5094L47.9439 39.5581L48.7427 40.3402L49.5415 44.88L50.3403 47.3755L51.1392 44.7359L51.938 42.9709L52.7368 45.252L53.5356 46.6865L54.3344 44.4028L55.1332 50L55.9321 47.8959L56.7309 48.1441L57.5297 46.223L58.3285 46.6644L59.1273 45.2489L59.9261 46.4271L60.725 45.2631L61.5238 44.9429L62.3226 45.5132L63.1214 46.119L63.9202 41.7855L64.719 43.0052L65.5179 42.3407L66.3167 40.9248L67.1155 41.2299L67.9143 41.2263L68.7131 40.4598L69.5119 40.0132L70.3108 41.0838L71.1096 40.9582L71.9084 40.7366L72.7072 38.9516L73.506 41.382L74.3048 40.5527L75.1037 35.1566L75.9025 33.0857L76.7013 35.3003L77.5001 33.271L78.2989 33.6977L79.0977 33.4401L79.8966 34.0367L80.6954 34.8274L81.4942 35.3915L82.293 34.0798L83.0918 35.4329L83.8906 38.078L84.6894 37.9303L85.4883 35.8679L86.2871 35.5807L87.0859 34.7125L87.8847 35.1669L88.6835 34.383L89.4823 33.9327L90.2812 34.4247L91.08 34.8281L91.8788 34.207L92.6776 36.4913L93.4764 36.2399L94.2752 36.0521L95.0741 36.8865L95.8729 37.2957L96.6717 38.0214L97.4705 38.8865L98.2693 38.0493L99.0681 36.4904L99.867 34.9631L100.666 36.2999L101.465 36.337L102.263 35.0761L103.062 35.0735L103.861 35.5745L104.66 35.6395L105.459 35.1353L106.257 35.225L107.056 35.0872L107.855 34.3735L108.654 33.8488L109.453 34.629L110.252 33.686L111.05 33.1189L111.849 33.0614L112.648 29.54L113.447 30.5108L114.246 31.8988L115.044 31.3215L115.843 30.2522L116.642 31.4487L117.441 31.9403L118.24 33.9913L119.039 32.0573L119.837 31.9266L120.636 24.3479L121.435 24.2808L122.234 21.9559L123.033 23.462L123.831 23.7379L124.63 25.3876L125.429 24.2019L126.228 25.517L127.027 25.7038L127.826 29.0792L128.624 30.5205L129.423 28.0932L130.222 27.649L131.021 24.8755L131.82 25.5268L132.618 26.5268L133.417 26.243L134.216 33.9577" stroke="#FF3A33" stroke-width="1.25"/>
</g>
<defs>
<clipPath id="clip0_2_1943">
<rect width="135" height="50" fill="white" transform="translate(0.0148926)"/>
</clipPath>
</defs>
</svg>
