<svg width="136" height="51" viewBox="0 0 136 51" fill="none" xmlns="http://www.w3.org/2000/svg">
<g clip-path="url(#clip0_9_1044)">
<path d="M0.0148926 1.75473L0.813709 1.3297L1.61253 0.5L2.41134 1.72945L3.21016 2.17138L4.00898 5.48974L4.80779 10.9622L5.60661 8.71996L6.40543 8.97401L7.20424 7.03207L8.00306 4.19661L8.80188 3.36382L9.60069 4.98449L10.3995 3.73728L11.1983 3.4314L11.9971 4.11476L12.796 1.84931L13.5948 1.85238L14.3936 3.70997L15.1924 4.28899L15.9912 11.4621L16.79 22.4125L17.5889 28.0106L18.3877 29.3899L19.1865 31.8009L19.9853 36.4958L20.7841 36.5754L21.5829 39.3333L22.3818 36.8561L23.1806 34.7551L23.9794 35.1869L24.7782 33.2006L25.577 30.3456L26.3758 29.5076L27.1747 30.7245L27.9735 30.118L28.7723 29.7591L29.5711 26.8857L30.3699 27.3618L31.1687 26.0168L31.9676 32.6603L32.7664 32.7537L33.5652 31.7622L34.364 34.9668L35.1628 32.1006L35.9616 34.78L36.7605 29.6654L37.5593 31.5539L38.3581 31.3452L39.1569 39.0313L39.9557 38.4908L40.7545 35.616L41.5534 38.1843L42.3522 36.8409L43.151 40.499L43.9498 43.499L44.7486 43.4176L45.5474 43.1601L46.3463 39.3816L47.1451 40.8523L47.9439 40.8061L48.7427 39.6254L49.5415 43.9249L50.3403 50.5L51.1392 44.9956L51.938 43.4843L52.7368 46.5029L53.5356 45.6604L54.3344 41.7901L55.1332 44.7576L55.9321 41.9971L56.7309 43.8035L57.5297 41.3316L58.3285 41.2482L59.1273 39.0393L59.9261 42.2724L60.725 38.5219L61.5238 38.7145L62.3226 38.1709L63.1214 38.6015L63.9202 34.3179L64.719 37.0344L65.5179 37.1096L66.3167 37.841L67.1155 36.1243L67.9143 38.8405L68.7131 37.7353L69.5119 37.0933L70.3108 36.6861L71.1096 36.2874L71.9084 35.2179L72.7072 34.606L73.506 38.1266L74.3048 37.4533L75.1037 34.7463L75.9025 33.0631L76.7013 33.9216L77.5001 32.9169L78.2989 32.3003L79.0977 32.2852L79.8966 33.2035L80.6954 33.1459L81.4942 32.8377L82.293 32.2475L83.0918 34.0573L83.8906 35.1856L84.6894 34.4231L85.4883 33.2034L86.2871 31.9473L87.0859 31.3914L87.8847 32.8244L88.6835 32.5891L89.4823 34.934L90.2812 34.6685L91.08 35.4767L91.8788 35.938L92.6776 38.9014L93.4764 38.0322L94.2752 37.7885L95.0741 41.468L95.8729 41.8454L96.6717 43.1452L97.4705 44.3152L98.2693 47.4533L99.0681 44.6976L99.867 45.0918L100.666 45.7946L101.465 46.5526L102.263 44.3301L103.062 46.3881L103.861 47.6591L104.66 47.6076L105.459 47.3517L106.257 47.6963L107.056 47.9444L107.855 48.3548L108.654 47.4575L109.453 47.0538L110.252 45.7704L111.05 44.6822L111.849 43.9784L112.648 42.3844L113.447 41.6388L114.246 44.6155L115.044 44.5672L115.843 38.34L116.642 41.0154L117.441 38.9815L118.24 40.8139L119.039 38.1573L119.837 39.3157L120.636 36.1287L121.435 35.6802L122.234 35.9117L123.033 35.904L123.831 38.3718L124.63 37.8528L125.429 36.1424L126.228 38.048L127.027 39.7765L127.826 43.3544L128.624 46.874L129.423 43.738L130.222 44.7222L131.021 42.3875L131.82 41.3523L132.618 43.3641L133.417 41.7763L134.216 45.8701" stroke="#FF3A33" stroke-width="1.25"/>
</g>
<defs>
<clipPath id="clip0_9_1044">
<rect width="135" height="50" fill="white" transform="translate(0.0148926 0.5)"/>
</clipPath>
</defs>
</svg>
