<svg width="22" height="20" viewBox="0 0 22 20" fill="none" xmlns="http://www.w3.org/2000/svg">
<path d="M17.4883 10.8984C17.7461 10.638 17.875 10.3385 17.875 10C17.875 9.66146 17.7461 9.36198 17.4883 9.10156L9.23828 1.60156C8.95182 1.36719 8.6224 1.25 8.25 1.25C7.8776 1.25 7.54818 1.36719 7.26172 1.60156C7.00391 1.86198 6.875 2.16146 6.875 2.5C6.875 2.83854 7.00391 3.13802 7.26172 3.39844L14.5664 10L7.26172 16.6016C7.00391 16.862 6.875 17.1615 6.875 17.5C6.875 17.8385 7.00391 18.138 7.26172 18.3984C7.54818 18.6328 7.8776 18.75 8.25 18.75C8.6224 18.75 8.95182 18.6328 9.23828 18.3984L17.4883 10.8984Z" fill="white"/>
</svg>
