<svg width="136" height="50" viewBox="0 0 136 50" fill="none" xmlns="http://www.w3.org/2000/svg">
<g clip-path="url(#clip0_2_2627)">
<path d="M0.0148926 0.76605L0.813709 1.39412L1.61253 2.67538L2.41134 2.06283L3.21016 2.53822L4.00898 4.3599L4.80779 8.51342L5.60661 5.55687L6.40543 5.14281L7.20424 3.39358L8.00306 3.542L8.80188 3.95816L9.60069 3.49334L10.3995 1.58293L11.1983 1.13946L11.9971 1.33354L12.796 1.77428L13.5948 0L14.3936 1.82926L15.1924 3.71727L15.9912 7.63029L16.79 17.3834L17.5889 17.683L18.3877 18.7262L19.1865 23.2164L19.9853 20.0315L20.7841 27.0326L21.5829 29.4053L22.3818 26.778L23.1806 28.4188L23.9794 28.002L24.7782 28.0608L25.577 24.0732L26.3758 23.0205L27.1747 23.0446L27.9735 23.5719L28.7723 24.8594L29.5711 24.6564L30.3699 24.9299L31.1687 25.2829L31.9676 30.8128L32.7664 29.7647L33.5652 29.5401L34.364 32.3307L35.1628 31.0918L35.9616 33.5581L36.7605 31.3312L37.5593 31.8923L38.3581 31.312L39.1569 37.9258L39.9557 35.6804L40.7545 33.962L41.5534 40.1952L42.3522 38.2712L43.151 41.0104L43.9498 40.0924L44.7486 39.5515L45.5474 40.3258L46.3463 39.199L47.1451 39.6778L47.9439 41.5052L48.7427 40.4327L49.5415 45.0495L50.3403 48.1781L51.1392 45.9998L51.938 44.7303L52.7368 47.6796L53.5356 46.9274L54.3344 46.7381L55.1332 47.8364L55.9321 46.2433L56.7309 50L57.5297 44.8881L58.3285 43.9969L59.1273 41.526L59.9261 45.4354L60.725 43.2102L61.5238 43.1231L62.3226 41.4435L63.1214 43.8863L63.9202 40.066L64.719 40.2596L65.5179 41.5549L66.3167 40.0091L67.1155 39.0879L67.9143 40.7381L68.7131 40.8528L69.5119 41.1172L70.3108 41.2225L71.1096 40.5482L71.9084 40.7008L72.7072 40.2393L73.506 41.5124L74.3048 42.2112L75.1037 40.2732L75.9025 38.5881L76.7013 39.5686L77.5001 37.223L78.2989 36.6517L79.0977 36.1201L79.8966 36.8472L80.6954 36.1929L81.4942 35.5432L82.293 34.6296L83.0918 35.1948L83.8906 35.2805L84.6894 34.7307L85.4883 34.8376L86.2871 34.1451L87.0859 34.1229L87.8847 34.1315L88.6835 32.7141L89.4823 33.4864L90.2812 33.4171L91.08 34.6072L91.8788 34.3458L92.6776 36.6519L93.4764 36.5643L94.2752 35.813L95.0741 37.4853L95.8729 35.6963L96.6717 36.6899L97.4705 37.6529L98.2693 38.7861L99.0681 36.151L99.867 34.9882L100.666 35.2742L101.465 35.3425L102.263 33.9671L103.062 34.4689L103.861 35.8134L104.66 35.8001L105.459 35.3376L106.257 35.3685L107.056 35.4126L107.855 35.7512L108.654 34.764L109.453 34.5997L110.252 33.8788L111.05 32.2202L111.849 33.6989L112.648 31.0911L113.447 31.0138L114.246 32.4283L115.044 32.7172L115.843 33.0234L116.642 35.2429L117.441 35.0656L118.24 36.6669L119.039 35.6366L119.837 33.6565L120.636 30.5037L121.435 30.8911L122.234 31.1019L123.033 31.2282L123.831 32.3312L124.63 31.554L125.429 30.9027L126.228 31.9821L127.027 32.4079L127.826 33.2023L128.624 35.4312L129.423 34.9031L130.222 36.1056L131.021 33.5056L131.82 32.6833L132.618 35.3847L133.417 34.0407L134.216 39.4559" stroke="#FF3A33" stroke-width="1.25"/>
</g>
<defs>
<clipPath id="clip0_2_2627">
<rect width="135" height="50" fill="white" transform="translate(0.0148926)"/>
</clipPath>
</defs>
</svg>
