<svg width="136" height="51" viewBox="0 0 136 51" fill="none" xmlns="http://www.w3.org/2000/svg">
<g clip-path="url(#clip0_9_1367)">
<path d="M0.0148926 1.14203L0.818464 2.71066L1.62204 1.34379L2.42561 3.3197L3.22918 7.23141L4.03275 11.6052L4.83632 6.85802L5.63989 6.37501L6.44346 4.82721L7.24704 2.27424L8.05061 1.38197L8.85418 0.74957L9.65775 0.5L10.4613 1.08096L11.2649 2.27605L12.0685 2.31106L12.872 1.38512L13.6756 3.9937L14.4792 4.58253L15.2828 13.3499L16.0863 23.7058L16.8899 23.1918L17.6935 30.7335L18.497 31.3416L19.3006 34.8621L20.1042 36.2119L20.9077 38.6225L21.7113 35.8757L22.5149 37.0026L23.3185 36.7731L24.122 34.0513L24.9256 30.3655L25.7292 30.0719L26.5327 29.742L27.3363 32.2798L28.1399 32.6885L28.9435 29.1336L29.747 28.4729L30.5506 28.9882L31.3542 35.6949L32.1577 37.0515L32.9613 38.6432L33.7649 39.8209L34.5685 36.7377L35.372 37.5885L36.1756 33.2253L36.9792 41.6825L37.7827 41.6521L38.5863 47.5542L39.3899 45.9468L40.1935 42.4743L40.997 43.7199L41.8006 42.3586L42.6042 42.09L43.4077 40.1926L44.2113 37.3991L45.0149 38.9004L45.8185 35.9574L46.622 37.7234L47.4256 40.4466L48.2292 39.9631L49.0327 45.0988L49.8363 49.1495L50.6399 46.0687L51.4435 42.8959L52.247 50.5L53.0506 47.5184L53.8542 46.8251L54.6577 49.92L55.4613 45.969L56.2649 48.0736L57.0685 45.447L57.872 43.9822L58.6756 40.5208L59.4792 42.1793L60.2827 40.5678L61.0863 39.9844L61.8899 39.2774L62.6935 40.7949L63.497 38.2844L64.3006 38.9994L65.1042 39.458L65.9078 39.0743L66.7113 36.7144L67.5149 38.1651L68.3185 37.8664L69.122 37.7845L69.9256 37.6606L70.7292 37.3373L71.5328 36.104L72.3363 35.0166L73.1399 37.3593L73.9435 34.7471L74.747 35.4729L75.5506 31.9936L76.3542 34.9989L77.1578 34.9227L77.9613 35.0921L78.7649 34.9269L79.5685 33.1754L80.372 33.2645L81.1756 32.978L81.9792 30.651L82.7828 33.6187L83.5863 35.964L84.3899 36.3196L85.1935 34.6315L85.997 34.1859L86.8006 32.6716L87.6042 33.6574L88.4078 33.0791L89.2113 32.7847L90.0149 32.5681L90.8185 32.9341L91.622 32.5016L92.4256 35.3919L93.2292 34.274L94.0328 35.5736L94.8363 38.6178L95.6399 37.8516L96.4435 39.564L97.247 41.485L98.0506 43.5673L98.8542 40.6679L99.6578 38.5522L100.461 39.2708L101.265 39.2062L102.068 36.3482L102.872 38.3137L103.676 39.9831L104.479 40.3795L105.283 39.4885L106.086 40.0812L106.89 39.0182L107.693 39.0653L108.497 38.3375L109.301 39.4973L110.104 38.0378L110.908 37.1595L111.711 38.8445L112.515 35.2174L113.318 33.8513L114.122 35.731L114.926 37.0485L115.729 35.3881L116.533 36.8632L117.336 35.7518L118.14 36.8067L118.943 33.6633L119.747 34.1728L120.551 29.4314L121.354 28.0067L122.158 27.983L122.961 27.243L123.765 27.5473L124.568 30.2637L125.372 27.715L126.176 27.7889L126.979 29.954L127.783 33.6117L128.586 37.238L129.39 35.2575L130.193 36.1603L130.997 32.5926L131.801 30.4655L132.604 33.0811L133.408 30.3933L134.211 37.2345" stroke="#FF3A33" stroke-width="1.25"/>
</g>
<defs>
<clipPath id="clip0_9_1367">
<rect width="135" height="50" fill="white" transform="translate(0.0148926 0.5)"/>
</clipPath>
</defs>
</svg>
