<svg width="13" height="14" viewBox="0 0 13 14" fill="none" xmlns="http://www.w3.org/2000/svg">
<path d="M10.7207 5.93359L7.2207 9.43359C6.91081 9.6888 6.60091 9.6888 6.29102 9.43359L2.79102 5.93359C2.53581 5.6237 2.53581 5.3138 2.79102 5.00391C3.10091 4.7487 3.41081 4.7487 3.7207 5.00391L6.09961 7.38281V0.65625C6.13607 0.255208 6.35482 0.0364583 6.75586 0C7.1569 0.0364583 7.37565 0.255208 7.41211 0.65625V7.38281L9.79102 5.00391C10.1009 4.7487 10.4108 4.7487 10.7207 5.00391C10.9759 5.3138 10.9759 5.6237 10.7207 5.93359ZM1.94336 9.40625V11.5938C1.94336 11.9036 2.05273 12.1589 2.27148 12.3594C2.47201 12.5781 2.72721 12.6875 3.03711 12.6875H10.4746C10.7845 12.6875 11.0397 12.5781 11.2402 12.3594C11.459 12.1589 11.5684 11.9036 11.5684 11.5938V9.40625C11.6048 9.00521 11.8236 8.78646 12.2246 8.75C12.6257 8.78646 12.8444 9.00521 12.8809 9.40625V11.5938C12.8626 12.2682 12.6257 12.8333 12.1699 13.2891C11.7142 13.7448 11.1491 13.9818 10.4746 14H3.03711C2.36263 13.9818 1.79753 13.7448 1.3418 13.2891C0.886068 12.8333 0.649089 12.2682 0.630859 11.5938V9.40625C0.667318 9.00521 0.886068 8.78646 1.28711 8.75C1.68815 8.78646 1.9069 9.00521 1.94336 9.40625Z" fill="#1E293B"/>
</svg>
