<svg width="136" height="51" viewBox="0 0 136 51" fill="none" xmlns="http://www.w3.org/2000/svg">
<g clip-path="url(#clip0_9_900)">
<path d="M0.0148926 5.3684L0.813709 4.75822L1.61253 4.61268L2.41134 4.15803L3.21016 4.45211L4.00898 6.04417L4.80779 9.32086L5.60661 6.02034L6.40543 5.32169L7.20424 4.85695L8.00306 4.62009L8.80188 6.44555L9.60069 5.31357L10.3995 5.02302L11.1983 2.31971L11.9971 2.19146L12.796 1.44266L13.5948 0.5L14.3936 2.18148L15.1924 1.97466L15.9912 6.26585L16.79 11.7352L17.5889 8.79661L18.3877 12.3448L19.1865 13.9349L19.9853 8.11295L20.7841 9.87538L21.5829 11.5933L22.3818 14.4932L23.1806 16.4364L23.9794 15.5962L24.7782 12.9624L25.577 12.0049L26.3758 12.4475L27.1747 14.0928L27.9735 12.9286L28.7723 14.774L29.5711 14.9063L30.3699 14.035L31.1687 13.8689L31.9676 19.1291L32.7664 18.137L33.5652 20.5493L34.364 19.4716L35.1628 20.6872L35.9616 21.7562L36.7605 18.7769L37.5593 21.723L38.3581 24.2932L39.1569 26.4854L39.9557 25.4615L40.7545 26.1972L41.5534 38.328L42.3522 37.0389L43.151 39.9105L43.9498 42.2393L44.7486 41.8251L45.5474 40.1079L46.3463 40.7359L47.1451 40.4563L47.9439 42.3595L48.7427 42.7365L49.5415 49.0544L50.3403 50.3759L51.1392 47.9347L51.938 46.1939L52.7368 50.5L53.5356 48.3898L54.3344 46.9736L55.1332 49.3757L55.9321 47.1505L56.7309 49.3557L57.5297 47.5477L58.3285 46.5795L59.1273 45.3843L59.9261 46.5343L60.725 45.7306L61.5238 46.035L62.3226 47.2717L63.1214 49.4L63.9202 46.5116L64.719 46.9788L65.5179 46.1499L66.3167 44.917L67.1155 44.5166L67.9143 47.5724L68.7131 46.3762L69.5119 45.9328L70.3108 46.5001L71.1096 46.6383L71.9084 45.9809L72.7072 44.8571L73.506 48.3336L74.3048 46.6247L75.1037 46.9591L75.9025 42.4818L76.7013 42.9937L77.5001 40.6836L78.2989 41.2018L79.0977 42.0234L79.8966 42.4057L80.6954 42.6127L81.4942 41.9856L82.293 42.1869L83.0918 42.9157L83.8906 44.0883L84.6894 44.886L85.4883 44.0449L86.2871 42.8516L87.0859 42.0797L87.8847 42.5636L88.6835 42.7164L89.4823 42.5737L90.2812 42.8332L91.08 43.1186L91.8788 42.8565L92.6776 43.5369L93.4764 43.3834L94.2752 43.3568L95.0741 45.0269L95.8729 44.628L96.6717 43.4617L97.4705 43.2592L98.2693 44.482L99.0681 43.8053L99.867 43.0599L100.666 44.2855L101.465 43.4638L102.263 43.015L103.062 43.397L103.861 43.6389L104.66 44.18L105.459 43.2237L106.257 43.1391L107.056 43.5497L107.855 43.6156L108.654 43.7037L109.453 43.7336L110.252 43.3296L111.05 43.1927L111.849 43.208L112.648 42.1732L113.447 41.0374L114.246 42.2362L115.044 42.4347L115.843 42.2683L116.642 42.7769L117.441 42.8629L118.24 43.6936L119.039 42.7534L119.837 42.3902L120.636 40.2793L121.435 39.8233L122.234 39.4177L123.033 39.5389L123.831 39.0644L124.63 39.7185L125.429 38.8816L126.228 39.1056L127.027 39.3983L127.826 41.4694L128.624 42.6607L129.423 41.0086L130.222 41.1611L131.021 39.5858L131.82 39.957L132.618 39.7676L133.417 37.9318L134.216 41.5584" stroke="#FF3A33" stroke-width="1.25"/>
</g>
<defs>
<clipPath id="clip0_9_900">
<rect width="135" height="50" fill="white" transform="translate(0.0148926 0.5)"/>
</clipPath>
</defs>
</svg>
