<svg width="136" height="50" viewBox="0 0 136 50" fill="none" xmlns="http://www.w3.org/2000/svg">
<g clip-path="url(#clip0_2_4818)">
<path d="M0.0148926 3.787L0.813709 4.80083L1.61253 4.4611L2.41134 4.22136L3.21016 7.04946L4.00898 10.0524L4.80779 10.7263L5.60661 5.10038L6.40543 3.42992L7.20424 4.62722L8.00306 0L8.80188 0.865437L9.60069 4.09478L10.3995 4.1839L11.1983 4.42581L11.9971 6.34275L12.796 6.07335L13.5948 4.86603L14.3936 6.15313L15.1924 7.61227L15.9912 11.3987L16.79 19.298L17.5889 8.7885L18.3877 12.1659L19.1865 10.0194L19.9853 14.2084L20.7841 16.1983L21.5829 12.8539L22.3818 13.189L23.1806 17.3167L23.9794 15.0322L24.7782 15.1716L25.577 13.6493L26.3758 11.6877L27.1747 14.2424L27.9735 15.0637L28.7723 16.3809L29.5711 10.1199L30.3699 9.34871L31.1687 7.02863L31.9676 12.8318L32.7664 12.8468L33.5652 15.114L34.364 19.2139L35.1628 20.0184L35.9616 24.2194L36.7605 17.589L37.5593 20.142L38.3581 21.2313L39.1569 28.3729L39.9557 28.2562L40.7545 24.6703L41.5534 28.5375L42.3522 28.3763L43.151 30.0009L43.9498 28.3464L44.7486 27.587L45.5474 30.4795L46.3463 37.0737L47.1451 34.6541L47.9439 33.8472L48.7427 34.5485L49.5415 39.0838L50.3403 43.0456L51.1392 39.6622L51.938 37.283L52.7368 40.1349L53.5356 40.0845L54.3344 40.2164L55.1332 44.3236L55.9321 42.8394L56.7309 48.8765L57.5297 45.9235L58.3285 45.5735L59.1273 45.1471L59.9261 48.5733L60.725 46.1962L61.5238 47.2441L62.3226 47.0681L63.1214 47.1638L63.9202 44.9221L64.719 47.5673L65.5179 46.5938L66.3167 44.7829L67.1155 43.7913L67.9143 44.9414L68.7131 43.9731L69.5119 42.7988L70.3108 44.019L71.1096 44.9915L71.9084 43.6676L72.7072 42.8291L73.506 45.1157L74.3048 44.2874L75.1037 42.4183L75.9025 41.284L76.7013 39.2626L77.5001 38.9645L78.2989 34.095L79.0977 30.7485L79.8966 32.7914L80.6954 34.7893L81.4942 33.7676L82.293 33.1247L83.0918 34.8339L83.8906 38.6748L84.6894 39.2844L85.4883 38.4069L86.2871 37.8467L87.0859 36.3149L87.8847 39.1741L88.6835 38.9172L89.4823 38.5052L90.2812 40.0917L91.08 39.8069L91.8788 39.7891L92.6776 41.7905L93.4764 42.2849L94.2752 42.6435L95.0741 47.6903L95.8729 47.4511L96.6717 48.7404L97.4705 50L98.2693 48.714L99.0681 48.0438L99.867 44.7166L100.666 45.2769L101.465 45.6391L102.263 43.939L103.062 45.6391L103.861 45.2911L104.66 45.2176L105.459 45.1229L106.257 46.0044L107.056 45.8634L107.855 46.0849L108.654 46.2268L109.453 45.6963L110.252 43.7709L111.05 42.9339L111.849 44.3632L112.648 40.1428L113.447 42.5928L114.246 43.1291L115.044 42.8666L115.843 41.9494L116.642 43.592L117.441 43.4543L118.24 45.2491L119.039 41.7062L119.837 42.1516L120.636 39.0202L121.435 36.8046L122.234 34.7192L123.033 35.1542L123.831 39.0461L124.63 40.6716L125.429 40.3764L126.228 41.093L127.027 39.7528L127.826 44.7418L128.624 45.7123L129.423 44.8648L130.222 45.0967L131.021 39.2109L131.82 37.1912L132.618 39.5161L133.417 39.3934L134.216 42.2155" stroke="#FF3A33" stroke-width="1.25"/>
</g>
<defs>
<clipPath id="clip0_2_4818">
<rect width="135" height="50" fill="white" transform="translate(0.0148926)"/>
</clipPath>
</defs>
</svg>
