<svg width="16" height="13" viewBox="0 0 16 13" fill="none" xmlns="http://www.w3.org/2000/svg">
<path d="M8.86211 0.457715C8.70977 0.169955 8.46432 0.017611 8.12578 0.000683904C7.80417 0.017611 7.55872 0.169955 7.38945 0.457715L5.76445 3.80928L2.1082 4.36787C1.78659 4.41865 1.575 4.59639 1.47344 4.90107C1.37187 5.22269 1.43958 5.50199 1.67656 5.73897L4.31719 8.3542L3.68242 12.0612C3.64857 12.3828 3.75859 12.6452 4.0125 12.8483C4.28333 13.0345 4.57109 13.0515 4.87578 12.8991L8.12578 11.1726L11.4012 12.8991C11.6889 13.0515 11.9682 13.0345 12.2391 12.8483C12.5099 12.6452 12.6199 12.3828 12.5691 12.0612L11.9598 8.3542L14.6004 5.73897C14.8204 5.50199 14.8882 5.22269 14.8035 4.90107C14.685 4.59639 14.465 4.41865 14.1434 4.36787L10.4871 3.80928L8.86211 0.457715Z" fill="#EAB308"/>
</svg>
