<svg width="136" height="51" viewBox="0 0 136 51" fill="none" xmlns="http://www.w3.org/2000/svg">
<g clip-path="url(#clip0_16_2552)">
<path d="M0.0136719 18.0629L0.812488 17.7522L1.6113 17.7231L2.41012 14.428L3.20894 15.6957L4.00775 20.4514L4.80657 19.3573L5.60539 12.5479L6.4042 12.7242L7.20302 13.6491L8.00184 7.8062L8.80065 8.69737L9.59947 9.61441L10.3983 2.53258L11.1971 1.85989L11.9959 3.91443L12.7947 3.02117L13.5936 1.06989L14.3924 0.5L15.1912 2.68239L15.99 9.32202L16.7888 15.0331L17.5876 12.0251L18.3865 16.5929L19.1853 15.8091L19.9841 22.5176L20.7829 26.4643L21.5817 26.5631L22.3805 22.2289L23.1794 24.3026L23.9782 26.7255L24.777 27.5154L25.5758 24.133L26.3746 22.1364L27.1734 21.4801L27.9723 19.2356L28.7711 14.9885L29.5699 12.0989L30.3687 12.1208L31.1675 11.504L31.9663 14.5859L32.7652 15.478L33.564 19.6888L34.3628 26.5406L35.1616 19.9442L35.9604 18.4987L36.7592 12.6351L37.5581 19.3837L38.3569 22.814L39.1557 28.5301L39.9545 31.3932L40.7533 28.7539L41.5521 28.939L42.3509 28.6452L43.1498 32.8809L43.9486 36.5614L44.7474 33.6674L45.5462 32.3344L46.345 33.3899L47.1438 31.6297L47.9427 35.0038L48.7415 33.8261L49.5403 40.145L50.3391 47.2077L51.1379 44.5272L51.9367 41.6359L52.7356 45.7787L53.5344 44.8532L54.3332 40.6101L55.132 43.3398L55.9308 43.2093L56.7296 48.861L57.5285 45.5471L58.3273 47.3732L59.1261 44.9791L59.9249 50.5L60.7237 47.309L61.5225 45.5664L62.3214 46.0636L63.1202 46.597L63.919 43.1602L64.7178 46.4251L65.5166 46.7815L66.3154 46.5746L67.1143 44.3847L67.9131 43.76L68.7119 40.9252L69.5107 41.907L70.3095 43.0408L71.1083 41.6204L71.9072 42.4525L72.706 41.1449L73.5048 42.3371L74.3036 45.8876L75.1024 40.0954L75.9012 37.2574L76.7001 36.9041L77.4989 36.7336L78.2977 35.8724L79.0965 35.3121L79.8953 37.1101L80.6941 39.0159L81.493 38.6496L82.2918 38.1985L83.0906 38.0471L83.8894 42.4837L84.6882 43.4262L85.487 41.549L86.2859 38.9683L87.0847 37.6693L87.8835 36.7353L88.6823 37.6972L89.4811 36.4082L90.2799 38.7645L91.0788 39.9542L91.8776 39.2435L92.6764 42.5042L93.4752 43.2872L94.274 42.6887L95.0728 45.1181L95.8717 45.2052L96.6705 46.2952L97.4693 47.6266L98.2681 48.9814L99.0669 48.4122L99.8657 45.3992L100.665 45.7464L101.463 45.7336L102.262 41.9112L103.061 38.882L103.86 41.0324L104.659 42.0673L105.457 40.3538L106.256 39.3428L107.055 38.7726L107.854 39.118L108.653 39.4603L109.452 41.4883L110.25 39.2516L111.049 40.065L111.848 40.3139L112.647 33.8L113.446 31.9359L114.244 34.5077L115.043 36.0266L115.842 34.7181L116.641 36.166L117.44 34.4401L118.239 35.9575L119.037 32.731L119.836 31.3071L120.635 30.0239L121.434 27.9463L122.233 27.8794L123.031 26.493L123.83 29.2001L124.629 30.0526L125.428 27.551L126.227 27.6738L127.026 29.1807L127.824 32.0358L128.623 34.0709L129.422 32.4042L130.221 32.5622L131.02 27.6709L131.818 25.9049L132.617 24.5269L133.416 21.2151L134.215 25.9548" stroke="#FF3A33" stroke-width="1.25"/>
</g>
<defs>
<clipPath id="clip0_16_2552">
<rect width="135" height="50" fill="white" transform="translate(0.0136719 0.5)"/>
</clipPath>
</defs>
</svg>
