<svg width="136" height="51" viewBox="0 0 136 51" fill="none" xmlns="http://www.w3.org/2000/svg">
<g clip-path="url(#clip0_9_1691)">
<path d="M0.0148926 7.91407L0.813709 8.75107L1.61253 8.67594L2.41134 6.67361L3.21016 9.19095L4.00898 12.8365L4.80779 14.6025L5.60661 12.1233L6.40543 11.0219L7.20424 11.8919L8.00306 8.3475L8.80188 5.77863L9.60069 6.95372L10.3995 0.5L11.1983 0.901384L11.9971 1.96347L12.796 1.11398L13.5948 0.689927L14.3936 2.0616L15.1924 1.95404L15.9912 6.74257L16.79 11.7275L17.5889 10.4777L18.3877 15.0912L19.1865 16.2596L19.9853 19.8176L20.7841 24.4468L21.5829 27.5702L22.3818 26.5463L23.1806 27.5152L23.9794 28.1713L24.7782 26.0969L25.577 25.2109L26.3758 22.5134L27.1747 24.0913L27.9735 24.0448L28.7723 23.8467L29.5711 18.8261L30.3699 21.5822L31.1687 20.6865L31.9676 27.284L32.7664 29.4271L33.5652 29.4356L34.364 31.4905L35.1628 27.4456L35.9616 27.5464L36.7605 23.5195L37.5593 27.9141L38.3581 29.9734L39.1569 34.1935L39.9557 35.8644L40.7545 33.684L41.5534 37.0746L42.3522 34.3102L43.151 35.8968L43.9498 31.4596L44.7486 32.4165L45.5474 32.702L46.3463 31.9131L47.1451 34.1053L47.9439 36.1489L48.7427 34.9513L49.5415 39.5311L50.3403 44.2719L51.1392 41.5399L51.938 40.0676L52.7368 42.0024L53.5356 42.5941L54.3344 42.4934L55.1332 45.3668L55.9321 45.984L56.7309 50.5L57.5297 48.2394L58.3285 48.3978L59.1273 44.8896L59.9261 47.4395L60.725 47.2505L61.5238 45.4677L62.3226 46.138L63.1214 47.5809L63.9202 42.8305L64.719 44.0178L65.5179 43.8569L66.3167 44.0739L67.1155 42.4862L67.9143 41.2338L68.7131 40.2146L69.5119 39.345L70.3108 39.8496L71.1096 40.2148L71.9084 38.1465L72.7072 37.5813L73.506 36.3427L74.3048 38.5264L75.1037 36.1927L75.9025 32.8382L76.7013 34.0667L77.5001 31.8708L78.2989 30.5164L79.0977 31.8533L79.8966 33.6286L80.6954 34.2496L81.4942 32.4664L82.293 31.4498L83.0918 32.5603L83.8906 35.3501L84.6894 36.497L85.4883 35.1701L86.2871 32.738L87.0859 32.532L87.8847 33.061L88.6835 31.1843L89.4823 31.492L90.2812 33.0299L91.08 32.1646L91.8788 31.348L92.6776 32.3175L93.4764 31.194L94.2752 31.3488L95.0741 34.0645L95.8729 32.8463L96.6717 34.7517L97.4705 35.0551L98.2693 36.4486L99.0681 35.6418L99.867 34.1556L100.666 34.3231L101.465 34.3137L102.263 31.7505L103.062 32.9486L103.861 34.2143L104.66 34.6915L105.459 34.6961L106.257 34.6089L107.056 34.5796L107.855 34.8676L108.654 33.7962L109.453 34.2891L110.252 33.3343L111.05 32.3656L111.849 31.841L112.648 23.7741L113.447 19.9688L114.246 20.5501L115.044 21.6136L115.843 19.0558L116.642 21.1783L117.441 21.2488L118.24 24.2548L119.039 21.1931L119.837 19.1367L120.636 14.2718L121.435 11.3278L122.234 13.123L123.033 13.0734L123.831 14.1974L124.63 13.8629L125.429 11.6102L126.228 12.9113L127.027 13.142L127.826 16.9399L128.624 20.8689L129.423 17.8817L130.222 19.3906L131.021 16.5666L131.82 11.9775L132.618 15.8839L133.417 12.6322L134.216 19.2501" stroke="#FF3A33" stroke-width="1.25"/>
</g>
<defs>
<clipPath id="clip0_9_1691">
<rect width="135" height="50" fill="white" transform="translate(0.0148926 0.5)"/>
</clipPath>
</defs>
</svg>
