<svg width="13" height="14" viewBox="0 0 13 14" fill="none" xmlns="http://www.w3.org/2000/svg">
<path d="M4.11914 0C4.52018 0.0364583 4.73893 0.255208 4.77539 0.65625V1.75H8.71289V0.65625C8.74935 0.255208 8.9681 0.0364583 9.36914 0C9.77018 0.0364583 9.98893 0.255208 10.0254 0.65625V1.75H11.1191C11.6113 1.76823 12.0215 1.94141 12.3496 2.26953C12.6777 2.59766 12.8509 3.00781 12.8691 3.5V3.9375V5.25V12.25C12.8509 12.7422 12.6777 13.1523 12.3496 13.4805C12.0215 13.8086 11.6113 13.9818 11.1191 14H2.36914C1.87695 13.9818 1.4668 13.8086 1.13867 13.4805C0.810547 13.1523 0.63737 12.7422 0.619141 12.25V5.25V3.9375V3.5C0.63737 3.00781 0.810547 2.59766 1.13867 2.26953C1.4668 1.94141 1.87695 1.76823 2.36914 1.75H3.46289V0.65625C3.49935 0.255208 3.7181 0.0364583 4.11914 0ZM11.5566 5.25H1.93164V12.25C1.94987 12.5234 2.0957 12.6693 2.36914 12.6875H11.1191C11.3926 12.6693 11.5384 12.5234 11.5566 12.25V5.25ZM3.68164 7H9.80664C10.0801 7.01823 10.2259 7.16406 10.2441 7.4375V9.1875C10.2259 9.46094 10.0801 9.60677 9.80664 9.625H3.68164C3.4082 9.60677 3.26237 9.46094 3.24414 9.1875V7.4375C3.26237 7.16406 3.4082 7.01823 3.68164 7Z" fill="#1E293B"/>
</svg>
