<svg width="37" height="37" viewBox="0 0 37 37" fill="none" xmlns="http://www.w3.org/2000/svg">
<g clip-path="url(#clip0_3_1423)">
<mask id="mask0_3_1423" style="mask-type:luminance" maskUnits="userSpaceOnUse" x="0" y="0" width="37" height="37">
<path d="M36.7227 0.725586H0.722656V36.7256H36.7227V0.725586Z" fill="white"/>
</mask>
<g mask="url(#mask0_3_1423)">
<path d="M4.69926 36.7252H25.5195C26.6111 36.7252 27.4961 35.8403 27.4961 34.7486V10.2128C27.4961 9.68158 27.2823 9.17272 26.9028 8.80094L21.5497 3.55596C21.1802 3.19397 20.6836 2.99121 20.1664 2.99121H4.69926C3.60761 2.99121 2.72266 3.87617 2.72266 4.96781V34.7486C2.72266 35.8403 3.60762 36.7252 4.69926 36.7252Z" fill="black"/>
<path d="M7.06644 34.4596H27.8867C28.9783 34.4596 29.8633 33.5746 29.8633 32.483V7.94718C29.8633 7.41596 29.6495 6.9071 29.27 6.53532L23.9169 1.29033C23.5474 0.928337 23.0508 0.725586 22.5336 0.725586H7.06644C5.97479 0.725586 5.08984 1.61054 5.08984 2.70219V32.483C5.08984 33.5746 5.97479 34.4596 7.06644 34.4596Z" fill="#F7E700"/>
<path d="M17.7574 6.56934C18.4675 6.56934 19.1486 6.85144 19.6507 7.35358C20.1529 7.85572 20.435 8.53677 20.435 9.2469C20.435 9.95703 20.1529 10.6381 19.6507 11.1402C19.1486 11.6424 18.4675 11.9245 17.7574 11.9245C17.0473 11.9245 16.3662 11.6424 15.8641 11.1402C15.3619 10.6381 15.0798 9.95703 15.0798 9.2469C15.0798 8.53677 15.3619 7.85572 15.8641 7.35358C16.3662 6.85144 17.0473 6.56934 17.7574 6.56934ZM17.7574 17.2796C17.7574 17.2796 23.1125 17.2796 23.1125 15.9408C23.1125 14.3343 20.5019 12.5939 17.7574 12.5939C15.0129 12.5939 12.4023 14.3343 12.4023 15.9408C12.4023 17.2796 17.7574 17.2796 17.7574 17.2796Z" fill="black"/>
<path d="M10.5273 22.1123H25.1323" stroke="black" stroke-width="0.922414" stroke-linecap="round"/>
<path d="M10.5273 25.21H25.1323" stroke="black" stroke-width="0.922414" stroke-linecap="round"/>
<path d="M10.5273 28.3076H21.2376" stroke="black" stroke-width="0.922414" stroke-linecap="round"/>
<mask id="mask1_3_1423" style="mask-type:alpha" maskUnits="userSpaceOnUse" x="20" y="0" width="10" height="12">
<path d="M23.9182 1.29033L29.2713 6.53532C29.6507 6.9071 29.8646 7.41596 29.8646 7.94718V10.0156C29.8646 11.1073 28.9796 11.9922 27.888 11.9922H22.0899C20.9983 11.9922 20.1133 11.1073 20.1133 10.0156V2.70219C20.1133 1.61054 20.9983 0.725586 22.0899 0.725586H22.5348C23.0521 0.725586 23.5487 0.928337 23.9182 1.29033Z" fill="url(#paint0_linear_3_1423)"/>
</mask>
<g mask="url(#mask1_3_1423)">
<path d="M23.3398 0.725586L29.8626 7.1166H24.8552C24.0183 7.1166 23.3398 6.43813 23.3398 5.60121V0.725586Z" fill="black"/>
</g>
</g>
</g>
<defs>
<linearGradient id="paint0_linear_3_1423" x1="17.4779" y1="0.725586" x2="17.4779" y2="34.4596" gradientUnits="userSpaceOnUse">
<stop stop-color="#7FAEF4"/>
<stop offset="1" stop-color="#497CDC"/>
</linearGradient>
<clipPath id="clip0_3_1423">
<rect width="36" height="36" fill="white" transform="translate(0.722656 0.725586)"/>
</clipPath>
</defs>
</svg>
