<svg width="136" height="50" viewBox="0 0 136 50" fill="none" xmlns="http://www.w3.org/2000/svg">
<g clip-path="url(#clip0_2_3274)">
<path d="M0.0148926 17.5629L0.813709 17.2522L1.61253 17.2231L2.41134 13.928L3.21016 15.1957L4.00898 19.9514L4.80779 18.8573L5.60661 12.0479L6.40543 12.2242L7.20424 13.1491L8.00306 7.3062L8.80188 8.19737L9.60069 9.11441L10.3995 2.03258L11.1983 1.35989L11.9971 3.41443L12.796 2.52117L13.5948 0.569888L14.3936 0L15.1924 2.18239L15.9912 8.82202L16.79 14.5331L17.5889 11.5251L18.3877 16.0929L19.1865 15.3091L19.9853 22.0176L20.7841 25.9643L21.5829 26.0631L22.3818 21.7289L23.1806 23.8026L23.9794 26.2255L24.7782 27.0154L25.577 23.633L26.3758 21.6364L27.1747 20.9801L27.9735 18.7356L28.7723 14.4885L29.5711 11.5989L30.3699 11.6208L31.1687 11.004L31.9676 14.0859L32.7664 14.978L33.5652 19.1888L34.364 26.0406L35.1628 19.4442L35.9616 17.9987L36.7605 12.1351L37.5593 18.8837L38.3581 22.314L39.1569 28.0301L39.9557 30.8932L40.7545 28.2539L41.5534 28.439L42.3522 28.1452L43.151 32.3809L43.9498 36.0614L44.7486 33.1674L45.5474 31.8344L46.3463 32.8899L47.1451 31.1297L47.9439 34.5038L48.7427 33.3261L49.5415 39.645L50.3403 46.7077L51.1392 44.0272L51.938 41.1359L52.7368 45.2787L53.5356 44.3532L54.3344 40.1101L55.1332 42.8398L55.9321 42.7093L56.7309 48.361L57.5297 45.0471L58.3285 46.8732L59.1273 44.4791L59.9261 50L60.725 46.809L61.5238 45.0664L62.3226 45.5636L63.1214 46.097L63.9202 42.6602L64.719 45.9251L65.5179 46.2815L66.3167 46.0746L67.1155 43.8847L67.9143 43.26L68.7131 40.4252L69.5119 41.407L70.3108 42.5408L71.1096 41.1204L71.9084 41.9525L72.7072 40.6449L73.506 41.8371L74.3048 45.3876L75.1037 39.5954L75.9025 36.7574L76.7013 36.4041L77.5001 36.2336L78.2989 35.3724L79.0977 34.8121L79.8966 36.6101L80.6954 38.5159L81.4942 38.1496L82.293 37.6985L83.0918 37.5471L83.8906 41.9837L84.6894 42.9262L85.4883 41.049L86.2871 38.4683L87.0859 37.1693L87.8847 36.2353L88.6835 37.1972L89.4823 35.9082L90.2812 38.2645L91.08 39.4542L91.8788 38.7435L92.6776 42.0042L93.4764 42.7872L94.2752 42.1887L95.0741 44.6181L95.8729 44.7052L96.6717 45.7952L97.4705 47.1266L98.2693 48.4814L99.0681 47.9122L99.867 44.8992L100.666 45.2464L101.465 45.2336L102.263 41.4112L103.062 38.382L103.861 40.5324L104.66 41.5673L105.459 39.8538L106.257 38.8428L107.056 38.2726L107.855 38.618L108.654 38.9603L109.453 40.9883L110.252 38.7516L111.05 39.565L111.849 39.8139L112.648 33.3L113.447 31.4359L114.246 34.0077L115.044 35.5266L115.843 34.2181L116.642 35.666L117.441 33.9401L118.24 35.4575L119.039 32.231L119.837 30.8071L120.636 29.5239L121.435 27.4463L122.234 27.3794L123.033 25.993L123.831 28.7001L124.63 29.5526L125.429 27.051L126.228 27.1738L127.027 28.6807L127.826 31.5358L128.624 33.5709L129.423 31.9042L130.222 32.0622L131.021 27.1709L131.82 25.4049L132.618 24.0269L133.417 20.7151L134.216 25.4548" stroke="#FF3A33" stroke-width="1.25"/>
</g>
<defs>
<clipPath id="clip0_2_3274">
<rect width="135" height="50" fill="white" transform="translate(0.0148926)"/>
</clipPath>
</defs>
</svg>
