<svg width="13" height="14" viewBox="0 0 13 14" fill="none" xmlns="http://www.w3.org/2000/svg">
<path d="M5.92578 10.834C6.09505 10.9863 6.28971 11.0625 6.50977 11.0625C6.72982 11.0625 6.92448 10.9863 7.09375 10.834L11.9688 5.95898C12.1211 5.78971 12.1973 5.59505 12.1973 5.375C12.1973 5.15495 12.1211 4.96029 11.9688 4.79102C11.7995 4.63867 11.6048 4.5625 11.3848 4.5625C11.1647 4.5625 10.9701 4.63867 10.8008 4.79102L6.50977 9.10742L2.21875 4.79102C2.04948 4.63867 1.85482 4.5625 1.63477 4.5625C1.41471 4.5625 1.22005 4.63867 1.05078 4.79102C0.898438 4.96029 0.822266 5.15495 0.822266 5.375C0.822266 5.59505 0.898438 5.78971 1.05078 5.95898L5.92578 10.834Z" fill="black"/>
</svg>
