<svg width="136" height="50" viewBox="0 0 136 50" fill="none" xmlns="http://www.w3.org/2000/svg">
<g clip-path="url(#clip0_2_1979)">
<path d="M0.0148926 6.77419L0.813709 6.91895L1.61253 6.93839L2.41134 5.89012L3.21016 6.78308L4.00898 9.14893L4.80779 10.5605L5.60661 6.99468L6.40543 6.86964L7.20424 5.58979L8.00306 3.4271L8.80188 2.73456L9.60069 2.28967L10.3995 0L11.1983 0.163627L11.9971 1.59627L12.796 1.96739L13.5948 0.603126L14.3936 1.95615L15.1924 4.46577L15.9912 8.61957L16.79 19.2166L17.5889 21.974L18.3877 24.3106L19.1865 27.4251L19.9853 29.9042L20.7841 32.5749L21.5829 32.7423L22.3818 33.0205L23.1806 33.1991L23.9794 32.3791L24.7782 30.6323L25.577 28.7071L26.3758 27.6201L27.1747 29.0334L27.9735 28.3286L28.7723 29.1731L29.5711 26.5528L30.3699 27.7815L31.1687 26.9566L31.9676 32.5373L32.7664 32.8338L33.5652 33.9071L34.364 35.265L35.1628 34.2294L35.9616 38.24L36.7605 35.343L37.5593 38.8851L38.3581 40.0491L39.1569 46.8872L39.9557 44.561L40.7545 45.3388L41.5534 45.4203L42.3522 43.6836L43.151 43.2474L43.9498 40.1155L44.7486 40.9112L45.5474 40.8096L46.3463 39.6931L47.1451 38.6113L47.9439 41.1253L48.7427 40.6024L49.5415 43.982L50.3403 48.7932L51.1392 44.4355L51.938 43.7459L52.7368 46.0825L53.5356 45.5918L54.3344 46.7595L55.1332 50L55.9321 46.7995L56.7309 48.727L57.5297 46.2075L58.3285 46.1385L59.1273 43.7025L59.9261 45.6234L60.725 43.8474L61.5238 43.4252L62.3226 42.8882L63.1214 44.3984L63.9202 40.081L64.719 41.5536L65.5179 40.7057L66.3167 39.9049L67.1155 36.1366L67.9143 36.2458L68.7131 34.8749L69.5119 34.2004L70.3108 34.0807L71.1096 34.2314L71.9084 34.6902L72.7072 32.4459L73.506 34.3123L74.3048 32.5614L75.1037 29.3812L75.9025 28.2741L76.7013 31.3404L77.5001 30.0516L78.2989 29.8858L79.0977 30.2331L79.8966 31.6548L80.6954 31.6637L81.4942 31.2566L82.293 30.3525L83.0918 30.8589L83.8906 33.0791L84.6894 32.485L85.4883 30.4563L86.2871 28.6379L87.0859 27.3197L87.8847 27.4344L88.6835 25.9585L89.4823 23.8307L90.2812 25.3043L91.08 25.3325L91.8788 24.2758L92.6776 26.0372L93.4764 25.635L94.2752 24.2785L95.0741 26.6153L95.8729 27.1156L96.6717 27.7233L97.4705 30.2258L98.2693 31.2374L99.0681 28.1246L99.867 27.1868L100.666 26.5969L101.465 28.1409L102.263 25.8396L103.062 26.7596L103.861 26.1107L104.66 25.4028L105.459 25.2417L106.257 23.8289L107.056 24.8274L107.855 26.0163L108.654 26.0243L109.453 27.0712L110.252 26.8588L111.05 26.6927L111.849 27.9257L112.648 25.0973L113.447 25.4991L114.246 27.7636L115.044 27.1239L115.843 25.3455L116.642 27.9905L117.441 26.1861L118.24 28.608L119.039 27.7097L119.837 26.4061L120.636 21.1428L121.435 17.9871L122.234 18.4871L123.033 16.4802L123.831 16.3313L124.63 18.3905L125.429 16.9808L126.228 18.1234L127.027 20.5087L127.826 23.862L128.624 24.2769L129.423 22.783L130.222 24.046L131.021 17.895L131.82 19.0087L132.618 19.1153L133.417 19.2539L134.216 27.3764" stroke="#FF3A33" stroke-width="1.25"/>
</g>
<defs>
<clipPath id="clip0_2_1979">
<rect width="135" height="50" fill="white" transform="translate(0.0148926)"/>
</clipPath>
</defs>
</svg>
