<svg width="136" height="50" viewBox="0 0 136 50" fill="none" xmlns="http://www.w3.org/2000/svg">
<g clip-path="url(#clip0_2_3058)">
<path d="M0.0148926 4.79387L0.813709 4.04031L1.61253 4.93359L2.41134 1.9344L3.21016 1.54313L4.00898 3.93793L4.80779 6.87854L5.60661 3.86538L6.40543 3.34141L7.20424 5.65019L8.00306 1.45664L8.80188 2.96104L9.60069 3.5623L10.3995 0.213872L11.1983 0.972014L11.9971 1.88659L12.796 1.57328L13.5948 0L14.3936 0.842681L15.1924 0.672519L15.9912 8.09526L16.79 17.9403L17.5889 16.8752L18.3877 21.1723L19.1865 22.2017L19.9853 23.786L20.7841 28.5327L21.5829 25.0829L22.3818 24.953L23.1806 26.373L23.9794 26.5001L24.7782 27.5854L25.577 23.7669L26.3758 20.1424L27.1747 22.1278L27.9735 24.1622L28.7723 24.0684L29.5711 22.5668L30.3699 21.4116L31.1687 20.3834L31.9676 25.6625L32.7664 25.8393L33.5652 26.8644L34.364 33.0094L35.1628 28.8932L35.9616 30.9211L36.7605 28.2459L37.5593 31.2134L38.3581 33.9287L39.1569 39.2625L39.9557 38.364L40.7545 36.2899L41.5534 38.6359L42.3522 36.5404L43.151 38.3391L43.9498 34.8366L44.7486 34.4595L45.5474 34.0381L46.3463 32.9393L47.1451 34.4286L47.9439 35.3036L48.7427 35.5998L49.5415 42.4518L50.3403 46.4245L51.1392 44.4549L51.938 43.3032L52.7368 46.4384L53.5356 46.4516L54.3344 44.5771L55.1332 47.7045L55.9321 46.4691L56.7309 50L57.5297 46.1422L58.3285 44.6287L59.1273 42.4011L59.9261 44.2904L60.725 43.6789L61.5238 43.8903L62.3226 43.9448L63.1214 44.0388L63.9202 40.7706L64.719 40.3557L65.5179 42.0218L66.3167 41.0695L67.1155 38.3066L67.9143 38.2574L68.7131 36.568L69.5119 33.891L70.3108 36.4737L71.1096 35.9873L71.9084 34.1728L72.7072 30.781L73.506 30.4351L74.3048 32.6055L75.1037 26.7828L75.9025 26.8038L76.7013 28.8392L77.5001 27.9474L78.2989 28.7259L79.0977 29.6374L79.8966 30.166L80.6954 31.404L81.4942 30.3989L82.293 29.1794L83.0918 30.4561L83.8906 32.6405L84.6894 32.7102L85.4883 31.0296L86.2871 29.6012L87.0859 28.309L87.8847 29.7375L88.6835 28.7279L89.4823 28.2982L90.2812 29.9264L91.08 29.1958L91.8788 29.5289L92.6776 32.4758L93.4764 33.781L94.2752 35.6356L95.0741 37.5673L95.8729 36.4106L96.6717 38.9771L97.4705 39.4497L98.2693 40.0308L99.0681 38.8885L99.867 37.1931L100.666 38.7917L101.465 38.6136L102.263 36.6338L103.062 37.964L103.861 38.7809L104.66 39.0828L105.459 38.8184L106.257 38.7605L107.056 38.242L107.855 37.4213L108.654 36.66L109.453 37.2254L110.252 35.4307L111.05 34.343L111.849 34.2592L112.648 33.8798L113.447 37.1323L114.246 38.5157L115.044 38.555L115.843 38.044L116.642 40.2548L117.441 40.1445L118.24 41.6558L119.039 40.1658L119.837 38.7352L120.636 32.7761L121.435 32.1425L122.234 34.0048L123.033 35.0217L123.831 35.8862L124.63 36.3283L125.429 34.0017L126.228 34.372L127.027 35.0707L127.826 39.747L128.624 40.417L129.423 38.3945L130.222 38.9688L131.021 37.9578L131.82 36.7573L132.618 36.9008L133.417 36.6046L134.216 39.6017" stroke="#FF3A33" stroke-width="1.25"/>
</g>
<defs>
<clipPath id="clip0_2_3058">
<rect width="135" height="50" fill="white" transform="translate(0.0148926)"/>
</clipPath>
</defs>
</svg>
