<svg width="136" height="50" viewBox="0 0 136 50" fill="none" xmlns="http://www.w3.org/2000/svg">
<g clip-path="url(#clip0_2_3418)">
<path d="M0.0148926 2.45846L0.813709 3.71813L1.61253 2.7419L2.41134 0.585425L3.21016 3.16816L4.00898 7.38818L4.80779 9.48574L5.60661 5.66184L6.40543 5.65856L7.20424 6.72224L8.00306 4.01737L8.80188 4.47369L9.60069 6.42811L10.3995 3.48309L11.1983 2.46591L11.9971 3.09285L12.796 2.0475L13.5948 0L14.3936 2.43461L15.1924 3.0796L15.9912 9.62984L16.79 22.3373L17.5889 22.2384L18.3877 26.8633L19.1865 28.9443L19.9853 29.9178L20.7841 32.5543L21.5829 31.9213L22.3818 32.9991L23.1806 34.7813L23.9794 34.3673L24.7782 32.3561L25.577 31.0695L26.3758 29.8126L27.1747 30.0551L27.9735 32.7107L28.7723 32.3327L29.5711 28.0234L30.3699 28.3867L31.1687 28.432L31.9676 35.3883L32.7664 35.894L33.5652 36.1621L34.364 37.6901L35.1628 34.2477L35.9616 35.4253L36.7605 30.6861L37.5593 35.8796L38.3581 37.2795L39.1569 45.2068L39.9557 43.2162L40.7545 43.0781L41.5534 44.5785L42.3522 42.0012L43.151 42.4985L43.9498 40.4843L44.7486 40.1947L45.5474 39.3766L46.3463 38.0721L47.1451 37.0511L47.9439 38.2897L48.7427 37.8438L49.5415 39.5226L50.3403 46.2881L51.1392 42.3357L51.938 41.0094L52.7368 43.1352L53.5356 46.641L54.3344 44.4194L55.1332 47.2776L55.9321 46.3922L56.7309 50L57.5297 46.804L58.3285 47.5717L59.1273 45.1202L59.9261 46.2595L60.725 43.7832L61.5238 41.81L62.3226 42.0559L63.1214 45.4651L63.9202 40.3285L64.719 42.6467L65.5179 43.1931L66.3167 42.2272L67.1155 40.7186L67.9143 41.8656L68.7131 40.2655L69.5119 38.7211L70.3108 39.383L71.1096 41.3012L71.9084 38.2151L72.7072 38.1202L73.506 37.7188L74.3048 38.4452L75.1037 34.4356L75.9025 33.3895L76.7013 36.2966L77.5001 34.7431L78.2989 34.2202L79.0977 34.4216L79.8966 35.1326L80.6954 34.4277L81.4942 32.7674L82.293 32.918L83.0918 34.0748L83.8906 37.8343L84.6894 37.5816L85.4883 36.2879L86.2871 34.2463L87.0859 32.8723L87.8847 32.2606L88.6835 33.1598L89.4823 29.3829L90.2812 30.3541L91.08 30.2994L91.8788 30.2262L92.6776 33.8483L93.4764 33.4395L94.2752 32.67L95.0741 36.1696L95.8729 35.7904L96.6717 37.7425L97.4705 38.9688L98.2693 40.8244L99.0681 38.1374L99.867 36.2085L100.666 36.7034L101.465 36.3008L102.263 34.2139L103.062 35.4114L103.861 36.8375L104.66 37.9717L105.459 35.779L106.257 36.0041L107.056 34.8372L107.855 34.3898L108.654 32.3996L109.453 33.5681L110.252 31.6685L111.05 30.2795L111.849 32.2977L112.648 27.6783L113.447 26.2386L114.246 29.0105L115.044 28.8437L115.843 27.7968L116.642 29.3046L117.441 29.3944L118.24 30.3592L119.039 27.3305L119.837 26.6119L120.636 17.2628L121.435 15.5564L122.234 15.0344L123.033 12.2149L123.831 14.8051L124.63 17.0621L125.429 15.2016L126.228 15.1374L127.027 17.0743L127.826 19.6581L128.624 21.8025L129.423 20.7847L130.222 20.0327L131.021 14.0427L131.82 13.7392L132.618 11.5673L133.417 15.0965L134.216 21.307" stroke="#FF3A33" stroke-width="1.25"/>
</g>
<defs>
<clipPath id="clip0_2_3418">
<rect width="135" height="50" fill="white" transform="translate(0.0148926)"/>
</clipPath>
</defs>
</svg>
