<svg width="136" height="51" viewBox="0 0 136 51" fill="none" xmlns="http://www.w3.org/2000/svg">
<g clip-path="url(#clip0_9_1619)">
<path d="M0.0148926 22.2031L0.813709 24.9232L1.61253 24.8267L2.41134 20.2281L3.21016 21.9422L4.00898 25.6632L4.80779 25.5025L5.60661 23.8681L6.40543 24.6306L7.20424 21.0481L8.00306 17.9878L8.80188 18.5236L9.60069 16.9451L10.3995 21.6956L11.1983 22.6024L11.9971 23.6062L12.796 24.0058L13.5948 23.4628L14.3936 24.4665L15.1924 26.7657L15.9912 27.8341L16.79 33.2269L17.5889 30.527L18.3877 33.7649L19.1865 34.3262L19.9853 35.6439L20.7841 37.4236L21.5829 36.8804L22.3818 35.2157L23.1806 36.565L23.9794 35.7713L24.7782 37.1693L25.577 37.1969L26.3758 35.1845L27.1747 35.4996L27.9735 35.4338L28.7723 33.7357L29.5711 30.4606L30.3699 27.1325L31.1687 26.8047L31.9676 32.546L32.7664 33.0383L33.5652 35.4778L34.364 39.2288L35.1628 37.4447L35.9616 36.7632L36.7605 36.7375L37.5593 38.7596L38.3581 40.6693L39.1569 43.728L39.9557 41.804L40.7545 39.4861L41.5534 40.965L42.3522 39.8255L43.151 40.3535L43.9498 37.3226L44.7486 37.4469L45.5474 34.7139L46.3463 34.2546L47.1451 36.6057L47.9439 39.08L48.7427 38.0049L49.5415 41.9621L50.3403 46.5969L51.1392 45.3117L51.938 42.7209L52.7368 46.3651L53.5356 47.6957L54.3344 44.5754L55.1332 49.7475L55.9321 49.4347L56.7309 50.5L57.5297 46.7071L58.3285 46.1485L59.1273 44.7663L59.9261 47.6315L60.725 47.2545L61.5238 46.2047L62.3226 46.2092L63.1214 48.6883L63.9202 45.1573L64.719 45.9776L65.5179 45.0217L66.3167 44.8269L67.1155 42.9156L67.9143 44.2715L68.7131 42.0384L69.5119 40.0944L70.3108 41.5453L71.1096 41.4594L71.9084 39.9138L72.7072 36.9411L73.506 35.9541L74.3048 35.886L75.1037 29.402L75.9025 29.7776L76.7013 29.2407L77.5001 26.3599L78.2989 25.9641L79.0977 27.3859L79.8966 26.4985L80.6954 25.4383L81.4942 22.8867L82.293 24.7863L83.0918 25.5327L83.8906 26.3528L84.6894 26.0901L85.4883 24.3776L86.2871 19.7721L87.0859 20.613L87.8847 22.4413L88.6835 22.8592L89.4823 22.0361L90.2812 23.6625L91.08 24.4759L91.8788 24.47L92.6776 25.239L93.4764 24.8662L94.2752 24.4343L95.0741 28.2445L95.8729 26.8122L96.6717 29.357L97.4705 29.9142L98.2693 31.1126L99.0681 29.0984L99.867 28.695L100.666 28.6455L101.465 29.3971L102.263 27.4781L103.062 28.8998L103.861 30.7009L104.66 31.5653L105.459 32.6567L106.257 31.5561L107.056 31.6292L107.855 30.8985L108.654 30.1685L109.453 29.7669L110.252 31.1561L111.05 30.8338L111.849 32.1844L112.648 26.2963L113.447 28.8655L114.246 29.0857L115.044 28.1988L115.843 22.8742L116.642 24.8814L117.441 25.1041L118.24 22.9969L119.039 19.5188L119.837 10.3482L120.636 0.5L121.435 5.10566L122.234 6.73846L123.033 8.31937L123.831 10.4798L124.63 9.60948L125.429 10.4136L126.228 11.5873L127.027 11.342L127.826 14.1793L128.624 14.4571L129.423 12.8056L130.222 14.6011L131.021 10.1756L131.82 12.3938L132.618 12.3291L133.417 10.7081L134.216 14.7888" stroke="#57FF84" stroke-width="1.25"/>
</g>
<defs>
<clipPath id="clip0_9_1619">
<rect width="135" height="50" fill="white" transform="translate(0.0148926 0.5)"/>
</clipPath>
</defs>
</svg>
