<svg width="136" height="50" viewBox="0 0 136 50" fill="none" xmlns="http://www.w3.org/2000/svg">
<g clip-path="url(#clip0_2_2663)">
<path d="M0.0148926 0L0.813709 2.10264L1.61253 4.27757L2.41134 3.18272L3.21016 3.89026L4.00898 5.09628L4.80779 3.63592L5.60661 3.66333L6.40543 8.71625L7.20424 8.53177L8.00306 13.777L8.80188 11.2934L9.60069 11.4538L10.3995 11.2897L11.1983 10.0096L11.9971 4.17042L12.796 7.75397L13.5948 3.59684L14.3936 5.63848L15.1924 5.84738L15.9912 4.33049L16.79 10.4333L17.5889 13.1646L18.3877 23.8985L19.1865 30.3553L19.9853 32.7309L20.7841 31.4211L21.5829 31.6401L22.3818 24.6636L23.1806 28.9883L23.9794 28.6396L24.7782 24.6037L25.577 21.174L26.3758 17.9043L27.1747 19.0317L27.9735 16.3677L28.7723 25.0711L29.5711 24.8418L30.3699 29.1863L31.1687 31.2946L31.9676 35.1692L32.7664 38.594L33.5652 33.9333L34.364 35.1429L35.1628 39.1774L35.9616 42.9193L36.7605 39.6875L37.5593 39.6984L38.3581 44.4635L39.1569 44.5793L39.9557 49.8666L40.7545 48.5627L41.5534 50L42.3522 48.4228L43.151 49.6346L43.9498 48.262L44.7486 47.2781L45.5474 42.6763L46.3463 42.9856L47.1451 42.1796L47.9439 42.5812L48.7427 41.0582L49.5415 42.2624L50.3403 45.3598L51.1392 44.6019L51.938 45.957L52.7368 44.5007L53.5356 46.1049L54.3344 49.1946L55.1332 43.8186L55.9321 39.5444L56.7309 37.5875L57.5297 37.8068L58.3285 37.3809L59.1273 33.6813L59.9261 35.5004L60.725 28.1951L61.5238 29.2006L62.3226 29.4839L63.1214 30.6903L63.9202 30.7756L64.719 27.7885L65.5179 26.7819L66.3167 24.7337L67.1155 22.8742L67.9143 22.4353L68.7131 23.0008L69.5119 24.8794L70.3108 24.7746L71.1096 23.6169L71.9084 25.1107L72.7072 24.2157L73.506 24.6405L74.3048 26.5533L75.1037 25.1361L75.9025 23.8809L76.7013 21.6336L77.5001 20.0109L78.2989 17.2659L79.0977 12.5436L79.8966 16.679L80.6954 20.0485L81.4942 17.375L82.293 16.2579L83.0918 13.9901L83.8906 13.8484L84.6894 10.9637L85.4883 13.7206L86.2871 9.82717L87.0859 4.38082L87.8847 5.03842L88.6835 2.742L89.4823 5.40843L90.2812 6.70754L91.08 8.05466L91.8788 8.37072L92.6776 6.85277L93.4764 7.83083L94.2752 10.1551L95.0741 11.0197L95.8729 11.6907L96.6717 9.45474L97.4705 8.10046L98.2693 9.31568L99.0681 7.92345L99.867 6.27863L100.666 7.94809L101.465 5.49778L102.263 2.89041L103.062 1.13042L103.861 4.59903L104.66 4.59652L105.459 5.07874L106.257 4.05251L107.056 8.62582L107.855 7.08035L108.654 10.0874L109.453 9.50561L110.252 10.7175L111.05 12.2067L111.849 14.3964L112.648 12.9485L113.447 14.4988L114.246 19.6269L115.044 18.4546L115.843 18.7171L116.642 18.356L117.441 20.9108L118.24 21.9276L119.039 21.2972L119.837 20.3253L120.636 18.4811L121.435 18.7812L122.234 20.6801L123.033 21.7534L123.831 22.7574L124.63 22.4355L125.429 22.0788L126.228 23.4737L127.027 24.601L127.826 26.6297L128.624 30.0516L129.423 25.9725L130.222 22.7773L131.021 20.5894L131.82 21.9339L132.618 20.5598L133.417 22.1724L134.216 26.4905" stroke="#FF3A33" stroke-width="1.25"/>
</g>
<defs>
<clipPath id="clip0_2_2663">
<rect width="135" height="50" fill="white" transform="translate(0.0148926)"/>
</clipPath>
</defs>
</svg>
