<svg width="136" height="51" viewBox="0 0 136 51" fill="none" xmlns="http://www.w3.org/2000/svg">
<g clip-path="url(#clip0_9_1008)">
<path d="M0.0148926 16.875L0.813709 13.8629L1.61253 13.0562L2.41134 13.8097L3.21016 15.5287L4.00898 15.1576L4.80779 20.4754L5.60661 17.6008L6.40543 20.0314L7.20424 19.2802L8.00306 18.0277L8.80188 15.894L9.60069 14.5092L10.3995 14.1929L11.1983 13.5093L11.9971 12.5622L12.796 11.4025L13.5948 10.8213L14.3936 11.0155L15.1924 11.0628L15.9912 16.1097L16.79 25.8212L17.5889 33.8615L18.3877 33.1398L19.1865 41.7469L19.9853 40.8626L20.7841 45.3962L21.5829 46.2423L22.3818 43.9547L23.1806 47.2742L23.9794 44.9822L24.7782 50.2044L25.577 46.409L26.3758 42.9762L27.1747 41.4104L27.9735 39.5785L28.7723 38.4021L29.5711 37.3431L30.3699 40.5186L31.1687 37.804L31.9676 44.3592L32.7664 45.913L33.5652 42.8899L34.364 46.7155L35.1628 38.67L35.9616 44.5808L36.7605 30.1862L37.5593 30.555L38.3581 35.1401L39.1569 36.7812L39.9557 36.2085L40.7545 35.5414L41.5534 35.2144L42.3522 35.2148L43.151 36.4824L43.9498 38.9804L44.7486 43.9198L45.5474 37.619L46.3463 35.3071L47.1451 32.841L47.9439 35.3873L48.7427 33.3692L49.5415 36.2529L50.3403 44.3382L51.1392 40.6106L51.938 38.6072L52.7368 43.3061L53.5356 41.2751L54.3344 41.0834L55.1332 40.119L55.9321 31.9646L56.7309 40.5029L57.5297 30.1992L58.3285 21.7338L59.1273 13.5369L59.9261 8.93761L60.725 4.88449L61.5238 3.92651L62.3226 2.58502L63.1214 10.1177L63.9202 9.37773L64.719 14.1028L65.5179 10.8063L66.3167 14.3371L67.1155 13.561L67.9143 10.6802L68.7131 9.0626L69.5119 6.52161L70.3108 9.29028L71.1096 5.98477L71.9084 5.20412L72.7072 8.46545L73.506 7.67521L74.3048 0.5L75.1037 7.41922L75.9025 11.1292L76.7013 14.096L77.5001 11.5484L78.2989 11.285L79.0977 12.4675L79.8966 13.7052L80.6954 13.4421L81.4942 13.9524L82.293 17.0728L83.0918 24.8885L83.8906 28.3614L84.6894 28.7618L85.4883 29.3691L86.2871 29.3788L87.0859 36.0924L87.8847 36.4651L88.6835 33.6159L89.4823 43.1005L90.2812 42.257L91.08 41.3601L91.8788 41.5092L92.6776 41.5426L93.4764 41.3995L94.2752 41.8498L95.0741 46.445L95.8729 42.7198L96.6717 45.322L97.4705 43.9081L98.2693 46.8533L99.0681 46.1542L99.867 45.8204L100.666 46.6681L101.465 48.6719L102.263 46.2059L103.062 48.9097L103.861 50.5L104.66 50.0841L105.459 49.6279L106.257 49.4673L107.056 49.7233L107.855 43.549L108.654 40.0688L109.453 38.9757L110.252 38.6916L111.05 38.7448L111.849 38.9487L112.648 35.1315L113.447 32.8556L114.246 35.9367L115.044 38.1377L115.843 36.7054L116.642 38.4312L117.441 37.9875L118.24 37.489L119.039 37.2258L119.837 38.5154L120.636 34.5135L121.435 39.5034L122.234 41.8246L123.033 40.9582L123.831 42.2256L124.63 40.0404L125.429 36.5263L126.228 36.9181L127.027 32.738L127.826 33.882L128.624 31.5191L129.423 22.8712L130.222 24.1457L131.021 17.94L131.82 27.7632L132.618 18.4476L133.417 19.4923L134.216 22.2156" stroke="#FF3A33" stroke-width="1.25"/>
</g>
<defs>
<clipPath id="clip0_9_1008">
<rect width="135" height="50" fill="white" transform="translate(0.0148926 0.5)"/>
</clipPath>
</defs>
</svg>
