<svg width="136" height="50" viewBox="0 0 136 50" fill="none" xmlns="http://www.w3.org/2000/svg">
<g clip-path="url(#clip0_2_4782)">
<path d="M0.0148926 11.5606L0.80901 11.0568L1.60313 9.01406L2.39725 9.0688L3.19136 11.3803L3.98548 13.1822L4.7796 15.5733L5.57372 10.1473L6.36783 12.1234L7.16195 8.26067L7.95607 6.75342L8.75019 8.45283L9.5443 6.75114L10.3384 6.5043L11.1325 6.35052L11.9267 2.50433L12.7208 2.7497L13.5149 2.70148L14.309 2.2816L15.1031 0L15.8972 5.47382L16.6914 12.1322L17.4855 11.7763L18.2796 16.606L19.0737 15.9058L19.8678 20.1923L20.662 24.4675L21.4561 22.6281L22.2502 19.9104L23.0443 21.197L23.8384 22.8293L24.6325 15.5951L25.4267 11.4762L26.2208 10.1451L27.0149 12.4576L27.809 14.1286L28.6031 16.1118L29.3972 15.9322L30.1914 17.4923L30.9855 18.9272L31.7796 25.0605L32.5737 31.1275L33.3678 30.0038L34.162 31.0709L34.9561 31.1387L35.7502 30.675L36.5443 25.57L37.3384 27.6205L38.1325 29.6216L38.9267 33.7133L39.7208 33.5077L40.5149 32.374L41.309 33.183L42.1031 35.0585L42.8972 35.1702L43.6914 38.5401L44.4855 37.9308L45.2796 37.3804L46.0737 38.1822L46.8678 37.9041L47.662 40.7294L48.4561 41.626L49.2502 45.0959L50.0443 47.5059L50.8384 46.321L51.6325 45.7257L52.4267 46.33L53.2208 47.0673L54.0149 47.0247L54.809 48.3348L55.6031 47.9162L56.3972 50L57.1914 48.3902L57.9855 49.068L58.7796 46.9695L59.5737 48.7348L60.3678 48.5746L61.162 47.0896L61.9561 47.1304L62.7502 48.189L63.5443 46.5492L64.3384 46.3419L65.1325 47.1694L65.9267 45.646L66.7208 42.6446L67.5149 40.8289L68.309 36.7561L69.1031 34.8762L69.8972 37.3096L70.6914 37.1912L71.4855 34.6879L72.2796 34.3589L73.0737 35.4369L73.8678 36.1087L74.6619 35.3213L75.4561 32.0017L76.2502 32.2441L77.0443 31.4216L77.8384 29.6227L78.6325 31.4822L79.4267 35.5335L80.2208 36.7348L81.0149 36.4622L81.809 36.6007L82.6031 38.8902L83.3972 40.2542L84.1914 39.7613L84.9855 39.5926L85.7796 38.698L86.5737 36.9015L87.3678 36.8243L88.1619 36.3134L88.9561 34.8569L89.7502 36.4173L90.5443 36.503L91.3384 35.9097L92.1325 37.6778L92.9267 37.2263L93.7208 37.868L94.5149 40.2105L95.309 39.8299L96.1031 41.3194L96.8972 42.7019L97.6914 42.7433L98.4855 41.8293L99.2796 41.3076L100.074 41.4397L100.868 42.7072L101.662 41.5054L102.456 42.0578L103.25 42.9311L104.044 43.1485L104.838 42.5563L105.633 42.3249L106.427 42.2468L107.221 42.212L108.015 41.7923L108.809 42.1187L109.603 40.4893L110.397 39.9336L111.191 39.9857L111.985 36.9502L112.78 37.2156L113.574 37.3868L114.368 37.2283L115.162 37.3353L115.956 38.7769L116.75 38.8478L117.544 39.9757L118.338 38.13L119.133 37.8L119.927 35.3418L120.721 33.6382L121.515 34.5289L122.309 34.3805L123.103 35.5824L123.897 36.664L124.691 35.1656L125.485 36.0413L126.28 36.8824L127.074 38.0051L127.868 41.617L128.662 42.2036L129.456 42.8449L130.25 40.8681L131.044 39.8008L131.838 39.5502L132.633 39.1569L133.427 38.6374L134.221 41.9005" stroke="#FF3A33" stroke-width="1.25"/>
</g>
<defs>
<clipPath id="clip0_2_4782">
<rect width="135" height="50" fill="white" transform="translate(0.0148926)"/>
</clipPath>
</defs>
</svg>
