<svg width="136" height="50" viewBox="0 0 136 50" fill="none" xmlns="http://www.w3.org/2000/svg">
<g clip-path="url(#clip0_2_4710)">
<path d="M0.0148926 4.16157L0.818464 4.33776L1.62204 2.52762L2.42561 3.95212L3.22918 8.33666L4.03275 8.92364L4.83632 3.96068L5.63989 5.48774L6.44346 4.93987L7.24704 1.93113L8.05061 3.10328L8.85418 3.47854L9.65775 0L10.4613 0.863343L11.2649 1.39608L12.0685 0.996071L12.872 0.534641L13.6756 1.70929L14.4792 3.03989L15.2828 8.35637L16.0863 16.4149L16.8899 22.0996L17.6935 25.0052L18.497 30.1493L19.3006 33.3846L20.1042 35.1668L20.9077 34.9809L21.7113 35.0864L22.5149 33.8664L23.3185 34.1347L24.122 34.3937L24.9256 30.4521L25.7292 29.6399L26.5327 28.285L27.3363 29.9L28.1399 29.9811L28.9435 26.8686L29.747 28.5417L30.5506 29.0069L31.3542 34.2563L32.1577 34.1971L32.9613 34.6034L33.7649 36.383L34.5685 32.2273L35.372 35.7052L36.1756 28.924L36.9792 35.2778L37.7827 37.4152L38.5863 44.7627L39.3899 41.2507L40.1935 38.6477L40.997 38.7528L41.8006 38.8163L42.6042 39.1178L43.4077 38.5976L44.2113 36.7455L45.0149 37.5701L45.8185 36.0234L46.622 35.9873L47.4256 37.5487L48.2292 38.2464L49.0327 41.5016L49.8363 46.3136L50.6399 42.5264L51.4435 40.8851L52.247 42.6517L53.0506 44.1838L53.8542 42.18L54.6577 46.7073L55.4613 45.2421L56.2649 50L57.0685 45.7799L57.872 45.8709L58.6756 44.0065L59.4792 46.9074L60.2827 44.6451L61.0863 41.8944L61.8899 40.9647L62.6935 42.4127L63.497 37.5554L64.3006 37.8536L65.1042 39.2835L65.9078 38.7777L66.7113 36.2997L67.5149 37.241L68.3185 35.7463L69.122 36.4228L69.9256 37.2304L70.7292 34.5625L71.5328 34.0485L72.3363 31.9457L73.1399 32.9144L73.9435 31.7607L74.747 30.6793L75.5506 29.3395L76.3542 31.3663L77.1578 29.1469L77.9613 29.9339L78.7649 29.8546L79.5685 30.981L80.372 31.2979L81.1756 29.509L81.9792 28.7189L82.7828 30.1387L83.5863 32.4604L84.3899 32.7982L85.1935 30.7476L85.997 28.9805L86.8006 27.6686L87.6042 29.0553L88.4078 28.5129L89.2113 27.4688L90.0149 30.5536L90.8185 28.7968L91.622 28.8234L92.4256 30.6222L93.2292 28.8297L94.0328 28.1659L94.8363 31.6954L95.6399 28.6246L96.4435 29.9918L97.247 31.615L98.0506 32.3867L98.8542 29.985L99.6578 27.2486L100.461 28.5981L101.265 28.9096L102.068 29.4309L102.872 28.3915L103.676 28.5182L104.479 30.6658L105.283 29.4413L106.086 29.6136L106.89 29.9604L107.693 29.4073L108.497 28.0697L109.301 28.0478L110.104 25.7174L110.908 24.5904L111.711 27.4765L112.515 24.4239L113.318 22.9411L114.122 25.8435L114.926 27.4807L115.729 25.8339L116.533 28.591L117.336 28.1219L118.14 28.4838L118.943 27.2345L119.747 26.2707L120.551 20.4367L121.354 20.0359L122.158 22.9696L122.961 22.4072L123.765 23.6517L124.568 23.684L125.372 23.7694L126.176 23.166L126.979 24.9177L127.783 26.1752L128.586 29.155L129.39 27.2781L130.193 29.3936L130.997 26.301L131.801 24.0358L132.604 27.7334L133.408 26.3443L134.211 31.4749" stroke="#FF3A33" stroke-width="1.25"/>
</g>
<defs>
<clipPath id="clip0_2_4710">
<rect width="135" height="50" fill="white" transform="translate(0.0148926)"/>
</clipPath>
</defs>
</svg>
