<svg width="136" height="51" viewBox="0 0 136 51" fill="none" xmlns="http://www.w3.org/2000/svg">
<g clip-path="url(#clip0_9_1403)">
<path d="M0.0148926 26.4612L0.813709 21.5397L1.61253 23.7736L2.41134 29.34L3.21016 25.4492L4.00898 27.3992L4.80779 25.8416L5.60661 32.5025L6.40543 27.0211L7.20424 29.575L8.00306 24.7201L8.80188 30.7328L9.60069 26.9631L10.3995 31.1094L11.1983 24.4823L11.9971 18.7785L12.796 35.0744L13.5948 26.6236L14.3936 25.8124L15.1924 30.5259L15.9912 24.8485L16.79 25.9025L17.5889 35.2251L18.3877 23.0397L19.1865 14.2768L19.9853 36.6899L20.7841 25.8787L21.5829 36.4213L22.3818 27.0036L23.1806 26.6445L23.9794 33.898L24.7782 1.90398L25.577 31.1286L26.3758 22.9649L27.1747 33.7146L27.9735 19.6036L28.7723 16.134L29.5711 27.5828L30.3699 27.2145L31.1687 33.0236L31.9676 30.292L32.7664 33.0403L33.5652 28.2747L34.364 32.559L35.1628 22.0175L35.9616 0.5L36.7605 37.1906L37.5593 43.6584L38.3581 40.5761L39.1569 29.1267L39.9557 1.05304L40.7545 29.9698L41.5534 25.8448L42.3522 28.2309L43.151 36.5908L43.9498 16.5784L44.7486 15.016L45.5474 32.5523L46.3463 30.4266L47.1451 22.1157L47.9439 24.8148L48.7427 28.7227L49.5415 26.8693L50.3403 31.068L51.1392 22.3664L51.938 23.2851L52.7368 45.8034L53.5356 31.5728L54.3344 26.9419L55.1332 39.7932L55.9321 23.4755L56.7309 27.9839L57.5297 36.5336L58.3285 25.6257L59.1273 29.8094L59.9261 13.1312L60.725 16.5558L61.5238 26.12L62.3226 25.4123L63.1214 19.5004L63.9202 24.5745L64.719 25.6755L65.5179 19.6852L66.3167 23.4712L67.1155 31.4863L67.9143 25.5382L68.7131 36.1231L69.5119 29.5401L70.3108 21.9362L71.1096 27.2707L71.9084 30.4837L72.7072 33.28L73.506 31.3975L74.3048 27.5962L75.1037 15.9618L75.9025 19.8117L76.7013 26.5643L77.5001 29.0926L78.2989 18.1417L79.0977 26.6204L79.8966 30.4423L80.6954 28.2232L81.4942 23.5375L82.293 36.8868L83.0918 30.9272L83.8906 22.2969L84.6894 28.1711L85.4883 27.7418L86.2871 29.4772L87.0859 28.346L87.8847 26.2581L88.6835 26.2434L89.4823 27.5653L90.2812 27.3749L91.08 29.7194L91.8788 29.435L92.6776 25.4847L93.4764 27.9925L94.2752 24.7758L95.0741 32.9193L95.8729 29.5201L96.6717 31.8437L97.4705 31.8115L98.2693 29.329L99.0681 25.1405L99.867 30.4763L100.666 30.8083L101.465 31.3685L102.263 22.5933L103.062 29.4933L103.861 32.1927L104.66 29.2849L105.459 30.8008L106.257 31.548L107.056 31.0045L107.855 29.584L108.654 31.4234L109.453 29.7163L110.252 26.968L111.05 23.3657L111.849 34.319L112.648 22.1126L113.447 22.3566L114.246 41.4608L115.044 28.4207L115.843 25.2204L116.642 23.864L117.441 27.0825L118.24 17.7261L119.039 6.62054L119.837 27.929L120.636 24.8755L121.435 31.782L122.234 26.7144L123.033 23.7742L123.831 29.4743L124.63 28.494L125.429 26.0607L126.228 18.1644L127.027 35.3291L127.826 31.3564L128.624 37.2914L129.423 23.0485L130.222 26.7666L131.021 28.4562L131.82 35.499L132.618 23.0445L133.417 22.5437L134.216 50.5" stroke="#FF3A33" stroke-width="1.25"/>
</g>
<defs>
<clipPath id="clip0_9_1403">
<rect width="135" height="50" fill="white" transform="translate(0.0148926 0.5)"/>
</clipPath>
</defs>
</svg>
