<svg width="136" height="50" viewBox="0 0 136 50" fill="none" xmlns="http://www.w3.org/2000/svg">
<g clip-path="url(#clip0_2_3562)">
<path d="M0.0148926 10.0608L0.813709 8.67928L1.61253 5.24464L2.41134 5.81485L3.21016 6.83446L4.00898 7.77738L4.80779 5.53741L5.60661 4.50499L6.40543 4.94397L7.20424 3.2773L8.00306 3.2652L8.80188 2.26438L9.60069 0.621282L10.3995 0L11.1983 1.53808L11.9971 1.32428L12.796 2.01039L13.5948 2.66464L14.3936 2.93296L15.1924 9.7698L15.9912 11.9997L16.79 18.1316L17.5889 21.9287L18.3877 25.0167L19.1865 22.6659L19.9853 22.6101L20.7841 31.8832L21.5829 26.787L22.3818 30.4389L23.1806 28.8179L23.9794 27.2098L24.7782 26.2228L25.577 24.3335L26.3758 23.8144L27.1747 25.2058L27.9735 24.3278L28.7723 25.4858L29.5711 23.9289L30.3699 24.6304L31.1687 27.2441L31.9676 28.6978L32.7664 27.8357L33.5652 28.3938L34.364 32.7155L35.1628 29.2616L35.9616 29.3475L36.7605 27.2873L37.5593 31.0988L38.3581 35.2178L39.1569 40.8549L39.9557 39.6507L40.7545 41.9508L41.5534 40.6359L42.3522 41.0902L43.151 39.8182L43.9498 38.6152L44.7486 38.4503L45.5474 38.5645L46.3463 37.2717L47.1451 38.927L47.9439 38.6019L48.7427 40.0302L49.5415 45.3775L50.3403 47.0499L51.1392 43.6944L51.938 44.0812L52.7368 45.0508L53.5356 45.8835L54.3344 47.9016L55.1332 50L55.9321 49.0236L56.7309 44.9878L57.5297 45.3435L58.3285 45.5167L59.1273 45.5326L59.9261 44.874L60.725 44.7424L61.5238 44.3162L62.3226 44.8851L63.1214 43.6143L63.9202 40.9744L64.719 42.6851L65.5179 40.2641L66.3167 40.5306L67.1155 39.0345L67.9143 39.4894L68.7131 38.7999L69.5119 39.9929L70.3108 40.4941L71.1096 40.4239L71.9084 38.9805L72.7072 39.004L73.506 42.5589L74.3048 38.2074L75.1037 31.2337L75.9025 34.0825L76.7013 33.6156L77.5001 32.9495L78.2989 32.6914L79.0977 32.874L79.8966 34.2153L80.6954 34.4662L81.4942 34.3606L82.293 34.2544L83.0918 34.9598L83.8906 37.1039L84.6894 36.4386L85.4883 35.0374L86.2871 34.0324L87.0859 33.6118L87.8847 33.9609L88.6835 33.6515L89.4823 33.5288L90.2812 34.5728L91.08 33.9896L91.8788 34.002L92.6776 35.5609L93.4764 35.3496L94.2752 35.975L95.0741 35.8971L95.8729 36.5288L96.6717 37.7718L97.4705 37.8183L98.2693 36.0124L99.0681 34.8432L99.867 35.087L100.666 35.7599L101.465 34.7214L102.263 34.4817L103.062 34.888L103.861 34.9829L104.66 34.5822L105.459 34.0377L106.257 34.206L107.056 34.0774L107.855 33.2723L108.654 33.9759L109.453 33.0172L110.252 32.4307L111.05 32.7289L111.849 32.0658L112.648 29.8976L113.447 31.1085L114.246 30.9722L115.044 29.944L115.843 30.6618L116.642 31.0393L117.441 31.7345L118.24 32.8301L119.039 31.2015L119.837 27.418L120.636 23.5035L121.435 21.1319L122.234 22.6407L123.033 23.8697L123.831 24.4977L124.63 23.7929L125.429 25.5233L126.228 24.5602L127.027 29.1984L127.826 29.8057L128.624 28.1441L129.423 27.3508L130.222 26.2389L131.021 20.457L131.82 24.423L132.618 27.2453L133.417 25.8493L134.216 30.9754" stroke="#FF3A33" stroke-width="1.25"/>
</g>
<defs>
<clipPath id="clip0_2_3562">
<rect width="135" height="50" fill="white" transform="translate(0.0148926)"/>
</clipPath>
</defs>
</svg>
