<svg width="136" height="50" viewBox="0 0 136 50" fill="none" xmlns="http://www.w3.org/2000/svg">
<g clip-path="url(#clip0_2_3706)">
<path d="M0.0148926 7.64395L0.813709 7.45914L1.61253 7.21174L2.41134 5.38056L3.21016 5.99644L4.00898 10.3534L4.80779 12.0785L5.60661 6.75583L6.40543 8.32355L7.20424 7.33812L8.00306 4.82557L8.80188 3.12566L9.60069 3.96226L10.3995 1.26443L11.1983 0L11.9971 1.25144L12.796 2.46428L13.5948 1.56369L14.3936 4.8012L15.1924 5.42512L15.9912 9.35202L16.79 17.1372L17.5889 17.987L18.3877 23.9021L19.1865 25.2873L19.9853 27.433L20.7841 30.2406L21.5829 28.3227L22.3818 29.2433L23.1806 29.4608L23.9794 30.2028L24.7782 29.4362L25.577 27.7148L26.3758 26.5207L27.1747 24.3844L27.9735 27.5124L28.7723 27.7226L29.5711 25.6407L30.3699 26.1641L31.1687 26.2599L31.9676 31.2236L32.7664 30.4909L33.5652 32.03L34.364 34.3752L35.1628 31.1016L35.9616 32.2659L36.7605 28.9411L37.5593 34.7147L38.3581 36.9855L39.1569 45.0913L39.9557 44.5198L40.7545 40.971L41.5534 42.0512L42.3522 43.0141L43.151 43.2824L43.9498 41.8058L44.7486 40.5897L45.5474 40.1797L46.3463 38.4036L47.1451 37.9933L47.9439 38.9766L48.7427 38.2701L49.5415 43.0355L50.3403 46.8701L51.1392 42.5156L51.938 40.3636L52.7368 44.977L53.5356 44.6794L54.3344 41.4087L55.1332 45.8685L55.9321 45.8207L56.7309 50L57.5297 46.6155L58.3285 47.3869L59.1273 43.9605L59.9261 45.7767L60.725 43.9015L61.5238 43.7523L62.3226 42.96L63.1214 44.9135L63.9202 41.102L64.719 42.0477L65.5179 43.6739L66.3167 42.1522L67.1155 40.2738L67.9143 40.9646L68.7131 38.8249L69.5119 38.4353L70.3108 38.4527L71.1096 39.9516L71.9084 39.3759L72.7072 37.4203L73.506 38.8216L74.3048 37.9924L75.1037 35.9362L75.9025 35.0775L76.7013 35.8516L77.5001 33.6901L78.2989 33.0021L79.0977 32.9121L79.8966 32.9698L80.6954 33.5571L81.4942 34.3352L82.293 32.2323L83.0918 32.2225L83.8906 35.2848L84.6894 35.2474L85.4883 33.2612L86.2871 32.2528L87.0859 31.0802L87.8847 31.8356L88.6835 31.2454L89.4823 29.2356L90.2812 30.4414L91.08 29.6834L91.8788 28.5751L92.6776 31.6318L93.4764 30.6502L94.2752 31.0128L95.0741 33.3349L95.8729 33.232L96.6717 35.0759L97.4705 36.1115L98.2693 36.8603L99.0681 35.6363L99.867 33.5223L100.666 34.1764L101.465 34.7039L102.263 32.6224L103.062 33.4056L103.861 34.5562L104.66 34.7143L105.459 34.6971L106.257 34.8683L107.056 34.0329L107.855 33.7214L108.654 32.466L109.453 32.3914L110.252 31.8324L111.05 30.1567L111.849 30.7345L112.648 27.5193L113.447 24.4776L114.246 26.3358L115.044 25.2959L115.843 23.4032L116.642 25.0384L117.441 25.14L118.24 27.5166L119.039 24.8062L119.837 24.0695L120.636 18.2113L121.435 18.7972L122.234 20.4409L123.033 19.6687L123.831 21.3905L124.63 22.6945L125.429 21.3763L126.228 21.3753L127.027 22.3873L127.826 24.926L128.624 27.847L129.423 24.7082L130.222 27.4799L131.021 25.0444L131.82 24.2364L132.618 23.8023L133.417 22.5451L134.216 27.3094" stroke="#FF3A33" stroke-width="1.25"/>
</g>
<defs>
<clipPath id="clip0_2_3706">
<rect width="135" height="50" fill="white" transform="translate(0.0148926)"/>
</clipPath>
</defs>
</svg>
