<svg width="136" height="50" viewBox="0 0 136 50" fill="none" xmlns="http://www.w3.org/2000/svg">
<g clip-path="url(#clip0_2_4746)">
<path d="M0.0148926 3.19586L0.813709 4.35524L1.61253 4.50566L2.41134 3.31006L3.21016 4.77203L4.00898 10.1493L4.80779 11.5997L5.60661 4.98173L6.40543 5.62854L7.20424 4.80234L8.00306 1.55901L8.80188 0.64072L9.60069 3.0068L10.3995 2.01455L11.1983 0.900614L11.9971 2.10983L12.796 0.395428L13.5948 0.13161L14.3936 0.154938L15.1924 0L15.9912 4.93189L16.79 15.3202L17.5889 25.4078L18.3877 33.6154L19.1865 30.635L19.9853 35.6607L20.7841 37.2094L21.5829 35.1006L22.3818 32.7852L23.1806 35.8047L23.9794 36.7664L24.7782 36.827L25.577 36.0909L26.3758 34.1797L27.1747 32.2321L27.9735 33.2434L28.7723 32.2532L29.5711 27.9825L30.3699 28.8761L31.1687 29.8101L31.9676 34.9522L32.7664 35.0073L33.5652 35.5879L34.364 35.4883L35.1628 32.5167L35.9616 34.2507L36.7605 30.6577L37.5593 33.3846L38.3581 35.8232L39.1569 42.6881L39.9557 38.4398L40.7545 38.5228L41.5534 39.2778L42.3522 38.0151L43.151 38.1831L43.9498 36.9362L44.7486 37.1605L45.5474 36.2117L46.3463 34.6146L47.1451 34.3436L47.9439 34.7938L48.7427 36.4722L49.5415 41.6889L50.3403 50L51.1392 42.3063L51.938 41.2599L52.7368 45.3506L53.5356 44.1892L54.3344 42.0513L55.1332 48.0432L55.9321 46.029L56.7309 49.7608L57.5297 46.5623L58.3285 47.2849L59.1273 45.7727L59.9261 48.9612L60.725 46.5122L61.5238 46.006L62.3226 46.1062L63.1214 47.9218L63.9202 44.262L64.719 45.8351L65.5179 46.9777L66.3167 46.7501L67.1155 45.2003L67.9143 44.7274L68.7131 42.2851L69.5119 41.3737L70.3108 40.7171L71.1096 40.0448L71.9084 38.525L72.7072 37.838L73.506 40.0702L74.3048 39.8734L75.1037 37.4191L75.9025 35.1571L76.7013 35.3162L77.5001 33.0953L78.2989 33.5261L79.0977 35.7932L79.8966 37.2544L80.6954 38.1091L81.4942 36.4152L82.293 35.8716L83.0918 37.2854L83.8906 38.2607L84.6894 39.991L85.4883 38.0664L86.2871 37.0524L87.0859 35.3246L87.8847 36.8889L88.6835 36.2847L89.4823 35.5423L90.2812 38.0396L91.08 37.4511L91.8788 36.0821L92.6776 38.6593L93.4764 39.0342L94.2752 38.3077L95.0741 42.6662L95.8729 41.5112L96.6717 43.2587L97.4705 44.5446L98.2693 46.4971L99.0681 44.6942L99.867 41.9654L100.666 43.3437L101.465 44.4552L102.263 41.719L103.062 43.5235L103.861 44.2563L104.66 44.6988L105.459 43.685L106.257 43.3981L107.056 42.8817L107.855 41.9138L108.654 41.2651L109.453 41.5708L110.252 40.5226L111.05 39.5722L111.849 39.4292L112.648 34.9995L113.447 33.4813L114.246 33.2844L115.044 35.8034L115.843 34.9623L116.642 35.4198L117.441 34.8293L118.24 36.7187L119.039 34.2388L119.837 31.0986L120.636 23.1281L121.435 24.1962L122.234 18.9989L123.033 19.1262L123.831 21.0023L124.63 21.8892L125.429 20.0405L126.228 19.5088L127.027 21.1369L127.826 27.4903L128.624 30.6379L129.423 25.1527L130.222 26.3815L131.021 20.2878L131.82 15.8743L132.618 15.2556L133.417 15.51L134.216 20.8645" stroke="#FF3A33" stroke-width="1.25"/>
</g>
<defs>
<clipPath id="clip0_2_4746">
<rect width="135" height="50" fill="white" transform="translate(0.0148926)"/>
</clipPath>
</defs>
</svg>
