<svg width="136" height="50" viewBox="0 0 136 50" fill="none" xmlns="http://www.w3.org/2000/svg">
<g clip-path="url(#clip0_8_818)">
<path d="M0.0148926 6.45946L0.813709 8.95765L1.61253 7.85917L2.41134 5.35369L3.21016 6.04812L4.00898 7.20161L4.80779 7.18148L5.60661 4.33413L6.40543 4.45556L7.20424 4.78466L8.00306 3.06671L8.80188 1.45145L9.60069 1.31932L10.3995 0L11.1983 0.646173L11.9971 1.01789L12.796 2.21236L13.5948 1.5898L14.3936 2.93517L15.1924 4.13066L15.9912 11.1574L16.79 15.2404L17.5889 19.1635L18.3877 21.1684L19.1865 21.4999L19.9853 22.7298L20.7841 24.2815L21.5829 29.8807L22.3818 26.9453L23.1806 29.5423L23.9794 29.2268L24.7782 28.2867L25.577 25.5613L26.3758 23.6542L27.1747 24.4525L27.9735 24.691L28.7723 25.4679L29.5711 24.5834L30.3699 25.5179L31.1687 25.4761L31.9676 29.7493L32.7664 29.8986L33.5652 29.3704L34.364 32.7216L35.1628 28.971L35.9616 31.0094L36.7605 25.9581L37.5593 30.2867L38.3581 30.3187L39.1569 38.7677L39.9557 41.7325L40.7545 41.1628L41.5534 41.3069L42.3522 40.5738L43.151 42.6281L43.9498 41.6657L44.7486 38.8804L45.5474 39.3397L46.3463 38.0564L47.1451 38.3585L47.9439 39.5572L48.7427 39.0618L49.5415 42.7369L50.3403 46.862L51.1392 44.2876L51.938 42.0604L52.7368 44.492L53.5356 44.3995L54.3344 43.1181L55.1332 50L55.9321 46.2398L56.7309 49.0209L57.5297 45.9775L58.3285 45.8052L59.1273 44.4665L59.9261 47.1389L60.725 44.7795L61.5238 44.6469L62.3226 44.778L63.1214 45.6769L63.9202 40.6668L64.719 42.6577L65.5179 41.9753L66.3167 41.3891L67.1155 40.3337L67.9143 40.7236L68.7131 40.1894L69.5119 40.1403L70.3108 40.5353L71.1096 41.0298L71.9084 39.6027L72.7072 38.7408L73.506 41.4699L74.3048 42.5746L75.1037 34.887L75.9025 31.8818L76.7013 35.5079L77.5001 32.7637L78.2989 32.9437L79.0977 33.1419L79.8966 33.6545L80.6954 35.2397L81.4942 34.5869L82.293 33.9414L83.0918 34.6716L83.8906 37.8124L84.6894 37.3864L85.4883 36.3948L86.2871 34.7697L87.0859 33.5721L87.8847 34.9739L88.6835 34.5026L89.4823 33.7857L90.2812 34.1162L91.08 34.4222L91.8788 34.2516L92.6776 35.9964L93.4764 35.4766L94.2752 35.3132L95.0741 36.7231L95.8729 35.9342L96.6717 37.1166L97.4705 38.1521L98.2693 38.2179L99.0681 36.2832L99.867 34.8702L100.666 35.1002L101.465 35.9778L102.263 34.2751L103.062 35.0208L103.861 35.3753L104.66 35.2048L105.459 34.8586L106.257 35.094L107.056 34.8358L107.855 34.2481L108.654 34.1921L109.453 34.4361L110.252 33.1011L111.05 32.18L111.849 33.2807L112.648 30.0722L113.447 29.6156L114.246 31.9544L115.044 31.2746L115.843 29.6163L116.642 31.1364L117.441 31.6689L118.24 34.0523L119.039 32.5707L119.837 31.4832L120.636 23.832L121.435 21.8525L122.234 21.9581L123.033 22.6425L123.831 24.3951L124.63 24.7438L125.429 23.8566L126.228 24.3439L127.027 25.1628L127.826 29.42L128.624 31.5958L129.423 27.052L130.222 27.4292L131.021 25.959L131.82 24.821L132.618 26.0149L133.417 26.1592L134.216 34.0632" stroke="#FF3A33" stroke-width="1.25"/>
</g>
<defs>
<clipPath id="clip0_8_818">
<rect width="135" height="50" fill="white" transform="translate(0.0148926)"/>
</clipPath>
</defs>
</svg>
