<svg width="136" height="50" viewBox="0 0 136 50" fill="none" xmlns="http://www.w3.org/2000/svg">
<g clip-path="url(#clip0_2_4280)">
<path d="M0.0148926 5.27395L0.813709 4.83316L1.61253 3.66953L2.41134 1.08385L3.21016 4.17505L4.00898 7.46304L4.80779 8.49224L5.60661 4.4345L6.40543 5.42644L7.20424 4.40511L8.00306 2.61928L8.80188 0L9.60069 2.18761L10.3995 1.87822L11.1983 1.9312L11.9971 2.69493L12.796 2.84307L13.5948 3.64925L14.3936 5.03401L15.1924 5.49019L15.9912 11.2848L16.79 16.6451L17.5889 21.5401L18.3877 23.2224L19.1865 25.8849L19.9853 24.8201L20.7841 26.5067L21.5829 27.9312L22.3818 26.9015L23.1806 28.9174L23.9794 29.6469L24.7782 28.6896L25.577 25.6046L26.3758 24.7179L27.1747 26.5705L27.9735 27.4914L28.7723 27.2014L29.5711 26.4131L30.3699 26.7952L31.1687 26.374L31.9676 30.6616L32.7664 31.0668L33.5652 32.4649L34.364 35.1263L35.1628 32.9279L35.9616 36.949L36.7605 35.015L37.5593 40.493L38.3581 40.1717L39.1569 44.2294L39.9557 43.0073L40.7545 43.049L41.5534 42.7185L42.3522 42.685L43.151 43.5503L43.9498 42.7006L44.7486 42.0821L45.5474 42.6087L46.3463 41.0474L47.1451 41.4708L47.9439 43.0698L48.7427 42.7142L49.5415 45.6338L50.3403 50L51.1392 45.4492L51.938 43.7009L52.7368 44.6693L53.5356 45.1263L54.3344 45.6623L55.1332 47.1096L55.9321 45.6995L56.7309 49.2524L57.5297 46.193L58.3285 46.5812L59.1273 45.1966L59.9261 47.1334L60.725 46.0395L61.5238 44.4843L62.3226 46.0505L63.1214 46.2133L63.9202 44.1514L64.719 46.3934L65.5179 45.8487L66.3167 46.1974L67.1155 44.8818L67.9143 46.0933L68.7131 45.6796L69.5119 44.7699L70.3108 45.5251L71.1096 47.651L71.9084 47.6037L72.7072 45.7518L73.506 46.8367L74.3048 46.9957L75.1037 42.2245L75.9025 40.6782L76.7013 42.2863L77.5001 40.1048L78.2989 40.122L79.0977 40.1213L79.8966 40.6681L80.6954 40.9679L81.4942 40.8248L82.293 39.1173L83.0918 39.1228L83.8906 41.0808L84.6894 40.6593L85.4883 39.3332L86.2871 37.798L87.0859 37.1538L87.8847 38.2483L88.6835 37.3063L89.4823 37.5613L90.2812 39.1889L91.08 38.7162L91.8788 38.1819L92.6776 40.5247L93.4764 40.0052L94.2752 40.8976L95.0741 42.7237L95.8729 41.2749L96.6717 42.3769L97.4705 44.019L98.2693 44.0649L99.0681 42.9323L99.867 42.014L100.666 42.0912L101.465 41.6257L102.263 39.6279L103.062 40.5583L103.861 41.6782L104.66 41.9575L105.459 41.1514L106.257 41.1046L107.056 41.7835L107.855 41.4724L108.654 41.1164L109.453 41.8964L110.252 40.202L111.05 39.7738L111.849 40.6686L112.648 38.6778L113.447 38.2562L114.246 39.9738L115.044 40.3414L115.843 38.9241L116.642 39.5865L117.441 38.8349L118.24 40.4461L119.039 38.1045L119.837 37.2873L120.636 33.7898L121.435 31.0101L122.234 30.835L123.033 31.5756L123.831 33.586L124.63 33.7352L125.429 32.7923L126.228 33.7818L127.027 33.7094L127.826 35.1808L128.624 36.1709L129.423 35.941L130.222 35.3139L131.021 33.0461L131.82 32.9899L132.618 33.8351L133.417 32.3763L134.216 35.9272" stroke="#FF3A33" stroke-width="1.25"/>
</g>
<defs>
<clipPath id="clip0_2_4280">
<rect width="135" height="50" fill="white" transform="translate(0.0148926)"/>
</clipPath>
</defs>
</svg>
