<svg width="136" height="50" viewBox="0 0 136 50" fill="none" xmlns="http://www.w3.org/2000/svg">
<g clip-path="url(#clip0_8_889)">
<path d="M0.0148926 9.66105L0.813709 10.3475L1.61253 9.78585L2.41134 8.06026L3.21016 9.45507L4.00898 12.5168L4.80779 15.181L5.60661 10.6521L6.40543 9.47013L7.20424 9.31479L8.00306 5.428L8.80188 1.32865L9.60069 1.26286L10.3995 0L11.1983 0.36552L11.9971 1.52607L12.796 3.65496L13.5948 2.16142L14.3936 4.3102L15.1924 4.43944L15.9912 15.4229L16.79 24.8836L17.5889 22.1842L18.3877 29.9401L19.1865 31.4567L19.9853 34.6914L20.7841 37.2976L21.5829 41.9353L22.3818 35.9349L23.1806 36.6946L23.9794 37.4469L24.7782 35.4655L25.577 30.9537L26.3758 30.0283L27.1747 30.4107L27.9735 30.3492L28.7723 31.4799L29.5711 28.9179L30.3699 28.366L31.1687 28.4024L31.9676 36.5016L32.7664 41.2639L33.5652 38.5955L34.364 44.093L35.1628 38.2346L35.9616 38.9712L36.7605 36.5455L37.5593 37.1969L38.3581 38.6087L39.1569 47.7028L39.9557 45.8215L40.7545 42.9764L41.5534 41.5543L42.3522 40.773L43.151 43.4625L43.9498 40.971L44.7486 38.2915L45.5474 38.3258L46.3463 35.7008L47.1451 35.6293L47.9439 36.1231L48.7427 35.5495L49.5415 42.447L50.3403 45.0793L51.1392 42.8822L51.938 44.3896L52.7368 47.5744L53.5356 46.0235L54.3344 44.1559L55.1332 50L55.9321 44.9065L56.7309 44.402L57.5297 43.7108L58.3285 41.2828L59.1273 40.1916L59.9261 44.353L60.725 40.836L61.5238 40.805L62.3226 40.467L63.1214 42.4569L63.9202 35.7861L64.719 38.8129L65.5179 38.0316L66.3167 37.1528L67.1155 35.6617L67.9143 36.7989L68.7131 34.5084L69.5119 32.2245L70.3108 33.8869L71.1096 32.6476L71.9084 31.4759L72.7072 28.9928L73.506 34.9029L74.3048 31.9951L75.1037 31.703L75.9025 27.4537L76.7013 30.9404L77.5001 27.3171L78.2989 26.6236L79.0977 26.6705L79.8966 28.3966L80.6954 29.761L81.4942 28.0852L82.293 26.9592L83.0918 27.5722L83.8906 32.03L84.6894 30.5223L85.4883 27.2322L86.2871 26.0829L87.0859 23.2366L87.8847 20.5993L88.6835 19.4431L89.4823 20.4008L90.2812 21.7893L91.08 22.5296L91.8788 20.6371L92.6776 22.5386L93.4764 21.1499L94.2752 19.6666L95.0741 22.4324L95.8729 21.3045L96.6717 21.5482L97.4705 24.0816L98.2693 25.0228L99.0681 21.7103L99.867 20.0934L100.666 21.4055L101.465 21.3132L102.263 17.2361L103.062 18.7005L103.861 21.6436L104.66 21.3625L105.459 20.9959L106.257 20.9232L107.056 21.1696L107.855 21.1592L108.654 20.1437L109.453 22.1574L110.252 20.986L111.05 19.0141L111.849 19.8285L112.648 15.6576L113.447 14.8712L114.246 17.0564L115.044 16.5355L115.843 15.6751L116.642 17.643L117.441 15.7653L118.24 20.0789L119.039 15.9896L119.837 12.4077L120.636 6.23316L121.435 5.60793L122.234 7.46475L123.033 9.15035L123.831 9.63713L124.63 9.11403L125.429 4.9775L126.228 6.34602L127.027 6.83312L127.826 10.4368L128.624 14.3953L129.423 11.3649L130.222 10.9781L131.021 6.83924L131.82 4.3233L132.618 9.49523L133.417 6.86825L134.216 15.3291" stroke="#FF3A33" stroke-width="1.25"/>
</g>
<defs>
<clipPath id="clip0_8_889">
<rect width="135" height="50" fill="white" transform="translate(0.0148926)"/>
</clipPath>
</defs>
</svg>
