<svg width="136" height="50" viewBox="0 0 136 50" fill="none" xmlns="http://www.w3.org/2000/svg">
<g clip-path="url(#clip0_2_4603)">
<path d="M0.0148926 4.12304L0.813709 1.4606L1.61253 4.65659L2.41134 4.67385L3.21016 6.53189L4.00898 10.2392L4.80779 12.1867L5.60661 8.63272L6.40543 9.11379L7.20424 8.45067L8.00306 4.40534L8.80188 4.39681L9.60069 4.62822L10.3995 2.66133L11.1983 2.6436L11.9971 2.27119L12.796 1.23088L13.5948 0L14.3936 2.32174L15.1924 4.08946L15.9912 9.03096L16.79 19.6676L17.5889 18.8134L18.3877 27.5909L19.1865 28.3882L19.9853 33.1236L20.7841 34.896L21.5829 34.5887L22.3818 33.8967L23.1806 34.003L23.9794 32.4588L24.7782 32.4708L25.577 31.3932L26.3758 30.4369L27.1747 30.942L27.9735 31.4369L28.7723 31.7702L29.5711 27.269L30.3699 29.0729L31.1687 28.7329L31.9676 32.9214L32.7664 35.6048L33.5652 33.4158L34.364 33.8332L35.1628 31.0179L35.9616 33.6027L36.7605 29.8558L37.5593 34.9153L38.3581 38.2454L39.1569 43.7431L39.9557 40.856L40.7545 38.3915L41.5534 39.2212L42.3522 37.9965L43.151 39.5022L43.9498 37.833L44.7486 36.8469L45.5474 36.3584L46.3463 35.3901L47.1451 35.9595L47.9439 37.3366L48.7427 37.4916L49.5415 41.399L50.3403 46.1443L51.1392 42.538L51.938 40.5476L52.7368 42.7486L53.5356 44.7332L54.3344 44.2113L55.1332 47.6305L55.9321 46.0144L56.7309 50L57.5297 46.012L58.3285 46.006L59.1273 43.9573L59.9261 46.8873L60.725 44.7437L61.5238 43.8207L62.3226 44.735L63.1214 45.073L63.9202 40.8309L64.719 43.1319L65.5179 42.5842L66.3167 41.5837L67.1155 39.929L67.9143 41.8194L68.7131 41.0254L69.5119 40.1314L70.3108 41.6696L71.1096 42.1573L71.9084 40.8626L72.7072 39.5559L73.506 41.8347L74.3048 41.7693L75.1037 39.2003L75.9025 37.6499L76.7013 38.2279L77.5001 37.11L78.2989 36.9124L79.0977 37.4961L79.8966 38.1228L80.6954 38.4225L81.4942 37.3708L82.293 36.3201L83.0918 36.2947L83.8906 38.8566L84.6894 39.2879L85.4883 38.4543L86.2871 36.4974L87.0859 36.2183L87.8847 36.9329L88.6835 35.6952L89.4823 35.6864L90.2812 37.0986L91.08 36.4043L91.8788 35.8247L92.6776 37.4489L93.4764 37.8542L94.2752 37.6608L95.0741 41.3293L95.8729 40.0366L96.6717 42.6265L97.4705 44.0802L98.2693 45.4397L99.0681 43.1745L99.867 40.8446L100.666 41.3354L101.465 42.0109L102.263 39.0734L103.062 39.9451L103.861 41.3894L104.66 41.6122L105.459 41.3226L106.257 41.1854L107.056 40.6195L107.855 40.1329L108.654 39.0648L109.453 39.6124L110.252 37.5496L111.05 36.7256L111.849 36.4459L112.648 31.0653L113.447 28.3218L114.246 29.734L115.044 31.7521L115.843 29.6432L116.642 31.3127L117.441 30.4909L118.24 32.3941L119.039 28.4557L119.837 27.6815L120.636 22.8715L121.435 19.4991L122.234 21.5198L123.033 21.3102L123.831 22.749L124.63 23.2187L125.429 21.2731L126.228 21.4548L127.027 22.1541L127.826 24.9645L128.624 29.2861L129.423 26.694L130.222 25.4309L131.021 20.56L131.82 18.0951L132.618 19.2593L133.417 16.7204L134.216 21.6003" stroke="#FF3A33" stroke-width="1.25"/>
</g>
<defs>
<clipPath id="clip0_2_4603">
<rect width="135" height="50" fill="white" transform="translate(0.0148926)"/>
</clipPath>
</defs>
</svg>
