<svg width="136" height="50" viewBox="0 0 136 50" fill="none" xmlns="http://www.w3.org/2000/svg">
<g clip-path="url(#clip0_2_1440)">
<path d="M0.0148926 17.593L0.813709 9.95925L1.61253 21.0071L2.41134 21.5305L3.21016 21.4013L4.00898 26.3183L4.80779 18.8229L5.60661 19.0965L6.40543 24.627L7.20424 21.605L8.00306 21.6111L8.80188 21.5792L9.60069 20.3486L10.3995 22.9136L11.1983 21.0696L11.9971 20.9193L12.796 27.091L13.5948 20.6324L14.3936 17.9263L15.1924 21.713L15.9912 18.4883L16.79 19.9265L17.5889 26.953L18.3877 13.2268L19.1865 17.8909L19.9853 27.4008L20.7841 29.6389L21.5829 22.4508L22.3818 39.1521L23.1806 16.2435L23.9794 14.5894L24.7782 23.0706L25.577 18.6052L26.3758 22.6264L27.1747 23.5182L27.9735 23.714L28.7723 18.506L29.5711 22.8252L30.3699 22.2919L31.1687 21.6474L31.9676 24.2469L32.7664 28.3397L33.5652 24.2558L34.364 22.9396L35.1628 5.34235L35.9616 38.3573L36.7605 22.2678L37.5593 36.0594L38.3581 19.6062L39.1569 21.9065L39.9557 5.53632L40.7545 19.3887L41.5534 25.4109L42.3522 22.3395L43.151 23.6225L43.9498 12.1003L44.7486 29.2691L45.5474 24.2422L46.3463 23.2088L47.1451 19.2225L47.9439 18.9975L48.7427 19.9902L49.5415 25.0676L50.3403 31.2317L51.1392 17.1123L51.938 15.8845L52.7368 43.24L53.5356 19.8792L54.3344 0L55.1332 24.7711L55.9321 18.4517L56.7309 25.8789L57.5297 21.0841L58.3285 32.4724L59.1273 16.6501L59.9261 21.1664L60.725 17.1325L61.5238 26.093L62.3226 19.4537L63.1214 11.5162L63.9202 15.7958L64.719 25.6558L65.5179 15.5425L66.3167 15.2029L67.1155 23.4982L67.9143 19.1798L68.7131 25.0384L69.5119 21.5482L70.3108 17.5801L71.1096 21.8973L71.9084 19.6821L72.7072 24.0973L73.506 31.381L74.3048 19.1405L75.1037 22.3724L75.9025 17.5205L76.7013 20.4605L77.5001 22.9662L78.2989 11.4637L79.0977 19.4941L79.8966 21.1227L80.6954 19.7483L81.4942 15.2777L82.293 26.8924L83.0918 22.6371L83.8906 26.5105L84.6894 24.1675L85.4883 15.4754L86.2871 19.0939L87.0859 22.2416L87.8847 21.4251L88.6835 19.4501L89.4823 18.7314L90.2812 21.0741L91.08 21.4665L91.8788 18.7302L92.6776 19.3812L93.4764 20.4523L94.2752 18.6449L95.0741 23.6827L95.8729 25.2991L96.6717 19.9748L97.4705 23.3717L98.2693 20.9396L99.0681 12.8704L99.867 21.9415L100.666 23.9361L101.465 20.377L102.263 15.3765L103.062 18.7613L103.861 20.8175L104.66 17.7612L105.459 20.9006L106.257 19.3116L107.056 20.539L107.855 19.9049L108.654 20.7903L109.453 19.1604L110.252 20.6458L111.05 14.3002L111.849 22.1103L112.648 26.4727L113.447 11.8163L114.246 19.4355L115.044 24.013L115.843 13.9997L116.642 15.5541L117.441 18.0223L118.24 16.331L119.039 9.22853L119.837 22.8597L120.636 16.4933L121.435 22.0332L122.234 19.5006L123.033 17.8363L123.831 20.1896L124.63 21.042L125.429 20.3485L126.228 16.4474L127.027 27.5584L127.826 23.6493L128.624 28.2084L129.423 28.0322L130.222 18.8615L131.021 20.3407L131.82 49.9224L132.618 15.3967L133.417 27.5037L134.216 50" stroke="#FF3A33" stroke-width="1.25"/>
</g>
<defs>
<clipPath id="clip0_2_1440">
<rect width="135" height="50" fill="white" transform="translate(0.0148926)"/>
</clipPath>
</defs>
</svg>
