<svg width="136" height="50" viewBox="0 0 136 50" fill="none" xmlns="http://www.w3.org/2000/svg">
<g clip-path="url(#clip0_2_4854)">
<path d="M0.0148926 8.89952L0.818464 8.28813L1.62204 5.63125L2.42561 5.96192L3.22918 7.96151L4.03275 7.69557L4.83632 4.92198L5.63989 5.04695L6.44346 4.94118L7.24704 3.44759L8.05061 1.86947L8.85418 1.69001L9.65775 0L10.4613 0.386013L11.2649 0.981921L12.0685 2.00734L12.872 1.95836L13.6756 3.05747L14.4792 4.35835L15.2828 10.7059L16.0863 16.778L16.8899 18.3082L17.6935 23.0416L18.497 21.9653L19.3006 22.8621L20.1042 26.0719L20.9077 29.9615L21.7113 28.0082L22.5149 30.3556L23.3185 29.5846L24.122 27.3452L24.9256 25.9403L25.7292 23.9965L26.5327 24.1775L27.3363 26.089L28.1399 25.8212L28.9435 25.0314L29.747 26.0594L30.5506 25.9983L31.3542 30.266L32.1577 29.5148L32.9613 30.0746L33.7649 32.0046L34.5685 29.9739L35.372 31.1126L36.1756 27.3714L36.9792 29.3447L37.7827 31.1082L38.5863 37.403L39.3899 41.0753L40.1935 40.2677L40.997 40.8323L41.8006 41.132L42.6042 43.9513L43.4077 40.9749L44.2113 39.8024L45.0149 39.9457L45.8185 39.3488L46.622 38.3876L47.4256 40.459L48.2292 39.6422L49.0327 43.1758L49.8363 47.5336L50.6399 45.4924L51.4435 43.5205L52.247 46.2304L53.0506 45.2877L53.8542 46.8122L54.6577 50L55.4613 46.959L56.2649 49.794L57.0685 46.5284L57.872 46.5116L58.6756 45.1834L59.4792 46.7419L60.2827 45.7829L61.0863 45.5273L61.8899 45.8355L62.6935 46.3579L63.497 41.5771L64.3006 42.4147L65.1042 42.9501L65.9078 41.8797L66.7113 40.9845L67.5149 41.203L68.3185 41.0566L69.122 40.8043L69.9256 40.9809L70.7292 41.5705L71.5328 40.1509L72.3363 39.6026L73.1399 42.8004L73.9435 42.9278L74.747 38.2985L75.5506 33.0623L76.3542 35.4854L77.1578 33.5657L77.9613 33.5732L78.7649 33.5391L79.5685 34.336L80.372 35.4286L81.1756 35.2929L81.9792 34.3868L82.7828 35.295L83.5863 37.9783L84.3899 37.5299L85.1935 36.7526L85.997 35.4464L86.8006 34.5361L87.6042 35.1698L88.4078 34.6812L89.2113 34.1882L90.0149 34.6737L90.8185 34.8829L91.622 34.5654L92.4256 35.8982L93.2292 35.8824L94.0328 35.6612L94.8363 36.8753L95.6399 36.1473L96.4435 37.6095L97.247 38.3619L98.0506 38.4969L98.8542 36.6148L99.6578 35.2923L100.461 35.7131L101.265 36.5138L102.068 35.1615L102.872 35.2062L103.676 35.5011L104.479 35.7521L105.283 35.1279L106.086 35.3119L106.89 34.9208L107.693 34.4812L108.497 34.058L109.301 34.5346L110.104 33.3329L110.908 33.3123L111.711 33.2434L112.515 30.2037L113.318 29.8303L114.122 31.7373L114.926 31.3139L115.729 30.3263L116.533 31.208L117.336 31.715L118.14 34.1407L118.943 32.9889L119.747 31.569L120.551 24.9712L121.354 23.3906L122.158 21.9235L122.961 23.1212L123.765 23.9626L124.568 24.8407L125.372 23.6197L126.176 25.1984L126.979 25.9861L127.783 29.3381L128.586 30.3509L129.39 28.2225L130.193 27.4652L130.997 24.7008L131.801 23.9976L132.604 26.6369L133.408 25.8357L134.211 31.9992" stroke="#FF3A33" stroke-width="1.25"/>
</g>
<defs>
<clipPath id="clip0_2_4854">
<rect width="135" height="50" fill="white" transform="translate(0.0148926)"/>
</clipPath>
</defs>
</svg>
