<svg width="11" height="14" viewBox="0 0 11 14" fill="none" xmlns="http://www.w3.org/2000/svg">
<path d="M9.25 8.875H4.75C4.51562 8.85937 4.39063 8.73438 4.375 8.5V2.5C4.39063 2.26562 4.51562 2.14063 4.75 2.125H8.03125L9.625 3.71875V8.5C9.60937 8.73438 9.48438 8.85937 9.25 8.875ZM4.75 10H9.25C9.67188 9.98437 10.0234 9.83594 10.3047 9.55469C10.5859 9.27344 10.7344 8.92188 10.75 8.5V3.71875C10.75 3.40625 10.6406 3.14062 10.4219 2.92188L8.82812 1.32812C8.60938 1.10938 8.34375 1 8.03125 1H4.75C4.32812 1.01563 3.97656 1.16406 3.69531 1.44531C3.41406 1.72656 3.26563 2.07812 3.25 2.5V8.5C3.26563 8.92188 3.41406 9.27344 3.69531 9.55469C3.97656 9.83594 4.32812 9.98437 4.75 10ZM1.75 4C1.32812 4.01563 0.976562 4.16406 0.695312 4.44531C0.414062 4.72656 0.265625 5.07812 0.25 5.5V11.5C0.265625 11.9219 0.414062 12.2734 0.695312 12.5547C0.976562 12.8359 1.32812 12.9844 1.75 13H6.25C6.67188 12.9844 7.02344 12.8359 7.30469 12.5547C7.58594 12.2734 7.73437 11.9219 7.75 11.5V10.75H6.625V11.5C6.60937 11.7344 6.48438 11.8594 6.25 11.875H1.75C1.51562 11.8594 1.39063 11.7344 1.375 11.5V5.5C1.39063 5.26562 1.51562 5.14063 1.75 5.125H2.5V4H1.75Z" fill="#0F172A"/>
</svg>
