<svg width="136" height="50" viewBox="0 0 136 50" fill="none" xmlns="http://www.w3.org/2000/svg">
<g clip-path="url(#clip0_2_4459)">
<path d="M0.0148926 9.79016L0.813709 8.83241L1.61253 7.44436L2.41134 7.4098L3.21016 9.97707L4.00898 11.0942L4.80779 8.05149L5.60661 8.98659L6.40543 9.45503L7.20424 4.49362L8.00306 2.34895L8.80188 3.96445L9.60069 1.27201L10.3995 0L11.1983 3.12386L11.9971 2.5506L12.796 1.20438L13.5948 4.00471L14.3936 7.34638L15.1924 14.6044L15.9912 32.1558L16.79 23.3587L17.5889 29.6905L18.3877 31.0111L19.1865 33.0895L19.9853 37.9556L20.7841 38.0716L21.5829 34.3091L22.3818 38.5227L23.1806 37.803L23.9794 36.4021L24.7782 32.9077L25.577 29.9018L26.3758 30.5047L27.1747 22.8718L27.9735 27.0528L28.7723 22.6624L29.5711 23.5224L30.3699 24.1029L31.1687 31.4548L31.9676 33.1002L32.7664 34.2118L33.5652 33.9898L34.364 29.1782L35.1628 32.7495L35.9616 25.3509L36.7605 30.7113L37.5593 29.27L38.3581 40.0568L39.1569 38.0152L39.9557 34.8576L40.7545 35.4857L41.5534 36.1461L42.3522 37.8731L43.151 35.0751L43.9498 33.1028L44.7486 34.1675L45.5474 32.8041L46.3463 34.3544L47.1451 36.3499L47.9439 35.6879L48.7427 40.7143L49.5415 46.3734L50.3403 40.3754L51.1392 39.4733L51.938 42.6797L52.7368 44.3098L53.5356 41.1522L54.3344 45.3702L55.1332 44.8011L55.9321 47.5297L56.7309 46.0534L57.5297 48.4246L58.3285 45.9022L59.1273 48.9822L59.9261 45.971L60.725 45.5731L61.5238 49.2526L62.3226 50L63.1214 45.1005L63.9202 46.4358L64.719 46.8839L65.5179 45.8005L66.3167 42.8546L67.1155 42.8493L67.9143 41.6096L68.7131 38.8412L69.5119 42.6276L70.3108 42.0961L71.1096 40.8826L71.9084 37.6375L72.7072 38.6174L73.506 37.2075L74.3048 34.8672L75.1037 30.3601L75.9025 31.9787L76.7013 29.6963L77.5001 30.2175L78.2989 31.2612L79.0977 32.8106L79.8966 34.7216L80.6954 35.2005L81.4942 33.9814L82.293 35.6452L83.0918 38.4798L83.8906 38.239L84.6894 37.3939L85.4883 35.701L86.2871 34.2062L87.0859 35.6208L87.8847 33.978L88.6835 35.8327L89.4823 37.3805L90.2812 37.0765L91.08 35.1827L91.8788 36.9674L92.6776 36.3185L93.4764 35.4672L94.2752 40.0455L95.0741 39.5479L95.8729 42.0893L96.6717 43.7876L97.4705 45.133L98.2693 43.4483L99.0681 41.7487L99.867 41.7074L100.666 42.2396L101.465 40.3453L102.263 41.9668L103.062 42.9039L103.861 44.163L104.66 43.2871L105.459 43.4715L106.257 43.8902L107.056 43.1737L107.855 42.3397L108.654 43.1623L109.453 40.4376L110.252 40.8485L111.05 41.5229L111.849 35.3405L112.648 33.9331L113.447 34.6378L114.246 34.5329L115.044 33.4739L115.843 35.0946L116.642 35.316L117.441 37.3045L118.24 34.6135L119.039 33.1042L119.837 25.6836L120.636 24.0859L121.435 23.5L122.234 23.1913L123.033 25.2755L123.831 26.0744L124.63 24.0926L125.429 23.6362L126.228 21.3136L127.027 24.615L127.826 28.283L128.624 23.6176L129.423 24.0877L130.222 20.286L131.021 20.4501L131.82 16.4874L132.618 13.3623L133.417 15.1723L134.216 22.6319" stroke="#FF3A33" stroke-width="1.25"/>
</g>
<defs>
<clipPath id="clip0_2_4459">
<rect width="135" height="50" fill="white" transform="translate(0.0148926)"/>
</clipPath>
</defs>
</svg>
