<svg width="136" height="51" viewBox="0 0 136 51" fill="none" xmlns="http://www.w3.org/2000/svg">
<g clip-path="url(#clip0_9_864)">
<path d="M0.0148926 22.2742L0.813709 21.6045L1.61253 20.7156L2.41134 20.3879L3.21016 27.8246L4.00898 21.8914L4.80779 19.7647L5.60661 19.2964L6.40543 18.3505L7.20424 19.233L8.00306 23.7617L8.80188 19.3912L9.60069 20.9965L10.3995 17.9323L11.1983 21.0974L11.9971 24.0017L12.796 20.892L13.5948 18.737L14.3936 22.5206L15.1924 21.738L15.9912 20.3633L16.79 24.0246L17.5889 7.1934L18.3877 5.25106L19.1865 23.7798L19.9853 30.3954L20.7841 18.7961L21.5829 33.8528L22.3818 15.4144L23.1806 23.9213L23.9794 20.4979L24.7782 21.4306L25.577 16.2559L26.3758 21.5311L27.1747 16.4223L27.9735 17.9171L28.7723 22.0014L29.5711 23.8407L30.3699 21.2442L31.1687 24.1491L31.9676 50.5L32.7664 22.1192L33.5652 24.5086L34.364 17.3206L35.1628 32.9091L35.9616 14.0357L36.7605 27.786L37.5593 28.9254L38.3581 22.5536L39.1569 1.01484L39.9557 19.8746L40.7545 17.9918L41.5534 21.9546L42.3522 23.3328L43.151 11.5471L43.9498 13.1148L44.7486 29.3821L45.5474 22.8317L46.3463 20.1202L47.1451 19.6744L47.9439 21.3508L48.7427 20.7205L49.5415 25.3008L50.3403 20.7535L51.1392 17.0096L51.938 20.3666L52.7368 21.0875L53.5356 18.078L54.3344 27.4727L55.1332 18.9247L55.9321 21.3724L56.7309 19.6795L57.5297 20.6178L58.3285 19.9779L59.1273 32.2768L59.9261 19.27L60.725 24.6381L61.5238 21.4048L62.3226 16.6018L63.1214 18.2081L63.9202 21.7019L64.719 21.9956L65.5179 19.5059L66.3167 25.6211L67.1155 20.6443L67.9143 20.6829L68.7131 19.0792L69.5119 20.8537L70.3108 21.6863L71.1096 21.7492L71.9084 6.78264L72.7072 26.5294L73.506 19.7038L74.3048 26.0525L75.1037 16.2145L75.9025 20.966L76.7013 21.4228L77.5001 23.2447L78.2989 24.703L79.0977 23.7042L79.8966 21.9177L80.6954 18.0634L81.4942 18.0323L82.293 19.3151L83.0918 27.837L83.8906 21.7929L84.6894 18.4754L85.4883 22.1614L86.2871 22.2818L87.0859 20.2183L87.8847 20.5063L88.6835 21.7149L89.4823 21.5171L90.2812 22.41L91.08 22.3027L91.8788 20.6717L92.6776 21.3692L93.4764 22.3675L94.2752 25.9761L95.0741 26.3928L95.8729 21.4168L96.6717 23.829L97.4705 21.4581L98.2693 18.8779L99.0681 19.8926L99.867 23.4953L100.666 21.6864L101.465 21.7438L102.263 20.0841L103.062 21.913L103.861 18.9172L104.66 20.9176L105.459 20.4688L106.257 21.3692L107.056 21.09L107.855 21.9067L108.654 21.1386L109.453 17.6696L110.252 17.7876L111.05 21.6749L111.849 23.9224L112.648 12.6754L113.447 21.7839L114.246 24.561L115.044 15.98L115.843 17.5453L116.642 20.2796L117.441 25.339L118.24 14.451L119.039 20.6269L119.837 17.3282L120.636 20.2702L121.435 24.6907L122.234 17.6562L123.033 16.5414L123.831 14.7011L124.63 20.6796L125.429 20.0247L126.228 23.6317L127.027 22.8285L127.826 25.5444L128.624 0.5L129.423 18.0391L130.222 20.0896L131.021 43.9684L131.82 27.6468L132.618 16.8031L133.417 16.4084L134.216 26.8095" stroke="#FF3A33" stroke-width="1.25"/>
</g>
<defs>
<clipPath id="clip0_9_864">
<rect width="135" height="50" fill="white" transform="translate(0.0148926 0.5)"/>
</clipPath>
</defs>
</svg>
