<svg width="136" height="50" viewBox="0 0 136 50" fill="none" xmlns="http://www.w3.org/2000/svg">
<g clip-path="url(#clip0_2_3778)">
<path d="M0.0148926 4.70838L0.813709 7.65901L1.61253 7.26694L2.41134 5.9625L3.21016 5.87528L4.00898 8.88314L4.80779 9.75167L5.60661 7.68044L6.40543 7.64766L7.20424 5.65623L8.00306 3.39718L8.80188 1.09174L9.60069 1.33329L10.3995 2.26106L11.1983 0L11.9971 1.91559L12.796 3.1033L13.5948 2.94995L14.3936 4.64199L15.1924 5.89519L15.9912 10.4562L16.79 23.3657L17.5889 20.1374L18.3877 21.1775L19.1865 24.4832L19.9853 24.0906L20.7841 26.9271L21.5829 27.5585L22.3818 26.5168L23.1806 29.3014L23.9794 28.2919L24.7782 27.7995L25.577 25.6772L26.3758 23.0752L27.1747 23.3428L27.9735 22.0581L28.7723 22.6198L29.5711 20.6281L30.3699 21.224L31.1687 21.2133L31.9676 27.6342L32.7664 27.0098L33.5652 26.6991L34.364 26.9288L35.1628 27.5301L35.9616 26.8967L36.7605 23.0776L37.5593 28.4014L38.3581 28.2069L39.1569 33.6314L39.9557 35.885L40.7545 33.1448L41.5534 35.5493L42.3522 33.9945L43.151 36.2881L43.9498 34.8776L44.7486 33.0663L45.5474 32.8098L46.3463 31.4074L47.1451 31.4804L47.9439 33.4027L48.7427 31.5014L49.5415 36.3108L50.3403 44.3759L51.1392 39.2946L51.938 37.2185L52.7368 41.3024L53.5356 40.496L54.3344 39.1494L55.1332 43.3231L55.9321 41.2169L56.7309 45.0573L57.5297 41.6262L58.3285 42.7258L59.1273 39.9621L59.9261 43.0833L60.725 40.7248L61.5238 40.4554L62.3226 39.8681L63.1214 40.9148L63.9202 37.2632L64.719 38.1051L65.5179 38.5936L66.3167 38.5007L67.1155 35.682L67.9143 37.0133L68.7131 36.2613L69.5119 35.6297L70.3108 36.8503L71.1096 37.334L71.9084 35.787L72.7072 34.7042L73.506 38.58L74.3048 36.8373L75.1037 35.4352L75.9025 33.6103L76.7013 35.2654L77.5001 33.9671L78.2989 35.2175L79.0977 34.4572L79.8966 34.7479L80.6954 34.7412L81.4942 34.2385L82.293 34.454L83.0918 35.1756L83.8906 38.1918L84.6894 37.5058L85.4883 36.5589L86.2871 35.5279L87.0859 34.2725L87.8847 34.9693L88.6835 34.3728L89.4823 34.2041L90.2812 35.3838L91.08 35.0687L91.8788 35.1908L92.6776 37.3294L93.4764 36.4299L94.2752 35.4096L95.0741 37.2173L95.8729 36.3004L96.6717 37.6173L97.4705 38.5193L98.2693 38.5202L99.0681 36.9615L99.867 35.6812L100.666 35.3803L101.465 35.8027L102.263 33.2604L103.062 34.1461L103.861 34.9709L104.66 34.6093L105.459 33.6992L106.257 33.3717L107.056 34.193L107.855 33.6904L108.654 33.215L109.453 34.0842L110.252 33.0343L111.05 32.2778L111.849 33.6853L112.648 30.6477L113.447 30.4451L114.246 33.4311L115.044 32.9267L115.843 32.7869L116.642 34.3139L117.441 34.2409L118.24 36.2955L119.039 34.6511L119.837 35.4061L120.636 30.6138L121.435 29.5364L122.234 31.3571L123.033 32.8313L123.831 33.181L124.63 34.2114L125.429 34.1608L126.228 35.2299L127.027 36.7292L127.826 44.9546L128.624 47.3918L129.423 46.6523L130.222 50L131.021 44.4517L131.82 45.166L132.618 45.8535L133.417 46.2109L134.216 49.3057" stroke="#FF3A33" stroke-width="1.25"/>
</g>
<defs>
<clipPath id="clip0_2_3778">
<rect width="135" height="50" fill="white" transform="translate(0.0148926)"/>
</clipPath>
</defs>
</svg>
