<svg width="136" height="51" viewBox="0 0 136 51" fill="none" xmlns="http://www.w3.org/2000/svg">
<g clip-path="url(#clip0_9_972)">
<path d="M0.0148926 2.85821L0.813709 2.32865L1.61253 3.30463L2.41134 0.547462L3.21016 3.5061L4.00898 8.3581L4.80779 13.9372L5.60661 9.29291L6.40543 7.71567L7.20424 6.94133L8.00306 3.88358L8.80188 1.94951L9.60069 2.57027L10.3995 0.697596L11.1983 0.824892L11.9971 2.06361L12.796 2.2202L13.5948 0.5L14.3936 2.13446L15.1924 4.03295L15.9912 11.1648L16.79 24.1323L17.5889 23.826L18.3877 31.9256L19.1865 34.059L19.9853 35.3341L20.7841 40.7362L21.5829 38.7197L22.3818 34.4446L23.1806 37.0225L23.9794 35.8474L24.7782 34.9821L25.577 31.9688L26.3758 32.2396L27.1747 33.7474L27.9735 33.5555L28.7723 33.7399L29.5711 29.9626L30.3699 31.8312L31.1687 31.9912L31.9676 37.9709L32.7664 37.8135L33.5652 38.8153L34.364 43.1516L35.1628 37.8647L35.9616 40.3056L36.7605 35.0353L37.5593 39.7995L38.3581 39.6958L39.1569 45.0831L39.9557 43.442L40.7545 41.753L41.5534 43.2615L42.3522 41.4539L43.151 43.3101L43.9498 39.7256L44.7486 37.5019L45.5474 39.1203L46.3463 38.816L47.1451 40.0011L47.9439 41.6677L48.7427 40.0019L49.5415 44.4101L50.3403 50.5L51.1392 45.8509L51.938 42.7411L52.7368 46.5511L53.5356 46.006L54.3344 45.0841L55.1332 49.7347L55.9321 45.39L56.7309 48.7866L57.5297 46.0543L58.3285 45.4962L59.1273 42.1041L59.9261 44.6108L60.725 42.4235L61.5238 41.966L62.3226 41.7329L63.1214 42.3935L63.9202 37.369L64.719 38.6577L65.5179 37.6995L66.3167 36.4971L67.1155 33.0479L67.9143 34.7802L68.7131 33.0926L69.5119 32.7839L70.3108 34.2829L71.1096 35.1956L71.9084 31.321L72.7072 27.5352L73.506 32.8727L74.3048 33.8914L75.1037 32.5266L75.9025 29.8273L76.7013 31.4863L77.5001 28.5489L78.2989 25.6423L79.0977 26.7116L79.8966 28.4242L80.6954 28.9569L81.4942 29.2782L82.293 27.5231L83.0918 30.1171L83.8906 33.0086L84.6894 33.3413L85.4883 32.2368L86.2871 29.8559L87.0859 29.6023L87.8847 30.0364L88.6835 28.2489L89.4823 27.3779L90.2812 29.3871L91.08 29.6026L91.8788 27.9077L92.6776 30.3286L93.4764 29.4461L94.2752 28.1818L95.0741 30.3238L95.8729 29.5936L96.6717 31.4214L97.4705 33.3385L98.2693 33.319L99.0681 30.734L99.867 28.215L100.666 29.3266L101.465 29.4812L102.263 27.6987L103.062 28.301L103.861 31.1914L104.66 30.9534L105.459 30.9421L106.257 31.524L107.056 30.2616L107.855 30.063L108.654 29.526L109.453 30.4975L110.252 28.8776L111.05 27.5192L111.849 27.2577L112.648 21.3106L113.447 20.505L114.246 24.0917L115.044 23.6198L115.843 22.0023L116.642 24.8492L117.441 24.2475L118.24 27.3418L119.039 22.756L119.837 22.5845L120.636 14.6277L121.435 11.572L122.234 14.0559L123.033 14.8156L123.831 16.2601L124.63 16.1814L125.429 14.187L126.228 14.6211L127.027 17.1653L127.826 20.9704L128.624 23.297L129.423 22.4109L130.222 24.196L131.021 20.5177L131.82 19.8915L132.618 20.361L133.417 19.8121L134.216 26.9177" stroke="#FF3A33" stroke-width="1.25"/>
</g>
<defs>
<clipPath id="clip0_9_972">
<rect width="135" height="50" fill="white" transform="translate(0.0148926 0.5)"/>
</clipPath>
</defs>
</svg>
