<svg width="136" height="50" viewBox="0 0 136 50" fill="none" xmlns="http://www.w3.org/2000/svg">
<g clip-path="url(#clip0_2_4100)">
<path d="M0.0148926 1.45592L0.813709 1.61094L1.61253 1.74383L2.41134 0.609045L3.21016 1.96763L4.00898 6.15874L4.80779 8.74264L5.60661 4.1924L6.40543 3.59741L7.20424 5.29362L8.00306 1.12514L8.80188 0L9.60069 2.42608L10.3995 0.519147L11.1983 1.36218L11.9971 1.0848L12.796 1.08833L13.5948 0.721222L14.3936 2.57995L15.1924 5.15713L15.9912 11.6168L16.79 24.1651L17.5889 22.0483L18.3877 29.8905L19.1865 30.4223L19.9853 32.8472L20.7841 34.8655L21.5829 37.3124L22.3818 32.1901L23.1806 34.4135L23.9794 34.9344L24.7782 35.8453L25.577 31.8864L26.3758 31.4179L27.1747 29.2368L27.9735 30.53L28.7723 28.9281L29.5711 26.6718L30.3699 26.2083L31.1687 26.03L31.9676 33.7081L32.7664 33.8934L33.5652 33.8313L34.364 38.1441L35.1628 34.9475L35.9616 37.6775L36.7605 33.066L37.5593 38.8107L38.3581 38.8967L39.1569 44.774L39.9557 47.3854L40.7545 42.7293L41.5534 43.5466L42.3522 43.3813L43.151 44.539L43.9498 42.5729L44.7486 41.6592L45.5474 39.276L46.3463 38.0747L47.1451 36.9192L47.9439 38.7288L48.7427 37.4493L49.5415 41.9279L50.3403 49.7873L51.1392 43.8568L51.938 38.4271L52.7368 43.3135L53.5356 41.1039L54.3344 41.2842L55.1332 46.7726L55.9321 45.0705L56.7309 50L57.5297 44.5049L58.3285 44.9661L59.1273 40.9881L59.9261 46.0022L60.725 44.4014L61.5238 42.9688L62.3226 42.2298L63.1214 43.5602L63.9202 36.4876L64.719 37.6373L65.5179 38.0384L66.3167 37.1738L67.1155 33.45L67.9143 38.6827L68.7131 36.6412L69.5119 36.2505L70.3108 38.1402L71.1096 39.5161L71.9084 38.2312L72.7072 35.3399L73.506 35.9732L74.3048 35.9155L75.1037 32.9165L75.9025 28.3339L76.7013 30.2001L77.5001 27.2723L78.2989 28.5997L79.0977 28.4053L79.8966 30.3144L80.6954 31.8579L81.4942 30.0881L82.293 29.3683L83.0918 29.7884L83.8906 34.0619L84.6894 34.0533L85.4883 31.8355L86.2871 30.0405L87.0859 29.1266L87.8847 29.3595L88.6835 28.9976L89.4823 28.5665L90.2812 30.5729L91.08 28.2735L91.8788 27.2693L92.6776 28.052L93.4764 28.1273L94.2752 27.3656L95.0741 32.1422L95.8729 32.1413L96.6717 31.5665L97.4705 34.9031L98.2693 37.359L99.0681 34.7662L99.867 31.4755L100.666 33.5804L101.465 32.5974L102.263 31.9207L103.062 31.856L103.861 31.9045L104.66 33.4099L105.459 30.8485L106.257 30.891L107.056 32.2588L107.855 30.8752L108.654 29.0463L109.453 29.8364L110.252 27.3249L111.05 26.6745L111.849 28.9042L112.648 25.5531L113.447 26.3141L114.246 27.5891L115.044 29.3329L115.843 29.4494L116.642 29.7055L117.441 30.6932L118.24 31.4038L119.039 28.2517L119.837 28.6923L120.636 25.112L121.435 23.4349L122.234 23.8221L123.033 21.194L123.831 22.7986L124.63 23.0989L125.429 21.7635L126.228 23.3521L127.027 24.5025L127.826 26.7583L128.624 29.8561L129.423 27.879L130.222 30.3358L131.021 25.884L131.82 27.136L132.618 27.4167L133.417 25.117L134.216 31.7003" stroke="#FF3A33" stroke-width="1.25"/>
</g>
<defs>
<clipPath id="clip0_2_4100">
<rect width="135" height="50" fill="white" transform="translate(0.0148926)"/>
</clipPath>
</defs>
</svg>
