<svg width="136" height="50" viewBox="0 0 136 50" fill="none" xmlns="http://www.w3.org/2000/svg">
<g clip-path="url(#clip0_2_3885)">
<path d="M0.0148926 10.3188L0.813709 9.50726L1.61253 5.35456L2.41134 6.10374L3.21016 5.74696L4.00898 8.09265L4.80779 5.56153L5.60661 3.84076L6.40543 5.60457L7.20424 3.25703L8.00306 2.02199L8.80188 2.35622L9.60069 0.859383L10.3995 0.0592706L11.1983 0.592522L11.9971 0L12.796 2.72347L13.5948 0.821858L14.3936 3.37082L15.1924 6.09499L15.9912 11.7447L16.79 18.2226L17.5889 22.2503L18.3877 25.5197L19.1865 19.9974L19.9853 21.7052L20.7841 28.7452L21.5829 28.6449L22.3818 28.6495L23.1806 29.6185L23.9794 28.6557L24.7782 25.909L25.577 23.5043L26.3758 24.0116L27.1747 25.3117L27.9735 25.1133L28.7723 25.6586L29.5711 24.9321L30.3699 25.6763L31.1687 27.8081L31.9676 28.6736L32.7664 28.6742L33.5652 28.8006L34.364 35.1343L35.1628 31.9324L35.9616 28.0506L36.7605 27.05L37.5593 30.3882L38.3581 36.7573L39.1569 40.8853L39.9557 40.9695L40.7545 41.2132L41.5534 42.7041L42.3522 42.2693L43.151 43.2998L43.9498 39.0782L44.7486 40.0099L45.5474 38.1894L46.3463 38.0153L47.1451 39.1442L47.9439 39.5703L48.7427 41.9565L49.5415 47.1762L50.3403 45.7589L51.1392 44.9647L51.938 44.3385L52.7368 44.424L53.5356 44.6446L54.3344 47.3014L55.1332 49.4938L55.9321 50L56.7309 46.3205L57.5297 46.2488L58.3285 44.1668L59.1273 45.3892L59.9261 44.8899L60.725 45.2526L61.5238 45.672L62.3226 45.1914L63.1214 39.3102L63.9202 41.6495L64.719 43.5241L65.5179 40.556L66.3167 40.8535L67.1155 40.7811L67.9143 39.8208L68.7131 38.3261L69.5119 40.0787L70.3108 40.7276L71.1096 40.154L71.9084 38.0608L72.7072 39.8159L73.506 44.3574L74.3048 38.9422L75.1037 32.4372L75.9025 34.0762L76.7013 34.2035L77.5001 33.8864L78.2989 34.0888L79.0977 33.5697L79.8966 33.4913L80.6954 35.5334L81.4942 34.3668L82.293 34.6265L83.0918 35.1025L83.8906 36.8018L84.6894 37.3309L85.4883 35.6593L86.2871 34.5337L87.0859 34.5933L87.8847 33.7574L88.6835 34.4385L89.4823 33.2609L90.2812 34.4773L91.08 34.4427L91.8788 35.0072L92.6776 35.7309L93.4764 34.965L94.2752 35.6512L95.0741 36.4402L95.8729 37.2984L96.6717 37.8445L97.4705 37.4591L98.2693 36.1985L99.0681 35.018L99.867 34.3194L100.666 35.8659L101.465 34.2048L102.263 35.2708L103.062 34.4927L103.861 35.3699L104.66 34.8041L105.459 33.8964L106.257 34.4973L107.056 33.2677L107.855 34.0904L108.654 34.7661L109.453 33.4114L110.252 32.6995L111.05 32.8312L111.849 31.2157L112.648 31.9512L113.447 31.8812L114.246 31.131L115.044 29.2121L115.843 30.1824L116.642 31.2701L117.441 31.7129L118.24 33.1347L119.039 31.1797L119.837 29.4842L120.636 23.8659L121.435 22.2244L122.234 21.4258L123.033 22.8773L123.831 24.7037L124.63 24.3124L125.429 25.1371L126.228 23.7655L127.027 30.4272L127.826 30.2423L128.624 28.5368L129.423 27.0065L130.222 26.1834L131.021 20.4921L131.82 24.4497L132.618 25.5657L133.417 26.8336L134.216 32.7991" stroke="#FF3A33" stroke-width="1.25"/>
</g>
<defs>
<clipPath id="clip0_2_3885">
<rect width="135" height="50" fill="white" transform="translate(0.0148926)"/>
</clipPath>
</defs>
</svg>
