<svg width="13" height="14" viewBox="0 0 13 14" fill="none" xmlns="http://www.w3.org/2000/svg">
<path d="M5.90625 10.834C6.07552 10.9863 6.27018 11.0625 6.49023 11.0625C6.71029 11.0625 6.90495 10.9863 7.07422 10.834L11.9492 5.95898C12.1016 5.78971 12.1777 5.59505 12.1777 5.375C12.1777 5.15495 12.1016 4.96029 11.9492 4.79102C11.7799 4.63867 11.5853 4.5625 11.3652 4.5625C11.1452 4.5625 10.9505 4.63867 10.7812 4.79102L6.49023 9.10742L2.19922 4.79102C2.02995 4.63867 1.83529 4.5625 1.61523 4.5625C1.39518 4.5625 1.20052 4.63867 1.03125 4.79102C0.878906 4.96029 0.802734 5.15495 0.802734 5.375C0.802734 5.59505 0.878906 5.78971 1.03125 5.95898L5.90625 10.834Z" fill="#0F172A"/>
</svg>
