<svg width="13" height="13" viewBox="0 0 13 13" fill="none" xmlns="http://www.w3.org/2000/svg">
<path d="M5.79102 10.0391C5.94727 10.1797 6.12695 10.25 6.33008 10.25C6.5332 10.25 6.71289 10.1797 6.86914 10.0391L11.3691 5.53906C11.5098 5.38281 11.5801 5.20313 11.5801 5C11.5801 4.79687 11.5098 4.61719 11.3691 4.46094C11.2129 4.32031 11.0332 4.25 10.8301 4.25C10.627 4.25 10.4473 4.32031 10.291 4.46094L6.33008 8.44531L2.36914 4.46094C2.21289 4.32031 2.0332 4.25 1.83008 4.25C1.62695 4.25 1.44727 4.32031 1.29102 4.46094C1.15039 4.61719 1.08008 4.79687 1.08008 5C1.08008 5.20313 1.15039 5.38281 1.29102 5.53906L5.79102 10.0391Z" fill="white"/>
</svg>
