<svg width="136" height="50" viewBox="0 0 136 50" fill="none" xmlns="http://www.w3.org/2000/svg">
<g clip-path="url(#clip0_2_3382)">
<path d="M0.0148926 22.6361L0.80901 26.8849L1.60313 28.9361L2.39725 27.7645L3.19136 29.4509L3.98548 32.0018L4.7796 30.5622L5.57372 28.2217L6.36783 29.228L7.16195 30.8055L7.95607 27.0473L8.75019 29.1149L9.5443 27.0697L10.3384 22.1075L11.1325 22.0714L11.9267 21.989L12.7208 21.9342L13.5149 21.5843L14.309 20.4597L15.1031 20.0715L15.8972 21.5892L16.6914 24.1257L17.4855 24.9312L18.2796 24.0437L19.0737 22.5367L19.8678 26.7669L20.662 30.3182L21.4561 36.9052L22.2502 39.0719L23.0443 36.7788L23.8384 40.8363L24.6325 31.523L25.4267 33.4515L26.2208 30.1949L27.0149 30.1121L27.809 28.7273L28.6031 31.5591L29.3972 31.9809L30.1914 33.1006L30.9855 36.2123L31.7796 31.2605L32.5737 34.1452L33.3678 36.1852L34.162 38.9072L34.9561 21.9228L35.7502 33.1768L36.5443 30.1498L37.3384 30.6138L38.1325 31.1116L38.9267 40.2684L39.7208 44.7777L40.5149 43.2134L41.309 47.3729L42.1031 46.1225L42.8972 46.9287L43.6914 41.8282L44.4855 46.122L45.2796 45.0663L46.0737 44.2582L46.8678 44.056L47.662 45.4897L48.4561 44.0055L49.2502 45.357L50.0443 50L50.8384 47.651L51.6325 45.1793L52.4267 47.0619L53.2208 47.5162L54.0149 41.0563L54.809 45.2694L55.6031 43.4546L56.3972 48.756L57.1914 45.1371L57.9855 42.5221L58.7796 40.1003L59.5737 39.899L60.3678 43.9517L61.162 45.7721L61.9561 45.6734L62.7502 45.2916L63.5443 38.1662L64.3384 40.459L65.1325 39.5703L65.9267 40.3137L66.7208 38.1064L67.5149 43.6399L68.309 40.2658L69.1031 44.1478L69.8972 42.4713L70.6914 44.4547L71.4855 40.222L72.2796 40.3365L73.0737 37.5909L73.8678 37.3756L74.6619 29.9921L75.4561 26.679L76.2502 35.1484L77.0443 31.9741L77.8384 31.4546L78.6325 29.5468L79.4267 31.3349L80.2208 31.5089L81.0149 31.8895L81.809 29.6497L82.6031 29.7937L83.3972 31.2809L84.1914 31.9997L84.9855 32.4835L85.7796 25.2114L86.5737 30.7495L87.3678 30.0074L88.1619 30.2056L88.9561 29.3203L89.7502 25.0762L90.5443 25.3735L91.3384 24.2472L92.1325 24.8741L92.9267 24.3388L93.7208 25.6729L94.5149 26.6709L95.309 24.8825L96.1031 26.9808L96.8972 26.971L97.6914 28.0389L98.4855 25.8438L99.2796 25.4503L100.074 28.0667L100.868 26.5515L101.662 25.897L102.456 25.5857L103.25 25.1686L104.044 25.0822L104.838 24.5124L105.633 25.3723L106.427 27.8013L107.221 25.2662L108.015 24.2085L108.809 24.6409L109.603 23.0704L110.397 21.218L111.191 23.4456L111.985 23.7334L112.78 21.3759L113.574 24.6346L114.368 23.9187L115.162 22.1878L115.956 24.2888L116.75 25.541L117.544 27.7962L118.338 24.201L119.133 24.6051L119.927 17.6727L120.721 17.7462L121.515 21.4878L122.309 20.3112L123.103 18.102L123.897 21.5488L124.691 19.4187L125.485 19.8822L126.28 19.3144L127.074 20.4494L127.868 24.6242L128.662 24.6936L129.456 24.7585L130.25 6.62241L131.044 10.9229L131.838 2.69551L132.633 0L133.427 3.5957L134.221 8.70152" stroke="#57FF84" stroke-width="1.25"/>
</g>
<defs>
<clipPath id="clip0_2_3382">
<rect width="135" height="50" fill="white" transform="translate(0.0148926)"/>
</clipPath>
</defs>
</svg>
