<svg width="15" height="14" viewBox="0 0 15 14" fill="none" xmlns="http://www.w3.org/2000/svg">
<path d="M2.0625 1.53125C2.02604 1.13021 1.80729 0.911458 1.40625 0.875C1.00521 0.911458 0.786458 1.13021 0.75 1.53125V11.1562C0.768229 11.7214 0.959635 12.1862 1.32422 12.5508C1.6888 12.9154 2.15365 13.1068 2.71875 13.125H14.0938C14.4948 13.0885 14.7135 12.8698 14.75 12.4688C14.7135 12.0677 14.4948 11.849 14.0938 11.8125H2.71875C2.31771 11.776 2.09896 11.5573 2.0625 11.1562V1.53125ZM13.6836 4.62109C13.9388 4.3112 13.9388 4.0013 13.6836 3.69141C13.3737 3.4362 13.0638 3.4362 12.7539 3.69141L9.5 6.94531L7.33984 4.78516C7.21224 4.65755 7.05729 4.59375 6.875 4.59375C6.69271 4.59375 6.53776 4.65755 6.41016 4.78516L3.78516 7.41016C3.52995 7.72005 3.52995 8.02995 3.78516 8.33984C4.09505 8.59505 4.40495 8.59505 4.71484 8.33984L6.875 6.17969L9.03516 8.33984C9.34505 8.59505 9.65495 8.59505 9.96484 8.33984L13.6836 4.62109Z" fill="#0F172A"/>
</svg>
