<svg width="136" height="50" viewBox="0 0 136 50" fill="none" xmlns="http://www.w3.org/2000/svg">
<g clip-path="url(#clip0_2_4388)">
<path d="M0.0148926 3.24048L0.813709 3.80837L1.61253 1.60664L2.41134 2.69066L3.21016 5.88891L4.00898 13.6152L4.80779 7.07338L5.60661 6.35076L6.40543 7.9156L7.20424 4.05378L8.00306 2.49747L8.80188 4.19926L9.60069 1.4103L10.3995 0L11.1983 1.34702L11.9971 0.551562L12.796 1.42793L13.5948 2.52506L14.3936 3.5092L15.1924 12.8907L15.9912 12.4462L16.79 21.4666L17.5889 29.7524L18.3877 39.5785L19.1865 36.2094L19.9853 34.7462L20.7841 37.6808L21.5829 34.8768L22.3818 37.1467L23.1806 36.2076L23.9794 35.7675L24.7782 37.8204L25.577 35.2842L26.3758 31.5784L27.1747 31.4844L27.9735 32.1162L28.7723 29.6131L29.5711 28.5097L30.3699 29.6614L31.1687 36.3237L31.9676 32.6884L32.7664 25.4373L33.5652 30.0425L34.364 34.476L35.1628 33.1194L35.9616 32.1402L36.7605 33.0142L37.5593 34.1398L38.3581 38.9105L39.1569 43.5151L39.9557 39.0713L40.7545 40.9481L41.5534 42.2812L42.3522 41.9902L43.151 39.6853L43.9498 38.9402L44.7486 40.0463L45.5474 37.4912L46.3463 36.6341L47.1451 35.3844L47.9439 34.9229L48.7427 35.7058L49.5415 42.274L50.3403 42.6682L51.1392 45.0821L51.938 44.4339L52.7368 45.2515L53.5356 47.2584L54.3344 43.2323L55.1332 47.2025L55.9321 50L56.7309 45.2889L57.5297 45.825L58.3285 45.3431L59.1273 46.4108L59.9261 45.1234L60.725 45.5689L61.5238 44.9663L62.3226 44.9173L63.1214 40.7504L63.9202 40.0025L64.719 41.2196L65.5179 39.1867L66.3167 39.0551L67.1155 37.745L67.9143 37.2562L68.7131 34.7835L69.5119 36.3474L70.3108 36.4067L71.1096 36.8162L71.9084 36.8688L72.7072 34.0382L73.506 38.2871L74.3048 34.7817L75.1037 32.1273L75.9025 31.7505L76.7013 31.5187L77.5001 31.8279L78.2989 31.8902L79.0977 31.8101L79.8966 31.4115L80.6954 31.3424L81.4942 29.6584L82.293 30.6755L83.0918 32.2027L83.8906 34.1574L84.6894 33.1346L85.4883 32.2606L86.2871 30.8876L87.0859 32.2648L87.8847 32.1904L88.6835 30.956L89.4823 31.2546L90.2812 30.8568L91.08 30.6751L91.8788 30.5969L92.6776 31.986L93.4764 29.4763L94.2752 32.5443L95.0741 32.2575L95.8729 32.779L96.6717 34.4684L97.4705 35.196L98.2693 33.7018L99.0681 32.1009L99.867 31.9092L100.666 31.8599L101.465 30.5639L102.263 32.1557L103.062 33.2141L103.861 34.7038L104.66 34.1729L105.459 33.1289L106.257 33.9525L107.056 32.4744L107.855 33.1734L108.654 33.5346L109.453 32.5281L110.252 32.5156L111.05 30.6772L111.849 28.531L112.648 27.5487L113.447 27.0976L114.246 27.0097L115.044 28.5941L115.843 27.1664L116.642 28.5471L117.441 28.9417L118.24 27.9826L119.039 25.1924L119.837 22.3771L120.636 20.2859L121.435 22.2255L122.234 23.3165L123.033 23.8443L123.831 24.9533L124.63 23.4998L125.429 24.368L126.228 23.6924L127.027 28.1514L127.826 31.4937L128.624 30.7927L129.423 30.1342L130.222 27.1161L131.021 22.535L131.82 26.0137L132.618 24.9793L133.417 23.4638L134.216 28.7822" stroke="#FF3A33" stroke-width="1.25"/>
</g>
<defs>
<clipPath id="clip0_2_4388">
<rect width="135" height="50" fill="white" transform="translate(0.0148926)"/>
</clipPath>
</defs>
</svg>
