<svg width="12" height="14" viewBox="0 0 12 14" fill="none" xmlns="http://www.w3.org/2000/svg">
<path d="M9.58008 8.875H5.08008C4.8457 8.85937 4.7207 8.73438 4.70508 8.5V2.5C4.7207 2.26562 4.8457 2.14063 5.08008 2.125H8.36133L9.95508 3.71875V8.5C9.93945 8.73438 9.81445 8.85937 9.58008 8.875ZM5.08008 10H9.58008C10.002 9.98437 10.3535 9.83594 10.6348 9.55469C10.916 9.27344 11.0645 8.92188 11.0801 8.5V3.71875C11.0801 3.40625 10.9707 3.14062 10.752 2.92188L9.1582 1.32812C8.93945 1.10938 8.67383 1 8.36133 1H5.08008C4.6582 1.01563 4.30664 1.16406 4.02539 1.44531C3.74414 1.72656 3.5957 2.07812 3.58008 2.5V8.5C3.5957 8.92188 3.74414 9.27344 4.02539 9.55469C4.30664 9.83594 4.6582 9.98437 5.08008 10ZM2.08008 4C1.6582 4.01563 1.30664 4.16406 1.02539 4.44531C0.744141 4.72656 0.595703 5.07812 0.580078 5.5V11.5C0.595703 11.9219 0.744141 12.2734 1.02539 12.5547C1.30664 12.8359 1.6582 12.9844 2.08008 13H6.58008C7.00195 12.9844 7.35352 12.8359 7.63477 12.5547C7.91602 12.2734 8.06445 11.9219 8.08008 11.5V10.75H6.95508V11.5C6.93945 11.7344 6.81445 11.8594 6.58008 11.875H2.08008C1.8457 11.8594 1.7207 11.7344 1.70508 11.5V5.5C1.7207 5.26562 1.8457 5.14063 2.08008 5.125H2.83008V4H2.08008Z" fill="white"/>
</svg>
