<svg width="136" height="50" viewBox="0 0 136 50" fill="none" xmlns="http://www.w3.org/2000/svg">
<g clip-path="url(#clip0_2_3742)">
<path d="M0.0148926 0.00851145L0.813709 0L1.61253 1.88886L2.41134 1.21456L3.21016 2.88946L4.00898 6.59623L4.80779 4.12868L5.60661 2.12461L6.40543 4.17475L7.20424 5.11099L8.00306 2.54328L8.80188 2.58689L9.60069 4.42448L10.3995 1.26254L11.1983 0.878714L11.9971 2.69477L12.796 3.72337L13.5948 3.02128L14.3936 4.1862L15.1924 4.11511L15.9912 10.2447L16.79 16.333L17.5889 19.4112L18.3877 24.7298L19.1865 27.1183L19.9853 30.9352L20.7841 31.7871L21.5829 32.4572L22.3818 30.1338L23.1806 31.963L23.9794 33.6156L24.7782 33.4734L25.577 31.9478L26.3758 30.609L27.1747 29.8336L27.9735 30.014L28.7723 30.0914L29.5711 29.0986L30.3699 29.939L31.1687 29.9838L31.9676 34.5611L32.7664 35.1741L33.5652 35.0506L34.364 35.6442L35.1628 33.1903L35.9616 33.8986L36.7605 32.1816L37.5593 36.4626L38.3581 39.194L39.1569 43.832L39.9557 43.5813L40.7545 40.9508L41.5534 42.881L42.3522 41.3739L43.151 41.3722L43.9498 40.1885L44.7486 40.3778L45.5474 40.1812L46.3463 38.6942L47.1451 39.7058L47.9439 40.7659L48.7427 41.3434L49.5415 42.9671L50.3403 45.9846L51.1392 44.8648L51.938 44.369L52.7368 46.9983L53.5356 45.4309L54.3344 45.1697L55.1332 47.4319L55.9321 46.6838L56.7309 50L57.5297 46.5839L58.3285 47.4121L59.1273 45.4867L59.9261 46.6234L60.725 45.8171L61.5238 44.6879L62.3226 45.05L63.1214 45.3331L63.9202 43.1566L64.719 44.4896L65.5179 44.1577L66.3167 43.8869L67.1155 42.2201L67.9143 42.0854L68.7131 40.922L69.5119 39.6254L70.3108 41.0873L71.1096 41.7119L71.9084 40.527L72.7072 38.5321L73.506 39.2955L74.3048 39.2603L75.1037 39.2215L75.9025 37.8882L76.7013 39.5901L77.5001 38.8859L78.2989 38.3744L79.0977 38.9805L79.8966 39.0306L80.6954 39.6394L81.4942 38.477L82.293 37.746L83.0918 38.8671L83.8906 40.0925L84.6894 40.7316L85.4883 39.1415L86.2871 38.1999L87.0859 37.383L87.8847 38.2437L88.6835 38.2136L89.4823 37.7809L90.2812 38.2641L91.08 37.8858L91.8788 37.6984L92.6776 39.163L93.4764 39.1544L94.2752 40.0003L95.0741 41.4102L95.8729 41.2707L96.6717 41.7363L97.4705 42.2711L98.2693 42.63L99.0681 40.4722L99.867 39.5604L100.666 40.2056L101.465 40.7852L102.263 38.8796L103.062 39.27L103.861 39.9015L104.66 39.9338L105.459 39.2541L106.257 38.4961L107.056 38.3197L107.855 38.5285L108.654 37.9589L109.453 37.9356L110.252 35.4053L111.05 35.0819L111.849 35.2304L112.648 30.3705L113.447 31.5828L114.246 34.134L115.044 34.2449L115.843 33.2142L116.642 34.18L117.441 33.9156L118.24 34.4494L119.039 31.9155L119.837 31.775L120.636 28.1757L121.435 25.5901L122.234 27.2732L123.033 28.1853L123.831 29.5706L124.63 28.641L125.429 28.7077L126.228 29.1399L127.027 28.7943L127.826 32.8638L128.624 35.0161L129.423 34.0612L130.222 34.6042L131.021 32.5145L131.82 29.6997L132.618 32.0264L133.417 31.6287L134.216 35.6418" stroke="#FF3A33" stroke-width="1.25"/>
</g>
<defs>
<clipPath id="clip0_2_3742">
<rect width="135" height="50" fill="white" transform="translate(0.0148926)"/>
</clipPath>
</defs>
</svg>
