<svg width="136" height="50" viewBox="0 0 136 50" fill="none" xmlns="http://www.w3.org/2000/svg">
<g clip-path="url(#clip0_2_3670)">
<path d="M0.0148926 9.18558L0.813709 8.29978L1.61253 6.54936L2.41134 6.14491L3.21016 7.22566L4.00898 7.82028L4.80779 5.18622L5.60661 4.95515L6.40543 4.76905L7.20424 3.13106L8.00306 1.34249L8.80188 1.35204L9.60069 0L10.3995 0.349322L11.1983 0.985336L11.9971 2.14768L12.796 1.54892L13.5948 2.95536L14.3936 4.2419L15.1924 10.2997L15.9912 22.1098L16.79 18.8915L17.5889 23.3714L18.3877 21.8535L19.1865 23.5049L19.9853 23.4453L20.7841 30.5692L21.5829 29.0431L22.3818 30.1609L23.1806 30.063L23.9794 28.8814L24.7782 25.6905L25.577 24.0232L26.3758 24.0825L27.1747 24.8301L27.9735 25.8928L28.7723 24.9083L29.5711 25.6543L30.3699 25.5229L31.1687 29.5604L31.9676 29.7868L32.7664 29.3746L33.5652 32.2833L34.364 29.5612L35.1628 32.0446L35.9616 27.9046L36.7605 28.5779L37.5593 29.4614L38.3581 35.7252L39.1569 39.529L39.9557 38.2465L40.7545 39.7693L41.5534 40.0199L42.3522 42.5546L43.151 39.8064L43.9498 39.2808L44.7486 39.1551L45.5474 37.7923L46.3463 37.6151L47.1451 39.531L47.9439 38.7075L48.7427 42.2119L49.5415 46.7389L50.3403 46.2124L51.1392 42.155L51.938 45.1165L52.7368 44.2578L53.5356 44.9288L54.3344 49.8522L55.1332 46.6192L55.9321 50L56.7309 46.1887L57.5297 46.1746L58.3285 44.504L59.1273 45.8853L59.9261 44.9655L60.725 44.6268L61.5238 44.6349L62.3226 45.6654L63.1214 40.3674L63.9202 41.3714L64.719 42.4334L65.5179 41.4351L66.3167 40.8339L67.1155 40.7378L67.9143 39.4517L68.7131 39.5522L69.5119 40.475L70.3108 40.8165L71.1096 39.6138L71.9084 39.0059L72.7072 40.9502L73.506 42.0306L74.3048 35.1103L75.1037 31.7031L75.9025 34.6683L76.7013 33.2715L77.5001 32.7388L78.2989 32.9431L79.0977 33.1015L79.8966 34.2096L80.6954 34.6627L81.4942 33.7317L82.293 34.6205L83.0918 37.3486L83.8906 37.2909L84.6894 36.4687L85.4883 34.6006L86.2871 34.6354L87.0859 34.6135L87.8847 34.5533L88.6835 33.646L89.4823 33.6992L90.2812 34.1549L91.08 34.3788L91.8788 35.2507L92.6776 35.6819L93.4764 35.614L94.2752 36.6117L95.0741 36.82L95.8729 37.4967L96.6717 38.1278L97.4705 38.2929L98.2693 36.8816L99.0681 34.6257L99.867 35.5995L100.666 35.7578L101.465 34.4952L102.263 34.6695L103.062 34.9493L103.861 34.897L104.66 34.9123L105.459 34.3675L106.257 34.6911L107.056 33.9159L107.855 33.2845L108.654 34.2447L109.453 33.184L110.252 32.7621L111.05 32.2545L111.849 30.5945L112.648 30.3342L113.447 31.7021L114.246 30.9266L115.044 30.0902L115.843 31.0744L116.642 31.4849L117.441 34.7323L118.24 31.498L119.039 31.4883L119.837 24.3206L120.636 24.2082L121.435 21.3129L122.234 23.0598L123.033 23.5375L123.831 25.1828L124.63 24.3815L125.429 24.9659L126.228 24.7919L127.027 28.8156L127.826 30.9209L128.624 27.8161L129.423 27.5295L130.222 26.798L131.021 22.4849L131.82 25.2601L132.618 26.27L133.417 26.2557L134.216 33.8507" stroke="#FF3A33" stroke-width="1.25"/>
</g>
<defs>
<clipPath id="clip0_2_3670">
<rect width="135" height="50" fill="white" transform="translate(0.0148926)"/>
</clipPath>
</defs>
</svg>
