<svg width="136" height="50" viewBox="0 0 136 50" fill="none" xmlns="http://www.w3.org/2000/svg">
<g clip-path="url(#clip0_2_2986)">
<path d="M0.0148926 7.9161L0.813709 7.52595L1.61253 6.48145L2.41134 6.58904L3.21016 6.38664L4.00898 7.80362L4.80779 11.9266L5.60661 7.57419L6.40543 9.25938L7.20424 6.94527L8.00306 5.19958L8.80188 6.03049L9.60069 3.67457L10.3995 4.88085L11.1983 3.84293L11.9971 2.43805L12.796 0L13.5948 0.63733L14.3936 0.154974L15.1924 0.705591L15.9912 10.8969L16.79 26.844L17.5889 18.6066L18.3877 23.6153L19.1865 29.5985L19.9853 33.9493L20.7841 33.7735L21.5829 35.5757L22.3818 34.7834L23.1806 36.2396L23.9794 32.6469L24.7782 31.0164L25.577 27.9383L26.3758 27.1914L27.1747 27.4077L27.9735 28.293L28.7723 28.4101L29.5711 25.5617L30.3699 24.4039L31.1687 23.469L31.9676 30.2909L32.7664 35.2673L33.5652 33.1801L34.364 34.2289L35.1628 31.7055L35.9616 32.0995L36.7605 29.7499L37.5593 32.5177L38.3581 33.6324L39.1569 42.3436L39.9557 41.5938L40.7545 38.7545L41.5534 37.6564L42.3522 35.8288L43.151 37.784L43.9498 37.7653L44.7486 35.762L45.5474 34.7768L46.3463 33.762L47.1451 35.4264L47.9439 36.9428L48.7427 39.6127L49.5415 41.8625L50.3403 46.582L51.1392 41.3986L51.938 40.7864L52.7368 43.8942L53.5356 47.8693L54.3344 44.0764L55.1332 46.659L55.9321 47.42L56.7309 50L57.5297 46.9039L58.3285 47.073L59.1273 43.8619L59.9261 41.6645L60.725 40.4236L61.5238 37.9833L62.3226 37.5694L63.1214 39.5449L63.9202 35.3204L64.719 35.4192L65.5179 35.6577L66.3167 36.4626L67.1155 35.8744L67.9143 34.7157L68.7131 33.5186L69.5119 33.0001L70.3108 33.1774L71.1096 34.4019L71.9084 31.0506L72.7072 29.3549L73.506 29.4018L74.3048 30.7607L75.1037 29.5853L75.9025 26.7048L76.7013 28.8581L77.5001 27.8343L78.2989 25.672L79.0977 26.5038L79.8966 26.7149L80.6954 26.2617L81.4942 25.4769L82.293 25.143L83.0918 26.2541L83.8906 28.7049L84.6894 29.772L85.4883 29.4368L86.2871 28.0274L87.0859 27.1112L87.8847 27.2655L88.6835 27.1304L89.4823 26.8151L90.2812 27.5711L91.08 26.2601L91.8788 26.0957L92.6776 28.1937L93.4764 27.8845L94.2752 29.5563L95.0741 31.2345L95.8729 31.3927L96.6717 33.0101L97.4705 33.5188L98.2693 33.6803L99.0681 33.7106L99.867 31.7183L100.666 31.6855L101.465 31.6792L102.263 30.2854L103.062 31.4641L103.861 32.2525L104.66 33.5473L105.459 32.6222L106.257 31.3541L107.056 32.7478L107.855 34.0625L108.654 32.846L109.453 35.1931L110.252 33.4326L111.05 32.5168L111.849 32.8058L112.648 30.4077L113.447 28.6968L114.246 31.4949L115.044 30.8212L115.843 30.156L116.642 30.5546L117.441 31.2344L118.24 32.2596L119.039 30.9188L119.837 28.9957L120.636 26.0673L121.435 23.5012L122.234 24.5276L123.033 24.7914L123.831 26.3496L124.63 27.2365L125.429 25.3335L126.228 26.3832L127.027 28.2106L127.826 32.2323L128.624 35.1003L129.423 33.843L130.222 34.8758L131.021 32.0768L131.82 31.6034L132.618 30.5111L133.417 30.3775L134.216 37.7592" stroke="#FF3A33" stroke-width="1.25"/>
</g>
<defs>
<clipPath id="clip0_2_2986">
<rect width="135" height="50" fill="white" transform="translate(0.0148926)"/>
</clipPath>
</defs>
</svg>
