<svg width="136" height="50" viewBox="0 0 136 50" fill="none" xmlns="http://www.w3.org/2000/svg">
<g clip-path="url(#clip0_2_2231)">
<path d="M0.0148926 10.1501L0.813709 12.244L1.61253 8.42741L2.41134 10.6004L3.21016 12.5023L4.00898 14.8024L4.80779 10.0318L5.60661 10.5602L6.40543 11.4296L7.20424 6.30982L8.00306 5.38348L8.80188 4.27967L9.60069 1.41616L10.3995 2.05047L11.1983 0L11.9971 2.78629L12.796 1.61966L13.5948 4.39121L14.3936 4.25791L15.1924 13.4203L15.9912 22.1858L16.79 22.4018L17.5889 28.3352L18.3877 26.5964L19.1865 27.5552L19.9853 29.987L20.7841 31.0925L21.5829 32.4335L22.3818 32.935L23.1806 33.6658L23.9794 30.9244L24.7782 30.3455L25.577 28.1647L26.3758 29.0293L27.1747 28.4002L27.9735 26.7824L28.7723 22.133L29.5711 21.9257L30.3699 19.4609L31.1687 23.8223L31.9676 28.524L32.7664 28.2286L33.5652 32.5062L34.364 29.6713L35.1628 31.6246L35.9616 28.2592L36.7605 31.373L37.5593 33.0282L38.3581 38.7694L39.1569 40.9428L39.9557 40.0328L40.7545 39.6285L41.5534 39.0395L42.3522 40.7752L43.151 40.007L43.9498 37.7663L44.7486 37.2059L45.5474 37.7962L46.3463 38.5186L47.1451 40.3654L47.9439 39.4921L48.7427 43.2853L49.5415 49.7619L50.3403 45.1544L51.1392 42.8769L51.938 45.5951L52.7368 44.6041L53.5356 45.0588L54.3344 48.238L55.1332 46.3885L55.9321 50L56.7309 45.9465L57.5297 46.6717L58.3285 45.4789L59.1273 47.5674L59.9261 45.1844L60.725 44.3813L61.5238 44.8225L62.3226 45.1736L63.1214 41.4349L63.9202 41.1703L64.719 42.4221L65.5179 41.0778L66.3167 38.1149L67.1155 39.8032L67.9143 37.4666L68.7131 37.3067L69.5119 40.0831L70.3108 40.4473L71.1096 40.3164L71.9084 39.1882L72.7072 41.7945L73.506 41.2135L74.3048 39.8682L75.1037 36.2106L75.9025 38.5567L76.7013 36.8726L77.5001 37.3674L78.2989 38.5652L79.0977 38.7115L79.8966 39.2683L80.6954 39.0616L81.4942 37.6209L82.293 38.7949L83.0918 41.0246L83.8906 40.3243L84.6894 38.6352L85.4883 37.7157L86.2871 36.2803L87.0859 38.1721L87.8847 37.5548L88.6835 37.0731L89.4823 38.6473L90.2812 37.8458L91.08 35.456L91.8788 36.5125L92.6776 36.0069L93.4764 34.8975L94.2752 34.4214L95.0741 34.0086L95.8729 36.456L96.6717 37.8284L97.4705 37.743L98.2693 36.2851L99.0681 34.8242L99.867 36.0804L100.666 36.0855L101.465 34.8747L102.263 34.2597L103.062 35.3217L103.861 36.3514L104.66 35.8534L105.459 35.6132L106.257 35.2707L107.056 35.6315L107.855 34.818L108.654 36.1448L109.453 34.5856L110.252 33.7275L111.05 34.2758L111.849 31.0139L112.648 30.6138L113.447 31.5824L114.246 32.2638L115.044 30.8795L115.843 31.7797L116.642 29.9824L117.441 31.8402L118.24 27.9694L119.039 26.1448L119.837 21.1941L120.636 15.3019L121.435 17.8938L122.234 19.3422L123.033 20.1553L123.831 20.0843L124.63 17.1384L125.429 17.9464L126.228 16.5189L127.027 20.3609L127.826 23.0439L128.624 17.1404L129.423 17.7075L130.222 15.1987L131.021 16.251L131.82 14.8014L132.618 13.6685L133.417 13.0795L134.216 16.7792" stroke="#FF3A33" stroke-width="1.25"/>
</g>
<defs>
<clipPath id="clip0_2_2231">
<rect width="135" height="50" fill="white" transform="translate(0.0148926)"/>
</clipPath>
</defs>
</svg>
