<svg width="136" height="51" viewBox="0 0 136 51" fill="none" xmlns="http://www.w3.org/2000/svg">
<g clip-path="url(#clip0_16_2478)">
<path d="M0.0136719 8.89013L0.812488 8.01161L1.6113 4.95428L2.41012 4.44867L3.20894 4.91652L4.00775 7.40156L4.80657 8.72231L5.60539 5.75115L6.4042 7.6582L7.20302 5.96914L8.00184 4.05149L8.80065 2.71815L9.59947 0.848989L10.3983 0.5L11.1971 1.30903L11.9959 1.12094L12.7947 2.19784L13.5936 1.1721L14.3924 1.91292L15.1912 7.47661L15.99 12.5112L16.7888 25.7753L17.5876 23.9176L18.3865 37.2443L19.1853 27.9528L19.9841 30.345L20.7829 38.8477L21.5817 37.4954L22.3805 36.4042L23.1794 37.119L23.9782 36.0799L24.777 27.8955L25.5758 26.252L26.3746 25.3889L27.1734 26.4077L27.9723 25.7839L28.7711 27.2839L29.5699 26.7947L30.3687 24.4582L31.1675 27.4524L31.9663 32.5701L32.7652 32.1549L33.564 33.6544L34.3628 37.2848L35.1616 31.7745L35.9604 33.1675L36.7592 28.2546L37.5581 32.7392L38.3569 33.5113L39.1557 42.5443L39.9545 42.2243L40.7533 38.4502L41.5521 40.4632L42.3509 41.193L43.1498 42.4171L43.9486 40.2354L44.7474 39.9635L45.5462 38.9364L46.345 38.2464L47.1438 38.0577L47.9427 41.7305L48.7415 40.0104L49.5403 43.7207L50.3391 49.819L51.1379 46.355L51.9367 42.9132L52.7356 49.1046L53.5344 46.606L54.3332 45.3701L55.132 50.5L55.9308 46.084L56.7296 49.4539L57.5285 46.7176L58.3273 46.3928L59.1261 44.7874L59.9249 48.3914L60.7237 45.1417L61.5225 45.4971L62.3214 45.7147L63.1202 46.0963L63.919 42.1387L64.7178 42.3441L65.5166 42.9208L66.3154 41.7397L67.1143 39.6371L67.9131 40.8422L68.7119 38.6809L69.5107 36.0171L70.3095 37.7529L71.1083 37.0954L71.9072 36.0794L72.706 33.1311L73.5048 35.431L74.3036 34.7567L75.1024 31.2191L75.9012 28.5062L76.7001 31.5718L77.4989 29.987L78.2977 30.0727L79.0965 30.7514L79.8953 31.0882L80.6941 32.5782L81.493 31.4931L82.2918 30.8553L83.0906 30.7799L83.8894 33.5268L84.6882 34.0986L85.487 32.6872L86.2859 30.7474L87.0847 29.6969L87.8835 30.0442L88.6823 29.3223L89.4811 28.2078L90.2799 28.4284L91.0788 27.8258L91.8776 27.5864L92.6764 28.7005L93.4752 28.1499L94.274 27.7325L95.0728 30.6082L95.8717 31.5753L96.6705 33.9605L97.4693 35.0543L98.2681 35.2028L99.0669 32.6356L99.8657 29.4535L100.665 29.5012L101.463 28.9493L102.262 26.7689L103.061 29.0373L103.86 30.1887L104.659 30.5185L105.457 30.79L106.256 30.4062L107.055 28.3597L107.854 27.6185L108.653 26.8003L109.452 28.0233L110.25 27.0636L111.049 26.7898L111.848 26.9371L112.647 23.2054L113.446 22.3951L114.244 24.5413L115.043 23.9004L115.842 22.7647L116.641 23.3937L117.44 23.1051L118.239 24.8944L119.037 22.5651L119.836 20.4381L120.635 14.08L121.434 16.0734L122.233 13.9456L123.031 16.2676L123.83 17.3286L124.629 19.1274L125.428 16.3145L126.227 17.4843L127.026 18.8717L127.824 24.1016L128.623 24.7586L129.422 21.6168L130.221 22.711L131.02 19.3413L131.818 15.9155L132.617 20.658L133.416 19.0282L134.215 27.5412" stroke="#FF3A33" stroke-width="1.25"/>
</g>
<defs>
<clipPath id="clip0_16_2478">
<rect width="135" height="50" fill="white" transform="translate(0.0136719 0.5)"/>
</clipPath>
</defs>
</svg>
