<svg width="11" height="15" viewBox="0 0 11 15" fill="none" xmlns="http://www.w3.org/2000/svg">
<path d="M1.08984 1.42285C0.834635 1.42285 0.625 1.50488 0.460938 1.66895C0.296875 1.83301 0.214844 2.04264 0.214844 2.29785C0.214844 2.55306 0.296875 2.7627 0.460938 2.92676C0.625 3.09082 0.834635 3.17285 1.08984 3.17285H9.83984C10.0951 3.17285 10.3047 3.09082 10.4688 2.92676C10.6328 2.7627 10.7148 2.55306 10.7148 2.29785C10.7148 2.04264 10.6328 1.83301 10.4688 1.66895C10.3047 1.50488 10.0951 1.42285 9.83984 1.42285H1.08984ZM6.09375 5.16895C5.91146 5.00488 5.70182 4.92285 5.46484 4.92285C5.22786 4.92285 5.01823 5.00488 4.83594 5.16895L1.33594 8.66895C1.17188 8.85124 1.08984 9.06087 1.08984 9.29785C1.08984 9.53483 1.17188 9.74447 1.33594 9.92676C1.51823 10.0908 1.72786 10.1729 1.96484 10.1729C2.20182 10.1729 2.41146 10.0908 2.59375 9.92676L4.58984 7.90332V12.7979C4.58984 13.0531 4.67188 13.2627 4.83594 13.4268C5 13.5908 5.20964 13.6729 5.46484 13.6729C5.72005 13.6729 5.92969 13.5908 6.09375 13.4268C6.25781 13.2627 6.33984 13.0531 6.33984 12.7979V7.90332L8.33594 9.92676C8.51823 10.0908 8.72786 10.1729 8.96484 10.1729C9.20182 10.1729 9.41146 10.0908 9.59375 9.92676C9.75781 9.74447 9.83984 9.53483 9.83984 9.29785C9.83984 9.06087 9.75781 8.85124 9.59375 8.66895L6.09375 5.16895Z" fill="#0F172A"/>
</svg>
