<svg width="13" height="13" viewBox="0 0 13 13" fill="none" xmlns="http://www.w3.org/2000/svg">
<path d="M5.78125 10.0391C5.9375 10.1797 6.11719 10.25 6.32031 10.25C6.52344 10.25 6.70313 10.1797 6.85938 10.0391L11.3594 5.53906C11.5 5.38281 11.5703 5.20313 11.5703 5C11.5703 4.79687 11.5 4.61719 11.3594 4.46094C11.2031 4.32031 11.0234 4.25 10.8203 4.25C10.6172 4.25 10.4375 4.32031 10.2812 4.46094L6.32031 8.44531L2.35938 4.46094C2.20313 4.32031 2.02344 4.25 1.82031 4.25C1.61719 4.25 1.4375 4.32031 1.28125 4.46094C1.14062 4.61719 1.07031 4.79687 1.07031 5C1.07031 5.20313 1.14062 5.38281 1.28125 5.53906L5.78125 10.0391Z" fill="white"/>
</svg>
