<svg width="136" height="50" viewBox="0 0 136 50" fill="none" xmlns="http://www.w3.org/2000/svg">
<g clip-path="url(#clip0_2_4244)">
<path d="M0.0148926 6.82821L0.813709 3.64378L1.61253 0.693595L2.41134 0L3.21016 4.11359L4.00898 6.51044L4.80779 10.602L5.60661 12.566L6.40543 13.0795L7.20424 7.17465L8.00306 5.96813L8.80188 7.13743L9.60069 5.82055L10.3995 4.9613L11.1983 3.80223L11.9971 2.8382L12.796 5.35837L13.5948 3.18944L14.3936 0.578013L15.1924 6.86016L15.9912 16.9686L16.79 29.1384L17.5889 23.0757L18.3877 33.6831L19.1865 29.8496L19.9853 34.9348L20.7841 37.7497L21.5829 39.2881L22.3818 35.7989L23.1806 36.6045L23.9794 38.6216L24.7782 35.5354L25.577 33.4019L26.3758 31.3612L27.1747 29.8955L27.9735 31.8428L28.7723 31.595L29.5711 27.7227L30.3699 29.9073L31.1687 27.595L31.9676 35.9441L32.7664 35.5742L33.5652 37.0969L34.364 36.4782L35.1628 33.3313L35.9616 33.7406L36.7605 34.9577L37.5593 38.807L38.3581 40.9255L39.1569 50L39.9557 47.7493L40.7545 42.1425L41.5534 46.8246L42.3522 46.0404L43.151 47.9787L43.9498 45.7661L44.7486 43.4984L45.5474 41.9587L46.3463 40.4417L47.1451 38.1039L47.9439 38.5051L48.7427 34.9098L49.5415 37.7554L50.3403 47.0463L51.1392 40.2559L51.938 39.3824L52.7368 41.9066L53.5356 41.7155L54.3344 35.1285L55.1332 42.3105L55.9321 39.8864L56.7309 44.5071L57.5297 41.0948L58.3285 38.1493L59.1273 35.3262L59.9261 41.9987L60.725 39.7399L61.5238 39.7757L62.3226 42.1164L63.1214 45.3545L63.9202 37.9231L64.719 39.693L65.5179 40.3076L66.3167 37.6762L67.1155 34.3173L67.9143 33.7757L68.7131 31.7478L69.5119 32.2906L70.3108 34.2171L71.1096 36.4479L71.9084 31.831L72.7072 32.9309L73.506 32.4066L74.3048 29.3685L75.1037 28.1744L75.9025 27.9852L76.7013 29.4974L77.5001 27.2635L78.2989 29.1248L79.0977 28.0585L79.8966 30.985L80.6954 29.903L81.4942 25.6846L82.293 19.2151L83.0918 17.5243L83.8906 16.0852L84.6894 19.8647L85.4883 21.61L86.2871 14.9716L87.0859 19.0296L87.8847 23.4364L88.6835 24.0099L89.4823 22.4058L90.2812 24.6498L91.08 24.7718L91.8788 25.8918L92.6776 28.9056L93.4764 29.1374L94.2752 28.747L95.0741 33.2358L95.8729 31.602L96.6717 32.0486L97.4705 37.4223L98.2693 39.6516L99.0681 37.0723L99.867 36.1067L100.666 38.1009L101.465 36.6127L102.263 32.8414L103.062 34.3102L103.861 35.784L104.66 34.782L105.459 32.8212L106.257 34.3704L107.056 33.4897L107.855 33.7745L108.654 34.8944L109.453 39.1018L110.252 37.07L111.05 38.1959L111.849 37.3596L112.648 33.0604L113.447 34.9704L114.246 40.0126L115.044 40.0675L115.843 38.0049L116.642 37.7547L117.441 36.2071L118.24 37.8636L119.039 33.1566L119.837 32.1037L120.636 24.8764L121.435 24.0003L122.234 23.6675L123.033 24.8572L123.831 26.8396L124.63 29.7582L125.429 28.8057L126.228 30.8317L127.027 31.825L127.826 36.2318L128.624 39.1592L129.423 36.9084L130.222 38.9853L131.021 35.5359L131.82 38.6123L132.618 37.5986L133.417 37.5912L134.216 44.7262" stroke="#FF3A33" stroke-width="1.25"/>
</g>
<defs>
<clipPath id="clip0_2_4244">
<rect width="135" height="50" fill="white" transform="translate(0.0148926)"/>
</clipPath>
</defs>
</svg>
