<svg width="49" height="49" viewBox="0 0 49 49" fill="none" xmlns="http://www.w3.org/2000/svg">
<g clip-path="url(#clip0_3_1352)">
<mask id="mask0_3_1352" style="mask-type:luminance" maskUnits="userSpaceOnUse" x="0" y="0" width="49" height="49">
<path d="M48.2227 0.725586H0.222656V48.7256H48.2227V0.725586Z" fill="white"/>
</mask>
<g mask="url(#mask0_3_1352)">
<path d="M38.4268 0.848145H10.0187C4.67617 0.848145 0.345215 5.1791 0.345215 10.5216V38.9298C0.345215 44.2723 4.67617 48.6032 10.0187 48.6032H38.4268C43.7694 48.6032 48.1003 44.2723 48.1003 38.9298V10.5216C48.1003 5.1791 43.7694 0.848145 38.4268 0.848145Z" fill="url(#paint0_linear_3_1352)" stroke="#3F3F3F" stroke-width="0.244898"/>
<path d="M15.9385 17.2591C15.9385 15.4485 17.4062 13.9807 19.2168 13.9807H29.2338C31.0444 13.9807 32.5121 15.4485 32.5121 17.2591V35.1515C32.5121 36.1057 31.375 36.6015 30.6758 35.9523L25.3406 30.9982C24.7117 30.4142 23.7389 30.4142 23.1099 30.9982L17.7748 35.9523C17.0756 36.6015 15.9385 36.1057 15.9385 35.1515V17.2591Z" fill="#FFCC00"/>
<path d="M27.5824 21.9391C27.6621 21.8769 27.7211 21.7902 27.7514 21.6911C27.7816 21.5919 27.7815 21.4855 27.751 21.3864C27.7204 21.2874 27.6612 21.2009 27.5814 21.1389C27.5016 21.077 27.4053 21.0428 27.3061 21.041L25.3777 20.9647C25.3682 20.964 25.3591 20.9605 25.3516 20.9545C25.344 20.9485 25.3382 20.9404 25.3349 20.931L24.6685 19.0452C24.6351 18.9493 24.5743 18.8664 24.4944 18.8079C24.4145 18.7494 24.3193 18.718 24.2218 18.718C24.1244 18.718 24.0292 18.7494 23.9493 18.8079C23.8694 18.8664 23.8086 18.9493 23.7751 19.0452L23.1109 20.9378C23.1076 20.9472 23.1019 20.9553 23.0942 20.9613C23.0867 20.9673 23.0776 20.9708 23.0681 20.9715L21.1397 21.0478C21.0405 21.0495 20.9442 21.0837 20.8644 21.1456C20.7846 21.2076 20.7254 21.2941 20.6948 21.3932C20.6643 21.4922 20.6642 21.5987 20.6944 21.6978C20.7247 21.797 20.7838 21.8837 20.8634 21.9458L22.376 23.1918C22.3836 23.198 22.3892 23.2064 22.3923 23.216C22.3954 23.2256 22.3957 23.2359 22.3931 23.2457L21.8725 25.1786C21.8455 25.2771 21.8482 25.3818 21.88 25.4786C21.9119 25.5755 21.9714 25.6596 22.0506 25.7197C22.1297 25.7798 22.2245 25.8129 22.3223 25.8146C22.42 25.8161 22.5159 25.7862 22.5967 25.7287L24.1951 24.6061C24.2029 24.6005 24.2122 24.5974 24.2218 24.5974C24.2314 24.5974 24.2407 24.6005 24.2486 24.6061L25.847 25.7287C25.9267 25.7881 26.0222 25.8201 26.1202 25.8201C26.218 25.8201 26.3136 25.7881 26.3933 25.7287C26.4724 25.6691 26.5321 25.5853 26.5639 25.4889C26.5958 25.3924 26.5983 25.2879 26.5712 25.1899L26.0462 23.2502C26.0435 23.2404 26.0436 23.23 26.0467 23.2204C26.0497 23.2107 26.0555 23.2023 26.0634 23.1963L27.5824 21.9391Z" fill="white"/>
</g>
</g>
<defs>
<linearGradient id="paint0_linear_3_1352" x1="24.2228" y1="0.725696" x2="24.2228" y2="48.7257" gradientUnits="userSpaceOnUse">
<stop stop-color="#515151" stop-opacity="0.61"/>
<stop offset="1" stop-color="#1B1B1B" stop-opacity="0"/>
</linearGradient>
<clipPath id="clip0_3_1352">
<rect width="48" height="48" fill="white" transform="translate(0.222656 0.725586)"/>
</clipPath>
</defs>
</svg>
