<svg width="136" height="50" viewBox="0 0 136 50" fill="none" xmlns="http://www.w3.org/2000/svg">
<g clip-path="url(#clip0_2_2483)">
<path d="M0.0148926 7.54287L0.813709 8.90363L1.61253 7.22244L2.41134 6.81312L3.21016 8.71956L4.00898 10.5776L4.80779 12.7274L5.60661 9.27524L6.40543 9.56218L7.20424 8.36269L8.00306 4.28196L8.80188 3.32218L9.60069 5.80537L10.3995 1.58666L11.1983 0L11.9971 1.76306L12.796 3.76653L13.5948 3.14033L14.3936 5.69577L15.1924 6.57583L15.9912 10.2929L16.79 26.2829L17.5889 21.7299L18.3877 26.6685L19.1865 29.0115L19.9853 32.2068L20.7841 32.0502L21.5829 33.2979L22.3818 32.3056L23.1806 33.0899L23.9794 33.1581L24.7782 31.1199L25.577 29.0596L26.3758 28.1223L27.1747 29.8461L27.9735 31.8522L28.7723 32.4618L29.5711 31.1956L30.3699 31.1314L31.1687 29.737L31.9676 34.615L32.7664 36.539L33.5652 36.8495L34.364 39.5042L35.1628 34.9407L35.9616 35.901L36.7605 35.224L37.5593 36.7115L38.3581 37.2022L39.1569 44.1725L39.9557 42.3054L40.7545 42.1261L41.5534 44.5357L42.3522 42.8141L43.151 43.0773L43.9498 41.1235L44.7486 39.3817L45.5474 39.2474L46.3463 38.8275L47.1451 38.6554L47.9439 39.9927L48.7427 39.3107L49.5415 42.5731L50.3403 49.7028L51.1392 44.4428L51.938 44.4872L52.7368 45.8066L53.5356 46.318L54.3344 44.6837L55.1332 47.7304L55.9321 47.562L56.7309 50L57.5297 46.1243L58.3285 45.7093L59.1273 42.9631L59.9261 45.1526L60.725 44.067L61.5238 41.7933L62.3226 42.1604L63.1214 42.0356L63.9202 37.4175L64.719 39.3833L65.5179 40.7666L66.3167 39.6651L67.1155 37.3498L67.9143 38.296L68.7131 37.4002L69.5119 36.1493L70.3108 36.6521L71.1096 38.3748L71.9084 35.9577L72.7072 33.7941L73.506 35.9889L74.3048 34.6878L75.1037 33.6774L75.9025 31.6173L76.7013 31.8327L77.5001 30.7285L78.2989 30.1027L79.0977 29.7425L79.8966 30.8428L80.6954 31.2858L81.4942 31.6583L82.293 32.921L83.0918 33.9647L83.8906 36.4978L84.6894 36.1799L85.4883 35.0126L86.2871 34.1332L87.0859 33.215L87.8847 35.2723L88.6835 35.3179L89.4823 34.1452L90.2812 35.5783L91.08 34.6987L91.8788 34.3371L92.6776 36.3106L93.4764 35.6045L94.2752 35.4395L95.0741 38.6405L95.8729 37.5552L96.6717 38.0698L97.4705 38.5431L98.2693 39.8959L99.0681 37.9916L99.867 36.6885L100.666 37.6875L101.465 37.7219L102.263 35.3306L103.062 36.575L103.861 37.7699L104.66 37.9963L105.459 38.1727L106.257 37.4543L107.056 36.6144L107.855 37.2907L108.654 35.8774L109.453 36.8088L110.252 34.9018L111.05 34.3513L111.849 34.152L112.648 31.5857L113.447 28.7177L114.246 30.8103L115.044 31.689L115.843 28.5437L116.642 30.6266L117.441 29.7839L118.24 30.897L119.039 28.0298L119.837 26.6755L120.636 24.4568L121.435 23.5723L122.234 24.6679L123.033 25.6027L123.831 27.8526L124.63 28.9706L125.429 27.4224L126.228 29.18L127.027 30.2916L127.826 35.1805L128.624 34.6271L129.423 35.4407L130.222 37.4224L131.021 32.8234L131.82 31.5172L132.618 31.2777L133.417 30.4141L134.216 36.4627" stroke="#FF3A33" stroke-width="1.25"/>
</g>
<defs>
<clipPath id="clip0_2_2483">
<rect width="135" height="50" fill="white" transform="translate(0.0148926)"/>
</clipPath>
</defs>
</svg>
