<svg width="13" height="13" viewBox="0 0 13 13" fill="none" xmlns="http://www.w3.org/2000/svg">
<path d="M6.5 1.21875C7.46484 1.21875 8.34505 1.45573 9.14062 1.92969C9.9362 2.38672 10.5794 3.02995 11.0703 3.85938C11.5443 4.6888 11.7812 5.56901 11.7812 6.5C11.7812 7.43099 11.5443 8.3112 11.0703 9.14062C10.5794 9.97005 9.9362 10.6133 9.14062 11.0703C8.34505 11.5443 7.46484 11.7812 6.5 11.7812C5.53516 11.7812 4.65495 11.5443 3.85938 11.0703C3.0638 10.6133 2.42057 9.97005 1.92969 9.14062C1.45573 8.3112 1.21875 7.43099 1.21875 6.5C1.21875 5.56901 1.45573 4.6888 1.92969 3.85938C2.42057 3.02995 3.0638 2.38672 3.85938 1.92969C4.65495 1.45573 5.53516 1.21875 6.5 1.21875ZM6.5 13C7.6849 12.9831 8.76823 12.6953 9.75 12.1367C10.7318 11.5612 11.5273 10.7656 12.1367 9.75C12.7122 8.71745 13 7.63411 13 6.5C13 5.36589 12.7122 4.28255 12.1367 3.25C11.5273 2.23438 10.7318 1.4388 9.75 0.863281C8.76823 0.304688 7.6849 0.0169271 6.5 0C5.3151 0.0169271 4.23177 0.304688 3.25 0.863281C2.26823 1.4388 1.47266 2.23438 0.863281 3.25C0.28776 4.28255 0 5.36589 0 6.5C0 7.63411 0.28776 8.71745 0.863281 9.75C1.47266 10.7656 2.26823 11.5612 3.25 12.1367C4.23177 12.6953 5.3151 12.9831 6.5 13ZM5.48438 8.53125C5.11198 8.5651 4.90885 8.76823 4.875 9.14062C4.90885 9.51302 5.11198 9.71615 5.48438 9.75H7.51562C7.88802 9.71615 8.09115 9.51302 8.125 9.14062C8.09115 8.76823 7.88802 8.5651 7.51562 8.53125H7.3125V6.29688C7.27865 5.92448 7.07552 5.72135 6.70312 5.6875H5.48438C5.11198 5.72135 4.90885 5.92448 4.875 6.29688C4.90885 6.66927 5.11198 6.8724 5.48438 6.90625H6.09375V8.53125H5.48438ZM6.5 4.875C6.73698 4.875 6.93164 4.79883 7.08398 4.64648C7.23633 4.49414 7.3125 4.29948 7.3125 4.0625C7.3125 3.82552 7.23633 3.63086 7.08398 3.47852C6.93164 3.32617 6.73698 3.25 6.5 3.25C6.26302 3.25 6.06836 3.32617 5.91602 3.47852C5.76367 3.63086 5.6875 3.82552 5.6875 4.0625C5.6875 4.29948 5.76367 4.49414 5.91602 4.64648C6.06836 4.79883 6.26302 4.875 6.5 4.875Z" fill="#F6E717"/>
</svg>
