<svg width="136" height="50" viewBox="0 0 136 50" fill="none" xmlns="http://www.w3.org/2000/svg">
<g clip-path="url(#clip0_2_4674)">
<path d="M0.0148926 43.8708L0.813709 44.1022L1.61253 44.0129L2.41134 41.6766L3.21016 43.0367L4.00898 45.9762L4.80779 49.1573L5.60661 43.2053L6.40543 43.3965L7.20424 42.4076L8.00306 39.0127L8.80188 37.3148L9.60069 40.3639L10.3995 37.0297L11.1983 37.5865L11.9971 38.2847L12.796 36.3979L13.5948 36.6539L14.3936 39.6238L15.1924 40.7016L15.9912 43.3046L16.79 50L17.5889 45.5064L18.3877 45.552L19.1865 40.077L19.9853 37.7775L20.7841 37.722L21.5829 36.5046L22.3818 38.3983L23.1806 40.7886L23.9794 40.9085L24.7782 37.7992L25.577 34.3126L26.3758 33.2528L27.1747 32.363L27.9735 34.0752L28.7723 33.2096L29.5711 3.98941L30.3699 6.67254L31.1687 3.54048L31.9676 10.0098L32.7664 0L33.5652 4.51685L34.364 6.31184L35.1628 3.41338L35.9616 4.96111L36.7605 2.86132L37.5593 7.89648L38.3581 10.1499L39.1569 20.5241L39.9557 20.7685L40.7545 18.5877L41.5534 23.5947L42.3522 19.3415L43.151 19.6178L43.9498 16.6441L44.7486 16.7681L45.5474 18.5863L46.3463 19.4445L47.1451 19.5015L47.9439 17.3765L48.7427 16.4093L49.5415 22.4856L50.3403 27.6549L51.1392 24.087L51.938 20.7244L52.7368 22.1107L53.5356 23.1395L54.3344 22.6917L55.1332 32.8644L55.9321 34.2021L56.7309 35.188L57.5297 28.277L58.3285 31.7238L59.1273 30.1429L59.9261 33.7545L60.725 32.811L61.5238 33.1614L62.3226 32.5863L63.1214 36.7059L63.9202 30.5003L64.719 32.8364L65.5179 33.9495L66.3167 34.3569L67.1155 34.2632L67.9143 35.0232L68.7131 33.832L69.5119 32.3107L70.3108 34.0283L71.1096 34.3532L71.9084 32.4032L72.7072 29.452L73.506 33.1642L74.3048 31.6633L75.1037 28.9796L75.9025 28.0149L76.7013 25.8215L77.5001 24.2574L78.2989 25.9067L79.0977 28.3188L79.8966 28.6663L80.6954 28.7956L81.4942 25.3735L82.293 19.1901L83.0918 16.8105L83.8906 11.7509L84.6894 9.6313L85.4883 12.1583L86.2871 9.55483L87.0859 13.0805L87.8847 17.3908L88.6835 16.2274L89.4823 16.5115L90.2812 20.6356L91.08 20.6467L91.8788 18.501L92.6776 19.5796L93.4764 18.6215L94.2752 19.1132L95.0741 22.2932L95.8729 19.9915L96.6717 22.3028L97.4705 23.8737L98.2693 23.9459L99.0681 22.7825L99.867 22.2066L100.666 22.3308L101.465 18.293L102.263 19.22L103.062 22.1219L103.861 24.188L104.66 24.0449L105.459 23.5505L106.257 21.6696L107.056 21.1669L107.855 19.6897L108.654 21.0629L109.453 22.8099L110.252 22.72L111.05 22.5352L111.849 24.418L112.648 20.2626L113.447 21.3786L114.246 22.8851L115.044 21.9867L115.843 20.9492L116.642 22.8992L117.441 22.7349L118.24 22.5664L119.039 19.9519L119.837 21.454L120.636 18.5639L121.435 13.6361L122.234 17.8809L123.033 18.3587L123.831 18.252L124.63 18.6099L125.429 17.5125L126.228 20.3164L127.027 22.6241L127.826 25.6498L128.624 28.4436L129.423 26.4632L130.222 26.9836L131.021 24.5334L131.82 25.6494L132.618 25.54L133.417 25.8672L134.216 30.2648" stroke="#57FF84" stroke-width="1.25"/>
</g>
<defs>
<clipPath id="clip0_2_4674">
<rect width="135" height="50" fill="white" transform="translate(0.0148926)"/>
</clipPath>
</defs>
</svg>
