<svg width="136" height="50" viewBox="0 0 136 50" fill="none" xmlns="http://www.w3.org/2000/svg">
<g clip-path="url(#clip0_2_3957)">
<path d="M0.0148926 2.16966L0.813709 0L1.61253 1.67253L2.41134 0.511975L3.21016 2.98203L4.00898 9.17492L4.80779 10.837L5.60661 5.38709L6.40543 8.71115L7.20424 8.34066L8.00306 6.42128L8.80188 5.1895L9.60069 6.77862L10.3995 4.09582L11.1983 4.49123L11.9971 3.82982L12.796 3.83906L13.5948 2.57005L14.3936 4.49631L15.1924 5.76669L15.9912 12.5384L16.79 19.6933L17.5889 20.9267L18.3877 24.2507L19.1865 22.5944L19.9853 24.0587L20.7841 27.3854L21.5829 26.8026L22.3818 26.9697L23.1806 29.8959L23.9794 28.9796L24.7782 29.664L25.577 26.5749L26.3758 27.053L27.1747 27.4965L27.9735 26.704L28.7723 24.9744L29.5711 20.6061L30.3699 20.8116L31.1687 19.9443L31.9676 22.4002L32.7664 21.1712L33.5652 22.9369L34.364 24.7261L35.1628 30.0813L35.9616 30.1375L36.7605 27.887L37.5593 30.2363L38.3581 31.8068L39.1569 41.2105L39.9557 39.122L40.7545 37.5493L41.5534 39.9992L42.3522 38.3411L43.151 39.4988L43.9498 39.0115L44.7486 38.8168L45.5474 38.401L46.3463 38.0713L47.1451 37.0924L47.9439 39.7304L48.7427 41.6076L49.5415 45.6297L50.3403 50L51.1392 43.0531L51.938 39.1088L52.7368 40.6367L53.5356 42.0098L54.3344 44.4959L55.1332 49.9816L55.9321 48.1405L56.7309 48.98L57.5297 45.7679L58.3285 46.9872L59.1273 42.6841L59.9261 44.5231L60.725 42.8554L61.5238 42.1155L62.3226 42.5748L63.1214 41.5933L63.9202 36.3469L64.719 39.4753L65.5179 37.5488L66.3167 37.1026L67.1155 33.2646L67.9143 32.5534L68.7131 30.7582L69.5119 27.3015L70.3108 25.5798L71.1096 28.1681L71.9084 24.1173L72.7072 25.614L73.506 26.4113L74.3048 27.501L75.1037 22.2176L75.9025 21.5335L76.7013 23.9336L77.5001 22.8436L78.2989 20.9336L79.0977 21.0272L79.8966 23.0507L80.6954 23.1843L81.4942 23.0261L82.293 23.8875L83.0918 25.0529L83.8906 28.082L84.6894 29.6846L85.4883 28.1253L86.2871 28.4587L87.0859 27.7789L87.8847 29.3995L88.6835 28.192L89.4823 26.8192L90.2812 28.9131L91.08 28.0297L91.8788 25.3266L92.6776 28.4944L93.4764 28.9116L94.2752 28.6736L95.0741 31.734L95.8729 30.2088L96.6717 31.3767L97.4705 32.8745L98.2693 34.319L99.0681 30.5961L99.867 27.5473L100.666 27.1411L101.465 29.4628L102.263 26.0377L103.062 26.6136L103.861 27.8651L104.66 29.6652L105.459 29.5838L106.257 29.2518L107.056 29.2889L107.855 27.7615L108.654 26.1069L109.453 25.2882L110.252 24.1257L111.05 23.3503L111.849 21.3655L112.648 15.1536L113.447 13.6837L114.246 17.9658L115.044 18.6825L115.843 17.527L116.642 21.4893L117.441 21.2657L118.24 23.4507L119.039 21.5831L119.837 20.4144L120.636 14.5039L121.435 10.712L122.234 12.79L123.033 9.10981L123.831 6.72621L124.63 8.17632L125.429 6.82049L126.228 8.09827L127.027 4.43687L127.826 11.2721L128.624 15.5415L129.423 13.7669L130.222 15.2005L131.021 9.21549L131.82 8.36001L132.618 10.817L133.417 4.76184L134.216 11.6313" stroke="#FF3A33" stroke-width="1.25"/>
</g>
<defs>
<clipPath id="clip0_2_3957">
<rect width="135" height="50" fill="white" transform="translate(0.0148926)"/>
</clipPath>
</defs>
</svg>
