<svg width="15" height="14" viewBox="0 0 15 14" fill="none" xmlns="http://www.w3.org/2000/svg">
<path d="M6.70117 11.1289C6.88346 11.293 7.0931 11.375 7.33008 11.375C7.56706 11.375 7.77669 11.293 7.95898 11.1289L13.209 5.87891C13.373 5.69661 13.4551 5.48698 13.4551 5.25C13.4551 5.01302 13.373 4.80339 13.209 4.62109C13.0267 4.45703 12.8171 4.375 12.5801 4.375C12.3431 4.375 12.1335 4.45703 11.9512 4.62109L7.33008 9.26953L2.70898 4.62109C2.52669 4.45703 2.31706 4.375 2.08008 4.375C1.8431 4.375 1.63346 4.45703 1.45117 4.62109C1.28711 4.80339 1.20508 5.01302 1.20508 5.25C1.20508 5.48698 1.28711 5.69661 1.45117 5.87891L6.70117 11.1289Z" fill="white"/>
</svg>
