<svg width="136" height="50" viewBox="0 0 136 50" fill="none" xmlns="http://www.w3.org/2000/svg">
<g clip-path="url(#clip0_2_3814)">
<path d="M0.0148926 3.76484L0.818464 4.92368L1.62204 2.41951L2.42561 2.12387L3.22918 8.80387L4.03275 12.0966L4.83632 7.78264L5.63989 6.73215L6.44346 5.62014L7.24704 0.656645L8.05061 2.32696L8.85418 3.9582L9.65775 3.18703L10.4613 1.59602L11.2649 3.45269L12.0685 1.27384L12.872 0L13.6756 2.88845L14.4792 5.90462L15.2828 11.5592L16.0863 22.1227L16.8899 24.3935L17.6935 31.4236L18.497 33.208L19.3006 34.0506L20.1042 35.6908L20.9077 36.2563L21.7113 37.7199L22.5149 40.1757L23.3185 36.7219L24.122 31.3527L24.9256 30.1024L25.7292 30.992L26.5327 28.4053L27.3363 30.0981L28.1399 29.5747L28.9435 14.8861L29.747 16.1616L30.5506 9.64107L31.3542 19.6442L32.1577 21.5686L32.9613 19.1081L33.7649 24.9652L34.5685 20.2554L35.372 23.4198L36.1756 16.9451L36.9792 20.5233L37.7827 23.9936L38.5863 34.0496L39.3899 32.4438L40.1935 28.5173L40.997 33.7181L41.8006 30.5762L42.6042 30.4653L43.4077 25.448L44.2113 22.2058L45.0149 20.4215L45.8185 17.862L46.622 18.7311L47.4256 23.0796L48.2292 23.662L49.0327 31.8049L49.8363 36.6926L50.6399 34.1378L51.4435 33.3033L52.247 41.33L53.0506 40.8081L53.8542 37.1071L54.6577 43.3553L55.4613 42.8478L56.2649 50L57.0685 43.5847L57.872 43.5503L58.6756 41.1482L59.4792 45.9118L60.2827 41.6146L61.0863 40.0412L61.8899 41.7736L62.6935 44.532L63.497 39.4697L64.3006 42.4221L65.1042 43.3084L65.9078 42.4703L66.7113 40.7934L67.5149 40.9175L68.3185 37.8064L69.122 35.6219L69.9256 37.2835L70.7292 37.5014L71.5328 35.5896L72.3363 31.1772L73.1399 34.1903L73.9435 30.3074L74.747 28.4669L75.5506 23.6127L76.3542 24.2632L77.1578 20.5745L77.9613 19.8014L78.7649 20.5849L79.5685 23.435L80.372 23.9872L81.1756 22.6366L81.9792 19.4449L82.7828 16.329L83.5863 21.3079L84.3899 19.5654L85.1935 18.5106L85.997 16.1123L86.8006 15.4745L87.6042 17.1097L88.4078 16.5441L89.2113 13.31L90.0149 17.0785L90.8185 16.8189L91.622 13.2184L92.4256 16.9156L93.2292 15.9536L94.0328 16.309L94.8363 20.2404L95.6399 16.2158L96.4435 20.5847L97.247 21.6197L98.0506 23.3439L98.8542 20.1072L99.6578 16.5213L100.461 13.7637L101.265 15.1842L102.068 9.7883L102.872 12.8726L103.676 17.5237L104.479 19.9238L105.283 18.5631L106.086 18.2442L106.89 13.5604L107.693 15.3736L108.497 12.9541L109.301 14.8608L110.104 12.6209L110.908 11.2294L111.711 13.5485L112.515 6.59814L113.318 9.16889L114.122 11.7052L114.926 12.8147L115.729 13.6614L116.533 17.4361L117.336 17.328L118.14 20.2436L118.943 17.4028L119.747 15.39L120.551 8.64101L121.354 4.27338L122.158 8.66938L122.961 7.14357L123.765 9.69472L124.568 9.69317L125.372 7.8593L126.176 9.99757L126.979 9.0635L127.783 14.8185L128.586 21.1619L129.39 18.497L130.193 18.7553L130.997 15.5457L131.801 15.9266L132.604 13.6243L133.408 9.50167L134.211 21.3493" stroke="#FF3A33" stroke-width="1.25"/>
</g>
<defs>
<clipPath id="clip0_2_3814">
<rect width="135" height="50" fill="white" transform="translate(0.0148926)"/>
</clipPath>
</defs>
</svg>
