<svg width="136" height="50" viewBox="0 0 136 50" fill="none" xmlns="http://www.w3.org/2000/svg">
<g clip-path="url(#clip0_2_3490)">
<path d="M0.0148926 8.20813L0.813709 12.4307L1.61253 10.1429L2.41134 6.54699L3.21016 5.75028L4.00898 10.138L4.80779 16.4718L5.60661 9.80458L6.40543 8.54606L7.20424 9.76712L8.00306 5.41545L8.80188 0.379698L9.60069 2.02069L10.3995 2.39056L11.1983 2.69725L11.9971 4.86966L12.796 2.86829L13.5948 0.18737L14.3936 0.609883L15.1924 0L15.9912 6.59605L16.79 18.532L17.5889 9.87581L18.3877 15.4674L19.1865 10.6247L19.9853 18.3014L20.7841 21.3108L21.5829 21.7264L22.3818 17.5905L23.1806 19.3747L23.9794 15.0428L24.7782 15.3916L25.577 12.7315L26.3758 9.4592L27.1747 9.87973L27.9735 7.13722L28.7723 7.56819L29.5711 2.56878L30.3699 5.41346L31.1687 4.36903L31.9676 15.0605L32.7664 20.6873L33.5652 27.1145L34.364 29.5324L35.1628 24.1062L35.9616 22.8012L36.7605 23.5133L37.5593 28.4501L38.3581 29.2581L39.1569 37.7639L39.9557 36.5926L40.7545 28.9452L41.5534 29.4491L42.3522 29.2679L43.151 27.5696L43.9498 27.2997L44.7486 25.9353L45.5474 28.2004L46.3463 24.9406L47.1451 28.1446L47.9439 29.4973L48.7427 27.0693L49.5415 32.4464L50.3403 45.7139L51.1392 36.4757L51.938 31.5443L52.7368 38.4663L53.5356 41.6795L54.3344 38.8108L55.1332 43.672L55.9321 44.1198L56.7309 48.7081L57.5297 46.6144L58.3285 49.4495L59.1273 45.8152L59.9261 50L60.725 48.1703L61.5238 47.1009L62.3226 48.4812L63.1214 48.762L63.9202 45.5429L64.719 47.7035L65.5179 47.5638L66.3167 47.5542L67.1155 45.2258L67.9143 43.776L68.7131 41.9799L69.5119 37.3931L70.3108 36.7955L71.1096 39.2121L71.9084 34.0461L72.7072 36.5792L73.506 36.2797L74.3048 36.9205L75.1037 35.2256L75.9025 31.7369L76.7013 31.0224L77.5001 31.8999L78.2989 31.1534L79.0977 30.9926L79.8966 33.6241L80.6954 35.5898L81.4942 34.8689L82.293 33.4188L83.0918 35.1703L83.8906 37.7L84.6894 39.3413L85.4883 39.3528L86.2871 36.6611L87.0859 34.942L87.8847 35.8014L88.6835 34.7773L89.4823 35.87L90.2812 35.6716L91.08 36.6589L91.8788 35.7344L92.6776 37.6977L93.4764 37.2506L94.2752 37.7866L95.0741 41.3195L95.8729 39.4779L96.6717 41.7634L97.4705 44.356L98.2693 44.6759L99.0681 43.0565L99.867 41.5748L100.666 42.8048L101.465 42.9009L102.263 40.8164L103.062 42.3104L103.861 43.7568L104.66 43.7494L105.459 43.7549L106.257 43.6012L107.056 43.2358L107.855 43.8004L108.654 42.8105L109.453 43.4779L110.252 42.5634L111.05 42.5387L111.849 41.7272L112.648 34.0333L113.447 32.6049L114.246 33.0841L115.044 33.8782L115.843 31.7944L116.642 33.7235L117.441 34.7618L118.24 37.974L119.039 32.451L119.837 30.823L120.636 24.6111L121.435 23.794L122.234 21.426L123.033 20.5835L123.831 23.4472L124.63 24.0984L125.429 21.9824L126.228 23.4614L127.027 24.9009L127.826 27.7445L128.624 29.849L129.423 27.7557L130.222 30.6079L131.021 26.675L131.82 27.0066L132.618 25.89L133.417 25.0418L134.216 30.041" stroke="#FF3A33" stroke-width="1.25"/>
</g>
<defs>
<clipPath id="clip0_2_3490">
<rect width="135" height="50" fill="white" transform="translate(0.0148926)"/>
</clipPath>
</defs>
</svg>
