<svg width="157" height="58" viewBox="0 0 157 58" fill="none" xmlns="http://www.w3.org/2000/svg">
<g clip-path="url(#clip0_2_1276)">
<path d="M-0.00500488 48.0045L0.927078 46.8557L1.85916 48.4372L2.79125 48.4938L3.72333 46.4225L4.65541 52.905L5.5875 53.1336L6.51958 51.0184L7.45166 42.036L8.38375 44.9182L9.31583 36.8508L10.2479 38.606L11.18 40.3676L12.1121 30.2088L13.0442 35.7122L13.9762 38.2118L14.9083 33.1575L15.8404 33.7836L16.7725 33.2383L17.7046 38.7204L18.6367 39.1443L19.5687 44.919L20.5008 43.4071L21.4329 43.1957L22.365 45.909L23.2971 45.0545L24.2292 41.7365L25.1612 44.972L26.0933 43.4439L27.0254 40.1026L27.9575 47.4894L28.8896 47.0542L29.8217 52.6526L30.7537 49.9938L31.6858 52.0148L32.6179 48.0555L33.55 49.3386L34.4821 52.2446L35.4142 53.64L36.3462 57.9982L37.2783 53.9804L38.2104 50.1895L39.1425 48.4818L40.0746 49.5882L41.0067 45.4876L41.9387 42.4373L42.8708 39.3246L43.8029 41.4426L44.735 40.7553L45.6671 33.0911L46.5992 33.2922L47.5312 31.4208L48.4633 34.1299L49.3954 33.8943L50.3275 20.8113L51.2596 18.4147L52.1917 23.7119L53.1237 20.2958L54.0558 26.4691L54.9879 29.2041L55.92 24.0466L56.8521 23.8404L57.7842 22.8923L58.7162 21.1029L59.6483 23.4192L60.5804 26.8793L61.5125 19.027L62.4446 18.5716L63.3767 16.1106L64.3087 15.9497L65.2408 15.1577L66.1729 11.2731L67.105 11.4894L68.0371 17.1593L68.9692 16.362L69.9012 12.0294L70.8333 12.6972L71.7654 3.2563L72.6975 6.19031L73.6296 0.00186157L74.5617 7.30738L75.4937 7.04956L76.4258 9.8677L77.3579 8.52298L78.29 8.42627L79.2221 6.60288L80.1542 8.13133L81.0862 6.44527L82.0183 5.83764L82.9504 2.58895L83.8825 4.66262L84.8146 5.22163L85.7467 7.60275L86.6787 11.3162L87.6108 10.99L88.5429 15.157L89.475 14.1664L90.4071 11.4354L91.3392 11.0989L92.2712 15.1241L93.2033 15.5228L94.1354 11.4982L95.0675 12.9708L95.9996 14.9115L96.9317 13.0222L97.8637 11.7412L98.7958 11.5343L99.7279 13.0141L100.66 13.6396L101.592 12.3277L102.524 10.4392L103.456 13.8302L104.388 10.7794L105.32 11.5937L106.252 10.6465L107.185 12.615L108.117 14.709L109.049 17.4459L109.981 19.2457L110.913 17.7832L111.845 16.9232L112.777 17.2496L113.709 14.8879L114.641 16.7368L115.573 13.1109L116.505 14.5118L117.437 11.8231L118.37 11.3951L119.302 9.91484L120.234 10.0691L121.166 7.21322L122.098 9.6174L123.03 8.45103L123.962 12.0794L124.894 13.2298L125.826 16.9128L126.758 26.8019L127.69 31.1705L128.623 28.398L129.555 29.6141L130.487 26.9771L131.419 29.29L132.351 25.5145L133.283 28.186L134.215 39.601L135.147 40.4531L136.079 35.7023L137.011 33.3626L137.943 35.3203L138.875 38.2233L139.807 42.965L140.74 43.4745L141.672 41.0755L142.604 45.0424L143.536 42.5327L144.468 37.8601L145.4 39.761L146.332 44.0925L147.264 47.0827L148.196 42.6176L149.128 43.0123L150.06 42.903L150.992 37.6672L151.925 34.4316L152.857 36.5744L153.789 31.1437L154.721 31.6308L155.653 33.0224" stroke="#57FF84" stroke-width="1.44991"/>
</g>
<defs>
<clipPath id="clip0_2_1276">
<rect width="156.59" height="57.9963" fill="white" transform="translate(-0.00500488 0.00186157)"/>
</clipPath>
</defs>
</svg>
