<svg width="136" height="50" viewBox="0 0 136 50" fill="none" xmlns="http://www.w3.org/2000/svg">
<g clip-path="url(#clip0_2_4352)">
<path d="M0.0148926 5.19948L0.818464 5.0071L1.62204 0L2.42561 1.65821L3.22918 4.42722L4.03275 13.7956L4.83632 7.61981L5.63989 4.50972L6.44346 8.19916L7.24704 5.38035L8.05061 4.02944L8.85418 6.50538L9.65775 3.19509L10.4613 1.17471L11.2649 2.4803L12.0685 1.03688L12.872 1.68033L13.6756 2.93026L14.4792 4.44706L15.2828 13.6041L16.0863 12.9819L16.8899 18.8402L17.6935 24.6629L18.497 36.4876L19.3006 31.3729L20.1042 33.7756L20.9077 39.6617L21.7113 36.3569L22.5149 36.3467L23.3185 33.6568L24.122 32.6429L24.9256 32.9223L25.7292 32.1204L26.5327 30.226L27.3363 31.1884L28.1399 29.4614L28.9435 26.2145L29.747 26.4177L30.5506 26.5939L31.3542 32.7199L32.1577 33.7668L32.9613 35.3981L33.7649 34.7377L34.5685 41.271L35.372 36.2506L36.1756 35.2643L36.9792 35.4276L37.7827 36.6744L38.5863 41.4338L39.3899 44.8562L40.1935 40.1167L40.997 41.6744L41.8006 42.027L42.6042 41.4571L43.4077 39.7249L44.2113 37.8102L45.0149 38.6902L45.8185 38.0182L46.622 36.3426L47.4256 38.4995L48.2292 38.9426L49.0327 39.9993L49.8363 45.3091L50.6399 42.9683L51.4435 42.2351L52.247 43.3147L53.0506 45.3241L53.8542 45.672L54.6577 45.563L55.4613 47.311L56.2649 50L57.0685 47.9217L57.872 47.299L58.6756 46.6636L59.4792 47.171L60.2827 46.6617L61.0863 46.9703L61.8899 45.1167L62.6935 45.4754L63.497 42.9965L64.3006 41.3337L65.1042 42.5328L65.9078 39.8116L66.7113 38.473L67.5149 37.1003L68.3185 38.4227L69.122 34.7323L69.9256 37.7282L70.7292 36.9383L71.5328 38.8644L72.3363 38.8208L73.1399 35.5514L73.9435 39.6323L74.747 36.5952L75.5506 33.8318L76.3542 33.5562L77.1578 33.1005L77.9613 32.5653L78.7649 32.6142L79.5685 34.8873L80.372 34.7595L81.1756 35.6735L81.9792 32.884L82.7828 33.469L83.5863 35.2518L84.3899 37.508L85.1935 36.3232L85.997 33.9351L86.8006 32.6945L87.6042 31.5961L88.4078 32.2733L89.2113 33.2407L90.0149 33.836L90.8185 33.5302L91.622 33.0555L92.4256 34.1234L93.2292 36.3628L94.0328 36.3224L94.8363 37.5412L95.6399 38.0761L96.4435 38.6181L97.247 42.1722L98.0506 43.4543L98.8542 40.4775L99.6578 39.2494L100.461 39.1965L101.265 40.4268L102.068 38.3332L102.872 39.9011L103.676 40.7915L104.479 42.1926L105.283 40.7403L106.086 39.1758L106.89 38.3001L107.693 38.6108L108.497 38.007L109.301 39.1144L110.104 37.6128L110.908 37.5589L111.711 35.9307L112.515 33.179L113.318 33.7283L114.122 32.4799L114.926 33.7948L115.729 34.2785L116.533 34.169L117.336 34.4998L118.14 35.7145L118.943 35.0839L119.747 33.0833L120.551 30.0565L121.354 27.7964L122.158 26.6139L122.961 28.2404L123.765 28.4847L124.568 29.5799L125.372 26.5487L126.176 28.3442L126.979 27.9391L127.783 31.932L128.586 34.9521L129.39 34.9961L130.193 34.9719L130.997 33.1286L131.801 28.0006L132.604 31.563L133.408 30.9966L134.211 38.1371" stroke="#FF3A33" stroke-width="1.25"/>
</g>
<defs>
<clipPath id="clip0_2_4352">
<rect width="135" height="50" fill="white" transform="translate(0.0148926)"/>
</clipPath>
</defs>
</svg>
