<svg width="136" height="50" viewBox="0 0 136 50" fill="none" xmlns="http://www.w3.org/2000/svg">
<g clip-path="url(#clip0_2_3598)">
<path d="M0.0148926 2.48181L0.813709 3.99004L1.61253 4.89851L2.41134 2.28003L3.21016 4.9545L4.00898 9.63106L4.80779 11.8572L5.60661 6.78909L6.40543 8.67889L7.20424 7.05005L8.00306 4.83508L8.80188 0L9.60069 2.78115L10.3995 0.563482L11.1983 0.83654L11.9971 2.75284L12.796 0.981829L13.5948 0.152767L14.3936 2.30517L15.1924 1.87098L15.9912 8.58328L16.79 14.3029L17.5889 18.3502L18.3877 26.365L19.1865 26.5021L19.9853 30.9875L20.7841 32.7592L21.5829 33.5391L22.3818 32.4294L23.1806 34.3099L23.9794 34.263L24.7782 34.0491L25.577 31.9456L26.3758 29.8362L27.1747 29.0611L27.9735 30.5737L28.7723 29.0546L29.5711 26.1341L30.3699 26.585L31.1687 26.8567L31.9676 32.1239L32.7664 35.8705L33.5652 36.0243L34.364 37.6946L35.1628 32.9223L35.9616 33.9468L36.7605 33.0501L37.5593 34.0646L38.3581 34.2996L39.1569 40.6446L39.9557 41.7917L40.7545 38.4765L41.5534 40.998L42.3522 38.8341L43.151 38.7893L43.9498 37.6021L44.7486 36.9007L45.5474 38.7554L46.3463 37.9522L47.1451 39.0613L47.9439 40.094L48.7427 39.0527L49.5415 42.7769L50.3403 49.2582L51.1392 44.6296L51.938 43.391L52.7368 46.8352L53.5356 46.3476L54.3344 45.485L55.1332 48.1737L55.9321 47.184L56.7309 50L57.5297 48.1374L58.3285 47.9563L59.1273 45.3418L59.9261 48.8069L60.725 46.4106L61.5238 45.9592L62.3226 46.0825L63.1214 47.9929L63.9202 43.5581L64.719 44.9487L65.5179 46.111L66.3167 45.6194L67.1155 43.189L67.9143 43.2443L68.7131 41.1595L69.5119 39.0933L70.3108 39.707L71.1096 39.6376L71.9084 37.5144L72.7072 37.5799L73.506 37.7522L74.3048 37.9025L75.1037 36.3817L75.9025 33.7647L76.7013 33.9557L77.5001 32.998L78.2989 32.5512L79.0977 33.3379L79.8966 35.0495L80.6954 36.0923L81.4942 34.2615L82.293 32.9559L83.0918 34.4171L83.8906 36.302L84.6894 38.267L85.4883 38.0397L86.2871 35.6131L87.0859 34.9952L87.8847 36.1606L88.6835 34.7298L89.4823 35.2483L90.2812 36.2888L91.08 36.126L91.8788 35.0476L92.6776 37.4392L93.4764 36.5234L94.2752 36.9838L95.0741 40.2645L95.8729 40.0507L96.6717 42.1628L97.4705 43.529L98.2693 44.5327L99.0681 41.9785L99.867 40.359L100.666 41.0145L101.465 41.3223L102.263 38.2246L103.062 39.9646L103.861 41.0279L104.66 40.8911L105.459 40.7695L106.257 40.326L107.056 40.2971L107.855 39.9722L108.654 38.9236L109.453 39.9141L110.252 38.6802L111.05 37.838L111.849 36.2075L112.648 29.5511L113.447 28.869L114.246 31.0671L115.044 32.2712L115.843 31.5016L116.642 33.1504L117.441 32.3662L118.24 35.4302L119.039 31.5431L119.837 29.8385L120.636 24.6866L121.435 24.3372L122.234 23.5738L123.033 22.187L123.831 24.1959L124.63 25.2886L125.429 24.3093L126.228 23.447L127.027 24.832L127.826 27.9253L128.624 31.6161L129.423 30.0623L130.222 31.0682L131.021 26.4208L131.82 24.4061L132.618 25.6097L133.417 22.4447L134.216 30.3101" stroke="#FF3A33" stroke-width="1.25"/>
</g>
<defs>
<clipPath id="clip0_2_3598">
<rect width="135" height="50" fill="white" transform="translate(0.0148926)"/>
</clipPath>
</defs>
</svg>
