<svg width="136" height="50" viewBox="0 0 136 50" fill="none" xmlns="http://www.w3.org/2000/svg">
<g clip-path="url(#clip0_13_825)">
<path d="M0.689941 6.45946L1.48876 8.95765L2.28757 7.85917L3.08639 5.35369L3.88521 6.04812L4.68402 7.20161L5.48284 7.18148L6.28166 4.33413L7.08047 4.45556L7.87929 4.78466L8.67811 3.06671L9.47692 1.45145L10.2757 1.31932L11.0746 0L11.8734 0.646173L12.6722 1.01789L13.471 2.21236L14.2698 1.5898L15.0686 2.93517L15.8675 4.13066L16.6663 11.1574L17.4651 15.2404L18.2639 19.1635L19.0627 21.1684L19.8615 21.4999L20.6604 22.7298L21.4592 24.2815L22.258 29.8807L23.0568 26.9453L23.8556 29.5423L24.6544 29.2268L25.4533 28.2867L26.2521 25.5613L27.0509 23.6542L27.8497 24.4525L28.6485 24.691L29.4473 25.4679L30.2462 24.5834L31.045 25.5179L31.8438 25.4761L32.6426 29.7493L33.4414 29.8986L34.2402 29.3704L35.0391 32.7216L35.8379 28.971L36.6367 31.0094L37.4355 25.9581L38.2343 30.2867L39.0331 30.3187L39.832 38.7677L40.6308 41.7325L41.4296 41.1628L42.2284 41.3069L43.0272 40.5738L43.826 42.6281L44.6249 41.6657L45.4237 38.8804L46.2225 39.3397L47.0213 38.0564L47.8201 38.3585L48.6189 39.5572L49.4178 39.0618L50.2166 42.7369L51.0154 46.862L51.8142 44.2876L52.613 42.0604L53.4118 44.492L54.2107 44.3995L55.0095 43.1181L55.8083 50L56.6071 46.2398L57.4059 49.0209L58.2047 45.9775L59.0036 45.8052L59.8024 44.4665L60.6012 47.1389L61.4 44.7795L62.1988 44.6469L62.9976 44.778L63.7965 45.6769L64.5953 40.6668L65.3941 42.6577L66.1929 41.9753L66.9917 41.3891L67.7905 40.3337L68.5893 40.7236L69.3882 40.1894L70.187 40.1403L70.9858 40.5353L71.7846 41.0298L72.5834 39.6027L73.3822 38.7408L74.1811 41.4699L74.9799 42.5746L75.7787 34.887L76.5775 31.8818L77.3763 35.5079L78.1751 32.7637L78.974 32.9437L79.7728 33.1419L80.5716 33.6545L81.3704 35.2397L82.1692 34.5869L82.968 33.9414L83.7669 34.6716L84.5657 37.8124L85.3645 37.3864L86.1633 36.3948L86.9621 34.7697L87.7609 33.5721L88.5598 34.9739L89.3586 34.5026L90.1574 33.7857L90.9562 34.1162L91.755 34.4222L92.5538 34.2516L93.3527 35.9964L94.1515 35.4766L94.9503 35.3132L95.7491 36.7231L96.5479 35.9342L97.3467 37.1166L98.1456 38.1521L98.9444 38.2179L99.7432 36.2832L100.542 34.8702L101.341 35.1002L102.14 35.9778L102.938 34.2751L103.737 35.0208L104.536 35.3753L105.335 35.2048L106.134 34.8586L106.933 35.094L107.731 34.8358L108.53 34.2481L109.329 34.1921L110.128 34.4361L110.927 33.1011L111.725 32.18L112.524 33.2807L113.323 30.0722L114.122 29.6156L114.921 31.9544L115.72 31.2746L116.518 29.6163L117.317 31.1364L118.116 31.6689L118.915 34.0523L119.714 32.5707L120.512 31.4832L121.311 23.832L122.11 21.8525L122.909 21.9581L123.708 22.6425L124.507 24.3951L125.305 24.7438L126.104 23.8566L126.903 24.3439L127.702 25.1628L128.501 29.42L129.299 31.5958L130.098 27.052L130.897 27.4292L131.696 25.959L132.495 24.821L133.293 26.0149L134.092 26.1592L134.891 34.0632" stroke="#FF3A33" stroke-width="1.25"/>
</g>
<defs>
<clipPath id="clip0_13_825">
<rect width="135" height="50" fill="white" transform="translate(0.689941)"/>
</clipPath>
</defs>
</svg>
