<svg width="136" height="50" viewBox="0 0 136 50" fill="none" xmlns="http://www.w3.org/2000/svg">
<g clip-path="url(#clip0_2_4172)">
<path d="M0.0148926 11.0017L0.813709 12.5652L1.61253 11.4082L2.41134 8.42502L3.21016 9.99947L4.00898 14.0593L4.80779 16.0507L5.60661 9.36609L6.40543 10.8829L7.20424 9.899L8.00306 5.70433L8.80188 5.79581L9.60069 5.66357L10.3995 1.02471L11.1983 1.13929L11.9971 3.12809L12.796 1.89934L13.5948 0L14.3936 3.0777L15.1924 2.10848L15.9912 8.73952L16.79 20.2262L17.5889 18.8779L18.3877 23.6577L19.1865 24.4011L19.9853 24.1675L20.7841 29.0938L21.5829 27.6304L22.3818 27.8892L23.1806 28.5094L23.9794 26.6556L24.7782 27.54L25.577 25.1452L26.3758 23.8196L27.1747 24.3229L27.9735 27.6241L28.7723 26.9561L29.5711 21.3124L30.3699 21.0325L31.1687 21.9883L31.9676 28.4428L32.7664 30.2988L33.5652 31.0499L34.364 33.9372L35.1628 28.4278L35.9616 30.0445L36.7605 22.9864L37.5593 26.9662L38.3581 28.1704L39.1569 36.9186L39.9557 33.7907L40.7545 32.636L41.5534 35.0087L42.3522 32.6036L43.151 34.0376L43.9498 32.017L44.7486 31.4467L45.5474 28.9601L46.3463 27.4405L47.1451 29.3519L47.9439 32.4915L48.7427 31.3646L49.5415 36.348L50.3403 45.9472L51.1392 40.9423L51.938 38.6656L52.7368 44.122L53.5356 43.5343L54.3344 39.5652L55.1332 46.9043L55.9321 44.1756L56.7309 50L57.5297 45.0386L58.3285 45.2702L59.1273 43.0895L59.9261 47.3388L60.725 45.9358L61.5238 43.3994L62.3226 43.1724L63.1214 45.5083L63.9202 40.8987L64.719 39.8284L65.5179 39.853L66.3167 39.2672L67.1155 39.1037L67.9143 39.4823L68.7131 38.8881L69.5119 37.1226L70.3108 40.3141L71.1096 41.0148L71.9084 38.3962L72.7072 34.2225L73.506 37.0781L74.3048 34.9598L75.1037 34.5206L75.9025 30.3886L76.7013 30.425L77.5001 30.881L78.2989 30.5451L79.0977 31.6784L79.8966 31.4468L80.6954 32.4931L81.4942 31.3409L82.293 29.616L83.0918 31.8149L83.8906 36.4408L84.6894 35.3817L85.4883 34.3887L86.2871 32.6328L87.0859 31.0137L87.8847 31.8504L88.6835 31.2514L89.4823 30.8078L90.2812 32.3088L91.08 30.0863L91.8788 25.003L92.6776 29.1352L93.4764 29.5964L94.2752 30.264L95.0741 33.9346L95.8729 32.5801L96.6717 34.7877L97.4705 35.657L98.2693 37.5352L99.0681 34.4894L99.867 30.8555L100.666 31.488L101.465 33.0345L102.263 30.644L103.062 31.8419L103.861 33.4949L104.66 34.0458L105.459 32.4105L106.257 31.7437L107.056 30.7619L107.855 30.2939L108.654 29.6447L109.453 30.7754L110.252 29.284L111.05 29.0622L111.849 27.6566L112.648 21.9749L113.447 20.8472L114.246 21.2231L115.044 22.6374L115.843 21.4392L116.642 23.204L117.441 24.0415L118.24 26.1796L119.039 21.5215L119.837 19.1908L120.636 12.9293L121.435 10.514L122.234 14.4661L123.033 17.6865L123.831 19.1331L124.63 18.5086L125.429 15.9585L126.228 16.6527L127.027 17.0962L127.826 22.3004L128.624 25.7754L129.423 23.3114L130.222 24.7108L131.021 21.3967L131.82 20.8848L132.618 22.6027L133.417 20.1488L134.216 27.9598" stroke="#FF3A33" stroke-width="1.25"/>
</g>
<defs>
<clipPath id="clip0_2_4172">
<rect width="135" height="50" fill="white" transform="translate(0.0148926)"/>
</clipPath>
</defs>
</svg>
