<svg width="136" height="50" viewBox="0 0 136 50" fill="none" xmlns="http://www.w3.org/2000/svg">
<g clip-path="url(#clip0_2_4531)">
<path d="M0.0148926 45.6515L0.813709 45.8633L1.61253 45.8067L2.41134 45.7981L3.21016 45.9448L4.00898 47.7414L4.80779 46.4482L5.60661 46.4516L6.40543 47.1476L7.20424 46.7582L8.00306 46.6078L8.80188 47.2864L9.60069 46.8566L10.3995 47.0538L11.1983 47.2853L11.9971 47.4469L12.796 47.9274L13.5948 47.9337L14.3936 48.6724L15.1924 49.2182L15.9912 47.0472L16.79 47.8029L17.5889 48.3557L18.3877 45.9008L19.1865 46.3212L19.9853 46.5272L20.7841 46.7809L21.5829 46.376L22.3818 48.3977L23.1806 44.9502L23.9794 41.849L24.7782 42.1L25.577 41.6952L26.3758 40.9179L27.1747 41.6975L27.9735 42.213L28.7723 43.3913L29.5711 43.0015L30.3699 43.131L31.1687 44.1763L31.9676 45.2903L32.7664 48.7473L33.5652 48.3412L34.364 46.7646L35.1628 45.9385L35.9616 45.778L36.7605 46.536L37.5593 46.5474L38.3581 47.1893L39.1569 50L39.9557 47.9636L40.7545 48.2471L41.5534 48.7878L42.3522 48.8034L43.151 48.2957L43.9498 48.1542L44.7486 48.1546L45.5474 48.3791L46.3463 47.6961L47.1451 48.4634L47.9439 48.3386L48.7427 48.4095L49.5415 49.4986L50.3403 44.7632L51.1392 42.9495L51.938 41.5552L52.7368 40.4642L53.5356 38.0121L54.3344 35.2271L55.1332 33.0816L55.9321 33.7991L56.7309 31.055L57.5297 30.3829L58.3285 29.5906L59.1273 27.5088L59.9261 26.8705L60.725 26.1353L61.5238 26.2348L62.3226 25.7697L63.1214 25.8245L63.9202 25.4809L64.719 26.0167L65.5179 25.8455L66.3167 25.5627L67.1155 26.071L67.9143 25.7251L68.7131 25.914L69.5119 25.2077L70.3108 25.0682L71.1096 23.7354L71.9084 19.0694L72.7072 15.0103L73.506 17.1585L74.3048 17.6576L75.1037 18.1115L75.9025 18.659L76.7013 20.0089L77.5001 20.2613L78.2989 18.282L79.0977 19.6145L79.8966 19.9909L80.6954 19.8152L81.4942 20.1501L82.293 20.1847L83.0918 20.3802L83.8906 19.9875L84.6894 20.0117L85.4883 20.1762L86.2871 19.8126L87.0859 19.9375L87.8847 20.6775L88.6835 20.6248L89.4823 20.7694L90.2812 21.0664L91.08 21.0405L91.8788 20.8802L92.6776 22.8795L93.4764 23.3585L94.2752 23.9614L95.0741 23.953L95.8729 16.8135L96.6717 12.5825L97.4705 13.1942L98.2693 12.8617L99.0681 12.8192L99.867 13.0379L100.666 13.0833L101.465 13.3754L102.263 13.2567L103.062 13.8196L103.861 14.1358L104.66 14.3249L105.459 14.2205L106.257 14.4848L107.056 14.5058L107.855 14.4444L108.654 14.5791L109.453 14.4046L110.252 14.6413L111.05 14.6575L111.849 13.6432L112.648 13.6559L113.447 13.9368L114.246 14.2029L115.044 14.1958L115.843 14.7188L116.642 14.7581L117.441 15.2722L118.24 14.7044L119.039 13.9795L119.837 14.1952L120.636 13.4963L121.435 14.2054L122.234 13.736L123.033 14.1641L123.831 14.2249L124.63 14.132L125.429 14.7391L126.228 15.5263L127.027 17.9886L127.826 19.2255L128.624 14.2344L129.423 10.943L130.222 8.19139L131.021 10.5389L131.82 8.09332L132.618 2.1379L133.417 0L134.216 0.791158" stroke="#57FF84" stroke-width="1.25"/>
</g>
<defs>
<clipPath id="clip0_2_4531">
<rect width="135" height="50" fill="white" transform="translate(0.0148926)"/>
</clipPath>
</defs>
</svg>
