<svg width="136" height="50" viewBox="0 0 136 50" fill="none" xmlns="http://www.w3.org/2000/svg">
<g clip-path="url(#clip0_2_4638)">
<path d="M0.0148926 8.6731L0.818464 7.94587L1.62204 7.6593L2.42561 6.12582L3.22918 7.64769L4.03275 7.87718L4.83632 6.43626L5.63989 3.91635L6.44346 5.17919L7.24704 6.23567L8.05061 3.38283L8.85418 2.51266L9.65775 5.96222L10.4613 0L11.2649 0.546987L12.0685 1.00547L12.872 1.81866L13.6756 1.83491L14.4792 4.28109L15.2828 11.4521L16.0863 15.1993L16.8899 20.0688L17.6935 23.1288L18.497 27.9891L19.3006 22.9591L20.1042 23.5106L20.9077 31.4447L21.7113 29.5704L22.5149 29.5797L23.3185 30.9503L24.122 28.8347L24.9256 26.0492L25.7292 23.9211L26.5327 23.629L27.3363 24.9274L28.1399 24.951L28.9435 25.4555L29.747 24.8564L30.5506 25.3373L31.3542 29.8119L32.1577 28.7967L32.9613 29.6737L33.7649 32.2337L34.5685 33.5729L35.372 32.2348L36.1756 30.0861L36.9792 29.6895L37.7827 30.5423L38.5863 37.2316L39.3899 37.6279L40.1935 40.841L40.997 42.7809L41.8006 42.2666L42.6042 43.5413L43.4077 42.2173L44.2113 41.7348L45.0149 40.7058L45.8185 38.8164L46.622 38.5044L47.4256 39.6457L48.2292 39.8212L49.0327 43.7119L49.8363 46.4005L50.6399 48.2532L51.4435 44.883L52.247 44.823L53.0506 45.341L53.8542 46.2378L54.6577 45.5822L55.4613 49.5535L56.2649 50L57.0685 48.0191L57.872 47.7811L58.6756 45.7664L59.4792 46.8159L60.2827 45.5611L61.0863 45.7109L61.8899 45.1646L62.6935 45.9605L63.497 41.8364L64.3006 41.7133L65.1042 42.7973L65.9078 41.767L66.7113 41.2009L67.5149 41.2638L68.3185 40.2956L69.122 40.1918L69.9256 41.4044L70.7292 40.5842L71.5328 43.2836L72.3363 41.3429L73.1399 42.1831L73.9435 43.6751L74.747 38.4167L75.5506 32.3039L76.3542 34.5129L77.1578 33.5572L77.9613 33.1112L78.7649 32.9687L79.5685 33.433L80.372 34.3469L81.1756 35.2193L81.9792 34.5127L82.7828 35.5377L83.5863 37.1733L84.3899 38.0126L85.1935 37.254L85.997 35.8961L86.8006 35.1946L87.6042 35.1711L88.4078 35.3271L89.2113 34.0015L90.0149 33.9447L90.8185 34.0202L91.622 35.4521L92.4256 35.5901L93.2292 35.5475L94.0328 36.0802L94.8363 36.7964L95.6399 36.7632L96.4435 36.77L97.247 38.3334L98.0506 38.9053L98.8542 36.5179L99.6578 36.7794L100.461 35.9945L101.265 36.3841L102.068 35.6512L102.872 34.839L103.676 35.4165L104.479 35.6609L105.283 35.3973L106.086 35.0354L106.89 34.9381L107.693 34.3872L108.497 34.2003L109.301 35.7152L110.104 34.6798L110.908 33.5754L111.711 32.8315L112.515 32.0855L113.318 30.9319L114.122 30.7313L114.926 31.3335L115.729 30.8379L116.533 30.3784L117.336 30.8911L118.14 33.87L118.943 32.7009L119.747 31.9687L120.551 24.4199L121.354 24.5342L122.158 21.1346L122.961 23.2001L123.765 23.9063L124.568 25.2736L125.372 24.5609L126.176 25.1568L126.979 25.1275L127.783 28.8782L128.586 31.5805L129.39 28.0446L130.193 28.3909L130.997 28.5742L131.801 29.6311L132.604 27.0896L133.408 25.8645L134.211 29.2122" stroke="#FF3A33" stroke-width="1.25"/>
</g>
<defs>
<clipPath id="clip0_2_4638">
<rect width="135" height="50" fill="white" transform="translate(0.0148926)"/>
</clipPath>
</defs>
</svg>
