<svg width="136" height="50" viewBox="0 0 136 50" fill="none" xmlns="http://www.w3.org/2000/svg">
<g clip-path="url(#clip0_2_4495)">
<path d="M0.0148926 4.31511L0.813709 5.59771L1.61253 6.03209L2.41134 3.71537L3.21016 6.04569L4.00898 10.4719L4.80779 11.6054L5.60661 6.81536L6.40543 7.99041L7.20424 4.86065L8.00306 2.78429L8.80188 1.39164L9.60069 1.82672L10.3995 0.190522L11.1983 0L11.9971 0.615739L12.796 1.98255L13.5948 1.23221L14.3936 3.25162L15.1924 4.804L15.9912 8.41611L16.79 26.8377L17.5889 21.1523L18.3877 25.1817L19.1865 30.9193L19.9853 32.0323L20.7841 34.8964L21.5829 34.3281L22.3818 36.2964L23.1806 37.3338L23.9794 34.4474L24.7782 31.0296L25.577 30.7895L26.3758 31.4026L27.1747 31.0856L27.9735 30.9697L28.7723 33.255L29.5711 31.2238L30.3699 32.4516L31.1687 32.5094L31.9676 39.0244L32.7664 36.6113L33.5652 36.5997L34.364 36.9652L35.1628 34.277L35.9616 34.8643L36.7605 31.344L37.5593 35.3865L38.3581 35.9268L39.1569 42.3816L39.9557 41.5646L40.7545 40.3562L41.5534 42.5199L42.3522 41.5132L43.151 41.9369L43.9498 41.6197L44.7486 40.4458L45.5474 40.2399L46.3463 39.5123L47.1451 39.5468L47.9439 41.1984L48.7427 41.0732L49.5415 42.986L50.3403 49.5588L51.1392 45.1312L51.938 43.929L52.7368 48.5005L53.5356 48.1307L54.3344 45.4904L55.1332 49.4415L55.9321 48.7982L56.7309 50L57.5297 45.7856L58.3285 45.0182L59.1273 42.3283L59.9261 45.6938L60.725 44.2001L61.5238 43.7812L62.3226 44.3651L63.1214 46.2358L63.9202 41.5249L64.719 41.2875L65.5179 42.1526L66.3167 39.8437L67.1155 36.9558L67.9143 39.8724L68.7131 38.9728L69.5119 37.614L70.3108 41.2333L71.1096 41.5624L71.9084 39.804L72.7072 38.4118L73.506 39.383L74.3048 38.7433L75.1037 36.6903L75.9025 34.0033L76.7013 35.9659L77.5001 34.9341L78.2989 34.3439L79.0977 33.7065L79.8966 36.0109L80.6954 37.1373L81.4942 34.9264L82.293 32.7301L83.0918 33.6978L83.8906 35.5859L84.6894 36.4727L85.4883 34.9182L86.2871 34.3971L87.0859 33.9994L87.8847 34.5922L88.6835 34.4971L89.4823 33.6523L90.2812 33.9511L91.08 33.742L91.8788 33.1947L92.6776 34.7671L93.4764 34.2919L94.2752 34.2851L95.0741 37.3238L95.8729 35.8693L96.6717 37.9716L97.4705 38.8068L98.2693 39.8614L99.0681 36.6305L99.867 34.4983L100.666 35.0809L101.465 35.3005L102.263 34.4963L103.062 36.3036L103.861 37.4422L104.66 36.7531L105.459 35.85L106.257 35.8097L107.056 35.4142L107.855 35.4249L108.654 34.0842L109.453 34.5296L110.252 33.6241L111.05 33.5773L111.849 33.3286L112.648 31.2278L113.447 29.965L114.246 31.7566L115.044 33.3902L115.843 32.1862L116.642 32.685L117.441 32.3373L118.24 33.2414L119.039 31.4095L119.837 30.704L120.636 26.7065L121.435 25.4274L122.234 26.4901L123.033 24.9164L123.831 25.9717L124.63 26.9936L125.429 25.1923L126.228 24.476L127.027 26.0108L127.826 27.7913L128.624 30.1583L129.423 28.8645L130.222 29.3999L131.021 25.4879L131.82 25.6139L132.618 25.8466L133.417 23.5924L134.216 29.1508" stroke="#FF3A33" stroke-width="1.25"/>
</g>
<defs>
<clipPath id="clip0_2_4495">
<rect width="135" height="50" fill="white" transform="translate(0.0148926)"/>
</clipPath>
</defs>
</svg>
