<svg width="136" height="50" viewBox="0 0 136 50" fill="none" xmlns="http://www.w3.org/2000/svg">
<g clip-path="url(#clip0_2_2339)">
<path d="M0.0148926 38.972L0.813709 39.5921L1.61253 39.4406L2.41134 38.7925L3.21016 39.0031L4.00898 44.5294L4.80779 46.5509L5.60661 42.0583L6.40543 40.8079L7.20424 39.9885L8.00306 37.3021L8.80188 33.2575L9.60069 32.3513L10.3995 28.57L11.1983 30.5198L11.9971 30.0455L12.796 29.4358L13.5948 27.7309L14.3936 28.8857L15.1924 29.2634L15.9912 36.2881L16.79 42.0456L17.5889 35.5011L18.3877 43.3562L19.1865 41.5008L19.9853 45.4585L20.7841 48.847L21.5829 46.6537L22.3818 44.8501L23.1806 49.3196L23.9794 49.5637L24.7782 49.3904L25.577 45.954L26.3758 46.8692L27.1747 47.4664L27.9735 46.3665L28.7723 42.3291L29.5711 39.3998L30.3699 41.8841L31.1687 42.1147L31.9676 48.0443L32.7664 49.4948L33.5652 50L34.364 46.7987L35.1628 40.124L35.9616 45.6548L36.7605 42.8245L37.5593 42.8019L38.3581 40.9369L39.1569 46.9048L39.9557 47.7297L40.7545 40.9418L41.5534 43.7289L42.3522 43.0572L43.151 43.4338L43.9498 42.2089L44.7486 34.4437L45.5474 32.94L46.3463 30.1274L47.1451 28.9842L47.9439 26.9818L48.7427 29.6593L49.5415 33.7825L50.3403 37.8195L51.1392 29.7524L51.938 23.9507L52.7368 26.9076L53.5356 23.5148L54.3344 21.2566L55.1332 24.6114L55.9321 25.8389L56.7309 29.1916L57.5297 28.0851L58.3285 30.3604L59.1273 25.3073L59.9261 25.0579L60.725 25.6655L61.5238 22.1417L62.3226 20.4274L63.1214 26.4728L63.9202 25.8521L64.719 30.22L65.5179 27.6135L66.3167 23.9169L67.1155 24.0509L67.9143 23.0708L68.7131 17.6098L69.5119 9.16141L70.3108 11.5305L71.1096 11.1134L71.9084 10.3669L72.7072 10.94L73.506 8.84537L74.3048 10.5706L75.1037 0.632108L75.9025 3.47958L76.7013 0L77.5001 1.52141L78.2989 1.64671L79.0977 3.79517L79.8966 3.69218L80.6954 3.892L81.4942 3.51706L82.293 6.54192L83.0918 8.02631L83.8906 8.62779L84.6894 6.07141L85.4883 1.794L86.2871 8.65889L87.0859 8.27643L87.8847 6.25932L88.6835 4.93666L89.4823 8.79971L90.2812 8.64449L91.08 8.28895L91.8788 7.03478L92.6776 5.98488L93.4764 5.21295L94.2752 7.28354L95.0741 12.2974L95.8729 13.5793L96.6717 12.873L97.4705 13.8269L98.2693 17.1195L99.0681 16.5693L99.867 16.5066L100.666 18.1139L101.465 15.1018L102.263 13.9146L103.062 13.0074L103.861 15.021L104.66 14.411L105.459 15.9061L106.257 15.9013L107.056 14.4585L107.855 13.0983L108.654 12.8918L109.453 15.9445L110.252 18.628L111.05 16.7692L111.849 13.4931L112.648 8.71256L113.447 13.8793L114.246 15.1007L115.044 16.1568L115.843 14.6513L116.642 20.2772L117.441 19.3385L118.24 21.4129L119.039 17.5827L119.837 16.1084L120.636 7.62203L121.435 7.42391L122.234 10.7976L123.033 11.744L123.831 12.0648L124.63 13.8161L125.429 12.2239L126.228 11.2392L127.027 11.5023L127.826 11.7086L128.624 19.6222L129.423 19.0832L130.222 21.925L131.021 19.9787L131.82 18.2056L132.618 19.1556L133.417 5.72607L134.216 10.0359" stroke="#57FF84" stroke-width="1.25"/>
</g>
<defs>
<clipPath id="clip0_2_2339">
<rect width="135" height="50" fill="white" transform="translate(0.0148926)"/>
</clipPath>
</defs>
</svg>
