<svg width="37" height="37" viewBox="0 0 37 37" fill="none" xmlns="http://www.w3.org/2000/svg">
<g clip-path="url(#clip0_3_1437)">
<mask id="mask0_3_1437" style="mask-type:luminance" maskUnits="userSpaceOnUse" x="0" y="0" width="37" height="37">
<path d="M36.7227 0.725586H0.722656V36.7256H36.7227V0.725586Z" fill="white"/>
</mask>
<g mask="url(#mask0_3_1437)">
<mask id="mask1_3_1437" style="mask-type:luminance" maskUnits="userSpaceOnUse" x="0" y="0" width="37" height="37">
<path d="M36.7227 0.725586H0.722656V36.7256H36.7227V0.725586Z" fill="white"/>
</mask>
<g mask="url(#mask1_3_1437)">
<path d="M3.97266 3.72559L3.97266 24.7256C3.97266 26.2444 5.20387 27.4756 6.72266 27.4756H29.7227C31.2414 27.4756 32.4727 26.2444 32.4727 24.7256V3.72559C32.4727 2.2068 31.2414 0.975586 29.7227 0.975586H6.72266C5.20387 0.975586 3.97266 2.2068 3.97266 3.72559Z" fill="#F7E700" stroke="black" stroke-width="0.5"/>
<path d="M11.7783 16.7256C12.8906 13.6318 14.4479 7.10379 11.7783 5.74251C11.0044 5.63938 9.5148 5.95907 9.74694 8.06287C10.0371 10.6926 11.6332 15.7974 13.6645 14.5599C13.9547 14.3537 14.6801 13.4461 15.2605 11.4661C15.5507 12.3427 16.2761 14.003 16.8565 13.6318C17.4368 13.2605 17.8721 12.0333 18.0172 11.4661C18.259 12.0849 18.8587 13.2296 19.323 12.8583C19.7873 12.4871 20.5805 11.6723 20.919 11.3114C21.1125 11.5692 21.7606 11.9611 22.8052 11.4661C23.8499 10.9711 25.8522 9.91916 26.7227 9.45509" stroke="black" stroke-width="0.8" stroke-linecap="round" stroke-linejoin="round"/>
<path d="M1.22266 23.7256L1.22266 30.7256C1.22266 32.1063 2.34194 33.2256 3.72266 33.2256H33.7227C35.1034 33.2256 36.2227 32.1063 36.2227 30.7256V23.7256C36.2227 22.3449 35.1034 21.2256 33.7227 21.2256H3.72266C2.34194 21.2256 1.22266 22.3449 1.22266 23.7256Z" fill="black" stroke="#F7E700"/>
<path d="M8.72266 28.7256C9.82723 28.7256 10.7227 27.8302 10.7227 26.7256C10.7227 25.621 9.82723 24.7256 8.72266 24.7256C7.61809 24.7256 6.72266 25.621 6.72266 26.7256C6.72266 27.8302 7.61809 28.7256 8.72266 28.7256Z" fill="#F7E700"/>
<path d="M15.7227 28.7256C16.8272 28.7256 17.7227 27.8302 17.7227 26.7256C17.7227 25.621 16.8272 24.7256 15.7227 24.7256C14.6181 24.7256 13.7227 25.621 13.7227 26.7256C13.7227 27.8302 14.6181 28.7256 15.7227 28.7256Z" fill="#F7E700"/>
<path d="M22.7227 28.7256C23.8272 28.7256 24.7227 27.8302 24.7227 26.7256C24.7227 25.621 23.8272 24.7256 22.7227 24.7256C21.6181 24.7256 20.7227 25.621 20.7227 26.7256C20.7227 27.8302 21.6181 28.7256 22.7227 28.7256Z" fill="#F7E700"/>
<path d="M29.7227 28.7256C30.8272 28.7256 31.7227 27.8302 31.7227 26.7256C31.7227 25.621 30.8272 24.7256 29.7227 24.7256C28.6181 24.7256 27.7227 25.621 27.7227 26.7256C27.7227 27.8302 28.6181 28.7256 29.7227 28.7256Z" fill="#F7E700"/>
</g>
</g>
</g>
<defs>
<clipPath id="clip0_3_1437">
<rect width="36" height="36" fill="white" transform="translate(0.722656 0.725586)"/>
</clipPath>
</defs>
</svg>
