<svg width="12" height="14" viewBox="0 0 12 14" fill="none" xmlns="http://www.w3.org/2000/svg">
<path d="M8.625 5.875C8.625 5.20313 8.46094 4.57812 8.13281 4C7.78906 3.42188 7.32812 2.96094 6.75 2.61719C6.15625 2.28906 5.53125 2.125 4.875 2.125C4.21875 2.125 3.59375 2.28906 3 2.61719C2.42188 2.96094 1.96094 3.42188 1.61719 4C1.28906 4.57812 1.125 5.20313 1.125 5.875C1.125 6.54687 1.28906 7.17188 1.61719 7.75C1.96094 8.32812 2.42188 8.78906 3 9.13281C3.59375 9.46094 4.21875 9.625 4.875 9.625C5.53125 9.625 6.15625 9.46094 6.75 9.13281C7.32812 8.78906 7.78906 8.32812 8.13281 7.75C8.46094 7.17188 8.625 6.54687 8.625 5.875ZM7.89844 9.69531C7.05469 10.3828 6.04688 10.7344 4.875 10.75C3.5 10.7187 2.35156 10.2422 1.42969 9.32031C0.507813 8.39844 0.03125 7.25 0 5.875C0.03125 4.5 0.507813 3.35156 1.42969 2.42969C2.35156 1.50781 3.5 1.03125 4.875 1C6.25 1.03125 7.39844 1.50781 8.32031 2.42969C9.24219 3.35156 9.71875 4.5 9.75 5.875C9.73437 7.04688 9.38281 8.05469 8.69531 8.89844L11.8359 12.0391C12.0547 12.3047 12.0547 12.5703 11.8359 12.8359C11.5703 13.0547 11.3047 13.0547 11.0391 12.8359L7.89844 9.69531Z" fill="#0F172A"/>
</svg>
