<svg width="136" height="50" viewBox="0 0 136 50" fill="none" xmlns="http://www.w3.org/2000/svg">
<g clip-path="url(#clip0_2_3202)">
<path d="M0.0148926 8.39013L0.813709 7.51161L1.61253 4.45428L2.41134 3.94867L3.21016 4.41652L4.00898 6.90156L4.80779 8.22231L5.60661 5.25115L6.40543 7.1582L7.20424 5.46914L8.00306 3.55149L8.80188 2.21815L9.60069 0.348989L10.3995 0L11.1983 0.809027L11.9971 0.620936L12.796 1.69784L13.5948 0.672098L14.3936 1.41292L15.1924 6.97661L15.9912 12.0112L16.79 25.2753L17.5889 23.4176L18.3877 36.7443L19.1865 27.4528L19.9853 29.845L20.7841 38.3477L21.5829 36.9954L22.3818 35.9042L23.1806 36.619L23.9794 35.5799L24.7782 27.3955L25.577 25.752L26.3758 24.8889L27.1747 25.9077L27.9735 25.2839L28.7723 26.7839L29.5711 26.2947L30.3699 23.9582L31.1687 26.9524L31.9676 32.0701L32.7664 31.6549L33.5652 33.1544L34.364 36.7848L35.1628 31.2745L35.9616 32.6675L36.7605 27.7546L37.5593 32.2392L38.3581 33.0113L39.1569 42.0443L39.9557 41.7243L40.7545 37.9502L41.5534 39.9632L42.3522 40.693L43.151 41.9171L43.9498 39.7354L44.7486 39.4635L45.5474 38.4364L46.3463 37.7464L47.1451 37.5577L47.9439 41.2305L48.7427 39.5104L49.5415 43.2207L50.3403 49.319L51.1392 45.855L51.938 42.4132L52.7368 48.6046L53.5356 46.106L54.3344 44.8701L55.1332 50L55.9321 45.584L56.7309 48.9539L57.5297 46.2176L58.3285 45.8928L59.1273 44.2874L59.9261 47.8914L60.725 44.6417L61.5238 44.9971L62.3226 45.2147L63.1214 45.5963L63.9202 41.6387L64.719 41.8441L65.5179 42.4208L66.3167 41.2397L67.1155 39.1371L67.9143 40.3422L68.7131 38.1809L69.5119 35.5171L70.3108 37.2529L71.1096 36.5954L71.9084 35.5794L72.7072 32.6311L73.506 34.931L74.3048 34.2567L75.1037 30.7191L75.9025 28.0062L76.7013 31.0718L77.5001 29.487L78.2989 29.5727L79.0977 30.2514L79.8966 30.5882L80.6954 32.0782L81.4942 30.9931L82.293 30.3553L83.0918 30.2799L83.8906 33.0268L84.6894 33.5986L85.4883 32.1872L86.2871 30.2474L87.0859 29.1969L87.8847 29.5442L88.6835 28.8223L89.4823 27.7078L90.2812 27.9284L91.08 27.3258L91.8788 27.0864L92.6776 28.2005L93.4764 27.6499L94.2752 27.2325L95.0741 30.1082L95.8729 31.0753L96.6717 33.4605L97.4705 34.5543L98.2693 34.7028L99.0681 32.1356L99.867 28.9535L100.666 29.0012L101.465 28.4493L102.263 26.2689L103.062 28.5373L103.861 29.6887L104.66 30.0185L105.459 30.29L106.257 29.9062L107.056 27.8597L107.855 27.1185L108.654 26.3003L109.453 27.5233L110.252 26.5636L111.05 26.2898L111.849 26.4371L112.648 22.7054L113.447 21.8951L114.246 24.0413L115.044 23.4004L115.843 22.2647L116.642 22.8937L117.441 22.6051L118.24 24.3944L119.039 22.0651L119.837 19.9381L120.636 13.58L121.435 15.5734L122.234 13.4456L123.033 15.7676L123.831 16.8286L124.63 18.6274L125.429 15.8145L126.228 16.9843L127.027 18.3717L127.826 23.6016L128.624 24.2586L129.423 21.1168L130.222 22.211L131.021 18.8413L131.82 15.4155L132.618 20.158L133.417 18.5282L134.216 27.0412" stroke="#FF3A33" stroke-width="1.25"/>
</g>
<defs>
<clipPath id="clip0_2_3202">
<rect width="135" height="50" fill="white" transform="translate(0.0148926)"/>
</clipPath>
</defs>
</svg>
