<svg width="136" height="50" viewBox="0 0 136 50" fill="none" xmlns="http://www.w3.org/2000/svg">
<g clip-path="url(#clip0_2_4136)">
<path d="M0.0148926 0.394144L0.813709 3.75822L1.61253 3.66382L2.41134 2.7197L3.21016 4.62273L4.00898 9.27394L4.80779 13.5882L5.60661 9.16477L6.40543 8.11003L7.20424 7.54269L8.00306 3.91644L8.80188 1.16932L9.60069 2.60922L10.3995 0L11.1983 0.557055L11.9971 1.70295L12.796 2.65338L13.5948 0.784734L14.3936 1.60855L15.1924 3.18216L15.9912 10.6814L16.79 28.9271L17.5889 27.3094L18.3877 35.1436L19.1865 32.6287L19.9853 34.6935L20.7841 37.0796L21.5829 41.0094L22.3818 37.9187L23.1806 38.5301L23.9794 38.392L24.7782 35.6591L25.577 29.7963L26.3758 28.6206L27.1747 28.9185L27.9735 32.5217L28.7723 31.3262L29.5711 29.4893L30.3699 26.0147L31.1687 26.8524L31.9676 36.3397L32.7664 38.5284L33.5652 36.4504L34.364 40.7904L35.1628 36.6531L35.9616 38.1788L36.7605 32.1346L37.5593 33.379L38.3581 36.5954L39.1569 42.027L39.9557 40.1062L40.7545 37.9365L41.5534 41.6306L42.3522 37.7331L43.151 40.425L43.9498 37.6055L44.7486 36.4874L45.5474 36.0743L46.3463 36.3079L47.1451 36.3012L47.9439 38.2704L48.7427 37.9926L49.5415 40.7615L50.3403 44.5716L51.1392 40.8289L51.938 44.1526L52.7368 44.1457L53.5356 41.744L54.3344 45.3436L55.1332 50L55.9321 46.7356L56.7309 49.1665L57.5297 40.0023L58.3285 39.5041L59.1273 36.7823L59.9261 38.4183L60.725 38.0163L61.5238 37.3703L62.3226 38.0642L63.1214 37.7266L63.9202 34.5286L64.719 36.425L65.5179 37.2703L66.3167 36.543L67.1155 35.2828L67.9143 36.1787L68.7131 35.5988L69.5119 35.4733L70.3108 35.4186L71.1096 36.1137L71.9084 35.1591L72.7072 34.206L73.506 35.9667L74.3048 33.9467L75.1037 32.4034L75.9025 30.8702L76.7013 31.8877L77.5001 30.5573L78.2989 26.2438L79.0977 27.5199L79.8966 30.9032L80.6954 31.5214L81.4942 31.3368L82.293 30.8989L83.0918 31.9746L83.8906 33.8884L84.6894 34.2473L85.4883 32.5554L86.2871 31.6864L87.0859 30.9097L87.8847 28.697L88.6835 31.9525L89.4823 28.8054L90.2812 29.2073L91.08 29.0312L91.8788 27.2267L92.6776 33.2825L93.4764 33.6945L94.2752 33.5052L95.0741 35.0384L95.8729 35.5174L96.6717 36.119L97.4705 36.6485L98.2693 36.6087L99.0681 35.0832L99.867 34.9266L100.666 35.5601L101.465 35.3797L102.263 35.0434L103.062 35.2738L103.861 35.3926L104.66 35.9915L105.459 35.4122L106.257 35.5012L107.056 35.7407L107.855 35.3492L108.654 35.1253L109.453 35.1943L110.252 34.125L111.05 33.8942L111.849 34.3507L112.648 33.3338L113.447 32.1194L114.246 33.1359L115.044 30.5607L115.843 33.1071L116.642 33.7516L117.441 34.2189L118.24 34.3339L119.039 32.9119L119.837 33.5567L120.636 30.487L121.435 22.0813L122.234 22.2051L123.033 25.68L123.831 24.2958L124.63 27.3212L125.429 23.8103L126.228 26.6957L127.027 31.0663L127.826 33.2299L128.624 33.8014L129.423 33.0558L130.222 33.4504L131.021 30.9555L131.82 32.4428L132.618 31.0824L133.417 31.7665L134.216 36.6209" stroke="#FF3A33" stroke-width="1.25"/>
</g>
<defs>
<clipPath id="clip0_2_4136">
<rect width="135" height="50" fill="white" transform="translate(0.0148926)"/>
</clipPath>
</defs>
</svg>
