<svg width="136" height="50" viewBox="0 0 136 50" fill="none" xmlns="http://www.w3.org/2000/svg">
<g clip-path="url(#clip0_2_2699)">
<path d="M0.0148926 17.7095L0.813709 19.8772L1.61253 18.7237L2.41134 15.1177L3.21016 17.9103L4.00898 19.3793L4.80779 19.8517L5.60661 18.3474L6.40543 17.6822L7.20424 17.1616L8.00306 15.5826L8.80188 13.8098L9.60069 13.9933L10.3995 14.7124L11.1983 12.7502L11.9971 14.8825L12.796 14.1215L13.5948 12.0847L14.3936 14.1594L15.1924 15.111L15.9912 18.6754L16.79 25.7986L17.5889 22.7989L18.3877 28.6755L19.1865 26.2382L19.9853 30.2446L20.7841 32.1151L21.5829 31.0653L22.3818 31.589L23.1806 33.5431L23.9794 31.0339L24.7782 27.3531L25.577 27.729L26.3758 24.8128L27.1747 26.747L27.9735 27.181L28.7723 26.0185L29.5711 22.7503L30.3699 20.5896L31.1687 19.9732L31.9676 25.4696L32.7664 30.8492L33.5652 33.6042L34.364 34.4599L35.1628 31.4257L35.9616 31.5314L36.7605 29.4699L37.5593 33.9011L38.3581 32.7756L39.1569 39.4969L39.9557 39.1066L40.7545 33.4206L41.5534 36.5947L42.3522 36.1324L43.151 36.2981L43.9498 33.3937L44.7486 33.6082L45.5474 34.1429L46.3463 35.0665L47.1451 38.4375L47.9439 40.7023L48.7427 40.3868L49.5415 43.475L50.3403 47.847L51.1392 41.9252L51.938 41.3024L52.7368 45.5699L53.5356 46.1021L54.3344 43.3706L55.1332 45.8591L55.9321 46.6928L56.7309 50L57.5297 47.2216L58.3285 47.0486L59.1273 45.5307L59.9261 49.0116L60.725 47.9685L61.5238 47.2576L62.3226 47.4187L63.1214 48.7494L63.9202 45.2864L64.719 46.3863L65.5179 48.1624L66.3167 47.1678L67.1155 44.2447L67.9143 41.2341L68.7131 40.5136L69.5119 39.0442L70.3108 39.6958L71.1096 41.4231L71.9084 37.8998L72.7072 36.9027L73.506 33.0992L74.3048 31.9622L75.1037 32.8787L75.9025 32.5735L76.7013 30.6053L77.5001 28.6638L78.2989 29.6623L79.0977 27.7815L79.8966 29.3138L80.6954 30.9208L81.4942 30.4435L82.293 29.3601L83.0918 28.4464L83.8906 30.6825L84.6894 31.4006L85.4883 30.7652L86.2871 26.2985L87.0859 25.4497L87.8847 28.2216L88.6835 27.2152L89.4823 28.1634L90.2812 29.275L91.08 28.555L91.8788 27.4826L92.6776 29.9244L93.4764 31.0238L94.2752 31.8825L95.0741 32.8789L95.8729 31.9179L96.6717 33.745L97.4705 34.9353L98.2693 37.1165L99.0681 34.736L99.867 34.5383L100.666 34.1766L101.465 34.5725L102.263 32.0182L103.062 32.1971L103.861 34.3105L104.66 35.7224L105.459 35.8699L106.257 35.3557L107.056 35.6593L107.855 34.6883L108.654 32.9073L109.453 33.3555L110.252 32.4853L111.05 31.1228L111.849 30.1651L112.648 21.9633L113.447 23.4678L114.246 23.1445L115.044 23.2972L115.843 22.4285L116.642 22.101L117.441 21.1196L118.24 22.404L119.039 14.9774L119.837 13.3817L120.636 10.3418L121.435 8.77067L122.234 7.88991L123.033 6.90486L123.831 8.57546L124.63 8.60371L125.429 6.81534L126.228 6.01253L127.027 5.7716L127.826 8.99404L128.624 11.9717L129.423 9.63654L130.222 12.8088L131.021 7.37743L131.82 4.74828L132.618 3.00738L133.417 0L134.216 6.0416" stroke="#57FF84" stroke-width="1.25"/>
</g>
<defs>
<clipPath id="clip0_2_2699">
<rect width="135" height="50" fill="white" transform="translate(0.0148926)"/>
</clipPath>
</defs>
</svg>
