<svg width="22" height="20" viewBox="0 0 22 20" fill="none" xmlns="http://www.w3.org/2000/svg">
<path d="M4.51172 9.10156C4.25391 9.36198 4.125 9.66146 4.125 10C4.125 10.3385 4.25391 10.638 4.51172 10.8984L12.7617 18.3984C13.0482 18.6328 13.3776 18.75 13.75 18.75C14.1224 18.75 14.4518 18.6328 14.7383 18.3984C14.9961 18.138 15.125 17.8385 15.125 17.5C15.125 17.1615 14.9961 16.862 14.7383 16.6016L7.43359 10L14.7383 3.39844C14.9961 3.13802 15.125 2.83854 15.125 2.5C15.125 2.16146 14.9961 1.86198 14.7383 1.60156C14.4518 1.36719 14.1224 1.25 13.75 1.25C13.3776 1.25 13.0482 1.36719 12.7617 1.60156L4.51172 9.10156Z" fill="white"/>
</svg>
