<svg width="136" height="50" viewBox="0 0 136 50" fill="none" xmlns="http://www.w3.org/2000/svg">
<g clip-path="url(#clip0_2_3634)">
<path d="M0.0148926 44.7594L0.80901 45.3822L1.60313 46.4623L2.39725 43.0167L3.19136 44.4264L3.98548 45.4771L4.7796 47.3439L5.57372 43.9393L6.36783 43.8942L7.16195 42.8399L7.95607 40.8504L8.75019 42.1136L9.5443 40.4055L10.3384 40.5179L11.1325 38.6156L11.9267 39.5553L12.7208 38.5367L13.5149 37.9922L14.309 38.759L15.1031 39.0317L15.8972 40.5313L16.6914 45.1308L17.4855 42.9783L18.2796 44.1689L19.0737 41.3944L19.8678 44.4969L20.662 46.8533L21.4561 41.8753L22.2502 42.5056L23.0443 44.5977L23.8384 44.4155L24.6325 45.8008L25.4267 41.8L26.2208 40.8313L27.0149 41.8742L27.809 42.1232L28.6031 44.1351L29.3972 41.8411L30.1914 39.0385L30.9855 38.1357L31.7796 41.1062L32.5737 41.5765L33.3678 43.9303L34.162 44.7435L34.9561 42.349L35.7502 41.8501L36.5443 41.2363L37.3384 45.2379L38.1325 45.7338L38.9267 49.8341L39.7208 47.8635L40.5149 44.8828L41.309 44.4961L42.1031 45.4025L42.8972 43.8744L43.6914 41.3089L44.4855 40.3533L45.2796 38.5584L46.0737 38.2901L46.8678 37.8758L47.662 38.9371L48.4561 39.1497L49.2502 42.2654L50.0443 45.1263L50.8384 44.7892L51.6325 42.6564L52.4267 46.5587L53.2208 46.316L54.0149 46.1259L54.809 47.277L55.6031 48.1722L56.3972 50L57.1914 47.6889L57.9855 45.694L58.7796 43.7231L59.5737 45.8425L60.3678 44.2032L61.162 45.4178L61.9561 46.4551L62.7502 47.5077L63.5443 44.6975L64.3384 46.7852L65.1325 46.795L65.9267 45.6406L66.7208 42.6202L67.5149 41.7868L68.309 40.7055L69.1031 40.1544L69.8972 43.0148L70.6914 43.7913L71.4855 42.5633L72.2796 39.4942L73.0737 39.363L73.8678 40.0364L74.6619 36.72L75.4561 34.9213L76.2502 30.5159L77.0443 26.9373L77.8384 25.8882L78.6325 26.2285L79.4267 27.3608L80.2208 28.2462L81.0149 27.3607L81.809 27.5845L82.6031 27.5422L83.3972 28.6835L84.1914 28.7233L84.9855 27.6178L85.7796 20.8596L86.5737 22.0046L87.3678 21.5177L88.1619 20.7243L88.9561 18.6787L89.7502 20.6921L90.5443 19.9839L91.3384 19.0405L92.1325 18.3013L92.9267 19.0675L93.7208 20.3513L94.5149 21.6042L95.309 20.8321L96.1031 21.9407L96.8972 23.6253L97.6914 24.9892L98.4855 24.0862L99.2796 22.5409L100.074 22.9581L100.868 22.1908L101.662 21.8881L102.456 22.1379L103.25 23.0685L104.044 23.252L104.838 23.3891L105.633 23.1291L106.427 21.8333L107.221 21.579L108.015 19.4772L108.809 17.6031L109.603 17.1378L110.397 10.7315L111.191 11.0957L111.985 7.08179L112.78 3.93267L113.574 6.82378L114.368 6.2248L115.162 4.9895L115.956 7.34448L116.75 8.56259L117.544 8.18368L118.338 5.98518L119.133 5.35029L119.927 3.31233L120.721 0L121.515 5.26476L122.309 4.04407L123.103 4.12763L123.897 0.0384697L124.691 0.716765L125.485 0.404065L126.28 1.08841L127.074 1.96912L127.868 2.45883L128.662 3.99726L129.456 7.15479L130.25 6.42105L131.044 5.02239L131.838 6.08017L132.633 4.22733L133.427 6.75543L134.221 9.16662" stroke="#57FF84" stroke-width="1.25"/>
</g>
<defs>
<clipPath id="clip0_2_3634">
<rect width="135" height="50" fill="white" transform="translate(0.0148926)"/>
</clipPath>
</defs>
</svg>
