<svg width="13" height="14" viewBox="0 0 13 14" fill="none" xmlns="http://www.w3.org/2000/svg">
<path d="M6.71477 1.04785C7.12102 1.04785 7.51165 1.08691 7.88665 1.16504C7.9804 1.18066 8.09759 1.21973 8.23821 1.28223C8.36321 1.36035 8.47259 1.47754 8.56634 1.63379C8.61321 1.71191 8.65227 1.80566 8.68352 1.91504L8.89446 2.80566C8.92571 2.88379 8.9804 2.94629 9.05852 2.99316C9.13665 3.04004 9.21477 3.05566 9.2929 3.04004L10.1835 2.78223C10.2773 2.75098 10.371 2.73535 10.4648 2.73535C10.6523 2.73535 10.8085 2.77441 10.9335 2.85254C11.0741 2.93066 11.1757 3.00879 11.2382 3.08691C11.7538 3.68066 12.1366 4.36035 12.3866 5.12598C12.4335 5.21973 12.457 5.33691 12.457 5.47754C12.4726 5.63379 12.4335 5.79004 12.3398 5.94629C12.2773 6.02441 12.2148 6.10254 12.1523 6.18066L11.4726 6.81348C11.4257 6.87598 11.4023 6.9541 11.4023 7.04785C11.4023 7.1416 11.4257 7.21973 11.4726 7.28223L12.1523 7.91504C12.2148 7.99316 12.2773 8.07129 12.3398 8.14941C12.4179 8.32129 12.457 8.47754 12.457 8.61816C12.457 8.77441 12.4335 8.8916 12.3866 8.96973C12.1366 9.73535 11.7538 10.415 11.2382 11.0088C11.1757 11.0869 11.0741 11.165 10.9335 11.2432C10.8085 11.3213 10.6523 11.3604 10.4648 11.3604C10.371 11.3604 10.2773 11.3447 10.1835 11.3135L9.2929 11.0557C9.21477 11.04 9.13665 11.0557 9.05852 11.1025C8.9804 11.1494 8.92571 11.2119 8.89446 11.29L8.68352 12.1807C8.65227 12.29 8.61321 12.3838 8.56634 12.4619C8.47259 12.6182 8.36321 12.7354 8.23821 12.8135C8.09759 12.876 7.9804 12.915 7.88665 12.9307C7.51165 13.0088 7.12102 13.0479 6.71477 13.0479C6.30852 13.0479 5.9179 13.0088 5.5429 12.9307C5.44915 12.915 5.33196 12.876 5.19134 12.8135C5.06634 12.7354 4.95696 12.6182 4.86321 12.4619C4.81634 12.3838 4.77727 12.29 4.74602 12.1807L4.53509 11.29C4.50384 11.2119 4.44915 11.1494 4.37102 11.1025C4.2929 11.0557 4.21477 11.04 4.13665 11.0557L3.24602 11.3135C3.15227 11.3447 3.05852 11.3604 2.96477 11.3604C2.77727 11.3604 2.62102 11.3213 2.49602 11.2432C2.3554 11.165 2.26165 11.0869 2.21477 11.0088C1.68352 10.415 1.2929 9.73535 1.0429 8.96973C0.996024 8.87598 0.972586 8.75879 0.972586 8.61816C0.956961 8.46191 0.996024 8.30566 1.08977 8.14941C1.15227 8.07129 1.21477 7.99316 1.27727 7.91504L1.95696 7.28223C2.00384 7.21973 2.02727 7.1416 2.02727 7.04785C2.02727 6.9541 2.00384 6.87598 1.95696 6.81348L1.27727 6.18066C1.21477 6.10254 1.15227 6.02441 1.08977 5.94629C0.996024 5.77441 0.956961 5.61816 0.972586 5.47754C0.972586 5.32129 0.996024 5.2041 1.0429 5.12598C1.2929 4.37598 1.68352 3.69629 2.21477 3.08691C2.26165 3.00879 2.3554 2.93066 2.49602 2.85254C2.62102 2.77441 2.77727 2.73535 2.96477 2.73535C3.05852 2.73535 3.15227 2.75098 3.24602 2.78223L4.13665 3.04004C4.21477 3.05566 4.2929 3.04004 4.37102 2.99316C4.44915 2.94629 4.50384 2.88379 4.53509 2.80566L4.74602 1.91504C4.77727 1.80566 4.81634 1.71191 4.86321 1.63379C4.95696 1.47754 5.06634 1.36035 5.19134 1.28223C5.33196 1.21973 5.44915 1.18066 5.5429 1.16504C5.9179 1.08691 6.30852 1.04785 6.71477 1.04785ZM5.82415 2.24316L5.63665 3.08691C5.52727 3.46191 5.2929 3.75098 4.93352 3.9541C4.57415 4.15723 4.19915 4.21191 3.80852 4.11816L3.01165 3.88379C2.62102 4.33691 2.32415 4.85254 2.12102 5.43066L2.7304 6.0166C3.01165 6.29785 3.15227 6.6416 3.15227 7.04785C3.15227 7.4541 3.01165 7.80566 2.7304 8.10254L2.12102 8.66504C2.32415 9.24316 2.62102 9.75879 3.01165 10.2119L3.83196 9.97754C4.20696 9.86816 4.57415 9.92285 4.93352 10.1416C5.2929 10.3447 5.52727 10.6338 5.63665 11.0088L5.82415 11.8525C6.4179 11.9463 7.01165 11.9463 7.6054 11.8525L7.81634 11.0088C7.92571 10.6338 8.15227 10.3447 8.49602 10.1416C8.8554 9.93848 9.2304 9.88379 9.62102 9.97754L10.4179 10.2119C10.8085 9.75879 11.1054 9.24316 11.3085 8.66504L10.6991 8.0791C10.4179 7.79785 10.2773 7.4541 10.2773 7.04785C10.2773 6.6416 10.4179 6.29004 10.6991 5.99316L11.3085 5.43066C11.1054 4.85254 10.8085 4.33691 10.4179 3.88379L9.62102 4.11816C9.2304 4.22754 8.8554 4.17285 8.49602 3.9541C8.15227 3.75098 7.92571 3.4541 7.81634 3.06348L7.6054 2.24316C7.01165 2.14941 6.4179 2.14941 5.82415 2.24316ZM5.58977 7.04785C5.6054 7.46973 5.7929 7.79785 6.15227 8.03223C6.52727 8.21973 6.90227 8.21973 7.27727 8.03223C7.63665 7.79785 7.82415 7.46973 7.83977 7.04785C7.82415 6.62598 7.63665 6.29785 7.27727 6.06348C6.90227 5.87598 6.52727 5.87598 6.15227 6.06348C5.7929 6.29785 5.6054 6.62598 5.58977 7.04785ZM6.71477 9.29785C6.30852 9.29785 5.93352 9.19629 5.58977 8.99316C5.24602 8.79004 4.97259 8.5166 4.76946 8.17285C4.56634 7.81348 4.46477 7.43848 4.46477 7.04785C4.46477 6.65723 4.56634 6.28223 4.76946 5.92285C4.97259 5.5791 5.24602 5.30566 5.58977 5.10254C5.93352 4.89941 6.30852 4.79785 6.71477 4.79785C7.12102 4.79785 7.49602 4.89941 7.83977 5.10254C8.18352 5.30566 8.45696 5.5791 8.66009 5.92285C8.86321 6.28223 8.96477 6.65723 8.96477 7.04785C8.96477 7.43848 8.86321 7.81348 8.66009 8.17285C8.45696 8.5166 8.18352 8.79004 7.83977 8.99316C7.49602 9.19629 7.12102 9.29785 6.71477 9.29785Z" fill="#0F172A"/>
</svg>
