<svg width="14" height="14" viewBox="0 0 14 14" fill="none" xmlns="http://www.w3.org/2000/svg">
<path d="M6.38086 11.1289C6.56315 11.293 6.77279 11.375 7.00977 11.375C7.24674 11.375 7.45638 11.293 7.63867 11.1289L12.8887 5.87891C13.0527 5.69661 13.1348 5.48698 13.1348 5.25C13.1348 5.01302 13.0527 4.80339 12.8887 4.62109C12.7064 4.45703 12.4967 4.375 12.2598 4.375C12.0228 4.375 11.8132 4.45703 11.6309 4.62109L7.00977 9.26953L2.38867 4.62109C2.20638 4.45703 1.99674 4.375 1.75977 4.375C1.52279 4.375 1.31315 4.45703 1.13086 4.62109C0.966797 4.80339 0.884766 5.01302 0.884766 5.25C0.884766 5.48698 0.966797 5.69661 1.13086 5.87891L6.38086 11.1289Z" fill="#0F172A"/>
</svg>
