<svg width="136" height="50" viewBox="0 0 136 50" fill="none" xmlns="http://www.w3.org/2000/svg">
<g clip-path="url(#clip0_2_3454)">
<path d="M0.0148926 11.9093L0.813709 10.5666L1.61253 11.4683L2.41134 10.6932L3.21016 10.3113L4.00898 14.5702L4.80779 14.77L5.60661 10.5708L6.40543 5.64199L7.20424 6.75339L8.00306 2.51761L8.80188 0L9.60069 2.09282L10.3995 5.42415L11.1983 8.23514L11.9971 7.86961L12.796 8.21886L13.5948 7.14895L14.3936 5.8445L15.1924 5.52627L15.9912 9.35761L16.79 16.1618L17.5889 17.851L18.3877 22.1209L19.1865 24.4521L19.9853 25.3462L20.7841 30.1225L21.5829 28.2199L22.3818 27.1441L23.1806 27.3224L23.9794 25.8428L24.7782 27.5723L25.577 22.2869L26.3758 21.9272L27.1747 24.1639L27.9735 22.7034L28.7723 19.555L29.5711 14.5906L30.3699 12.4391L31.1687 11.3392L31.9676 19.082L32.7664 22.6915L33.5652 25.3508L34.364 31.1796L35.1628 29.8649L35.9616 26.1031L36.7605 20.4694L37.5593 27.031L38.3581 30.7334L39.1569 37.7025L39.9557 36.0052L40.7545 33.7471L41.5534 36.803L42.3522 35.3697L43.151 31.9882L43.9498 29.8518L44.7486 27.5776L45.5474 29.1476L46.3463 29.8892L47.1451 30.0482L47.9439 34.4585L48.7427 35.7819L49.5415 39.185L50.3403 42.0592L51.1392 40.1605L51.938 35.3464L52.7368 38.0147L53.5356 40.9463L54.3344 40.06L55.1332 46.6289L55.9321 46.902L56.7309 50L57.5297 46.769L58.3285 47.8509L59.1273 43.1889L59.9261 46.7554L60.725 44.4428L61.5238 44.3214L62.3226 45.3236L63.1214 46.8485L63.9202 44.1814L64.719 47.5648L65.5179 49.9927L66.3167 46.6382L67.1155 44.7779L67.9143 46.1273L68.7131 43.1502L69.5119 38.8908L70.3108 38.1334L71.1096 38.2997L71.9084 36.8008L72.7072 33.9821L73.506 37.7469L74.3048 39.3588L75.1037 34.7164L75.9025 32.8579L76.7013 31.8376L77.5001 32.6552L78.2989 31.276L79.0977 32.5512L79.8966 33.6239L80.6954 34.7509L81.4942 34.2208L82.293 35.987L83.0918 37.2892L83.8906 38.8586L84.6894 40.2628L85.4883 39.639L86.2871 38.9484L87.0859 38.4831L87.8847 38.8945L88.6835 37.5076L89.4823 37.137L90.2812 41.0422L91.08 40.1507L91.8788 38.3657L92.6776 40.1769L93.4764 39.037L94.2752 39.5445L95.0741 41.7201L95.8729 37.5564L96.6717 39.0239L97.4705 40.9302L98.2693 43.3318L99.0681 40.5217L99.867 38.963L100.666 39.9601L101.465 40.97L102.263 38.2453L103.062 39.8627L103.861 41.327L104.66 42.0653L105.459 42.3933L106.257 42.3512L107.056 41.4178L107.855 40.8272L108.654 38.3434L109.453 39.531L110.252 37.4167L111.05 36.6502L111.849 35.8277L112.648 26.6587L113.447 25.7795L114.246 29.6248L115.044 28.2201L115.843 26.3157L116.642 28.0109L117.441 28.1742L118.24 30.2038L119.039 27.5524L119.837 25.9118L120.636 20.864L121.435 21.5009L122.234 26.0902L123.033 26.3269L123.831 24.7747L124.63 27.7176L125.429 25.5192L126.228 24.3874L127.027 23.221L127.826 28.1693L128.624 29.9088L129.423 27.6653L130.222 29.7233L131.021 21.9474L131.82 22.8686L132.618 24.9272L133.417 17.9849L134.216 24.721" stroke="#FF3A33" stroke-width="1.25"/>
</g>
<defs>
<clipPath id="clip0_2_3454">
<rect width="135" height="50" fill="white" transform="translate(0.0148926)"/>
</clipPath>
</defs>
</svg>
