<svg width="136" height="50" viewBox="0 0 136 50" fill="none" xmlns="http://www.w3.org/2000/svg">
<g clip-path="url(#clip0_2_2159)">
<path d="M0.0148926 4.03398L0.813709 4.0214L1.61253 6.34375L2.41134 6.65705L3.21016 5.62654L4.00898 10.1069L4.80779 11.1421L5.60661 7.12454L6.40543 10.2378L7.20424 9.27914L8.00306 6.24572L8.80188 4.86933L9.60069 4.51106L10.3995 0L11.1983 1.17248L11.9971 3.2143L12.796 3.52503L13.5948 1.03998L14.3936 2.96882L15.1924 3.4363L15.9912 11.1979L16.79 21.0585L17.5889 23.7329L18.3877 27.8868L19.1865 27.7433L19.9853 30.7989L20.7841 32.6965L21.5829 30.677L22.3818 31.7937L23.1806 33.2863L23.9794 31.8481L24.7782 34.0144L25.577 28.5619L26.3758 27.677L27.1747 28.8814L27.9735 29.9098L28.7723 29.5087L29.5711 27.3985L30.3699 26.7829L31.1687 26.5091L31.9676 33.0063L32.7664 34.582L33.5652 35.6447L34.364 35.0714L35.1628 34.2904L35.9616 35.4986L36.7605 31.5418L37.5593 36.8518L38.3581 39.1857L39.1569 45.6433L39.9557 43.3741L40.7545 39.9545L41.5534 41.889L42.3522 40.0835L43.151 41.7958L43.9498 41.4898L44.7486 37.8724L45.5474 37.2735L46.3463 35.9814L47.1451 37.1385L47.9439 39.5357L48.7427 39.2008L49.5415 43.5622L50.3403 50L51.1392 45.5235L51.938 42.474L52.7368 45.4426L53.5356 46.9383L54.3344 44.1508L55.1332 45.7786L55.9321 44.0721L56.7309 48.4197L57.5297 44.8084L58.3285 45.5412L59.1273 41.2491L59.9261 45.6705L60.725 43.2412L61.5238 40.8754L62.3226 40.9151L63.1214 43.017L63.9202 36.7101L64.719 40.4939L65.5179 39.7509L66.3167 40.4069L67.1155 38.4996L67.9143 40.0075L68.7131 38.3367L69.5119 38.014L70.3108 38.9633L71.1096 39.6451L71.9084 37.3826L72.7072 34.7447L73.506 36.9105L74.3048 39.2327L75.1037 35.2494L75.9025 32.302L76.7013 32.8263L77.5001 31.4563L78.2989 31.7469L79.0977 31.6074L79.8966 32.4059L80.6954 32.5544L81.4942 31.3269L82.293 31.5906L83.0918 32.0048L83.8906 36.6723L84.6894 36.8564L85.4883 36.4582L86.2871 33.7513L87.0859 33.8518L87.8847 35.194L88.6835 33.4162L89.4823 32.7223L90.2812 34.269L91.08 34.002L91.8788 33.6625L92.6776 37.1245L93.4764 37.8603L94.2752 37.7691L95.0741 39.6984L95.8729 38.8131L96.6717 40.4285L97.4705 37.8843L98.2693 38.2984L99.0681 36.7061L99.867 35.0679L100.666 35.4839L101.465 35.9925L102.263 33.3465L103.062 34.8705L103.861 36.2171L104.66 37.0288L105.459 36.9989L106.257 36.7876L107.056 36.8396L107.855 36.4013L108.654 35.7043L109.453 36.6868L110.252 34.7798L111.05 34.2302L111.849 33.2006L112.648 28.5683L113.447 27.5174L114.246 30.6471L115.044 31.2619L115.843 30.6333L116.642 32.4382L117.441 31.1494L118.24 32.7505L119.039 28.47L119.837 26.7704L120.636 23.2583L121.435 11.9605L122.234 15.4282L123.033 14.5762L123.831 13.3171L124.63 14.0311L125.429 13.8002L126.228 14.1037L127.027 16.3469L127.826 18.4357L128.624 23.471L129.423 20.164L130.222 22.1707L131.021 16.7255L131.82 15.5996L132.618 12.3222L133.417 11.2403L134.216 17.2809" stroke="#FF3A33" stroke-width="1.25"/>
</g>
<defs>
<clipPath id="clip0_2_2159">
<rect width="135" height="50" fill="white" transform="translate(0.0148926)"/>
</clipPath>
</defs>
</svg>
