<svg width="136" height="50" viewBox="0 0 136 50" fill="none" xmlns="http://www.w3.org/2000/svg">
<g clip-path="url(#clip0_2_4208)">
<path d="M0.0148926 14.7646L0.813709 15.1971L1.61253 13.1974L2.41134 12.9168L3.21016 15.4095L4.00898 18.6811L4.80779 18.5238L5.60661 15.7039L6.40543 13.4145L7.20424 12.6083L8.00306 9.5608L8.80188 7.91523L9.60069 12.321L10.3995 11.6599L11.1983 11.6547L11.9971 11.8762L12.796 11.9157L13.5948 12.2671L14.3936 13.5029L15.1924 13.9274L15.9912 19.407L16.79 28.0584L17.5889 28.1178L18.3877 35.3189L19.1865 36.278L19.9853 37.1063L20.7841 39.5191L21.5829 38.3447L22.3818 40.4105L23.1806 40.2683L23.9794 38.9117L24.7782 38.1579L25.577 35.5969L26.3758 34.9994L27.1747 35.5073L27.9735 36.8535L28.7723 36.4312L29.5711 32.1224L30.3699 32.7664L31.1687 32.3586L31.9676 37.3417L32.7664 36.6292L33.5652 36.9282L34.364 37.6817L35.1628 36.4665L35.9616 39.1028L36.7605 37.0374L37.5593 40.1595L38.3581 41.7971L39.1569 48.1818L39.9557 46.5332L40.7545 44.5797L41.5534 44.8294L42.3522 45.1161L43.151 45.7951L43.9498 44.2864L44.7486 42.8217L45.5474 42.4606L46.3463 42.0106L47.1451 42.3796L47.9439 44.0711L48.7427 43.3498L49.5415 46.935L50.3403 50L51.1392 47.3608L51.938 45.0807L52.7368 46.8059L53.5356 46.4512L54.3344 44.5102L55.1332 48.559L55.9321 46.295L56.7309 49.2023L57.5297 46.2634L58.3285 47.7406L59.1273 45.2787L59.9261 47.3835L60.725 45.0163L61.5238 44.8979L62.3226 45.4568L63.1214 46.0815L63.9202 43.2755L64.719 44.349L65.5179 42.7796L66.3167 42.3292L67.1155 40.0452L67.9143 39.0896L68.7131 38.1848L69.5119 37.136L70.3108 40.027L71.1096 41.6056L71.9084 38.6041L72.7072 37.3966L73.506 41.3335L74.3048 39.9636L75.1037 38.3896L75.9025 36.1997L76.7013 36.6958L77.5001 34.3553L78.2989 33.3179L79.0977 34.507L79.8966 35.6796L80.6954 36.4552L81.4942 34.8076L82.293 33.4012L83.0918 33.551L83.8906 36.7743L84.6894 36.5569L85.4883 33.0716L86.2871 29.9852L87.0859 22.4662L87.8847 22.9874L88.6835 20.178L89.4823 13.9272L90.2812 18.496L91.08 19.111L91.8788 17.2591L92.6776 17.9601L93.4764 20.0194L94.2752 18.579L95.0741 23.7299L95.8729 23.6837L96.6717 23.6429L97.4705 26.1326L98.2693 27.9781L99.0681 25.71L99.867 23.9236L100.666 23.5653L101.465 22.745L102.263 19.6129L103.062 21.8114L103.861 23.599L104.66 23.7558L105.459 22L106.257 22.1548L107.056 20.249L107.855 20.574L108.654 18.7199L109.453 18.6313L110.252 17.3945L111.05 11.5944L111.849 14.5024L112.648 12.4594L113.447 3.42681L114.246 5.91776L115.044 7.64856L115.843 7.77434L116.642 10.7369L117.441 10.089L118.24 11.5567L119.039 9.2489L119.837 10.7205L120.636 7.04728L121.435 1.63557L122.234 4.53962L123.033 2.57605L123.831 3.20716L124.63 0L125.429 0.522976L126.228 3.33664L127.027 3.81607L127.826 6.85212L128.624 12.1848L129.423 9.5893L130.222 10.993L131.021 8.48796L131.82 2.70388L132.618 3.19641L133.417 1.965L134.216 8.172" stroke="#57FF84" stroke-width="1.25"/>
</g>
<defs>
<clipPath id="clip0_2_4208">
<rect width="135" height="50" fill="white" transform="translate(0.0148926)"/>
</clipPath>
</defs>
</svg>
