<svg width="15" height="14" viewBox="0 0 15 14" fill="none" xmlns="http://www.w3.org/2000/svg">
<path d="M8.39648 5.00391C8.14128 5.3138 8.14128 5.6237 8.39648 5.93359C8.70638 6.1888 9.01628 6.1888 9.32617 5.93359L13.0176 2.24219V4.59375C13.054 4.99479 13.2728 5.21354 13.6738 5.25C14.0749 5.21354 14.2936 4.99479 14.3301 4.59375V0.65625C14.2936 0.255208 14.0749 0.0364583 13.6738 0H9.73633C9.33529 0.0364583 9.11654 0.255208 9.08008 0.65625C9.11654 1.05729 9.33529 1.27604 9.73633 1.3125H12.0879L8.39648 5.00391ZM6.26367 8.99609C6.51888 8.6862 6.51888 8.3763 6.26367 8.06641C5.95378 7.8112 5.64388 7.8112 5.33398 8.06641L1.64258 11.7578V9.40625C1.60612 9.00521 1.38737 8.78646 0.986328 8.75C0.585286 8.78646 0.366536 9.00521 0.330078 9.40625V13.3438C0.366536 13.7448 0.585286 13.9635 0.986328 14H4.92383C5.32487 13.9635 5.54362 13.7448 5.58008 13.3438C5.54362 12.9427 5.32487 12.724 4.92383 12.6875H2.57227L6.26367 8.99609Z" fill="white" fill-opacity="0.5"/>
</svg>
