<svg width="17" height="14" viewBox="0 0 17 14" fill="none" xmlns="http://www.w3.org/2000/svg">
<path d="M8.75586 3.26633e-05C9.0293 0.0182618 9.22982 0.145866 9.35742 0.382845L11.2168 4.23831L15.4004 4.83988C15.6738 4.89456 15.8561 5.04951 15.9473 5.30472C16.0202 5.55993 15.9655 5.77868 15.7832 5.96097L12.748 8.96878L13.459 13.2344C13.4954 13.4896 13.4043 13.7084 13.1855 13.8907C12.9668 14.0365 12.7389 14.0456 12.502 13.918L8.75586 11.9219L5.00977 13.918C4.77279 14.0456 4.54492 14.0274 4.32617 13.8633C4.10742 13.6993 4.01628 13.4896 4.05273 13.2344L4.76367 8.96878L1.72852 5.96097C1.54622 5.77868 1.49154 5.55993 1.56445 5.30472C1.6556 5.04951 1.83789 4.89456 2.11133 4.83988L6.29492 4.23831L8.1543 0.382845C8.2819 0.145866 8.48242 0.0182618 8.75586 3.26633e-05ZM8.75586 2.16019L7.30664 5.11331C7.21549 5.31383 7.05143 5.44144 6.81445 5.49613L3.58789 5.96097L5.93945 8.28519C6.08529 8.44925 6.14909 8.64066 6.13086 8.85941L5.55664 12.1407L8.45508 10.6094C8.6556 10.5 8.85612 10.5 9.05664 10.6094L11.9277 12.1407L11.3809 8.85941C11.3444 8.64066 11.4082 8.44925 11.5723 8.28519L13.9238 5.96097L10.6973 5.49613C10.4603 5.44144 10.2962 5.31383 10.2051 5.11331L8.75586 2.16019Z" fill="white"/>
</svg>
