<svg width="136" height="50" viewBox="0 0 136 50" fill="none" xmlns="http://www.w3.org/2000/svg">
<g clip-path="url(#clip0_2_3850)">
<path d="M0.0148926 46.3075L0.818464 46.2547L1.62204 43.3703L2.42561 43.5798L3.22918 47.0134L4.03275 47.3761L4.83632 45.8645L5.63989 45.0826L6.44346 44.8174L7.24704 41.2346L8.05061 41.0412L8.85418 41.0571L9.65775 38.3632L10.4613 40.1883L11.2649 40.2189L12.0685 40.0907L12.872 39.5534L13.6756 42.2173L14.4792 45.8107L15.2828 46.0817L16.0863 50L16.8899 42.4957L17.6935 41.4333L18.497 43.4488L19.3006 43.7474L20.1042 47.474L20.9077 45.9614L21.7113 42.3735L22.5149 44.9663L23.3185 43.0836L24.122 41.5338L24.9256 35.1504L25.7292 38.6579L26.5327 35.9728L27.3363 36.1671L28.1399 34.482L28.9435 34.0653L29.747 31.3648L30.5506 28.8843L31.3542 34.238L32.1577 35.2047L32.9613 35.6874L33.7649 37.3911L34.5685 31.385L35.372 32.3137L36.1756 28.7748L36.9792 30.6268L37.7827 33.5728L38.5863 39.8047L39.3899 36.6239L40.1935 35.4771L40.997 37.144L41.8006 33.4687L42.6042 35.1808L43.4077 34.0326L44.2113 34.5998L45.0149 33.1609L45.8185 31.8761L46.622 33.6627L47.4256 34.1001L48.2292 34.7853L49.0327 42.4611L49.8363 45.4134L50.6399 41.0271L51.4435 40.1668L52.247 42.581L53.0506 41.4628L53.8542 40.4363L54.6577 43.5155L55.4613 42.146L56.2649 46.1666L57.0685 45.6836L57.872 45.1631L58.6756 40.458L59.4792 40.5507L60.2827 40.9021L61.0863 39.2854L61.8899 34.8184L62.6935 39.7696L63.497 35.486L64.3006 35.2392L65.1042 35.405L65.9078 33.5098L66.7113 33.7599L67.5149 34.5443L68.3185 34.564L69.122 38.8338L69.9256 38.8476L70.7292 39.0146L71.5328 37.0374L72.3363 34.5739L73.1399 35.7419L73.9435 36.1144L74.747 36.3103L75.5506 28.9466L76.3542 25.0629L77.1578 21.2418L77.9613 18.3684L78.7649 15.9158L79.5685 20.175L80.372 19.4672L81.1756 19.0235L81.9792 20.173L82.7828 22.3491L83.5863 24.5142L84.3899 23.5761L85.1935 23.3255L85.997 23.6616L86.8006 20.7282L87.6042 20.1626L88.4078 21.055L89.2113 19.0832L90.0149 17.6868L90.8185 17.1972L91.622 19.9001L92.4256 18.3221L93.2292 18.9082L94.0328 17.5443L94.8363 19.7021L95.6399 19.2059L96.4435 20.4891L97.247 20.5857L98.0506 21.9893L98.8542 21.9853L99.6578 23.5576L100.461 22.2362L101.265 22.0906L102.068 19.8923L102.872 23.2282L103.676 24.0847L104.479 23.7258L105.283 24.7609L106.086 22.9178L106.89 23.4684L107.693 23.8345L108.497 20.8406L109.301 19.5183L110.104 20.4113L110.908 19.2159L111.711 18.6502L112.515 15.2989L113.318 12.5425L114.122 11.3826L114.926 14.5471L115.729 14.5974L116.533 15.7714L117.336 17.2075L118.14 18.4354L118.943 16.8017L119.747 17.8997L120.551 1.38589L121.354 6.54677L122.158 8.85887L122.961 8.23637L123.765 4.4599L124.568 1.22838L125.372 0L126.176 4.22235L126.979 4.65377L127.783 6.39448L128.586 6.98047L129.39 2.87581L130.193 6.04055L130.997 6.28948L131.801 8.15853L132.604 7.4396L133.408 7.96515L134.211 10.3163" stroke="#57FF84" stroke-width="1.25"/>
</g>
<defs>
<clipPath id="clip0_2_3850">
<rect width="135" height="50" fill="white" transform="translate(0.0148926)"/>
</clipPath>
</defs>
</svg>
