<svg width="10" height="13" viewBox="0 0 10 13" fill="none" xmlns="http://www.w3.org/2000/svg">
<path d="M8.95898 3.83398C9.11133 3.66471 9.1875 3.47005 9.1875 3.25C9.1875 3.02995 9.11133 2.83529 8.95898 2.66602C8.78971 2.51367 8.59505 2.4375 8.375 2.4375C8.15495 2.4375 7.96029 2.51367 7.79102 2.66602L5.125 5.35742L2.45898 2.66602C2.28971 2.51367 2.09505 2.4375 1.875 2.4375C1.65495 2.4375 1.46029 2.51367 1.29102 2.66602C1.13867 2.83529 1.0625 3.02995 1.0625 3.25C1.0625 3.47005 1.13867 3.66471 1.29102 3.83398L3.98242 6.5L1.29102 9.16602C1.13867 9.33529 1.0625 9.52995 1.0625 9.75C1.0625 9.97005 1.13867 10.1647 1.29102 10.334C1.46029 10.4863 1.65495 10.5625 1.875 10.5625C2.09505 10.5625 2.28971 10.4863 2.45898 10.334L5.125 7.64258L7.79102 10.334C7.96029 10.4863 8.15495 10.5625 8.375 10.5625C8.59505 10.5625 8.78971 10.4863 8.95898 10.334C9.11133 10.1647 9.1875 9.97005 9.1875 9.75C9.1875 9.52995 9.11133 9.33529 8.95898 9.16602L6.26758 6.5L8.95898 3.83398Z" fill="#F8FAFC"/>
</svg>
