<svg width="136" height="51" viewBox="0 0 136 51" fill="none" xmlns="http://www.w3.org/2000/svg">
<g clip-path="url(#clip0_9_1907)">
<path d="M0.0148926 3.77371L0.813709 4.20919L1.61253 3.77039L2.41134 2.8123L3.21016 3.95519L4.00898 9.37618L4.80779 9.33087L5.60661 5.6931L6.40543 5.38003L7.20424 5.38328L8.00306 2.99473L8.80188 2.84903L9.60069 4.41762L10.3995 1.59164L11.1983 1.28741L11.9971 1.60806L12.796 2.02681L13.5948 0.5L14.3936 2.39468L15.1924 4.57541L15.9912 11.3134L16.79 24.2011L17.5889 24.4622L18.3877 27.9678L19.1865 32.5035L19.9853 34.6063L20.7841 38.2793L21.5829 40.7419L22.3818 39.7741L23.1806 37.9817L23.9794 36.9194L24.7782 35.91L25.577 33.4421L26.3758 32.6957L27.1747 33.0468L27.9735 33.5809L28.7723 33.0957L29.5711 30.3666L30.3699 32.0541L31.1687 32.9742L31.9676 39.4795L32.7664 39.7362L33.5652 38.6021L34.364 43.6604L35.1628 42.0413L35.9616 44.8816L36.7605 38.7026L37.5593 43.499L38.3581 43.2607L39.1569 49.3513L39.9557 50.5L40.7545 45.5222L41.5534 48.7958L42.3522 48.4342L43.151 49.9424L43.9498 49.1137L44.7486 46.5919L45.5474 45.2546L46.3463 44.4793L47.1451 44.1653L47.9439 46.3367L48.7427 45.4794L49.5415 45.8652L50.3403 45.3465L51.1392 40.2809L51.938 35.0389L52.7368 43.3191L53.5356 41.2253L54.3344 42.1221L55.1332 46.4238L55.9321 37.4933L56.7309 40.172L57.5297 35.8753L58.3285 35.4955L59.1273 33.7152L59.9261 38.302L60.725 36.1858L61.5238 34.7679L62.3226 34.9L63.1214 37.3462L63.9202 34.1945L64.719 33.9954L65.5179 34.6267L66.3167 34.2737L67.1155 32.5096L67.9143 35.9385L68.7131 34.2346L69.5119 34.6852L70.3108 34.7515L71.1096 36.4209L71.9084 34.1634L72.7072 33.1092L73.506 35.1968L74.3048 35.0275L75.1037 30.7975L75.9025 27.5453L76.7013 27.6518L77.5001 24.9617L78.2989 25.08L79.0977 26.7503L79.8966 28.52L80.6954 28.9917L81.4942 27.359L82.293 27.1167L83.0918 28.8484L83.8906 32.4913L84.6894 32.9532L85.4883 31.7835L86.2871 29.8023L87.0859 28.9621L87.8847 31.4791L88.6835 29.9216L89.4823 29.8487L90.2812 30.5788L91.08 31.2189L91.8788 30.4501L92.6776 31.3085L93.4764 30.6153L94.2752 30.5853L95.0741 33.5913L95.8729 31.7291L96.6717 34.2692L97.4705 36.6354L98.2693 38.5839L99.0681 35.7729L99.867 34.0134L100.666 34.5695L101.465 34.662L102.263 32.7755L103.062 34.5739L103.861 35.9706L104.66 35.0307L105.459 34.8472L106.257 35.1468L107.056 27.5024L107.855 31.9687L108.654 29.9783L109.453 31.4852L110.252 30.2546L111.05 29.4878L111.849 31.1946L112.648 28.0448L113.447 26.4381L114.246 28.9781L115.044 28.3508L115.843 27.421L116.642 28.263L117.441 28.6432L118.24 31.8968L119.039 27.9024L119.837 28.5346L120.636 22.5908L121.435 21.5973L122.234 22.4853L123.033 23.3184L123.831 23.4565L124.63 23.3672L125.429 21.339L126.228 21.4573L127.027 24.9755L127.826 29.0228L128.624 32.0222L129.423 29.2569L130.222 28.7614L131.021 26.8349L131.82 26.6026L132.618 27.1363L133.417 25.4179L134.216 31.1942" stroke="#FF3A33" stroke-width="1.25"/>
</g>
<defs>
<clipPath id="clip0_9_1907">
<rect width="135" height="50" fill="white" transform="translate(0.0148926 0.5)"/>
</clipPath>
</defs>
</svg>
