<svg width="15" height="14" viewBox="0 0 15 14" fill="none" xmlns="http://www.w3.org/2000/svg">
<path d="M8.81641 5.00391C8.5612 5.3138 8.5612 5.6237 8.81641 5.93359C9.1263 6.1888 9.4362 6.1888 9.74609 5.93359L13.4375 2.24219V4.59375C13.474 4.99479 13.6927 5.21354 14.0938 5.25C14.4948 5.21354 14.7135 4.99479 14.75 4.59375V0.65625C14.7135 0.255208 14.4948 0.0364583 14.0938 0H10.1562C9.75521 0.0364583 9.53646 0.255208 9.5 0.65625C9.53646 1.05729 9.75521 1.27604 10.1562 1.3125H12.5078L8.81641 5.00391ZM6.68359 8.99609C6.9388 8.6862 6.9388 8.3763 6.68359 8.06641C6.3737 7.8112 6.0638 7.8112 5.75391 8.06641L2.0625 11.7578V9.40625C2.02604 9.00521 1.80729 8.78646 1.40625 8.75C1.00521 8.78646 0.786458 9.00521 0.75 9.40625V13.3438C0.786458 13.7448 1.00521 13.9635 1.40625 14H5.34375C5.74479 13.9635 5.96354 13.7448 6 13.3438C5.96354 12.9427 5.74479 12.724 5.34375 12.6875H2.99219L6.68359 8.99609Z" fill="#475569"/>
</svg>
