<svg width="136" height="50" viewBox="0 0 136 50" fill="none" xmlns="http://www.w3.org/2000/svg">
<g clip-path="url(#clip0_2_3992)">
<path d="M0.0148926 6.91961L0.813709 6.80694L1.61253 2.88866L2.41134 3.75502L3.21016 5.27502L4.00898 8.83552L4.80779 5.16528L5.60661 8.38303L6.40543 5.37863L7.20424 3.47041L8.00306 2.95286L8.80188 3.96654L9.60069 0.41089L10.3995 0L11.1983 0.683934L11.9971 0.659398L12.796 0.536573L13.5948 3.9032L14.3936 6.95114L15.1924 12.2358L15.9912 13.2388L16.79 20.6026L17.5889 22.4507L18.3877 17.9199L19.1865 25.0536L19.9853 27.9271L20.7841 39.7178L21.5829 33.5082L22.3818 40.9906L23.1806 38.3574L23.9794 35.0827L24.7782 31.2122L25.577 28.3073L26.3758 27.1457L27.1747 31.9599L27.9735 34.0438L28.7723 29.0762L29.5711 28.5632L30.3699 27.7035L31.1687 35.1285L31.9676 36.2575L32.7664 35.6674L33.5652 38.0085L34.364 34.179L35.1628 30.8912L35.9616 26.7831L36.7605 29.2363L37.5593 29.973L38.3581 38.6773L39.1569 48.1206L39.9557 39.195L40.7545 42.3602L41.5534 40.3736L42.3522 42.863L43.151 38.215L43.9498 37.6428L44.7486 35.1786L45.5474 33.9185L46.3463 31.8593L47.1451 36.3691L47.9439 32.6671L48.7427 39.6179L49.5415 47.3947L50.3403 41.2133L51.1392 38.0612L51.938 41.3828L52.7368 44.3002L53.5356 44.6299L54.3344 50L55.1332 43.9061L55.9321 46.9671L56.7309 42.5509L57.5297 41.0833L58.3285 37.202L59.1273 41.3908L59.9261 40.6568L60.725 40.925L61.5238 41.4652L62.3226 43.4815L63.1214 35.4953L63.9202 35.3947L64.719 38.3633L65.5179 37.1136L66.3167 35.7754L67.1155 36.1007L67.9143 32.7717L68.7131 31.9405L69.5119 34.3043L70.3108 33.6839L71.1096 32.4638L71.9084 28.8011L72.7072 34.1468L73.506 35.3811L74.3048 29.1233L75.1037 21.7672L75.9025 26.3611L76.7013 21.5514L77.5001 22.4597L78.2989 22.0035L79.0977 23.1403L79.8966 24.4895L80.6954 23.5087L81.4942 23.1676L82.293 25.9356L83.0918 26.7575L83.8906 27.2401L84.6894 24.4925L85.4883 24.0019L86.2871 22.3798L87.0859 23.7334L87.8847 24.0545L88.6835 22.1866L89.4823 22.6968L90.2812 22.4405L91.08 21.5938L91.8788 21.8943L92.6776 21.4012L93.4764 22.856L94.2752 25.0854L95.0741 23.5106L95.8729 26.5523L96.6717 27.8252L97.4705 28.6462L98.2693 26.3835L99.0681 24.6202L99.867 23.7072L100.666 26.9471L101.465 25.7531L102.263 25.6896L103.062 26.3216L103.861 26.6365L104.66 26.3666L105.459 26.1247L106.257 25.0638L107.056 25.3673L107.855 25.7962L108.654 24.9469L109.453 24.0878L110.252 23.1786L111.05 23.748L111.849 15.633L112.648 17.6448L113.447 17.9245L114.246 18.492L115.044 18.5696L115.843 19.7073L116.642 19.2692L117.441 20.2836L118.24 17.6212L119.039 15.6726L119.837 2.98221L120.636 2.85346L121.435 5.53094L122.234 5.20177L123.033 6.74117L123.831 9.41289L124.63 6.01018L125.429 6.56327L126.228 6.81597L127.027 8.27933L127.826 9.58658L128.624 11.2344L129.423 13.2322L130.222 8.36158L131.021 3.78491L131.82 4.91301L132.618 3.19201L133.417 3.44446L134.216 9.56884" stroke="#FF3A33" stroke-width="1.25"/>
</g>
<defs>
<clipPath id="clip0_2_3992">
<rect width="135" height="50" fill="white" transform="translate(0.0148926)"/>
</clipPath>
</defs>
</svg>
