<svg width="136" height="50" viewBox="0 0 136 50" fill="none" xmlns="http://www.w3.org/2000/svg">
<g clip-path="url(#clip0_2_1512)">
<path d="M0.0148926 3.36915L0.813709 4.08096L1.61253 4.06075L2.41134 0.911798L3.21016 2.68347L4.00898 5.67993L4.80779 9.85135L5.60661 6.71047L6.40543 7.53384L7.20424 7.14923L8.00306 4.4209L8.80188 3.46591L9.60069 3.11814L10.3995 1.08558L11.1983 0.789213L11.9971 0.911102L12.796 0.75369L13.5948 0L14.3936 1.38913L15.1924 2.10125L15.9912 9.33956L16.79 14.0957L17.5889 16.7636L18.3877 19.7194L19.1865 20.21L19.9853 22.3991L20.7841 29.3158L21.5829 26.1315L22.3818 26.3368L23.1806 26.9932L23.9794 26.5749L24.7782 28.3689L25.577 24.3555L26.3758 22.0959L27.1747 22.7504L27.9735 23.4388L28.7723 23.348L29.5711 19.491L30.3699 21.1836L31.1687 20.3147L31.9676 25.3705L32.7664 24.3249L33.5652 25.1275L34.364 29.7413L35.1628 23.8541L35.9616 25.6548L36.7605 19.5086L37.5593 25.8051L38.3581 28.0606L39.1569 33.9652L39.9557 38.0028L40.7545 35.9731L41.5534 35.648L42.3522 35.3877L43.151 37.6149L43.9498 36.6301L44.7486 34.9524L45.5474 34.1536L46.3463 32.6239L47.1451 33.8667L47.9439 34.5325L48.7427 34.4029L49.5415 40.4224L50.3403 47.5678L51.1392 43.8978L51.938 42.0294L52.7368 45.059L53.5356 47.2919L54.3344 47.7801L55.1332 50L55.9321 47.787L56.7309 49.5995L57.5297 47.3748L58.3285 47.8511L59.1273 44.2688L59.9261 46.9963L60.725 44.8045L61.5238 45.0966L62.3226 45.1281L63.1214 46.2323L63.9202 42.4703L64.719 44.4255L65.5179 43.884L66.3167 43.5731L67.1155 39.8725L67.9143 41.5841L68.7131 39.1137L69.5119 37.5836L70.3108 38.2705L71.1096 39.5155L71.9084 37.9756L72.7072 34.589L73.506 36.7336L74.3048 38.5605L75.1037 32.8806L75.9025 29.7436L76.7013 32.2438L77.5001 29.273L78.2989 29.4024L79.0977 29.5806L79.8966 30.2623L80.6954 32.1005L81.4942 30.5054L82.293 30.161L83.0918 30.3905L83.8906 33.499L84.6894 33.9575L85.4883 32.5126L86.2871 30.4402L87.0859 28.6565L87.8847 29.1985L88.6835 27.8524L89.4823 28.0566L90.2812 29.2196L91.08 30.5558L91.8788 29.4014L92.6776 31.4973L93.4764 31.4933L94.2752 31.9422L95.0741 33.3175L95.8729 32.1781L96.6717 33.0899L97.4705 33.6496L98.2693 34.9488L99.0681 33.6381L99.867 31.9788L100.666 33.5362L101.465 33.2611L102.263 30.5629L103.062 31.1921L103.861 31.9934L104.66 32.8634L105.459 32.3772L106.257 31.1683L107.056 31.684L107.855 30.757L108.654 29.5118L109.453 29.8791L110.252 28.865L111.05 28.0935L111.849 28.2529L112.648 24.52L113.447 24.5511L114.246 26.7658L115.044 26.3436L115.843 24.1175L116.642 26.1572L117.441 26.2526L118.24 27.565L119.039 24.6839L119.837 23.7232L120.636 17.7788L121.435 14.4308L122.234 16.7743L123.033 16.2326L123.831 16.9279L124.63 18.4054L125.429 17.4271L126.228 20.0826L127.027 18.6376L127.826 22.4751L128.624 24.008L129.423 22.0179L130.222 23.1449L131.021 19.9658L131.82 16.6914L132.618 18.3183L133.417 18.4974L134.216 23.7763" stroke="#FF3A33" stroke-width="1.25"/>
</g>
<defs>
<clipPath id="clip0_2_1512">
<rect width="135" height="50" fill="white" transform="translate(0.0148926)"/>
</clipPath>
</defs>
</svg>
