<svg width="157" height="58" viewBox="0 0 157 58" fill="none" xmlns="http://www.w3.org/2000/svg">
<g clip-path="url(#clip0_2_5522)">
<path d="M0 48.0046L0.932083 46.8558L1.86417 48.4373L2.79625 48.4939L3.72833 46.4226L4.66042 52.9051L5.5925 53.1337L6.52458 51.0185L7.45667 42.0361L8.38875 44.9183L9.32083 36.8509L10.2529 38.6061L11.185 40.3677L12.1171 30.2089L13.0492 35.7123L13.9813 38.2119L14.9133 33.1576L15.8454 33.7837L16.7775 33.2383L17.7096 38.7205L18.6417 39.1444L19.5738 44.9191L20.5058 43.4072L21.4379 43.1958L22.37 45.9091L23.3021 45.0546L24.2342 41.7366L25.1662 44.9721L26.0983 43.4439L27.0304 40.1027L27.9625 47.4895L28.8946 47.0543L29.8267 52.6527L30.7587 49.9939L31.6908 52.0149L32.6229 48.0556L33.555 49.3387L34.4871 52.2447L35.4192 53.6401L36.3512 57.9983L37.2833 53.9804L38.2154 50.1896L39.1475 48.4819L40.0796 49.5882L41.0117 45.4877L41.9437 42.4374L42.8758 39.3247L43.8079 41.4427L44.74 40.7554L45.6721 33.0912L46.6042 33.2923L47.5363 31.4209L48.4683 34.13L49.4004 33.8944L50.3325 20.8114L51.2646 18.4148L52.1967 23.712L53.1287 20.2959L54.0608 26.4692L54.9929 29.2042L55.925 24.0467L56.8571 23.8405L57.7892 22.8924L58.7213 21.103L59.6533 23.4193L60.5854 26.8794L61.5175 19.0271L62.4496 18.5717L63.3817 16.1107L64.3138 15.9498L65.2458 15.1578L66.1779 11.2732L67.11 11.4894L68.0421 17.1594L68.9742 16.362L69.9063 12.0295L70.8383 12.6973L71.7704 3.25639L72.7025 6.1904L73.6346 0.00195312L74.5667 7.30747L75.4988 7.04965L76.4308 9.86779L77.3629 8.52307L78.295 8.42637L79.2271 6.60297L80.1592 8.13142L81.0912 6.44536L82.0233 5.83774L82.9554 2.58904L83.8875 4.66271L84.8196 5.22172L85.7517 7.60284L86.6837 11.3163L87.6158 10.9901L88.5479 15.1571L89.48 14.1665L90.4121 11.4355L91.3442 11.0989L92.2763 15.1242L93.2083 15.5229L94.1404 11.4983L95.0725 12.9708L96.0046 14.9116L96.9367 13.0223L97.8688 11.7413L98.8008 11.5344L99.7329 13.0142L100.665 13.6397L101.597 12.3278L102.529 10.4393L103.461 13.8303L104.393 10.7795L105.325 11.5938L106.257 10.6466L107.19 12.6151L108.122 14.7091L109.054 17.446L109.986 19.2458L110.918 17.7832L111.85 16.9233L112.782 17.2497L113.714 14.888L114.646 16.7369L115.578 13.111L116.51 14.5119L117.443 11.8232L118.375 11.3952L119.307 9.91493L120.239 10.0692L121.171 7.21331L122.103 9.61749L123.035 8.45112L123.967 12.0795L124.899 13.2299L125.831 16.9129L126.763 26.802L127.695 31.1706L128.628 28.3981L129.56 29.6142L130.492 26.9772L131.424 29.2901L132.356 25.5146L133.288 28.1861L134.22 39.6011L135.152 40.4532L136.084 35.7024L137.016 33.3627L137.948 35.3203L138.88 38.2234L139.813 42.9651L140.745 43.4746L141.677 41.0756L142.609 45.0425L143.541 42.5328L144.473 37.8602L145.405 39.7611L146.337 44.0926L147.269 47.0828L148.201 42.6177L149.133 43.0124L150.065 42.9031L150.998 37.6673L151.93 34.4317L152.862 36.5745L153.794 31.1438L154.726 31.6309L155.658 33.0225" stroke="url(#paint0_linear_2_5522)" stroke-width="1.44991"/>
</g>
<defs>
<linearGradient id="paint0_linear_2_5522" x1="77.829" y1="0.00195312" x2="77.829" y2="57.9982" gradientUnits="userSpaceOnUse">
<stop stop-color="#F6E717"/>
<stop offset="1" stop-color="#F1B31C"/>
</linearGradient>
<clipPath id="clip0_2_5522">
<rect width="156.59" height="57.9963" fill="white" transform="translate(0 0.00195312)"/>
</clipPath>
</defs>
</svg>
