<svg width="15" height="14" viewBox="0 0 15 14" fill="none" xmlns="http://www.w3.org/2000/svg">
<path d="M1.74316 1.53125C1.70671 1.13021 1.48796 0.911458 1.08691 0.875C0.685872 0.911458 0.467122 1.13021 0.430664 1.53125V11.1562C0.448893 11.7214 0.640299 12.1862 1.00488 12.5508C1.36947 12.9154 1.83431 13.1068 2.39941 13.125H13.7744C14.1755 13.0885 14.3942 12.8698 14.4307 12.4688C14.3942 12.0677 14.1755 11.849 13.7744 11.8125H2.39941C1.99837 11.776 1.77962 11.5573 1.74316 11.1562V1.53125ZM9.18066 1.3125C9.16243 1.03906 9.0166 0.893229 8.74316 0.875C8.46973 0.893229 8.32389 1.03906 8.30566 1.3125V2.625C8.05046 2.625 7.84082 2.70703 7.67676 2.87109C7.5127 3.03516 7.43066 3.24479 7.43066 3.5V6.125C7.43066 6.38021 7.5127 6.58984 7.67676 6.75391C7.84082 6.91797 8.05046 7 8.30566 7V8.3125C8.32389 8.58594 8.46973 8.73177 8.74316 8.75C9.0166 8.73177 9.16243 8.58594 9.18066 8.3125V7C9.43587 7 9.64551 6.91797 9.80957 6.75391C9.97363 6.58984 10.0557 6.38021 10.0557 6.125V3.5C10.0557 3.24479 9.97363 3.03516 9.80957 2.87109C9.64551 2.70703 9.43587 2.625 9.18066 2.625V1.3125ZM10.9307 6.125V7.875C10.9307 8.13021 11.0127 8.33984 11.1768 8.50391C11.3408 8.66797 11.5505 8.75 11.8057 8.75V10.0625C11.8239 10.3359 11.9697 10.4818 12.2432 10.5C12.5166 10.4818 12.6624 10.3359 12.6807 10.0625V8.75C12.9359 8.75 13.1455 8.66797 13.3096 8.50391C13.4736 8.33984 13.5557 8.13021 13.5557 7.875V6.125C13.5557 5.86979 13.4736 5.66016 13.3096 5.49609C13.1455 5.33203 12.9359 5.25 12.6807 5.25V3.9375C12.6624 3.66406 12.5166 3.51823 12.2432 3.5C11.9697 3.51823 11.8239 3.66406 11.8057 3.9375V5.25C11.5505 5.25 11.3408 5.33203 11.1768 5.49609C11.0127 5.66016 10.9307 5.86979 10.9307 6.125ZM4.80566 3.5C4.55046 3.5 4.34082 3.58203 4.17676 3.74609C4.0127 3.91016 3.93066 4.11979 3.93066 4.375V7.875C3.93066 8.13021 4.0127 8.33984 4.17676 8.50391C4.34082 8.66797 4.55046 8.75 4.80566 8.75V10.0625C4.82389 10.3359 4.96973 10.4818 5.24316 10.5C5.5166 10.4818 5.66243 10.3359 5.68066 10.0625V8.75C5.93587 8.75 6.14551 8.66797 6.30957 8.50391C6.47363 8.33984 6.55566 8.13021 6.55566 7.875V4.375C6.55566 4.11979 6.47363 3.91016 6.30957 3.74609C6.14551 3.58203 5.93587 3.5 5.68066 3.5V2.1875C5.66243 1.91406 5.5166 1.76823 5.24316 1.75C4.96973 1.76823 4.82389 1.91406 4.80566 2.1875V3.5Z" fill="white" fill-opacity="0.5"/>
</svg>
