<svg width="136" height="50" viewBox="0 0 136 50" fill="none" xmlns="http://www.w3.org/2000/svg">
<g clip-path="url(#clip0_2_4925)">
<path d="M0.0148926 4.3706L0.813709 5.24154L1.61253 0.557078L2.41134 2.58509L3.21016 5.90252L4.00898 10.8414L4.80779 7.97309L5.60661 5.84604L6.40543 7.62687L7.20424 4.42025L8.00306 3.07493L8.80188 3.73265L9.60069 0.657648L10.3995 1.03023L11.1983 1.97752L11.9971 0L12.796 0.61334L13.5948 1.39521L14.3936 2.47848L15.1924 8.93248L15.9912 13.5216L16.79 16.0514L17.5889 21.1745L18.3877 20.2252L19.1865 22.4521L19.9853 23.4846L20.7841 25.8356L21.5829 26.4292L22.3818 27.5941L23.1806 26.081L23.9794 27.5263L24.7782 24.5843L25.577 22.4757L26.3758 21.7084L27.1747 23.0952L27.9735 23.4435L28.7723 18.4519L29.5711 20.6704L30.3699 19.6558L31.1687 25.0534L31.9676 24.7425L32.7664 24.9916L33.5652 29.344L34.364 24.1407L35.1628 23.426L35.9616 19.3933L36.7605 23.8381L37.5593 24.7045L38.3581 32.8243L39.1569 37.8244L39.9557 35.2893L40.7545 35.2662L41.5534 34.5151L42.3522 37.5304L43.151 35.3505L43.9498 34.3085L44.7486 33.2047L45.5474 31.7449L46.3463 33.156L47.1451 35.1272L47.9439 33.274L48.7427 37.0446L49.5415 46.877L50.3403 43.0332L51.1392 42.117L51.938 45.5352L52.7368 47.1077L53.5356 45.9215L54.3344 49.4056L55.1332 46.8866L55.9321 50L56.7309 47.3302L57.5297 45.6265L58.3285 43.9569L59.1273 47.2075L59.9261 43.9131L60.725 43.9393L61.5238 44.4862L62.3226 45.361L63.1214 41.393L63.9202 42.5214L64.719 43.8777L65.5179 42.9189L66.3167 38.8928L67.1155 40.6687L67.9143 38.2431L68.7131 36.208L69.5119 38.2769L70.3108 39.0795L71.1096 37.179L71.9084 35.5763L72.7072 33.4248L73.506 37.8681L74.3048 32.5613L75.1037 28.9587L75.9025 31.616L76.7013 29.4346L77.5001 29.2329L78.2989 29.2551L79.0977 29.8406L79.8966 31.4607L80.6954 30.1042L81.4942 29.1173L82.293 30.4089L83.0918 32.2153L83.8906 32.6642L84.6894 31.9175L85.4883 29.9359L86.2871 28.0042L87.0859 28L87.8847 27.9112L88.6835 27.0608L89.4823 28.7814L90.2812 29.6856L91.08 28.822L91.8788 31.1387L92.6776 30.3327L93.4764 31.2224L94.2752 32.6306L95.0741 31.5518L95.8729 32.7465L96.6717 32.8998L97.4705 35.0394L98.2693 32.6857L99.0681 31.0751L99.867 31.1505L100.666 32.8819L101.465 30.0074L102.263 30.0278L103.062 31.6651L103.861 32.2724L104.66 31.339L105.459 31.2302L106.257 31.1811L107.056 30.3907L107.855 29.0892L108.654 30.3455L109.453 28.1186L110.252 27.272L111.05 27.2659L111.849 22.8838L112.648 23.9761L113.447 26.3315L114.246 25.8347L115.044 24.0314L115.843 25.6002L116.642 26.21L117.441 27.2523L118.24 25.343L119.039 22.9155L119.837 16.8846L120.636 14.5288L121.435 16.2546L122.234 15.4832L123.033 15.8428L123.831 17.8278L124.63 17.2148L125.429 19.2308L126.228 18.9914L127.027 21.412L127.826 23.1831L128.624 21.0763L129.423 22.8668L130.222 19.6924L131.021 14.7596L131.82 17.3908L132.618 17.017L133.417 17.0226L134.216 21.3486" stroke="#FF3A33" stroke-width="1.25"/>
</g>
<defs>
<clipPath id="clip0_2_4925">
<rect width="135" height="50" fill="white" transform="translate(0.0148926)"/>
</clipPath>
</defs>
</svg>
