<svg width="136" height="50" viewBox="0 0 136 50" fill="none" xmlns="http://www.w3.org/2000/svg">
<g clip-path="url(#clip0_2_3921)">
<path d="M0.0148926 25.6146L0.813709 22.4712L1.61253 19.9952L2.41134 20.8904L3.21016 21.8653L4.00898 23.0996L4.80779 24.0702L5.60661 21.0286L6.40543 18.3833L7.20424 20.0454L8.00306 10.1384L8.80188 11.9102L9.60069 8.0076L10.3995 2.8073L11.1983 0.410083L11.9971 0L12.796 6.14907L13.5948 3.78308L14.3936 4.81831L15.1924 7.88433L15.9912 10.3267L16.79 18.1847L17.5889 12.791L18.3877 17.9493L19.1865 23.9978L19.9853 19.5341L20.7841 22.731L21.5829 22.8661L22.3818 22.6936L23.1806 23.1203L23.9794 22.7446L24.7782 19.7716L25.577 18.1043L26.3758 16.4371L27.1747 13.3765L27.9735 11.6267L28.7723 13.927L29.5711 10.9071L30.3699 11.6702L31.1687 14.3439L31.9676 21.8757L32.7664 29.8024L33.5652 29.4395L34.364 35.3116L35.1628 32.0185L35.9616 29.2063L36.7605 25.1597L37.5593 25.7842L38.3581 28.2546L39.1569 33.3349L39.9557 40.5454L40.7545 39.104L41.5534 43.0654L42.3522 44.6612L43.151 47.0164L43.9498 45.8523L44.7486 46.4194L45.5474 44.1503L46.3463 43.3437L47.1451 43.7172L47.9439 41.128L48.7427 29.6765L49.5415 35.6045L50.3403 41.6658L51.1392 36.7015L51.938 38.8649L52.7368 40.9057L53.5356 42.0909L54.3344 42.3304L55.1332 46.8718L55.9321 48.0122L56.7309 50L57.5297 49.818L58.3285 48.0878L59.1273 44.6165L59.9261 49.7105L60.725 47.2051L61.5238 47.4299L62.3226 43.7738L63.1214 46.6559L63.9202 43.2178L64.719 43.2414L65.5179 44.6746L66.3167 43.9689L67.1155 41.751L67.9143 41.9608L68.7131 41.1576L69.5119 39.865L70.3108 41.1835L71.1096 40.8372L71.9084 40.7136L72.7072 41.2911L73.506 37.814L74.3048 41.18L75.1037 37.7703L75.9025 35.6581L76.7013 37.1723L77.5001 36.4352L78.2989 36.2741L79.0977 36.4783L79.8966 37.2345L80.6954 37.508L81.4942 36.019L82.293 36.8985L83.0918 37.264L83.8906 40.5063L84.6894 44.1207L85.4883 44.4609L86.2871 39.7455L87.0859 39.6437L87.8847 40.8204L88.6835 39.0565L89.4823 40.3575L90.2812 40.1298L91.08 40.5802L91.8788 39.7122L92.6776 41.1855L93.4764 41.1901L94.2752 43.3369L95.0741 46.0309L95.8729 45.6648L96.6717 46.4801L97.4705 47.0433L98.2693 49.1801L99.0681 47.8874L99.867 44.9351L100.666 46.8646L101.465 46.5661L102.263 45.4311L103.062 45.7336L103.861 47.2712L104.66 49.2695L105.459 48.9983L106.257 47.4315L107.056 45.5013L107.855 45.683L108.654 41.6772L109.453 41.9584L110.252 41.2883L111.05 38.4989L111.849 37.6167L112.648 35.9967L113.447 35.0429L114.246 34.7725L115.044 30.2729L115.843 28.9309L116.642 30.9732L117.441 31.9606L118.24 33.1962L119.039 32.5041L119.837 31.9629L120.636 27.7423L121.435 26.4389L122.234 32.8034L123.033 30.7177L123.831 32.0675L124.63 34.1244L125.429 34.1422L126.228 40.4633L127.027 36.7534L127.826 37.6979L128.624 39.5754L129.423 38.0051L130.222 40.7901L131.021 39.1223L131.82 38.2301L132.618 41.3993L133.417 45.2928L134.216 46.3965" stroke="#FF3A33" stroke-width="1.25"/>
</g>
<defs>
<clipPath id="clip0_2_3921">
<rect width="135" height="50" fill="white" transform="translate(0.0148926)"/>
</clipPath>
</defs>
</svg>
