<svg width="136" height="50" viewBox="0 0 136 50" fill="none" xmlns="http://www.w3.org/2000/svg">
<g clip-path="url(#clip0_2_2807)">
<path d="M0.0148926 21.8135L0.813709 19.5199L1.61253 18.6217L2.41134 14.5512L3.21016 13.8044L4.00898 13.5366L4.80779 15.4314L5.60661 13.005L6.40543 14.3972L7.20424 11.8766L8.00306 7.16879L8.80188 7.492L9.60069 5.70567L10.3995 6.12437L11.1983 4.0956L11.9971 0.426817L12.796 0L13.5948 1.00905L14.3936 2.30781L15.1924 5.07566L15.9912 12.7572L16.79 15.4668L17.5889 25.2458L18.3877 27.0528L19.1865 32.6895L19.9853 37.0811L20.7841 37.1853L21.5829 45.2123L22.3818 48.2107L23.1806 50L23.9794 48.5132L24.7782 42.4742L25.577 39.2323L26.3758 36.8547L27.1747 36.9879L27.9735 37.1606L28.7723 35.7441L29.5711 33.8764L30.3699 32.4442L31.1687 31.9439L31.9676 35.6424L32.7664 35.3223L33.5652 35.1246L34.364 38.2927L35.1628 38.5291L35.9616 43.9738L36.7605 35.9422L37.5593 38.3128L38.3581 37.3114L39.1569 39.5859L39.9557 39.3481L40.7545 40.1895L41.5534 39.0185L42.3522 38.8399L43.151 42.1552L43.9498 39.7242L44.7486 37.9424L45.5474 37.8931L46.3463 40.9959L47.1451 38.6891L47.9439 39.5547L48.7427 36.0576L49.5415 39.5168L50.3403 46.9359L51.1392 43.392L51.938 42.2549L52.7368 44.1421L53.5356 44.1391L54.3344 42.8246L55.1332 48.539L55.9321 43.7397L56.7309 41.9824L57.5297 35.4094L58.3285 35.7105L59.1273 33.918L59.9261 35.8239L60.725 32.5728L61.5238 32.5676L62.3226 29.2992L63.1214 28.4652L63.9202 22.2409L64.719 23.4133L65.5179 14.6551L66.3167 13.8578L67.1155 15.8761L67.9143 19.7292L68.7131 20.4362L69.5119 18.2853L70.3108 18.4406L71.1096 18.5123L71.9084 17.3127L72.7072 14.2872L73.506 14.3352L74.3048 14.5287L75.1037 12.9029L75.9025 14.6978L76.7013 15.5995L77.5001 12.8514L78.2989 9.84994L79.0977 11.0599L79.8966 11.2373L80.6954 11.238L81.4942 9.06807L82.293 9.75992L83.0918 12.1025L83.8906 14.1416L84.6894 12.2386L85.4883 11.6753L86.2871 11.8254L87.0859 10.5337L87.8847 10.8892L88.6835 10.5226L89.4823 11.1195L90.2812 11.5237L91.08 11.5199L91.8788 8.75334L92.6776 9.48789L93.4764 11.5236L94.2752 12.0389L95.0741 14.8057L95.8729 14.048L96.6717 13.4057L97.4705 14.471L98.2693 14.6057L99.0681 13.2393L99.867 13.5504L100.666 13.2554L101.465 13.1779L102.263 12.3195L103.062 11.5819L103.861 10.1635L104.66 10.199L105.459 11.0504L106.257 10.3287L107.056 10.359L107.855 10.5031L108.654 11.5333L109.453 13.6004L110.252 13.696L111.05 12.8548L111.849 14.3821L112.648 10.503L113.447 9.55865L114.246 11.9443L115.044 12.9697L115.843 11.8729L116.642 12.7042L117.441 11.7621L118.24 13.2725L119.039 11.7765L119.837 10.6914L120.636 12.6418L121.435 7.27981L122.234 10.9071L123.033 9.08713L123.831 8.104L124.63 8.80883L125.429 5.97883L126.228 7.66296L127.027 5.88976L127.826 6.54489L128.624 14.4406L129.423 9.55424L130.222 11.3984L131.021 4.07897L131.82 8.83108L132.618 7.78676L133.417 5.04093L134.216 11.9702" stroke="#57FF84" stroke-width="1.25"/>
</g>
<defs>
<clipPath id="clip0_2_2807">
<rect width="135" height="50" fill="white" transform="translate(0.0148926)"/>
</clipPath>
</defs>
</svg>
