<svg width="136" height="50" viewBox="0 0 136 50" fill="none" xmlns="http://www.w3.org/2000/svg">
<g clip-path="url(#clip0_2_4889)">
<path d="M0.0148926 19.7214L0.813709 26.2879L1.61253 26.2452L2.41134 17.2192L3.21016 20.1181L4.00898 24.6586L4.80779 26.3309L5.60661 21.0308L6.40543 21.3464L7.20424 23.2602L8.00306 19.5889L8.80188 19.4333L9.60069 16.8967L10.3995 15.7751L11.1983 15.7479L11.9971 15.8777L12.796 16.6355L13.5948 17.5152L14.3936 17.9688L15.1924 20.0872L15.9912 24.2413L16.79 29.6932L17.5889 32.6578L18.3877 36.2876L19.1865 38.9031L19.9853 33.8207L20.7841 39.2494L21.5829 41.9654L22.3818 39.9462L23.1806 42.4305L23.9794 41.5216L24.7782 40.8344L25.577 37.6066L26.3758 37.1301L27.1747 38.5485L27.9735 40.1536L28.7723 39.3856L29.5711 36.5445L30.3699 37.0502L31.1687 36.4504L31.9676 39.9636L32.7664 40.2952L33.5652 42.0082L34.364 43.3111L35.1628 40.2102L35.9616 39.3254L36.7605 38.0623L37.5593 38.7181L38.3581 38.7847L39.1569 43.3487L39.9557 46.7048L40.7545 47.5781L41.5534 48.253L42.3522 46.8475L43.151 50L43.9498 48.0896L44.7486 46.8815L45.5474 46.7236L46.3463 40.7461L47.1451 40.0983L47.9439 39.772L48.7427 40.5803L49.5415 43.5785L50.3403 44.8548L51.1392 44.9057L51.938 41.996L52.7368 42.7489L53.5356 44.5912L54.3344 43.4719L55.1332 46.0915L55.9321 47.6536L56.7309 45.9825L57.5297 44.4777L58.3285 44.9357L59.1273 39.0584L59.9261 39.0174L60.725 38.1719L61.5238 36.5053L62.3226 35.9364L63.1214 33.8524L63.9202 26.9868L64.719 29.5676L65.5179 28.5667L66.3167 29.2817L67.1155 27.7196L67.9143 27.5983L68.7131 26.5783L69.5119 23.6391L70.3108 21.5385L71.1096 20.9925L71.9084 20.7618L72.7072 15.1987L73.506 12.4874L74.3048 12.7454L75.1037 4.3931L75.9025 9.51707L76.7013 18.702L77.5001 15.3243L78.2989 12.8332L79.0977 15.636L79.8966 16.8845L80.6954 15.7228L81.4942 15.3719L82.293 15.4024L83.0918 17.3206L83.8906 18.7183L84.6894 19.3598L85.4883 19.835L86.2871 17.228L87.0859 16.0264L87.8847 16.735L88.6835 18.1796L89.4823 16.9971L90.2812 17.7931L91.08 18.2129L91.8788 17.3567L92.6776 17.3466L93.4764 18.1618L94.2752 17.6353L95.0741 19.0218L95.8729 20.7063L96.6717 21.4333L97.4705 22.9498L98.2693 25.3301L99.0681 22.6808L99.867 20.8164L100.666 21.0415L101.465 23.4258L102.263 22.2383L103.062 22.0767L103.861 23.4129L104.66 23.3476L105.459 23.4054L106.257 21.9374L107.056 22.7807L107.855 20.8373L108.654 20.7197L109.453 21.6298L110.252 21.11L111.05 20.082L111.849 18.0264L112.648 12.8938L113.447 11.5379L114.246 12.9483L115.044 13.4143L115.843 13.5249L116.642 14.6955L117.441 15.7818L118.24 16.8819L119.039 14.9453L119.837 14.2635L120.636 7.84903L121.435 8.75978L122.234 8.20194L123.033 8.97358L123.831 10.2947L124.63 8.70065L125.429 6.09766L126.228 6.26794L127.027 5.93772L127.826 5.78964L128.624 6.408L129.423 3.34283L130.222 2.60347L131.021 1.61054L131.82 0L132.618 1.55696L133.417 2.19139L134.216 9.34161" stroke="#57FF84" stroke-width="1.25"/>
</g>
<defs>
<clipPath id="clip0_2_4889">
<rect width="135" height="50" fill="white" transform="translate(0.0148926)"/>
</clipPath>
</defs>
</svg>
