<svg width="136" height="50" viewBox="0 0 136 50" fill="none" xmlns="http://www.w3.org/2000/svg">
<g clip-path="url(#clip0_2_3130)">
<path d="M0.0148926 4.51166L0.813709 5.81L1.61253 5.69515L2.41134 3.98527L3.21016 4.81937L4.00898 7.89552L4.80779 11.0299L5.60661 7.34838L6.40543 6.61668L7.20424 6.79554L8.00306 4.48866L8.80188 2.28931L9.60069 1.68297L10.3995 0.326239L11.1983 0L11.9971 1.64881L12.796 1.55919L13.5948 0.629185L14.3936 2.62319L15.1924 4.5397L15.9912 11.4944L16.79 20.7325L17.5889 23.8808L18.3877 30.6337L19.1865 30.6007L19.9853 33.19L20.7841 34.6452L21.5829 37.6041L22.3818 33.9575L23.1806 34.9632L23.9794 36.1822L24.7782 34.6035L25.577 32.6802L26.3758 31.2184L27.1747 32.7833L27.9735 32.5127L28.7723 33.7343L29.5711 31.7L30.3699 31.8294L31.1687 30.7199L31.9676 36.0696L32.7664 38.6269L33.5652 37.9383L34.364 38.5692L35.1628 35.844L35.9616 38.8096L36.7605 33.7976L37.5593 37.4016L38.3581 37.582L39.1569 43.2589L39.9557 45.2579L40.7545 43.1192L41.5534 44.9094L42.3522 43.3922L43.151 44.6658L43.9498 44.1536L44.7486 41.7083L45.5474 41.6L46.3463 40.0748L47.1451 40.5219L47.9439 42.3699L48.7427 42.31L49.5415 46.8023L50.3403 48.7733L51.1392 46.2471L51.938 43.9288L52.7368 47.1167L53.5356 46.1603L54.3344 46.0611L55.1332 50L55.9321 47.4384L56.7309 49.5522L57.5297 46.5968L58.3285 47.2973L59.1273 44.5682L59.9261 47.1115L60.725 44.2152L61.5238 43.145L62.3226 43.9368L63.1214 43.7189L63.9202 39.6663L64.719 39.5409L65.5179 40.2184L66.3167 39.2231L67.1155 36.4988L67.9143 38.1572L68.7131 36.765L69.5119 35.292L70.3108 34.9792L71.1096 35.4526L71.9084 35.1316L72.7072 33.8109L73.506 35.3004L74.3048 35.1758L75.1037 31.7256L75.9025 28.6166L76.7013 31.4757L77.5001 28.96L78.2989 29.0584L79.0977 28.336L79.8966 28.6162L80.6954 29.7472L81.4942 28.6799L82.293 27.6946L83.0918 29.4368L83.8906 31.4435L84.6894 31.9242L85.4883 30.8315L86.2871 30.1111L87.0859 29.4692L87.8847 31.2096L88.6835 31.0242L89.4823 30.3328L90.2812 32.1802L91.08 31.2729L91.8788 30.4963L92.6776 32.8065L93.4764 32.713L94.2752 33.3912L95.0741 35.875L95.8729 35.3051L96.6717 37.371L97.4705 38.3159L98.2693 39.2201L99.0681 37.9904L99.867 35.7507L100.666 36.363L101.465 36.5401L102.263 34.0489L103.062 34.7979L103.861 36.2265L104.66 36.3296L105.459 36.022L106.257 36.3724L107.056 35.9255L107.855 36.4039L108.654 35.4647L109.453 36.5257L110.252 35.8472L111.05 34.544L111.849 34.604L112.648 31.021L113.447 31.4226L114.246 33.0091L115.044 32.0623L115.843 31.3682L116.642 33.7918L117.441 33.3409L118.24 35.2089L119.039 34.4929L119.837 32.0255L120.636 26.4021L121.435 26.6541L122.234 26.1649L123.033 27.4657L123.831 28.7276L124.63 28.4065L125.429 27.0156L126.228 28.1497L127.027 28.3153L127.826 32.3983L128.624 34.3365L129.423 31.9867L130.222 31.7529L131.021 30.3907L131.82 29.4262L132.618 29.6342L133.417 29.8321L134.216 33.8736" stroke="#FF3A33" stroke-width="1.25"/>
</g>
<defs>
<clipPath id="clip0_2_3130">
<rect width="135" height="50" fill="white" transform="translate(0.0148926)"/>
</clipPath>
</defs>
</svg>
