<svg width="136" height="50" viewBox="0 0 136 50" fill="none" xmlns="http://www.w3.org/2000/svg">
<g clip-path="url(#clip0_2_4316)">
<path d="M0.0148926 7.99293L0.813709 5.86628L1.61253 5.55522L2.41134 6.40369L3.21016 4.3741L4.00898 9.4156L4.80779 7.37761L5.60661 5.13984L6.40543 8.36593L7.20424 6.02987L8.00306 4.19269L8.80188 1.32088L9.60069 0.202398L10.3995 0.44414L11.1983 1.58637L11.9971 0.0772209L12.796 0L13.5948 0.513845L14.3936 1.52376L15.1924 7.57468L15.9912 8.05201L16.79 5.99023L17.5889 12.7572L18.3877 17.8347L19.1865 20.626L19.9853 27.3217L20.7841 30.5334L21.5829 27.9197L22.3818 30.9628L23.1806 28.2739L23.9794 26.6981L24.7782 23.6283L25.577 23.7858L26.3758 25.143L27.1747 24.5402L27.9735 24.1376L28.7723 24.0873L29.5711 19.8603L30.3699 20.2271L31.1687 24.3065L31.9676 26.7324L32.7664 24.257L33.5652 24.1301L34.364 27.2097L35.1628 21.6716L35.9616 20.0692L36.7605 20.6291L37.5593 21.7133L38.3581 30.2179L39.1569 34.4485L39.9557 32.3766L40.7545 34.5016L41.5534 36.8788L42.3522 32.0611L43.151 33.1848L43.9498 32.002L44.7486 33.4729L45.5474 35.6527L46.3463 32.7593L47.1451 34.1421L47.9439 35.1737L48.7427 37.1442L49.5415 38.2693L50.3403 38.1092L51.1392 36.3092L51.938 36.6435L52.7368 37.4623L53.5356 38.5537L54.3344 41.5697L55.1332 50L55.9321 49.1982L56.7309 46.4821L57.5297 45.1953L58.3285 44.3995L59.1273 43.1008L59.9261 41.309L60.725 39.6405L61.5238 39.0084L62.3226 38.6969L63.1214 38.2456L63.9202 35.3784L64.719 35.2774L65.5179 34.5622L66.3167 34.5553L67.1155 35.0566L67.9143 32.6226L68.7131 32.6218L69.5119 32.2085L70.3108 31.7565L71.1096 32.587L71.9084 32.7558L72.7072 28.3971L73.506 27.1365L74.3048 28.6829L75.1037 27.6797L75.9025 26.187L76.7013 28.2299L77.5001 26.8712L78.2989 24.1227L79.0977 24.5193L79.8966 25.4175L80.6954 24.834L81.4942 24.6629L82.293 25.4878L83.0918 26.7995L83.8906 25.1155L84.6894 23.7046L85.4883 25.0369L86.2871 23.6511L87.0859 25.6128L87.8847 27.4217L88.6835 25.9878L89.4823 25.7891L90.2812 25.7763L91.08 25.3993L91.8788 25.6431L92.6776 27.7793L93.4764 25.2167L94.2752 25.2002L95.0741 25.6315L95.8729 24.8408L96.6717 24.9507L97.4705 28.2821L98.2693 26.8219L99.0681 20.954L99.867 22.9168L100.666 25.615L101.465 24.4089L102.263 25.236L103.062 24.9567L103.861 23.4554L104.66 22.2842L105.459 20.9289L106.257 22.5975L107.056 21.8801L107.855 20.9832L108.654 21.9447L109.453 20.4875L110.252 19.5809L111.05 17.5685L111.849 16.9717L112.648 14.7552L113.447 14.3777L114.246 14.7901L115.044 14.1077L115.843 15.3116L116.642 15.0048L117.441 15.519L118.24 14.0202L119.039 14.6192L119.837 13.2988L120.636 13.5093L121.435 11.9211L122.234 16.4011L123.033 11.5828L123.831 11.777L124.63 10.7895L125.429 12.8141L126.228 10.623L127.027 12.6469L127.826 14.0856L128.624 14.2472L129.423 12.6525L130.222 11.1754L131.021 9.52539L131.82 9.3338L132.618 5.07425L133.417 7.22845L134.216 15.946" stroke="#FF3A33" stroke-width="1.25"/>
</g>
<defs>
<clipPath id="clip0_2_4316">
<rect width="135" height="50" fill="white" transform="translate(0.0148926)"/>
</clipPath>
</defs>
</svg>
