<svg width="136" height="50" viewBox="0 0 136 50" fill="none" xmlns="http://www.w3.org/2000/svg">
<g clip-path="url(#clip0_2_2735)">
<path d="M0.0148926 18.6858L0.813709 20.4179L1.61253 19.4244L2.41134 18.1841L3.21016 18.6018L4.00898 21.2404L4.80779 24.0298L5.60661 18.4592L6.40543 16.8748L7.20424 16.3517L8.00306 14.9476L8.80188 14.5053L9.60069 15.0287L10.3995 9.81171L11.1983 10.0803L11.9971 11.0489L12.796 11.7097L13.5948 10.7933L14.3936 11.0519L15.1924 14.5072L15.9912 21.0398L16.79 37.0441L17.5889 36.9123L18.3877 40.8429L19.1865 41.7159L19.9853 45.9752L20.7841 50L21.5829 46.6925L22.3818 44.296L23.1806 47.3081L23.9794 45.624L24.7782 40.4919L25.577 40.6107L26.3758 37.7243L27.1747 39.2377L27.9735 41.4624L28.7723 40.2184L29.5711 32.6201L30.3699 33.3818L31.1687 33.4164L31.9676 39.9345L32.7664 39.5541L33.5652 36.6838L34.364 40.8416L35.1628 37.4908L35.9616 39.0401L36.7605 33.7229L37.5593 39.7772L38.3581 41.7525L39.1569 48.5063L39.9557 45.6279L40.7545 42.2845L41.5534 43.2847L42.3522 42.176L43.151 41.5799L43.9498 39.9739L44.7486 28.0392L45.5474 24.7903L46.3463 17.5914L47.1451 21.6531L47.9439 24.0543L48.7427 23.2238L49.5415 24.7235L50.3403 37.4173L51.1392 30.4001L51.938 31.4702L52.7368 37.6276L53.5356 34.8638L54.3344 30.2406L55.1332 36.6692L55.9321 35.6589L56.7309 43.7988L57.5297 32.5586L58.3285 29.5164L59.1273 21.7071L59.9261 29.9311L60.725 24.7723L61.5238 26.5912L62.3226 26.2438L63.1214 22.6892L63.9202 12.3297L64.719 13.2633L65.5179 18.4209L66.3167 20.4246L67.1155 13.8207L67.9143 15.0473L68.7131 10.6588L69.5119 13.4166L70.3108 16.0842L71.1096 16.4369L71.9084 17.5585L72.7072 10.5149L73.506 10.8816L74.3048 10.999L75.1037 5.43661L75.9025 0L76.7013 1.84643L77.5001 10.5799L78.2989 13.4637L79.0977 15.7702L79.8966 16.3423L80.6954 18.767L81.4942 17.2779L82.293 19.1193L83.0918 19.9988L83.8906 24.7893L84.6894 24.6085L85.4883 27.3066L86.2871 26.6084L87.0859 27.898L87.8847 26.7975L88.6835 23.7955L89.4823 24.1961L90.2812 26.5214L91.08 26.6248L91.8788 25.427L92.6776 27.2323L93.4764 28.4204L94.2752 29.4574L95.0741 33.0571L95.8729 30.7786L96.6717 32.0464L97.4705 33.8043L98.2693 35.0639L99.0681 33.5036L99.867 28.5722L100.666 28.9394L101.465 28.751L102.263 26.4646L103.062 26.2692L103.861 28.5717L104.66 29.9424L105.459 30.9341L106.257 28.9209L107.056 28.3271L107.855 29.1466L108.654 28.9748L109.453 29.8918L110.252 30.3248L111.05 30.1741L111.849 30.6432L112.648 25.1945L113.447 24.8497L114.246 26.8227L115.044 27.1515L115.843 27.4081L116.642 28.561L117.441 27.2816L118.24 28.6629L119.039 25.2128L119.837 24.3161L120.636 18.7653L121.435 20.1658L122.234 21.0072L123.033 22.1123L123.831 21.3265L124.63 21.9352L125.429 20.3524L126.228 20.847L127.027 24.4328L127.826 29.6449L128.624 33.9106L129.423 31.8282L130.222 33.7407L131.021 27.8727L131.82 24.1355L132.618 27.5821L133.417 25.8151L134.216 35.0296" stroke="#FF3A33" stroke-width="1.25"/>
</g>
<defs>
<clipPath id="clip0_2_2735">
<rect width="135" height="50" fill="white" transform="translate(0.0148926)"/>
</clipPath>
</defs>
</svg>
