<svg width="61" height="57" viewBox="0 0 61 57" fill="none" xmlns="http://www.w3.org/2000/svg">
<rect x="0.222656" y="0.725586" width="48" height="48" rx="10" fill="url(#paint0_linear_3_1319)"/>
<rect x="0.347656" y="0.850586" width="47.75" height="47.75" rx="9.875" stroke="white" stroke-opacity="0.2" stroke-width="0.25"/>
<path d="M24.2227 16.0589C25.5848 16.0589 26.2651 16.0589 26.6883 16.4821C27.1115 16.9054 27.1115 17.5857 27.1115 18.9478V30.5034C27.1115 31.8655 27.1115 32.5458 26.6883 32.969C26.2651 33.3923 25.5848 33.3923 24.2227 33.3923M24.2227 16.0589C22.8605 16.0589 22.1802 16.0589 21.757 16.4821C21.3338 16.9054 21.3338 17.5857 21.3338 18.9478V30.5034C21.3338 31.8655 21.3338 32.5458 21.757 32.969C22.1802 33.3923 22.8605 33.3923 24.2227 33.3923M24.2227 16.0589V11.7256M24.2227 33.3923V37.7256M34.3338 14.6145C35.6959 14.6145 36.3762 14.6145 36.7994 15.0377C37.2227 15.4609 37.2227 16.1413 37.2227 17.5034V20.3923C37.2227 21.7544 37.2227 22.4347 36.7994 22.8579C36.3762 23.2811 35.6959 23.2811 34.3338 23.2811M34.3338 14.6145C32.9717 14.6145 32.2913 14.6145 31.8681 15.0377C31.4449 15.4609 31.4449 16.1413 31.4449 17.5034V20.3923C31.4449 21.7544 31.4449 22.4347 31.8681 22.8579C32.2913 23.2811 32.9717 23.2811 34.3338 23.2811M34.3338 14.6145V11.7256M34.3338 23.2811V26.17M14.1115 21.8367C15.4737 21.8367 16.154 21.8367 16.5772 22.2599C17.0004 22.6831 17.0004 23.3635 17.0004 24.7256V27.6145C17.0004 28.9766 17.0004 29.6569 16.5772 30.0801C16.154 30.5034 15.4737 30.5034 14.1115 30.5034M14.1115 21.8367C12.7494 21.8367 12.0691 21.8367 11.6459 22.2599C11.2227 22.6831 11.2227 23.3635 11.2227 24.7256V27.6145C11.2227 28.9766 11.2227 29.6569 11.6459 30.0801C12.0691 30.5034 12.7494 30.5034 14.1115 30.5034M14.1115 21.8367V18.9478M14.1115 30.5034V33.3923" stroke="#F7E700" stroke-width="1.5" stroke-linecap="round" stroke-linejoin="round"/>
<defs>
<linearGradient id="paint0_linear_3_1319" x1="24.2227" y1="0.725586" x2="24.2227" y2="48.7256" gradientUnits="userSpaceOnUse">
<stop stop-color="#3C3C3C"/>
<stop offset="0.536" stop-color="#060B19"/>
</linearGradient>
</defs>
</svg>
