<svg width="61" height="57" viewBox="0 0 61 57" fill="none" xmlns="http://www.w3.org/2000/svg">
<g clip-path="url(#clip0_0_1049)">
<rect x="0.222656" y="0.725586" width="48" height="48" rx="10" fill="url(#paint0_linear_0_1049)"/>
<rect x="0.347656" y="0.850586" width="47.75" height="47.75" rx="9.875" stroke="white" stroke-opacity="0.2" stroke-width="0.25"/>
<path d="M35.2227 30.8666V26.7256C35.2227 26.1952 35.012 25.6864 34.6369 25.3114C34.2618 24.9363 33.7531 24.7256 33.2227 24.7256H25.2227V20.7256H27.2227C27.7531 20.7256 28.2618 20.5149 28.6369 20.1398C29.012 19.7647 29.2227 19.256 29.2227 18.7256V12.7256C29.2227 12.1952 29.012 11.6864 28.6369 11.3114C28.2618 10.9363 27.7531 10.7256 27.2227 10.7256H21.2227C20.6922 10.7256 20.1835 10.9363 19.8085 11.3114C19.4334 11.6864 19.2227 12.1952 19.2227 12.7256V18.7256C19.2227 19.256 19.4334 19.7647 19.8085 20.1398C20.1835 20.5149 20.6922 20.7256 21.2227 20.7256H23.2227V24.7256H15.2227C14.6922 24.7256 14.1835 24.9363 13.8085 25.3114C13.4334 25.6864 13.2227 26.1952 13.2227 26.7256V30.8676C12.28 31.111 11.4585 31.6898 10.9121 32.4956C10.3657 33.3014 10.1319 34.2788 10.2545 35.2446C10.3772 36.2104 10.8479 37.0983 11.5784 37.7419C12.3089 38.3855 13.2491 38.7406 14.2227 38.7406C15.1962 38.7406 16.1364 38.3855 16.8669 37.7419C17.5974 37.0983 18.0681 36.2104 18.1908 35.2446C18.3135 34.2788 18.0797 33.3014 17.5333 32.4956C16.9869 31.6898 16.1653 31.111 15.2227 30.8676V26.7256H23.2227V30.8676C22.28 31.111 21.4585 31.6898 20.9121 32.4956C20.3657 33.3014 20.1319 34.2788 20.2545 35.2446C20.3772 36.2104 20.8479 37.0983 21.5784 37.7419C22.3089 38.3855 23.2491 38.7406 24.2227 38.7406C25.1962 38.7406 26.1364 38.3855 26.8669 37.7419C27.5974 37.0983 28.0681 36.2104 28.1908 35.2446C28.3135 34.2788 28.0797 33.3014 27.5333 32.4956C26.9869 31.6898 26.1653 31.111 25.2227 30.8676V26.7256H33.2227V30.8666C32.28 31.11 31.4585 31.6888 30.9121 32.4946C30.3657 33.3004 30.1319 34.2778 30.2545 35.2436C30.3772 36.2094 30.8479 37.0973 31.5784 37.7409C32.3089 38.3845 33.2491 38.7396 34.2227 38.7396C35.1962 38.7396 36.1364 38.3845 36.8669 37.7409C37.5974 37.0973 38.0681 36.2094 38.1908 35.2436C38.3135 34.2778 38.0797 33.3004 37.5333 32.4946C36.9869 31.6888 36.1653 31.11 35.2227 30.8666ZM21.2227 12.7256H27.2227L27.2237 18.7256H21.2227V12.7256ZM16.2227 34.7256C16.2227 35.1211 16.1054 35.5078 15.8856 35.8367C15.6658 36.1656 15.3535 36.422 14.988 36.5733C14.6226 36.7247 14.2204 36.7643 13.8325 36.6872C13.4445 36.61 13.0882 36.4195 12.8085 36.1398C12.5287 35.8601 12.3383 35.5037 12.2611 35.1158C12.1839 34.7278 12.2235 34.3257 12.3749 33.9602C12.5263 33.5948 12.7826 33.2824 13.1115 33.0626C13.4404 32.8429 13.8271 32.7256 14.2227 32.7256C14.7531 32.7256 15.2618 32.9363 15.6369 33.3114C16.012 33.6864 16.2227 34.1952 16.2227 34.7256ZM26.2227 34.7256C26.2227 35.1211 26.1054 35.5078 25.8856 35.8367C25.6658 36.1656 25.3535 36.422 24.988 36.5733C24.6226 36.7247 24.2204 36.7643 23.8325 36.6872C23.4445 36.61 23.0882 36.4195 22.8085 36.1398C22.5287 35.8601 22.3383 35.5037 22.2611 35.1158C22.1839 34.7278 22.2235 34.3257 22.3749 33.9602C22.5263 33.5948 22.7826 33.2824 23.1115 33.0626C23.4404 32.8429 23.8271 32.7256 24.2227 32.7256C24.7529 32.7264 25.2611 32.9373 25.636 33.3122C26.0109 33.6871 26.2219 34.1954 26.2227 34.7256ZM34.2227 36.7256C33.8271 36.7256 33.4404 36.6083 33.1115 36.3885C32.7826 36.1688 32.5263 35.8564 32.3749 35.491C32.2235 35.1255 32.1839 34.7234 32.2611 34.3354C32.3383 33.9474 32.5287 33.5911 32.8085 33.3114C33.0882 33.0317 33.4445 32.8412 33.8325 32.764C34.2204 32.6868 34.6226 32.7265 34.988 32.8778C35.3535 33.0292 35.6658 33.2855 35.8856 33.6144C36.1054 33.9433 36.2227 34.33 36.2227 34.7256C36.2227 35.256 36.012 35.7647 35.6369 36.1398C35.2618 36.5149 34.7531 36.7256 34.2227 36.7256Z" fill="#F7E700"/>
</g>
<defs>
<linearGradient id="paint0_linear_0_1049" x1="24.2227" y1="0.725586" x2="24.2227" y2="48.7256" gradientUnits="userSpaceOnUse">
<stop stop-color="#3C3C3C"/>
<stop offset="0.536" stop-color="#060B19"/>
</linearGradient>
<clipPath id="clip0_0_1049">
<rect width="48" height="48" fill="white" transform="translate(0.222656 0.725586)"/>
</clipPath>
</defs>
</svg>
