<svg width="45" height="69" viewBox="0 0 45 69" fill="none" xmlns="http://www.w3.org/2000/svg">
<path d="M22.814 55.565C28.7807 55.565 33.8081 53.6432 37.4725 50.3262L30.342 44.8979C28.3567 46.2195 25.8027 46.9724 22.814 46.9724C17.0464 46.9724 12.1529 43.1555 10.3985 38.0166H3.05872V43.6079C6.81437 50.9424 14.4549 55.565 22.814 55.565Z" fill="#F7E700"/>
<path d="M43.728 34.6139C43.728 33.1804 43.607 31.7522 43.354 30.3389H22.8712V38.4346H34.6014C34.1165 41.0465 32.5513 43.3571 30.2646 44.8213V50.0808H37.2676C41.3673 46.4282 43.728 41.0158 43.728 34.6139Z" fill="#F7E700"/>
<path d="M10.3583 38.6117C9.46031 35.7354 9.46031 32.6111 10.3583 29.7294V23.7568H3.25092C0.213398 30.3144 0.213398 38.0375 3.25092 44.5955L10.3583 38.6117Z" fill="#F7E700"/>
<path d="M22.7342 21.3831C25.8765 21.3357 28.9064 22.4994 31.1828 24.6369L37.4725 18.4454C33.4861 14.7603 28.2065 12.7333 22.7342 12.7912C14.4088 12.7912 6.79402 17.4188 3.05872 24.7474L10.374 30.3384C12.1162 25.1947 16.9899 21.3831 22.7342 21.3831Z" fill="#F7E700"/>
</svg>
