<svg width="36" height="57" viewBox="0 0 36 57" fill="none" xmlns="http://www.w3.org/2000/svg">
<path d="M25.1916 23.3965H28.1082V6.3965H13.5249V9.22984H25.1916V23.3965ZM25.1916 26.2298V30.4784C25.1916 31.2618 24.5353 31.8951 23.723 31.8951H6.24344C6.05108 31.8964 5.86034 31.8607 5.68223 31.7901C5.50412 31.7195 5.34214 31.6154 5.20564 31.4837C5.06914 31.352 4.96081 31.1954 4.88688 31.0229C4.81295 30.8503 4.7749 30.6653 4.7749 30.4784L4.77782 10.6479C4.77782 9.86451 5.43407 9.22984 6.24636 9.22984H10.6068V4.97984C10.6068 4.60411 10.7604 4.24378 11.0339 3.9781C11.3074 3.71243 11.6783 3.56317 12.0651 3.56317H29.5651C29.9519 3.56317 30.3228 3.71243 30.5963 3.9781C30.8698 4.24378 31.0234 4.60411 31.0234 4.97984V24.8132C31.0234 25.1889 30.8698 25.5492 30.5963 25.8149C30.3228 26.0806 29.9519 26.2298 29.5651 26.2298H25.1916ZM10.6082 23.3965V26.2298H13.5249V27.6465H16.4416V26.2298H17.1707C18.1377 26.2298 19.065 25.8567 19.7487 25.1925C20.4325 24.5283 20.8166 23.6275 20.8166 22.6882C20.8166 21.7489 20.4325 20.848 19.7487 20.1838C19.065 19.5196 18.1377 19.1465 17.1707 19.1465H12.7957C12.6023 19.1465 12.4169 19.0719 12.2801 18.939C12.1434 18.8062 12.0666 18.626 12.0666 18.4382C12.0666 18.2503 12.1434 18.0701 12.2801 17.9373C12.4169 17.8045 12.6023 17.7298 12.7957 17.7298H19.3582V14.8965H16.4416V13.4798H13.5249V14.8965H12.7957C11.8288 14.8965 10.9015 15.2696 10.2177 15.9338C9.53402 16.598 9.1499 17.4989 9.1499 18.4382C9.1499 19.3775 9.53402 20.2783 10.2177 20.9425C10.9015 21.6067 11.8288 21.9798 12.7957 21.9798H17.1707C17.3641 21.9798 17.5496 22.0545 17.6863 22.1873C17.8231 22.3201 17.8999 22.5003 17.8999 22.6882C17.8999 22.876 17.8231 23.0562 17.6863 23.189C17.5496 23.3219 17.3641 23.3965 17.1707 23.3965H10.6082Z" fill="#F7E700"/>
</svg>
