<svg width="30" height="30" viewBox="0 0 30 30" fill="none" xmlns="http://www.w3.org/2000/svg">
<path fill-rule="evenodd" clip-rule="evenodd" d="M18.5983 3.38399C20.0628 1.91953 22.4372 1.91953 23.9017 3.38399L26.6161 6.09846C28.0806 7.56293 28.0806 9.9373 26.6161 11.4018L17.1339 20.884C16.8995 21.1184 16.5815 21.2501 16.25 21.2501H10C9.30964 21.2501 8.75 20.6905 8.75 20.0001V13.7501C8.75 13.4186 8.8817 13.1006 9.11612 12.8662L18.5983 3.38399ZM22.1339 5.15176C21.6457 4.66361 20.8543 4.66361 20.3661 5.15176L19.2678 6.25011L23.75 10.7323L24.8484 9.63399C25.3365 9.14584 25.3365 8.35438 24.8484 7.86623L22.1339 5.15176ZM21.9822 12.5001L17.5 8.01788L11.25 14.2679V18.7501H15.7322L21.9822 12.5001ZM8.75 5.00011C6.67893 5.00011 5 6.67904 5 8.75011V21.2501C5 23.3212 6.67893 25.0001 8.75 25.0001H21.25C23.3211 25.0001 25 23.3212 25 21.2501V17.5001C25 16.8098 25.5596 16.2501 26.25 16.2501C26.9404 16.2501 27.5 16.8098 27.5 17.5001V21.2501C27.5 24.7019 24.7018 27.5001 21.25 27.5001H8.75C5.29822 27.5001 2.5 24.7019 2.5 21.2501V8.75011C2.5 5.29833 5.29822 2.50011 8.75 2.50011H12.5C13.1904 2.50011 13.75 3.05975 13.75 3.75011C13.75 4.44047 13.1904 5.00011 12.5 5.00011H8.75Z" fill="white" fill-opacity="0.8"/>
</svg>
