<svg width="70" height="70" viewBox="0 0 70 70" fill="none" xmlns="http://www.w3.org/2000/svg">
<g clip-path="url(#clip0_15_7100)">
<path fill-rule="evenodd" clip-rule="evenodd" d="M34.8633 0C41.7856 0 48.5525 2.05271 54.3082 5.89856C60.064 9.74441 64.55 15.2107 67.1991 21.6061C69.8481 28.0015 70.5412 35.0388 69.1908 41.8282C67.8403 48.6175 64.5069 54.8539 59.612 59.7487C54.7172 64.6436 48.4808 67.977 41.6914 69.3275C34.9021 70.678 27.8648 69.9849 21.4694 67.3358C15.0739 64.6867 9.60769 60.2007 5.76184 54.445C1.916 48.6892 -0.136719 41.9223 -0.136719 35C-0.136719 25.7174 3.55077 16.815 10.1145 10.2513C16.6783 3.68749 25.5807 0 34.8633 0V0Z" fill="white"/>
<path fill-rule="evenodd" clip-rule="evenodd" d="M34.8631 7.51562L44.0713 21.2738L53.2795 35.0352L34.8631 44.3134L16.4468 35.0002L25.655 21.2388L34.8631 7.51562ZM34.8631 48.0202L17.4681 38.7388L34.8631 62.4847L52.2581 38.7388L34.8631 48.0202Z" fill="#343434"/>
<path fill-rule="evenodd" clip-rule="evenodd" d="M34.8633 7.51562L44.0715 21.2388L53.2796 35.0002L34.8633 28.0479V7.51562Z" fill="#343434"/>
<path fill-rule="evenodd" clip-rule="evenodd" d="M34.8633 48.0201L52.2933 38.7388L34.8633 62.5197V48.0201Z" fill="#313131"/>
<path fill-rule="evenodd" clip-rule="evenodd" d="M34.8633 28.0479L53.2796 35.0001L34.8633 44.2783V28.0479Z" fill="#151515"/>
<path fill-rule="evenodd" clip-rule="evenodd" d="M34.8631 7.51562L25.655 21.2388L16.4468 35.0002L34.8631 28.0479V7.51562Z" fill="#8C8C8C"/>
<path fill-rule="evenodd" clip-rule="evenodd" d="M34.8633 48.0201L17.4683 38.7388L34.8633 62.5197V48.0201Z" fill="#8A8A8A"/>
<path fill-rule="evenodd" clip-rule="evenodd" d="M34.8631 28.0479L16.4468 35.0001L34.8631 44.2783V28.0479Z" fill="#353535"/>
</g>
<defs>
<clipPath id="clip0_15_7100">
<rect width="70" height="70" fill="white"/>
</clipPath>
</defs>
</svg>
