<svg width="270" height="70" viewBox="0 0 270 70" fill="none" xmlns="http://www.w3.org/2000/svg">
<g clip-path="url(#clip0_2_5508)">
<path d="M0 20C0 8.9543 8.95431 0 20 0H250C261.046 0 270 8.95431 270 20V50C270 61.0457 261.046 70 250 70H20C8.95431 70 0 61.0457 0 50V20Z" fill="url(#paint0_linear_2_5508)"/>
<g filter="url(#filter0_f_2_5508)">
<path d="M109.395 -2.37695L245.667 -38.8911L258.916 10.5546L272.165 60.0004L135.892 96.5145L109.395 -2.37695Z" fill="url(#paint1_linear_2_5508)" fill-opacity="0.8"/>
</g>
</g>
<defs>
<filter id="filter0_f_2_5508" x="-0.932472" y="-149.218" width="383.425" height="356.06" filterUnits="userSpaceOnUse" color-interpolation-filters="sRGB">
<feFlood flood-opacity="0" result="BackgroundImageFix"/>
<feBlend mode="normal" in="SourceGraphic" in2="BackgroundImageFix" result="shape"/>
<feGaussianBlur stdDeviation="55.1635" result="effect1_foregroundBlur_2_5508"/>
</filter>
<linearGradient id="paint0_linear_2_5508" x1="-1.12176" y1="30.4884" x2="271.085" y2="40.5038" gradientUnits="userSpaceOnUse">
<stop offset="0.0196" stop-color="white" stop-opacity="0"/>
<stop offset="1" stop-color="#999999" stop-opacity="0.05"/>
</linearGradient>
<linearGradient id="paint1_linear_2_5508" x1="220.37" y1="72.8886" x2="175.863" y2="-37.2703" gradientUnits="userSpaceOnUse">
<stop stop-color="#E0C21A"/>
<stop offset="0.47225" stop-color="#F6E717"/>
<stop offset="0.9445" stop-color="#181915"/>
</linearGradient>
<clipPath id="clip0_2_5508">
<path d="M0 20C0 8.9543 8.95431 0 20 0H250C261.046 0 270 8.95431 270 20V50C270 61.0457 261.046 70 250 70H20C8.95431 70 0 61.0457 0 50V20Z" fill="white"/>
</clipPath>
</defs>
</svg>
