<svg width="30" height="30" viewBox="0 0 30 30" fill="none" xmlns="http://www.w3.org/2000/svg">
<path d="M10.7576 16.7955C11.7699 16.7955 12.5904 15.9749 12.5904 14.9627C12.5904 13.9505 11.7699 13.1299 10.7576 13.1299C9.74538 13.1299 8.9248 13.9505 8.9248 14.9627C8.9248 15.9749 9.74538 16.7955 10.7576 16.7955Z" fill="white"/>
<path d="M19.242 16.7955C20.2542 16.7955 21.0748 15.9749 21.0748 14.9627C21.0748 13.9505 20.2542 13.1299 19.242 13.1299C18.2298 13.1299 17.4092 13.9505 17.4092 14.9627C17.4092 15.9749 18.2298 16.7955 19.242 16.7955Z" fill="white"/>
<path d="M12.8787 20.4679C13.8909 20.4679 14.7115 19.6473 14.7115 18.6351C14.7115 17.6228 13.8909 16.8022 12.8787 16.8022C11.8665 16.8022 11.0459 17.6228 11.0459 18.6351C11.0459 19.6473 11.8665 20.4679 12.8787 20.4679Z" fill="white"/>
<path d="M17.1209 13.1227C18.1331 13.1227 18.9537 12.3021 18.9537 11.2898C18.9537 10.2776 18.1331 9.45703 17.1209 9.45703C16.1087 9.45703 15.2881 10.2776 15.2881 11.2898C15.2881 12.3021 16.1087 13.1227 17.1209 13.1227Z" fill="white"/>
<path d="M17.1209 20.4679C18.1331 20.4679 18.9537 19.6473 18.9537 18.6351C18.9537 17.6228 18.1331 16.8022 17.1209 16.8022C16.1087 16.8022 15.2881 17.6228 15.2881 18.6351C15.2881 19.6473 16.1087 20.4679 17.1209 20.4679Z" fill="white"/>
<path d="M12.8787 13.1227C13.8909 13.1227 14.7115 12.3021 14.7115 11.2898C14.7115 10.2776 13.8909 9.45703 12.8787 9.45703C11.8665 9.45703 11.0459 10.2776 11.0459 11.2898C11.0459 12.3021 11.8665 13.1227 12.8787 13.1227Z" fill="white"/>
<path d="M24.3701 15.9609C24.9008 15.9609 25.3311 15.5307 25.3311 15C25.3311 14.4693 24.9008 14.0391 24.3701 14.0391C23.8394 14.0391 23.4092 14.4693 23.4092 15C23.4092 15.5307 23.8394 15.9609 24.3701 15.9609Z" fill="white"/>
<path d="M5.62988 15.9609C6.16059 15.9609 6.59082 15.5307 6.59082 15C6.59082 14.4693 6.16059 14.0391 5.62988 14.0391C5.09917 14.0391 4.66895 14.4693 4.66895 15C4.66895 15.5307 5.09917 15.9609 5.62988 15.9609Z" fill="white"/>
<path d="M2.22168 15.6094C2.55823 15.6094 2.83105 15.3365 2.83105 15C2.83105 14.6635 2.55823 14.3906 2.22168 14.3906C1.88513 14.3906 1.6123 14.6635 1.6123 15C1.6123 15.3365 1.88513 15.6094 2.22168 15.6094Z" fill="white"/>
<path d="M27.7783 15.6094C28.1149 15.6094 28.3877 15.3365 28.3877 15C28.3877 14.6635 28.1149 14.3906 27.7783 14.3906C27.4418 14.3906 27.1689 14.6635 27.1689 15C27.1689 15.3365 27.4418 15.6094 27.7783 15.6094Z" fill="white"/>
<path d="M19.6851 7.84473C20.2158 7.84473 20.646 7.4145 20.646 6.88379C20.646 6.35308 20.2158 5.92285 19.6851 5.92285C19.1543 5.92285 18.7241 6.35308 18.7241 6.88379C18.7241 7.4145 19.1543 7.84473 19.6851 7.84473Z" fill="white"/>
<path d="M10.3149 24.0772C10.8457 24.0772 11.2759 23.6469 11.2759 23.1162C11.2759 22.5855 10.8457 22.1553 10.3149 22.1553C9.78423 22.1553 9.354 22.5855 9.354 23.1162C9.354 23.6469 9.78423 24.0772 10.3149 24.0772Z" fill="white"/>
<path d="M8.61084 26.6743C8.94739 26.6743 9.22021 26.4015 9.22021 26.0649C9.22021 25.7284 8.94739 25.4556 8.61084 25.4556C8.27429 25.4556 8.00146 25.7284 8.00146 26.0649C8.00146 26.4015 8.27429 26.6743 8.61084 26.6743Z" fill="white"/>
<path d="M21.3892 4.54443C21.7257 4.54443 21.9985 4.27161 21.9985 3.93506C21.9985 3.59851 21.7257 3.32568 21.3892 3.32568C21.0526 3.32568 20.7798 3.59851 20.7798 3.93506C20.7798 4.27161 21.0526 4.54443 21.3892 4.54443Z" fill="white"/>
<path d="M10.3149 7.84473C10.8457 7.84473 11.2759 7.4145 11.2759 6.88379C11.2759 6.35308 10.8457 5.92285 10.3149 5.92285C9.78423 5.92285 9.354 6.35308 9.354 6.88379C9.354 7.4145 9.78423 7.84473 10.3149 7.84473Z" fill="white"/>
<path d="M19.6851 24.0772C20.2158 24.0772 20.646 23.6469 20.646 23.1162C20.646 22.5855 20.2158 22.1553 19.6851 22.1553C19.1543 22.1553 18.7241 22.5855 18.7241 23.1162C18.7241 23.6469 19.1543 24.0772 19.6851 24.0772Z" fill="white"/>
<path d="M21.3892 26.6743C21.7257 26.6743 21.9985 26.4015 21.9985 26.0649C21.9985 25.7284 21.7257 25.4556 21.3892 25.4556C21.0526 25.4556 20.7798 25.7284 20.7798 26.0649C20.7798 26.4015 21.0526 26.6743 21.3892 26.6743Z" fill="white"/>
<path d="M8.61084 4.54443C8.94739 4.54443 9.22021 4.27161 9.22021 3.93506C9.22021 3.59851 8.94739 3.32568 8.61084 3.32568C8.27429 3.32568 8.00146 3.59851 8.00146 3.93506C8.00146 4.27161 8.27429 4.54443 8.61084 4.54443Z" fill="white"/>
<path d="M14.9998 8.77256C15.6108 8.77256 16.1061 8.27727 16.1061 7.66631C16.1061 7.05534 15.6108 6.56006 14.9998 6.56006C14.3888 6.56006 13.8936 7.05534 13.8936 7.66631C13.8936 8.27727 14.3888 8.77256 14.9998 8.77256Z" fill="white"/>
<path d="M15.0002 4.0502C15.4183 4.0502 15.7572 3.71126 15.7572 3.29316C15.7572 2.87507 15.4183 2.53613 15.0002 2.53613C14.5821 2.53613 14.2432 2.87507 14.2432 3.29316C14.2432 3.71126 14.5821 4.0502 15.0002 4.0502Z" fill="white"/>
<path d="M14.9998 23.44C15.6108 23.44 16.1061 22.9448 16.1061 22.3338C16.1061 21.7228 15.6108 21.2275 14.9998 21.2275C14.3888 21.2275 13.8936 21.7228 13.8936 22.3338C13.8936 22.9448 14.3888 23.44 14.9998 23.44Z" fill="white"/>
<path d="M15.0002 27.4643C15.4183 27.4643 15.7572 27.1253 15.7572 26.7072C15.7572 26.2891 15.4183 25.9502 15.0002 25.9502C14.5821 25.9502 14.2432 26.2891 14.2432 26.7072C14.2432 27.1253 14.5821 27.4643 15.0002 27.4643Z" fill="white"/>
<path d="M8.64824 12.4405C9.25921 12.4405 9.75449 11.9452 9.75449 11.3343C9.75449 10.7233 9.25921 10.228 8.64824 10.228C8.03728 10.228 7.54199 10.7233 7.54199 11.3343C7.54199 11.9452 8.03728 12.4405 8.64824 12.4405Z" fill="white"/>
<path d="M4.86104 9.90225C5.27913 9.90225 5.61807 9.56331 5.61807 9.14521C5.61807 8.72712 5.27913 8.38818 4.86104 8.38818C4.44294 8.38818 4.104 8.72712 4.104 9.14521C4.104 9.56331 4.44294 9.90225 4.86104 9.90225Z" fill="white"/>
<path d="M21.3514 19.7721C21.9623 19.7721 22.4576 19.2768 22.4576 18.6658C22.4576 18.0549 21.9623 17.5596 21.3514 17.5596C20.7404 17.5596 20.2451 18.0549 20.2451 18.6658C20.2451 19.2768 20.7404 19.7721 21.3514 19.7721Z" fill="white"/>
<path d="M25.1389 21.6117C25.557 21.6117 25.8959 21.2728 25.8959 20.8547C25.8959 20.4366 25.557 20.0977 25.1389 20.0977C24.7208 20.0977 24.3818 20.4366 24.3818 20.8547C24.3818 21.2728 24.7208 21.6117 25.1389 21.6117Z" fill="white"/>
<path d="M8.64824 19.7721C9.25921 19.7721 9.75449 19.2768 9.75449 18.6658C9.75449 18.0549 9.25921 17.5596 8.64824 17.5596C8.03728 17.5596 7.54199 18.0549 7.54199 18.6658C7.54199 19.2768 8.03728 19.7721 8.64824 19.7721Z" fill="white"/>
<path d="M4.86104 21.6117C5.27913 21.6117 5.61807 21.2728 5.61807 20.8547C5.61807 20.4366 5.27913 20.0977 4.86104 20.0977C4.44294 20.0977 4.104 20.4366 4.104 20.8547C4.104 21.2728 4.44294 21.6117 4.86104 21.6117Z" fill="white"/>
<path d="M21.3514 12.4405C21.9623 12.4405 22.4576 11.9452 22.4576 11.3343C22.4576 10.7233 21.9623 10.228 21.3514 10.228C20.7404 10.228 20.2451 10.7233 20.2451 11.3343C20.2451 11.9452 20.7404 12.4405 21.3514 12.4405Z" fill="white"/>
<path d="M25.1389 9.90225C25.557 9.90225 25.8959 9.56331 25.8959 9.14521C25.8959 8.72712 25.557 8.38818 25.1389 8.38818C24.7208 8.38818 24.3818 8.72712 24.3818 9.14521C24.3818 9.56331 24.7208 9.90225 25.1389 9.90225Z" fill="white"/>
</svg>
