<svg width="24" height="24" viewBox="0 0 24 24" fill="none" xmlns="http://www.w3.org/2000/svg">
<path d="M8.60625 13.4363C9.41604 13.4363 10.0725 12.7798 10.0725 11.97C10.0725 11.1602 9.41604 10.5037 8.60625 10.5037C7.79646 10.5037 7.14 11.1602 7.14 11.97C7.14 12.7798 7.79646 13.4363 8.60625 13.4363Z" fill="white"/>
<path d="M15.3937 13.4363C16.2035 13.4363 16.86 12.7798 16.86 11.97C16.86 11.1602 16.2035 10.5037 15.3937 10.5037C14.584 10.5037 13.9275 11.1602 13.9275 11.97C13.9275 12.7798 14.584 13.4363 15.3937 13.4363Z" fill="white"/>
<path d="M10.3031 16.3744C11.1129 16.3744 11.7694 15.7179 11.7694 14.9081C11.7694 14.0983 11.1129 13.4419 10.3031 13.4419C9.49334 13.4419 8.83687 14.0983 8.83687 14.9081C8.83687 15.7179 9.49334 16.3744 10.3031 16.3744Z" fill="white"/>
<path d="M13.6969 10.4981C14.5067 10.4981 15.1631 9.84166 15.1631 9.03187C15.1631 8.22209 14.5067 7.56562 13.6969 7.56562C12.8871 7.56562 12.2306 8.22209 12.2306 9.03187C12.2306 9.84166 12.8871 10.4981 13.6969 10.4981Z" fill="white"/>
<path d="M13.6969 16.3744C14.5067 16.3744 15.1631 15.7179 15.1631 14.9081C15.1631 14.0983 14.5067 13.4419 13.6969 13.4419C12.8871 13.4419 12.2306 14.0983 12.2306 14.9081C12.2306 15.7179 12.8871 16.3744 13.6969 16.3744Z" fill="white"/>
<path d="M10.3031 10.4981C11.1129 10.4981 11.7694 9.84166 11.7694 9.03187C11.7694 8.22209 11.1129 7.56562 10.3031 7.56562C9.49334 7.56562 8.83687 8.22209 8.83687 9.03187C8.83687 9.84166 9.49334 10.4981 10.3031 10.4981Z" fill="white"/>
<path d="M19.4963 12.7688C19.9208 12.7688 20.265 12.4246 20.265 12C20.265 11.5754 19.9208 11.2313 19.4963 11.2313C19.0717 11.2313 18.7275 11.5754 18.7275 12C18.7275 12.4246 19.0717 12.7688 19.4963 12.7688Z" fill="white"/>
<path d="M4.50375 12.7688C4.92832 12.7688 5.2725 12.4246 5.2725 12C5.2725 11.5754 4.92832 11.2313 4.50375 11.2313C4.07918 11.2313 3.735 11.5754 3.735 12C3.735 12.4246 4.07918 12.7688 4.50375 12.7688Z" fill="white"/>
<path d="M1.7775 12.4875C2.04674 12.4875 2.265 12.2692 2.265 12C2.265 11.7308 2.04674 11.5125 1.7775 11.5125C1.50826 11.5125 1.29 11.7308 1.29 12C1.29 12.2692 1.50826 12.4875 1.7775 12.4875Z" fill="white"/>
<path d="M22.2225 12.4875C22.4917 12.4875 22.71 12.2692 22.71 12C22.71 11.7308 22.4917 11.5125 22.2225 11.5125C21.9533 11.5125 21.735 11.7308 21.735 12C21.735 12.2692 21.9533 12.4875 22.2225 12.4875Z" fill="white"/>
<path d="M15.7481 6.27562C16.1727 6.27562 16.5169 5.93144 16.5169 5.50687C16.5169 5.08231 16.1727 4.73812 15.7481 4.73812C15.3236 4.73812 14.9794 5.08231 14.9794 5.50687C14.9794 5.93144 15.3236 6.27562 15.7481 6.27562Z" fill="white"/>
<path d="M8.25187 19.2619C8.67644 19.2619 9.02062 18.9177 9.02062 18.4931C9.02062 18.0686 8.67644 17.7244 8.25187 17.7244C7.82731 17.7244 7.48312 18.0686 7.48312 18.4931C7.48312 18.9177 7.82731 19.2619 8.25187 19.2619Z" fill="white"/>
<path d="M6.88875 21.3394C7.15799 21.3394 7.37625 21.1211 7.37625 20.8519C7.37625 20.5826 7.15799 20.3644 6.88875 20.3644C6.61951 20.3644 6.40125 20.5826 6.40125 20.8519C6.40125 21.1211 6.61951 21.3394 6.88875 21.3394Z" fill="white"/>
<path d="M17.1113 3.63562C17.3805 3.63562 17.5988 3.41736 17.5988 3.14813C17.5988 2.87889 17.3805 2.66062 17.1113 2.66062C16.842 2.66062 16.6238 2.87889 16.6238 3.14813C16.6238 3.41736 16.842 3.63562 17.1113 3.63562Z" fill="white"/>
<path d="M8.25187 6.27562C8.67644 6.27562 9.02062 5.93144 9.02062 5.50687C9.02062 5.08231 8.67644 4.73812 8.25187 4.73812C7.82731 4.73812 7.48312 5.08231 7.48312 5.50687C7.48312 5.93144 7.82731 6.27562 8.25187 6.27562Z" fill="white"/>
<path d="M15.7481 19.2619C16.1727 19.2619 16.5169 18.9177 16.5169 18.4931C16.5169 18.0686 16.1727 17.7244 15.7481 17.7244C15.3236 17.7244 14.9794 18.0686 14.9794 18.4931C14.9794 18.9177 15.3236 19.2619 15.7481 19.2619Z" fill="white"/>
<path d="M17.1113 21.3394C17.3805 21.3394 17.5988 21.1211 17.5988 20.8519C17.5988 20.5826 17.3805 20.3644 17.1113 20.3644C16.842 20.3644 16.6238 20.5826 16.6238 20.8519C16.6238 21.1211 16.842 21.3394 17.1113 21.3394Z" fill="white"/>
<path d="M6.88875 3.63562C7.15799 3.63562 7.37625 3.41736 7.37625 3.14813C7.37625 2.87889 7.15799 2.66062 6.88875 2.66062C6.61951 2.66062 6.40125 2.87889 6.40125 3.14813C6.40125 3.41736 6.61951 3.63562 6.88875 3.63562Z" fill="white"/>
<path d="M12 7.01813C12.4888 7.01813 12.885 6.6219 12.885 6.13312C12.885 5.64435 12.4888 5.24813 12 5.24813C11.5112 5.24813 11.115 5.64435 11.115 6.13312C11.115 6.6219 11.5112 7.01813 12 7.01813Z" fill="white"/>
<path d="M12 3.24C12.3345 3.24 12.6056 2.96885 12.6056 2.63438C12.6056 2.2999 12.3345 2.02875 12 2.02875C11.6655 2.02875 11.3944 2.2999 11.3944 2.63438C11.3944 2.96885 11.6655 3.24 12 3.24Z" fill="white"/>
<path d="M12 18.7519C12.4888 18.7519 12.885 18.3556 12.885 17.8669C12.885 17.3781 12.4888 16.9819 12 16.9819C11.5112 16.9819 11.115 17.3781 11.115 17.8669C11.115 18.3556 11.5112 18.7519 12 18.7519Z" fill="white"/>
<path d="M12 21.9713C12.3345 21.9713 12.6056 21.7001 12.6056 21.3656C12.6056 21.0311 12.3345 20.76 12 20.76C11.6655 20.76 11.3944 21.0311 11.3944 21.3656C11.3944 21.7001 11.6655 21.9713 12 21.9713Z" fill="white"/>
<path d="M6.91875 9.9525C7.40752 9.9525 7.80375 9.55627 7.80375 9.0675C7.80375 8.57873 7.40752 8.1825 6.91875 8.1825C6.42998 8.1825 6.03375 8.57873 6.03375 9.0675C6.03375 9.55627 6.42998 9.9525 6.91875 9.9525Z" fill="white"/>
<path d="M3.88875 7.92188C4.22323 7.92188 4.49437 7.65073 4.49437 7.31625C4.49437 6.98177 4.22323 6.71063 3.88875 6.71063C3.55427 6.71063 3.28312 6.98177 3.28312 7.31625C3.28312 7.65073 3.55427 7.92188 3.88875 7.92188Z" fill="white"/>
<path d="M17.0812 15.8175C17.57 15.8175 17.9662 15.4213 17.9662 14.9325C17.9662 14.4437 17.57 14.0475 17.0812 14.0475C16.5925 14.0475 16.1962 14.4437 16.1962 14.9325C16.1962 15.4213 16.5925 15.8175 17.0812 15.8175Z" fill="white"/>
<path d="M20.1113 17.2894C20.4457 17.2894 20.7169 17.0182 20.7169 16.6838C20.7169 16.3493 20.4457 16.0781 20.1113 16.0781C19.7768 16.0781 19.5056 16.3493 19.5056 16.6838C19.5056 17.0182 19.7768 17.2894 20.1113 17.2894Z" fill="white"/>
<path d="M6.91875 15.8175C7.40752 15.8175 7.80375 15.4213 7.80375 14.9325C7.80375 14.4437 7.40752 14.0475 6.91875 14.0475C6.42998 14.0475 6.03375 14.4437 6.03375 14.9325C6.03375 15.4213 6.42998 15.8175 6.91875 15.8175Z" fill="white"/>
<path d="M3.88875 17.2894C4.22323 17.2894 4.49437 17.0182 4.49437 16.6838C4.49437 16.3493 4.22323 16.0781 3.88875 16.0781C3.55427 16.0781 3.28312 16.3493 3.28312 16.6838C3.28312 17.0182 3.55427 17.2894 3.88875 17.2894Z" fill="white"/>
<path d="M17.0812 9.9525C17.57 9.9525 17.9662 9.55627 17.9662 9.0675C17.9662 8.57873 17.57 8.1825 17.0812 8.1825C16.5925 8.1825 16.1962 8.57873 16.1962 9.0675C16.1962 9.55627 16.5925 9.9525 17.0812 9.9525Z" fill="white"/>
<path d="M20.1113 7.92188C20.4457 7.92188 20.7169 7.65073 20.7169 7.31625C20.7169 6.98177 20.4457 6.71063 20.1113 6.71063C19.7768 6.71063 19.5056 6.98177 19.5056 7.31625C19.5056 7.65073 19.7768 7.92188 20.1113 7.92188Z" fill="white"/>
</svg>
