<svg width="30" height="30" viewBox="0 0 30 30" fill="none" xmlns="http://www.w3.org/2000/svg">
<path d="M10.5468 24.5343H4.68738C4.47044 24.5344 4.25727 24.4776 4.06908 24.3697C3.88089 24.2618 3.72424 24.1065 3.61473 23.9192C3.50521 23.7319 3.44665 23.5193 3.44487 23.3023C3.44308 23.0854 3.49814 22.8718 3.60456 22.6827L13.9358 4.35697C14.044 4.16535 14.2012 4.00592 14.3912 3.89498C14.5813 3.78404 14.7974 3.72559 15.0175 3.72559C15.2375 3.72559 15.4536 3.78404 15.6437 3.89498C15.8337 4.00592 15.9909 4.16535 16.0991 4.35697L19.1952 9.82259C19.3046 10.0117 19.3623 10.2263 19.3623 10.4449C19.3623 10.6634 19.3046 10.878 19.1952 11.0671L11.6225 23.9226C11.5125 24.1098 11.3552 24.2649 11.1664 24.3723C10.9776 24.4796 10.7639 24.5355 10.5468 24.5343V24.5343Z" fill="white"/>
<path d="M17.2218 22.678L20.7022 16.4694C20.8108 16.2779 20.9682 16.1185 21.1584 16.0076C21.3486 15.8968 21.5649 15.8384 21.785 15.8384C22.0052 15.8384 22.2214 15.8968 22.4117 16.0076C22.6019 16.1185 22.7593 16.2779 22.8678 16.4694L26.3835 22.6757C26.4908 22.8648 26.5466 23.0788 26.5455 23.2963C26.5443 23.5138 26.4862 23.7272 26.3769 23.9152C26.2676 24.1032 26.1109 24.2593 25.9225 24.3679C25.7341 24.4766 25.5205 24.5339 25.303 24.5343H18.3069C18.0894 24.5345 17.8756 24.4777 17.6868 24.3695C17.4981 24.2614 17.3409 24.1056 17.2312 23.9178C17.1214 23.73 17.0627 23.5167 17.0611 23.2992C17.0594 23.0816 17.1148 22.8675 17.2218 22.678V22.678Z" fill="white"/>
</svg>
