<svg width="24" height="24" viewBox="0 0 24 24" fill="none" xmlns="http://www.w3.org/2000/svg">
<path d="M8.4375 19.6275H3.75C3.57645 19.6276 3.40591 19.5822 3.25536 19.4958C3.10481 19.4095 2.97949 19.2852 2.89188 19.1354C2.80427 18.9856 2.75742 18.8155 2.75599 18.6419C2.75456 18.4684 2.79861 18.2975 2.88375 18.1463L11.1487 3.48563C11.2353 3.33233 11.361 3.20479 11.5131 3.11604C11.6651 3.02729 11.838 2.98052 12.0141 2.98052C12.1901 2.98052 12.363 3.02729 12.515 3.11604C12.6671 3.20479 12.7928 3.33233 12.8794 3.48563L15.3563 7.85813C15.4438 8.00942 15.4899 8.18113 15.4899 8.35594C15.4899 8.53074 15.4438 8.70246 15.3563 8.85375L9.29813 19.1381C9.2101 19.2879 9.08427 19.412 8.93324 19.4979C8.7822 19.5838 8.61125 19.6285 8.4375 19.6275V19.6275Z" fill="white"/>
<path d="M13.7775 18.1425L16.5619 13.1756C16.6487 13.0224 16.7746 12.8949 16.9268 12.8062C17.079 12.7175 17.252 12.6708 17.4281 12.6708C17.6043 12.6708 17.7773 12.7175 17.9294 12.8062C18.0816 12.8949 18.2075 13.0224 18.2944 13.1756L21.1069 18.1406C21.1927 18.292 21.2374 18.4632 21.2365 18.6371C21.2356 18.8111 21.1891 18.9818 21.1016 19.1323C21.0142 19.2827 20.8888 19.4076 20.7381 19.4945C20.5874 19.5813 20.4165 19.6272 20.2425 19.6275H14.6456C14.4716 19.6277 14.3005 19.5823 14.1495 19.4957C13.9985 19.4092 13.8729 19.2846 13.785 19.1344C13.6972 18.9841 13.6503 18.8135 13.649 18.6394C13.6476 18.4654 13.692 18.2941 13.7775 18.1425V18.1425Z" fill="white"/>
</svg>
