<svg width="30" height="30" viewBox="0 0 30 30" fill="none" xmlns="http://www.w3.org/2000/svg">
<path d="M21.5038 18.7545V15.8271L19.1226 17.2006V20.1303L21.5038 18.7545Z" fill="white"/>
<path d="M21.5039 11.2452L19.0336 9.81787L15 12.1476L10.9664 9.81787L8.49609 11.2452V13.8397L12.5977 16.2093V21.1241L15 22.5116L17.4023 21.1241V16.2093L21.5039 13.8397V11.2452Z" fill="white"/>
<path d="M25.6289 11.4584V8.86387L23.1586 7.43652L20.7539 8.82402L23.2242 10.2514V12.8459L25.6289 11.4584Z" fill="white"/>
<path d="M6.77578 12.8459V10.2514L9.24609 8.82402L6.84141 7.43652L4.37109 8.86387V11.4584L6.77578 12.8459Z" fill="white"/>
<path d="M8.49609 18.7545L10.8773 20.1303V17.2006L8.49609 15.8271V18.7545Z" fill="white"/>
<path d="M17.4023 23.1118L15 24.4993L12.5977 23.1118V25.8868L15 27.2743L17.4023 25.8868V23.1118Z" fill="white"/>
<path d="M17.3131 8.82422L14.9998 7.48828L12.6865 8.82422L14.9998 10.1602L17.3131 8.82422Z" fill="white"/>
<path d="M23.2241 14.8338V19.7486L19.1226 22.1182V24.8932L25.6288 21.1361V13.4463L23.2241 14.8338Z" fill="white"/>
<path d="M10.8773 22.1182L6.77578 19.7486V14.8338L4.37109 13.4463V21.1361L10.8773 24.8932V22.1182Z" fill="white"/>
<path d="M10.9662 7.83027L14.9998 5.50293L19.0334 7.83027L21.4381 6.44277L14.9998 2.72559L8.56152 6.44277L10.9662 7.83027Z" fill="white"/>
</svg>
