<svg width="24" height="24" viewBox="0 0 24 24" fill="none" xmlns="http://www.w3.org/2000/svg">
<path d="M17.2031 15.0037V12.6619L15.2981 13.7606V16.1044L17.2031 15.0037Z" fill="white"/>
<path d="M17.2031 8.99625L15.2269 7.85437L12 9.71813L8.77313 7.85437L6.79688 8.99625V11.0719L10.0781 12.9675V16.8994L12 18.0094L13.9219 16.8994V12.9675L17.2031 11.0719V8.99625Z" fill="white"/>
<path d="M20.5031 9.16688V7.09125L18.5269 5.94938L16.6031 7.05938L18.5794 8.20125V10.2769L20.5031 9.16688Z" fill="white"/>
<path d="M5.42062 10.2769V8.20125L7.39688 7.05938L5.47312 5.94938L3.49687 7.09125V9.16688L5.42062 10.2769Z" fill="white"/>
<path d="M6.79688 15.0037L8.70187 16.1044V13.7606L6.79688 12.6619V15.0037Z" fill="white"/>
<path d="M13.9219 18.4894L12 19.5994L10.0781 18.4894V20.7094L12 21.8194L13.9219 20.7094V18.4894Z" fill="white"/>
<path d="M13.8506 7.05938L12 5.99063L10.1494 7.05938L12 8.12812L13.8506 7.05938Z" fill="white"/>
<path d="M18.5794 11.8669V15.7988L15.2981 17.6944V19.9144L20.5031 16.9088V10.7569L18.5794 11.8669Z" fill="white"/>
<path d="M8.70187 17.6944L5.42062 15.7988V11.8669L3.49687 10.7569V16.9088L8.70187 19.9144V17.6944Z" fill="white"/>
<path d="M8.77313 6.26437L12 4.4025L15.2269 6.26437L17.1506 5.15437L12 2.18062L6.84937 5.15437L8.77313 6.26437Z" fill="white"/>
</svg>
