<svg width="62" height="65" viewBox="0 0 62 65" fill="none" xmlns="http://www.w3.org/2000/svg">
<path d="M52.2035 32.6081C51.9362 29.8423 48.7658 27.9927 48.7658 27.9927C48.7658 27.9927 52.8071 27.0151 53.2234 22.7436C53.487 20.0186 51.5618 17.1744 46.7298 15.9072L48.3952 10.2971L44.4303 9.36041L42.7688 14.9569L39.4799 14.1803L41.1415 8.58378L37.169 7.64706L35.5074 13.2435L29.1208 11.7346L28.0703 15.2669L31.9589 16.1832L26.8862 33.2724L22.9977 32.3493L21.8824 36.0962L28.269 37.6051L26.6074 43.2118L30.5952 44.169L32.2606 38.5623L35.5494 39.3389L33.8687 44.9524L37.8527 45.8824L39.5181 40.2756L40.4387 40.4902C48.2004 42.2274 52.6619 37.3769 52.2035 32.6081ZM38.5326 17.7364C38.5326 17.7364 40.1446 18.1077 42.4594 18.6629C44.6557 19.1909 46.3288 20.9213 45.8131 22.8731C45.2974 24.8248 43.0094 26.0681 40.6068 25.5367C38.4028 25.0462 36.5044 24.5694 36.5044 24.5694L38.5326 17.7364ZM38.7122 36.0655C36.4203 35.5682 33.46 34.8256 33.46 34.8256L35.5609 27.7304C35.5609 27.7304 38.2347 28.4116 40.6144 28.9226C43.4601 29.5493 45.1981 31.215 44.5717 33.4461C43.9452 35.6772 41.8024 36.7365 38.7122 36.0655Z" fill="url(#paint0_linear_9_489)"/>
<defs>
<linearGradient id="paint0_linear_9_489" x1="37.5647" y1="7.64706" x2="37.5647" y2="45.8824" gradientUnits="userSpaceOnUse">
<stop stop-color="#E0C21A"/>
<stop offset="1" stop-color="#F1B31C"/>
</linearGradient>
</defs>
</svg>
