<svg width="30" height="30" viewBox="0 0 30 30" fill="none" xmlns="http://www.w3.org/2000/svg">
<g clip-path="url(#clip0_15_7016)">
<path d="M14.9998 9.34668C13.8817 9.34668 12.7888 9.67823 11.8591 10.2994C10.9294 10.9206 10.2049 11.8035 9.777 12.8364C9.34913 13.8694 9.23718 15.0061 9.45531 16.1027C9.67343 17.1993 10.2118 18.2066 11.0024 18.9972C11.793 19.7878 12.8003 20.3262 13.8969 20.5443C14.9935 20.7624 16.1302 20.6505 17.1632 20.2226C18.1961 19.7947 19.079 19.0702 19.7002 18.1405C20.3214 17.2109 20.6529 16.1179 20.6529 14.9998C20.6511 13.5011 20.0549 12.0643 18.9951 11.0045C17.9354 9.94473 16.4985 9.34854 14.9998 9.34668V9.34668ZM14.9998 18.8975C14.2289 18.8975 13.4754 18.6689 12.8344 18.2406C12.1934 17.8123 11.6938 17.2036 11.3988 16.4914C11.1038 15.7792 11.0267 14.9955 11.177 14.2394C11.3274 13.4833 11.6987 12.7888 12.2437 12.2437C12.7888 11.6986 13.4833 11.3274 14.2394 11.177C14.9955 11.0266 15.7792 11.1038 16.4914 11.3988C17.2036 11.6938 17.8123 12.1934 18.2406 12.8344C18.6689 13.4753 18.8975 14.2289 18.8975 14.9998C18.8962 16.0331 18.4852 17.0238 17.7545 17.7545C17.0238 18.4852 16.0331 18.8962 14.9998 18.8975Z" fill="white"/>
<path d="M15 7.37353C16.1095 7.37242 17.1942 7.04525 18.1193 6.4327C19.0443 5.82016 19.769 4.94924 20.2031 3.92822C19.6724 3.67761 19.1241 3.46611 18.5625 3.29541C18.258 3.98647 17.7591 4.57406 17.1266 4.98657C16.494 5.39909 15.7552 5.61873 15 5.61873C14.2448 5.61873 13.506 5.39909 12.8734 4.98657C12.2409 4.57406 11.742 3.98647 11.4375 3.29541C10.8759 3.46611 10.3276 3.67761 9.79688 3.92822C10.2313 4.94906 10.956 5.81981 11.881 6.43232C12.806 7.04483 13.8906 7.37211 15 7.37353V7.37353Z" fill="white"/>
<path d="M15 22.6265C13.8905 22.6276 12.8058 22.9547 11.8807 23.5673C10.9557 24.1798 10.231 25.0508 9.79688 26.0718C10.3276 26.3224 10.8759 26.5339 11.4375 26.7046C11.742 26.0135 12.2409 25.4259 12.8734 25.0134C13.506 24.6009 14.2448 24.3813 15 24.3813C15.7552 24.3813 16.494 24.6009 17.1266 25.0134C17.7591 25.4259 18.258 26.0135 18.5625 26.7046C19.1241 26.5339 19.6724 26.3224 20.2031 26.0718C19.769 25.0508 19.0443 24.1798 18.1193 23.5673C17.1942 22.9547 16.1095 22.6276 15 22.6265V22.6265Z" fill="white"/>
<path d="M8.39531 11.1868C8.94793 10.2253 9.2063 9.12277 9.13839 8.01584C9.07048 6.90891 8.67929 5.84623 8.01328 4.95947C7.53213 5.29532 7.07551 5.66501 6.64688 6.06572C7.09148 6.6752 7.34954 7.40067 7.3897 8.15401C7.42986 8.90735 7.2504 9.65615 6.87312 10.3094C6.49584 10.9627 5.93697 11.4924 5.26439 11.8341C4.59182 12.1759 3.83448 12.315 3.08437 12.2345C2.95186 12.8053 2.861 13.3849 2.8125 13.9688C3.03719 13.9969 3.26341 14.011 3.48984 14.011C4.4835 14.0125 5.46002 13.7523 6.32115 13.2565C7.18228 12.7607 7.89766 12.0469 8.39531 11.1868Z" fill="white"/>
<path d="M25.0383 16.1721C24.1446 16.4114 23.3234 16.8666 22.6468 17.4977C21.9702 18.1287 21.459 18.9163 21.1581 19.7912C20.8572 20.6661 20.7759 21.6015 20.9212 22.5153C21.0665 23.429 21.434 24.293 21.9914 25.0314C22.4726 24.6956 22.9292 24.3259 23.3578 23.9252C22.985 23.4138 22.7423 22.8194 22.6506 22.1932C22.559 21.5671 22.6212 20.928 22.8319 20.3313C23.0426 19.7346 23.3954 19.1981 23.8598 18.7683C24.3243 18.3384 24.8864 18.0282 25.4977 17.8642C25.9607 17.7383 26.4434 17.7009 26.9203 17.7541C27.0528 17.1833 27.1437 16.6037 27.1922 16.0197C26.4711 15.9309 25.7397 15.9826 25.0383 16.1721V16.1721Z" fill="white"/>
<path d="M8.39531 18.8132C7.83945 17.8536 7.01415 17.0783 6.02173 16.5833C5.02932 16.0883 3.91345 15.8956 2.8125 16.0289C2.861 16.6128 2.95186 17.1925 3.08437 17.7632C3.5613 17.7101 4.04398 17.7474 4.50703 17.8734C5.11827 18.0373 5.6804 18.3476 6.14485 18.7774C6.6093 19.2073 6.96211 19.7437 7.17279 20.3405C7.38347 20.9372 7.44568 21.5762 7.35405 22.2024C7.26242 22.8286 7.01971 23.423 6.64688 23.9343C7.07551 24.3351 7.53213 24.7047 8.01328 25.0406C8.67929 24.1538 9.07048 23.0912 9.13839 21.9842C9.2063 20.8773 8.94793 19.7748 8.39531 18.8132V18.8132Z" fill="white"/>
<path d="M21.6048 11.1868C22.1024 12.0469 22.8178 12.7607 23.6789 13.2565C24.5401 13.7523 25.5166 14.0125 26.5103 14.011C26.7367 14.011 26.9629 13.9969 27.1876 13.9688C27.1391 13.3849 27.0482 12.8053 26.9157 12.2345C26.1656 12.315 25.4083 12.1759 24.7357 11.8341C24.0631 11.4924 23.5043 10.9627 23.127 10.3094C22.7497 9.65615 22.5702 8.90735 22.6104 8.15401C22.6506 7.40067 22.9086 6.6752 23.3532 6.06572C22.9246 5.66501 22.468 5.29532 21.9868 4.95947C21.3208 5.84623 20.9296 6.90891 20.8617 8.01584C20.7938 9.12277 21.0522 10.2253 21.6048 11.1868V11.1868Z" fill="white"/>
</g>
<defs>
<clipPath id="clip0_15_7016">
<rect width="30" height="30" fill="white"/>
</clipPath>
</defs>
</svg>
