<svg width="70" height="70" viewBox="0 0 70 70" fill="none" xmlns="http://www.w3.org/2000/svg">
<g clip-path="url(#clip0_0_831)">
<path d="M32.7578 22.493L18.4625 14.4977C18.3088 14.4117 18.1808 14.2864 18.0916 14.1345C18.0025 13.9826 17.9556 13.8097 17.9556 13.6336C17.9556 13.4575 18.0025 13.2846 18.0916 13.1327C18.1808 12.9808 18.3088 12.8554 18.4625 12.7695L32.7578 4.76875C32.9551 4.65859 33.1772 4.60076 33.4031 4.60076C33.629 4.60076 33.8512 4.65859 34.0484 4.76875L48.3438 12.7695C48.4975 12.8554 48.6255 12.9808 48.7146 13.1327C48.8037 13.2846 48.8507 13.4575 48.8507 13.6336C48.8507 13.8097 48.8037 13.9826 48.7146 14.1345C48.6255 14.2864 48.4975 14.4117 48.3438 14.4977L34.0484 22.493C33.8512 22.6031 33.629 22.661 33.4031 22.661C33.1772 22.661 32.9551 22.6031 32.7578 22.493Z" fill="white"/>
<path d="M14.7328 33.6656V17.9047C14.7324 17.7316 14.7775 17.5613 14.8634 17.4111C14.9494 17.2608 15.0733 17.1357 15.2227 17.0482C15.3722 16.9608 15.5419 16.9141 15.715 16.9127C15.8882 16.9114 16.0586 16.9555 16.2094 17.0406L30.9039 25.282C31.1079 25.3979 31.2776 25.5657 31.3957 25.7683C31.5139 25.971 31.5763 26.2013 31.5766 26.4359V42.1969C31.578 42.3699 31.5339 42.5402 31.4486 42.6907C31.3634 42.8412 31.2399 42.9665 31.0908 43.0541C30.9416 43.1417 30.772 43.1885 30.599 43.1897C30.4261 43.1909 30.2558 43.1465 30.1055 43.0609L15.4055 34.8195C15.2011 34.7041 15.0311 34.5364 14.9129 34.3337C14.7947 34.1309 14.7325 33.9003 14.7328 33.6656Z" fill="white"/>
<path d="M14.7328 55.8688V40.1078C14.7324 39.9347 14.7775 39.7645 14.8634 39.6142C14.9494 39.4639 15.0733 39.3388 15.2227 39.2513C15.3722 39.1639 15.5419 39.1172 15.715 39.1158C15.8882 39.1145 16.0586 39.1586 16.2094 39.2437L30.9039 47.4906C31.1082 47.6047 31.2783 47.7713 31.3966 47.9733C31.5149 48.1752 31.577 48.4051 31.5766 48.6391V64.4055C31.5764 64.5778 31.5312 64.7471 31.4456 64.8967C31.3599 65.0462 31.2366 65.1708 31.088 65.2581C30.9394 65.3453 30.7706 65.3923 30.5983 65.3943C30.4259 65.3963 30.2561 65.3533 30.1055 65.2695L15.4055 57.0227C15.2011 56.9072 15.0311 56.7396 14.9129 56.5368C14.7947 56.334 14.7325 56.1035 14.7328 55.8688Z" fill="white"/>
<path d="M52.0734 33.6656V17.9047C52.0749 17.7317 52.0308 17.5614 51.9455 17.4109C51.8602 17.2604 51.7368 17.135 51.5876 17.0474C51.4385 16.9598 51.2689 16.9131 51.0959 16.9119C50.9229 16.9107 50.7527 16.9551 50.6023 17.0406L35.9023 25.282C35.6983 25.3979 35.5287 25.5657 35.4105 25.7683C35.2924 25.971 35.23 26.2013 35.2297 26.4359V42.1969C35.2293 42.37 35.2744 42.5402 35.3603 42.6905C35.4463 42.8408 35.5702 42.9659 35.7196 43.0533C35.869 43.1408 36.0388 43.1875 36.2119 43.1888C36.385 43.1902 36.5555 43.1461 36.7063 43.0609L51.4062 34.8195C51.6096 34.7034 51.7785 34.5354 51.8957 34.3327C52.0129 34.13 52.0743 33.8998 52.0734 33.6656Z" fill="white"/>
<path d="M57.4547 52.9211V37.1547C57.4545 36.9823 57.4094 36.813 57.3237 36.6635C57.238 36.514 57.1148 36.3894 56.9662 36.3021C56.8176 36.2148 56.6487 36.1678 56.4764 36.1658C56.3041 36.1638 56.1342 36.2068 55.9836 36.2906L35.9078 47.4906C35.7021 47.6035 35.5306 47.7698 35.4112 47.9718C35.2919 48.1739 35.2292 48.4044 35.2297 48.6391V64.4109C35.2298 64.5833 35.275 64.7526 35.3607 64.9021C35.4464 65.0517 35.5696 65.1762 35.7182 65.2635C35.8668 65.3508 36.0356 65.3978 36.208 65.3998C36.3803 65.4018 36.5502 65.3588 36.7008 65.275L56.7766 54.075C56.9823 53.9607 57.1537 53.7935 57.273 53.5905C57.3922 53.3876 57.455 53.1565 57.4547 52.9211Z" fill="white"/>
</g>
<defs>
<clipPath id="clip0_0_831">
<rect width="70" height="70" fill="white"/>
</clipPath>
</defs>
</svg>
