<svg width="71" height="71" viewBox="0 0 71 71" fill="none" xmlns="http://www.w3.org/2000/svg">
<path d="M58.8458 28.6219L51.746 35.7217L58.8458 42.8215L65.9456 35.7217L58.8458 28.6219Z" fill="white"/>
<path d="M11.603 28.6258L4.50317 35.7256L11.603 42.8254L18.7028 35.7256L11.603 28.6258Z" fill="white"/>
<path d="M35.2227 52.2522L23.4539 40.4834L16.3555 47.5818L35.2227 66.449L54.0898 47.5818L46.9914 40.4834L35.2227 52.2522Z" fill="white"/>
<path d="M35.2227 19.1991L46.9914 30.9678L54.0898 23.8694L35.2227 5.0022L16.3555 23.8694L23.4539 30.9678L35.2227 19.1991Z" fill="white"/>
<path d="M35.2186 28.7147L28.2078 35.7256L35.2186 42.7364L42.2295 35.7256L35.2186 28.7147Z" fill="white"/>
</svg>
