<svg width="62" height="65" viewBox="0 0 62 65" fill="none" xmlns="http://www.w3.org/2000/svg">
<path d="M52.2035 32.6082C51.9361 29.8423 48.7657 27.9927 48.7657 27.9927C48.7657 27.9927 52.807 27.0151 53.2234 22.7436C53.4869 20.0186 51.5618 17.1744 46.7298 15.9073L48.3952 10.2972L44.4303 9.36044L42.7687 14.9569L39.4799 14.1803L41.1415 8.58382L37.169 7.64709L35.5074 13.2436L29.1208 11.7346L28.0703 15.2669L31.9588 16.1832L26.8862 33.2724L22.9977 32.3493L21.8823 36.0962L28.2689 37.6052L26.6074 43.2119L30.5952 44.169L32.2606 38.5623L35.5494 39.339L33.8687 44.9525L37.8527 45.8824L39.5181 40.2757L40.4387 40.4903C48.2004 42.2275 52.6619 37.377 52.2035 32.6082ZM38.5326 17.7364C38.5326 17.7364 40.1446 18.1077 42.4593 18.6629C44.6557 19.1909 46.3287 20.9213 45.8131 22.8731C45.2974 24.8249 43.0094 26.0682 40.6067 25.5368C38.4027 25.0463 36.5043 24.5694 36.5043 24.5694L38.5326 17.7364ZM38.7121 36.0655C36.4203 35.5682 33.46 34.8257 33.46 34.8257L35.5609 27.7304C35.5609 27.7304 38.2347 28.4117 40.6144 28.9226C43.4601 29.5494 45.1981 31.215 44.5716 33.4461C43.9452 35.6772 41.8023 36.7366 38.7121 36.0655Z" fill="url(#paint0_linear_2_5519)"/>
<defs>
<linearGradient id="paint0_linear_2_5519" x1="37.5647" y1="7.64709" x2="37.5647" y2="45.8824" gradientUnits="userSpaceOnUse">
<stop stop-color="#E0C21A"/>
<stop offset="1" stop-color="#F1B31C"/>
</linearGradient>
</defs>
</svg>
