<svg width="71" height="71" viewBox="0 0 71 71" fill="none" xmlns="http://www.w3.org/2000/svg">
<path d="M25.0182 46.499L7.56738 56.5725C7.67565 56.6141 7.79044 56.6364 7.90645 56.6381H62.5666C62.6764 56.6368 62.7852 56.6184 62.8893 56.5834L45.4002 46.499H25.0182Z" fill="white"/>
<path d="M34.5281 7.51233C34.4476 7.58621 34.3777 7.67087 34.3203 7.76389L7.00391 55.0795C6.95338 55.1683 6.91651 55.2641 6.89453 55.3639L24.3945 45.2795L34.5281 27.6756V7.51233Z" fill="white"/>
<path d="M63.4357 55.0795L36.1193 7.76389C36.0656 7.66985 35.9973 7.58494 35.917 7.51233V27.6756L46.0889 45.3014L63.5506 55.4131C63.5334 55.2957 63.4945 55.1826 63.4357 55.0795V55.0795Z" fill="white"/>
</svg>
