<svg width="71" height="71" viewBox="0 0 71 71" fill="none" xmlns="http://www.w3.org/2000/svg">
<g clip-path="url(#clip0_0_1227)">
<path d="M32.9805 23.2186L18.6852 15.2233C18.5314 15.1373 18.4034 15.012 18.3143 14.8601C18.2252 14.7082 18.1782 14.5353 18.1782 14.3592C18.1782 14.1831 18.2252 14.0102 18.3143 13.8583C18.4034 13.7064 18.5314 13.581 18.6852 13.4951L32.9805 5.49435C33.1777 5.38419 33.3999 5.32635 33.6258 5.32635C33.8517 5.32635 34.0739 5.38419 34.2711 5.49435L48.5664 13.4951C48.7201 13.581 48.8482 13.7064 48.9373 13.8583C49.0264 14.0102 49.0734 14.1831 49.0734 14.3592C49.0734 14.5353 49.0264 14.7082 48.9373 14.8601C48.8482 15.012 48.7201 15.1373 48.5664 15.2233L34.2711 23.2186C34.0739 23.3287 33.8517 23.3866 33.6258 23.3866C33.3999 23.3866 33.1777 23.3287 32.9805 23.2186V23.2186Z" fill="white"/>
<path d="M14.9554 34.3912V18.6303C14.9551 18.4572 15.0001 18.287 15.0861 18.1367C15.172 17.9864 15.2959 17.8613 15.4454 17.7738C15.5948 17.6864 15.7645 17.6397 15.9377 17.6383C16.1108 17.637 16.2812 17.6811 16.432 17.7662L31.1265 26.0076C31.3305 26.1235 31.5002 26.2913 31.6184 26.4939C31.7365 26.6966 31.7989 26.927 31.7992 27.1615V42.9225C31.8007 43.0955 31.7566 43.2658 31.6713 43.4163C31.586 43.5668 31.4626 43.6921 31.3134 43.7797C31.1642 43.8673 30.9946 43.9141 30.8217 43.9153C30.6487 43.9165 30.4785 43.8721 30.3281 43.7865L15.6281 35.5451C15.4237 35.4297 15.2537 35.262 15.1355 35.0593C15.0173 34.8565 14.9552 34.6259 14.9554 34.3912V34.3912Z" fill="white"/>
<path d="M14.9554 56.5944V40.8334C14.9551 40.6603 15.0001 40.4901 15.0861 40.3398C15.172 40.1895 15.2959 40.0644 15.4454 39.977C15.5948 39.8895 15.7645 39.8428 15.9377 39.8415C16.1108 39.8401 16.2812 39.8842 16.432 39.9694L31.1265 48.2162C31.3309 48.3303 31.501 48.4969 31.6192 48.6989C31.7375 48.9008 31.7996 49.1307 31.7992 49.3647V65.1311C31.799 65.3034 31.7539 65.4727 31.6682 65.6223C31.5825 65.7718 31.4593 65.8964 31.3107 65.9837C31.1621 66.071 30.9932 66.1179 30.8209 66.1199C30.6486 66.122 30.4787 66.0789 30.3281 65.9951L15.6281 57.7483C15.4237 57.6329 15.2537 57.4652 15.1355 57.2624C15.0173 57.0596 14.9552 56.8291 14.9554 56.5944V56.5944Z" fill="white"/>
<path d="M52.2961 34.3912V18.6303C52.2976 18.4573 52.2534 18.287 52.1682 18.1365C52.0829 17.986 51.9594 17.8606 51.8103 17.773C51.6611 17.6854 51.4915 17.6387 51.3186 17.6375C51.1456 17.6363 50.9753 17.6807 50.825 17.7662L36.125 26.0076C35.921 26.1235 35.7513 26.2913 35.6332 26.4939C35.515 26.6966 35.4526 26.9269 35.4523 27.1615V42.9225C35.452 43.0956 35.497 43.2658 35.583 43.4161C35.6689 43.5664 35.7928 43.6915 35.9422 43.7789C36.0917 43.8664 36.2614 43.9131 36.4346 43.9144C36.6077 43.9158 36.7781 43.8717 36.9289 43.7865L51.6289 35.5451C51.8322 35.429 52.0012 35.261 52.1184 35.0583C52.2356 34.8556 52.2969 34.6254 52.2961 34.3912V34.3912Z" fill="white"/>
<path d="M57.6773 53.6467V37.8803C57.6772 37.7079 57.632 37.5386 57.5463 37.3891C57.4607 37.2396 57.3374 37.115 57.1888 37.0277C57.0402 36.9404 56.8714 36.8934 56.699 36.8914C56.5267 36.8894 56.3568 36.9324 56.2062 37.0162L36.1305 48.2162C35.9247 48.3291 35.7532 48.4954 35.6339 48.6974C35.5146 48.8995 35.4519 49.13 35.4523 49.3647V65.1365C35.4525 65.3089 35.4976 65.4782 35.5833 65.6277C35.669 65.7773 35.7923 65.9018 35.9409 65.9891C36.0895 66.0764 36.2583 66.1234 36.4306 66.1254C36.603 66.1274 36.7728 66.0844 36.9234 66.0006L56.9992 54.8006C57.205 54.6863 57.3764 54.5191 57.4956 54.3161C57.6149 54.1132 57.6776 53.8821 57.6773 53.6467V53.6467Z" fill="white"/>
</g>
<defs>
<clipPath id="clip0_0_1227">
<rect width="70" height="70" fill="white" transform="translate(0.222656 0.725586)"/>
</clipPath>
</defs>
</svg>
