<svg width="24" height="24" viewBox="0 0 24 24" fill="none" xmlns="http://www.w3.org/2000/svg">
<g clip-path="url(#clip0_15_6859)">
<path d="M12 7.4775C11.1055 7.4775 10.2312 7.74274 9.48743 8.23968C8.74371 8.73662 8.16405 9.44294 7.82175 10.2693C7.47946 11.0957 7.3899 12.005 7.5644 12.8823C7.7389 13.7596 8.16963 14.5654 8.80211 15.1979C9.43459 15.8304 10.2404 16.2611 11.1177 16.4356C11.995 16.6101 12.9043 16.5205 13.7307 16.1782C14.5571 15.8359 15.2634 15.2563 15.7603 14.5126C16.2573 13.7688 16.5225 12.8945 16.5225 12C16.521 10.801 16.0441 9.65156 15.1962 8.80375C14.3484 7.95594 13.199 7.47899 12 7.4775V7.4775ZM12 15.1181C11.3833 15.1181 10.7804 14.9352 10.2677 14.5926C9.75489 14.25 9.35523 13.763 9.11923 13.1933C8.88322 12.6235 8.82148 11.9965 8.94179 11.3917C9.0621 10.7868 9.35907 10.2312 9.79515 9.79515C10.2312 9.35907 10.7868 9.0621 11.3917 8.94179C11.9965 8.82148 12.6235 8.88322 13.1933 9.11923C13.763 9.35523 14.25 9.75489 14.5926 10.2677C14.9352 10.7804 15.1181 11.3833 15.1181 12C15.1171 12.8267 14.7883 13.6192 14.2038 14.2038C13.6192 14.7883 12.8267 15.1171 12 15.1181Z" fill="white"/>
<path d="M12 5.89875C12.8876 5.89786 13.7554 5.63612 14.4954 5.14609C15.2355 4.65605 15.8152 3.95932 16.1625 3.1425C15.7379 2.94201 15.2992 2.77281 14.85 2.63625C14.6064 3.1891 14.2073 3.65917 13.7013 3.98918C13.1952 4.31919 12.6041 4.49491 12 4.49491C11.3959 4.49491 10.8048 4.31919 10.2987 3.98918C9.79271 3.65917 9.39359 3.1891 9.15 2.63625C8.70075 2.77281 8.26209 2.94201 7.8375 3.1425C8.18502 3.95917 8.76479 4.65577 9.5048 5.14578C10.2448 5.63578 11.1125 5.89761 12 5.89875V5.89875Z" fill="white"/>
<path d="M12 18.1012C11.1124 18.1021 10.2447 18.3639 9.50459 18.8539C8.76454 19.344 8.18482 20.0407 7.8375 20.8575C8.26209 21.058 8.70075 21.2272 9.15 21.3637C9.39359 20.8109 9.79271 20.3408 10.2987 20.0108C10.8048 19.6808 11.3959 19.5051 12 19.5051C12.6041 19.5051 13.1952 19.6808 13.7013 20.0108C14.2073 20.3408 14.6064 20.8109 14.85 21.3637C15.2992 21.2272 15.7379 21.058 16.1625 20.8575C15.8152 20.0407 15.2355 19.344 14.4954 18.8539C13.7554 18.3639 12.8876 18.1021 12 18.1012V18.1012Z" fill="white"/>
<path d="M6.71625 8.94937C7.15835 8.18016 7.36504 7.29814 7.31071 6.41259C7.25639 5.52705 6.94343 4.67691 6.41062 3.9675C6.02571 4.23618 5.66041 4.53193 5.3175 4.8525C5.67318 5.34008 5.87963 5.92046 5.91176 6.52313C5.94389 7.1258 5.80032 7.72484 5.4985 8.24748C5.19667 8.77011 4.74957 9.19386 4.21151 9.46724C3.67345 9.74062 3.06759 9.85188 2.4675 9.7875C2.36149 10.2441 2.2888 10.7078 2.25 11.175C2.42975 11.1974 2.61073 11.2087 2.79188 11.2087C3.5868 11.2099 4.36801 11.0017 5.05692 10.6051C5.74583 10.2085 6.31813 9.63742 6.71625 8.94937Z" fill="white"/>
<path d="M20.0306 12.9375C19.3157 13.129 18.6587 13.4931 18.1174 13.998C17.5762 14.5028 17.1672 15.1329 16.9265 15.8328C16.6858 16.5328 16.6207 17.2811 16.7369 18.0121C16.8532 18.743 17.1472 19.4343 17.5931 20.025C17.978 19.7563 18.3433 19.4606 18.6863 19.14C18.388 18.7309 18.1938 18.2554 18.1205 17.7545C18.0472 17.2535 18.097 16.7423 18.2655 16.2649C18.4341 15.7875 18.7163 15.3583 19.0879 15.0145C19.4594 14.6706 19.9091 14.4224 20.3981 14.2913C20.7686 14.1905 21.1547 14.1606 21.5363 14.2031C21.6423 13.7465 21.715 13.2828 21.7538 12.8156C21.1769 12.7446 20.5917 12.786 20.0306 12.9375V12.9375Z" fill="white"/>
<path d="M6.71625 15.0506C6.27156 14.2829 5.61132 13.6626 4.81739 13.2667C4.02345 12.8707 3.13076 12.7165 2.25 12.8231C2.2888 13.2903 2.36149 13.754 2.4675 14.2106C2.84904 14.1681 3.23518 14.198 3.60562 14.2988C4.09461 14.4299 4.54432 14.6781 4.91588 15.022C5.28744 15.3658 5.56969 15.795 5.73823 16.2724C5.90678 16.7498 5.95655 17.261 5.88324 17.762C5.80994 18.2629 5.61576 18.7384 5.3175 19.1475C5.66041 19.4681 6.02571 19.7638 6.41062 20.0325C6.94343 19.3231 7.25639 18.473 7.31071 17.5874C7.36504 16.7019 7.15835 15.8198 6.71625 15.0506V15.0506Z" fill="white"/>
<path d="M17.2838 8.94937C17.6819 9.63742 18.2542 10.2085 18.9431 10.6051C19.632 11.0017 20.4132 11.2099 21.2081 11.2087C21.3893 11.2087 21.5702 11.1974 21.75 11.175C21.7112 10.7078 21.6385 10.2441 21.5325 9.7875C20.9324 9.85188 20.3265 9.74062 19.7885 9.46724C19.2504 9.19386 18.8033 8.77011 18.5015 8.24748C18.1997 7.72484 18.0561 7.1258 18.0882 6.52313C18.1204 5.92046 18.3268 5.34008 18.6825 4.8525C18.3396 4.53193 17.9743 4.23618 17.5894 3.9675C17.0566 4.67691 16.7436 5.52705 16.6893 6.41259C16.635 7.29814 16.8417 8.18016 17.2838 8.94937V8.94937Z" fill="white"/>
</g>
<defs>
<clipPath id="clip0_15_6859">
<rect width="24" height="24" fill="white"/>
</clipPath>
</defs>
</svg>
