<svg width="30" height="30" viewBox="0 0 30 30" fill="none" xmlns="http://www.w3.org/2000/svg">
<path d="M20.8079 11.6346C21.8181 8.99787 21.9798 6.84866 21.2767 5.55491C21.08 5.19349 20.8022 4.88262 20.465 4.64675C20.1279 4.41087 19.7406 4.25642 19.3337 4.19553C18.9343 4.11013 18.5203 4.12085 18.1259 4.2268C17.7314 4.33274 17.3678 4.53089 17.0649 4.80491C15.6212 6.09397 15.3868 8.80569 15.3353 10.4721C15.0821 10.4721 14.8665 10.4721 14.6321 10.4721C14.5313 8.80569 14.3415 6.09397 12.8907 4.80725C12.5876 4.5321 12.2232 4.33311 11.8279 4.22673C11.4326 4.12036 11.0176 4.10966 10.6173 4.19553C10.2096 4.25787 9.82191 4.41365 9.48445 4.65069C9.14698 4.88773 8.86891 5.1996 8.67197 5.56194C7.96885 6.86506 8.13291 9.02366 9.14072 11.6674C6.27666 13.0174 4.64307 15.3705 4.64307 18.176C4.64307 22.8424 8.70479 25.8565 14.9907 25.8565C21.2767 25.8565 25.3384 22.8424 25.3384 18.176C25.3478 15.3448 23.7001 12.9799 20.8079 11.6346ZM9.88135 12.3002L10.2798 12.1315L10.1157 11.7307C9.07744 9.19006 8.83135 7.09475 9.43603 5.97912C9.57228 5.73059 9.76501 5.51754 9.99868 5.35714C10.2324 5.19674 10.5005 5.09348 10.7813 5.05569C10.9119 5.03014 11.0445 5.0168 11.1774 5.01584C11.5956 5.01987 11.9977 5.17753 12.3071 5.45881C13.9478 6.83694 13.7931 11.3955 13.7931 11.3955L14.1868 11.3674C14.7154 11.3405 15.245 11.3405 15.7735 11.3674L16.1579 11.3908C16.1579 11.3908 16.0267 6.84162 17.6532 5.46819C17.8568 5.28465 18.1012 5.15232 18.3661 5.08221C18.6311 5.0121 18.909 5.00622 19.1767 5.06506C19.4563 5.10214 19.7232 5.20467 19.9557 5.36431C20.1883 5.52395 20.3799 5.7362 20.5149 5.98381C21.1173 7.09006 20.8735 9.176 19.8423 11.7096L19.6876 12.101L20.0884 12.2697C22.5517 13.2987 24.2649 15.0823 24.4149 17.2807C24.6235 20.5127 20.2384 23.0674 15.0001 23.0674C9.76182 23.0674 5.39072 20.5502 5.58994 17.344C5.72119 15.1268 7.4251 13.3385 9.88135 12.3002Z" fill="white"/>
<path d="M18.6116 18.6704C19.2226 18.6704 19.7179 17.9306 19.7179 17.0181C19.7179 16.1055 19.2226 15.3657 18.6116 15.3657C18.0007 15.3657 17.5054 16.1055 17.5054 17.0181C17.5054 17.9306 18.0007 18.6704 18.6116 18.6704Z" fill="white"/>
<path d="M11.3743 18.6704C11.9853 18.6704 12.4806 17.9306 12.4806 17.0181C12.4806 16.1055 11.9853 15.3657 11.3743 15.3657C10.7634 15.3657 10.2681 16.1055 10.2681 17.0181C10.2681 17.9306 10.7634 18.6704 11.3743 18.6704Z" fill="white"/>
</svg>
