<svg width="20" height="20" viewBox="0 0 20 20" fill="none" xmlns="http://www.w3.org/2000/svg">
<path d="M13.9226 8.92258C14.248 8.59715 14.248 8.06951 13.9226 7.74407C13.5972 7.41864 13.0695 7.41864 12.7441 7.74407L8.75001 11.7382L7.25593 10.2441C6.9305 9.91864 6.40286 9.91864 6.07742 10.2441C5.75198 10.5695 5.75198 11.0971 6.07742 11.4226L8.16076 13.5059C8.48619 13.8314 9.01383 13.8314 9.33927 13.5059L13.9226 8.92258Z" fill="#181E30" fill-opacity="0.32"/>
<path fill-rule="evenodd" clip-rule="evenodd" d="M10 0.833328C4.9374 0.833328 0.833344 4.93738 0.833344 10C0.833344 15.0626 4.9374 19.1667 10 19.1667C15.0626 19.1667 19.1667 15.0626 19.1667 10C19.1667 4.93738 15.0626 0.833328 10 0.833328ZM2.50001 10C2.50001 5.85786 5.85787 2.49999 10 2.49999C14.1421 2.49999 17.5 5.85786 17.5 10C17.5 14.1421 14.1421 17.5 10 17.5C5.85787 17.5 2.50001 14.1421 2.50001 10Z" fill="#181E30" fill-opacity="0.32"/>
</svg>
