<svg width="71" height="71" viewBox="0 0 71 71" fill="none" xmlns="http://www.w3.org/2000/svg">
<path d="M48.7741 27.8725C51.1312 21.7201 51.5085 16.7053 49.8679 13.6865C49.409 12.8432 48.7607 12.1179 47.9741 11.5675C47.1874 11.0171 46.2838 10.6567 45.3343 10.5147C44.4023 10.3154 43.4364 10.3404 42.516 10.5876C41.5957 10.8348 40.7472 11.2972 40.0405 11.9365C36.6718 14.9444 36.1249 21.2717 36.0046 25.16C35.414 25.16 34.9108 25.16 34.364 25.16C34.1288 21.2717 33.6858 14.9444 30.3007 11.942C29.5933 11.3 28.7432 10.8357 27.8208 10.5875C26.8983 10.3393 25.93 10.3143 24.996 10.5147C24.0448 10.6601 23.1401 11.0236 22.3527 11.5767C21.5653 12.1298 20.9165 12.8575 20.4569 13.7029C18.8163 16.7436 19.1991 21.7803 21.5507 27.949C14.8679 31.099 11.0562 36.5897 11.0562 43.1358C11.0562 54.024 20.5335 61.0569 35.2007 61.0569C49.8679 61.0569 59.3452 54.024 59.3452 43.1358C59.3671 36.5295 55.5226 31.0115 48.7741 27.8725ZM23.2788 29.4256L24.2085 29.0319L23.8257 28.0967C21.403 22.1686 20.8288 17.2795 22.2397 14.6764C22.5577 14.0965 23.0074 13.5994 23.5526 13.2251C24.0978 12.8508 24.7234 12.6099 25.3788 12.5217C25.6833 12.4621 25.9927 12.431 26.303 12.4287C27.2787 12.4381 28.2169 12.806 28.939 13.4623C32.7671 16.678 32.4062 27.3147 32.4062 27.3147L33.3249 27.249C34.5582 27.1862 35.7939 27.1862 37.0272 27.249L37.9241 27.3037C37.9241 27.3037 37.6179 16.6889 41.4132 13.4842C41.8881 13.0559 42.4584 12.7472 43.0767 12.5836C43.6949 12.42 44.3433 12.4063 44.9679 12.5436C45.6203 12.6301 46.2431 12.8693 46.7857 13.2418C47.3283 13.6143 47.7753 14.1096 48.0905 14.6873C49.496 17.2686 48.9272 22.1358 46.521 28.0475L46.1601 28.9608L47.0952 29.3545C52.8429 31.7553 56.8405 35.917 57.1905 41.0467C57.6772 48.5881 47.4452 54.549 35.2226 54.549C22.9999 54.549 12.8007 48.6756 13.2655 41.1944C13.5718 36.0209 17.5476 31.8483 23.2788 29.4256Z" fill="white"/>
<path d="M43.6501 44.2897C45.0757 44.2897 46.2313 42.5635 46.2313 40.4342C46.2313 38.3049 45.0757 36.5787 43.6501 36.5787C42.2245 36.5787 41.0688 38.3049 41.0688 40.4342C41.0688 42.5635 42.2245 44.2897 43.6501 44.2897Z" fill="white"/>
<path d="M26.7624 44.2897C28.188 44.2897 29.3437 42.5635 29.3437 40.4342C29.3437 38.3049 28.188 36.5787 26.7624 36.5787C25.3368 36.5787 24.1812 38.3049 24.1812 40.4342C24.1812 42.5635 25.3368 44.2897 26.7624 44.2897Z" fill="white"/>
</svg>
