<svg width="20" height="20" viewBox="0 0 20 20" fill="none" xmlns="http://www.w3.org/2000/svg">
<path d="M13.9226 8.92258C14.248 8.59715 14.248 8.06951 13.9226 7.74407C13.5971 7.41864 13.0695 7.41864 12.7441 7.74407L8.74998 11.7382L7.2559 10.2441C6.93047 9.91864 6.40283 9.91864 6.07739 10.2441C5.75195 10.5695 5.75195 11.0971 6.07739 11.4226L8.16072 13.5059C8.48616 13.8314 9.0138 13.8314 9.33924 13.5059L13.9226 8.92258Z" fill="#181E30" fill-opacity="0.32"/>
<path fill-rule="evenodd" clip-rule="evenodd" d="M9.99998 0.833328C4.93737 0.833328 0.833313 4.93738 0.833313 10C0.833313 15.0626 4.93737 19.1667 9.99998 19.1667C15.0626 19.1667 19.1666 15.0626 19.1666 10C19.1666 4.93738 15.0626 0.833328 9.99998 0.833328ZM2.49998 10C2.49998 5.85786 5.85784 2.49999 9.99998 2.49999C14.1421 2.49999 17.5 5.85786 17.5 10C17.5 14.1421 14.1421 17.5 9.99998 17.5C5.85784 17.5 2.49998 14.1421 2.49998 10Z" fill="#181E30" fill-opacity="0.32"/>
</svg>
