<svg width="71" height="71" viewBox="0 0 71 71" fill="none" xmlns="http://www.w3.org/2000/svg">
<path d="M32.7617 62.3967C32.9152 62.6114 32.9945 62.8703 32.9876 63.1341C32.9807 63.398 32.8881 63.6524 32.7236 63.8589C32.5592 64.0653 32.332 64.2126 32.0764 64.2783C31.8207 64.3441 31.5507 64.3247 31.307 64.2232C24.7172 61.4287 17.0172 55.3803 17.0172 44.9678C17.0172 32.2092 29.7375 27.342 32.8492 17.3998C33.8694 14.2792 34.3502 11.0077 34.2711 7.72556C34.2655 7.53679 34.3197 7.35107 34.4259 7.1949C34.5321 7.03872 34.6849 6.92005 34.8625 6.8558C35.0401 6.79155 35.2334 6.78501 35.4149 6.83709C35.5965 6.88918 35.7569 6.99724 35.8734 7.14587C39.5016 11.6402 41.5758 17.1892 41.7852 22.9615C42.1953 31.7552 32.7836 38.8209 29.6773 45.9303C26.8828 52.4326 30.1148 58.7326 32.7617 62.3967Z" fill="white"/>
<path d="M41.8781 63.4686C41.8292 63.5584 41.759 63.635 41.6737 63.6916C41.5884 63.7482 41.4906 63.7832 41.3888 63.7934C41.2869 63.8037 41.1841 63.7889 41.0893 63.7504C40.9944 63.7119 40.9104 63.6508 40.8445 63.5725C39.3844 61.8553 36.2234 57.431 36.6117 52.7443C37.3063 44.3553 42.4523 38.8045 44.4648 35.1787C45.3408 33.6455 45.9719 31.9848 46.3352 30.2568C46.3492 30.1828 46.383 30.114 46.4331 30.0578C46.4832 30.0015 46.5477 29.96 46.6196 29.9375C46.6914 29.915 46.7681 29.9125 46.8413 29.9302C46.9145 29.948 46.9815 29.9852 47.0352 30.0381C49.332 32.6303 53.5375 38.3998 53.4227 45.285C53.2313 56.9881 45.2688 59.6568 42.5563 62.5334C42.2896 62.8135 42.0615 63.128 41.8781 63.4686V63.4686Z" fill="white"/>
</svg>
