<svg width="70" height="70" viewBox="0 0 70 70" fill="none" xmlns="http://www.w3.org/2000/svg">
<path d="M32.5391 61.6711C32.6925 61.8858 32.7718 62.1447 32.7649 62.4086C32.7581 62.6724 32.6654 62.9268 32.501 63.1333C32.3366 63.3398 32.1093 63.487 31.8537 63.5528C31.5981 63.6185 31.328 63.5992 31.0844 63.4977C24.4945 60.7031 16.7945 54.6547 16.7945 44.2422C16.7945 31.4836 29.5148 26.6164 32.6266 16.6742C33.6467 13.5537 34.1276 10.2821 34.0484 7C34.0429 6.81122 34.0971 6.62551 34.2033 6.46934C34.3094 6.31316 34.4622 6.19449 34.6398 6.13024C34.8174 6.06599 35.0107 6.05944 35.1923 6.11153C35.3738 6.16362 35.5343 6.27168 35.6508 6.42031C39.279 10.9147 41.3531 16.4637 41.5625 22.2359C41.9727 31.0297 32.5609 38.0953 29.4547 45.2047C26.6602 51.707 29.8922 58.007 32.5391 61.6711Z" fill="white"/>
<path d="M41.6555 62.743C41.6065 62.8329 41.5363 62.9094 41.451 62.966C41.3658 63.0227 41.268 63.0576 41.1661 63.0678C41.0643 63.0781 40.9615 63.0633 40.8666 63.0248C40.7718 62.9863 40.6878 62.9252 40.6219 62.8469C39.1617 61.1297 36.0008 56.7055 36.3891 52.0188C37.0836 43.6297 42.2297 38.0789 44.2422 34.4531C45.1181 32.9199 45.7492 31.2593 46.1125 29.5312C46.1265 29.4572 46.1604 29.3884 46.2105 29.3322C46.2606 29.276 46.325 29.2344 46.3969 29.2119C46.4688 29.1895 46.5454 29.1869 46.6186 29.2047C46.6918 29.2224 46.7588 29.2596 46.8125 29.3125C49.1094 31.9047 53.3148 37.6742 53.2 44.5594C53.0086 56.2625 45.0461 58.9312 42.3336 61.8078C42.0669 62.0879 41.8389 62.4024 41.6555 62.743Z" fill="white"/>
</svg>
