<svg width="71" height="71" viewBox="0 0 71 71" fill="none" xmlns="http://www.w3.org/2000/svg">
<g clip-path="url(#clip0_0_1231)">
<path d="M23.793 58.4045L31.4492 49.5834C31.8089 49.1702 32.007 48.6409 32.007 48.0931C32.007 47.5454 31.8089 47.0161 31.4492 46.6029L29.8086 44.7162L17.9141 58.3881L23.793 58.4045Z" fill="white"/>
<path d="M63.2172 13.0467H57.3492L33.582 40.3904C33.2183 40.8038 33.0176 41.3355 33.0176 41.8861C33.0176 42.4368 33.2183 42.9685 33.582 43.3818L46.6469 58.4209H52.5203L39.1273 42.9936C38.8573 42.6846 38.7085 42.2882 38.7085 41.8779C38.7085 41.4676 38.8573 41.0713 39.1273 40.7623L63.2172 13.0467Z" fill="white"/>
<path d="M62.725 58.4045L45.4766 38.5638L43.9727 40.2701C43.613 40.6832 43.4148 41.2125 43.4148 41.7603C43.4148 42.3081 43.613 42.8374 43.9727 43.2506L57.1414 58.4045H62.725Z" fill="white"/>
<path d="M47.0078 13.0467L38.9141 22.3436C38.5569 22.7568 38.3604 23.2848 38.3604 23.8311C38.3604 24.3773 38.5569 24.9053 38.9141 25.3186L40.4016 27.0303L52.5695 13.0303L47.0078 13.0467Z" fill="white"/>
<path d="M17.7227 13.0467L35.157 33.0842L36.7211 31.285C37.0812 30.8709 37.2795 30.3407 37.2795 29.792C37.2795 29.2433 37.0812 28.7131 36.7211 28.299L23.3281 13.0467H17.7227Z" fill="white"/>
<path d="M7.22813 13.0467L26.15 34.8178C26.4168 35.1283 26.5635 35.5241 26.5635 35.9334C26.5635 36.3428 26.4168 36.7386 26.15 37.049L7.58906 58.4045H13.1453L31.5422 37.2404C31.8993 36.8272 32.0959 36.2992 32.0959 35.7529C32.0959 35.2067 31.8993 34.6787 31.5422 34.2654L13.0961 13.0467H7.22813Z" fill="white"/>
</g>
<defs>
<clipPath id="clip0_0_1231">
<rect width="70" height="70" fill="white" transform="translate(0.222656 0.725586)"/>
</clipPath>
</defs>
</svg>
