<svg width="70" height="70" viewBox="0 0 70 70" fill="none" xmlns="http://www.w3.org/2000/svg">
<g clip-path="url(#clip0_3_1196)">
<path d="M23.5703 57.6789L31.2266 48.8578C31.5863 48.4447 31.7844 47.9154 31.7844 47.3676C31.7844 46.8198 31.5863 46.2905 31.2266 45.8773L29.5859 43.9906L17.6914 57.6625L23.5703 57.6789Z" fill="white"/>
<path d="M62.9945 12.3211H57.1266L33.3594 39.6648C32.9956 40.0782 32.795 40.6099 32.795 41.1605C32.795 41.7112 32.9956 42.2429 33.3594 42.6563L46.4242 57.6953H52.2977L38.9047 42.268C38.6347 41.959 38.4859 41.5626 38.4859 41.1523C38.4859 40.742 38.6347 40.3457 38.9047 40.0367L62.9945 12.3211Z" fill="white"/>
<path d="M62.5023 57.6789L45.2539 37.8383L43.75 39.5445C43.3903 39.9577 43.1922 40.487 43.1922 41.0348C43.1922 41.5826 43.3903 42.1119 43.75 42.525L56.9188 57.6789H62.5023Z" fill="white"/>
<path d="M46.7852 12.3211L38.6914 21.618C38.3343 22.0313 38.1377 22.5592 38.1377 23.1055C38.1377 23.6517 38.3343 24.1797 38.6914 24.593L40.1789 26.3047L52.3469 12.3047L46.7852 12.3211Z" fill="white"/>
<path d="M17.5 12.3211L34.9344 32.3586L36.4984 30.5594C36.8585 30.1453 37.0569 29.6151 37.0569 29.0664C37.0569 28.5177 36.8585 27.9875 36.4984 27.5734L23.1055 12.3211H17.5Z" fill="white"/>
<path d="M7.00547 12.3211L25.9273 34.0922C26.1941 34.4027 26.3408 34.7985 26.3408 35.2078C26.3408 35.6172 26.1941 36.013 25.9273 36.3234L7.36641 57.6789H12.9227L31.3195 36.5148C31.6767 36.1016 31.8732 35.5736 31.8732 35.0273C31.8732 34.4811 31.6767 33.9531 31.3195 33.5398L12.8734 12.3211H7.00547Z" fill="white"/>
</g>
<defs>
<clipPath id="clip0_3_1196">
<rect width="70" height="70" fill="white"/>
</clipPath>
</defs>
</svg>
