<svg width="71" height="71" viewBox="0 0 71 71" fill="none" xmlns="http://www.w3.org/2000/svg">
<path d="M57.0592 45.2084C56.2617 45.3539 55.4527 45.4271 54.642 45.4272C51.6396 45.4272 48.0795 45.1756 44.6342 41.7686L39.1217 35.7256L44.6342 29.71C45.5701 28.7635 46.7142 28.0488 47.9753 27.6229C49.2364 27.197 50.5795 27.0717 51.8976 27.257C53.2157 27.4423 54.4723 27.9331 55.5671 28.6902C56.6619 29.4472 57.5646 30.4497 58.2032 31.6176C58.8419 32.7854 59.1987 34.0864 59.2454 35.4166C59.292 36.7469 59.0272 38.0696 58.4719 39.2793C57.9167 40.4891 57.0864 41.5523 56.0473 42.3842C55.0083 43.2161 53.7892 43.7937 52.4873 44.0709C53.937 44.3093 55.417 44.2963 56.8623 44.0326C62.1943 43.0045 64.792 38.2194 64.9287 37.1803C65.2326 34.2376 64.6172 31.273 63.167 28.6944C61.7168 26.1159 59.5032 24.0501 56.8307 22.7813C54.1582 21.5125 51.1582 21.1031 48.2435 21.6094C45.3288 22.1157 42.6426 23.5128 40.5545 25.6084L35.2225 31.4545L29.8904 25.6084C28.5619 24.2796 26.9847 23.2255 25.2488 22.5064C23.5128 21.7872 21.6522 21.4171 19.7732 21.4171C17.8942 21.4171 16.0337 21.7872 14.2977 22.5064C12.5618 23.2255 10.9846 24.2796 9.65605 25.6084C8.28357 26.9736 7.20587 28.606 6.48965 30.4045C8.20246 28.2211 10.6557 26.7406 13.3857 26.2428C17.2412 25.5264 22.4748 26.3084 25.8107 29.6826L31.3232 35.7256L25.8107 41.7412C24.8725 42.6814 23.728 43.3899 22.4681 43.8103C21.2082 44.2308 19.8676 44.3516 18.5528 44.1633C17.238 43.9749 15.9852 43.4826 14.894 42.7253C13.8028 41.9681 12.9032 40.9668 12.2667 39.801C11.6302 38.6353 11.2743 37.3371 11.2273 36.0098C11.1802 34.6824 11.4434 33.3623 11.9959 32.1544C12.5483 30.9465 13.3748 29.8841 14.4097 29.0516C15.4446 28.219 16.6594 27.6393 17.9576 27.3584C16.5093 27.1046 15.027 27.1157 13.5826 27.3912C9.61777 28.2115 5.69121 32.7178 5.53808 34.2709C5.23971 37.2091 5.85763 40.1677 7.3071 42.7409C8.75657 45.3141 10.9666 47.3758 13.6341 48.6433C16.3016 49.9109 19.2959 50.3222 22.2063 49.8208C25.1168 49.3194 27.8009 47.9299 29.8904 45.8428L35.2225 39.9967L40.5545 45.8428C41.883 47.1716 43.4602 48.2257 45.1962 48.9448C46.9321 49.664 48.7927 50.0341 50.6717 50.0341C52.5507 50.0341 54.4113 49.664 56.1472 48.9448C57.8831 48.2257 59.4604 47.1716 60.7889 45.8428C62.1613 44.4776 63.2391 42.8452 63.9553 41.0467C62.2425 43.2301 59.7893 44.7106 57.0592 45.2084V45.2084Z" fill="white"/>
</svg>
