<svg width="70" height="70" viewBox="0 0 70 70" fill="none" xmlns="http://www.w3.org/2000/svg">
<path d="M56.8367 44.4828C56.0392 44.6283 55.2302 44.7015 54.4195 44.7016C51.4172 44.7016 47.857 44.45 44.4117 41.043L38.8992 35L44.4117 28.9844C45.3476 28.0379 46.4917 27.3232 47.7528 26.8973C49.0139 26.4714 50.3571 26.3461 51.6752 26.5314C52.9933 26.7167 54.2498 27.2075 55.3446 27.9646C56.4394 28.7216 57.3421 29.7241 57.9808 30.892C58.6194 32.0598 58.9763 33.3608 59.0229 34.691C59.0696 36.0213 58.8047 37.344 58.2495 38.5537C57.6942 39.7635 56.8639 40.8267 55.8249 41.6586C54.7858 42.4905 53.5667 43.0681 52.2648 43.3453C53.7146 43.5837 55.1945 43.5707 56.6398 43.307C61.9719 42.2789 64.5695 37.4938 64.7062 36.4547C65.0102 33.512 64.3947 30.5474 62.9445 27.9688C61.4944 25.3903 59.2807 23.3245 56.6083 22.0557C53.9358 20.7869 50.9358 20.3775 48.0211 20.8838C45.1063 21.3901 42.4201 22.7871 40.332 24.8828L35 30.7289L29.668 24.8828C28.3395 23.554 26.7622 22.4999 25.0263 21.7808C23.2904 21.0616 21.4298 20.6915 19.5508 20.6915C17.6718 20.6915 15.8112 21.0616 14.0753 21.7808C12.3393 22.4999 10.7621 23.554 9.43359 24.8828C8.06111 26.248 6.98341 27.8804 6.26719 29.6789C7.98 27.4955 10.4332 26.015 13.1633 25.5172C17.0188 24.8008 22.2523 25.5828 25.5883 28.957L31.1008 35L25.5883 41.0156C24.6501 41.9558 23.5056 42.6643 22.2457 43.0847C20.9857 43.5052 19.6451 43.626 18.3303 43.4377C17.0155 43.2493 15.7628 42.757 14.6716 41.9997C13.5803 41.2425 12.6807 40.2412 12.0442 39.0754C11.4077 37.9097 11.0518 36.6115 11.0048 35.2841C10.9578 33.9568 11.221 32.6367 11.7734 31.4288C12.3259 30.2209 13.1524 29.1585 14.1873 28.326C15.2222 27.4934 16.437 26.9137 17.7352 26.6328C16.2868 26.379 14.8045 26.3901 13.3602 26.6656C9.39531 27.4859 5.46875 31.9922 5.31563 33.5453C5.01725 36.4835 5.63517 39.4421 7.08464 42.0153C8.53411 44.5885 10.7441 46.6502 13.4116 47.9177C16.0791 49.1853 19.0734 49.5966 21.9839 49.0952C24.8943 48.5938 27.5784 47.2043 29.668 45.1172L35 39.2711L40.332 45.1172C41.6605 46.446 43.2378 47.5001 44.9737 48.2192C46.7096 48.9384 48.5702 49.3085 50.4492 49.3085C52.3282 49.3085 54.1888 48.9384 55.9247 48.2192C57.6607 47.5001 59.2379 46.446 60.5664 45.1172C61.9389 43.752 63.0166 42.1196 63.7328 40.3211C62.02 42.5045 59.5668 43.985 56.8367 44.4828Z" fill="white"/>
</svg>
