<svg width="24" height="24" viewBox="0 0 24 24" fill="none" xmlns="http://www.w3.org/2000/svg">
<path d="M16.035 8.54625L7.9725 13.2056C7.82404 13.2905 7.656 13.3351 7.485 13.3351C7.314 13.3351 7.14596 13.2905 6.9975 13.2056L4.41562 11.7187C4.26924 11.632 4.14809 11.5086 4.06422 11.3605C3.98034 11.2125 3.93665 11.0451 3.9375 10.875V7.90125C3.93761 7.73021 3.98271 7.5622 4.06828 7.4141C4.15385 7.266 4.27687 7.14302 4.425 7.0575L6.99938 5.57062C7.14784 5.48578 7.31588 5.44115 7.48687 5.44115C7.65787 5.44115 7.82591 5.48578 7.97437 5.57062L10.5487 7.0575C10.6969 7.14302 10.8199 7.266 10.9055 7.4141C10.991 7.5622 11.0361 7.73021 11.0362 7.90125V9.32812C11.0363 9.3707 11.0475 9.41253 11.0687 9.44943C11.09 9.48633 11.1205 9.51703 11.1573 9.53846C11.1941 9.55989 11.2359 9.57131 11.2785 9.57158C11.321 9.57185 11.3629 9.56096 11.4 9.54L12.7406 8.76562C12.8145 8.72277 12.8757 8.66121 12.9182 8.58714C12.9606 8.51308 12.9828 8.42913 12.9825 8.34375V6.77625C12.9824 6.60543 12.9375 6.43762 12.8523 6.28957C12.7671 6.14152 12.6445 6.0184 12.4969 5.9325L7.965 3.3225C7.81684 3.23674 7.64869 3.19158 7.4775 3.19158C7.30631 3.19158 7.13816 3.23674 6.99 3.3225L2.4675 5.9325C2.31937 6.01802 2.19635 6.141 2.11078 6.2891C2.02521 6.4372 1.98011 6.60521 1.98 6.77625V12C1.98011 12.171 2.02521 12.339 2.11078 12.4871C2.19635 12.6352 2.31937 12.7582 2.4675 12.8437L6.99 15.4537C7.13816 15.5395 7.30631 15.5847 7.4775 15.5847C7.64869 15.5847 7.81684 15.5395 7.965 15.4537L16.0275 10.7944C16.176 10.7095 16.344 10.6649 16.515 10.6649C16.686 10.6649 16.854 10.7095 17.0025 10.7944L19.5769 12.2812C19.725 12.3668 19.848 12.4898 19.9336 12.6379C20.0192 12.786 20.0643 12.954 20.0644 13.125V16.0987C20.0643 16.2698 20.0192 16.4378 19.9336 16.5859C19.848 16.734 19.725 16.857 19.5769 16.9425L17.01 18.4294C16.8615 18.5142 16.6935 18.5588 16.5225 18.5588C16.3515 18.5588 16.1835 18.5142 16.035 18.4294L13.4606 16.9425C13.3125 16.857 13.1895 16.734 13.1039 16.5859C13.0183 16.4378 12.9732 16.2698 12.9731 16.0987V14.67C12.9733 14.6274 12.9622 14.5854 12.941 14.5484C12.9197 14.5115 12.8891 14.4808 12.8522 14.4595C12.8153 14.4381 12.7733 14.427 12.7307 14.427C12.6881 14.4271 12.6462 14.4385 12.6094 14.46L11.2687 15.2325C11.195 15.2755 11.1339 15.3371 11.0915 15.4111C11.049 15.4852 11.0267 15.569 11.0269 15.6544V17.2237C11.027 17.3946 11.0719 17.5624 11.1571 17.7104C11.2423 17.8585 11.3648 17.9816 11.5125 18.0675L16.035 20.6775C16.1832 20.7633 16.3513 20.8084 16.5225 20.8084C16.6937 20.8084 16.8618 20.7633 17.01 20.6775L21.5325 18.0675C21.6806 17.982 21.8037 17.859 21.8892 17.7109C21.9748 17.5628 22.0199 17.3948 22.02 17.2237V12C22.0199 11.829 21.9748 11.661 21.8892 11.5129C21.8037 11.3648 21.6806 11.2418 21.5325 11.1562L17.01 8.54625C16.8618 8.46049 16.6937 8.41533 16.5225 8.41533C16.3513 8.41533 16.1832 8.46049 16.035 8.54625V8.54625Z" fill="white"/>
</svg>
