<svg width="30" height="30" viewBox="0 0 30 30" fill="none" xmlns="http://www.w3.org/2000/svg">
<path d="M20.0438 10.6826L9.96572 16.5068C9.78014 16.6129 9.57009 16.6687 9.35635 16.6687C9.1426 16.6687 8.93255 16.6129 8.74697 16.5068L5.51963 14.6482C5.33665 14.5398 5.18521 14.3855 5.08037 14.2004C4.97552 14.0154 4.92091 13.8062 4.92197 13.5935V9.87634C4.92211 9.66254 4.97849 9.45253 5.08545 9.26741C5.19241 9.08228 5.34619 8.92855 5.53135 8.82165L8.74932 6.96306C8.9349 6.857 9.14494 6.80121 9.35869 6.80121C9.57244 6.80121 9.78249 6.857 9.96807 6.96306L13.186 8.82165C13.3712 8.92855 13.525 9.08228 13.6319 9.26741C13.7389 9.45253 13.7953 9.66254 13.7954 9.87634V11.6599C13.7955 11.7132 13.8095 11.7654 13.836 11.8116C13.8626 11.8577 13.9008 11.8961 13.9467 11.9229C13.9927 11.9496 14.0449 11.9639 14.0982 11.9643C14.1514 11.9646 14.2038 11.951 14.2501 11.9248L15.9259 10.9568C16.0182 10.9032 16.0947 10.8263 16.1478 10.7337C16.2009 10.6411 16.2286 10.5362 16.2282 10.4295V8.47009C16.2281 8.25656 16.172 8.0468 16.0654 7.86174C15.9589 7.67668 15.8058 7.52278 15.6212 7.4154L9.95635 4.1529C9.77115 4.0457 9.56096 3.98926 9.34697 3.98926C9.13299 3.98926 8.92279 4.0457 8.7376 4.1529L3.08447 7.4154C2.89931 7.5223 2.74554 7.67603 2.63857 7.86116C2.53161 8.04628 2.47523 8.25629 2.4751 8.47009V14.9998C2.47523 15.2136 2.53161 15.4236 2.63857 15.6087C2.74554 15.7938 2.89931 15.9476 3.08447 16.0545L8.7376 19.317C8.92279 19.4242 9.13299 19.4806 9.34697 19.4806C9.56096 19.4806 9.77115 19.4242 9.95635 19.317L20.0345 13.4927C20.2201 13.3867 20.4301 13.3309 20.6438 13.3309C20.8576 13.3309 21.0676 13.3867 21.2532 13.4927L24.4712 15.3513C24.6564 15.4582 24.8101 15.612 24.9171 15.7971C25.0241 15.9822 25.0804 16.1922 25.0806 16.406V20.1232C25.0804 20.337 25.0241 20.547 24.9171 20.7321C24.8101 20.9173 24.6564 21.071 24.4712 21.1779L21.2626 23.0365C21.077 23.1426 20.867 23.1983 20.6532 23.1983C20.4395 23.1983 20.2294 23.1426 20.0438 23.0365L16.8259 21.1779C16.6407 21.071 16.4869 20.9173 16.38 20.7321C16.273 20.547 16.2166 20.337 16.2165 20.1232V18.3373C16.2167 18.284 16.2029 18.2316 16.1763 18.1853C16.1498 18.1391 16.1115 18.1007 16.0653 18.0741C16.0192 18.0474 15.9668 18.0335 15.9135 18.0336C15.8602 18.0337 15.8079 18.0479 15.7618 18.0748L14.086 19.0404C13.9939 19.0941 13.9175 19.1711 13.8644 19.2637C13.8114 19.3562 13.7835 19.4611 13.7837 19.5677V21.5295C13.7838 21.743 13.84 21.9527 13.9465 22.1378C14.053 22.3229 14.2062 22.4768 14.3907 22.5842L20.0438 25.8467C20.229 25.9538 20.4392 26.0103 20.6532 26.0103C20.8672 26.0103 21.0774 25.9538 21.2626 25.8467L26.9157 22.5842C27.1009 22.4773 27.2547 22.3235 27.3616 22.1384C27.4686 21.9533 27.525 21.7433 27.5251 21.5295V14.9998C27.525 14.786 27.4686 14.576 27.3616 14.3908C27.2547 14.2057 27.1009 14.052 26.9157 13.9451L21.2626 10.6826C21.0774 10.5754 20.8672 10.5189 20.6532 10.5189C20.4392 10.5189 20.229 10.5754 20.0438 10.6826V10.6826Z" fill="white"/>
</svg>
