<svg width="71" height="71" viewBox="0 0 71 71" fill="none" xmlns="http://www.w3.org/2000/svg">
<path d="M30.3445 54.3685C29.9563 54.3685 29.5625 54.3685 29.1578 54.3193C29.0128 54.3063 28.8789 54.2361 28.7855 54.1243C28.6922 54.0126 28.6471 53.8683 28.6602 53.7232C28.6732 53.5782 28.7433 53.4443 28.8551 53.3509C28.9669 53.2576 29.1112 53.2125 29.2562 53.2256C31.2104 53.3604 33.1724 53.121 35.0367 52.5201C35.1719 52.4755 35.3192 52.4853 35.4472 52.5476C35.5752 52.6098 35.674 52.7195 35.7224 52.8534C35.7708 52.9873 35.7651 53.1348 35.7065 53.2645C35.6479 53.3943 35.541 53.496 35.4086 53.5482C33.7731 54.0819 32.0648 54.3586 30.3445 54.3685V54.3685Z" fill="white"/>
<path d="M35.2227 57.7373C34.6282 57.7522 34.0339 57.7008 33.4508 57.5842C33.3787 57.5693 33.3104 57.54 33.2499 57.4981C33.1894 57.4561 33.138 57.4024 33.0988 57.3402C33.0595 57.2779 33.0333 57.2083 33.0216 57.1357C33.0099 57.063 33.0129 56.9887 33.0306 56.9173C33.0483 56.8459 33.0802 56.7787 33.1244 56.7199C33.1687 56.6611 33.2243 56.6118 33.2881 56.575C33.3518 56.5382 33.4224 56.5147 33.4954 56.5058C33.5685 56.4969 33.6426 56.5028 33.7133 56.5233C34.2108 56.6164 34.7167 56.6567 35.2227 56.6436C35.7286 56.655 36.2343 56.6147 36.732 56.5233C36.8027 56.5028 36.8768 56.4969 36.9499 56.5058C37.023 56.5147 37.0935 56.5382 37.1572 56.575C37.221 56.6118 37.2766 56.6611 37.3209 56.7199C37.3651 56.7787 37.397 56.8459 37.4147 56.9173C37.4324 56.9887 37.4355 57.063 37.4237 57.1357C37.412 57.2083 37.3858 57.2779 37.3465 57.3402C37.3073 57.4024 37.2559 57.4561 37.1954 57.4981C37.1349 57.54 37.0666 57.5693 36.9945 57.5842C36.4114 57.7008 35.8171 57.7522 35.2227 57.7373V57.7373Z" fill="white"/>
<path d="M35.2227 53.5811C35.0776 53.5811 34.9385 53.5234 34.836 53.4209C34.7334 53.3183 34.6758 53.1792 34.6758 53.0342V49.9443C34.6758 49.7993 34.7334 49.6602 34.836 49.5576C34.9385 49.4551 35.0776 49.3975 35.2227 49.3975C35.3677 49.3975 35.5068 49.4551 35.6094 49.5576C35.7119 49.6602 35.7695 49.7993 35.7695 49.9443V53.0342C35.7695 53.1792 35.7119 53.3183 35.6094 53.4209C35.5068 53.5234 35.3677 53.5811 35.2227 53.5811Z" fill="white"/>
<path d="M35.1789 45.0881C33.675 45.0881 32.1328 45.5639 32.0945 46.6959C32.0234 48.7193 33.8336 50.7646 35.1789 50.7154C36.5625 50.7646 38.4219 48.7193 38.3508 46.6959C38.307 45.5693 36.7266 45.0881 35.1789 45.0881Z" fill="white"/>
<path d="M40.1008 54.3686C38.3805 54.3586 36.6722 54.0819 35.0367 53.5483C34.9673 53.5253 34.9031 53.4887 34.8481 53.4406C34.7931 53.3925 34.7482 53.3338 34.7163 53.268C34.6843 53.2023 34.6658 53.1308 34.662 53.0577C34.6581 52.9847 34.669 52.9117 34.6938 52.8429C34.7187 52.7742 34.7571 52.7111 34.8068 52.6574C34.8565 52.6038 34.9164 52.5606 34.983 52.5305C35.0497 52.5004 35.1217 52.484 35.1948 52.4822C35.2679 52.4804 35.3406 52.4933 35.4086 52.5201C37.274 53.1162 39.235 53.3556 41.1891 53.2256C41.3341 53.2125 41.4784 53.2576 41.5902 53.351C41.702 53.4443 41.7721 53.5782 41.7852 53.7233C41.7982 53.8683 41.7531 54.0126 41.6598 54.1244C41.5665 54.2362 41.4325 54.3063 41.2875 54.3193C40.8828 54.3522 40.4891 54.3686 40.1008 54.3686Z" fill="white"/>
<path d="M40.8883 53.778L38.8156 53.8108L38.6789 57.9123L40.8883 53.778Z" fill="white"/>
<path d="M29.557 53.778L31.7664 57.9123L31.6297 53.8108L29.557 53.778Z" fill="white"/>
<path d="M54.6969 32.0889C54.6969 32.0889 58.7328 19.7678 57.8195 15.3326C57.3219 12.9264 56.0531 11.9092 53.3297 12.9647C48.8453 14.7037 44.6617 21.2826 44.6617 21.2826C41.5687 20.5353 38.404 20.1245 35.2227 20.0576V20.0576C32.0413 20.1245 28.8766 20.5353 25.7836 21.2826C25.7836 21.2826 21.6 14.7201 17.1156 12.9647C14.3812 11.9092 13.1234 12.9264 12.6258 15.3326C11.707 19.7678 15.7484 32.0889 15.7484 32.0889C14.7204 34.4938 13.824 36.9529 13.0633 39.4553C12.4836 41.6428 12.5766 45.2959 12.5766 45.2959V45.7006C12.5415 48.3833 13.4275 50.997 15.0867 53.1053C19.3141 58.6944 29.382 63.0694 35.2227 63.0694C41.0633 63.0694 51.1312 58.6944 55.3531 53.1053C57.012 50.9967 57.8979 48.3833 57.8633 45.7006V45.2959C57.8633 45.2959 57.9562 41.6264 57.3766 39.4553C56.6176 36.953 55.7231 34.4939 54.6969 32.0889V32.0889ZM43.4258 32.9475C43.5953 31.9905 44.4375 30.6944 45.6789 30.6944C46.7727 30.6944 48.118 32.0998 48.1453 33.035C48.1727 33.9701 47.0516 34.4186 45.7445 34.3639C44.4375 34.3092 43.2672 33.91 43.4258 32.9475ZM44.0383 37.8147C46.1 36.617 48.6375 35.6545 49.3102 36.267C49.9828 36.8795 49.95 39.5483 46.4062 40.9537C43.2781 42.1842 40.8062 41.6975 40.5164 41.1233C40.0297 40.1334 42.8789 38.5037 44.0492 37.8147H44.0383ZM24.7445 30.7053C25.9859 30.7053 26.8281 32.0014 26.9977 32.9584C27.1672 33.9155 25.9805 34.3147 24.6789 34.3748C23.3773 34.435 22.2508 33.9756 22.2781 33.0459C22.3055 32.1162 23.6398 30.6944 24.7555 30.6944L24.7445 30.7053ZM21.1242 36.2725C21.7969 35.66 24.3344 36.6225 26.3961 37.8201C27.5773 38.5092 30.4156 40.1389 29.918 41.1287C29.6281 41.6756 27.1836 42.1897 24.0281 40.9592C20.4844 39.5537 20.457 36.874 21.1242 36.2725ZM54.4836 52.4545C50.5352 57.7209 40.6914 61.9756 35.2227 61.9756C29.7539 61.9756 19.9375 57.7264 15.9672 52.4545C14.5046 50.622 13.6996 48.3514 13.6812 46.0069C15.8312 45.9146 17.9838 46.1151 20.0797 46.603C22.1633 47.1826 25.0672 50.01 25.1 50.0373L25.7508 50.6772L26.0078 49.8022C26.0078 49.7639 27.1344 45.974 29.0977 44.3334C30.7 42.9826 32.5922 42.3756 35.2227 42.3756C37.8531 42.3756 39.7453 42.9826 41.3477 44.3334C43.3109 45.974 44.4266 49.7639 44.4375 49.8022L44.6945 50.6772L45.3453 50.0373C45.3781 50.0373 48.282 47.1826 50.3656 46.603C52.462 46.1179 54.6142 45.9174 56.7641 46.0069C56.7445 48.3496 55.9396 50.618 54.4781 52.449L54.4836 52.4545Z" fill="white"/>
</svg>
