<svg width="70" height="70" viewBox="0 0 70 70" fill="none" xmlns="http://www.w3.org/2000/svg">
<path d="M30.1219 53.643C29.7336 53.643 29.3398 53.643 28.9352 53.5938C28.7901 53.5807 28.6562 53.5106 28.5629 53.3988C28.4695 53.287 28.4244 53.1427 28.4375 52.9977C28.4506 52.8526 28.5207 52.7187 28.6325 52.6254C28.7443 52.532 28.8886 52.4869 29.0336 52.5C30.9878 52.6349 32.9497 52.3954 34.8141 51.7945C34.9493 51.7499 35.0965 51.7598 35.2245 51.822C35.3526 51.8843 35.4513 51.994 35.4997 52.1278C35.5481 52.2617 35.5425 52.4092 35.4839 52.5389C35.4253 52.6687 35.3184 52.7705 35.1859 52.8227C33.5505 53.3563 31.8422 53.633 30.1219 53.643V53.643Z" fill="white"/>
<path d="M35 57.0117C34.4055 57.0265 33.8112 56.9752 33.2281 56.8586C33.1561 56.8437 33.0877 56.8144 33.0272 56.7725C32.9668 56.7305 32.9154 56.6768 32.8761 56.6146C32.8369 56.5523 32.8106 56.4827 32.7989 56.4101C32.7872 56.3374 32.7903 56.2631 32.808 56.1917C32.8256 56.1202 32.8575 56.0531 32.9018 55.9943C32.946 55.9355 33.0017 55.8862 33.0654 55.8494C33.1292 55.8126 33.1997 55.7891 33.2728 55.7802C33.3458 55.7713 33.4199 55.7772 33.4906 55.7977C33.9881 55.8908 34.494 55.9311 35 55.918C35.5059 55.9294 36.0117 55.8891 36.5094 55.7977C36.5801 55.7772 36.6542 55.7713 36.7272 55.7802C36.8003 55.7891 36.8708 55.8126 36.9346 55.8494C36.9983 55.8862 37.054 55.9355 37.0982 55.9943C37.1425 56.0531 37.1744 56.1202 37.1921 56.1917C37.2097 56.2631 37.2128 56.3374 37.2011 56.4101C37.1894 56.4827 37.1631 56.5523 37.1239 56.6146C37.0847 56.6768 37.0333 56.7305 36.9728 56.7725C36.9123 56.8144 36.844 56.8437 36.7719 56.8586C36.1888 56.9752 35.5945 57.0265 35 57.0117V57.0117Z" fill="white"/>
<path d="M35 52.8555C34.855 52.8555 34.7159 52.7979 34.6133 52.6953C34.5107 52.5927 34.4531 52.4536 34.4531 52.3086V49.2188C34.4531 49.0737 34.5107 48.9346 34.6133 48.8321C34.7159 48.7295 34.855 48.6719 35 48.6719C35.145 48.6719 35.2841 48.7295 35.3867 48.8321C35.4893 48.9346 35.5469 49.0737 35.5469 49.2188V52.3086C35.5469 52.4536 35.4893 52.5927 35.3867 52.6953C35.2841 52.7979 35.145 52.8555 35 52.8555Z" fill="white"/>
<path d="M34.9562 44.3625C33.4523 44.3625 31.9102 44.8383 31.8719 45.9703C31.8008 47.9938 33.6109 50.0391 34.9562 49.9898C36.3398 50.0391 38.1992 47.9938 38.1281 45.9703C38.0844 44.8438 36.5039 44.3625 34.9562 44.3625Z" fill="white"/>
<path d="M39.8781 53.643C38.1578 53.633 36.4495 53.3563 34.8141 52.8227C34.7446 52.7997 34.6805 52.7631 34.6255 52.715C34.5704 52.6669 34.5256 52.6082 34.4936 52.5424C34.4616 52.4767 34.4432 52.4052 34.4393 52.3321C34.4355 52.2591 34.4463 52.1861 34.4712 52.1173C34.4961 52.0486 34.5345 51.9855 34.5841 51.9318C34.6338 51.8782 34.6937 51.835 34.7604 51.8049C34.827 51.7748 34.899 51.7584 34.9721 51.7566C35.0452 51.7548 35.1179 51.7677 35.1859 51.7945C37.0514 52.3906 39.0124 52.63 40.9664 52.5C41.1114 52.4869 41.2557 52.532 41.3675 52.6254C41.4793 52.7187 41.5494 52.8526 41.5625 52.9977C41.5756 53.1427 41.5305 53.287 41.4371 53.3988C41.3438 53.5106 41.2099 53.5807 41.0648 53.5938C40.6602 53.6266 40.2664 53.643 39.8781 53.643Z" fill="white"/>
<path d="M40.6656 53.0523L38.593 53.0852L38.4562 57.1867L40.6656 53.0523Z" fill="white"/>
<path d="M29.3344 53.0523L31.5438 57.1867L31.407 53.0852L29.3344 53.0523Z" fill="white"/>
<path d="M54.4742 31.3633C54.4742 31.3633 58.5102 19.0422 57.5969 14.607C57.0992 12.2008 55.8305 11.1836 53.107 12.2391C48.6227 13.9781 44.4391 20.557 44.4391 20.557C41.3461 19.8097 38.1813 19.3989 35 19.332V19.332C31.8187 19.3989 28.6539 19.8097 25.5609 20.557C25.5609 20.557 21.3773 13.9945 16.893 12.2391C14.1586 11.1836 12.9008 12.2008 12.4031 14.607C11.4844 19.0422 15.5258 31.3633 15.5258 31.3633C14.4977 33.7682 13.6014 36.2273 12.8406 38.7297C12.2609 40.9172 12.3539 44.5703 12.3539 44.5703V44.975C12.3188 47.6577 13.2048 50.2713 14.8641 52.3797C19.0914 57.9687 29.1594 62.3438 35 62.3438C40.8406 62.3438 50.9086 57.9687 55.1305 52.3797C56.7893 50.2711 57.6753 47.6577 57.6406 44.975V44.5703C57.6406 44.5703 57.7336 40.9008 57.1539 38.7297C56.395 36.2274 55.5004 33.7683 54.4742 31.3633V31.3633ZM43.2031 32.2219C43.3727 31.2648 44.2148 29.9687 45.4563 29.9687C46.55 29.9687 47.8953 31.3742 47.9227 32.3094C47.95 33.2445 46.8289 33.693 45.5219 33.6383C44.2148 33.5836 43.0445 33.1844 43.2031 32.2219ZM43.8156 37.0891C45.8773 35.8914 48.4148 34.9289 49.0875 35.5414C49.7602 36.1539 49.7273 38.8227 46.1836 40.2281C43.0555 41.4586 40.5836 40.9719 40.2937 40.3977C39.807 39.4078 42.6562 37.7781 43.8266 37.0891H43.8156ZM24.5219 29.9797C25.7633 29.9797 26.6055 31.2758 26.775 32.2328C26.9445 33.1898 25.7578 33.5891 24.4563 33.6492C23.1547 33.7094 22.0281 33.25 22.0555 32.3203C22.0828 31.3906 23.4172 29.9687 24.5328 29.9687L24.5219 29.9797ZM20.9016 35.5469C21.5742 34.9344 24.1117 35.8969 26.1734 37.0945C27.3547 37.7836 30.193 39.4133 29.6953 40.4031C29.4055 40.95 26.9609 41.4641 23.8055 40.2336C20.2617 38.8281 20.2344 36.1484 20.9016 35.5469ZM54.2609 51.7289C50.3125 56.9953 40.4687 61.25 35 61.25C29.5312 61.25 19.7148 57.0008 15.7445 51.7289C14.2819 49.8964 13.4769 47.6258 13.4586 45.2813C15.6086 45.189 17.7611 45.3895 19.857 45.8773C21.9406 46.457 24.8445 49.2844 24.8773 49.3117L25.5281 49.9516L25.7852 49.0766C25.7852 49.0383 26.9117 45.2484 28.875 43.6078C30.4773 42.257 32.3695 41.65 35 41.65C37.6305 41.65 39.5227 42.257 41.125 43.6078C43.0883 45.2484 44.2039 49.0383 44.2148 49.0766L44.4719 49.9516L45.1227 49.3117C45.1555 49.3117 48.0594 46.457 50.143 45.8773C52.2393 45.3923 54.3915 45.1918 56.5414 45.2813C56.5218 47.624 55.7169 49.8924 54.2555 51.7234L54.2609 51.7289Z" fill="white"/>
</svg>
