<svg width="71" height="71" viewBox="0 0 71 71" fill="none" xmlns="http://www.w3.org/2000/svg">
<path d="M54.5272 61.5271C55.6477 61.0455 56.6604 60.3445 57.5057 59.4654C58.351 58.5863 59.0118 57.5469 59.4491 56.4084C60.8108 52.624 60.2475 48.4076 57.7756 46.2748C55.3038 44.142 49.392 41.0029 49.392 41.0029C49.392 41.0029 47.91 43.8412 50.4858 47.817C52.9467 51.6451 54.2811 53.6303 55.1069 55.774C56.1678 58.5303 54.5272 61.5271 54.5272 61.5271Z" fill="white"/>
<path d="M60.8709 48.4021C60.8709 48.4021 61.456 44.3389 55.0576 41.8396C50.2068 39.9365 46.1599 38.3178 44.1912 35.9334C43.5713 35.2029 43.1189 34.3456 42.8657 33.4216C42.6125 32.4976 42.5646 31.5294 42.7256 30.585C42.7256 30.585 44.2896 32.4717 50.4967 33.1225C56.206 33.724 59.7935 35.7639 61.292 39.0451C62.0045 40.517 62.3392 42.1433 62.2656 43.7769C62.1921 45.4106 61.7128 47.0002 60.8709 48.4021Z" fill="white"/>
<path d="M46.5376 39.6576C46.5376 39.6576 47.8774 43.8029 45.4767 46.2584C43.3821 48.3967 40.2813 48.4021 37.8204 48.8779C36.1235 49.2068 34.5061 49.8605 33.0571 50.8029C35.3816 50.2007 37.7663 49.8613 40.1665 49.7912C43.5243 49.7912 46.3735 48.4185 47.4181 46.0506C49.1845 42.0857 46.5376 39.6576 46.5376 39.6576Z" fill="white"/>
<path d="M34.6211 56.731C36.5734 55.8943 38.6078 56.8459 39.893 58.5685C41.1781 60.2912 41.7086 63.917 44.4867 65.5521C47.2648 67.1873 50.2344 64.5842 50.2344 64.5842C50.2344 64.5842 47.4562 65.7599 45.7828 64.9451C43.9836 64.0701 43.7102 62.5388 43.393 59.9029C42.8461 55.599 40.5875 53.8873 38.6023 53.1654C35.7948 52.2538 32.7427 52.4716 30.093 53.7724C28.2064 54.7193 26.4402 55.8888 24.832 57.256C24.832 57.256 28.1133 57.8029 29.4258 58.5849C30.7383 59.367 32.4117 62.0248 34.0742 62.5443C35.6 63.0256 37.1805 62.7849 38.0336 61.549C38.8867 60.3131 38.5148 58.1474 37.1258 57.6826C35.425 57.1084 34.2109 57.9177 34.282 58.9677C34.2681 59.2491 34.3633 59.5249 34.5476 59.7378C34.732 59.9507 34.9915 60.0843 35.2719 60.1107C35.2719 60.1107 34.1781 59.5638 34.6375 58.6342C35.1844 57.6115 36.4422 57.7592 37.1258 58.2404C37.9625 58.831 38.0883 60.8654 36.6609 61.4451C35.2336 62.0248 33.4289 61.0787 33.1555 59.9467C32.882 58.8146 32.9859 57.4365 34.6211 56.731Z" fill="white"/>
<path d="M30.4045 28.2717L7.17871 2.52478C7.17871 2.52478 26.9045 26.8498 27.61 27.681C28.3154 28.5123 28.7037 29.2451 28.0912 29.8084C27.5807 30.2299 26.9638 30.5024 26.3084 30.5959C25.852 30.6985 25.3754 30.664 24.9385 30.4967C24.5016 30.3293 24.1239 30.0366 23.8529 29.6552C22.8576 28.4576 15.5896 16.9568 15.5896 16.9568C15.5896 16.9568 22.0975 28.7365 22.4311 29.431C22.7646 30.1256 22.9779 30.7381 22.6498 31.1756C22.1125 31.7393 21.6577 32.3764 21.299 33.0677C20.9381 33.9537 20.6428 36.5459 20.342 37.667C19.5336 40.0729 18.2295 42.2825 16.5139 44.1529C14.9498 45.7935 13.7412 47.9263 14.217 50.9396C14.6709 53.8217 16.5248 56.1076 16.8365 56.5998C17.1563 57.0398 17.3458 57.561 17.3834 58.1037C17.3834 58.1037 22.0318 57.5568 24.6842 55.1232C27.0686 52.9357 25.7779 50.4857 25.0779 49.8677C24.5803 49.4248 21.392 47.2865 21.0748 46.1599C20.7576 45.0334 20.2436 44.2404 21.7639 41.1943C23.2842 38.1482 22.8959 37.8256 23.0982 36.7756C23.3006 35.7256 23.2568 33.5599 24.4654 33.1224C25.674 32.6849 27.1998 32.8873 28.6545 32.0287C30.7764 30.7381 30.4045 28.2717 30.4045 28.2717ZM17.2795 51.1748C17.191 51.1757 17.1032 51.1584 17.0217 51.1239C16.9401 51.0894 16.8665 51.0386 16.8055 50.9744C16.7445 50.9103 16.6973 50.8343 16.6669 50.7512C16.6364 50.6681 16.6235 50.5796 16.6287 50.4912C16.6287 50.1248 17.0115 49.8623 16.9459 49.6326C16.8803 49.4029 16.5467 49.392 16.4756 49.0857C16.4373 48.9217 16.5795 48.6099 17.1811 48.5881C17.5258 48.6078 17.8497 48.7598 18.085 49.0125C18.3204 49.2652 18.4491 49.599 18.4443 49.9443C18.4346 50.2574 18.3099 50.5559 18.094 50.7829C17.8782 51.0099 17.5862 51.1494 17.274 51.1748H17.2795Z" fill="white"/>
<path d="M32.3459 33.1717C31.9494 33.1963 31.5624 33.3028 31.2093 33.4846C30.8561 33.6664 30.5445 33.9195 30.2942 34.2279C30.0439 34.5363 29.8603 34.8933 29.755 35.2763C29.6498 35.6593 29.6251 36.0599 29.6826 36.4529C29.8631 37.842 31.6896 37.7381 32.8217 37.3881C33.9537 37.0381 35.1623 36.8412 35.0584 35.4248C34.9545 34.0084 33.2592 33.1225 32.3459 33.1717ZM32.3842 35.4193C31.6732 35.4193 31.099 35.0256 31.099 34.5389C31.099 34.0522 31.6459 33.6584 32.3842 33.6584C33.1224 33.6584 33.6693 34.0522 33.6693 34.5389C33.6693 35.0256 33.0951 35.4193 32.3842 35.4193Z" fill="white"/>
<path d="M27.9876 18.2748C27.9876 18.2748 30.5415 18.5154 31.7775 20.4623C33.0134 22.4092 32.8712 25.0177 33.5439 26.1717C33.8726 26.803 34.2378 27.4148 34.6376 28.0037C34.829 28.2443 34.9767 28.6052 34.5173 28.6873C33.3907 28.8951 30.8532 27.867 29.4642 25.1217C27.3861 21.0365 27.9876 18.2748 27.9876 18.2748Z" fill="white"/>
<path d="M54.0132 17.7936C54.0132 17.7936 53.2913 19.2701 53.8437 21.8678C54.0027 22.5891 54.3855 23.2418 54.9374 23.7326C55.9856 24.764 56.9682 25.8599 57.8796 27.0139L55.3093 24.9303C54.7624 24.4928 54.4343 24.5092 54.4015 24.974C54.3687 25.4389 54.1718 27.4678 54.1007 27.9108C53.9356 28.4858 53.7215 29.0457 53.4608 29.5842C53.4608 29.5842 53.7288 28.3209 53.7562 27.9764C53.8163 27.1342 53.8054 24.5639 53.1655 23.749C52.0718 22.36 48.7905 21.1131 48.7905 21.1131C50.0664 21.3017 51.3092 21.67 52.4819 22.2069C52.9741 22.4365 53.0835 22.267 53.0835 21.9225C53.12 21.0059 53.215 20.0926 53.3679 19.1881C53.4696 18.6787 53.6907 18.2008 54.0132 17.7936V17.7936Z" fill="white"/>
<path d="M55.2764 27.1889C54.8498 29.6061 54.024 30.4701 53.7561 30.6779C53.5847 30.8308 53.3654 30.9193 53.136 30.9282C52.9065 30.9372 52.6811 30.8661 52.4982 30.7271C52.3298 30.5742 52.2186 30.3684 52.1828 30.1437C52.147 29.9191 52.1888 29.6889 52.3014 29.4912C52.537 29.0626 52.7032 28.5993 52.7936 28.1186C52.8636 27.0189 52.7826 25.9149 52.5529 24.8373C51.6481 24.2234 50.68 23.7083 49.6654 23.3006C43.535 20.7959 38.799 22.36 38.799 22.36C38.799 22.36 36.267 19.3084 33.7842 17.985C32.0374 17.1256 30.0929 16.748 28.1514 16.8912C28.1514 16.8912 31.6514 17.4381 33.6201 19.024C37.1529 21.9061 40.8115 27.9107 43.3928 29.3107C48.6811 32.1818 53.3021 30.4701 56.1404 31.892C58.2842 32.9857 58.8748 34.3037 58.8748 34.3037C58.3363 31.6519 57.0932 29.1942 55.2764 27.1889V27.1889Z" fill="white"/>
</svg>
