<svg width="24" height="24" viewBox="0 0 24 24" fill="none" xmlns="http://www.w3.org/2000/svg">
<path d="M14.0625 9.33375V6.98813H19.3988V3.28688H4.58625V6.98813H9.9375V9.33375C5.45438 9.54938 2.08875 10.4494 2.08875 11.5275C2.08875 12.6056 5.45063 13.5 9.9375 13.7213V21.4631H14.0625V13.7213C18.5456 13.5075 21.9113 12.6075 21.9113 11.5275C21.9113 10.4475 18.5494 9.54938 14.0625 9.33375ZM12 13.02C7.14563 13.02 3.21 12.27 3.21 11.3662C3.21 10.5881 6.07688 9.93563 9.93375 9.76125V12.4106C10.5975 12.4406 11.2875 12.4575 11.9963 12.4575C12.705 12.4575 13.3988 12.4406 14.0588 12.4106V9.76125C17.9156 9.93563 20.7825 10.5881 20.7825 11.3662C20.79 12.2794 16.8544 13.02 12 13.02Z" fill="white"/>
</svg>
