<svg width="70" height="70" viewBox="0 0 70 70" fill="none" xmlns="http://www.w3.org/2000/svg">
<path d="M54.3047 60.8016C55.4251 60.32 56.4379 59.6189 57.2832 58.7398C58.1285 57.8607 58.7892 56.8213 59.2266 55.6828C60.5883 51.8984 60.025 47.682 57.5531 45.5492C55.0813 43.4164 49.1695 40.2773 49.1695 40.2773C49.1695 40.2773 47.6875 43.1156 50.2633 47.0914C52.7242 50.9195 54.0586 52.9047 54.8844 55.0484C55.9453 57.8047 54.3047 60.8016 54.3047 60.8016Z" fill="white"/>
<path d="M60.6484 47.6766C60.6484 47.6766 61.2336 43.6133 54.8352 41.1141C49.9844 39.2109 45.9375 37.5922 43.9687 35.2078C43.3489 34.4773 42.8964 33.62 42.6432 32.696C42.39 31.772 42.3422 30.8038 42.5031 29.8594C42.5031 29.8594 44.0672 31.7461 50.2742 32.3969C55.9836 32.9984 59.5711 35.0383 61.0695 38.3195C61.7821 39.7914 62.1167 41.4177 62.0432 43.0513C61.9697 44.685 61.4903 46.2746 60.6484 47.6766Z" fill="white"/>
<path d="M46.3148 38.932C46.3148 38.932 47.6547 43.0773 45.2539 45.5328C43.1594 47.6711 40.0586 47.6766 37.5977 48.1523C35.9007 48.4813 34.2834 49.1349 32.8344 50.0773C35.1588 49.4751 37.5436 49.1357 39.9438 49.0656C43.3016 49.0656 46.1508 47.693 47.1953 45.325C48.9617 41.3602 46.3148 38.932 46.3148 38.932Z" fill="white"/>
<path d="M34.3984 56.0055C36.3508 55.1687 38.3852 56.1203 39.6703 57.843C40.9555 59.5656 41.4859 63.1914 44.2641 64.8266C47.0422 66.4617 50.0117 63.8586 50.0117 63.8586C50.0117 63.8586 47.2336 65.0344 45.5602 64.2195C43.7609 63.3445 43.4875 61.8133 43.1703 59.1773C42.6234 54.8734 40.3648 53.1617 38.3797 52.4398C35.5722 51.5283 32.52 51.746 29.8703 53.0469C27.9838 53.9937 26.2175 55.1632 24.6094 56.5305C24.6094 56.5305 27.8906 57.0773 29.2031 57.8594C30.5156 58.6414 32.1891 61.2992 33.8516 61.8187C35.3773 62.3 36.9578 62.0594 37.8109 60.8234C38.6641 59.5875 38.2922 57.4219 36.9031 56.957C35.2023 56.3828 33.9883 57.1922 34.0594 58.2422C34.0455 58.5235 34.1406 58.7993 34.325 59.0123C34.5094 59.2252 34.7688 59.3587 35.0492 59.3852C35.0492 59.3852 33.9555 58.8383 34.4148 57.9086C34.9617 56.8859 36.2195 57.0336 36.9031 57.5148C37.7398 58.1055 37.8656 60.1398 36.4383 60.7195C35.0109 61.2992 33.2063 60.3531 32.9328 59.2211C32.6594 58.0891 32.7633 56.7109 34.3984 56.0055Z" fill="white"/>
<path d="M30.182 27.5461L6.95625 1.79922C6.95625 1.79922 26.682 26.1242 27.3875 26.9555C28.093 27.7867 28.4812 28.5195 27.8687 29.0828C27.3582 29.5043 26.7413 29.7768 26.0859 29.8703C25.6295 29.973 25.1529 29.9385 24.716 29.7711C24.2792 29.6038 23.9015 29.311 23.6305 28.9297C22.6352 27.732 15.3672 16.2312 15.3672 16.2312C15.3672 16.2312 21.875 28.0109 22.2086 28.7055C22.5422 29.4 22.7555 30.0125 22.4273 30.45C21.89 31.0138 21.4352 31.6508 21.0766 32.3422C20.7156 33.2281 20.4203 35.8203 20.1195 36.9414C19.3111 39.3473 18.007 41.5569 16.2914 43.4273C14.7273 45.068 13.5188 47.2008 13.9945 50.2141C14.4484 53.0961 16.3023 55.382 16.6141 55.8742C16.9339 56.3143 17.1234 56.8354 17.1609 57.3781C17.1609 57.3781 21.8094 56.8313 24.4617 54.3977C26.8461 52.2102 25.5555 49.7602 24.8555 49.1422C24.3578 48.6992 21.1695 46.5609 20.8523 45.4344C20.5352 44.3078 20.0211 43.5148 21.5414 40.4687C23.0617 37.4227 22.6734 37.1 22.8758 36.05C23.0781 35 23.0344 32.8344 24.243 32.3969C25.4516 31.9594 26.9773 32.1617 28.432 31.3031C30.5539 30.0125 30.182 27.5461 30.182 27.5461ZM17.057 50.4492C16.9685 50.4501 16.8807 50.4328 16.7992 50.3983C16.7177 50.3639 16.6441 50.313 16.583 50.2489C16.522 50.1848 16.4748 50.1088 16.4444 50.0256C16.414 49.9425 16.401 49.854 16.4062 49.7656C16.4062 49.3992 16.7891 49.1367 16.7234 48.907C16.6578 48.6773 16.3242 48.6664 16.2531 48.3602C16.2148 48.1961 16.357 47.8844 16.9586 47.8625C17.3034 47.8822 17.6272 48.0343 17.8626 48.2869C18.0979 48.5396 18.2267 48.8735 18.2219 49.2187C18.2122 49.5318 18.0874 49.8304 17.8716 50.0573C17.6557 50.2843 17.3638 50.4238 17.0516 50.4492H17.057Z" fill="white"/>
<path d="M32.1234 32.4461C31.727 32.4707 31.34 32.5772 30.9868 32.759C30.6337 32.9408 30.3221 33.1939 30.0718 33.5023C29.8215 33.8107 29.6379 34.1677 29.5326 34.5507C29.4273 34.9337 29.4027 35.3343 29.4602 35.7273C29.6406 37.1164 31.4672 37.0125 32.5992 36.6625C33.7312 36.3125 34.9398 36.1156 34.8359 34.6992C34.732 33.2828 33.0367 32.3969 32.1234 32.4461ZM32.1617 34.6937C31.4508 34.6937 30.8766 34.3 30.8766 33.8133C30.8766 33.3266 31.4234 32.9328 32.1617 32.9328C32.9 32.9328 33.4469 33.3266 33.4469 33.8133C33.4469 34.3 32.8727 34.6937 32.1617 34.6937Z" fill="white"/>
<path d="M27.7648 17.5492C27.7648 17.5492 30.3188 17.7898 31.5547 19.7367C32.7906 21.6836 32.6484 24.2922 33.3211 25.4461C33.6498 26.0775 34.015 26.6892 34.4148 27.2781C34.6063 27.5188 34.7539 27.8797 34.2945 27.9617C33.168 28.1695 30.6305 27.1414 29.2414 24.3961C27.1633 20.3109 27.7648 17.5492 27.7648 17.5492Z" fill="white"/>
<path d="M53.7906 17.068C53.7906 17.068 53.0688 18.5445 53.6211 21.1422C53.7801 21.8635 54.1629 22.5162 54.7148 23.007C55.763 24.0384 56.7457 25.1343 57.657 26.2883L55.0867 24.2047C54.5398 23.7672 54.2117 23.7836 54.1789 24.2484C54.1461 24.7133 53.9492 26.7422 53.8781 27.1852C53.713 27.7602 53.499 28.3201 53.2383 28.8586C53.2383 28.8586 53.5062 27.5953 53.5336 27.2508C53.5937 26.4086 53.5828 23.8383 52.943 23.0234C51.8492 21.6344 48.568 20.3875 48.568 20.3875C49.8439 20.5761 51.0867 20.9444 52.2594 21.4812C52.7516 21.7109 52.8609 21.5414 52.8609 21.1969C52.8974 20.2803 52.9924 19.367 53.1453 18.4625C53.247 17.9531 53.4682 17.4752 53.7906 17.068Z" fill="white"/>
<path d="M55.0539 26.4633C54.6273 28.8805 53.8016 29.7445 53.5336 29.9523C53.3622 30.1052 53.143 30.1937 52.9135 30.2026C52.684 30.2116 52.4586 30.1405 52.2758 30.0016C52.1074 29.8486 51.9961 29.6428 51.9603 29.4182C51.9245 29.1935 51.9664 28.9633 52.0789 28.7656C52.3146 28.337 52.4807 27.8737 52.5711 27.393C52.6411 26.2934 52.5601 25.1893 52.3305 24.1117C51.4256 23.4979 50.4576 22.9827 49.443 22.575C43.3125 20.0703 38.5766 21.6344 38.5766 21.6344C38.5766 21.6344 36.0445 18.5828 33.5617 17.2594C31.8149 16.4 29.8704 16.0224 27.9289 16.1656C27.9289 16.1656 31.4289 16.7125 33.3977 18.2984C36.9305 21.1805 40.5891 27.1852 43.1703 28.5852C48.4586 31.4563 53.0797 29.7445 55.918 31.1664C58.0617 32.2602 58.6523 33.5781 58.6523 33.5781C58.1138 30.9263 56.8708 28.4686 55.0539 26.4633Z" fill="white"/>
</svg>
