<svg width="30" height="30" viewBox="0 0 30 30" fill="none" xmlns="http://www.w3.org/2000/svg">
<path d="M17.578 11.667V8.73496H24.2483V4.1084H5.73271V8.73496H12.4218V11.667C6.81787 11.9365 2.61084 13.0615 2.61084 14.4092C2.61084 15.7568 6.81318 16.8748 12.4218 17.1514V26.8287H17.578V17.1514C23.1819 16.8842 27.389 15.7592 27.389 14.4092C27.389 13.0592 23.1866 11.9365 17.578 11.667ZM14.9999 16.2748C8.93193 16.2748 4.0124 15.3373 4.0124 14.2076C4.0124 13.235 7.596 12.4193 12.4171 12.2014V15.5131C13.2468 15.5506 14.1093 15.5717 14.9952 15.5717C15.8812 15.5717 16.7483 15.5506 17.5733 15.5131V12.2014C22.3944 12.4193 25.978 13.235 25.978 14.2076C25.9874 15.349 21.0679 16.2748 14.9999 16.2748Z" fill="white"/>
</svg>
