<svg width="30" height="30" viewBox="0 0 30 30" fill="none" xmlns="http://www.w3.org/2000/svg">
<path d="M26.6295 5.13525L23.0178 5.18447L17.2264 10.9759C16.6354 11.5655 15.8346 11.8967 14.9998 11.8967C14.165 11.8967 13.3642 11.5655 12.7732 10.9759L6.98184 5.18447L3.37012 5.13525L10.5467 12.3118C11.7283 13.4917 13.3299 14.1544 14.9998 14.1544C16.6697 14.1544 18.2713 13.4917 19.4529 12.3118L26.6295 5.13525Z" fill="white"/>
<path d="M3.37012 24.8649L6.98184 24.8157L12.7732 19.0243C13.3642 18.4346 14.165 18.1034 14.9998 18.1034C15.8346 18.1034 16.6354 18.4346 17.2264 19.0243L23.0178 24.8157L26.6295 24.8649L19.4529 17.6883C18.2713 16.5084 16.6697 15.8457 14.9998 15.8457C13.3299 15.8457 11.7283 16.5084 10.5467 17.6883L3.37012 24.8649Z" fill="white"/>
</svg>
