<svg width="24" height="24" viewBox="0 0 24 24" fill="none" xmlns="http://www.w3.org/2000/svg">
<path d="M21.3038 4.10812L18.4144 4.1475L13.7813 8.78063C13.3085 9.25236 12.6679 9.51728 12 9.51728C11.3321 9.51728 10.6915 9.25236 10.2188 8.78063L5.58563 4.1475L2.69625 4.10812L8.4375 9.84937C9.38282 10.7933 10.6641 11.3235 12 11.3235C13.3359 11.3235 14.6172 10.7933 15.5625 9.84937L21.3038 4.10812Z" fill="white"/>
<path d="M2.69625 19.8919L5.58563 19.8525L10.2188 15.2194C10.6915 14.7476 11.3321 14.4827 12 14.4827C12.6679 14.4827 13.3085 14.7476 13.7813 15.2194L18.4144 19.8525L21.3038 19.8919L15.5625 14.1506C14.6172 13.2067 13.3359 12.6765 12 12.6765C10.6641 12.6765 9.38282 13.2067 8.4375 14.1506L2.69625 19.8919Z" fill="white"/>
</svg>
