<svg width="24" height="24" viewBox="0 0 24 24" fill="none" xmlns="http://www.w3.org/2000/svg">
<path d="M16.7737 16.7231C17.0425 16.3994 17.3137 16.0506 17.5875 15.6769C20.5069 11.6888 20.46 6.55688 20.4562 6.33938V6.1875L20.3269 6.12375C19.2535 5.61302 18.1443 5.18125 17.0081 4.83188H16.3425C15.8306 4.82862 15.3232 4.9272 14.8498 5.12188C14.3763 5.31656 13.9463 5.60344 13.5848 5.96584C13.2233 6.32824 12.9374 6.75892 12.7439 7.23282C12.5504 7.70672 12.453 8.21438 12.4575 8.72625C12.5344 12.72 16.9781 11.4225 16.7737 16.7231Z" fill="white"/>
<path d="M15.9019 16.23C15.9019 14.085 14.4019 12.3375 12.0169 12.345C10.1887 12.345 9.44812 13.6406 6.99 13.3669C6.13814 13.2557 5.3332 12.9126 4.66313 12.375C5.09242 13.5505 5.68103 14.6615 6.4125 15.6769C9.20438 19.4887 11.7938 20.6756 11.9025 20.7244L12 20.7675L12.0975 20.7244C12.1744 20.6906 13.4981 20.0812 15.2569 18.3731C15.6792 17.7383 15.9037 16.9925 15.9019 16.23V16.23Z" fill="white"/>
<path d="M14.9644 4.3125C13.9898 4.10368 12.9967 3.99313 12 3.9825C8.0625 3.9825 3.85313 6.045 3.675 6.13125L3.54562 6.195V6.33938C3.54562 6.39375 3.66375 7.99688 3.74625 8.655C4.07812 11.2988 5.53875 12.6337 7.68375 12.6337C9.82875 12.6337 11.6625 10.9237 11.625 8.77875C11.5969 6.80625 12.6281 4.98938 14.9644 4.3125Z" fill="white"/>
</svg>
