<svg width="30" height="30" viewBox="0 0 30 30" fill="none" xmlns="http://www.w3.org/2000/svg">
<path d="M20.9673 20.9037C21.3032 20.499 21.6423 20.0631 21.9845 19.5959C25.6337 14.6107 25.5751 8.1959 25.5704 7.92402V7.73418L25.4087 7.65449C24.067 7.01608 22.6805 6.47636 21.2602 6.03965H20.4282C19.7884 6.03558 19.1541 6.15881 18.5623 6.40215C17.9705 6.6455 17.433 7.0041 16.9811 7.4571C16.5292 7.9101 16.1719 8.44845 15.93 9.04083C15.6881 9.6332 15.5664 10.2678 15.572 10.9076C15.6681 15.8998 21.2227 14.2779 20.9673 20.9037Z" fill="white"/>
<path d="M19.8775 20.2874C19.8775 17.6062 18.0025 15.4218 15.0213 15.4312C12.7361 15.4312 11.8104 17.0507 8.73769 16.7085C7.67287 16.5696 6.6667 16.1407 5.8291 15.4687C6.36571 16.938 7.10149 18.3268 8.01582 19.596C11.5057 24.3609 14.7424 25.8445 14.8783 25.9054L15.0002 25.9593L15.1221 25.9054C15.2182 25.8632 16.8729 25.1015 19.0713 22.9663C19.5992 22.1728 19.8798 21.2405 19.8775 20.2874V20.2874Z" fill="white"/>
<path d="M18.7056 5.39053C17.4873 5.1295 16.2459 4.99131 15.0001 4.97803C10.0782 4.97803 4.8165 7.55615 4.59385 7.66397L4.43213 7.74365V7.92412C4.43213 7.99209 4.57979 9.996 4.68291 10.8187C5.09775 14.1233 6.92354 15.7921 9.60479 15.7921C12.286 15.7921 14.5782 13.6546 14.5313 10.9733C14.4962 8.50771 15.7853 6.23662 18.7056 5.39053Z" fill="white"/>
</svg>
