<svg width="100" height="80" viewBox="0 0 100 80" fill="none" xmlns="http://www.w3.org/2000/svg">
<g clip-path="url(#clip0_15_24370)">
<path d="M34.2465 26.3333C33.187 29.1055 32.6035 32.1359 32.6035 35.3106C32.6035 48.5319 42.7231 59.2499 55.2063 59.2499C67.6894 59.2499 77.8091 48.5319 77.8091 35.3106C77.8091 32.1359 77.2255 29.1055 76.1662 26.3333" stroke="white" stroke-width="5" stroke-linecap="round" stroke-linejoin="round"/>
<path d="M64.6228 69.125C64.6228 69.125 62.0536 59.25 55.2049 59.25C48.3563 59.25 45.7871 69.125 45.7871 69.125" stroke="white" stroke-width="5" stroke-linecap="round" stroke-linejoin="round"/>
<path d="M79.7685 17.2143C80.8682 22.7005 75.9268 26.3333 75.9268 26.3333C75.9268 26.3333 69.8862 24.4801 68.7866 18.994C67.687 13.5079 72.6283 9.875 72.6283 9.875C72.6283 9.875 78.6689 11.7282 79.7685 17.2143Z" stroke="white" stroke-width="5" stroke-linecap="round" stroke-linejoin="round"/>
<path d="M51.4375 29.6251L55.2046 27.9792V44.4376M58.9718 44.4376H51.4375" stroke="white" stroke-width="5" stroke-linecap="round" stroke-linejoin="round"/>
<path d="M89.4655 39.9585C84.6383 44.1284 78.1023 42.4635 78.1023 42.4635C78.1023 42.4635 76.3932 36.6284 81.2204 32.4583C86.0472 28.2882 92.5836 29.9532 92.5836 29.9532C92.5836 29.9532 94.2927 35.7883 89.4655 39.9585Z" stroke="white" stroke-width="5" stroke-linecap="round" stroke-linejoin="round"/>
<path d="M78.6885 59.874C73.0378 57.9793 72.1582 52.6666 72.1582 52.6666C72.1582 52.6666 76.9293 49.2485 82.58 51.1432C88.2307 53.0379 89.1103 58.3506 89.1103 58.3506C89.1103 58.3506 84.3392 61.7687 78.6885 59.874Z" stroke="white" stroke-width="5" stroke-linecap="round" stroke-linejoin="round"/>
<path d="M31.7226 59.8738C37.3733 57.9791 38.2529 52.6663 38.2529 52.6663C38.2529 52.6663 33.4818 49.2483 27.8311 51.1429C22.1804 53.0376 21.3008 58.3504 21.3008 58.3504C21.3008 58.3504 26.0719 61.7684 31.7226 59.8738Z" stroke="white" stroke-width="5" stroke-linecap="round" stroke-linejoin="round"/>
<path d="M20.9469 39.9585C25.7739 44.1284 32.31 42.4635 32.31 42.4635C32.31 42.4635 34.019 36.6284 29.192 32.4583C24.365 28.2882 17.8289 29.9532 17.8289 29.9532C17.8289 29.9532 16.1198 35.7883 20.9469 39.9585Z" stroke="white" stroke-width="5" stroke-linecap="round" stroke-linejoin="round"/>
<path d="M30.644 17.2143C29.5444 22.7005 34.4858 26.3333 34.4858 26.3333C34.4858 26.3333 40.5266 24.4801 41.6262 18.994C42.7257 13.5079 37.7844 9.875 37.7844 9.875C37.7844 9.875 31.7435 11.7282 30.644 17.2143Z" stroke="white" stroke-width="5" stroke-linecap="round" stroke-linejoin="round"/>
</g>
<defs>
<clipPath id="clip0_15_24370">
<rect width="100" height="79.5699" fill="white"/>
</clipPath>
</defs>
</svg>
