<svg width="100" height="80" viewBox="0 0 100 80" fill="none" xmlns="http://www.w3.org/2000/svg">
<g clip-path="url(#clip0_15_24359)">
<path d="M29.2465 27.3333C28.187 30.1055 27.6035 33.1359 27.6035 36.3106C27.6035 49.5319 37.7231 60.2499 50.2063 60.2499C62.6894 60.2499 72.8091 49.5319 72.8091 36.3106C72.8091 33.1359 72.2255 30.1055 71.1662 27.3333" stroke="white" stroke-width="5" stroke-linecap="round" stroke-linejoin="round"/>
<path d="M59.6228 70.125C59.6228 70.125 57.0536 60.25 50.2049 60.25C43.3563 60.25 40.7871 70.125 40.7871 70.125" stroke="white" stroke-width="5" stroke-linecap="round" stroke-linejoin="round"/>
<path d="M74.7685 18.2143C75.8682 23.7005 70.9268 27.3333 70.9268 27.3333C70.9268 27.3333 64.8862 25.4801 63.7866 19.994C62.687 14.5079 67.6283 10.875 67.6283 10.875C67.6283 10.875 73.6689 12.7282 74.7685 18.2143Z" stroke="white" stroke-width="5" stroke-linecap="round" stroke-linejoin="round"/>
<path d="M46.4375 30.6251L50.2046 28.9792V45.4376M53.9718 45.4376H46.4375" stroke="white" stroke-width="5" stroke-linecap="round" stroke-linejoin="round"/>
<path d="M84.4655 40.9585C79.6383 45.1284 73.1023 43.4635 73.1023 43.4635C73.1023 43.4635 71.3932 37.6284 76.2204 33.4583C81.0472 29.2882 87.5836 30.9532 87.5836 30.9532C87.5836 30.9532 89.2927 36.7883 84.4655 40.9585Z" stroke="white" stroke-width="5" stroke-linecap="round" stroke-linejoin="round"/>
<path d="M73.6885 60.874C68.0378 58.9793 67.1582 53.6666 67.1582 53.6666C67.1582 53.6666 71.9293 50.2485 77.58 52.1432C83.2307 54.0379 84.1103 59.3506 84.1103 59.3506C84.1103 59.3506 79.3392 62.7687 73.6885 60.874Z" stroke="white" stroke-width="5" stroke-linecap="round" stroke-linejoin="round"/>
<path d="M26.7226 60.8738C32.3733 58.9791 33.2529 53.6663 33.2529 53.6663C33.2529 53.6663 28.4818 50.2483 22.8311 52.1429C17.1804 54.0376 16.3008 59.3504 16.3008 59.3504C16.3008 59.3504 21.0719 62.7684 26.7226 60.8738Z" stroke="white" stroke-width="5" stroke-linecap="round" stroke-linejoin="round"/>
<path d="M15.9469 40.9585C20.7739 45.1284 27.31 43.4635 27.31 43.4635C27.31 43.4635 29.019 37.6284 24.192 33.4583C19.365 29.2882 12.8289 30.9532 12.8289 30.9532C12.8289 30.9532 11.1198 36.7883 15.9469 40.9585Z" stroke="white" stroke-width="5" stroke-linecap="round" stroke-linejoin="round"/>
<path d="M25.644 18.2143C24.5444 23.7005 29.4858 27.3333 29.4858 27.3333C29.4858 27.3333 35.5266 25.4801 36.6262 19.994C37.7257 14.5079 32.7844 10.875 32.7844 10.875C32.7844 10.875 26.7435 12.7282 25.644 18.2143Z" stroke="white" stroke-width="5" stroke-linecap="round" stroke-linejoin="round"/>
</g>
<defs>
<clipPath id="clip0_15_24359">
<rect width="100" height="79.5699" fill="white"/>
</clipPath>
</defs>
</svg>
