<svg width="20" height="20" viewBox="0 0 20 20" fill="none" xmlns="http://www.w3.org/2000/svg">
<mask id="mask0_15_529" style="mask-type:alpha" maskUnits="userSpaceOnUse" x="0" y="0" width="20" height="20">
<rect width="20" height="20" fill="#D9D9D9"/>
</mask>
<g mask="url(#mask0_15_529)">
<path d="M8.85399 13.812L14.729 7.93801L13.5 6.72901L8.87499 11.354L6.52099 9.00001L5.29199 10.229L8.85399 13.812ZM9.99999 18.333C8.84733 18.333 7.76399 18.1143 6.74999 17.677C5.73599 17.2397 4.85399 16.646 4.10399 15.896C3.35399 15.146 2.76033 14.264 2.32299 13.25C1.88566 12.236 1.66699 11.1527 1.66699 10C1.66699 8.84734 1.88566 7.76401 2.32299 6.75001C2.76033 5.73601 3.35399 4.85401 4.10399 4.10401C4.85399 3.35401 5.73599 2.76034 6.74999 2.32301C7.76399 1.88567 8.84733 1.66701 9.99999 1.66701C11.1527 1.66701 12.236 1.88567 13.25 2.32301C14.264 2.76034 15.146 3.35401 15.896 4.10401C16.646 4.85401 17.2397 5.73601 17.677 6.75001C18.1143 7.76401 18.333 8.84734 18.333 10C18.333 11.1527 18.1143 12.236 17.677 13.25C17.2397 14.264 16.646 15.146 15.896 15.896C15.146 16.646 14.264 17.2397 13.25 17.677C12.236 18.1143 11.1527 18.333 9.99999 18.333ZM9.99999 16.583C11.8193 16.583 13.3713 15.9407 14.656 14.656C15.9407 13.3713 16.583 11.8193 16.583 10C16.583 8.18067 15.9407 6.62867 14.656 5.34401C13.3713 4.05934 11.8193 3.41701 9.99999 3.41701C8.18066 3.41701 6.62866 4.05934 5.34399 5.34401C4.05933 6.62867 3.41699 8.18067 3.41699 10C3.41699 11.8193 4.05933 13.3713 5.34399 14.656C6.62866 15.9407 8.18066 16.583 9.99999 16.583Z" fill="#0080FF"/>
</g>
</svg>
