<svg width="43" height="45" viewBox="0 0 43 45" fill="none" xmlns="http://www.w3.org/2000/svg">
<path d="M34.0417 5.62451H30.0104C30.0104 5.12723 29.8217 4.65032 29.4857 4.29869C29.1496 3.94706 28.6939 3.74951 28.2187 3.74951H14.7812C14.3061 3.74951 13.8504 3.94706 13.5144 4.29869C13.1783 4.65032 12.9896 5.12723 12.9896 5.62451H8.95833C6.98212 5.62451 5.375 7.30639 5.375 9.37451V37.4995C5.375 39.5676 6.98212 41.2495 8.95833 41.2495H34.0417C36.0179 41.2495 37.625 39.5676 37.625 37.4995V9.37451C37.625 7.30639 36.0179 5.62451 34.0417 5.62451ZM34.0417 37.4995H8.95833V9.37451H12.5417V13.1245H30.4583V9.37451H34.0417V37.4995Z" fill="url(#paint0_linear_9_4835)"/>
<defs>
<linearGradient id="paint0_linear_9_4835" x1="21.5" y1="3.74951" x2="21.5" y2="41.2495" gradientUnits="userSpaceOnUse">
<stop stop-color="#F6E717"/>
<stop offset="1" stop-color="#F1B31C"/>
</linearGradient>
</defs>
</svg>
