<svg width="33" height="25" viewBox="0 0 33 25" fill="none" xmlns="http://www.w3.org/2000/svg">
<path d="M12.3359 24.5C18.9634 24.5 24.3359 19.1274 24.3359 12.5C24.3359 5.87258 18.9634 0.5 12.3359 0.5C5.70852 0.5 0.335938 5.87258 0.335938 12.5C0.335938 19.1274 5.70852 24.5 12.3359 24.5Z" fill="#000D2B"/>
<path d="M12.2747 4.90991L8.88616 6.89516L12.2747 8.88116L15.7269 6.89516L12.2747 4.90991ZM12.8319 15.5104V19.4817L17.4347 16.8559V12.8839L12.8319 15.5104V15.5104ZM16.2842 8.14391V12.1159L12.8312 14.1019V10.1299L16.2842 8.14391ZM7.97266 12.1159L11.4257 14.1019V10.1299L7.97266 8.14391V12.1159ZM7.97266 17.4964L11.4257 19.4817V15.5104L7.97266 13.5252V17.4957V17.4964Z" fill="white"/>
</svg>
