<svg width="90" height="79" viewBox="0 0 90 79" fill="none" xmlns="http://www.w3.org/2000/svg">
<path d="M24.1355 26.2136C23.0808 28.9732 22.5 31.9898 22.5 35.1501C22.5 48.3113 32.5736 58.9806 45 58.9806C57.4264 58.9806 67.5 48.3113 67.5 35.1501C67.5 31.9898 66.9191 28.9732 65.8646 26.2136" stroke="white" stroke-width="5" stroke-linecap="round" stroke-linejoin="round"/>
<path d="M54.375 68.8107C54.375 68.8107 51.8175 58.9806 45 58.9806C38.1825 58.9806 35.625 68.8107 35.625 68.8107" stroke="white" stroke-width="5" stroke-linecap="round" stroke-linejoin="round"/>
<path d="M69.4503 17.136C70.5449 22.5972 65.626 26.2136 65.626 26.2136C65.626 26.2136 59.6129 24.3688 58.5183 18.9076C57.4237 13.4464 62.3425 9.83008 62.3425 9.83008C62.3425 9.83008 68.3557 11.6749 69.4503 17.136Z" stroke="white" stroke-width="5" stroke-linecap="round" stroke-linejoin="round"/>
<path d="M41.25 29.4903L45 27.8519V44.2354M48.75 44.2354H41.25" stroke="white" stroke-width="5" stroke-linecap="round" stroke-linejoin="round"/>
<path d="M79.1039 39.7768C74.2987 43.9278 67.7924 42.2704 67.7924 42.2704C67.7924 42.2704 66.091 36.4618 70.8963 32.3107C75.7012 28.1596 82.2078 29.8171 82.2078 29.8171C82.2078 29.8171 83.9092 35.6256 79.1039 39.7768Z" stroke="white" stroke-width="5" stroke-linecap="round" stroke-linejoin="round"/>
<path d="M68.3756 59.6018C62.7506 57.7158 61.875 52.4272 61.875 52.4272C61.875 52.4272 66.6244 49.0247 72.2494 50.9107C77.8744 52.7968 78.75 58.0854 78.75 58.0854C78.75 58.0854 74.0006 61.4879 68.3756 59.6018Z" stroke="white" stroke-width="5" stroke-linecap="round" stroke-linejoin="round"/>
<path d="M21.6244 59.6015C27.2494 57.7155 28.125 52.4269 28.125 52.4269C28.125 52.4269 23.3756 49.0243 17.7506 50.9104C12.1256 52.7965 11.25 58.0851 11.25 58.0851C11.25 58.0851 15.9994 61.4876 21.6244 59.6015Z" stroke="white" stroke-width="5" stroke-linecap="round" stroke-linejoin="round"/>
<path d="M10.8962 39.7768C15.7013 43.9278 22.2076 42.2704 22.2076 42.2704C22.2076 42.2704 23.9089 36.4618 19.1038 32.3107C14.2988 28.1596 7.79239 29.8171 7.79239 29.8171C7.79239 29.8171 6.09109 35.6256 10.8962 39.7768Z" stroke="white" stroke-width="5" stroke-linecap="round" stroke-linejoin="round"/>
<path d="M20.5495 17.136C19.455 22.5972 24.3738 26.2136 24.3738 26.2136C24.3738 26.2136 30.3872 24.3688 31.4817 18.9076C32.5763 13.4464 27.6575 9.83008 27.6575 9.83008C27.6575 9.83008 21.6441 11.6749 20.5495 17.136Z" stroke="white" stroke-width="5" stroke-linecap="round" stroke-linejoin="round"/>
</svg>
