<svg width="28" height="28" viewBox="0 0 28 28" fill="none" xmlns="http://www.w3.org/2000/svg">
<path d="M7.39446 17.3185C7.5312 16.1863 7.99554 15.5525 8.87056 14.9026C10.1226 14.0226 11.6865 14.5204 11.6865 14.5204V11.5671C12.0667 11.5574 12.4471 11.58 12.8231 11.6345V15.4351C12.8231 15.4351 11.2597 14.9372 10.0077 15.8177C9.13312 16.4671 8.66783 17.1014 8.53157 18.2336C8.52729 18.8484 8.64267 19.652 9.17395 20.3469C9.04259 20.2795 8.9087 20.2028 8.77228 20.1166C7.60194 19.3307 7.38877 18.1517 7.39446 17.3185ZM19.2806 6.10655C18.4194 5.16278 18.0937 4.2099 17.9759 3.54053H19.0594C19.0594 3.54053 18.8434 5.29565 20.4177 7.02165L20.4396 7.04486C20.0153 6.77795 19.6261 6.4629 19.2806 6.10655ZM24.4999 8.78224V12.5064C24.4999 12.5064 23.1174 12.4522 22.0942 12.1919C20.6656 11.8279 19.7473 11.2695 19.7473 11.2695C19.7473 11.2695 19.113 10.8714 19.0618 10.8436V18.5339C19.0618 18.9621 18.9445 20.0315 18.587 20.9234C18.1203 22.0901 17.4 22.856 17.2676 23.0125C17.2676 23.0125 16.3916 24.0478 14.8462 24.7449C13.4532 25.3738 12.2301 25.3579 11.8645 25.3738C11.8645 25.3738 9.75033 25.4575 7.84788 24.2211C7.43649 23.9486 7.05247 23.64 6.70081 23.2992L6.7103 23.306C8.61323 24.5424 10.727 24.4587 10.727 24.4587C11.093 24.4428 12.3161 24.4587 13.7086 23.8298C15.2526 23.1327 16.13 22.0974 16.13 22.0974C16.261 21.9409 16.9846 21.175 17.4494 20.0078C17.806 19.1164 17.9242 18.0466 17.9242 17.6184V9.92896C17.9755 9.95717 18.6093 10.3553 18.6093 10.3553C18.6093 10.3553 19.528 10.9141 20.9566 11.2777C21.9803 11.538 23.3623 11.5922 23.3623 11.5922V8.67394C23.8352 8.77996 24.2383 8.80863 24.4999 8.78224Z" fill="#EE1D52"/>
<path d="M23.3629 8.67393V11.5913C23.3629 11.5913 21.9808 11.5371 20.9572 11.2768C19.5285 10.9128 18.6098 10.3544 18.6098 10.3544C18.6098 10.3544 17.976 9.95626 17.9247 9.92805V17.6193C17.9247 18.0475 17.8075 19.1173 17.4499 20.0087C16.9832 21.176 16.263 21.9418 16.1305 22.0983C16.1305 22.0983 15.2541 23.1336 13.7091 23.8307C12.3166 24.4596 11.0936 24.4437 10.7275 24.4596C10.7275 24.4596 8.61377 24.5433 6.71084 23.3069L6.70135 23.3001C6.50044 23.1056 6.31132 22.9002 6.13493 22.6849C5.52768 21.9445 5.15545 21.069 5.06192 20.8192C5.06176 20.8181 5.06176 20.8171 5.06192 20.816C4.91142 20.3819 4.59521 19.3394 4.63842 18.3296C4.71486 16.5481 5.34157 15.4546 5.50727 15.1807C5.94611 14.4337 6.51688 13.7653 7.19417 13.2053C7.79184 12.7221 8.46928 12.3376 9.1987 12.0677C9.98723 11.7507 10.8316 11.5808 11.6866 11.5671V14.5204C11.6866 14.5204 10.1226 14.0244 8.8711 14.9026C7.99608 15.5525 7.53174 16.1863 7.395 17.3185C7.38931 18.1517 7.60248 19.3307 8.77187 20.1171C8.90829 20.2035 9.04218 20.2803 9.17354 20.3473C9.37783 20.6129 9.62648 20.8443 9.90945 21.0322C11.0518 21.7552 12.0089 21.8057 13.2329 21.3361C14.0491 21.0221 14.6634 20.3145 14.9483 19.5305C15.1273 19.0409 15.1249 18.548 15.1249 18.0384V3.54053H17.9736C18.0914 4.2099 18.4171 5.16278 19.2783 6.10655C19.6238 6.4629 20.013 6.77795 20.4373 7.04486C20.5626 7.17455 21.2036 7.81571 22.0264 8.20933C22.4518 8.41279 22.9003 8.56868 23.3629 8.67393Z" fill="black"/>
<path d="M3.9281 19.9124V19.9146L3.99879 20.1062C3.99067 20.0839 3.9644 20.0161 3.9281 19.9124Z" fill="#69C9D0"/>
<path d="M9.19872 12.0678C8.46929 12.3377 7.79185 12.7222 7.19418 13.2054C6.51668 13.7666 5.94605 14.4364 5.50776 15.1848C5.34206 15.4579 4.71535 16.5523 4.63891 18.3338C4.5957 19.3435 4.91191 20.386 5.06241 20.8202C5.06225 20.8212 5.06225 20.8223 5.06241 20.8233C5.15737 21.0709 5.52817 21.9464 6.13542 22.689C6.31181 22.9043 6.50093 23.1097 6.70183 23.3043C6.05812 22.8776 5.48403 22.3617 4.99832 21.7735C4.39629 21.0395 4.02501 20.1731 3.92816 19.9173C3.92804 19.9155 3.92804 19.9137 3.92816 19.9119V19.9087C3.77718 19.475 3.46002 18.4321 3.50418 17.4209C3.58062 15.6394 4.20733 14.5459 4.37303 14.272C4.81119 13.5235 5.38183 12.8537 6.05945 12.2925C6.657 11.8092 7.33447 11.4247 8.06399 11.1549C8.51902 10.974 8.99305 10.8405 9.47789 10.7568C10.2086 10.6345 10.9548 10.6239 11.6889 10.7254V11.5672C10.8332 11.5806 9.98799 11.7505 9.19872 12.0678Z" fill="#69C9D0"/>
<path d="M17.9759 3.54056H15.1272V18.0389C15.1272 18.5485 15.1272 19.04 14.9506 19.531C14.6629 20.3146 14.0509 21.0222 13.2352 21.3362C12.0108 21.8076 11.0536 21.7553 9.91176 21.0322C9.6283 20.8451 9.37901 20.6145 9.17395 20.3496C10.1468 20.847 11.0175 20.8383 12.0962 20.4233C12.9114 20.1093 13.5244 19.4017 13.8111 18.6177C13.9906 18.1281 13.9882 17.6352 13.9882 17.126V2.625H17.9218C17.9218 2.625 17.8777 2.9854 17.9759 3.54056ZM23.3628 7.86716V8.67397C22.901 8.56855 22.4534 8.41266 22.0287 8.20936C21.2059 7.81574 20.5649 7.17458 20.4396 7.04489C20.585 7.13641 20.736 7.21968 20.8916 7.29426C21.8919 7.77297 22.8771 7.91585 23.3628 7.86716Z" fill="#69C9D0"/>
</svg>
