<svg width="25" height="25" viewBox="0 0 25 25" fill="none" xmlns="http://www.w3.org/2000/svg">
<g clip-path="url(#clip0_3_1383)">
<path d="M22.4461 0.725586H1.99453C1.01484 0.725586 0.222656 1.49902 0.222656 2.45527V22.9912C0.222656 23.9475 1.01484 24.7256 1.99453 24.7256H22.4461C23.4258 24.7256 24.2227 23.9475 24.2227 22.9959V2.45527C24.2227 1.49902 23.4258 0.725586 22.4461 0.725586ZM7.34297 21.1771H3.78047V9.7209H7.34297V21.1771ZM5.56172 8.15996C4.41797 8.15996 3.49453 7.23652 3.49453 6.09746C3.49453 4.9584 4.41797 4.03496 5.56172 4.03496C6.70078 4.03496 7.62422 4.9584 7.62422 6.09746C7.62422 7.23184 6.70078 8.15996 5.56172 8.15996ZM20.6742 21.1771H17.1164V15.6084C17.1164 14.2818 17.093 12.5709 15.2648 12.5709C13.4133 12.5709 13.132 14.0193 13.132 15.5146V21.1771H9.57891V9.7209H12.9914V11.2865H13.0383C13.5117 10.3865 14.6742 9.43496 16.4039 9.43496C20.0086 9.43496 20.6742 11.8068 20.6742 14.8912V21.1771V21.1771Z" fill="white"/>
</g>
<defs>
<clipPath id="clip0_3_1383">
<rect width="24" height="24" fill="white" transform="translate(0.222656 0.725586)"/>
</clipPath>
</defs>
</svg>
