<svg width="25" height="25" viewBox="0 0 25 25" fill="none" xmlns="http://www.w3.org/2000/svg">
<g clip-path="url(#clip0_3_1386)">
<path d="M12.2227 0.725586C5.5953 0.725586 0.222656 6.09823 0.222656 12.7256C0.222656 18.3531 4.09722 23.0753 9.32394 24.3723V16.3928H6.84954V12.7256H9.32394V11.1454C9.32394 7.06111 11.1724 5.16799 15.1823 5.16799C15.9427 5.16799 17.2545 5.31727 17.7911 5.46607V8.79007C17.5079 8.76031 17.0159 8.74543 16.4049 8.74543C14.4374 8.74543 13.6771 9.49087 13.6771 11.4286V12.7256H17.5967L16.9233 16.3928H13.6771V24.6377C19.619 23.9201 24.2231 18.8609 24.2231 12.7256C24.2227 6.09823 18.85 0.725586 12.2227 0.725586Z" fill="white"/>
</g>
<defs>
<clipPath id="clip0_3_1386">
<rect width="24" height="24" fill="white" transform="translate(0.222656 0.725586)"/>
</clipPath>
</defs>
</svg>
