<svg width="25" height="25" viewBox="0 0 25 25" fill="none" xmlns="http://www.w3.org/2000/svg">
<g clip-path="url(#clip0_3_1384)">
<path d="M12.2227 2.88652C15.4289 2.88652 15.8086 2.90059 17.0695 2.95684C18.2414 3.0084 18.8742 3.20527 19.2961 3.36934C19.8539 3.58496 20.257 3.84746 20.6742 4.26465C21.0961 4.68652 21.3539 5.08496 21.5695 5.64277C21.7336 6.06465 21.9305 6.70215 21.982 7.86934C22.0383 9.13496 22.0523 9.51465 22.0523 12.7162C22.0523 15.9225 22.0383 16.3022 21.982 17.5631C21.9305 18.735 21.7336 19.3678 21.5695 19.7896C21.3539 20.3475 21.0914 20.7506 20.6742 21.1678C20.2523 21.5896 19.8539 21.8475 19.2961 22.0631C18.8742 22.2271 18.2367 22.424 17.0695 22.4756C15.8039 22.5318 15.4242 22.5459 12.2227 22.5459C9.01641 22.5459 8.63672 22.5318 7.37578 22.4756C6.20391 22.424 5.57109 22.2271 5.14922 22.0631C4.59141 21.8475 4.18828 21.585 3.77109 21.1678C3.34922 20.7459 3.09141 20.3475 2.87578 19.7896C2.71172 19.3678 2.51484 18.7303 2.46328 17.5631C2.40703 16.2975 2.39297 15.9178 2.39297 12.7162C2.39297 9.50996 2.40703 9.13027 2.46328 7.86934C2.51484 6.69746 2.71172 6.06465 2.87578 5.64277C3.09141 5.08496 3.35391 4.68184 3.77109 4.26465C4.19297 3.84277 4.59141 3.58496 5.14922 3.36934C5.57109 3.20527 6.20859 3.0084 7.37578 2.95684C8.63672 2.90059 9.01641 2.88652 12.2227 2.88652ZM12.2227 0.725586C8.96484 0.725586 8.55703 0.739648 7.27734 0.795898C6.00234 0.852148 5.12578 1.0584 4.36641 1.35371C3.57422 1.66309 2.90391 2.0709 2.23828 2.74121C1.56797 3.40684 1.16016 4.07715 0.850781 4.86465C0.555469 5.62871 0.349219 6.50059 0.292969 7.77559C0.236719 9.05996 0.222656 9.46777 0.222656 12.7256C0.222656 15.9834 0.236719 16.3912 0.292969 17.6709C0.349219 18.9459 0.555469 19.8225 0.850781 20.5818C1.16016 21.374 1.56797 22.0443 2.23828 22.71C2.90391 23.3756 3.57422 23.7881 4.36172 24.0928C5.12578 24.3881 5.99766 24.5943 7.27266 24.6506C8.55234 24.7068 8.96016 24.7209 12.218 24.7209C15.4758 24.7209 15.8836 24.7068 17.1633 24.6506C18.4383 24.5943 19.3148 24.3881 20.0742 24.0928C20.8617 23.7881 21.532 23.3756 22.1977 22.71C22.8633 22.0443 23.2758 21.374 23.5805 20.5865C23.8758 19.8225 24.082 18.9506 24.1383 17.6756C24.1945 16.3959 24.2086 15.9881 24.2086 12.7303C24.2086 9.47246 24.1945 9.06465 24.1383 7.78496C24.082 6.50996 23.8758 5.6334 23.5805 4.87402C23.2852 4.07715 22.8773 3.40684 22.207 2.74121C21.5414 2.07559 20.8711 1.66309 20.0836 1.3584C19.3195 1.06309 18.4477 0.856836 17.1727 0.800586C15.8883 0.739648 15.4805 0.725586 12.2227 0.725586Z" fill="white"/>
<path d="M12.2227 6.56152C8.81953 6.56152 6.05859 9.32246 6.05859 12.7256C6.05859 16.1287 8.81953 18.8896 12.2227 18.8896C15.6258 18.8896 18.3867 16.1287 18.3867 12.7256C18.3867 9.32246 15.6258 6.56152 12.2227 6.56152ZM12.2227 16.724C10.0148 16.724 8.22422 14.9334 8.22422 12.7256C8.22422 10.5178 10.0148 8.72715 12.2227 8.72715C14.4305 8.72715 16.2211 10.5178 16.2211 12.7256C16.2211 14.9334 14.4305 16.724 12.2227 16.724Z" fill="white"/>
<path d="M20.0695 6.31773C20.0695 7.1146 19.4227 7.75679 18.6305 7.75679C17.8336 7.75679 17.1914 7.10991 17.1914 6.31773C17.1914 5.52085 17.8383 4.87866 18.6305 4.87866C19.4227 4.87866 20.0695 5.52554 20.0695 6.31773Z" fill="white"/>
</g>
<defs>
<clipPath id="clip0_3_1384">
<rect width="24" height="24" fill="white" transform="translate(0.222656 0.725586)"/>
</clipPath>
</defs>
</svg>
