<svg width="25" height="25" viewBox="0 0 25 25" fill="none" xmlns="http://www.w3.org/2000/svg">
<g clip-path="url(#clip0_3_1389)">
<path fill-rule="evenodd" clip-rule="evenodd" d="M24.2227 12.7256C24.2227 19.353 18.8501 24.7256 12.2227 24.7256C5.59524 24.7256 0.222656 19.353 0.222656 12.7256C0.222656 6.09817 5.59524 0.725586 12.2227 0.725586C18.8501 0.725586 24.2227 6.09817 24.2227 12.7256ZM12.6527 9.58451C11.4855 10.07 9.15279 11.0748 5.65455 12.5989C5.08649 12.8248 4.78891 13.0458 4.76182 13.2619C4.71604 13.6271 5.17337 13.7709 5.79613 13.9667C5.88084 13.9933 5.96861 14.0209 6.05859 14.0502C6.67129 14.2494 7.49548 14.4824 7.92394 14.4916C8.3126 14.5 8.74638 14.3398 9.2253 14.0109C12.4938 11.8046 14.181 10.6894 14.287 10.6654C14.3617 10.6484 14.4653 10.6271 14.5354 10.6894C14.6056 10.7518 14.5987 10.8699 14.5913 10.9016C14.546 11.0947 12.7508 12.7637 11.8218 13.6274C11.5322 13.8966 11.3267 14.0876 11.2847 14.1312C11.1907 14.2289 11.0948 14.3214 11.0026 14.4102C10.4334 14.9589 10.0066 15.3704 11.0263 16.0424C11.5163 16.3653 11.9084 16.6323 12.2996 16.8987C12.7268 17.1897 13.1529 17.4799 13.7043 17.8413C13.8447 17.9333 13.9789 18.029 14.1095 18.1221C14.6067 18.4766 15.0534 18.795 15.6052 18.7442C15.9259 18.7147 16.2571 18.4132 16.4253 17.5139C16.8229 15.3887 17.6043 10.784 17.7849 8.88656C17.8007 8.72032 17.7808 8.50756 17.7648 8.41416C17.7488 8.32076 17.7154 8.18769 17.594 8.08919C17.4502 7.97252 17.2283 7.94792 17.129 7.94967C16.6777 7.95762 15.9852 8.1984 12.6527 9.58451Z" fill="white"/>
</g>
<defs>
<clipPath id="clip0_3_1389">
<rect width="24" height="24" fill="white" transform="translate(0.222656 0.725586)"/>
</clipPath>
</defs>
</svg>
