<svg width="25" height="25" viewBox="0 0 25 25" fill="none" xmlns="http://www.w3.org/2000/svg">
<g clip-path="url(#clip0_3_1390)">
<path d="M24.2227 12.5532C24.2227 15.7325 23.6898 18.3114 23.0324 18.3114C22.3749 18.3114 21.8423 15.7332 21.8423 12.5532C21.8423 9.37316 22.3751 6.79492 23.0324 6.79492C23.6896 6.79492 24.2227 9.37293 24.2227 12.5532Z" fill="white"/>
<path d="M21.1853 12.5532C21.1853 16.1026 19.6701 18.981 17.8009 18.981C15.9318 18.981 14.4165 16.1026 14.4165 12.5532C14.4165 9.00392 15.9315 6.12549 17.8007 6.12549C19.6699 6.12549 21.1851 9.003 21.1851 12.5532" fill="white"/>
<path d="M13.7601 12.5533C13.7601 16.324 10.7296 19.3808 6.99149 19.3808C3.25339 19.3808 0.222656 16.3233 0.222656 12.5533C0.222656 8.78326 3.25316 5.72559 6.99149 5.72559C10.7298 5.72559 13.7601 8.78257 13.7601 12.5533Z" fill="white"/>
</g>
<defs>
<clipPath id="clip0_3_1390">
<rect width="24" height="24" fill="white" transform="translate(0.222656 0.725586)"/>
</clipPath>
</defs>
</svg>
