<svg width="25" height="25" viewBox="0 0 25 25" fill="none" xmlns="http://www.w3.org/2000/svg">
<g clip-path="url(#clip0_3_1387)">
<path d="M20.5397 4.88116C19.01 4.17928 17.3696 3.66216 15.6546 3.36599C15.6233 3.36027 15.5921 3.37456 15.576 3.40313C15.3651 3.77834 15.1314 4.26784 14.9677 4.65258C13.1231 4.37642 11.2878 4.37642 9.48098 4.65258C9.3173 4.25929 9.07514 3.77834 8.86323 3.40313C8.84714 3.37551 8.81594 3.36123 8.78471 3.36599C7.07057 3.66122 5.43022 4.17833 3.89959 4.88116C3.88634 4.88687 3.87498 4.8964 3.86745 4.90878C0.756048 9.55714 -0.096294 14.0912 0.321836 18.5691C0.323728 18.591 0.336026 18.612 0.353054 18.6253C2.40587 20.1329 4.39436 21.0481 6.34594 21.6547C6.37717 21.6642 6.41026 21.6528 6.43014 21.6271C6.89178 20.9967 7.3033 20.3319 7.65613 19.6329C7.67695 19.5919 7.65708 19.5434 7.61452 19.5272C6.96179 19.2796 6.34026 18.9777 5.74239 18.6349C5.6951 18.6072 5.69131 18.5396 5.73481 18.5072C5.86063 18.4129 5.98648 18.3148 6.10661 18.2158C6.12835 18.1977 6.15863 18.1939 6.18419 18.2053C10.1119 19.9986 14.3642 19.9986 18.2456 18.2053C18.2712 18.1929 18.3015 18.1968 18.3241 18.2149C18.4443 18.3139 18.5701 18.4129 18.6969 18.5072C18.7404 18.5396 18.7375 18.6072 18.6903 18.6349C18.0924 18.9843 17.4708 19.2796 16.8172 19.5262C16.7746 19.5424 16.7557 19.5919 16.7765 19.6329C17.1369 20.3309 17.5484 20.9957 18.0016 21.6261C18.0205 21.6528 18.0545 21.6642 18.0858 21.6547C20.0468 21.0481 22.0353 20.1329 24.0881 18.6253C24.1061 18.612 24.1174 18.592 24.1193 18.5701C24.6197 13.3931 23.2811 8.89622 20.5709 4.90972C20.5642 4.8964 20.5529 4.88687 20.5397 4.88116ZM8.24268 15.8426C7.06015 15.8426 6.08579 14.7569 6.08579 13.4236C6.08579 12.0904 7.04126 11.0047 8.24268 11.0047C9.45353 11.0047 10.4185 12.0999 10.3995 13.4236C10.3995 14.7569 9.44406 15.8426 8.24268 15.8426ZM16.2174 15.8426C15.0349 15.8426 14.0605 14.7569 14.0605 13.4236C14.0605 12.0904 15.016 11.0047 16.2174 11.0047C17.4283 11.0047 18.3932 12.0999 18.3743 13.4236C18.3743 14.7569 17.4283 15.8426 16.2174 15.8426Z" fill="white"/>
</g>
<defs>
<clipPath id="clip0_3_1387">
<rect width="24" height="24" fill="white" transform="translate(0.222656 0.725586)"/>
</clipPath>
</defs>
</svg>
