<svg width="25" height="25" viewBox="0 0 25 25" fill="none" xmlns="http://www.w3.org/2000/svg">
<path d="M14.6641 6.38432C14.8722 7.2665 15.6644 7.92369 16.6103 7.92369C17.7147 7.92369 18.61 7.02838 18.61 5.924C18.61 4.81963 17.7147 3.92432 16.6103 3.92432C15.6447 3.92432 14.8394 4.60869 14.6519 5.519C13.0347 5.69244 11.7719 7.064 11.7719 8.72619C11.7719 8.72994 11.7719 8.73275 11.7719 8.7365C10.0131 8.81057 8.40719 9.31119 7.13219 10.1015C6.65875 9.73494 6.06438 9.5165 5.41938 9.5165C3.87156 9.5165 2.61719 10.7709 2.61719 12.3187C2.61719 13.4418 3.27719 14.4093 4.23063 14.8565C4.32344 18.1096 7.86813 20.7262 12.2284 20.7262C16.5888 20.7262 20.1381 18.1068 20.2263 14.8509C21.1722 14.4009 21.8266 13.4362 21.8266 12.3196C21.8266 10.7718 20.5722 9.51744 19.0244 9.51744C18.3822 9.51744 17.7906 9.734 17.3181 10.0978C16.0319 9.30182 14.4081 8.80119 12.6316 8.73463C12.6316 8.73182 12.6316 8.72994 12.6316 8.72713C12.6316 7.5365 13.5166 6.54838 14.6641 6.38619V6.38432ZM7.01969 14.0971C7.06656 13.0809 7.74156 12.3009 8.52625 12.3009C9.31094 12.3009 9.91094 13.1249 9.86406 14.1412C9.81719 15.1574 9.23125 15.5268 8.44563 15.5268C7.66 15.5268 6.97281 15.1134 7.01969 14.0971ZM15.9316 12.3009C16.7172 12.3009 17.3922 13.0809 17.4381 14.0971C17.485 15.1134 16.7969 15.5268 16.0122 15.5268C15.2275 15.5268 14.6406 15.1584 14.5938 14.1412C14.5469 13.1249 15.1459 12.3009 15.9316 12.3009ZM14.9978 16.4484C15.145 16.4634 15.2387 16.6162 15.1816 16.7531C14.6987 17.9071 13.5588 18.7181 12.2284 18.7181C10.8981 18.7181 9.75906 17.9071 9.27531 16.7531C9.21813 16.6162 9.31188 16.4634 9.45906 16.4484C10.3216 16.3612 11.2544 16.3134 12.2284 16.3134C13.2025 16.3134 14.1344 16.3612 14.9978 16.4484Z" fill="white"/>
</svg>
