<svg width="30" height="30" viewBox="0 0 30 30" fill="none" xmlns="http://www.w3.org/2000/svg">
<g clip-path="url(#clip0_15_7438)">
<path d="M15 30C23.2843 30 30 23.2843 30 15C30 6.71573 23.2843 0 15 0C6.71573 0 0 6.71573 0 15C0 23.2843 6.71573 30 15 30Z" fill="#26A17B"/>
<path fill-rule="evenodd" clip-rule="evenodd" d="M16.8019 16.2968V16.2949C16.6987 16.3024 16.1672 16.3343 14.9812 16.3343C14.0344 16.3343 13.3678 16.3062 13.1334 16.2949V16.2978C9.48844 16.1374 6.76781 15.5028 6.76781 14.7434C6.76781 13.9849 9.48844 13.3503 13.1334 13.1871V15.6659C13.3716 15.6828 14.0541 15.7231 14.9972 15.7231C16.1287 15.7231 16.6959 15.6762 16.8019 15.6668V13.189C20.4394 13.3512 23.1534 13.9859 23.1534 14.7434C23.1534 15.5028 20.4394 16.1356 16.8019 16.2968V16.2968ZM16.8019 12.9312V10.7131H21.8775V7.33057H8.05781V10.7131H13.1334V12.9303C9.00844 13.1196 5.90625 13.9371 5.90625 14.9159C5.90625 15.8946 9.00844 16.7112 13.1334 16.9015V24.0096H16.8019V16.8996C20.9203 16.7103 24.015 15.8937 24.015 14.9159C24.015 13.9381 20.9203 13.1215 16.8019 12.9312" fill="white"/>
</g>
<defs>
<clipPath id="clip0_15_7438">
<rect width="30" height="30" fill="white"/>
</clipPath>
</defs>
</svg>
