<svg width="70" height="70" viewBox="0 0 70 70" fill="none" xmlns="http://www.w3.org/2000/svg">
<g clip-path="url(#clip0_15_7113)">
<path d="M35 70C54.33 70 70 54.33 70 35C70 15.67 54.33 0 35 0C15.67 0 0 15.67 0 35C0 54.33 15.67 70 35 70Z" fill="#26A17B"/>
<path fill-rule="evenodd" clip-rule="evenodd" d="M39.2044 38.0257V38.0214C38.9638 38.0389 37.7234 38.1132 34.9562 38.1132C32.7469 38.1132 31.1916 38.0476 30.6447 38.0214V38.0279C22.1397 37.6539 15.7916 36.1729 15.7916 34.4011C15.7916 32.6314 22.1397 31.1504 30.6447 30.7698V36.5536C31.2003 36.5929 32.7928 36.687 34.9934 36.687C37.6337 36.687 38.9572 36.5776 39.2044 36.5557V30.7742C47.6919 31.1526 54.0247 32.6336 54.0247 34.4011C54.0247 36.1729 47.6919 37.6495 39.2044 38.0257V38.0257ZM39.2044 30.1726V24.997H51.0475V17.1045H18.8016V24.997H30.6447V30.1704C21.0197 30.6123 13.7812 32.5198 13.7812 34.8036C13.7812 37.0873 21.0197 38.9926 30.6447 39.4367V56.0223H39.2044V39.4323C48.8141 38.9904 56.035 37.0851 56.035 34.8036C56.035 32.522 48.8141 30.6167 39.2044 30.1726" fill="white"/>
</g>
<defs>
<clipPath id="clip0_15_7113">
<rect width="70" height="70" fill="white"/>
</clipPath>
</defs>
</svg>
