<svg width="211" height="211" viewBox="0 0 211 211" fill="none" xmlns="http://www.w3.org/2000/svg">
<path fill-rule="evenodd" clip-rule="evenodd" d="M105.5 35.1668C66.6561 35.1668 35.1668 66.6561 35.1668 105.5C35.1668 123.955 42.271 140.754 53.9106 153.307C54.3501 151.853 54.9345 150.425 55.6969 149.062C58.2817 144.44 61.5422 140.167 65.4109 136.389C69.2935 132.596 73.6739 129.414 78.3985 126.9C71.2027 120.012 66.704 110.385 66.704 99.6391C66.704 78.4043 84.2701 61.5418 105.5 61.5418C126.73 61.5418 144.296 78.4043 144.296 99.6391C144.296 110.385 139.798 120.012 132.602 126.9C137.326 129.414 141.707 132.596 145.589 136.389C149.458 140.167 152.719 144.44 155.303 149.062C156.066 150.425 156.65 151.853 157.09 153.307C168.729 140.754 175.833 123.955 175.833 105.5C175.833 66.6561 144.344 35.1668 105.5 35.1668ZM140.149 166.722C140.491 164.966 140.662 163.318 140.667 161.857C140.675 159.444 140.233 158.138 139.957 157.645C138.194 154.492 135.963 151.565 133.303 148.968C125.964 141.799 115.967 137.736 105.5 137.736C95.0335 137.736 85.0361 141.799 77.6969 148.968C75.037 151.565 72.8063 154.492 71.043 157.645C70.7673 158.138 70.3252 159.444 70.3336 161.857C70.3387 163.318 70.5098 164.966 70.8511 166.722C81.0726 172.522 92.8885 175.833 105.5 175.833C118.112 175.833 129.928 172.522 140.149 166.722ZM105.5 120.153C117.412 120.153 126.713 110.774 126.713 99.6391C126.713 88.5038 117.412 79.1252 105.5 79.1252C93.5881 79.1252 84.2873 88.5038 84.2873 99.6391C84.2873 110.774 93.5881 120.153 105.5 120.153ZM17.5835 105.5C17.5835 56.9451 56.9451 17.5835 105.5 17.5835C154.055 17.5835 193.417 56.9451 193.417 105.5C193.417 136.774 177.081 164.227 152.518 179.8C138.915 188.424 122.777 193.417 105.5 193.417C88.2233 193.417 72.0855 188.424 58.4825 179.8C33.9196 164.227 17.5835 136.774 17.5835 105.5Z" fill="white"/>
</svg>
