<svg width="110" height="110" viewBox="0 0 110 110" fill="none" xmlns="http://www.w3.org/2000/svg">
<path fill-rule="evenodd" clip-rule="evenodd" d="M55 18.3333C34.7496 18.3333 18.3333 34.7496 18.3333 55C18.3333 64.6209 22.0369 73.3786 28.105 79.923C28.3341 79.165 28.6388 78.4205 29.0362 77.7098C30.3837 75.3006 32.0835 73.0729 34.1004 71.103C36.1245 69.126 38.4081 67.4669 40.8712 66.1561C37.1198 62.5653 34.7745 57.5467 34.7745 51.9445C34.7745 40.8742 43.9322 32.0833 55 32.0833C66.0678 32.0833 75.2255 40.8742 75.2255 51.9445C75.2255 57.5467 72.8802 62.5653 69.1289 66.1561C71.5919 67.4669 73.8755 69.126 75.8996 71.103C77.9165 73.0729 79.6163 75.3006 80.9638 77.7098C81.3612 78.4205 81.6659 79.165 81.895 79.923C87.9631 73.3786 91.6667 64.6209 91.6667 55C91.6667 34.7496 75.2504 18.3333 55 18.3333ZM73.0635 86.9168C73.2414 86.0013 73.3306 85.142 73.3333 84.3805C73.3377 83.1224 73.1072 82.4415 72.9634 82.1845C72.0442 80.541 70.8813 79.0151 69.4946 77.6607C65.6684 73.9237 60.4565 71.8056 55 71.8056C49.5435 71.8056 44.3316 73.9237 40.5054 77.6607C39.1187 79.0151 37.9558 80.541 37.0366 82.1845C36.8928 82.4415 36.6623 83.1224 36.6667 84.3805C36.6694 85.142 36.7586 86.0013 36.9365 86.9168C42.2653 89.94 48.4252 91.6667 55 91.6667C61.5748 91.6667 67.7347 89.94 73.0635 86.9168ZM55 62.6389C61.2101 62.6389 66.0588 57.7496 66.0588 51.9445C66.0588 46.1393 61.2101 41.25 55 41.25C48.7899 41.25 43.9412 46.1393 43.9412 51.9445C43.9412 57.7496 48.7899 62.6389 55 62.6389ZM9.16667 55C9.16667 29.6869 29.6869 9.16667 55 9.16667C80.3131 9.16667 100.833 29.6869 100.833 55C100.833 71.3041 92.3169 85.6159 79.5116 93.7345C72.4199 98.2306 64.0069 100.833 55 100.833C45.9931 100.833 37.5801 98.2306 30.4884 93.7345C17.6831 85.6159 9.16667 71.3041 9.16667 55Z" fill="white"/>
</svg>
