<svg width="24" height="24" viewBox="0 0 24 24" fill="none" xmlns="http://www.w3.org/2000/svg">
<path fill-rule="evenodd" clip-rule="evenodd" d="M5.18948 3.44053C6.22222 2.96968 7.38661 2.87283 8.48294 3.16659C9.01641 3.30953 9.33299 3.85787 9.19005 4.39133C9.04711 4.9248 8.49877 5.24138 7.9653 5.09844C7.31747 4.92485 6.62942 4.98208 6.01917 5.26031C5.40892 5.53854 4.91448 6.02043 4.62067 6.62334C4.32686 7.22624 4.25198 7.91259 4.40887 8.56467C4.56576 9.21675 4.94464 9.79392 5.48054 10.1972C5.77128 10.416 5.92023 10.7754 5.86947 11.1357C5.81872 11.496 5.57626 11.8003 5.2364 11.9303C4.55706 12.19 3.93298 12.5913 3.40881 13.1154C3.23222 13.292 3.06962 13.4799 2.92169 13.6774C2.61346 14.0889 2.63356 14.4336 2.79577 14.7423C2.98731 15.1068 3.42744 15.4847 4.04999 15.6806C4.57683 15.8463 4.86956 16.4077 4.70384 16.9345C4.53811 17.4614 3.97668 17.7541 3.44985 17.5884C2.42804 17.267 1.50929 16.5936 1.02534 15.6727C0.51205 14.6959 0.540025 13.521 1.32095 12.4784C1.52558 12.2052 1.75046 11.9453 1.99459 11.7012C2.371 11.3248 2.7847 10.9942 3.22697 10.7131C2.87098 10.2101 2.61065 9.64053 2.46436 9.03252C2.19885 7.929 2.32558 6.76749 2.8228 5.74719C3.32002 4.72688 4.15675 3.91138 5.18948 3.44053ZM17.9808 5.26031C17.3705 4.98208 16.6825 4.92485 16.0346 5.09844C15.5012 5.24138 14.9528 4.9248 14.8099 4.39133C14.667 3.85787 14.9835 3.30953 15.517 3.16659C16.6133 2.87283 17.7777 2.96968 18.8105 3.44053C19.8432 3.91138 20.6799 4.72688 21.1771 5.74719C21.6744 6.76749 21.8011 7.929 21.5356 9.03252C21.3893 9.64053 21.129 10.2101 20.773 10.7131C21.2153 10.9942 21.6289 11.3248 22.0054 11.7012C22.2495 11.9453 22.4744 12.2052 22.679 12.4784C23.4599 13.521 23.4879 14.6959 22.9746 15.6727C22.4907 16.5936 21.5719 17.267 20.5501 17.5884C20.0233 17.7541 19.4618 17.4614 19.2961 16.9345C19.1304 16.4077 19.4231 15.8463 19.95 15.6806C20.5725 15.4847 21.0126 15.1068 21.2042 14.7423C21.3664 14.4336 21.3865 14.0889 21.0783 13.6774C20.9303 13.4799 20.7677 13.292 20.5911 13.1154C20.067 12.5913 19.4429 12.19 18.7635 11.9303C18.4237 11.8003 18.1812 11.496 18.1305 11.1357C18.0797 10.7754 18.2287 10.416 18.5194 10.1972C19.0553 9.79392 19.4342 9.21675 19.5911 8.56467C19.748 7.91259 19.6731 7.22624 19.3793 6.62334C19.0855 6.02043 18.591 5.53854 17.9808 5.26031ZM12.0001 7C10.4046 7 9.11121 8.2934 9.11121 9.88889C9.11121 11.4844 10.4046 12.7778 12.0001 12.7778C13.5956 12.7778 14.889 11.4844 14.889 9.88889C14.889 8.2934 13.5956 7 12.0001 7ZM15.2435 13.5471C16.2529 12.6515 16.889 11.3444 16.889 9.88889C16.889 7.18883 14.7002 5 12.0001 5C9.30004 5 7.11121 7.18883 7.11121 9.88889C7.11121 11.3445 7.74732 12.6515 8.75671 13.5471C8.07393 13.8902 7.44373 14.3427 6.89324 14.8932C6.64911 15.1373 6.42422 15.3972 6.21959 15.6704C5.76096 16.2826 5.545 16.9651 5.58302 17.6538C5.62047 18.3319 5.8994 18.939 6.29816 19.4291C7.08285 20.3936 8.39857 21.0001 9.7779 21.0001H14.2223C15.6017 21.0001 16.9174 20.3936 17.7021 19.4291C18.1008 18.939 18.3798 18.3319 18.4172 17.6538C18.4552 16.9651 18.2393 16.2826 17.7807 15.6704C17.576 15.3972 17.3511 15.1373 17.107 14.8932C16.5565 14.3427 15.9263 13.8902 15.2435 13.5471ZM12.0001 14.7778C10.6151 14.7778 9.28681 15.328 8.30745 16.3074C8.13086 16.484 7.96826 16.6719 7.82033 16.8694C7.61677 17.1411 7.57024 17.367 7.57998 17.5435C7.59031 17.7306 7.66943 17.9455 7.84956 18.1669C8.22265 18.6255 8.94809 19.0001 9.7779 19.0001H14.2223C15.0522 19.0001 15.7776 18.6255 16.1507 18.1669C16.3308 17.9455 16.4099 17.7306 16.4203 17.5435C16.43 17.367 16.3835 17.1411 16.1799 16.8694C16.032 16.6719 15.8694 16.484 15.6928 16.3074C14.7134 15.328 13.3851 14.7778 12.0001 14.7778Z" fill="white"/>
</svg>
