<svg width="136" height="51" viewBox="0 0 136 51" fill="none" xmlns="http://www.w3.org/2000/svg">
<g clip-path="url(#clip0_9_265)">
<path d="M0.214844 19.0498L1.00896 16.741L1.80308 20.8256L2.5972 25.5273L3.39131 5.85288L4.18543 23.187L4.97955 18.8315L5.77367 14.4608L6.56778 35.7412L7.3619 25.3731L8.15602 35.0138L8.95014 14.4268L9.74426 11.7459L10.5384 16.6717L11.3325 50.5479L12.1266 38.6194L12.9207 34.6281L13.7148 4.90163L14.509 22.8404L15.3031 25.2539L16.0972 24.4742L16.8913 20.6832L17.6854 27.8684L18.4795 31.1231L19.2737 27.2611L20.0678 22.9991L20.8619 14.4839L21.656 25.2299L22.4501 15.5737L23.2443 18.3084L24.0384 17.6004L24.8325 25.4605L25.6266 28.0065L26.4207 32.0012L27.2148 31.136L28.009 23.4268L28.8031 23.4603L29.5972 20.5097L30.3913 26.0775L31.1854 19.6822L31.9795 33.0444L32.7737 26.9255L33.5678 20.515L34.3619 25.1454L35.156 14.7709L35.9501 12.9543L36.7443 23.247L37.5384 23.3031L38.3325 14.6039L39.1266 10.3831L39.9207 24.9625L40.7148 23.9957L41.509 20.9895L42.3031 20.5972L43.0972 13.7517L43.8913 27.501L44.6854 11.8891L45.4795 5.23286L46.2737 20.0328L47.0678 32.7809L47.8619 24.4757L48.656 23.6161L49.4501 16.7316L50.2443 20.8617L51.0384 2.50009L51.8325 15.4417L52.6266 18.007L53.4207 11.8524L54.2148 16.1577L55.009 10.254L55.8031 21.2444L56.5972 22.5827L57.3913 17.5136L58.1854 16.9428L58.9795 10.994L59.7737 4.47005L60.5678 36.4983L61.3619 23.7441L62.156 13.6795L62.9501 17.2781L63.7443 0.547852L64.5384 18.2552L65.3325 29.622L66.1266 38.1616L66.9207 27.0294L67.7148 13.0744L68.509 21.1748L69.3031 23.1511L70.0972 19.396L70.8913 17.9845L71.6854 18.6118L72.4796 18.5493L73.2737 9.67499L74.0678 20.6745L74.8619 23.3655L75.656 24.5576L76.4501 27.2592L77.2443 20.003L78.0384 27.5389L78.8325 24.5801L79.6266 18.0982L80.4207 15.6202L81.2148 26.0531L82.009 28.3715L82.8031 12.2404L83.5972 17.294L84.3913 22.0922L85.1854 21.1178L85.9796 23.1585L86.7737 22.5588L87.5678 21.1896L88.3619 24.2234L89.156 14.8412L89.9501 20.9201L90.7443 18.6085L91.5384 18.2851L92.3325 23.6005L93.1266 28.0031L93.9207 24.1939L94.7148 19.4384L95.509 20.5332L96.3031 18.4903L97.0972 20.3589L97.8913 21.0997L98.6854 25.1245L99.4796 14.8648L100.274 25.5338L101.068 25.0687L101.862 19.1514L102.656 23.0109L103.45 19.6124L104.244 17.8803L105.038 22.4015L105.832 19.6734L106.627 19.2904L107.421 21.5196L108.215 12.9847L109.009 34.3133L109.803 25.4047L110.597 20.9609L111.391 30.1897L112.185 22.0618L112.98 19.7907L113.774 21.7045L114.568 13.7569L115.362 28.4199L116.156 21.6101L116.95 18.8305L117.744 37.421L118.538 13.0527L119.332 6.11595L120.127 20.8899L120.921 33.2207L121.715 12.8787L122.509 18.5898L123.303 19.222L124.097 15.762L124.891 23.7571L125.685 22.1651L126.48 20.0521L127.274 19.2731L128.068 36.9509L128.862 22.847L129.656 17.7916L130.45 16.6785L131.244 14.43L132.038 16.5278L132.832 27.293L133.627 16.9037L134.421 26.1376" stroke="#FF3A33" stroke-width="1.25"/>
</g>
<defs>
<clipPath id="clip0_9_265">
<rect width="135" height="50" fill="white" transform="translate(0.214844 0.547852)"/>
</clipPath>
</defs>
</svg>
