<svg width="136" height="51" viewBox="0 0 136 51" fill="none" xmlns="http://www.w3.org/2000/svg">
<g clip-path="url(#clip0_9_307)">
<path d="M0.214844 50.5479L1.01366 47.6282L1.81248 38.6264L2.61129 33.8866L3.41011 34.2837L4.20893 34.4222L5.00774 34.361L5.80656 34.5284L6.60538 35.7021L7.40419 36.1518L8.20301 37.0235L9.00183 36.4261L9.80064 30.3969L10.5995 29.3736L11.3983 22.7212L12.1971 23.3678L12.9959 21.7848L13.7947 21.3892L14.5935 22.0394L15.3924 18.9007L16.1912 19.7572L16.99 19.8035L17.7888 24.9785L18.5876 27.1953L19.3864 30.2484L20.1853 30.7226L20.9841 30.9321L21.7829 29.3154L22.5817 33.3214L23.3805 29.3462L24.1793 27.4578L24.9782 29.49L25.777 27.7698L26.5758 20.2527L27.3746 24.7057L28.1734 28.1952L28.9722 29.2538L29.7711 27.2323L30.5699 33.7041L31.3687 32.6864L32.1675 34.9756L32.9663 35.4887L33.7651 34.3626L34.564 36.6723L35.3628 34.052L36.1616 30.8853L36.9604 31.2077L37.7592 29.4104L38.558 27.9076L39.3569 29.0675L40.1557 33.4059L40.9545 32.8185L41.7533 30.6325L42.5521 27.9434L43.3509 26.6545L44.1498 24.7889L44.9486 23.4392L45.7474 19.4286L46.5462 13.6187L47.345 16.7126L48.1438 19.1364L48.9427 17.3014L49.7415 18.6261L50.5403 20.1957L51.3391 14.3861L52.1379 18.89L52.9367 17.8234L53.7356 19.6233L54.5344 21.9778L55.3332 24.2613L56.132 20.4453L56.9308 19.7113L57.7296 17.073L58.5285 15.9249L59.3273 16.0202L60.1261 13.6058L60.9249 17.5313L61.7237 22.7355L62.5225 19.2718L63.3214 13.0291L64.1202 16.757L64.919 7.54914L65.7178 6.74636L66.5166 3.19617L67.3154 3.99384L68.1143 3.19832L68.9131 5.56269L69.7119 3.41142L70.5107 4.22675L71.3095 2.02811L72.1083 2.5141L72.9072 2.70223L73.706 3.07504L74.5048 1.93171L75.3036 3.63139L76.1024 0.547852L76.9012 3.61187L77.7001 4.86692L78.4989 7.12465L79.2977 13.1193L80.0965 7.93758L80.8953 4.71393L81.6941 7.05737L82.493 11.7672L83.2918 8.84235L84.0906 6.21715L84.8894 8.2196L85.6882 12.7499L86.487 11.6299L87.2859 10.5009L88.0847 11.2215L88.8835 13.3934L89.6823 13.8524L90.4811 12.5827L91.2799 10.906L92.0788 14.3104L92.8776 13.3249L93.6764 10.5753L94.4752 8.01053L95.274 10.5112L96.0728 9.01522L96.8717 13.4645L97.6705 16.2161L98.4693 12.1387L99.2681 11.377L100.067 14.2953L100.866 11.122L101.665 17.1302L102.463 13.9518L103.262 17.485L104.061 16.2897L104.86 14.4422L105.659 9.05358L106.457 11.28L107.256 7.95848L108.055 9.6484L108.854 6.99626L109.653 12.0001L110.452 16.3347L111.25 18.1258L112.049 22.0938L112.848 25.4404L113.647 22.7069L114.446 23.6007L115.244 21.2549L116.043 22.1522L116.842 18.655L117.641 21.3411L118.44 26.9276L119.239 29.0644L120.037 28.6618L120.836 27.6802L121.635 28.7698L122.434 29.6548L123.233 33.2772L124.031 33.5485L124.83 31.898L125.629 33.6438L126.428 31.4869L127.227 30.9618L128.025 33.4077L128.824 35.7914L129.623 38.5495L130.422 34.1206L131.221 34.4887L132.02 32.9498L132.818 27.7145L133.617 26.4831L134.416 27.1383" stroke="#32CA5B" stroke-width="1.25"/>
</g>
<defs>
<clipPath id="clip0_9_307">
<rect width="135" height="50" fill="white" transform="translate(0.214844 0.547852)"/>
</clipPath>
</defs>
</svg>
