<svg width="136" height="51" viewBox="0 0 136 51" fill="none" xmlns="http://www.w3.org/2000/svg">
<g clip-path="url(#clip0_16_263)">
<path d="M0.796387 5.1164L1.5952 5.85074L2.39402 6.77856L3.19284 6.01946L3.99165 5.05742L4.79047 8.95947L5.58929 13.1604L6.3881 8.98346L7.18692 8.67949L7.98574 8.06028L8.78455 4.77473L9.58337 4.53941L10.3822 4.59186L11.181 2.22967L11.9798 1.48576L12.7786 2.33821L13.5775 2.83633L14.3763 0.84668L15.1751 1.86094L15.9739 1.76426L16.7727 10.0643L17.5715 20.7244L18.3704 19.9139L19.1692 23.7374L19.968 29.9552L20.7668 30.0143L21.5656 32.9482L22.3644 33.2133L23.1632 35.0976L23.9621 35.0396L24.7609 34.7404L25.5597 32.5839L26.3585 28.9035L27.1573 26.7542L27.9562 24.9279L28.755 28.3236L29.5538 28.9659L30.3526 27.5076L31.1514 27.7949L31.9502 27.8351L32.7491 34.3179L33.5479 36.5407L34.3467 37.6428L35.1455 38.7363L35.9443 34.7945L36.7431 38.431L37.542 34.276L38.3408 38.2639L39.1396 39.0049L39.9384 46.7869L40.7372 46.1918L41.536 42.1348L42.3348 43.48L43.1337 41.0823L43.9325 42.6183L44.7313 42.3629L45.5301 37.7079L46.3289 37.9089L47.1277 37.3812L47.9266 38.5019L48.7254 40.2995L49.5242 38.0357L50.323 45.0494L51.1218 50.8467L51.9206 46.2245L52.7195 44.1349L53.5183 46.1902L54.3171 46.7097L55.1159 45.6209L55.9147 50.5967L56.7135 47.1451L57.5124 49.4553L58.3112 47.9211L59.11 49.0705L59.9088 43.553L60.7076 44.5854L61.5064 42.1974L62.3053 41.2565L63.1041 40.9118L63.9029 42.0067L64.7017 39.0696L65.5005 40.2073L66.2993 40.4969L67.0982 39.3185L67.897 37.0349L68.6958 38.1074L69.4946 36.7408L70.2934 35.7481L71.0922 35.0536L71.8911 35.7329L72.6899 33.1543L73.4887 31.8498L74.2875 34.6523L75.0863 34.9317L75.8851 33.3954L76.684 31.1353L77.4828 33.9138L78.2816 32.9302L79.0804 32.7744L79.8792 35.0727L80.678 35.0898L81.4769 35.4635L82.2757 34.0963L83.0745 32.4142L83.8733 32.5288L84.6721 36.0252L85.4709 36.4199L86.2698 35.3423L87.0686 32.9233L87.8674 32.4804L88.6662 31.0182L89.465 31.4312L90.2638 32.7604L91.0627 33.3149L91.8615 32.3895L92.6603 31.8635L93.4591 34.1357L94.2579 34.0236L95.0567 32.8863L95.8556 37.0121L96.6544 36.1774L97.4532 37.1217L98.252 39.2896L99.0508 39.7137L99.8496 38.695L100.648 36.0105L101.447 35.9546L102.246 37.2486L103.045 34.6995L103.844 35.7615L104.643 36.9882L105.441 37.0902L106.24 36.4595L107.039 36.8344L107.838 37.0541L108.637 36.3563L109.435 35.7451L110.234 37.9165L111.033 36.4428L111.832 36.0201L112.631 36.3596L113.43 33.0555L114.228 32.9695L115.027 31.5244L115.826 33.1806L116.625 32.5174L117.424 30.7816L118.222 30.0545L119.021 33.3353L119.82 28.9042L120.619 28.4941L121.418 24.3399L122.217 21.027L123.015 21.3784L123.814 20.4039L124.613 22.3631L125.412 22.879L126.211 22.3552L127.009 22.8351L127.808 24.9782L128.607 28.3583L129.406 32.4545L130.205 28.181L131.003 30.6194L131.802 26.3239L132.601 26.855L133.4 27.3693L134.199 27.4324L134.998 34.2013" stroke="#FF3A33" stroke-width="1.25"/>
</g>
<defs>
<clipPath id="clip0_16_263">
<rect width="135" height="50" fill="white" transform="translate(0.796387 0.84668)"/>
</clipPath>
</defs>
</svg>
