<svg width="136" height="51" viewBox="0 0 136 51" fill="none" xmlns="http://www.w3.org/2000/svg">
<g clip-path="url(#clip0_2_384)">
<path d="M0.214844 50.5479L1.01366 50.4514L1.81248 49.9687L2.61129 49.6313L3.41011 49.5062L4.20893 49.528L5.00774 48.9312L5.80656 48.0825L6.60538 49.5854L7.40419 49.1377L8.20301 50.0823L9.00183 49.7626L9.80064 49.19L10.5995 48.5915L11.3983 48.1521L12.1971 48.1525L12.9959 47.941L13.7947 47.2874L14.5935 48.0384L15.3924 47.7981L16.1912 46.5612L16.99 46.6913L17.7888 46.3431L18.5876 47.2332L19.3864 47.7233L20.1853 48.0412L20.9841 47.6831L21.7829 46.8073L22.5817 47.7393L23.3805 46.5051L24.1793 45.1214L24.9782 45.6974L25.777 44.3937L26.5758 43.7026L27.3746 44.23L28.1734 42.0346L28.9722 42.2253L29.7711 42.555L30.5699 42.4009L31.3687 42.4067L32.1675 43.3451L32.9663 44.4028L33.7651 44.666L34.564 46.6339L35.3628 45.3675L36.1616 43.8795L36.9604 42.8587L37.7592 42.7047L38.558 39.867L39.3569 36.9748L40.1557 35.5117L40.9545 33.8534L41.7533 30.6794L42.5521 31.4551L43.3509 31.6112L44.1498 31.7955L44.9486 30.9135L45.7474 30.9612L46.5462 25.077L47.345 15.9707L48.1438 23.5847L48.9427 18.6206L49.7415 20.2385L50.5403 20.0462L51.3391 19.6036L52.1379 21.4126L52.9367 19.0358L53.7356 17.1134L54.5344 19.836L55.3332 18.1688L56.132 17.5842L56.9308 18.0061L57.7296 16.1774L58.5285 17.3993L59.3273 16.8566L60.1261 14.8966L60.9249 12.5726L61.7237 14.1363L62.5225 13.3044L63.3214 8.49835L64.1202 3.40754L64.919 0.725421L65.7178 0.638856L66.5166 3.64371L67.3154 8.8395L68.1143 6.84794L68.9131 9.16596L69.7119 8.67368L70.5107 9.54863L71.3095 7.61159L72.1083 7.88283L72.9072 3.83723L73.706 4.07125L74.5048 0.547852L75.3036 3.18383L76.1024 3.92504L76.9012 5.78984L77.7001 8.20266L78.4989 13.0832L79.2977 14.6041L80.0965 13.6207L80.8953 11.1472L81.6941 12.4804L82.493 13.4565L83.2918 13.1164L84.0906 10.5882L84.8894 10.8197L85.6882 11.5804L86.487 11.7445L87.2859 11.5123L88.0847 11.1858L88.8835 11.4919L89.6823 13.1751L90.4811 12.9955L91.2799 13.4791L92.0788 13.3175L92.8776 10.5014L93.6764 8.74028L94.4752 9.49741L95.274 11.1976L96.0728 11.8656L96.8717 12.8338L97.6705 14.3859L98.4693 14.4305L99.2681 13.1038L100.067 11.7498L100.866 11.933L101.665 13.2672L102.463 12.7807L103.262 14.0379L104.061 14.7871L104.86 15.5029L105.659 14.4942L106.457 14.7422L107.256 12.8901L108.055 13.6519L108.854 12.7618L109.653 15.2988L110.452 16.5913L111.25 18.408L112.049 20.9983L112.848 22.0117L113.647 19.9125L114.446 20.8918L115.244 19.8341L116.043 20.1992L116.842 19.2649L117.641 20.1423L118.44 22.4774L119.239 23.2648L120.037 21.8293L120.836 22.0796L121.635 22.6206L122.434 22.8862L123.233 25.9412L124.031 27.0869L124.83 26.1092L125.629 26.0214L126.428 26.7702L127.227 24.6108L128.025 24.8229L128.824 25.9149L129.623 27.6376L130.422 23.3962L131.221 23.5223L132.02 23.2178L132.818 22.8315L133.617 22.8919L134.416 21.5983" stroke="#32CA5B" stroke-width="1.25"/>
</g>
<defs>
<clipPath id="clip0_2_384">
<rect width="135" height="50" fill="white" transform="translate(0.214844 0.547852)"/>
</clipPath>
</defs>
</svg>
