<svg width="136" height="51" viewBox="0 0 136 51" fill="none" xmlns="http://www.w3.org/2000/svg">
<g clip-path="url(#clip0_2_925)">
<path d="M0.796387 5.16179L1.5952 6.44439L2.39402 6.87877L3.19284 4.56205L3.99165 6.89237L4.79047 11.3185L5.58929 12.4521L6.3881 7.66204L7.18692 8.83709L7.98574 5.70733L8.78455 3.63097L9.58337 2.23832L10.3822 2.6734L11.181 1.0372L11.9798 0.84668L12.7786 1.46242L13.5775 2.82923L14.3763 2.07889L15.1751 4.0983L15.9739 5.65068L16.7727 9.26279L17.5715 27.6844L18.3704 21.999L19.1692 26.0284L19.968 31.766L20.7668 32.8789L21.5656 35.7431L22.3644 35.1747L23.1632 37.1431L23.9621 38.1805L24.7609 35.2941L25.5597 31.8763L26.3585 31.6362L27.1573 32.2493L27.9562 31.9323L28.755 31.8164L29.5538 34.1017L30.3526 32.0705L31.1514 33.2983L31.9502 33.3561L32.7491 39.871L33.5479 37.458L34.3467 37.4464L35.1455 37.8119L35.9443 35.1237L36.7431 35.711L37.542 32.1907L38.3408 36.2332L39.1396 36.7734L39.9384 43.2283L40.7372 42.4113L41.536 41.2029L42.3348 43.3666L43.1337 42.3599L43.9325 42.7835L44.7313 42.4664L45.5301 41.2925L46.3289 41.0865L47.1277 40.359L47.9266 40.3935L48.7254 42.0451L49.5242 41.9198L50.323 43.8326L51.1218 50.4055L51.9206 45.9779L52.7195 44.7757L53.5183 49.3471L54.3171 48.9774L55.1159 46.3371L55.9147 50.2882L56.7135 49.6449L57.5124 50.8467L58.3112 46.6323L59.11 45.8648L59.9088 43.175L60.7076 46.5405L61.5064 45.0468L62.3053 44.6279L63.1041 45.2118L63.9029 47.0825L64.7017 42.3716L65.5005 42.1342L66.2993 42.9992L67.0982 40.6904L67.897 37.8025L68.6958 40.7191L69.4946 39.8194L70.2934 38.4607L71.0922 42.08L71.8911 42.4091L72.6899 40.6507L73.4887 39.2585L74.2875 40.2297L75.0863 39.59L75.8851 37.537L76.684 34.85L77.4828 36.8125L78.2816 35.7808L79.0804 35.1906L79.8792 34.5532L80.678 36.8576L81.4769 37.984L82.2757 35.773L83.0745 33.5768L83.8733 34.5445L84.6721 36.4326L85.4709 37.3193L86.2698 35.7649L87.0686 35.2438L87.8674 34.846L88.6662 35.4389L89.465 35.3438L90.2638 34.499L91.0627 34.7978L91.8615 34.5887L92.6603 34.0414L93.4591 35.6138L94.2579 35.1385L95.0567 35.1318L95.8556 38.1705L96.6544 36.716L97.4532 38.8183L98.252 39.6535L99.0508 40.708L99.8496 37.4771L100.648 35.3449L101.447 35.9276L102.246 36.1472L103.045 35.343L103.844 37.1503L104.643 38.2888L105.441 37.5998L106.24 36.6967L107.039 36.6564L107.838 36.2608L108.637 36.2716L109.435 34.9309L110.234 35.3762L111.033 34.4707L111.832 34.4239L112.631 34.1752L113.43 32.0745L114.228 30.8117L115.027 32.6033L115.826 34.2369L116.625 33.0329L117.424 33.5317L118.222 33.1839L119.021 34.0881L119.82 32.2561L120.619 31.5507L121.418 27.5532L122.217 26.274L123.015 27.3368L123.814 25.7631L124.613 26.8183L125.412 27.8403L126.211 26.039L127.009 25.3227L127.808 26.8575L128.607 28.638L129.406 31.005L130.205 29.7112L131.003 30.2466L131.802 26.3346L132.601 26.4606L133.4 26.6932L134.199 24.4391L134.998 29.9975" stroke="#FF3A33" stroke-width="1.25"/>
</g>
<defs>
<clipPath id="clip0_2_925">
<rect width="135" height="50" fill="white" transform="translate(0.796387 0.84668)"/>
</clipPath>
</defs>
</svg>
