<svg width="136" height="51" viewBox="0 0 136 51" fill="none" xmlns="http://www.w3.org/2000/svg">
<g clip-path="url(#clip0_2_899)">
<path d="M0.796387 22.8112L1.5952 22.0697L2.39402 21.5111L3.19284 21.4807L3.99165 21.594L4.79047 23.8121L5.58929 21.7158L6.3881 19.5749L7.18692 15.2148L7.98574 15.9149L8.78455 15.6671L9.58337 15.8428L10.3822 18.0174L11.181 16.7569L11.9798 17.5328L12.7786 17.0831L13.5775 15.5953L14.3763 16.8202L15.1751 20.2414L15.9739 21.5803L16.7727 25.3311L17.5715 38.4178L18.3704 43.9309L19.1692 50.8467L19.968 46.2261L20.7668 45.256L21.5656 50.2226L22.3644 47.9428L23.1632 48.7352L23.9621 49.2179L24.7609 48.4468L25.5597 43.6606L26.3585 40.9107L27.1573 41.8102L27.9562 40.8179L28.755 38.9212L29.5538 37.2141L30.3526 37.6018L31.1514 38.4895L31.9502 40.6426L32.7491 43.5536L33.5479 45.5674L34.3467 46.6966L35.1455 49.407L35.9443 46.1267L36.7431 43.3172L37.542 40.9777L38.3408 41.4663L39.1396 42.7985L39.9384 47.6518L40.7372 44.0209L41.536 43.9913L42.3348 45.3835L43.1337 45.677L43.9325 43.0665L44.7313 41.4823L45.5301 41.4167L46.3289 41.4779L47.1277 40.3313L47.9266 41.5831L48.7254 42.039L49.5242 41.5515L50.323 50.4978L51.1218 48.1796L51.9206 45.764L52.7195 44.4396L53.5183 45.5659L54.3171 48.9131L55.1159 48.117L55.9147 49.5457L56.7135 49.3203L57.5124 47.3065L58.3112 47.4692L59.11 46.4789L59.9088 46.3292L60.7076 44.4106L61.5064 42.6994L62.3053 43.1717L63.1041 43.96L63.9029 41.3526L64.7017 37.7142L65.5005 39.9358L66.2993 38.4686L67.0982 37.0323L67.897 35.1339L68.6958 35.2767L69.4946 33.6426L70.2934 33.9975L71.0922 33.2267L71.8911 33.7127L72.6899 38.8051L73.4887 36.131L74.2875 40.1063L75.0863 38.6551L75.8851 36.3982L76.684 30.1339L77.4828 26.8539L78.2816 29.2138L79.0804 28.1129L79.8792 27.4326L80.678 27.5094L81.4769 29.8696L82.2757 30.2118L83.0745 29.5492L83.8733 28.8743L84.6721 30.7268L85.4709 31.6778L86.2698 32.4423L87.0686 31.5089L87.8674 31.1205L88.6662 30.9441L89.465 30.6255L90.2638 31.06L91.0627 30.6033L91.8615 28.3688L92.6603 29.0587L93.4591 30.0298L94.2579 29.3978L95.0567 30.3072L95.8556 29.7142L96.6544 29.8635L97.4532 30.1451L98.252 29.5346L99.0508 29.036L99.8496 29.1859L100.648 28.9449L101.447 29.6962L102.246 29.7165L103.045 26.8985L103.844 27.1093L104.643 27.1398L105.441 26.2997L106.24 26.1387L107.039 25.0794L107.838 24.7238L108.637 24.4133L109.435 23.4277L110.234 21.9685L111.033 21.3308L111.832 21.6082L112.631 25.0937L113.43 23.8192L114.228 24.0032L115.027 24.0589L115.826 24.6005L116.625 24.6379L117.424 24.6027L118.222 24.7093L119.021 23.2032L119.82 22.2627L120.619 17.0335L121.418 11.9307L122.217 8.9397L123.015 7.9463L123.814 9.68517L124.613 8.68675L125.412 7.35909L126.211 9.01657L127.009 8.2574L127.808 10.9757L128.607 11.5824L129.406 11.7884L130.205 9.95428L131.003 7.00306L131.802 0.84668L132.601 8.1305L133.4 8.82088L134.199 8.51979L134.998 12.7673" stroke="#32CA5B" stroke-width="1.25"/>
</g>
<defs>
<clipPath id="clip0_2_899">
<rect width="135" height="50" fill="white" transform="translate(0.796387 0.84668)"/>
</clipPath>
</defs>
</svg>
