<svg width="13" height="14" viewBox="0 0 13 14" fill="none" xmlns="http://www.w3.org/2000/svg">
<path d="M9.42139 6.06836C9.42139 5.39648 9.25732 4.77148 8.9292 4.19336C8.58545 3.61523 8.12451 3.1543 7.54639 2.81055C6.95264 2.48242 6.32764 2.31836 5.67139 2.31836C5.01514 2.31836 4.39014 2.48242 3.79639 2.81055C3.21826 3.1543 2.75732 3.61523 2.41357 4.19336C2.08545 4.77148 1.92139 5.39648 1.92139 6.06836C1.92139 6.74023 2.08545 7.36523 2.41357 7.94336C2.75732 8.52148 3.21826 8.98242 3.79639 9.32617C4.39014 9.6543 5.01514 9.81836 5.67139 9.81836C6.32764 9.81836 6.95264 9.6543 7.54639 9.32617C8.12451 8.98242 8.58545 8.52148 8.9292 7.94336C9.25732 7.36523 9.42139 6.74023 9.42139 6.06836ZM8.69482 9.88867C7.85107 10.5762 6.84326 10.9277 5.67139 10.9434C4.29639 10.9121 3.14795 10.4355 2.22607 9.51367C1.3042 8.5918 0.827637 7.44336 0.796387 6.06836C0.827637 4.69336 1.3042 3.54492 2.22607 2.62305C3.14795 1.70117 4.29639 1.22461 5.67139 1.19336C7.04639 1.22461 8.19482 1.70117 9.1167 2.62305C10.0386 3.54492 10.5151 4.69336 10.5464 6.06836C10.5308 7.24023 10.1792 8.24805 9.4917 9.0918L12.6323 12.2324C12.8511 12.498 12.8511 12.7637 12.6323 13.0293C12.3667 13.248 12.1011 13.248 11.8354 13.0293L8.69482 9.88867Z" fill="#64748B"/>
</svg>
