<svg width="136" height="51" viewBox="0 0 136 51" fill="none" xmlns="http://www.w3.org/2000/svg">
<g clip-path="url(#clip0_2_466)">
<path d="M0.214844 50.5479L1.01366 49.8437L1.81248 48.7924L2.61129 48.549L3.41011 48.4085L4.20893 48.2813L5.00774 47.6322L5.80656 46.3673L6.60538 47.5049L7.40419 47.1528L8.20301 47.4394L9.00183 45.6223L9.80064 45.6667L10.5995 45.7632L11.3983 45.0178L12.1971 45.8657L12.9959 44.6145L13.7947 43.2747L14.5935 43.9905L15.3924 43.3235L16.1912 40.6579L16.99 41.5062L17.7888 39.1561L18.5876 41.3067L19.3864 43.2068L20.1853 44.1271L20.9841 44.0737L21.7829 42.19L22.5817 43.1151L23.3805 42.2545L24.1793 40.6755L24.9782 42.5073L25.777 41.816L26.5758 39.6435L27.3746 41.5099L28.1734 41.2894L28.9722 42.4407L29.7711 40.3815L30.5699 40.5377L31.3687 40.7987L32.1675 42.4148L32.9663 43.3995L33.7651 43.0523L34.564 45.9734L35.3628 45.0148L36.1616 43.3158L36.9604 43.5724L37.7592 43.836L38.558 40.0034L39.3569 35.745L40.1557 36.314L40.9545 37.8568L41.7533 37.334L42.5521 35.4718L43.3509 36.2435L44.1498 35.6339L44.9486 34.7588L45.7474 34.8529L46.5462 33.3113L47.345 31.4455L48.1438 32.9444L48.9427 31.9839L49.7415 34.6963L50.5403 35.3251L51.3391 32.3057L52.1379 32.326L52.9367 28.9459L53.7356 23.726L54.5344 24.148L55.3332 24.9778L56.132 23.0972L56.9308 21.9966L57.7296 20.7625L58.5285 19.8258L59.3273 19.9678L60.1261 19.4276L60.9249 19.3313L61.7237 18.9122L62.5225 20.0421L63.3214 17.8206L64.1202 19.004L64.919 16.2034L65.7178 11.0408L66.5166 12.7365L67.3154 16.7637L68.1143 17.484L68.9131 15.9603L69.7119 14.3086L70.5107 16.4823L71.3095 15.1987L72.1083 15.8252L72.9072 15.2352L73.706 15.3084L74.5048 11.6245L75.3036 12.8735L76.1024 12.5642L76.9012 16.0218L77.7001 17.8131L78.4989 20.3474L79.2977 22.2392L80.0965 16.5465L80.8953 11.1702L81.6941 12.6616L82.493 14.5178L83.2918 13.587L84.0906 9.01431L84.8894 11.3872L85.6882 12.2309L86.487 10.6455L87.2859 11.6354L88.0847 10.9119L88.8835 11.5735L89.6823 11.8765L90.4811 11.0109L91.2799 10.364L92.0788 10.487L92.8776 9.28988L93.6764 8.264L94.4752 8.96956L95.274 12.0453L96.0728 10.7631L96.8717 11.8536L97.6705 15.3397L98.4693 14.6736L99.2681 15.4039L100.067 16.5881L100.866 14.993L101.665 18.6579L102.463 18.2521L103.262 19.1612L104.061 18.3884L104.86 17.5243L105.659 17.86L106.457 17.4325L107.256 13.4642L108.055 15.1851L108.854 14.5521L109.653 17.094L110.452 17.5918L111.25 12.3106L112.049 16.7215L112.848 16.3525L113.647 10.9879L114.446 13.4717L115.244 5.62117L116.043 8.58615L116.842 8.16776L117.641 13.1463L118.44 14.8242L119.239 15.0539L120.037 13.6169L120.836 13.9142L121.635 8.25512L122.434 5.73611L123.233 11.7082L124.031 11.755L124.83 6.32916L125.629 9.44754L126.428 7.75801L127.227 5.10241L128.025 4.51404L128.824 7.75434L129.623 12.4319L130.422 7.50815L131.221 6.57873L132.02 7.48048L132.818 4.26677L133.617 0.547852L134.416 2.98727" stroke="#32CA5B" stroke-width="1.25"/>
</g>
<defs>
<clipPath id="clip0_2_466">
<rect width="135" height="50" fill="white" transform="translate(0.214844 0.547852)"/>
</clipPath>
</defs>
</svg>
