<svg width="15" height="15" viewBox="0 0 15 15" fill="none" xmlns="http://www.w3.org/2000/svg">
<path d="M8.96484 0.394531C8.70964 0.394531 8.5 0.476562 8.33594 0.640625C8.17188 0.804688 8.08984 1.01432 8.08984 1.26953C8.08984 1.52474 8.17188 1.73438 8.33594 1.89844C8.5 2.0625 8.70964 2.14453 8.96484 2.14453H11.2344L5.71094 7.64062C5.54688 7.82292 5.46484 8.03255 5.46484 8.26953C5.46484 8.50651 5.54688 8.71615 5.71094 8.89844C5.89323 9.0625 6.10286 9.14453 6.33984 9.14453C6.57682 9.14453 6.78646 9.0625 6.96875 8.89844L12.4648 3.375V5.64453C12.4648 5.89974 12.5469 6.10938 12.7109 6.27344C12.875 6.4375 13.0846 6.51953 13.3398 6.51953C13.5951 6.51953 13.8047 6.4375 13.9688 6.27344C14.1328 6.10938 14.2148 5.89974 14.2148 5.64453V1.26953C14.2148 1.01432 14.1328 0.804688 13.9688 0.640625C13.8047 0.476562 13.5951 0.394531 13.3398 0.394531H8.96484ZM2.40234 1.26953C1.78255 1.28776 1.26302 1.4974 0.84375 1.89844C0.442708 2.31771 0.233073 2.83724 0.214844 3.45703V12.207C0.233073 12.8268 0.442708 13.3464 0.84375 13.7656C1.26302 14.1667 1.78255 14.3763 2.40234 14.3945H11.1523C11.7721 14.3763 12.2917 14.1667 12.7109 13.7656C13.112 13.3464 13.3216 12.8268 13.3398 12.207V9.14453C13.3398 8.88932 13.2578 8.67969 13.0938 8.51562C12.9297 8.35156 12.7201 8.26953 12.4648 8.26953C12.2096 8.26953 12 8.35156 11.8359 8.51562C11.6719 8.67969 11.5898 8.88932 11.5898 9.14453V12.207C11.5716 12.4805 11.4258 12.6263 11.1523 12.6445H2.40234C2.12891 12.6263 1.98307 12.4805 1.96484 12.207V3.45703C1.98307 3.18359 2.12891 3.03776 2.40234 3.01953H5.46484C5.72005 3.01953 5.92969 2.9375 6.09375 2.77344C6.25781 2.60938 6.33984 2.39974 6.33984 2.14453C6.33984 1.88932 6.25781 1.67969 6.09375 1.51562C5.92969 1.35156 5.72005 1.26953 5.46484 1.26953H2.40234Z" fill="#64748B"/>
</svg>
