<svg width="136" height="51" viewBox="0 0 136 51" fill="none" xmlns="http://www.w3.org/2000/svg">
<g clip-path="url(#clip0_2_751)">
<path d="M0.796387 8.66797L1.59996 7.99975L2.40353 4.42371L3.2071 5.72739L4.01067 8.42361L4.81424 9.82544L5.61782 8.02147L6.42139 9.09568L7.22496 9.13171L8.02853 5.49574L8.8321 4.85607L9.63567 4.31342L10.4392 1.7866L11.2428 0.84668L12.0464 1.79398L12.85 3.65004L13.6535 2.90843L14.4571 4.89062L15.2607 6.02729L16.0642 14.7164L16.8678 19.2031L17.6714 19.2763L18.475 21.3445L19.2785 25.0765L20.0821 27.1735L20.8857 35.4504L21.6892 41.8373L22.4928 40.7367L23.2964 41.6137L24.1 39.7532L24.9035 39.0189L25.7071 32.7423L26.5107 29.7288L27.3142 30.7538L28.1178 33.2018L28.9214 32.8208L29.725 31.4191L30.5285 30.6557L31.3321 29.9907L32.1357 36.6753L32.9392 35.3936L33.7428 37.0438L34.5464 40.6015L35.35 32.8671L36.1535 34.1939L36.9571 28.8145L37.7607 31.2852L38.5642 31.2455L39.3678 41.2441L40.1714 46.4308L40.975 40.3238L41.7785 42.6709L42.5821 41.6722L43.3857 43.6584L44.1892 37.5853L44.9928 39.2197L45.7964 37.4617L46.6 34.6924L47.4035 35.2041L48.2071 36.6162L49.0107 34.9046L49.8142 41.5322L50.6178 48.2659L51.4214 42.303L52.225 38.5591L53.0285 45.0442L53.8321 45.5289L54.6357 45.9178L55.4392 50.8467L56.2428 43.9563L57.0464 50.0151L57.85 44.1055L58.6535 44.2623L59.4571 38.9378L60.2607 43.9468L61.0642 41.391L61.8678 40.4152L62.6714 41.953L63.475 45.1422L64.2785 36.4829L65.0821 39.9966L65.8857 38.7295L66.6892 38.7533L67.4928 37.453L68.2964 37.4929L69.1 33.5976L69.9035 33.4208L70.7071 34.9993L71.5107 35.5218L72.3142 33.4816L73.1178 29.3279L73.9214 36.0968L74.725 36.7892L75.5285 28.8181L76.3321 22.5442L77.1357 26.7878L77.9392 22.4851L78.7428 21.7514L79.5464 22.1098L80.35 23.228L81.1535 26.3597L81.9571 25.4679L82.7607 25.1614L83.5642 26.6579L84.3678 29.1596L85.1714 28.3869L85.975 26.4186L86.7785 24.9102L87.5821 23.9262L88.3857 25.3671L89.1892 24.6989L89.9928 23.7861L90.7964 23.993L91.6 24.4718L92.4035 22.83L93.2071 24.3863L94.0107 24.2798L94.8142 24.2902L95.6178 27.5466L96.4214 26.4205L97.225 28.2681L98.0285 29.2159L98.8321 29.5584L99.6357 28.5655L100.439 26.7463L101.243 27.3409L102.046 27.8302L102.85 25.3257L103.654 26.9789L104.457 28.0213L105.261 28.1878L106.064 27.4651L106.868 26.9664L107.671 27.2968L108.475 26.596L109.279 25.4784L110.082 26.0423L110.886 25.1111L111.689 22.3036L112.493 23.6119L113.296 17.273L114.1 15.8302L114.904 18.8649L115.707 19.3372L116.511 17.6654L117.314 18.2529L118.118 19.1152L118.921 21.5931L119.725 18.9393L120.529 16.5746L121.332 4.82755L122.136 4.38796L122.939 5.60369L123.743 7.7321L124.546 7.86035L125.35 8.09963L126.154 5.40249L126.957 6.20576L127.761 7.53352L128.564 12.8393L129.368 18.8093L130.171 12.2861L130.975 15.5174L131.779 8.74843L132.582 6.27877L133.386 5.24838L134.189 4.6396L134.993 17.4831" stroke="#FF3A33" stroke-width="1.25"/>
</g>
<defs>
<clipPath id="clip0_2_751">
<rect width="135" height="50" fill="white" transform="translate(0.796387 0.84668)"/>
</clipPath>
</defs>
</svg>
