<svg width="136" height="51" viewBox="0 0 136 51" fill="none" xmlns="http://www.w3.org/2000/svg">
<g clip-path="url(#clip0_2_897)">
<path d="M0.796387 7.76629L1.5952 7.65362L2.39402 3.73534L3.19284 4.6017L3.99165 6.1217L4.79047 9.6822L5.58929 6.01196L6.3881 9.22971L7.18692 6.22531L7.98574 4.31709L8.78455 3.79954L9.58337 4.81322L10.3822 1.25757L11.181 0.84668L11.9798 1.53061L12.7786 1.50608L13.5775 1.38325L14.3763 4.74988L15.1751 7.79782L15.9739 13.0825L16.7727 14.0855L17.5715 21.4493L18.3704 23.2974L19.1692 18.7666L19.968 25.9003L20.7668 28.7738L21.5656 40.5645L22.3644 34.3549L23.1632 41.8373L23.9621 39.2041L24.7609 35.9294L25.5597 32.0589L26.3585 29.154L27.1573 27.9924L27.9562 32.8066L28.755 34.8905L29.5538 29.9229L30.3526 29.4099L31.1514 28.5502L31.9502 35.9752L32.7491 37.1042L33.5479 36.5141L34.3467 38.8551L35.1455 35.0257L35.9443 31.7378L36.7431 27.6298L37.542 30.083L38.3408 30.8196L39.1396 39.524L39.9384 48.9672L40.7372 40.0417L41.536 43.2069L42.3348 41.2203L43.1337 43.7097L43.9325 39.0616L44.7313 38.4894L45.5301 36.0253L46.3289 34.7652L47.1277 32.706L47.9266 37.2158L48.7254 33.5138L49.5242 40.4645L50.323 48.2414L51.1218 42.0599L51.9206 38.9079L52.7195 42.2294L53.5183 45.1469L54.3171 45.4766L55.1159 50.8467L55.9147 44.7527L56.7135 47.8138L57.5124 43.3976L58.3112 41.93L59.11 38.0487L59.9088 42.2375L60.7076 41.5035L61.5064 41.7717L62.3053 42.3118L63.1041 44.3282L63.9029 36.342L64.7017 36.2414L65.5005 39.2099L66.2993 37.9603L67.0982 36.6221L67.897 36.9474L68.6958 33.6184L69.4946 32.7872L70.2934 35.1509L71.0922 34.5306L71.8911 33.3105L72.6899 29.6478L73.4887 34.9935L74.2875 36.2278L75.0863 29.97L75.8851 22.6139L76.684 27.2078L77.4828 22.3981L78.2816 23.3063L79.0804 22.8502L79.8792 23.987L80.678 25.3362L81.4769 24.3554L82.2757 24.0143L83.0745 26.7822L83.8733 27.6042L84.6721 28.0868L85.4709 25.3392L86.2698 24.8486L87.0686 23.2265L87.8674 24.5801L88.6662 24.9012L89.465 23.0333L90.2638 23.5434L91.0627 23.2872L91.8615 22.4404L92.6603 22.741L93.4591 22.2479L94.2579 23.7027L95.0567 25.9321L95.8556 24.3573L96.6544 27.399L97.4532 28.6719L98.252 29.4929L99.0508 27.2301L99.8496 25.4669L100.648 24.5539L101.447 27.7938L102.246 26.5998L103.045 26.5362L103.844 27.1683L104.643 27.4832L105.441 27.2133L106.24 26.9714L107.039 25.9105L107.838 26.214L108.637 26.6428L109.435 25.7936L110.234 24.9344L111.033 24.0253L111.832 24.5947L112.631 16.4797L113.43 18.4915L114.228 18.7712L115.027 19.3386L115.826 19.4163L116.625 20.554L117.424 20.1159L118.222 21.1303L119.021 18.4679L119.82 16.5193L120.619 3.82889L121.418 3.70014L122.217 6.37762L123.015 6.04845L123.814 7.58785L124.613 10.2596L125.412 6.85686L126.211 7.40995L127.009 7.66265L127.808 9.12601L128.607 10.4333L129.406 12.0811L130.205 14.0788L131.003 9.20826L131.802 4.63159L132.601 5.75969L133.4 4.03868L134.199 4.29114L134.998 10.4155" stroke="#FF3A33" stroke-width="1.25"/>
</g>
<defs>
<clipPath id="clip0_2_897">
<rect width="135" height="50" fill="white" transform="translate(0.796387 0.84668)"/>
</clipPath>
</defs>
</svg>
