<svg width="136" height="51" viewBox="0 0 136 51" fill="none" xmlns="http://www.w3.org/2000/svg">
<g clip-path="url(#clip0_9_275)">
<path d="M0.214844 36.767L1.01366 34.5495L1.81248 32.9355L2.61129 33.98L3.41011 33.2769L4.20893 33.5753L5.00774 32.2041L5.80656 33.3211L6.60538 35.4295L7.40419 34.2846L8.20301 36.1261L9.00183 37.3467L9.80064 41.4324L10.5995 40.3847L11.3983 41.4673L12.1971 41.7116L12.9959 38.7296L13.7947 40.2417L14.5935 41.7102L15.3924 43.2272L16.1912 42.9932L16.99 43.9545L17.7888 41.2846L18.5876 44.5664L19.3864 45.2071L20.1853 45.9528L20.9841 44.9421L21.7829 45.1782L22.5817 46.5924L23.3805 44.2598L24.1793 43.5598L24.9782 44.6088L25.777 44.2727L26.5758 43.4894L27.3746 46.1086L28.1734 45.6838L28.9722 45.1632L29.7711 46.1359L30.5699 45.9137L31.3687 46.3208L32.1675 48.098L32.9663 48.5745L33.7651 48.3488L34.564 50.5479L35.3628 50.198L36.1616 49.7735L36.9604 50.1092L37.7592 42.3209L38.558 38.8624L39.3569 37.5582L40.1557 37.7411L40.9545 37.1373L41.7533 33.7062L42.5521 31.8107L43.3509 32.8074L44.1498 31.7172L44.9486 29.9416L45.7474 35.1047L46.5462 29.9026L47.345 29.8428L48.1438 27.0699L48.9427 28.9684L49.7415 27.0473L50.5403 29.0657L51.3391 27.2857L52.1379 25.3615L52.9367 25.9989L53.7356 24.8327L54.5344 23.9534L55.3332 23.6179L56.132 19.5088L56.9308 16.9667L57.7296 20.7967L58.5285 21.2652L59.3273 21.2113L60.1261 18.388L60.9249 20.4598L61.7237 18.6866L62.5225 17.1565L63.3214 17.4134L64.1202 14.7614L64.919 14.9338L65.7178 12.8261L66.5166 13.1279L67.3154 14.7706L68.1143 15.8093L68.9131 15.3688L69.7119 16.6607L70.5107 16.2507L71.3095 15.6492L72.1083 15.138L72.9072 15.3328L73.706 15.0071L74.5048 15.247L75.3036 14.5716L76.1024 14.1928L76.9012 16.2534L77.7001 19.0767L78.4989 17.6698L79.2977 21.6599L80.0965 21.3564L80.8953 20.073L81.6941 19.2141L82.493 21.1181L83.2918 19.4938L84.0906 17.8905L84.8894 18.1126L85.6882 18.7741L86.487 17.5859L87.2859 17.55L88.0847 17.0503L88.8835 17.837L89.6823 19.4007L90.4811 16.2653L91.2799 15.816L92.0788 17.0833L92.8776 15.7505L93.6764 16.3166L94.4752 15.0982L95.274 15.2871L96.0728 15.3152L96.8717 14.6388L97.6705 16.167L98.4693 12.9212L99.2681 10.9667L100.067 10.13L100.866 8.65259L101.665 7.20746L102.463 7.23646L103.262 5.83555L104.061 3.35227L104.86 3.20929L105.659 1.91071L106.457 2.52522L107.256 0.547852L108.055 1.71942L108.854 1.63975L109.653 4.86701L110.452 7.73077L111.25 8.44531L112.049 12.4396L112.848 12.9743L113.647 16.0305L114.446 16.0368L115.244 14.0753L116.043 16.5169L116.842 15.3355L117.641 13.8187L118.44 16.1836L119.239 14.4795L120.037 11.9702L120.836 11.5409L121.635 10.8568L122.434 7.30891L123.233 9.69152L124.031 9.00296L124.83 7.40564L125.629 5.60343L126.428 5.12077L127.227 5.57161L128.025 6.60011L128.824 6.37811L129.623 9.5598L130.422 7.83986L131.221 9.29416L132.02 8.84471L132.818 8.09531L133.617 6.81868L134.416 4.34245" stroke="#32CA5B" stroke-width="1.25"/>
</g>
<defs>
<clipPath id="clip0_9_275">
<rect width="135" height="50" fill="white" transform="translate(0.214844 0.547852)"/>
</clipPath>
</defs>
</svg>
