<svg width="15" height="15" viewBox="0 0 15 15" fill="none" xmlns="http://www.w3.org/2000/svg">
<path d="M0.871094 1.92578C0.907552 1.52474 1.1263 1.30599 1.52734 1.26953H2.40234C2.80339 1.30599 3.02214 1.52474 3.05859 1.92578V5.20703H3.49609C3.89714 5.24349 4.11589 5.46224 4.15234 5.86328C4.11589 6.26432 3.89714 6.48307 3.49609 6.51953H1.30859C0.907552 6.48307 0.688802 6.26432 0.652344 5.86328C0.688802 5.46224 0.907552 5.24349 1.30859 5.20703H1.74609V2.58203H1.52734C1.1263 2.54557 0.907552 2.32682 0.871094 1.92578ZM2.59375 9.71875C2.35677 9.51823 2.13802 9.52734 1.9375 9.74609L1.63672 10.1836C1.36328 10.4935 1.05339 10.5482 0.707031 10.3477C0.397135 10.0742 0.342448 9.76432 0.542969 9.41797L0.871094 8.98047C1.21745 8.52474 1.65495 8.28776 2.18359 8.26953C2.71224 8.2513 3.17708 8.45182 3.57812 8.87109C3.86979 9.21745 4.00651 9.60026 3.98828 10.0195C3.98828 10.457 3.84245 10.8398 3.55078 11.168L2.59375 12.207H3.49609C3.89714 12.2435 4.11589 12.4622 4.15234 12.8633C4.11589 13.2643 3.89714 13.4831 3.49609 13.5195H1.08984C0.816406 13.5013 0.615885 13.3737 0.488281 13.1367C0.397135 12.8633 0.433594 12.6263 0.597656 12.4258L2.56641 10.293C2.71224 10.1107 2.72135 9.91927 2.59375 9.71875ZM6.33984 2.14453H13.3398C13.5951 2.14453 13.8047 2.22656 13.9688 2.39062C14.1328 2.55469 14.2148 2.76432 14.2148 3.01953C14.2148 3.27474 14.1328 3.48438 13.9688 3.64844C13.8047 3.8125 13.5951 3.89453 13.3398 3.89453H6.33984C6.08464 3.89453 5.875 3.8125 5.71094 3.64844C5.54688 3.48438 5.46484 3.27474 5.46484 3.01953C5.46484 2.76432 5.54688 2.55469 5.71094 2.39062C5.875 2.22656 6.08464 2.14453 6.33984 2.14453ZM6.33984 6.51953H13.3398C13.5951 6.51953 13.8047 6.60156 13.9688 6.76562C14.1328 6.92969 14.2148 7.13932 14.2148 7.39453C14.2148 7.64974 14.1328 7.85938 13.9688 8.02344C13.8047 8.1875 13.5951 8.26953 13.3398 8.26953H6.33984C6.08464 8.26953 5.875 8.1875 5.71094 8.02344C5.54688 7.85938 5.46484 7.64974 5.46484 7.39453C5.46484 7.13932 5.54688 6.92969 5.71094 6.76562C5.875 6.60156 6.08464 6.51953 6.33984 6.51953ZM6.33984 10.8945H13.3398C13.5951 10.8945 13.8047 10.9766 13.9688 11.1406C14.1328 11.3047 14.2148 11.5143 14.2148 11.7695C14.2148 12.0247 14.1328 12.2344 13.9688 12.3984C13.8047 12.5625 13.5951 12.6445 13.3398 12.6445H6.33984C6.08464 12.6445 5.875 12.5625 5.71094 12.3984C5.54688 12.2344 5.46484 12.0247 5.46484 11.7695C5.46484 11.5143 5.54688 11.3047 5.71094 11.1406C5.875 10.9766 6.08464 10.8945 6.33984 10.8945Z" fill="#64748B"/>
</svg>
