<svg width="15" height="15" viewBox="0 0 15 15" fill="none" xmlns="http://www.w3.org/2000/svg">
<path d="M9.40967 1.13086C9.24561 0.857422 8.99951 0.711589 8.67139 0.693359C8.34326 0.711589 8.09717 0.857422 7.93311 1.13086L5.30811 5.50586C5.14404 5.79753 5.13493 6.08919 5.28076 6.38086C5.46305 6.6543 5.71826 6.80013 6.04639 6.81836H11.2964C11.6245 6.80013 11.8797 6.6543 12.062 6.38086C12.2078 6.08919 12.1987 5.79753 12.0347 5.50586L9.40967 1.13086ZM8.67139 9.22461V13.1621C8.67139 13.472 8.78076 13.7272 8.99951 13.9277C9.20003 14.1465 9.45524 14.2559 9.76514 14.2559H13.7026C14.0125 14.2559 14.2677 14.1465 14.4683 13.9277C14.687 13.7272 14.7964 13.472 14.7964 13.1621V9.22461C14.7964 8.91471 14.687 8.65951 14.4683 8.45898C14.2677 8.24023 14.0125 8.13086 13.7026 8.13086H9.76514C9.45524 8.13086 9.20003 8.24023 8.99951 8.45898C8.78076 8.65951 8.67139 8.91471 8.67139 9.22461ZM4.29639 14.6934C4.93441 14.6934 5.51774 14.5384 6.04639 14.2285C6.57503 13.9186 7.00342 13.4902 7.33154 12.9434C7.64144 12.3965 7.79639 11.8132 7.79639 11.1934C7.79639 10.5736 7.64144 9.99023 7.33154 9.44336C7.00342 8.89648 6.57503 8.4681 6.04639 8.1582C5.51774 7.84831 4.93441 7.69336 4.29639 7.69336C3.65837 7.69336 3.07503 7.84831 2.54639 8.1582C2.01774 8.4681 1.58936 8.89648 1.26123 9.44336C0.951335 9.99023 0.796387 10.5736 0.796387 11.1934C0.796387 11.8132 0.951335 12.3965 1.26123 12.9434C1.58936 13.4902 2.01774 13.9186 2.54639 14.2285C3.07503 14.5384 3.65837 14.6934 4.29639 14.6934Z" fill="#64748B"/>
</svg>
