<svg width="136" height="51" viewBox="0 0 136 51" fill="none" xmlns="http://www.w3.org/2000/svg">
<g clip-path="url(#clip0_2_923)">
<path d="M0.796387 10.6368L1.5952 9.67909L2.39402 8.29104L3.19284 8.25648L3.99165 10.8238L4.79047 11.9408L5.58929 8.89817L6.3881 9.83327L7.18692 10.3017L7.98574 5.3403L8.78455 3.19563L9.58337 4.81113L10.3822 2.11869L11.181 0.84668L11.9798 3.97054L12.7786 3.39728L13.5775 2.05106L14.3763 4.85139L15.1751 8.19306L15.9739 15.4511L16.7727 33.0024L17.5715 24.2054L18.3704 30.5372L19.1692 31.8578L19.968 33.9362L20.7668 38.8022L21.5656 38.9183L22.3644 35.1558L23.1632 39.3694L23.9621 38.6497L24.7609 37.2487L25.5597 33.7544L26.3585 30.7485L27.1573 31.3513L27.9562 23.7184L28.755 27.8994L29.5538 23.5091L30.3526 24.3691L31.1514 24.9496L31.9502 32.3014L32.7491 33.9469L33.5479 35.0585L34.3467 34.8365L35.1455 30.0249L35.9443 33.5962L36.7431 26.1976L37.542 31.558L38.3408 30.1167L39.1396 40.9035L39.9384 38.8619L40.7372 35.7043L41.536 36.3324L42.3348 36.9928L43.1337 38.7198L43.9325 35.9218L44.7313 33.9495L45.5301 35.0142L46.3289 33.6508L47.1277 35.2011L47.9266 37.1966L48.7254 36.5346L49.5242 41.561L50.323 47.2201L51.1218 41.222L51.9206 40.3199L52.7195 43.5264L53.5183 45.1564L54.3171 41.9989L55.1159 46.2168L55.9147 45.6477L56.7135 48.3764L57.5124 46.9001L58.3112 49.2712L59.11 46.7489L59.9088 49.8289L60.7076 46.8177L61.5064 46.4198L62.3053 50.0992L63.1041 50.8467L63.9029 45.9471L64.7017 47.2825L65.5005 47.7305L66.2993 46.6472L67.0982 43.7013L67.897 43.696L68.6958 42.4563L69.4946 39.6879L70.2934 43.4743L71.0922 42.9428L71.8911 41.7293L72.6899 38.4842L73.4887 39.4641L74.2875 38.0542L75.0863 35.7138L75.8851 31.2068L76.684 32.8254L77.4828 30.5429L78.2816 31.0641L79.0804 32.1078L79.8792 33.6573L80.678 35.5683L81.4769 36.0472L82.2757 34.8281L83.0745 36.4919L83.8733 39.3264L84.6721 39.0857L85.4709 38.2406L86.2698 36.5477L87.0686 35.0529L87.8674 36.4674L88.6662 34.8247L89.465 36.6794L90.2638 38.2272L91.0627 37.9232L91.8615 36.0294L92.6603 37.8141L93.4591 37.1652L94.2579 36.3138L95.0567 40.8922L95.8556 40.3946L96.6544 42.936L97.4532 44.6343L98.252 45.9797L99.0508 44.295L99.8496 42.5954L100.648 42.5541L101.447 43.0863L102.246 41.192L103.045 42.8135L103.844 43.7506L104.643 45.0097L105.441 44.1338L106.24 44.3182L107.039 44.7369L107.838 44.0204L108.637 43.1864L109.435 44.009L110.234 41.2843L111.033 41.6952L111.832 42.3696L112.631 36.1871L113.43 34.7798L114.228 35.4845L115.027 35.3796L115.826 34.3206L116.625 35.9412L117.424 36.1626L118.222 38.1512L119.021 35.4602L119.82 33.9508L120.619 26.5303L121.418 24.9326L122.217 24.3467L123.015 24.038L123.814 26.1222L124.613 26.9211L125.412 24.9393L126.211 24.4829L127.009 22.1603L127.808 25.4617L128.607 29.1296L129.406 24.4642L130.205 24.9344L131.003 21.1326L131.802 21.2968L132.601 17.334L133.4 14.209L134.199 16.019L134.998 23.4786" stroke="#FF3A33" stroke-width="1.25"/>
</g>
<defs>
<clipPath id="clip0_2_923">
<rect width="135" height="50" fill="white" transform="translate(0.796387 0.84668)"/>
</clipPath>
</defs>
</svg>
