<svg width="136" height="51" viewBox="0 0 136 51" fill="none" xmlns="http://www.w3.org/2000/svg">
<g clip-path="url(#clip0_2_506)">
<path d="M0.214844 50.5479L1.01366 47.3343L1.81248 43.7046L2.61129 44.1552L3.41011 42.6211L4.20893 42.0005L5.00774 41.2715L5.80656 42.347L6.60538 47.7192L7.40419 49.0859L8.20301 48.0197L9.00183 48.3374L9.80064 46.5776L10.5995 44.8717L11.3983 42.3026L12.1971 39.5026L12.9959 32.6375L13.7947 31.7284L14.5935 28.8188L15.3924 29.2732L16.1912 26.0686L16.99 28.119L17.7888 31.305L18.5876 35.4882L19.3864 37.7583L20.1853 39.2123L20.9841 40.2052L21.7829 38.8369L22.5817 39.753L23.3805 35.1568L24.1793 29.4289L24.9782 31.7956L25.777 24.8162L26.5758 25.2147L27.3746 30.0788L28.1734 33.4871L28.9722 34.351L29.7711 30.7192L30.5699 33.3861L31.3687 32.4169L32.1675 35.0661L32.9663 36.1118L33.7651 37.5192L34.564 42.0659L35.3628 36.431L36.1616 33.5875L36.9604 31.5789L37.7592 32.2242L38.558 28.8674L39.3569 28.9002L40.1557 28.1896L40.9545 30.9563L41.7533 28.3554L42.5521 23.952L43.3509 26.7944L44.1498 26.8126L44.9486 23.5464L45.7474 28.6433L46.5462 20.7819L47.345 16.4537L48.1438 17.1301L48.9427 18.0722L49.7415 23.5353L50.5403 23.305L51.3391 16.853L52.1379 18.6858L52.9367 18.8613L53.7356 16.0965L54.5344 17.5966L55.3332 19.4946L56.132 12.6882L56.9308 14.7474L57.7296 11.8784L58.5285 9.82088L59.3273 8.64569L60.1261 0.547852L60.9249 11.5773L61.7237 11.917L62.5225 11.7399L63.3214 9.40035L64.1202 8.70442L64.919 8.58234L65.7178 10.3353L66.5166 7.82427L67.3154 10.1908L68.1143 8.16058L68.9131 12.6133L69.7119 13.3865L70.5107 13.5392L71.3095 12.8461L72.1083 12.7424L72.9072 12.1227L73.706 11.929L74.5048 8.85302L75.3036 9.78118L76.1024 7.98965L76.9012 14.7917L77.7001 16.964L78.4989 19.8742L79.2977 22.3962L80.0965 17.8657L80.8953 16.1332L81.6941 18.6314L82.493 20.4977L83.2918 19.186L84.0906 19.1181L84.8894 18.477L85.6882 19.662L86.487 19.62L87.2859 19.3423L88.0847 19.6437L88.8835 21.5251L89.6823 21.9749L90.4811 20.6241L91.2799 18.9848L92.0788 21.4597L92.8776 20.076L93.6764 21.015L94.4752 18.917L95.274 20.7426L96.0728 22.0703L96.8717 25.4454L97.6705 27.3462L98.4693 24.5266L99.2681 25.2591L100.067 26.4552L100.866 23.8405L101.665 29.0333L102.463 26.0647L103.262 26.4412L104.061 23.7974L104.86 23.2056L105.659 18.9557L106.457 19.9978L107.256 17.6969L108.055 20.0393L108.854 19.5123L109.653 22.1621L110.452 22.8371L111.25 24.9845L112.049 31.3595L112.848 34.183L113.647 30.1729L114.446 31.7899L115.244 29.4087L116.043 30.3895L116.842 28.1626L117.641 30.4762L118.44 35.7102L119.239 36.1382L120.037 33.9223L120.836 31.6294L121.635 33.3402L122.434 35.1145L123.233 40.2459L124.031 39.6652L124.83 37.59L125.629 39.0374L126.428 37.9664L127.227 35.2048L128.025 36.6623L128.824 40.4205L129.623 42.264L130.422 36.0759L131.221 37.48L132.02 36.5692L132.818 32.6862L133.617 32.7708L134.416 29.0638" stroke="#32CA5B" stroke-width="1.25"/>
</g>
<defs>
<clipPath id="clip0_2_506">
<rect width="135" height="50" fill="white" transform="translate(0.214844 0.547852)"/>
</clipPath>
</defs>
</svg>
