<svg width="13" height="14" viewBox="0 0 13 14" fill="none" xmlns="http://www.w3.org/2000/svg">
<path d="M6.21477 0.894531C6.62102 0.894531 7.01165 0.933594 7.38665 1.01172C7.4804 1.02734 7.59759 1.06641 7.73821 1.12891C7.86321 1.20703 7.97259 1.32422 8.06634 1.48047C8.11321 1.55859 8.15227 1.65234 8.18352 1.76172L8.39446 2.65234C8.42571 2.73047 8.4804 2.79297 8.55852 2.83984C8.63665 2.88672 8.71477 2.90234 8.7929 2.88672L9.68353 2.62891C9.77728 2.59766 9.87103 2.58203 9.96478 2.58203C10.1523 2.58203 10.3085 2.62109 10.4335 2.69922C10.5742 2.77734 10.6757 2.85547 10.7382 2.93359C11.2538 3.52734 11.6367 4.20703 11.8867 4.97266C11.9335 5.06641 11.957 5.18359 11.957 5.32422C11.9726 5.48047 11.9335 5.63672 11.8398 5.79297C11.7773 5.87109 11.7148 5.94922 11.6523 6.02734L10.9726 6.66016C10.9257 6.72266 10.9023 6.80078 10.9023 6.89453C10.9023 6.98828 10.9257 7.06641 10.9726 7.12891L11.6523 7.76172C11.7148 7.83984 11.7773 7.91797 11.8398 7.99609C11.9179 8.16797 11.957 8.32422 11.957 8.46484C11.957 8.62109 11.9335 8.73828 11.8867 8.81641C11.6367 9.58203 11.2538 10.2617 10.7382 10.8555C10.6757 10.9336 10.5742 11.0117 10.4335 11.0898C10.3085 11.168 10.1523 11.207 9.96478 11.207C9.87103 11.207 9.77728 11.1914 9.68353 11.1602L8.7929 10.9023C8.71477 10.8867 8.63665 10.9023 8.55852 10.9492C8.4804 10.9961 8.42571 11.0586 8.39446 11.1367L8.18352 12.0273C8.15227 12.1367 8.11321 12.2305 8.06634 12.3086C7.97259 12.4648 7.86321 12.582 7.73821 12.6602C7.59759 12.7227 7.4804 12.7617 7.38665 12.7773C7.01165 12.8555 6.62102 12.8945 6.21477 12.8945C5.80852 12.8945 5.4179 12.8555 5.0429 12.7773C4.94915 12.7617 4.83196 12.7227 4.69134 12.6602C4.56634 12.582 4.45696 12.4648 4.36321 12.3086C4.31634 12.2305 4.27727 12.1367 4.24602 12.0273L4.03509 11.1367C4.00384 11.0586 3.94915 10.9961 3.87102 10.9492C3.7929 10.9023 3.71477 10.8867 3.63665 10.9023L2.74602 11.1602C2.65227 11.1914 2.55852 11.207 2.46477 11.207C2.27727 11.207 2.12102 11.168 1.99602 11.0898C1.8554 11.0117 1.76165 10.9336 1.71477 10.8555C1.18352 10.2617 0.792899 9.58203 0.542899 8.81641C0.496024 8.72266 0.472586 8.60547 0.472586 8.46484C0.456961 8.30859 0.496024 8.15234 0.589774 7.99609C0.652274 7.91797 0.714774 7.83984 0.777274 7.76172L1.45696 7.12891C1.50384 7.06641 1.52727 6.98828 1.52727 6.89453C1.52727 6.80078 1.50384 6.72266 1.45696 6.66016L0.777274 6.02734C0.714774 5.94922 0.652274 5.87109 0.589774 5.79297C0.496024 5.62109 0.456961 5.46484 0.472586 5.32422C0.472586 5.16797 0.496024 5.05078 0.542899 4.97266C0.792899 4.22266 1.18352 3.54297 1.71477 2.93359C1.76165 2.85547 1.8554 2.77734 1.99602 2.69922C2.12102 2.62109 2.27727 2.58203 2.46477 2.58203C2.55852 2.58203 2.65227 2.59766 2.74602 2.62891L3.63665 2.88672C3.71477 2.90234 3.7929 2.88672 3.87102 2.83984C3.94915 2.79297 4.00384 2.73047 4.03509 2.65234L4.24602 1.76172C4.27727 1.65234 4.31634 1.55859 4.36321 1.48047C4.45696 1.32422 4.56634 1.20703 4.69134 1.12891C4.83196 1.06641 4.94915 1.02734 5.0429 1.01172C5.4179 0.933594 5.80852 0.894531 6.21477 0.894531ZM5.32415 2.08984L5.13665 2.93359C5.02727 3.30859 4.7929 3.59766 4.43352 3.80078C4.07415 4.00391 3.69915 4.05859 3.30852 3.96484L2.51165 3.73047C2.12102 4.18359 1.82415 4.69922 1.62102 5.27734L2.2304 5.86328C2.51165 6.14453 2.65227 6.48828 2.65227 6.89453C2.65227 7.30078 2.51165 7.65234 2.2304 7.94922L1.62102 8.51172C1.82415 9.08984 2.12102 9.60547 2.51165 10.0586L3.33196 9.82422C3.70696 9.71484 4.07415 9.76953 4.43352 9.98828C4.7929 10.1914 5.02727 10.4805 5.13665 10.8555L5.32415 11.6992C5.9179 11.793 6.51165 11.793 7.1054 11.6992L7.31634 10.8555C7.42571 10.4805 7.65227 10.1914 7.99602 9.98828C8.3554 9.78516 8.7304 9.73047 9.12102 9.82422L9.9179 10.0586C10.3085 9.60547 10.6054 9.08984 10.8085 8.51172L10.1992 7.92578C9.9179 7.64453 9.77728 7.30078 9.77728 6.89453C9.77728 6.48828 9.9179 6.13672 10.1992 5.83984L10.8085 5.27734C10.6054 4.69922 10.3085 4.18359 9.9179 3.73047L9.12102 3.96484C8.7304 4.07422 8.3554 4.01953 7.99602 3.80078C7.65227 3.59766 7.42571 3.30078 7.31634 2.91016L7.1054 2.08984C6.51165 1.99609 5.9179 1.99609 5.32415 2.08984ZM5.08977 6.89453C5.1054 7.31641 5.2929 7.64453 5.65227 7.87891C6.02727 8.06641 6.40227 8.06641 6.77727 7.87891C7.13665 7.64453 7.32415 7.31641 7.33977 6.89453C7.32415 6.47266 7.13665 6.14453 6.77727 5.91016C6.40227 5.72266 6.02727 5.72266 5.65227 5.91016C5.2929 6.14453 5.1054 6.47266 5.08977 6.89453ZM6.21477 9.14453C5.80852 9.14453 5.43352 9.04297 5.08977 8.83984C4.74602 8.63672 4.47259 8.36328 4.26946 8.01953C4.06634 7.66016 3.96477 7.28516 3.96477 6.89453C3.96477 6.50391 4.06634 6.12891 4.26946 5.76953C4.47259 5.42578 4.74602 5.15234 5.08977 4.94922C5.43352 4.74609 5.80852 4.64453 6.21477 4.64453C6.62102 4.64453 6.99602 4.74609 7.33977 4.94922C7.68352 5.15234 7.95696 5.42578 8.16009 5.76953C8.36321 6.12891 8.46477 6.50391 8.46477 6.89453C8.46477 7.28516 8.36321 7.66016 8.16009 8.01953C7.95696 8.36328 7.68352 8.63672 7.33977 8.83984C6.99602 9.04297 6.62102 9.14453 6.21477 9.14453Z" fill="#0F172A"/>
</svg>
