<svg width="136" height="51" viewBox="0 0 136 51" fill="none" xmlns="http://www.w3.org/2000/svg">
<g clip-path="url(#clip0_9_257)">
<path d="M0.214844 25.9612L1.01366 22.9346L1.81248 27.2129L2.61129 43.0401L3.41011 13.0956L4.20893 31.145L5.00774 22.7328L5.80656 28.6167L6.60538 42.7916L7.40419 35.4771L8.20301 32.2645L9.00183 22.3965L9.80064 48.1991L10.5995 24.8268L11.3983 15.1581L12.1971 30.3435L12.9959 0.547852L13.7947 27.3513L14.5935 29.6116L15.3924 26.0325L16.1912 11.8972L16.99 35.3957L17.7888 34.8692L18.5876 34.3663L19.3864 35.5905L20.1853 24.7816L20.9841 36.7252L21.7829 23.281L22.5817 26.3697L23.3805 26.4399L24.1793 26.8747L24.9782 24.4991L25.777 13.8179L26.5758 41.1338L27.3746 27.04L28.1734 41.9281L28.9722 31.4553L29.7711 27.0985L30.5699 23.9342L31.3687 25.7003L32.1675 32.477L32.9663 27.1683L33.7651 25.5214L34.564 36.9502L35.3628 23.882L36.1616 29.0385L36.9604 31.6428L37.7592 24.7001L38.558 24.2237L39.3569 30.825L40.1557 26.6665L40.9545 34.9655L41.7533 29.0377L42.5521 32.3653L43.3509 32.3688L44.1498 29.9406L44.9486 20.3962L45.7474 9.02114L46.5462 17.7148L47.345 29.5397L48.1438 32.6049L48.9427 26.3039L49.7415 20.7444L50.5403 19.0467L51.3391 21.4739L52.1379 26.7785L52.9367 21.0405L53.7356 28.2654L54.5344 24.0512L55.3332 24.457L56.132 25.7541L56.9308 28.8799L57.7296 20.5465L58.5285 24.3871L59.3273 20.5774L60.1261 8.40647L60.9249 38.5681L61.7237 24.7399L62.5225 25.2233L63.3214 21.0514L64.1202 6.02495L64.919 11.4176L65.7178 19.7241L66.5166 50.5479L67.3154 28.839L68.1143 19.1808L68.9131 24.5565L69.7119 27.4883L70.5107 27.5156L71.3095 27.6667L72.1083 25.7432L72.9072 23.4371L73.706 24.5485L74.5048 22.8607L75.3036 26.9492L76.1024 24.0557L76.9012 31.213L77.7001 22.8273L78.4989 25.8747L79.2977 31.9633L80.0965 20.4456L80.8953 20.8416L81.6941 22.4605L82.493 27.2207L83.2918 18.4859L84.0906 24.0797L84.8894 25.4501L85.6882 22.2284L86.487 23.9001L87.2859 28.9636L88.0847 21.6811L88.8835 26.2387L89.6823 18.1295L90.4811 27.79L91.2799 22.0498L92.0788 18.8248L92.8776 21.9246L93.6764 29.4501L94.4752 31.3835L95.274 25.6687L96.0728 21.4301L96.8717 22.8927L97.6705 26.4487L98.4693 24.3155L99.2681 25.4063L100.067 20.7167L100.866 21.6594L101.665 27.983L102.463 22.2381L103.262 19.0459L104.061 28.4107L104.86 23.3529L105.659 23.7774L106.457 23.8259L107.256 20.0976L108.055 25.0692L108.854 15.4492L109.653 39.5605L110.452 21.5189L111.25 24.0774L112.049 33.4729L112.848 23.5484L113.647 24.516L114.446 29.3615L115.244 17.2622L116.043 25.4805L116.842 25.148L117.641 24.367L118.44 47.9489L119.239 22.2203L120.037 19.391L120.836 16.4283L121.635 39.3765L122.434 36.732L123.233 28.0146L124.031 28.7495L124.83 23.0664L125.629 8.29763L126.428 29.6715L127.227 30.6843L128.025 30.4343L128.824 39.9469L129.623 25.4459L130.422 25.9752L131.221 36.6748L132.02 30.8283L132.818 30.8401L133.617 30.7783L134.416 41.6839" stroke="#FF3A33" stroke-width="1.25"/>
</g>
<defs>
<clipPath id="clip0_9_257">
<rect width="135" height="50" fill="white" transform="translate(0.214844 0.547852)"/>
</clipPath>
</defs>
</svg>
