<svg width="136" height="51" viewBox="0 0 136 51" fill="none" xmlns="http://www.w3.org/2000/svg">
<g clip-path="url(#clip0_9_327)">
<path d="M0.214844 8.9928L1.01366 7.55372L1.81248 5.0223L2.61129 7.58105L3.41011 5.12654L4.20893 5.20419L5.00774 7.66222L5.80656 6.78337L6.60538 6.35166L7.40419 4.12651L8.20301 3.18778L9.00183 2.38752L9.80064 2.88092L10.5995 0.547852L11.3983 0.809651L12.1971 3.47763L12.9959 2.35148L13.7947 3.30218L14.5935 2.76347L15.3924 3.35575L16.1912 4.75229L16.99 4.49742L17.7888 5.65251L18.5876 6.8723L19.3864 4.81589L20.1853 4.37076L20.9841 1.93306L21.7829 1.61994L22.5817 3.06817L23.3805 4.08704L24.1793 2.96744L24.9782 3.86483L25.777 4.6594L26.5758 7.32036L27.3746 7.74269L28.1734 6.87339L28.9722 8.23259L29.7711 8.68572L30.5699 9.22762L31.3687 8.98125L32.1675 10.7718L32.9663 12.3478L33.7651 10.4928L34.564 12.1621L35.3628 10.5331L36.1616 10.2656L36.9604 11.0965L37.7592 10.3522L38.558 11.8808L39.3569 14.552L40.1557 13.6233L40.9545 15.1514L41.7533 11.4529L42.5521 9.84987L43.3509 13.5986L44.1498 15.4413L44.9486 13.9274L45.7474 13.1567L46.5462 12.7157L47.345 11.2262L48.1438 12.2047L48.9427 12.4784L49.7415 13.5009L50.5403 13.3986L51.3391 17.029L52.1379 17.3089L52.9367 14.9674L53.7356 17.7025L54.5344 17.966L55.3332 19.8675L56.132 18.916L56.9308 19.2231L57.7296 18.2679L58.5285 16.797L59.3273 17.5188L60.1261 17.2799L60.9249 18.6492L61.7237 20.0174L62.5225 17.8126L63.3214 16.536L64.1202 18.618L64.919 17.5256L65.7178 17.7855L66.5166 17.4183L67.3154 17.6154L68.1143 18.0324L68.9131 18.0254L69.7119 17.4022L70.5107 16.2832L71.3095 16.5262L72.1083 15.4258L72.9072 17.3908L73.706 15.7798L74.5048 14.4373L75.3036 13.7002L76.1024 18.62L76.9012 21.7567L77.7001 22.9052L78.4989 23.8858L79.2977 26.4831L80.0965 28.2776L80.8953 29.2187L81.6941 27.1992L82.493 26.8253L83.2918 27.242L84.0906 27.2089L84.8894 28.8355L85.6882 29.5935L86.487 30.4688L87.2859 29.5711L88.0847 30.1877L88.8835 30.5917L89.6823 27.4379L90.4811 29.2595L91.2799 29.3234L92.0788 31.4068L92.8776 30.344L93.6764 30.4485L94.4752 30.9478L95.274 33.1801L96.0728 35.0281L96.8717 36.3048L97.6705 42.6898L98.4693 43.6143L99.2681 33.5421L100.067 36.1436L100.866 37.1668L101.665 37.4587L102.463 37.6768L103.262 37.5103L104.061 39.1301L104.86 39.3257L105.659 39.1488L106.457 39.1192L107.256 38.7904L108.055 39.9192L108.854 39.7392L109.653 40.9503L110.452 43.8111L111.25 43.4931L112.049 49.5142L112.848 47.2383L113.647 43.9156L114.446 38.4867L115.244 37.4633L116.043 39.4766L116.842 43.6839L117.641 45.0276L118.44 48.2288L119.239 41.1817L120.037 42.5711L120.836 38.7035L121.635 41.4133L122.434 40.8762L123.233 41.3448L124.031 38.418L124.83 37.117L125.629 39.1668L126.428 41.2871L127.227 40.2198L128.025 40.9095L128.824 42.0853L129.623 40.6616L130.422 40.6883L131.221 45.6143L132.02 45.4344L132.818 50.5479L133.617 48.1267L134.416 44.8959" stroke="#FF3A33" stroke-width="1.25"/>
</g>
<defs>
<clipPath id="clip0_9_327">
<rect width="135" height="50" fill="white" transform="translate(0.214844 0.547852)"/>
</clipPath>
</defs>
</svg>
