<svg width="136" height="51" viewBox="0 0 136 51" fill="none" xmlns="http://www.w3.org/2000/svg">
<g clip-path="url(#clip0_2_853)">
<path d="M0.796387 9.23681L1.5952 8.35829L2.39402 5.30096L3.19284 4.79535L3.99165 5.2632L4.79047 7.74824L5.58929 9.06898L6.3881 6.09783L7.18692 8.00488L7.98574 6.31582L8.78455 4.39817L9.58337 3.06483L10.3822 1.19567L11.181 0.84668L11.9798 1.65571L12.7786 1.46762L13.5775 2.54452L14.3763 1.51878L15.1751 2.2596L15.9739 7.82329L16.7727 12.8579L17.5715 26.122L18.3704 24.2643L19.1692 37.591L19.968 28.2995L20.7668 30.6917L21.5656 39.1944L22.3644 37.8421L23.1632 36.7509L23.9621 37.4657L24.7609 36.4266L25.5597 28.2422L26.3585 26.5986L27.1573 25.7356L27.9562 26.7543L28.755 26.1305L29.5538 27.6306L30.3526 27.1414L31.1514 24.8048L31.9502 27.799L32.7491 32.9167L33.5479 32.5016L34.3467 34.0011L35.1455 37.6315L35.9443 32.1212L36.7431 33.5142L37.542 28.6013L38.3408 33.0859L39.1396 33.8579L39.9384 42.8909L40.7372 42.5709L41.536 38.7968L42.3348 40.8099L43.1337 41.5397L43.9325 42.7638L44.7313 40.5821L45.5301 40.3101L46.3289 39.2831L47.1277 38.5931L47.9266 38.4044L48.7254 42.0772L49.5242 40.3571L50.323 44.0674L51.1218 50.1656L51.9206 46.7017L52.7195 43.2599L53.5183 49.4513L54.3171 46.9527L55.1159 45.7168L55.9147 50.8467L56.7135 46.4306L57.5124 49.8006L58.3112 47.0643L59.11 46.7395L59.9088 45.1341L60.7076 48.7381L61.5064 45.4884L62.3053 45.8438L63.1041 46.0614L63.9029 46.443L64.7017 42.4853L65.5005 42.6907L66.2993 43.2675L67.0982 42.0863L67.897 39.9838L68.6958 41.1888L69.4946 39.0275L70.2934 36.3638L71.0922 38.0996L71.8911 37.4421L72.6899 36.4261L73.4887 33.4778L74.2875 35.7777L75.0863 35.1033L75.8851 31.5658L76.684 28.8528L77.4828 31.9185L78.2816 30.3337L79.0804 30.4194L79.8792 31.0981L80.678 31.4349L81.4769 32.9249L82.2757 31.8398L83.0745 31.202L83.8733 31.1265L84.6721 33.8735L85.4709 34.4453L86.2698 33.0339L87.0686 31.0941L87.8674 30.0435L88.6662 30.3909L89.465 29.669L90.2638 28.5545L91.0627 28.7751L91.8615 28.1724L92.6603 27.9331L93.4591 29.0471L94.2579 28.4966L95.0567 28.0792L95.8556 30.9549L96.6544 31.9219L97.4532 34.3072L98.252 35.401L99.0508 35.5495L99.8496 32.9823L100.648 29.8002L101.447 29.8478L102.246 29.296L103.045 27.1156L103.844 29.384L104.643 30.5354L105.441 30.8651L106.24 31.1367L107.039 30.7529L107.838 28.7064L108.637 27.9652L109.435 27.147L110.234 28.37L111.033 27.4103L111.832 27.1365L112.631 27.2838L113.43 23.5521L114.228 22.7418L115.027 24.888L115.826 24.2471L116.625 23.1114L117.424 23.7404L118.222 23.4517L119.021 25.2411L119.82 22.9117L120.619 20.7847L121.418 14.4267L122.217 16.42L123.015 14.2923L123.814 16.6142L124.613 17.6753L125.412 19.4741L126.211 16.6612L127.009 17.831L127.808 19.2184L128.607 24.4483L129.406 25.1052L130.205 21.9635L131.003 23.0577L131.802 19.688L132.601 16.2622L133.4 21.0047L134.199 19.3749L134.998 27.8879" stroke="#FF3A33" stroke-width="1.25"/>
</g>
<defs>
<clipPath id="clip0_2_853">
<rect width="135" height="50" fill="white" transform="translate(0.796387 0.84668)"/>
</clipPath>
</defs>
</svg>
