<svg width="48" height="48" viewBox="0 0 48 48" fill="none" xmlns="http://www.w3.org/2000/svg">
<g clip-path="url(#clip0_3_826)">
<mask id="mask0_3_826" style="mask-type:luminance" maskUnits="userSpaceOnUse" x="0" y="0" width="48" height="48">
<path d="M48 0H0V48H48V0Z" fill="white"/>
</mask>
<g mask="url(#mask0_3_826)">
<path d="M38.2041 0.122449H9.79592C4.45341 0.122449 0.122452 4.45341 0.122452 9.79592V38.2041C0.122452 43.5466 4.45341 47.8775 9.79592 47.8775H38.2041C43.5466 47.8775 47.8776 43.5466 47.8776 38.2041V9.79592C47.8776 4.45341 43.5466 0.122449 38.2041 0.122449Z" fill="url(#paint0_linear_3_826)" stroke="#3F3F3F" stroke-width="0.244898"/>
<path d="M33.4461 9.79592H15.2537C13.3215 9.79592 11.7551 11.3623 11.7551 13.2945V35.6851C11.7551 37.6173 13.3215 39.1837 15.2537 39.1837H33.4461C35.3783 39.1837 36.9446 37.6173 36.9446 35.6851V13.2945C36.9446 11.3623 35.3783 9.79592 33.4461 9.79592Z" fill="#00D092"/>
<path d="M31.9267 26.78H21.6472C21.3574 26.78 21.1225 27.0149 21.1225 27.3048V27.3048C21.1225 27.5946 21.3574 27.8295 21.6472 27.8295H31.9267C32.2165 27.8295 32.4514 27.5946 32.4514 27.3048C32.4514 27.0149 32.2165 26.78 31.9267 26.78Z" fill="white"/>
<path d="M19.6081 27.2091C19.6081 26.393 18.9466 25.7315 18.1306 25.7315C17.3146 25.7315 16.6531 26.393 16.6531 27.2091C16.6531 28.0251 17.3146 28.6866 18.1306 28.6866C18.9466 28.6866 19.6081 28.0251 19.6081 27.2091Z" fill="white"/>
<path d="M31.9267 32.4107H21.6472C21.3574 32.4107 21.1225 32.6456 21.1225 32.9355V32.9355C21.1225 33.2253 21.3574 33.4602 21.6472 33.4602H31.9267C32.2165 33.4602 32.4514 33.2253 32.4514 32.9355C32.4514 32.6456 32.2165 32.4107 31.9267 32.4107Z" fill="white"/>
<path d="M19.6081 33.0866C19.6081 32.2706 18.9466 31.6091 18.1306 31.6091C17.3146 31.6091 16.6531 32.2706 16.6531 33.0866C16.6531 33.9026 17.3146 34.5642 18.1306 34.5642C18.9466 34.5642 19.6081 33.9026 19.6081 33.0866Z" fill="white"/>
<path fill-rule="evenodd" clip-rule="evenodd" d="M31.5301 14.5841C31.8154 14.7491 31.8795 15.0679 31.6731 15.2961L28.9695 18.286L25.787 16.5703L23.0285 19.4562L20.3214 17.346L17.7312 19.8421C17.5063 20.0588 17.1045 20.0887 16.8336 19.9087C16.5627 19.7289 16.5254 19.4074 16.7503 19.1907L20.2224 15.8449L22.8889 17.9233L25.5037 15.1877L28.6593 16.8889L30.6402 14.6984C30.8465 14.4701 31.245 14.419 31.5301 14.5841Z" fill="white"/>
</g>
</g>
<defs>
<linearGradient id="paint0_linear_3_826" x1="24" y1="8.61593e-09" x2="24" y2="48" gradientUnits="userSpaceOnUse">
<stop stop-color="#515151" stop-opacity="0.61"/>
<stop offset="1" stop-color="#1B1B1B" stop-opacity="0"/>
</linearGradient>
<clipPath id="clip0_3_826">
<rect width="48" height="48" fill="white"/>
</clipPath>
</defs>
</svg>
