<svg width="136" height="51" viewBox="0 0 136 51" fill="none" xmlns="http://www.w3.org/2000/svg">
<g clip-path="url(#clip0_2_865)">
<path d="M0.796387 3.30514L1.5952 4.56481L2.39402 3.58858L3.19284 1.4321L3.99165 4.01484L4.79047 8.23486L5.58929 10.3324L6.3881 6.50852L7.18692 6.50524L7.98574 7.56892L8.78455 4.86405L9.58337 5.32037L10.3822 7.27479L11.181 4.32977L11.9798 3.31259L12.7786 3.93953L13.5775 2.89418L14.3763 0.84668L15.1751 3.28129L15.9739 3.92628L16.7727 10.4765L17.5715 23.184L18.3704 23.0851L19.1692 27.71L19.968 29.791L20.7668 30.7645L21.5656 33.401L22.3644 32.7679L23.1632 33.8458L23.9621 35.628L24.7609 35.2139L25.5597 33.2028L26.3585 31.9162L27.1573 30.6593L27.9562 30.9018L28.755 33.5574L29.5538 33.1794L30.3526 28.8701L31.1514 29.2334L31.9502 29.2787L32.7491 36.235L33.5479 36.7407L34.3467 37.0087L35.1455 38.5368L35.9443 35.0944L36.7431 36.272L37.542 31.5328L38.3408 36.7262L39.1396 38.1262L39.9384 46.0535L40.7372 44.0629L41.536 43.9248L42.3348 45.4252L43.1337 42.8479L43.9325 43.3452L44.7313 41.331L45.5301 41.0414L46.3289 40.2233L47.1277 38.9188L47.9266 37.8978L48.7254 39.1364L49.5242 38.6905L50.323 40.3693L51.1218 47.1348L51.9206 43.1823L52.7195 41.8561L53.5183 43.9818L54.3171 47.4877L55.1159 45.2661L55.9147 48.1243L56.7135 47.2389L57.5124 50.8467L58.3112 47.6507L59.11 48.4184L59.9088 45.9669L60.7076 47.1062L61.5064 44.6299L62.3053 42.6567L63.1041 42.9025L63.9029 46.3118L64.7017 41.1752L65.5005 43.4934L66.2993 44.0398L67.0982 43.0739L67.897 41.5652L68.6958 42.7123L69.4946 41.1121L70.2934 39.5678L71.0922 40.2296L71.8911 42.1479L72.6899 39.0618L73.4887 38.9668L74.2875 38.5655L75.0863 39.2919L75.8851 35.2822L76.684 34.2362L77.4828 37.1433L78.2816 35.5898L79.0804 35.0669L79.8792 35.2683L80.678 35.9793L81.4769 35.2744L82.2757 33.6141L83.0745 33.7647L83.8733 34.9215L84.6721 38.681L85.4709 38.4283L86.2698 37.1346L87.0686 35.0929L87.8674 33.719L88.6662 33.1072L89.465 34.0065L90.2638 30.2296L91.0627 31.2008L91.8615 31.1461L92.6603 31.0729L93.4591 34.695L94.2579 34.2862L95.0567 33.5167L95.8556 37.0163L96.6544 36.637L97.4532 38.5892L98.252 39.8155L99.0508 41.6711L99.8496 38.9841L100.648 37.0552L101.447 37.5501L102.246 37.1475L103.045 35.0606L103.844 36.2581L104.643 37.6842L105.441 38.8184L106.24 36.6256L107.039 36.8507L107.838 35.6838L108.637 35.2365L109.435 33.2463L110.234 34.4148L111.033 32.5152L111.832 31.1262L112.631 33.1444L113.43 28.5249L114.228 27.0853L115.027 29.8572L115.826 29.6904L116.625 28.6435L117.424 30.1513L118.222 30.2411L119.021 31.2058L119.82 28.1772L120.619 27.4586L121.418 18.1095L122.217 16.403L123.015 15.8811L123.814 13.0616L124.613 15.6517L125.412 17.9087L126.211 16.0483L127.009 15.9841L127.808 17.9209L128.607 20.5048L129.406 22.6492L130.205 21.6314L131.003 20.8794L131.802 14.8894L132.601 14.5859L133.4 12.414L134.199 15.9432L134.998 22.1536" stroke="#FF3A33" stroke-width="1.25"/>
</g>
<defs>
<clipPath id="clip0_2_865">
<rect width="135" height="50" fill="white" transform="translate(0.796387 0.84668)"/>
</clipPath>
</defs>
</svg>
