<svg width="136" height="51" viewBox="0 0 136 51" fill="none" xmlns="http://www.w3.org/2000/svg">
<g clip-path="url(#clip0_2_879)">
<path d="M0.796387 10.0323L1.5952 9.14646L2.39402 7.39604L3.19284 6.99159L3.99165 8.07234L4.79047 8.66696L5.58929 6.0329L6.3881 5.80183L7.18692 5.61573L7.98574 3.97774L8.78455 2.18917L9.58337 2.19872L10.3822 0.84668L11.181 1.196L11.9798 1.83202L12.7786 2.99436L13.5775 2.3956L14.3763 3.80204L15.1751 5.08858L15.9739 11.1464L16.7727 22.9565L17.5715 19.7382L18.3704 24.218L19.1692 22.7002L19.968 24.3516L20.7668 24.292L21.5656 31.4158L22.3644 29.8898L23.1632 31.0076L23.9621 30.9097L24.7609 29.7281L25.5597 26.5372L26.3585 24.8699L27.1573 24.9292L27.9562 25.6768L28.755 26.7395L29.5538 25.755L30.3526 26.5009L31.1514 26.3696L31.9502 30.4071L32.7491 30.6335L33.5479 30.2213L34.3467 33.1299L35.1455 30.4079L35.9443 32.8913L36.7431 28.7512L37.542 29.4246L38.3408 30.3081L39.1396 36.5719L39.9384 40.3757L40.7372 39.0932L41.536 40.6159L42.3348 40.8666L43.1337 43.4013L43.9325 40.6531L44.7313 40.1275L45.5301 40.0017L46.3289 38.6389L47.1277 38.4618L47.9266 40.3777L48.7254 39.5542L49.5242 43.0586L50.323 47.5855L51.1218 47.0591L51.9206 43.0017L52.7195 45.9632L53.5183 45.1045L54.3171 45.7755L55.1159 50.6989L55.9147 47.4659L56.7135 50.8467L57.5124 47.0354L58.3112 47.0213L59.11 45.3507L59.9088 46.732L60.7076 45.8122L61.5064 45.4735L62.3053 45.4816L63.1041 46.5121L63.9029 41.214L64.7017 42.2181L65.5005 43.2801L66.2993 42.2818L67.0982 41.6806L67.897 41.5845L68.6958 40.2984L69.4946 40.3989L70.2934 41.3217L71.0922 41.6632L71.8911 40.4605L72.6899 39.8526L73.4887 41.7969L74.2875 42.8773L75.0863 35.957L75.8851 32.5498L76.684 35.515L77.4828 34.1182L78.2816 33.5855L79.0804 33.7897L79.8792 33.9482L80.678 35.0563L81.4769 35.5094L82.2757 34.5784L83.0745 35.4671L83.8733 38.1953L84.6721 38.1376L85.4709 37.3154L86.2698 35.4473L87.0686 35.4821L87.8674 35.4602L88.6662 35.4L89.465 34.4927L90.2638 34.5459L91.0627 35.0015L91.8615 35.2255L92.6603 36.0974L93.4591 36.5286L94.2579 36.4607L95.0567 37.4584L95.8556 37.6667L96.6544 38.3433L97.4532 38.9745L98.252 39.1396L99.0508 37.7283L99.8496 35.4723L100.648 36.4462L101.447 36.6045L102.246 35.3419L103.045 35.5162L103.844 35.796L104.643 35.7437L105.441 35.7589L106.24 35.2142L107.039 35.5377L107.838 34.7626L108.637 34.1312L109.435 35.0914L110.234 34.0307L111.033 33.6088L111.832 33.1012L112.631 31.4412L113.43 31.1809L114.228 32.5488L115.027 31.7733L115.826 30.9368L116.625 31.9211L117.424 32.3316L118.222 35.579L119.021 32.3446L119.82 32.3349L120.619 25.1673L121.418 25.0549L122.217 22.1596L123.015 23.9064L123.814 24.3842L124.613 26.0295L125.412 25.2282L126.211 25.8125L127.009 25.6385L127.808 29.6623L128.607 31.7676L129.406 28.6628L130.205 28.3761L131.003 27.6446L131.802 23.3316L132.601 26.1068L133.4 27.1167L134.199 27.1024L134.998 34.6974" stroke="#FF3A33" stroke-width="1.25"/>
</g>
<defs>
<clipPath id="clip0_2_879">
<rect width="135" height="50" fill="white" transform="translate(0.796387 0.84668)"/>
</clipPath>
</defs>
</svg>
