<svg width="136" height="51" viewBox="0 0 136 51" fill="none" xmlns="http://www.w3.org/2000/svg">
<g clip-path="url(#clip0_2_454)">
<path d="M0.214844 48.9228L1.01366 48.2372L1.81248 45.7455L2.61129 45.3061L3.41011 46.4189L4.20893 46.9771L5.00774 45.4627L5.80656 44.7416L6.60538 48.2664L7.40419 50.5479L8.20301 50.0466L9.00183 48.5781L9.80064 45.6685L10.5995 43.865L11.3983 37.3574L12.1971 39.1648L12.9959 36.8794L13.7947 36.0876L14.5935 36.5861L15.3924 30.1413L16.1912 29.2528L16.99 27.9201L17.7888 26.6601L18.5876 30.7836L19.3864 33.5412L20.1853 36.6541L20.9841 37.6516L21.7829 36.5592L22.5817 37.4803L23.3805 37.9467L24.1793 35.5479L24.9782 38.0518L25.777 36.9225L26.5758 35.4983L27.3746 39.4602L28.1734 39.4187L28.9722 41.1187L29.7711 38.9118L30.5699 39.7367L31.3687 39.0013L32.1675 39.5066L32.9663 44.2351L33.7651 45.7308L34.564 50.4383L35.3628 47.9107L36.1616 44.9584L36.9604 42.9669L37.7592 41.312L38.558 37.1327L39.3569 36.9995L40.1557 33.8202L40.9545 35.9219L41.7533 32.1654L42.5521 31.6878L43.3509 32.1227L44.1498 31.9009L44.9486 33.0244L45.7474 29.9391L46.5462 25.9251L47.345 21.3794L48.1438 26.4216L48.9427 24.9942L49.7415 27.7124L50.5403 32.6919L51.3391 33.6716L52.1379 35.1373L52.9367 31.9119L53.7356 30.0184L54.5344 31.1777L55.3332 32.1272L56.132 27.4538L56.9308 26.4533L57.7296 23.7567L58.5285 22.7215L59.3273 24.0179L60.1261 21.9748L60.9249 21.6897L61.7237 25.0858L62.5225 18.1092L63.3214 19.6056L64.1202 19.945L64.919 15.4469L65.7178 16.1525L66.5166 7.62436L67.3154 14.0266L68.1143 13.4284L68.9131 12.8634L69.7119 11.2593L70.5107 8.21076L71.3095 0.547852L72.1083 4.84803L72.9072 6.98667L73.706 7.09664L74.5048 4.6608L75.3036 4.33367L76.1024 8.46225L76.9012 11.3183L77.7001 13.061L78.4989 16.3584L79.2977 21.7109L80.0965 19.0995L80.8953 15.052L81.6941 16.0567L82.493 19.4131L83.2918 18.0388L84.0906 15.8949L84.8894 16.1519L85.6882 19.553L86.487 18.127L87.2859 17.0218L88.0847 16.614L88.8835 17.6571L89.6823 19.2012L90.4811 17.9663L91.2799 16.8165L92.0788 18.7266L92.8776 17.6536L93.6764 17.6467L94.4752 16.4867L95.274 19.4324L96.0728 18.9361L96.8717 22.4242L97.6705 24.2215L98.4693 23.2458L99.2681 22.3165L100.067 22.5044L100.866 21.3182L101.665 24.3854L102.463 20.8576L103.262 22.5196L104.061 18.9793L104.86 19.1781L105.659 15.8033L106.457 15.364L107.256 12.5509L108.055 15.9986L108.854 14.7459L109.653 18.1318L110.452 17.8361L111.25 14.641L112.049 21.3333L112.848 27.4517L113.647 24.8591L114.446 25.2134L115.244 21.7785L116.043 23.5697L116.842 23.4365L117.641 22.955L118.44 31.4447L119.239 31.7597L120.037 28.1594L120.836 26.7343L121.635 29.9737L122.434 31.0636L123.233 36.1269L124.031 35.7676L124.83 34.3122L125.629 35.9692L126.428 35.8227L127.227 33.6404L128.025 34.7049L128.824 38.631L129.623 42.6313L130.422 37.9327L131.221 36.9988L132.02 37.2271L132.818 34.2828L133.617 31.4758L134.416 30.5948" stroke="#32CA5B" stroke-width="1.25"/>
</g>
<defs>
<clipPath id="clip0_2_454">
<rect width="135" height="50" fill="white" transform="translate(0.214844 0.547852)"/>
</clipPath>
</defs>
</svg>
