<svg width="136" height="51" viewBox="0 0 136 51" fill="none" xmlns="http://www.w3.org/2000/svg">
<g clip-path="url(#clip0_2_448)">
<path d="M0.214844 48.2564L1.01366 47.0215L1.81248 45.8251L2.61129 45.537L3.41011 47.2442L4.20893 48.2953L5.00774 46.2284L5.80656 46.1741L6.60538 50.5479L7.40419 50.3783L8.20301 49.7146L9.00183 48.7807L9.80064 46.2778L10.5995 45.4306L11.3983 39.8067L12.1971 37.5272L12.9959 37.2789L13.7947 35.277L14.5935 38.1858L15.3924 35.1851L16.1912 31.8054L16.99 32.4961L17.7888 33.7967L18.5876 36.6187L19.3864 38.1291L20.1853 41.3914L20.9841 39.5801L21.7829 38.8134L22.5817 36.9793L23.3805 37.7919L24.1793 37.2541L24.9782 39.8105L25.777 38.8139L26.5758 35.3969L27.3746 38.272L28.1734 41.0324L28.9722 44.2419L29.7711 42.0177L30.5699 41.0313L31.3687 40.7994L32.1675 42.2879L32.9663 43.5243L33.7651 46.0889L34.564 49.772L35.3628 45.7106L36.1616 44.0994L36.9604 41.4858L37.7592 41.9554L38.558 36.3036L39.3569 37.5005L40.1557 34.9848L40.9545 37.2607L41.7533 33.2808L42.5521 33.4333L43.3509 34.4013L44.1498 35.5888L44.9486 35.5899L45.7474 37.2157L46.5462 29.5854L47.345 30.3398L48.1438 35.5072L48.9427 33.399L49.7415 37.3367L50.5403 36.3447L51.3391 34.8512L52.1379 34.9812L52.9367 32.154L53.7356 29.7663L54.5344 32.662L55.3332 32.9361L56.132 25.6606L56.9308 25.7748L57.7296 23.2056L58.5285 20.5733L59.3273 23.3357L60.1261 21.5083L60.9249 21.7204L61.7237 24.3218L62.5225 14.6489L63.3214 14.744L64.1202 13.8673L64.919 8.36085L65.7178 8.00154L66.5166 1.70593L67.3154 6.53424L68.1143 3.96751L68.9131 4.80224L69.7119 4.74746L70.5107 4.74002L71.3095 1.44919L72.1083 4.03012L72.9072 2.77222L73.706 1.52255L74.5048 0.547852L75.3036 3.38761L76.1024 4.47418L76.9012 8.71583L77.7001 10.2784L78.4989 12.3475L79.2977 15.8178L80.0965 12.6867L80.8953 8.24218L81.6941 8.25636L82.493 10.2756L83.2918 6.33048L84.0906 5.45906L84.8894 5.47185L85.6882 9.8773L86.487 8.93464L87.2859 9.28568L88.0847 8.07368L88.8835 9.25785L89.6823 10.0301L90.4811 8.85753L91.2799 8.38812L92.0788 10.5973L92.8776 9.07546L93.6764 6.89934L94.4752 6.07348L95.274 9.65371L96.0728 11.1956L96.8717 13.3413L97.6705 16.0925L98.4693 15.4365L99.2681 12.3043L100.067 12.846L100.866 11.7147L101.665 14.962L102.463 13.4464L103.262 14.0964L104.061 9.81164L104.86 8.12978L105.659 4.62618L106.457 4.89891L107.256 3.26509L108.055 5.64334L108.854 1.05506L109.653 5.96569L110.452 3.95662L111.25 0.94475L112.049 10.6998L112.848 17.696L113.647 18.4085L114.446 17.3403L115.244 8.4786L116.043 13.4817L116.842 9.91809L117.641 12.6502L118.44 18.9385L119.239 21.6055L120.037 19.2273L120.836 17.3533L121.635 19.7397L122.434 21.9648L123.233 28.3051L124.031 28.9827L124.83 27.246L125.629 28.003L126.428 26.4531L127.227 24.0538L128.025 26.0942L128.824 31.9953L129.623 33.9515L130.422 27.5844L131.221 26.2944L132.02 25.1344L132.818 20.7991L133.617 15.7463L134.416 13.1836" stroke="#32CA5B" stroke-width="1.25"/>
</g>
<defs>
<clipPath id="clip0_2_448">
<rect width="135" height="50" fill="white" transform="translate(0.214844 0.547852)"/>
</clipPath>
</defs>
</svg>
