<svg width="136" height="51" viewBox="0 0 136 51" fill="none" xmlns="http://www.w3.org/2000/svg">
<g clip-path="url(#clip0_2_823)">
<path d="M0.796387 0.84668L1.5952 2.94932L2.39402 5.12425L3.19284 4.0294L3.99165 4.73694L4.79047 5.94296L5.58929 4.4826L6.3881 4.51001L7.18692 9.56293L7.98574 9.37845L8.78455 14.6236L9.58337 12.1401L10.3822 12.3005L11.181 12.1364L11.9798 10.8563L12.7786 5.0171L13.5775 8.60065L14.3763 4.44352L15.1751 6.48516L15.9739 6.69406L16.7727 5.17717L17.5715 11.28L18.3704 14.0113L19.1692 24.7452L19.968 31.202L20.7668 33.5776L21.5656 32.2678L22.3644 32.4868L23.1632 25.5102L23.9621 29.835L24.7609 29.4863L25.5597 25.4504L26.3585 22.0206L27.1573 18.7509L27.9562 19.8783L28.755 17.2144L29.5538 25.9178L30.3526 25.6885L31.1514 30.033L31.9502 32.1412L32.7491 36.0159L33.5479 39.4407L34.3467 34.78L35.1455 35.9896L35.9443 40.0241L36.7431 43.7659L37.542 40.5342L38.3408 40.5451L39.1396 45.3102L39.9384 45.4259L40.7372 50.7133L41.536 49.4094L42.3348 50.8467L43.1337 49.2695L43.9325 50.4813L44.7313 49.1087L45.5301 48.1248L46.3289 43.523L47.1277 43.8323L47.9266 43.0263L48.7254 43.4279L49.5242 41.9049L50.323 43.109L51.1218 46.2065L51.9206 45.4486L52.7195 46.8037L53.5183 45.3473L54.3171 46.9516L55.1159 50.0413L55.9147 44.6652L56.7135 40.3911L57.5124 38.4342L58.3112 38.6535L59.11 38.2275L59.9088 34.5279L60.7076 36.3471L61.5064 29.0417L62.3053 30.0473L63.1041 30.3306L63.9029 31.537L64.7017 31.6222L65.5005 28.6352L66.2993 27.6286L67.0982 25.5804L67.897 23.7208L68.6958 23.282L69.4946 23.8475L70.2934 25.7261L71.0922 25.6213L71.8911 24.4636L72.6899 25.9574L73.4887 25.0623L74.2875 25.4872L75.0863 27.4L75.8851 25.9827L76.684 24.7276L77.4828 22.4802L78.2816 20.8576L79.0804 18.1125L79.8792 13.3902L80.678 17.5257L81.4769 20.8952L82.2757 18.2217L83.0745 17.1046L83.8733 14.8368L84.6721 14.6951L85.4709 11.8104L86.2698 14.5673L87.0686 10.6738L87.8674 5.2275L88.6662 5.8851L89.465 3.58868L90.2638 6.25511L91.0627 7.55422L91.8615 8.90134L92.6603 9.2174L93.4591 7.69945L94.2579 8.67751L95.0567 11.0018L95.8556 11.8664L96.6544 12.5374L97.4532 10.3014L98.252 8.94714L99.0508 10.1624L99.8496 8.77013L100.648 7.12531L101.447 8.79477L102.246 6.34446L103.045 3.73708L103.844 1.9771L104.643 5.44571L105.441 5.4432L106.24 5.92542L107.039 4.89919L107.838 9.4725L108.637 7.92703L109.435 10.9341L110.234 10.3523L111.033 11.5642L111.832 13.0534L112.631 15.2431L113.43 13.7952L114.228 15.3455L115.027 20.4735L115.826 19.3012L116.625 19.5638L117.424 19.2027L118.222 21.7575L119.021 22.7743L119.82 22.1439L120.619 21.1719L121.418 19.3278L122.217 19.6279L123.015 21.5268L123.814 22.6001L124.613 23.6041L125.412 23.2821L126.211 22.9255L127.009 24.3203L127.808 25.4476L128.607 27.4764L129.406 30.8983L130.205 26.8192L131.003 23.6239L131.802 21.4361L132.601 22.7805L133.4 21.4065L134.199 23.0191L134.998 27.3372" stroke="#FF3A33" stroke-width="1.25"/>
</g>
<defs>
<clipPath id="clip0_2_823">
<rect width="135" height="50" fill="white" transform="translate(0.796387 0.84668)"/>
</clipPath>
</defs>
</svg>
