<svg width="14" height="14" viewBox="0 0 14 14" fill="none" xmlns="http://www.w3.org/2000/svg">
<path d="M6.37109 11.1289C6.55339 11.293 6.76302 11.375 7 11.375C7.23698 11.375 7.44661 11.293 7.62891 11.1289L12.8789 5.87891C13.043 5.69661 13.125 5.48698 13.125 5.25C13.125 5.01302 13.043 4.80339 12.8789 4.62109C12.6966 4.45703 12.487 4.375 12.25 4.375C12.013 4.375 11.8034 4.45703 11.6211 4.62109L7 9.26953L2.37891 4.62109C2.19661 4.45703 1.98698 4.375 1.75 4.375C1.51302 4.375 1.30339 4.45703 1.12109 4.62109C0.957031 4.80339 0.875 5.01302 0.875 5.25C0.875 5.48698 0.957031 5.69661 1.12109 5.87891L6.37109 11.1289Z" fill="#0F172A"/>
</svg>
