<svg width="136" height="51" viewBox="0 0 136 51" fill="none" xmlns="http://www.w3.org/2000/svg">
<g clip-path="url(#clip0_2_498)">
<path d="M0.214844 20.0316L1.01366 20.3924L1.81248 22.236L2.61129 25.9786L3.41011 26.2902L4.20893 27.1587L5.00774 22.0994L5.80656 24.3865L6.60538 21.1633L7.40419 23.8749L8.20301 24.3695L9.00183 25.029L9.80064 19.7142L10.5995 15.1289L11.3983 13.4287L12.1971 14.8373L12.9959 11.6958L13.7947 10.6063L14.5935 12.065L15.3924 0.547852L16.1912 4.3176L16.99 8.65992L17.7888 5.20738L18.5876 12.1238L19.3864 14.7346L20.1853 18.9981L20.9841 17.5476L21.7829 19.2665L22.5817 18.5914L23.3805 15.9517L24.1793 12.5066L24.9782 14.7653L25.777 15.4684L26.5758 12.7265L27.3746 19.0376L28.1734 22.5458L28.9722 23.2014L29.7711 21.9468L30.5699 21.6314L31.3687 19.1907L32.1675 22.0315L32.9663 24.2131L33.7651 23.2078L34.564 24.8885L35.3628 23.4673L36.1616 21.5401L36.9604 19.0205L37.7592 18.0659L38.558 18.8128L39.3569 18.9136L40.1557 16.7376L40.9545 19.3162L41.7533 17.0427L42.5521 14.428L43.3509 18.9689L44.1498 19.5555L44.9486 20.3888L45.7474 25.196L46.5462 18.584L47.345 13.5871L48.1438 20.337L48.9427 18.0745L49.7415 23.4487L50.5403 25.1306L51.3391 19.9498L52.1379 17.5946L52.9367 14.0976L53.7356 19.226L54.5344 20.4213L55.3332 22.536L56.132 15.8303L56.9308 17.3664L57.7296 9.73948L58.5285 14.4618L59.3273 13.9994L60.1261 11.6317L60.9249 16.2762L61.7237 17.6431L62.5225 16.9853L63.3214 11.5759L64.1202 15.5056L64.919 12.9106L65.7178 12.0429L66.5166 11.7098L67.3154 16.9508L68.1143 16.2935L68.9131 16.5134L69.7119 14.1578L70.5107 12.5514L71.3095 11.9958L72.1083 15.1817L72.9072 15.3906L73.706 15.2207L74.5048 15.6451L75.3036 18.5808L76.1024 18.469L76.9012 21.349L77.7001 22.9646L78.4989 24.3544L79.2977 25.6269L80.0965 23.4194L80.8953 19.637L81.6941 20.6538L82.493 20.1232L83.2918 24.0354L84.0906 21.6685L84.8894 23.6664L85.6882 26.2915L86.487 25.7844L87.2859 27.0302L88.0847 26.437L88.8835 29.5019L89.6823 35.5022L90.4811 32.7287L91.2799 31.7198L92.0788 31.239L92.8776 31.1731L93.6764 30.2186L94.4752 26.7148L95.274 28.2069L96.0728 31.0106L96.8717 34.339L97.6705 37.819L98.4693 39.796L99.2681 36.6181L100.067 37.4004L100.866 34.6463L101.665 38.8347L102.463 33.846L103.262 33.2212L104.061 29.414L104.86 24.4567L105.659 23.9585L106.457 26.0436L107.256 24.8376L108.055 28.4926L108.854 27.6719L109.653 30.3641L110.452 31.1466L111.25 29.8761L112.049 34.0403L112.848 34.9702L113.647 34.797L114.446 33.0533L115.244 29.3867L116.043 31.3528L116.842 29.6709L117.641 32.2908L118.44 37.7901L119.239 35.9745L120.037 33.9917L120.836 32.9758L121.635 36.2915L122.434 37.6274L123.233 43.2913L124.031 41.6411L124.83 42.1998L125.629 40.1101L126.428 41.721L127.227 40.6032L128.025 42.9822L128.824 48.947L129.623 50.5479L130.422 45.2987L131.221 48.5003L132.02 48.1435L132.818 46.2948L133.617 45.1084L134.416 43.7986" stroke="#FF3A33" stroke-width="1.25"/>
</g>
<defs>
<clipPath id="clip0_2_498">
<rect width="135" height="50" fill="white" transform="translate(0.214844 0.547852)"/>
</clipPath>
</defs>
</svg>
