<svg width="136" height="51" viewBox="0 0 136 51" fill="none" xmlns="http://www.w3.org/2000/svg">
<g clip-path="url(#clip0_2_486)">
<path d="M0.214844 43.1217L1.01366 41.8709L1.81248 41.5112L2.61129 42.3514L3.41011 43.3746L4.20893 44.1972L5.00774 44.1522L5.80656 46.0208L6.60538 50.5479L7.40419 49.1899L8.20301 49.7752L9.00183 49.1418L9.80064 48.2976L10.5995 47.7755L11.3983 47.0407L12.1971 46.9426L12.9959 44.8731L13.7947 42.9951L14.5935 43.2011L15.3924 44.315L16.1912 45.1386L16.99 42.7994L17.7888 44.5842L18.5876 46.4636L19.3864 47.1679L20.1853 47.1002L20.9841 44.074L21.7829 44.2574L22.5817 44.6857L23.3805 44.4477L24.1793 43.2896L24.9782 43.3537L25.777 40.3593L26.5758 40.3185L27.3746 40.4194L28.1734 44.5854L28.9722 44.4395L29.7711 43.5238L30.5699 43.5493L31.3687 43.5695L32.1675 43.6808L32.9663 44.8124L33.7651 44.4404L34.564 45.7763L35.3628 45.8959L36.1616 44.6968L36.9604 40.2434L37.7592 40.1859L38.558 39.3387L39.3569 38.801L40.1557 38.7759L40.9545 39.8546L41.7533 36.1578L42.5521 36.1748L43.3509 36.2148L44.1498 38.0655L44.9486 36.112L45.7474 34.1367L46.5462 34.4179L47.345 35.7384L48.1438 36.0357L48.9427 37.608L49.7415 37.1746L50.5403 36.8603L51.3391 36.9537L52.1379 33.8902L52.9367 33.6598L53.7356 30.3273L54.5344 30.8185L55.3332 30.6332L56.132 24.9408L56.9308 24.7599L57.7296 18.7432L58.5285 19.3029L59.3273 12.0896L60.1261 14.4654L60.9249 16.0161L61.7237 13.5374L62.5225 10.09L63.3214 11.4723L64.1202 7.52302L64.919 8.83669L65.7178 9.83195L66.5166 10.8093L67.3154 12.7621L68.1143 12.8955L68.9131 13.2224L69.7119 12.7446L70.5107 12.0796L71.3095 11.6901L72.1083 11.4304L72.9072 6.25616L73.706 8.62838L74.5048 9.02217L75.3036 6.80788L76.1024 5.54776L76.9012 0.547852L77.7001 7.70595L78.4989 8.60916L79.2977 15.3895L80.0965 14.4222L80.8953 14.545L81.6941 15.0204L82.493 13.677L83.2918 13.2962L84.0906 14.1162L84.8894 16.8479L85.6882 16.4924L86.487 16.438L87.2859 15.3988L88.0847 14.7309L88.8835 14.4157L89.6823 15.0382L90.4811 15.0745L91.2799 15.6832L92.0788 13.9386L92.8776 13.8469L93.6764 12.3713L94.4752 13.1188L95.274 13.2137L96.0728 16.6937L96.8717 17.5854L97.6705 18.474L98.4693 16.4812L99.2681 16.4296L100.067 15.8241L100.866 14.8382L101.665 15.2797L102.463 15.5605L103.262 15.5184L104.061 14.7739L104.86 13.1259L105.659 12.8957L106.457 12.4698L107.256 11.7829L108.055 11.2705L108.854 11.0588L109.653 11.3703L110.452 13.6256L111.25 13.6535L112.049 17.7321L112.848 18.9858L113.647 15.8636L114.446 15.6901L115.244 15.1347L116.043 17.8862L116.842 17.2049L117.641 22.7453L118.44 23.7313L119.239 27.6777L120.037 27.3367L120.836 26.7503L121.635 28.1081L122.434 29.1974L123.233 31.3299L124.031 32.0034L124.83 29.1377L125.629 29.1618L126.428 28.8436L127.227 26.4274L128.025 25.7295L128.824 25.74L129.623 27.0073L130.422 28.7772L131.221 27.3792L132.02 27.1912L132.818 26.6116L133.617 24.9306L134.416 25.1955" stroke="#32CA5B" stroke-width="1.25"/>
</g>
<defs>
<clipPath id="clip0_2_486">
<rect width="135" height="50" fill="white" transform="translate(0.214844 0.547852)"/>
</clipPath>
</defs>
</svg>
