<svg width="80" height="40" viewBox="0 0 80 40" fill="none" xmlns="http://www.w3.org/2000/svg">
<g clip-path="url(#clip0_3_742)">
<path d="M13.3773 4.87585H10.6019C10.4284 3.62969 9.89777 2.54178 9.03043 1.72089L12.9181 1.74067L13.4487 0H0.530602L0 1.69122H2.102L4.27542 1.70111C6.72435 1.8198 8.22432 2.98683 8.59166 4.87585H0.530602L0 6.61652H8.62227C8.29575 8.7528 6.49987 9.8506 3.65299 9.8506H0.142854L0.163262 11.1264L8.18351 20.2551H10.561V20.1067L3.01014 11.5122H3.74482C8.12228 11.5122 10.306 9.43526 10.6325 6.61652H12.8365L13.3773 4.87585Z" fill="#00F7AD"/>
<path d="M21.4322 38.4402H46.2535V33.5333H29.2763V33.2556L36.7706 25.3675C43.6756 18.3499 45.6459 14.9983 45.6459 10.758C45.6459 4.66615 40.7111 0 33.6034 0C26.5512 0 21.3954 4.59208 21.3954 11.5172H26.8274C26.8089 7.44363 29.4236 4.77725 33.493 4.77725C37.323 4.77725 40.2323 7.14736 40.2323 10.9247C40.2323 14.2762 38.2436 16.6833 34.1927 20.9977L21.4322 34.2926V38.4402Z" fill="white"/>
<path d="M66.1899 39.0698C74.8994 39.0698 80 31.9224 80 19.4979C80 7.16588 74.8259 0 66.1899 0C57.5355 0 52.3798 7.14736 52.3614 19.4979C52.3614 31.9039 57.462 39.0513 66.1899 39.0698ZM66.1899 34.1259C61.0894 34.1259 58.0143 28.9783 58.0143 19.4979C58.0328 10.0544 61.1078 4.85131 66.1899 4.85131C71.2536 4.85131 74.3471 10.0544 74.3471 19.4979C74.3471 28.9783 71.272 34.1259 66.1899 34.1259Z" fill="white"/>
</g>
<defs>
<clipPath id="clip0_3_742">
<rect width="80" height="39.0698" fill="white"/>
</clipPath>
</defs>
</svg>
