<svg width="13" height="14" viewBox="0 0 13 14" fill="none" xmlns="http://www.w3.org/2000/svg">
<path d="M10.0898 5.93359L6.58984 9.43359C6.27995 9.6888 5.97005 9.6888 5.66016 9.43359L2.16016 5.93359C1.90495 5.6237 1.90495 5.3138 2.16016 5.00391C2.47005 4.7487 2.77995 4.7487 3.08984 5.00391L5.46875 7.38281V0.65625C5.50521 0.255208 5.72396 0.036458 6.125 0C6.52604 0.036458 6.74479 0.255208 6.78125 0.65625V7.38281L9.16016 5.00391C9.47005 4.7487 9.77995 4.7487 10.0898 5.00391C10.3451 5.3138 10.3451 5.6237 10.0898 5.93359ZM1.3125 9.40625V11.5938C1.3125 11.9036 1.42188 12.1589 1.64062 12.3594C1.84115 12.5781 2.09635 12.6875 2.40625 12.6875H9.84375C10.1536 12.6875 10.4089 12.5781 10.6094 12.3594C10.8281 12.1589 10.9375 11.9036 10.9375 11.5938V9.40625C10.974 9.00521 11.1927 8.78646 11.5938 8.75C11.9948 8.78646 12.2135 9.00521 12.25 9.40625V11.5938C12.2318 12.2682 11.9948 12.8333 11.5391 13.2891C11.0833 13.7448 10.5182 13.9818 9.84375 14H2.40625C1.73177 13.9818 1.16667 13.7448 0.710938 13.2891C0.255208 12.8333 0.0182292 12.2682 0 11.5938V9.40625C0.0364583 9.00521 0.255208 8.78646 0.65625 8.75C1.05729 8.78646 1.27604 9.00521 1.3125 9.40625Z" fill="#475569"/>
</svg>
