<svg width="136" height="51" viewBox="0 0 136 51" fill="none" xmlns="http://www.w3.org/2000/svg">
<g clip-path="url(#clip0_9_449)">
<path d="M0.214844 49.2524L1.01366 49.2226L1.81248 49.9379L2.61129 49.9632L3.41011 50.5479L4.20893 48.27L5.00774 47.3113L5.80656 49.3544L6.60538 49.7833L7.40419 49.7135L8.20301 49.6313L9.00183 47.0069L9.80064 46.9714L10.5995 45.5516L11.3983 45.7227L12.1971 43.5745L12.9959 43.3002L13.7947 43.5252L14.5935 42.8835L15.3924 42.126L16.1912 43.7518L16.99 43.9258L17.7888 46.0938L18.5876 47.313L19.3864 49.1079L20.1853 47.934L20.9841 47.2008L21.7829 46.8632L22.5817 46.9544L23.3805 45.2222L24.1793 47.4541L24.9782 47.5462L25.777 43.9104L26.5758 45.6935L27.3746 46.2783L28.1734 46.7933L28.9722 45.819L29.7711 45.5227L30.5699 44.1095L31.3687 46.5022L32.1675 47.084L32.9663 47.3075L33.7651 49.6004L34.564 46.6419L35.3628 44.6839L36.1616 43.4975L36.9604 42.7899L37.7592 41.412L38.558 38.9467L39.3569 36.9156L40.1557 36.9952L40.9545 35.5078L41.7533 34.7469L42.5521 34.0016L43.3509 35.604L44.1498 33.998L44.9486 32.1427L45.7474 23.8511L46.5462 20.0068L47.345 23.0231L48.1438 22.199L48.9427 24.9145L49.7415 25.6849L50.5403 24.7006L51.3391 24.2152L52.1379 22.0054L52.9367 20.7564L53.7356 20.8323L54.5344 21.8788L55.3332 20.2199L56.132 17.9707L56.9308 15.565L57.7296 10.9471L58.5285 11.114L59.3273 5.33L60.1261 9.46777L60.9249 10.2541L61.7237 10.7268L62.5225 7.22861L63.3214 8.73331L64.1202 5.46211L64.919 6.01209L65.7178 10.1261L66.5166 9.92263L67.3154 9.68631L68.1143 8.49399L68.9131 7.87095L69.7119 7.45148L70.5107 6.85339L71.3095 5.7017L72.1083 0.689658L72.9072 0.848111L73.706 0.547852L74.5048 2.2346L75.3036 4.39731L76.1024 10.3587L76.9012 11.4046L77.7001 13.709L78.4989 13.6751L79.2977 12.559L80.0965 12.5003L80.8953 14.7218L81.6941 16.0274L82.493 15.8316L83.2918 16.4473L84.0906 16.4747L84.8894 17.5375L85.6882 17.3555L86.487 18.1868L87.2859 17.8042L88.0847 19.6342L88.8835 22.0851L89.6823 21.2506L90.4811 20.347L91.2799 20.9082L92.0788 18.2133L92.8776 18.4266L93.6764 15.0271L94.4752 17.3467L95.274 17.921L96.0728 20.2155L96.8717 21.0523L97.6705 19.1602L98.4693 20.8319L99.2681 21.259L100.067 21.3549L100.866 24.6787L101.665 21.7016L102.463 20.5728L103.262 13.7524L104.061 9.24697L104.86 12.8492L105.659 13.4501L106.457 11.5294L107.256 10.9683L108.055 11.7072L108.854 13.3003L109.653 12.7024L110.452 11.3986L111.25 18.0273L112.049 16.2251L112.848 14.8024L113.647 12.164L114.446 10.0052L115.244 15.0224L116.043 13.1162L116.842 16.5139L117.641 18.8337L118.44 18.1497L119.239 16.2238L120.037 15.4708L120.836 17.6071L121.635 19.0723L122.434 22.5502L123.233 22.1143L124.031 21.3447L124.83 21.5884L125.629 21.4943L126.428 19.0345L127.227 20.4665L128.025 23.5615L128.824 26.9109L129.623 20.644L130.422 20.8453L131.221 19.8041L132.02 16.2296L132.818 14.4418L133.617 17.6523L134.416 13.4421" stroke="#32CA5B" stroke-width="1.25"/>
</g>
<defs>
<clipPath id="clip0_9_449">
<rect width="135" height="50" fill="white" transform="translate(0.214844 0.547852)"/>
</clipPath>
</defs>
</svg>
