<svg width="136" height="51" viewBox="0 0 136 51" fill="none" xmlns="http://www.w3.org/2000/svg">
<g clip-path="url(#clip0_2_470)">
<path d="M0.214844 50.5479L1.01366 49.2777L1.81248 42.3637L2.61129 41.2349L3.41011 39.737L4.20893 40.11L5.00774 30.0396L5.80656 22.8578L6.60538 34.3467L7.40419 31.3649L8.20301 33.3894L9.00183 30.4208L9.80064 27.6764L10.5995 27.3912L11.3983 22.5562L12.1971 22.0661L12.9959 20.4628L13.7947 13.9167L14.5935 16.2972L15.3924 11.5105L16.1912 10.5964L16.99 16.1966L17.7888 20.7175L18.5876 26.3307L19.3864 25.8645L20.1853 30.053L20.9841 28.8787L21.7829 28.1918L22.5817 30.4299L23.3805 28.2646L24.1793 28.9386L24.9782 30.7828L25.777 27.0626L26.5758 21.9009L27.3746 28.7679L28.1734 25.6717L28.9722 30.7686L29.7711 30.5697L30.5699 32.7706L31.3687 28.7766L32.1675 34.1198L32.9663 35.2843L33.7651 32.6193L34.564 42.7127L35.3628 38.7099L36.1616 35.7652L36.9604 36.3477L37.7592 35.427L38.558 26.2477L39.3569 20.7875L40.1557 19.2359L40.9545 22.8853L41.7533 21.1489L42.5521 13.7804L43.3509 17.0208L44.1498 14.7946L44.9486 9.3912L45.7474 15.7164L46.5462 10.5726L47.345 9.70357L48.1438 12.7886L48.9427 12.046L49.7415 18.5856L50.5403 21.8155L51.3391 14.3922L52.1379 15.1351L52.9367 16.4604L53.7356 21.0702L54.5344 20.5058L55.3332 22.8196L56.132 15.8047L56.9308 17.0918L57.7296 9.20083L58.5285 10.1051L59.3273 12.7408L60.1261 8.79255L60.9249 13.1727L61.7237 13.1231L62.5225 14.4315L63.3214 9.77082L64.1202 13.3658L64.919 2.45077L65.7178 6.70329L66.5166 0.547852L67.3154 6.61485L68.1143 6.20961L68.9131 10.7331L69.7119 12.0887L70.5107 11.7137L71.3095 8.09555L72.1083 10.9852L72.9072 12.2097L73.706 10.0187L74.5048 8.53283L75.3036 10.4694L76.1024 8.45796L76.9012 16.47L77.7001 18.2122L78.4989 22.2755L79.2977 24.5771L80.0965 22.5363L80.8953 18.4844L81.6941 22.1701L82.493 24.0384L83.2918 23.1096L84.0906 20.0636L84.8894 20.8734L85.6882 21.7208L86.487 13.9556L87.2859 14.599L88.0847 12.6846L88.8835 15.8768L89.6823 18.36L90.4811 16.6022L91.2799 16.0057L92.0788 16.5559L92.8776 16.9968L93.6764 17.1672L94.4752 13.3075L95.274 15.55L96.0728 16.5599L96.8717 23.5192L97.6705 27.3202L98.4693 25.3023L99.2681 24.9861L100.067 25.6677L100.866 23.5506L101.665 27.682L102.463 23.4252L103.262 25.8406L104.061 20.2359L104.86 14.6367L105.659 10.3589L106.457 8.78099L107.256 2.97008L108.055 8.47066L108.854 2.10595L109.653 7.68699L110.452 11.4083L111.25 8.79007L112.049 17.8366L112.848 22.8278L113.647 20.2019L114.446 19.8439L115.244 13.2758L116.043 14.7167L116.842 10.3016L117.641 16.8277L118.44 25.715L119.239 27.9771L120.037 21.5295L120.836 20.8789L121.635 26.3687L122.434 27.1545L123.233 34.1051L124.031 35.2052L124.83 33.1483L125.629 35.1467L126.428 33.5979L127.227 30.1767L128.025 34.2742L128.824 40.9693L129.623 44.2971L130.422 38.2304L131.221 38.2252L132.02 39.9128L132.818 35.6215L133.617 36.3454L134.416 32.6119" stroke="#32CA5B" stroke-width="1.25"/>
</g>
<defs>
<clipPath id="clip0_2_470">
<rect width="135" height="50" fill="white" transform="translate(0.214844 0.547852)"/>
</clipPath>
</defs>
</svg>
