<svg width="136" height="51" viewBox="0 0 136 51" fill="none" xmlns="http://www.w3.org/2000/svg">
<g clip-path="url(#clip0_2_931)">
<path d="M0.796387 4.96972L1.5952 2.30728L2.39402 5.50327L3.19284 5.52053L3.99165 7.37857L4.79047 11.0859L5.58929 13.0334L6.3881 9.4794L7.18692 9.96047L7.98574 9.29735L8.78455 5.25202L9.58337 5.24349L10.3822 5.4749L11.181 3.50801L11.9798 3.49028L12.7786 3.11787L13.5775 2.07756L14.3763 0.84668L15.1751 3.16842L15.9739 4.93613L16.7727 9.87764L17.5715 20.5143L18.3704 19.6601L19.1692 28.4375L19.968 29.2349L20.7668 33.9703L21.5656 35.7427L22.3644 35.4354L23.1632 34.7434L23.9621 34.8497L24.7609 33.3055L25.5597 33.3174L26.3585 32.2399L27.1573 31.2836L27.9562 31.7886L28.755 32.2835L29.5538 32.6169L30.3526 28.1157L31.1514 29.9196L31.9502 29.5796L32.7491 33.7681L33.5479 36.4515L34.3467 34.2624L35.1455 34.6799L35.9443 31.8646L36.7431 34.4494L37.542 30.7024L38.3408 35.762L39.1396 39.0921L39.9384 44.5898L40.7372 41.7027L41.536 39.2382L42.3348 40.0679L43.1337 38.8432L43.9325 40.3488L44.7313 38.6797L45.5301 37.6936L46.3289 37.2051L47.1277 36.2367L47.9266 36.8062L48.7254 38.1833L49.5242 38.3382L50.323 42.2457L51.1218 46.991L51.9206 43.3847L52.7195 41.3943L53.5183 43.5953L54.3171 45.5799L55.1159 45.0579L55.9147 48.4771L56.7135 46.8611L57.5124 50.8467L58.3112 46.8587L59.11 46.8527L59.9088 44.804L60.7076 47.7339L61.5064 45.5903L62.3053 44.6674L63.1041 45.5816L63.9029 45.9197L64.7017 41.6776L65.5005 43.9786L66.2993 43.4308L67.0982 42.4304L67.897 40.7757L68.6958 42.6661L69.4946 41.8721L70.2934 40.9781L71.0922 42.5162L71.8911 43.004L72.6899 41.7093L73.4887 40.4026L74.2875 42.6814L75.0863 42.616L75.8851 40.047L76.684 38.4966L77.4828 39.0746L78.2816 37.9566L79.0804 37.7591L79.8792 38.3428L80.678 38.9694L81.4769 39.2691L82.2757 38.2175L83.0745 37.1668L83.8733 37.1414L84.6721 39.7033L85.4709 40.1346L86.2698 39.301L87.0686 37.3441L87.8674 37.065L88.6662 37.7795L89.465 36.5418L90.2638 36.5331L91.0627 37.9453L91.8615 37.251L92.6603 36.6714L93.4591 38.2956L94.2579 38.7009L95.0567 38.5075L95.8556 42.176L96.6544 40.8833L97.4532 43.4731L98.252 44.9269L99.0508 46.2863L99.8496 44.0212L100.648 41.6913L101.447 42.1821L102.246 42.8576L103.045 39.9201L103.844 40.7918L104.643 42.2361L105.441 42.4589L106.24 42.1692L107.039 42.0321L107.838 41.4662L108.637 40.9796L109.435 39.9115L110.234 40.459L111.033 38.3963L111.832 37.5723L112.631 37.2926L113.43 31.9119L114.228 29.1684L115.027 30.5807L115.826 32.5988L116.625 30.4899L117.424 32.1594L118.222 31.3375L119.021 33.2408L119.82 29.3024L120.619 28.5282L121.418 23.7182L122.217 20.3457L123.015 22.3665L123.814 22.1569L124.613 23.5957L125.412 24.0653L126.211 22.1198L127.009 22.3014L127.808 23.0008L128.607 25.8112L129.406 30.1328L130.205 27.5407L131.003 26.2776L131.802 21.4067L132.601 18.9418L133.4 20.106L134.199 17.5671L134.998 22.4469" stroke="#FF3A33" stroke-width="1.25"/>
</g>
<defs>
<clipPath id="clip0_2_931">
<rect width="135" height="50" fill="white" transform="translate(0.796387 0.84668)"/>
</clipPath>
</defs>
</svg>
