<svg width="136" height="51" viewBox="0 0 136 51" fill="none" xmlns="http://www.w3.org/2000/svg">
<g clip-path="url(#clip0_2_893)">
<path d="M0.796387 26.4613L1.5952 23.3178L2.39402 20.8419L3.19284 21.7371L3.99165 22.712L4.79047 23.9463L5.58929 24.9169L6.3881 21.8753L7.18692 19.23L7.98574 20.8921L8.78455 10.9851L9.58337 12.7569L10.3822 8.85428L11.181 3.65398L11.9798 1.25676L12.7786 0.84668L13.5775 6.99575L14.3763 4.62976L15.1751 5.66499L15.9739 8.73101L16.7727 11.1734L17.5715 19.0314L18.3704 13.6376L19.1692 18.796L19.968 24.8445L20.7668 20.3808L21.5656 23.5777L22.3644 23.7128L23.1632 23.5402L23.9621 23.967L24.7609 23.5913L25.5597 20.6182L26.3585 18.951L27.1573 17.2837L27.9562 14.2232L28.755 12.4734L29.5538 14.7737L30.3526 11.7538L31.1514 12.5169L31.9502 15.1905L32.7491 22.7224L33.5479 30.6491L34.3467 30.2862L35.1455 36.1582L35.9443 32.8652L36.7431 30.053L37.542 26.0063L38.3408 26.6309L39.1396 29.1013L39.9384 34.1816L40.7372 41.392L41.536 39.9506L42.3348 43.9121L43.1337 45.5079L43.9325 47.863L44.7313 46.699L45.5301 47.2661L46.3289 44.9969L47.1277 44.1904L47.9266 44.5639L48.7254 41.9747L49.5242 30.5232L50.323 36.4511L51.1218 42.5125L51.9206 37.5482L52.7195 39.7115L53.5183 41.7524L54.3171 42.9375L55.1159 43.177L55.9147 47.7185L56.7135 48.8589L57.5124 50.8467L58.3112 50.6647L59.11 48.9344L59.9088 45.4632L60.7076 50.5572L61.5064 48.0518L62.3053 48.2765L63.1041 44.6205L63.9029 47.5026L64.7017 44.0644L65.5005 44.0881L66.2993 45.5212L67.0982 44.8156L67.897 42.5977L68.6958 42.8074L69.4946 42.0042L70.2934 40.7117L71.0922 42.0302L71.8911 41.6839L72.6899 41.5603L73.4887 42.1378L74.2875 38.6607L75.0863 42.0267L75.8851 38.617L76.684 36.5048L77.4828 38.019L78.2816 37.2818L79.0804 37.1208L79.8792 37.325L80.678 38.0812L81.4769 38.3547L82.2757 36.8657L83.0745 37.7452L83.8733 38.1107L84.6721 41.353L85.4709 44.9674L86.2698 45.3076L87.0686 40.5922L87.8674 40.4903L88.6662 41.6671L89.465 39.9031L90.2638 41.2042L91.0627 40.9765L91.8615 41.4268L92.6603 40.5589L93.4591 42.0322L94.2579 42.0367L95.0567 44.1836L95.8556 46.8776L96.6544 46.5115L97.4532 47.3268L98.252 47.89L99.0508 50.0268L99.8496 48.7341L100.648 45.7817L101.447 47.7113L102.246 47.4128L103.045 46.2778L103.844 46.5803L104.643 48.1179L105.441 50.1162L106.24 49.8449L107.039 48.2781L107.838 46.348L108.637 46.5297L109.435 42.5238L110.234 42.805L111.033 42.135L111.832 39.3456L112.631 38.4634L113.43 36.8434L114.228 35.8896L115.027 35.6192L115.826 31.1196L116.625 29.7776L117.424 31.8199L118.222 32.8073L119.021 34.0429L119.82 33.3508L120.619 32.8096L121.418 28.589L122.217 27.2856L123.015 33.65L123.814 31.5644L124.613 32.9142L125.412 34.9711L126.211 34.9888L127.009 41.31L127.808 37.6001L128.607 38.5445L129.406 40.4221L130.205 38.8518L131.003 41.6368L131.802 39.969L132.601 39.0768L133.4 42.246L134.199 46.1394L134.998 47.2432" stroke="#FF3A33" stroke-width="1.25"/>
</g>
<defs>
<clipPath id="clip0_2_893">
<rect width="135" height="50" fill="white" transform="translate(0.796387 0.84668)"/>
</clipPath>
</defs>
</svg>
