<svg width="136" height="51" viewBox="0 0 136 51" fill="none" xmlns="http://www.w3.org/2000/svg">
<g clip-path="url(#clip0_9_413)">
<path d="M0.214844 43.6787L1.01366 41.4532L1.81248 42.8857L2.61129 41.6901L3.41011 48.7382L4.20893 50.5479L5.00774 45.415L5.80656 44.0667L6.60538 49.119L7.40419 47.8229L8.20301 46.0748L9.00183 46.2127L9.80064 47.6785L10.5995 48.6546L11.3983 46.1862L12.1971 43.7309L12.9959 42.4352L13.7947 34.6831L14.5935 42.5414L15.3924 38.0221L16.1912 30.1709L16.99 30.8093L17.7888 31.0592L18.5876 42.0371L19.3864 45.3638L20.1853 48.4617L20.9841 46.3412L21.7829 43.1153L22.5817 48.4256L23.3805 47.6093L24.1793 47.8607L24.9782 40.3825L25.777 29.211L26.5758 27.8276L27.3746 31.825L28.1734 34.6047L28.9722 35.3956L29.7711 24.4181L30.5699 16.5522L31.3687 15.7557L32.1675 22.8976L32.9663 25.9254L33.7651 30.3591L34.564 33.5922L35.3628 33.5211L36.1616 31.6241L36.9604 32.0314L37.7592 31.6444L38.558 22.2309L39.3569 22.4794L40.1557 20.2754L40.9545 16.4145L41.7533 10.4983L42.5521 12.452L43.3509 14.8953L44.1498 16.7596L44.9486 6.82141L45.7474 4.68067L46.5462 5.73104L47.345 0.653683L48.1438 2.28932L48.9427 1.64004L49.7415 5.04291L50.5403 8.89509L51.3391 0.547852L52.1379 1.44113L52.9367 5.45736L53.7356 5.28511L54.5344 7.22706L55.3332 11.3969L56.132 7.91342L56.9308 9.57691L57.7296 8.88405L58.5285 8.8604L59.3273 8.06573L60.1261 3.25726L60.9249 15.4456L61.7237 12.2349L62.5225 10.4115L63.3214 4.64759L64.1202 3.96555L64.919 6.03012L65.7178 9.93629L66.5166 8.50837L67.3154 12.4159L68.1143 12.8483L68.9131 17.8632L69.7119 15.0759L70.5107 15.7377L71.3095 13.3723L72.1083 15.5983L72.9072 15.4061L73.706 16.7861L74.5048 11.9485L75.3036 11.7788L76.1024 9.46942L76.9012 11.2989L77.7001 11.6825L78.4989 12.2359L79.2977 15.4799L80.0965 11.4319L80.8953 7.36888L81.6941 10.8426L82.493 16.4786L83.2918 14.7705L84.0906 11.0195L84.8894 9.48114L85.6882 13.351L86.487 9.39441L87.2859 7.33105L88.0847 7.35862L88.8835 10.16L89.6823 12.8157L90.4811 12.5636L91.2799 10.6855L92.0788 15.8023L92.8776 13.7689L93.6764 15.6818L94.4752 15.815L95.274 17.2456L96.0728 18.4548L96.8717 17.0715L97.6705 19.5701L98.4693 17.4824L99.2681 17.7728L100.067 17.1319L100.866 16.6644L101.665 19.6933L102.463 17.7791L103.262 19.8104L104.061 16.8641L104.86 12.9965L105.659 11.5216L106.457 13.6102L107.256 8.76569L108.055 13.9634L108.854 12.3247L109.653 17.0349L110.452 15.283L111.25 16.4111L112.049 20.4273L112.848 18.9273L113.647 15.9344L114.446 14.0884L115.244 9.27573L116.043 10.8513L116.842 7.13002L117.641 8.84255L118.44 19.6047L119.239 16.6692L120.037 13.6995L120.836 8.68321L121.635 9.81478L122.434 12.6232L123.233 18.6201L124.031 17.2778L124.83 15.3154L125.629 17.0445L126.428 16.94L127.227 11.2254L128.025 11.6405L128.824 18.4431L129.623 19.1616L130.422 16.1669L131.221 14.6177L132.02 14.0924L132.818 6.99418L133.617 6.61098L134.416 5.2435" stroke="#32CA5B" stroke-width="1.25"/>
</g>
<defs>
<clipPath id="clip0_9_413">
<rect width="135" height="50" fill="white" transform="translate(0.214844 0.547852)"/>
</clipPath>
</defs>
</svg>
