<svg width="136" height="51" viewBox="0 0 136 51" fill="none" xmlns="http://www.w3.org/2000/svg">
<g clip-path="url(#clip0_2_526)">
<path d="M0.214844 28.3063L1.01366 25.6425L1.81248 22.8038L2.61129 20.4349L3.41011 24.1979L4.20893 23.3104L5.00774 26.9775L5.80656 27.1798L6.60538 28.0829L7.40419 35.0099L8.20301 34.5578L9.00183 29.2689L9.80064 21.6998L10.5995 25.9328L11.3983 23.8289L12.1971 21.3734L12.9959 20.8773L13.7947 18.5249L14.5935 20.7307L15.3924 24.1355L16.1912 21.969L16.99 23.4751L17.7888 23.1044L18.5876 29.0451L19.3864 34.7006L20.1853 32.1719L20.9841 30.5702L21.7829 30.9165L22.5817 29.4431L23.3805 33.1778L24.1793 30.399L24.9782 33.2961L25.777 30.2836L26.5758 30.1563L27.3746 38.2452L28.1734 39.8168L28.9722 47.2792L29.7711 45.6322L30.5699 46.0401L31.3687 46.3579L32.1675 47.5253L32.9663 47.9413L33.7651 45.7459L34.564 50.5479L35.3628 41.6761L36.1616 40.2971L36.9604 38.9054L37.7592 40.5546L38.558 33.0382L39.3569 33.1465L40.1557 30.1734L40.9545 31.9746L41.7533 32.7452L42.5521 28.5208L43.3509 28.8495L44.1498 27.9877L44.9486 32.7902L45.7474 29.0222L46.5462 23.19L47.345 18.6759L48.1438 26.1592L48.9427 22.0023L49.7415 21.2616L50.5403 25.4735L51.3391 24.7264L52.1379 28.6186L52.9367 27.1452L53.7356 25.9278L54.5344 32.0392L55.3332 31.8022L56.132 25.7993L56.9308 23.9975L57.7296 22.1817L58.5285 19.625L59.3273 18.4384L60.1261 15.4718L60.9249 17.78L61.7237 23.7467L62.5225 22.112L63.3214 19.4312L64.1202 17.6897L64.919 9.90409L65.7178 9.35346L66.5166 0.547852L67.3154 5.33049L68.1143 4.96085L68.9131 4.889L69.7119 6.45166L70.5107 6.90071L71.3095 2.95069L72.1083 5.3533L72.9072 5.90713L73.706 6.38244L74.5048 4.74187L75.3036 7.76532L76.1024 7.03466L76.9012 10.4414L77.7001 11.4558L78.4989 12.9227L79.2977 16.2978L80.0965 15.7534L80.8953 14.0717L81.6941 13.5697L82.493 18.6046L83.2918 17.6966L84.0906 14.4707L84.8894 15.2516L85.6882 17.3898L86.487 13.7355L87.2859 13.6865L88.0847 13.2593L88.8835 13.5096L89.6823 15.7116L90.4811 13.6227L91.2799 13.7089L92.0788 15.8442L92.8776 13.7992L93.6764 14.867L94.4752 14.7687L95.274 15.7021L96.0728 16.4016L96.8717 21.6198L97.6705 26.0284L98.4693 24.0848L99.2681 22.2763L100.067 23.5511L100.866 20.2643L101.665 23.0319L102.463 20.7897L103.262 20.9003L104.061 16.3898L104.86 17.5158L105.659 18.027L106.457 17.5411L107.256 15.7671L108.055 17.6297L108.854 16.8313L109.653 20.5774L110.452 20.4924L111.25 22.2449L112.049 32.88L112.848 35.8132L113.647 31.0297L114.446 29.6547L115.244 25.1958L116.043 29.2548L116.842 30.7483L117.641 27.543L118.44 37.7264L119.239 36.8871L120.037 30.7035L120.836 28.6743L121.635 32.9377L122.434 35.5015L123.233 38.3042L124.031 38.2229L124.83 38.1097L125.629 43.1136L126.428 41.7115L127.227 35.6185L128.025 36.3769L128.824 40.9625L129.623 40.3526L130.422 33.992L131.221 34.2786L132.02 34.036L132.818 30.6108L133.617 26.9917L134.416 27.4075" stroke="#32CA5B" stroke-width="1.25"/>
</g>
<defs>
<clipPath id="clip0_2_526">
<rect width="135" height="50" fill="white" transform="translate(0.214844 0.547852)"/>
</clipPath>
</defs>
</svg>
