<svg width="157" height="59" viewBox="0 0 157 59" fill="none" xmlns="http://www.w3.org/2000/svg">
<g clip-path="url(#clip0_9_251)">
<path d="M0.214844 31.3668L1.14693 31.4574L2.07901 31.5177L3.01109 31.2259L3.94318 31.9684L4.87526 29.8776L5.80734 29.9683L6.73943 32.1001L7.67151 30.7069L8.60359 29.3378L9.53568 28.8316L10.4678 26.3648L11.3998 26.7428L12.3319 24.5936L13.264 23.9366L14.1961 25.2297L15.1282 23.7508L16.0603 24.0982L16.9923 24.1234L17.9244 24.1217L18.8565 23.6072L19.7886 23.0205L20.7207 22.2234L21.6528 23.8782L22.5848 25.1683L23.5169 24.4195L24.449 24.6452L25.3811 25.6048L26.3132 25.1362L27.2453 29.4003L28.1773 29.8675L29.1094 29.3598L30.0415 28.8024L30.9736 29.8116L31.9057 30.1363L32.8378 32.1342L33.7698 33.1193L34.7019 34.1806L35.634 34.3863L36.5661 34.7005L37.4982 34.7964L38.4303 34.9107L39.3623 34.785L40.2944 35.3833L41.2265 35.3339L42.1586 35.2606L43.0907 35.342L44.0228 34.4465L44.9548 33.5579L45.8869 31.3957L46.819 30.3206L47.7511 27.8562L48.6832 26.868L49.6153 22.0906L50.5473 15.9356L51.4794 13.4313L52.4115 12.6838L53.3436 10.6397L54.2757 10.5722L55.2078 9.16187L56.1398 8.1391L57.0719 8.82039L58.004 7.39379L58.9361 7.3692L59.8682 8.77969L60.8003 9.08048L61.7323 8.20075L62.6644 7.04046L63.5965 6.25238L64.5286 4.95134L65.4607 3.94474L66.3928 2.67242L67.3248 1.71795L68.2569 3.1511L69.189 4.30367L70.1211 3.6699L71.0532 4.95021L71.9853 5.14189L72.9173 8.38988L73.8494 9.0532L74.7815 10.5968L75.7136 10.6124L76.6457 10.5307L77.5778 12.9164L78.5098 13.9228L79.4419 13.4945L80.374 15.8384L81.3061 16.6725L82.2382 18.1858L83.1703 17.8006L84.1023 18.0954L85.0344 19.1725L85.9665 20.3546L86.8986 22.837L87.8307 24.7618L88.7628 25.8738L89.6948 26.2908L90.6269 27.3858L91.559 28.1288L92.4911 30.2096L93.4232 30.0711L94.3553 37.7583L95.2873 41.6131L96.2194 45.1375L97.1515 47.8233L98.0836 49.3245L99.0157 50.9159L99.9478 52.2524L100.88 3.14947L101.812 48.6598L102.744 48.687L103.676 48.5337L104.608 48.199L105.54 16.7348L106.472 49.9041L107.404 50.5214L108.337 43.2884L109.269 51.6913L110.201 51.3332L111.133 51.7618L112.065 53.4723L112.997 57.8302L113.929 57.9627L114.861 58.5441L115.793 57.537L116.725 57.6824L117.657 56.291L118.589 55.9027L119.522 55.5203L120.454 55.5807L121.386 55.1699L122.318 53.49L123.25 53.3352L124.182 52.4554L125.114 50.0333L126.046 48.0916L126.978 45.8246L127.91 0.547852L128.842 39.7323L129.774 38.4366L130.707 37.6913L131.639 36.8045L132.571 36.7143L133.503 35.4132L134.435 32.9258L135.367 28.4391L136.299 26.1016L137.231 24.9288L138.163 24.4754L139.095 22.6371L140.027 21.7971L140.959 20.5364L141.892 19.2748L142.824 16.4378L143.756 14.7478L144.688 14.1361L145.62 14.2084L146.552 14.888L147.484 12.7422L148.416 11.9669L149.348 12.9828L150.28 15.1399L151.212 16.4977L152.144 15.6996L153.077 15.446L154.009 15.6352L154.941 14.9087L155.873 15.6352" stroke="#32CA5B" stroke-width="1.44991"/>
</g>
<defs>
<clipPath id="clip0_9_251">
<rect width="156.59" height="57.9963" fill="white" transform="translate(0.214844 0.547852)"/>
</clipPath>
</defs>
</svg>
