<svg width="136" height="51" viewBox="0 0 136 51" fill="none" xmlns="http://www.w3.org/2000/svg">
<g clip-path="url(#clip0_2_831)">
<path d="M0.796387 22.6602L1.5952 20.3665L2.39402 19.4684L3.19284 15.3979L3.99165 14.6511L4.79047 14.3833L5.58929 16.2781L6.3881 13.8517L7.18692 15.2438L7.98574 12.7232L8.78455 8.01547L9.58337 8.33868L10.3822 6.55235L11.181 6.97105L11.9798 4.94228L12.7786 1.2735L13.5775 0.84668L14.3763 1.85573L15.1751 3.15449L15.9739 5.92234L16.7727 13.6039L17.5715 16.3135L18.3704 26.0925L19.1692 27.8995L19.968 33.5362L20.7668 37.9278L21.5656 38.032L22.3644 46.059L23.1632 49.0574L23.9621 50.8467L24.7609 49.3599L25.5597 43.3209L26.3585 40.0789L27.1573 37.7014L27.9562 37.8346L28.755 38.0072L29.5538 36.5908L30.3526 34.723L31.1514 33.2909L31.9502 32.7906L32.7491 36.4891L33.5479 36.169L34.3467 35.9713L35.1455 39.1394L35.9443 39.3758L36.7431 44.8205L37.542 36.7888L38.3408 39.1595L39.1396 38.1581L39.9384 40.4326L40.7372 40.1947L41.536 41.0361L42.3348 39.8652L43.1337 39.6866L43.9325 43.0018L44.7313 40.5709L45.5301 38.7891L46.3289 38.7398L47.1277 41.8426L47.9266 39.5358L48.7254 40.4014L49.5242 36.9042L50.323 40.3635L51.1218 47.7826L51.9206 44.2387L52.7195 43.1016L53.5183 44.9888L54.3171 44.9858L55.1159 43.6713L55.9147 49.3856L56.7135 44.5864L57.5124 42.829L58.3112 36.2561L59.11 36.5572L59.9088 34.7647L60.7076 36.6706L61.5064 33.4195L62.3053 33.4143L63.1041 30.1459L63.9029 29.3118L64.7017 23.0876L65.5005 24.26L66.2993 15.5018L67.0982 14.7045L67.897 16.7228L68.6958 20.5759L69.4946 21.2829L70.2934 19.132L71.0922 19.2873L71.8911 19.359L72.6899 18.1594L73.4887 15.1339L74.2875 15.1819L75.0863 15.3754L75.8851 13.7496L76.684 15.5445L77.4828 16.4461L78.2816 13.6981L79.0804 10.6966L79.8792 11.9066L80.678 12.084L81.4769 12.0847L82.2757 9.91475L83.0745 10.6066L83.8733 12.9491L84.6721 14.9883L85.4709 13.0853L86.2698 12.522L87.0686 12.6721L87.8674 11.3804L88.6662 11.7359L89.465 11.3693L90.2638 11.9661L91.0627 12.3704L91.8615 12.3666L92.6603 9.60002L93.4591 10.3346L94.2579 12.3703L95.0567 12.8855L95.8556 15.6524L96.6544 14.8947L97.4532 14.2524L98.252 15.3177L99.0508 15.4524L99.8496 14.0859L100.648 14.397L101.447 14.1021L102.246 14.0246L103.045 13.1662L103.844 12.4286L104.643 11.0102L105.441 11.0456L106.24 11.8971L107.039 11.1754L107.838 11.2057L108.637 11.3498L109.435 12.38L110.234 14.4471L111.033 14.5427L111.832 13.7015L112.631 15.2288L113.43 11.3497L114.228 10.4053L115.027 12.7909L115.826 13.8164L116.625 12.7196L117.424 13.5509L118.222 12.6087L119.021 14.1191L119.82 12.6232L120.619 11.538L121.418 13.4884L122.217 8.12649L123.015 11.7537L123.814 9.93381L124.613 8.95068L125.412 9.65551L126.211 6.82551L127.009 8.50964L127.808 6.73644L128.607 7.39157L129.406 15.2873L130.205 10.4009L131.003 12.2451L131.802 4.92565L132.601 9.67776L133.4 8.63344L134.199 5.88761L134.998 12.8169" stroke="#32CA5B" stroke-width="1.25"/>
</g>
<defs>
<clipPath id="clip0_2_831">
<rect width="135" height="50" fill="white" transform="translate(0.796387 0.84668)"/>
</clipPath>
</defs>
</svg>
