<svg width="136" height="51" viewBox="0 0 136 51" fill="none" xmlns="http://www.w3.org/2000/svg">
<g clip-path="url(#clip0_2_895)">
<path d="M0.796387 3.01634L1.5952 0.84668L2.39402 2.51921L3.19284 1.35866L3.99165 3.82871L4.79047 10.0216L5.58929 11.6837L6.3881 6.23377L7.18692 9.55783L7.98574 9.18734L8.78455 7.26796L9.58337 6.03618L10.3822 7.6253L11.181 4.9425L11.9798 5.33791L12.7786 4.6765L13.5775 4.68574L14.3763 3.41673L15.1751 5.34299L15.9739 6.61337L16.7727 13.3851L17.5715 20.54L18.3704 21.7734L19.1692 25.0974L19.968 23.441L20.7668 24.9054L21.5656 28.2321L22.3644 27.6493L23.1632 27.8163L23.9621 30.7426L24.7609 29.8262L25.5597 30.5106L26.3585 27.4216L27.1573 27.8997L27.9562 28.3432L28.755 27.5507L29.5538 25.8211L30.3526 21.4527L31.1514 21.6582L31.9502 20.791L32.7491 23.2468L33.5479 22.0179L34.3467 23.7836L35.1455 25.5727L35.9443 30.9279L36.7431 30.9842L37.542 28.7336L38.3408 31.083L39.1396 32.6535L39.9384 42.0572L40.7372 39.9687L41.536 38.396L42.3348 40.8459L43.1337 39.1878L43.9325 40.3455L44.7313 39.8582L45.5301 39.6635L46.3289 39.2477L47.1277 38.918L47.9266 37.9391L48.7254 40.577L49.5242 42.4543L50.323 46.4764L51.1218 50.8467L51.9206 43.8998L52.7195 39.9555L53.5183 41.4834L54.3171 42.8565L55.1159 45.3426L55.9147 50.8283L56.7135 48.9872L57.5124 49.8267L58.3112 46.6146L59.11 47.8339L59.9088 43.5308L60.7076 45.3698L61.5064 43.7021L62.3053 42.9621L63.1041 43.4214L63.9029 42.44L64.7017 37.1936L65.5005 40.3219L66.2993 38.3955L67.0982 37.9492L67.897 34.1113L68.6958 33.4001L69.4946 31.6048L70.2934 28.1482L71.0922 26.4265L71.8911 29.0147L72.6899 24.964L73.4887 26.4607L74.2875 27.258L75.0863 28.3477L75.8851 23.0643L76.684 22.3802L77.4828 24.7803L78.2816 23.6902L79.0804 21.7803L79.8792 21.8739L80.678 23.8973L81.4769 24.0309L82.2757 23.8728L83.0745 24.7341L83.8733 25.8996L84.6721 28.9287L85.4709 30.5313L86.2698 28.972L87.0686 29.3054L87.8674 28.6256L88.6662 30.2462L89.465 29.0387L90.2638 27.6659L91.0627 29.7598L91.8615 28.8763L92.6603 26.1733L93.4591 29.3411L94.2579 29.7583L95.0567 29.5203L95.8556 32.5807L96.6544 31.0555L97.4532 32.2234L98.252 33.7212L99.0508 35.1657L99.8496 31.4427L100.648 28.394L101.447 27.9878L102.246 30.3095L103.045 26.8844L103.844 27.4603L104.643 28.7117L105.441 30.5119L106.24 30.4305L107.039 30.0985L107.838 30.1356L108.637 28.6082L109.435 26.9536L110.234 26.1349L111.033 24.9724L111.832 24.1969L112.631 22.2122L113.43 16.0003L114.228 14.5304L115.027 18.8125L115.826 19.5292L116.625 18.3737L117.424 22.336L118.222 22.1124L119.021 24.2974L119.82 22.4298L120.619 21.2611L121.418 15.3506L122.217 11.5587L123.015 13.6367L123.814 9.95649L124.613 7.57289L125.412 9.023L126.211 7.66717L127.009 8.94495L127.808 5.28355L128.607 12.1188L129.406 16.3882L130.205 14.6136L131.003 16.0472L131.802 10.0622L132.601 9.20669L133.4 11.6637L134.199 5.60851L134.998 12.4779" stroke="#FF3A33" stroke-width="1.25"/>
</g>
<defs>
<clipPath id="clip0_2_895">
<rect width="135" height="50" fill="white" transform="translate(0.796387 0.84668)"/>
</clipPath>
</defs>
</svg>
