<svg width="136" height="51" viewBox="0 0 136 51" fill="none" xmlns="http://www.w3.org/2000/svg">
<g clip-path="url(#clip0_2_462)">
<path d="M0.214844 47.5539L1.00896 44.2067L1.80308 39.7884L2.5972 37.4098L3.39131 40.6241L4.18543 43.1218L4.97955 40.4799L5.77367 38.8045L6.56778 41.0994L7.3619 42.6277L8.15602 50.5479L8.95014 46.2006L9.74426 45.8223L10.5384 43.6579L11.3325 40.2863L12.1266 42.56L12.9207 41.7042L13.7148 40.1483L14.509 39.7771L15.3031 36.1201L16.0972 36.4942L16.8913 39.5801L17.6854 39.0352L18.4795 40.9987L19.2737 42.7333L20.0678 45.8408L20.8619 42.5781L21.656 39.0773L22.4501 37.4165L23.2443 37.1677L24.0384 33.9776L24.8325 37.4226L25.6266 31.7746L26.4207 29.268L27.2148 33.6833L28.009 28.9353L28.8031 32.8939L29.5972 30.9696L30.3913 35.3699L31.1854 32.914L31.9795 33.5544L32.7737 39.352L33.5678 41.4251L34.3619 47.149L35.156 42.6678L35.9501 42.6647L36.7443 40.2605L37.5384 37.2532L38.3325 32.644L39.1266 31.9051L39.9207 30.4375L40.7148 33.7307L41.509 28.6525L42.3031 29.5004L43.0972 32.2624L43.8913 30.3613L44.6854 32.5061L45.4795 33.6162L46.2737 31.5554L47.0678 29.2309L47.8619 26.061L48.656 23.5571L49.4501 30.0709L50.2443 30.5892L51.0384 25.8305L51.8325 25.3935L52.6266 23.3646L53.4207 19.407L54.2148 20.505L55.009 18.4083L55.8031 7.57013L56.5972 10.1042L57.3913 7.85441L58.1854 8.55906L58.9795 7.62489L59.7737 6.13908L60.5678 10.2369L61.3619 14.549L62.156 12.6213L62.9501 8.61976L63.7443 9.33439L64.5384 5.22031L65.3325 5.57457L66.1266 4.53248L66.9207 6.99849L67.7148 3.88555L68.509 5.44168L69.3031 6.41769L70.0972 8.52033L70.8913 4.81177L71.6854 4.64505L72.4796 6.45484L73.2737 4.06408L74.0678 0.547852L74.8619 2.88714L75.656 2.89882L76.4501 8.05538L77.2443 10.494L78.0384 13.3087L78.8325 18.475L79.6266 18.6116L80.4207 16.8175L81.2148 18.3605L82.009 20.02L82.8031 18.1678L83.5972 16.2745L84.3913 18.3715L85.1854 20.8435L85.9796 17.4847L86.7737 18.773L87.5678 19.0716L88.3619 20.8918L89.156 23.7863L89.9501 20.7729L90.7443 20.4796L91.5384 22.5859L92.3325 20.7839L93.1266 20.8288L93.9207 18.1586L94.7148 20.8102L95.509 21.6846L96.3031 26.3191L97.0972 29.469L97.8913 25.8205L98.6854 28.6608L99.4796 28.7082L100.274 25.8181L101.068 28.5684L101.862 24.3406L102.656 27.1932L103.45 26.8221L104.244 25.8126L105.038 21.4626L105.832 20.0532L106.627 17.7195L107.421 18.5247L108.215 18.2756L109.009 22.6302L109.803 21.5914L110.597 24.1852L111.391 31.9628L112.185 35.8566L112.98 35.6066L113.774 34.4957L114.568 31.4665L115.362 28.7782L116.156 23.6162L116.95 27.0438L117.744 35.1623L118.538 37.257L119.332 32.4621L120.127 33.3516L120.921 35.2234L121.715 39.3008L122.509 45.0959L123.303 43.237L124.097 40.7298L124.891 43.5616L125.685 43.5247L126.48 41.3119L127.274 39.5245L128.068 46.3519L128.862 48.4455L129.656 43.5397L130.45 42.3341L131.244 41.0836L132.038 37.6572L132.832 37.4152L133.627 39.4564L134.421 37.5799" stroke="#32CA5B" stroke-width="1.25"/>
</g>
<defs>
<clipPath id="clip0_2_462">
<rect width="135" height="50" fill="white" transform="translate(0.214844 0.547852)"/>
</clipPath>
</defs>
</svg>
