<svg width="157" height="59" viewBox="0 0 157 59" fill="none" xmlns="http://www.w3.org/2000/svg">
<g clip-path="url(#clip0_2_352)">
<path d="M0.214844 48.5505L1.14693 47.4017L2.07901 48.9832L3.01109 49.0398L3.94318 46.9685L4.87526 53.451L5.80734 53.6796L6.73943 51.5644L7.67151 42.582L8.60359 45.4642L9.53568 37.3968L10.4678 39.152L11.3998 40.9136L12.3319 30.7548L13.264 36.2582L14.1961 38.7578L15.1282 33.7035L16.0603 34.3296L16.9923 33.7842L17.9244 39.2664L18.8565 39.6903L19.7886 45.465L20.7207 43.9531L21.6528 43.7417L22.5848 46.455L23.5169 45.6005L24.449 42.2825L25.3811 45.518L26.3132 43.9898L27.2453 40.6486L28.1773 48.0354L29.1094 47.6002L30.0415 53.1986L30.9736 50.5398L31.9057 52.5608L32.8378 48.6015L33.7698 49.8846L34.7019 52.7906L35.634 54.186L36.5661 58.5441L37.4982 54.5263L38.4303 50.7355L39.3623 49.0278L40.2944 50.1341L41.2265 46.0336L42.1586 42.9832L43.0907 39.8706L44.0228 41.9886L44.9548 41.3013L45.8869 33.6371L46.819 33.8382L47.7511 31.9668L48.6832 34.6759L49.6153 34.4403L50.5473 21.3573L51.4794 18.9607L52.4115 24.2579L53.3436 20.8418L54.2757 27.0151L55.2078 29.7501L56.1398 24.5926L57.0719 24.3864L58.004 23.4383L58.9361 21.6489L59.8682 23.9652L60.8003 27.4253L61.7323 19.573L62.6644 19.1176L63.5965 16.6566L64.5286 16.4957L65.4607 15.7037L66.3928 11.8191L67.3248 12.0353L68.2569 17.7053L69.189 16.9079L70.1211 12.5754L71.0532 13.2432L71.9853 3.80229L72.9173 6.7363L73.8494 0.547852L74.7815 7.85337L75.7136 7.59555L76.6457 10.4137L77.5778 9.06897L78.5098 8.97226L79.4419 7.14887L80.374 8.67732L81.3061 6.99126L82.2382 6.38363L83.1703 3.13494L84.1023 5.20861L85.0344 5.76762L85.9665 8.14874L86.8986 11.8622L87.8307 11.536L88.7628 15.703L89.6948 14.7124L90.6269 11.9814L91.559 11.6448L92.4911 15.6701L93.4232 16.0688L94.3553 12.0442L95.2873 13.5167L96.2194 15.4574L97.1515 13.5682L98.0836 12.2872L99.0157 12.0803L99.9478 13.5601L100.88 14.1856L101.812 12.8737L102.744 10.9852L103.676 14.3762L104.608 11.3254L105.54 12.1396L106.472 11.1925L107.404 13.161L108.337 15.255L109.269 17.9919L110.201 19.7917L111.133 18.3291L112.065 17.4692L112.997 17.7956L113.929 15.4339L114.861 17.2828L115.793 13.6569L116.725 15.0578L117.657 12.3691L118.589 11.9411L119.522 10.4608L120.454 10.6151L121.386 7.75921L122.318 10.1634L123.25 8.99702L124.182 12.6254L125.114 13.7758L126.046 17.4588L126.978 27.3479L127.91 31.7165L128.842 28.944L129.774 30.1601L130.707 27.5231L131.639 29.836L132.571 26.0605L133.503 28.732L134.435 40.147L135.367 40.9991L136.299 36.2483L137.231 33.9086L138.163 35.8662L139.095 38.7693L140.027 43.511L140.959 44.0205L141.892 41.6215L142.824 45.5884L143.756 43.0787L144.688 38.4061L145.62 40.307L146.552 44.6385L147.484 47.6287L148.416 43.1636L149.348 43.5583L150.28 43.449L151.212 38.2132L152.144 34.9776L153.077 37.1204L154.009 31.6897L154.941 32.1768L155.873 33.5684" stroke="#32CA5B" stroke-width="1.44991"/>
</g>
<defs>
<clipPath id="clip0_2_352">
<rect width="156.59" height="57.9963" fill="white" transform="translate(0.214844 0.547852)"/>
</clipPath>
</defs>
</svg>
