<svg width="136" height="51" viewBox="0 0 136 51" fill="none" xmlns="http://www.w3.org/2000/svg">
<g clip-path="url(#clip0_2_945)">
<path d="M0.796387 9.7462L1.59996 9.13481L2.40353 6.47793L3.2071 6.8086L4.01067 8.80819L4.81424 8.54225L5.61782 5.76866L6.42139 5.89363L7.22496 5.78786L8.02853 4.29427L8.8321 2.71615L9.63567 2.53669L10.4392 0.84668L11.2428 1.23269L12.0464 1.8286L12.85 2.85402L13.6535 2.80504L14.4571 3.90415L15.2607 5.20503L16.0642 11.5526L16.8678 17.6247L17.6714 19.1549L18.475 23.8883L19.2785 22.812L20.0821 23.7087L20.8857 26.9186L21.6892 30.8081L22.4928 28.8549L23.2964 31.2022L24.1 30.4313L24.9035 28.1918L25.7071 26.787L26.5107 24.8432L27.3142 25.0241L28.1178 26.9357L28.9214 26.6679L29.725 25.878L30.5285 26.9061L31.3321 26.845L32.1357 31.1127L32.9392 30.3615L33.7428 30.9212L34.5464 32.8512L35.35 30.8206L36.1535 31.9593L36.9571 28.2181L37.7607 30.1913L38.5642 31.9548L39.3678 38.2497L40.1714 41.922L40.975 41.1144L41.7785 41.679L42.5821 41.9787L43.3857 44.7979L44.1892 41.8216L44.9928 40.6491L45.7964 40.7923L46.6 40.1954L47.4035 39.2343L48.2071 41.3057L49.0107 40.4889L49.8142 44.0225L50.6178 48.3803L51.4214 46.3391L52.225 44.3672L53.0285 47.0771L53.8321 46.1343L54.6357 47.6588L55.4392 50.8467L56.2428 47.8056L57.0464 50.6407L57.85 47.3751L58.6535 47.3583L59.4571 46.0301L60.2607 47.5886L61.0642 46.6296L61.8678 46.374L62.6714 46.6822L63.475 47.2046L64.2785 42.4237L65.0821 43.2614L65.8857 43.7968L66.6892 42.7264L67.4928 41.8312L68.2964 42.0497L69.1 41.9033L69.9035 41.651L70.7071 41.8276L71.5107 42.4171L72.3142 40.9976L73.1178 40.4493L73.9214 43.647L74.725 43.7745L75.5285 39.1452L76.3321 33.909L77.1357 36.3321L77.9392 34.4123L78.7428 34.4199L79.5464 34.3858L80.35 35.1827L81.1535 36.2752L81.9571 36.1396L82.7607 35.2335L83.5642 36.1417L84.3678 38.8249L85.1714 38.3766L85.975 37.5993L86.7785 36.293L87.5821 35.3828L88.3857 36.0165L89.1892 35.5279L89.9928 35.0349L90.7964 35.5204L91.6 35.7296L92.4035 35.412L93.2071 36.7449L94.0107 36.7291L94.8142 36.5079L95.6178 37.722L96.4214 36.994L97.225 38.4562L98.0285 39.2086L98.8321 39.3436L99.6357 37.4615L100.439 36.1389L101.243 36.5598L102.046 37.3604L102.85 36.0082L103.654 36.0529L104.457 36.3478L105.261 36.5988L106.064 35.9746L106.868 36.1585L107.671 35.7675L108.475 35.3279L109.279 34.9047L110.082 35.3812L110.886 34.1795L111.689 34.159L112.493 34.0901L113.296 31.0504L114.1 30.677L114.904 32.584L115.707 32.1605L116.511 31.173L117.314 32.0546L118.118 32.5617L118.921 34.9874L119.725 33.8356L120.529 32.4156L121.332 25.8179L122.136 24.2373L122.939 22.7702L123.743 23.9679L124.546 24.8093L125.35 25.6874L126.154 24.4664L126.957 26.0451L127.761 26.8328L128.564 30.1848L129.368 31.1975L130.171 29.0692L130.975 28.3118L131.779 25.5475L132.582 24.8442L133.386 27.4836L134.189 26.6824L134.993 32.8459" stroke="#FF3A33" stroke-width="1.25"/>
</g>
<defs>
<clipPath id="clip0_2_945">
<rect width="135" height="50" fill="white" transform="translate(0.796387 0.84668)"/>
</clipPath>
</defs>
</svg>
