<svg width="136" height="51" viewBox="0 0 136 51" fill="none" xmlns="http://www.w3.org/2000/svg">
<g clip-path="url(#clip0_2_757)">
<path d="M0.796387 10.5077L1.5952 11.1942L2.39402 10.6325L3.19284 8.90693L3.99165 10.3017L4.79047 13.3635L5.58929 16.0277L6.3881 11.4988L7.18692 10.3168L7.98574 10.1615L8.78455 6.27468L9.58337 2.17533L10.3822 2.10954L11.181 0.84668L11.9798 1.2122L12.7786 2.37275L13.5775 4.50164L14.3763 3.0081L15.1751 5.15688L15.9739 5.28612L16.7727 16.2696L17.5715 25.7303L18.3704 23.0309L19.1692 30.7868L19.968 32.3033L20.7668 35.5381L21.5656 38.1442L22.3644 42.782L23.1632 36.7816L23.9621 37.5413L24.7609 38.2936L25.5597 36.3122L26.3585 31.8004L27.1573 30.875L27.9562 31.2574L28.755 31.1959L29.5538 32.3266L30.3526 29.7646L31.1514 29.2127L31.9502 29.2491L32.7491 37.3483L33.5479 42.1106L34.3467 39.4422L35.1455 44.9396L35.9443 39.0813L36.7431 39.8179L37.542 37.3922L38.3408 38.0436L39.1396 39.4554L39.9384 48.5494L40.7372 46.6682L41.536 43.823L42.3348 42.401L43.1337 41.6197L43.9325 44.3092L44.7313 41.8176L45.5301 39.1382L46.3289 39.1725L47.1277 36.5475L47.9266 36.476L48.7254 36.9697L49.5242 36.3962L50.323 43.2937L51.1218 45.926L51.9206 43.7289L52.7195 45.2363L53.5183 48.421L54.3171 46.8702L55.1159 45.0025L55.9147 50.8467L56.7135 45.7531L57.5124 45.2486L58.3112 44.5575L59.11 42.1294L59.9088 41.0383L60.7076 45.1996L61.5064 41.6827L62.3053 41.6517L63.1041 41.3137L63.9029 43.3035L64.7017 36.6327L65.5005 39.6595L66.2993 38.8783L67.0982 37.9994L67.897 36.5084L68.6958 37.6456L69.4946 35.3551L70.2934 33.0712L71.0922 34.7336L71.8911 33.4943L72.6899 32.3226L73.4887 29.8395L74.2875 35.7496L75.0863 32.8418L75.8851 32.5497L76.684 28.3004L77.4828 31.7871L78.2816 28.1638L79.0804 27.4703L79.8792 27.5172L80.678 29.2433L81.4769 30.6077L82.2757 28.9319L83.0745 27.8059L83.8733 28.4188L84.6721 32.8766L85.4709 31.369L86.2698 28.0789L87.0686 26.9296L87.8674 24.0833L88.6662 21.446L89.465 20.2898L90.2638 21.2475L91.0627 22.636L91.8615 23.3763L92.6603 21.4837L93.4591 23.3853L94.2579 21.9966L95.0567 20.5132L95.8556 23.2791L96.6544 22.1511L97.4532 22.3949L98.252 24.9282L99.0508 25.8695L99.8496 22.5569L100.648 20.9401L101.447 22.2522L102.246 22.1599L103.045 18.0828L103.844 19.5472L104.643 22.4903L105.441 22.2091L106.24 21.8426L107.039 21.7699L107.838 22.0163L108.637 22.0059L109.435 20.9904L110.234 23.0041L111.033 21.8326L111.832 19.8608L112.631 20.6752L113.43 16.5043L114.228 15.7179L115.027 17.9031L115.826 17.3822L116.625 16.5218L117.424 18.4897L118.222 16.612L119.021 20.9256L119.82 16.8362L120.619 13.2544L121.418 7.07984L122.217 6.45461L123.015 8.31143L123.814 9.99703L124.613 10.4838L125.412 9.96071L126.211 5.82418L127.009 7.1927L127.808 7.6798L128.607 11.2835L129.406 15.242L130.205 12.2116L131.003 11.8247L131.802 7.68592L132.601 5.16998L133.4 10.3419L134.199 7.71493L134.998 16.1758" stroke="#FF3A33" stroke-width="1.25"/>
</g>
<defs>
<clipPath id="clip0_2_757">
<rect width="135" height="50" fill="white" transform="translate(0.796387 0.84668)"/>
</clipPath>
</defs>
</svg>
