<svg width="136" height="51" viewBox="0 0 136 51" fill="none" xmlns="http://www.w3.org/2000/svg">
<g clip-path="url(#clip0_2_837)">
<path d="M0.796387 15.2952L1.59996 13.4652L2.40353 11.9514L3.2071 13.1216L4.01067 13.5957L4.81424 14.4574L5.61782 10.1965L6.42139 12.5466L7.22496 11.8137L8.02853 9.19373L8.8321 7.54952L9.63567 4.46468L10.4392 1.34691L11.2428 0.84668L12.0464 1.54867L12.85 3.23788L13.6535 3.08248L14.4571 1.74835L15.2607 2.06323L16.0642 11.1762L16.8678 19.4511L17.6714 22.795L18.475 26.8793L19.2785 26.252L20.0821 26.1527L20.8857 28.6065L21.6892 32.0174L22.4928 31.1151L23.2964 32.0889L24.1 34.2572L24.9035 31.7L25.7071 28.4854L26.5107 28.1519L27.3142 26.611L28.1178 28.1843L28.9214 30.1454L29.725 27.4542L30.5285 26.9398L31.3321 27.1142L32.1357 32.1506L32.9392 33.4248L33.7428 36.5302L34.5464 43.0929L35.35 40.8507L36.1535 41.6188L36.9571 33.0866L37.7607 38.4712L38.5642 38.6451L39.3678 45.0128L40.1714 45.2054L40.975 42.5035L41.7785 45.8153L42.5821 43.6108L43.3857 44.4317L44.1892 41.5286L44.9928 39.4109L45.7964 39.427L46.6 39.4575L47.4035 41.1093L48.2071 42.1406L49.0107 41.3777L49.8142 46.1187L50.6178 50.8467L51.4214 45.4374L52.225 45.3307L53.0285 49.966L53.8321 43.2294L54.6357 41.1021L55.4392 45.4704L56.2428 43.197L57.0464 43.3307L57.85 40.8538L58.6535 40.8905L59.4571 37.9466L60.2607 39.3673L61.0642 37.16L61.8678 38.6652L62.6714 36.2333L63.475 39.6838L64.2785 36.3273L65.0821 34.865L65.8857 32.3312L66.6892 30.3944L67.4928 25.1408L68.2964 24.2738L69.1 26.3906L69.9035 28.1391L70.7071 28.5529L71.5107 30.0391L72.3142 29.3507L73.1178 25.0452L73.9214 30.5439L74.725 29.8068L75.5285 27.3576L76.3321 24.4833L77.1357 22.4572L77.9392 22.2468L78.7428 21.372L79.5464 23.5587L80.35 23.3405L81.1535 24.3587L81.9571 22.7751L82.7607 23.1932L83.5642 25.3839L84.3678 27.5247L85.1714 25.961L85.975 24.2621L86.7785 23.3367L87.5821 22.9321L88.3857 24.636L89.1892 25.1762L89.9928 24.7974L90.7964 24.9173L91.6 24.8775L92.4035 24.3971L93.2071 27.5952L94.0107 27.8181L94.8142 27.7096L95.6178 29.8868L96.4214 28.9785L97.225 30.2545L98.0285 30.6424L98.8321 31.997L99.6357 29.2629L100.439 27.1001L101.243 29.8931L102.046 29.8159L102.85 27.8139L103.654 29.1378L104.457 30.8393L105.261 31.5739L106.064 31.7178L106.868 31.0335L107.671 30.0925L108.475 30.3943L109.279 29.8996L110.082 30.6105L110.886 29.6502L111.689 27.3891L112.493 29.219L113.296 26.4062L114.1 26.0061L114.904 28.5138L115.707 28.7707L116.511 27.4064L117.314 28.9262L118.118 27.8051L118.921 29.5541L119.725 27.4018L120.529 25.5105L121.332 19.2553L122.136 17.6943L122.939 19.8665L123.743 21.549L124.546 23.595L125.35 25.3843L126.154 22.628L126.957 24.8801L127.761 24.4696L128.564 28.3417L129.368 31.8778L130.171 29.3964L130.975 29.536L131.779 26.8406L132.582 27.6275L133.386 24.5566L134.189 22.9844L134.993 30.3194" stroke="#FF3A33" stroke-width="1.25"/>
</g>
<defs>
<clipPath id="clip0_2_837">
<rect width="135" height="50" fill="white" transform="translate(0.796387 0.84668)"/>
</clipPath>
</defs>
</svg>
