<svg width="136" height="51" viewBox="0 0 136 51" fill="none" xmlns="http://www.w3.org/2000/svg">
<g clip-path="url(#clip0_2_392)">
<path d="M0.214844 39.8674L1.01842 40.0506L1.82199 37.584L2.62556 38.4529L3.42913 36.4294L4.2327 34.2361L5.03627 31.4135L5.83984 32.7204L6.64341 40.8324L7.44699 38.8732L8.25056 37.5923L9.05413 30.5091L9.8577 29.9922L10.6613 29.6067L11.4648 30.2436L12.2684 31.2512L13.072 30.0714L13.8756 28.0569L14.6791 24.2577L15.4827 13.9567L16.2863 16.0355L17.0898 19.1276L17.8934 24.6611L18.697 21.2376L19.5006 26.344L20.3041 26.1957L21.1077 25.2701L21.9113 26.7378L22.7148 28.6124L23.5184 29.5663L24.322 29.5253L25.1256 30.6455L25.9291 25.9688L26.7327 27.1785L27.5363 29.203L28.3398 32.6735L29.1434 34.0945L29.947 33.8651L30.7506 31.879L31.5541 29.1792L32.3577 32.5541L33.1613 38.0022L33.9648 36.8351L34.7684 40.2569L35.572 36.0959L36.3756 35.8739L37.1791 35.5371L37.9827 32.0694L38.7863 29.6354L39.5898 27.5664L40.3934 28.2562L41.197 28.2217L42.0006 21.9689L42.8041 24.9184L43.6077 26.1378L44.4113 24.5841L45.2148 18.901L46.0184 15.3782L46.822 14.0286L47.6256 17.4879L48.4291 17.4971L49.2327 16.2947L50.0363 23.2088L50.8398 20.9042L51.6434 18.4149L52.447 20.8863L53.2506 14.4882L54.0541 8.95606L54.8577 9.98232L55.6613 6.39692L56.4648 6.51043L57.2684 6.25003L58.072 4.11043L58.8756 6.7928L59.6791 5.58355L60.4827 4.5671L61.2863 12.5149L62.0898 9.73967L62.8934 6.0416L63.697 9.86774L64.5006 1.88816L65.3041 0.547852L66.1077 2.32658L66.9113 8.31269L67.7148 7.53843L68.5184 7.403L69.322 7.20364L70.1256 9.0096L70.9291 7.64205L71.7327 9.32874L72.5363 6.92699L73.3398 9.60718L74.1434 5.18827L74.947 8.92113L75.7506 7.36358L76.5541 11.9804L77.3577 22.0128L78.1613 19.6538L78.9648 24.0058L79.7684 23.4182L80.572 20.2101L81.3756 20.5461L82.1791 22.996L82.9827 22.7686L83.7863 20.5763L84.5898 20.3804L85.3934 25.3678L86.197 21.4047L87.0006 20.011L87.8041 20.4153L88.6077 19.7573L89.4113 21.8913L90.2148 19.7718L91.0184 20.1661L91.822 21.5182L92.6256 22.6271L93.4291 19.3841L94.2327 19.5877L95.0363 21.7773L95.8398 22.9568L96.6434 26.5762L97.447 28.1338L98.2506 28.059L99.0541 26.4822L99.8577 28.7674L100.661 26.2132L101.465 27.5589L102.268 25.6509L103.072 26.411L103.876 25.2577L104.679 27.4717L105.483 21.0339L106.286 22.1447L107.09 20.2941L107.893 16.1161L108.697 13.8437L109.501 17.1457L110.304 21.2414L111.108 24.8028L111.911 21.8989L112.715 28.9741L113.518 31.8674L114.322 33.1095L115.126 29.5144L115.929 30.2511L116.733 28.2699L117.536 29.0456L118.34 30.6252L119.143 39.6211L119.947 35.6656L120.751 34.7909L121.554 33.8707L122.358 35.1122L123.161 36.6228L123.965 38.3496L124.768 36.8445L125.572 37.3616L126.376 40.3494L127.179 35.8993L127.983 37.3841L128.786 41.236L129.59 50.5479L130.393 42.3066L131.197 38.9131L132.001 40.8863L132.804 33.7881L133.608 32.6543L134.411 34.6192" stroke="#32CA5B" stroke-width="1.25"/>
</g>
<defs>
<clipPath id="clip0_2_392">
<rect width="135" height="50" fill="white" transform="translate(0.214844 0.547852)"/>
</clipPath>
</defs>
</svg>
