<svg width="136" height="51" viewBox="0 0 136 51" fill="none" xmlns="http://www.w3.org/2000/svg">
<g clip-path="url(#clip0_2_885)">
<path d="M0.796387 5.55506L1.5952 8.50569L2.39402 8.11362L3.19284 6.80918L3.99165 6.72196L4.79047 9.72982L5.58929 10.5983L6.3881 8.52712L7.18692 8.49434L7.98574 6.50291L8.78455 4.24386L9.58337 1.93842L10.3822 2.17997L11.181 3.10774L11.9798 0.84668L12.7786 2.76227L13.5775 3.94998L14.3763 3.79663L15.1751 5.48867L15.9739 6.74187L16.7727 11.3029L17.5715 24.2124L18.3704 20.9841L19.1692 22.0241L19.968 25.3299L20.7668 24.9373L21.5656 27.7738L22.3644 28.4051L23.1632 27.3634L23.9621 30.1481L24.7609 29.1385L25.5597 28.6462L26.3585 26.5239L27.1573 23.9219L27.9562 24.1894L28.755 22.9048L29.5538 23.4665L30.3526 21.4748L31.1514 22.0707L31.9502 22.06L32.7491 28.4809L33.5479 27.8565L34.3467 27.5457L35.1455 27.7754L35.9443 28.3768L36.7431 27.7434L37.542 23.9242L38.3408 29.2481L39.1396 29.0536L39.9384 34.4781L40.7372 36.7317L41.536 33.9915L42.3348 36.3959L43.1337 34.8412L43.9325 37.1348L44.7313 35.7243L45.5301 33.913L46.3289 33.6565L47.1277 32.2541L47.9266 32.3271L48.7254 34.2493L49.5242 32.3481L50.323 37.1575L51.1218 45.2225L51.9206 40.1413L52.7195 38.0651L53.5183 42.1491L54.3171 41.3427L55.1159 39.9961L55.9147 44.1698L56.7135 42.0636L57.5124 45.904L58.3112 42.4729L59.11 43.5725L59.9088 40.8088L60.7076 43.93L61.5064 41.5714L62.3053 41.3021L63.1041 40.7148L63.9029 41.7615L64.7017 38.1098L65.5005 38.9518L66.2993 39.4403L67.0982 39.3474L67.897 36.5287L68.6958 37.86L69.4946 37.108L70.2934 36.4764L71.0922 37.6969L71.8911 38.1807L72.6899 36.6336L73.4887 35.5509L74.2875 39.4267L75.0863 37.684L75.8851 36.2819L76.684 34.457L77.4828 36.1121L78.2816 34.8138L79.0804 36.0642L79.8792 35.3038L80.678 35.5946L81.4769 35.5879L82.2757 35.0852L83.0745 35.3007L83.8733 36.0223L84.6721 39.0385L85.4709 38.3525L86.2698 37.4056L87.0686 36.3745L87.8674 35.1192L88.6662 35.816L89.465 35.2194L90.2638 35.0508L91.0627 36.2305L91.8615 35.9154L92.6603 36.0375L93.4591 38.1761L94.2579 37.2766L95.0567 36.2563L95.8556 38.064L96.6544 37.1471L97.4532 38.464L98.252 39.3659L99.0508 39.3669L99.8496 37.8082L100.648 36.5279L101.447 36.227L102.246 36.6494L103.045 34.1071L103.844 34.9928L104.643 35.8176L105.441 35.456L106.24 34.5458L107.039 34.2184L107.838 35.0397L108.637 34.537L109.435 34.0617L110.234 34.9308L111.033 33.881L111.832 33.1245L112.631 34.532L113.43 31.4944L114.228 31.2918L115.027 34.2778L115.826 33.7733L116.625 33.6336L117.424 35.1606L118.222 35.0876L119.021 37.1421L119.82 35.4978L120.619 36.2528L121.418 31.4605L122.217 30.3831L123.015 32.2038L123.814 33.678L124.613 34.0277L125.412 35.0581L126.211 35.0075L127.009 36.0766L127.808 37.5759L128.607 45.8013L129.406 48.2385L130.205 47.499L131.003 50.8467L131.802 45.2984L132.601 46.0127L133.4 46.7002L134.199 47.0576L134.998 50.1523" stroke="#FF3A33" stroke-width="1.25"/>
</g>
<defs>
<clipPath id="clip0_2_885">
<rect width="135" height="50" fill="white" transform="translate(0.796387 0.84668)"/>
</clipPath>
</defs>
</svg>
