<svg width="136" height="51" viewBox="0 0 136 51" fill="none" xmlns="http://www.w3.org/2000/svg">
<g clip-path="url(#clip0_2_488)">
<path d="M0.214844 29.1878L1.01366 28.8864L1.81248 28.146L2.61129 26.836L3.41011 31.0604L4.20893 31.4905L5.00774 30.0319L5.80656 32.0755L6.60538 36.4477L7.40419 37.4689L8.20301 38.5081L9.00183 38.0038L9.80064 35.0938L10.5995 36.0229L11.3983 35.8243L12.1971 35.4287L12.9959 34.0057L13.7947 32.6434L14.5935 34.1731L15.3924 32.9323L16.1912 35.1439L16.99 36.4864L17.7888 36.7306L18.5876 39.8162L19.3864 39.8935L20.1853 42.8894L20.9841 41.8287L21.7829 39.1819L22.5817 39.1862L23.3805 38.2148L24.1793 37.9906L24.9782 38.5858L25.777 36.7553L26.5758 35.0383L27.3746 40.6702L28.1734 42.026L28.9722 43.9653L29.7711 42.6776L30.5699 41.8812L31.3687 41.419L32.1675 43.7559L32.9663 45.6247L33.7651 44.9619L34.564 50.5479L35.3628 47.4119L36.1616 45.2078L36.9604 44.1529L37.7592 43.3146L38.558 39.704L39.3569 37.8201L40.1557 36.0605L40.9545 41.5348L41.7533 40.7939L42.5521 39.6055L43.3509 38.0579L44.1498 37.5892L44.9486 37.135L45.7474 40.7146L46.5462 30.8378L47.345 33.4212L48.1438 33.8566L48.9427 30.539L49.7415 31.6057L50.5403 34.4152L51.3391 30.744L52.1379 29.2107L52.9367 30.0044L53.7356 26.0811L54.5344 28.0694L55.3332 30.1452L56.132 27.0523L56.9308 22.2729L57.7296 19.7122L58.5285 12.7123L59.3273 10.1313L60.1261 8.56554L60.9249 13.6118L61.7237 18.0369L62.5225 13.4604L63.3214 18.4359L64.1202 20.6067L64.919 13.1262L65.7178 12.3032L66.5166 4.62136L67.3154 4.07086L68.1143 3.00976L68.9131 2.7348L69.7119 4.45519L70.5107 5.44314L71.3095 0.547852L72.1083 3.15878L72.9072 4.65478L73.706 3.36178L74.5048 0.766547L75.3036 5.47702L76.1024 2.68641L76.9012 3.58521L77.7001 4.14243L78.4989 3.76719L79.2977 7.37409L80.0965 5.22088L80.8953 3.93924L81.6941 6.50513L82.493 8.0079L83.2918 8.80814L84.0906 2.79488L84.8894 2.56518L85.6882 8.82763L86.487 6.43239L87.2859 5.79191L88.0847 6.24456L88.8835 5.07646L89.6823 7.88401L90.4811 4.3614L91.2799 7.46133L92.0788 10.8027L92.8776 7.05408L93.6764 9.97502L94.4752 7.93127L95.274 11.1052L96.0728 12.8141L96.8717 15.6809L97.6705 19.0049L98.4693 16.8388L99.2681 17.0397L100.067 15.7401L100.866 12.6585L101.665 17.7334L102.463 15.21L103.262 17.348L104.061 15.6668L104.86 13.9753L105.659 12.7926L106.457 12.4111L107.256 11.1221L108.055 16.1653L108.854 14.9785L109.653 12.8922L110.452 18.6995L111.25 20.1424L112.049 28.0144L112.848 32.0887L113.647 30.3661L114.446 25.6802L115.244 25.5726L116.043 27.7953L116.842 24.8044L117.641 26.4776L118.44 30.7424L119.239 31.23L120.037 26.6142L120.836 27.8341L121.635 29.2929L122.434 29.1915L123.233 34.2928L124.031 37.4858L124.83 34.7696L125.629 38.4522L126.428 37.9629L127.227 36.3348L128.025 36.226L128.824 39.9801L129.623 41.0641L130.422 38.479L131.221 38.4381L132.02 35.9526L132.818 33.1331L133.617 30.2556L134.416 32.9587" stroke="#FF3A33" stroke-width="1.25"/>
</g>
<defs>
<clipPath id="clip0_2_488">
<rect width="135" height="50" fill="white" transform="translate(0.214844 0.547852)"/>
</clipPath>
</defs>
</svg>
