<svg width="14" height="14" viewBox="0 0 14 14" fill="none" xmlns="http://www.w3.org/2000/svg">
<path d="M7 14C8.27604 13.9818 9.44271 13.6719 10.5 13.0703C11.5573 12.4505 12.4141 11.5938 13.0703 10.5C13.6901 9.38802 14 8.22135 14 7C14 5.77865 13.6901 4.61198 13.0703 3.5C12.4141 2.40625 11.5573 1.54948 10.5 0.929688C9.44271 0.328125 8.27604 0.0182295 7 0C5.72396 0.0182295 4.55729 0.328125 3.5 0.929688C2.44271 1.54948 1.58594 2.40625 0.929688 3.5C0.309896 4.61198 0 5.77865 0 7C0 8.22135 0.309896 9.38802 0.929688 10.5C1.58594 11.5938 2.44271 12.4505 3.5 13.0703C4.55729 13.6719 5.72396 13.9818 7 14Z" fill="#00A83E"/>
</svg>
