<svg width="136" height="51" viewBox="0 0 136 51" fill="none" xmlns="http://www.w3.org/2000/svg">
<g clip-path="url(#clip0_16_379)">
<path d="M0.796387 47.1542L1.59996 47.1014L2.40353 44.217L3.2071 44.4265L4.01067 47.8601L4.81424 48.2228L5.61782 46.7112L6.42139 45.9293L7.22496 45.6641L8.02853 42.0813L8.8321 41.8879L9.63567 41.9038L10.4392 39.2099L11.2428 41.035L12.0464 41.0656L12.85 40.9374L13.6535 40.4001L14.4571 43.064L15.2607 46.6574L16.0642 46.9284L16.8678 50.8467L17.6714 43.3424L18.475 42.2799L19.2785 44.2954L20.0821 44.5941L20.8857 48.3207L21.6892 46.8081L22.4928 43.2202L23.2964 45.813L24.1 43.9303L24.9035 42.3805L25.7071 35.9971L26.5107 39.5046L27.3142 36.8195L28.1178 37.0138L28.9214 35.3287L29.725 34.912L30.5285 32.2115L31.3321 29.731L32.1357 35.0846L32.9392 36.0513L33.7428 36.5341L34.5464 38.2377L35.35 32.2316L36.1535 33.1604L36.9571 29.6215L37.7607 31.4735L38.5642 34.4195L39.3678 40.6513L40.1714 37.4706L40.975 36.3238L41.7785 37.9906L42.5821 34.3154L43.3857 36.0274L44.1892 34.8793L44.9928 35.4465L45.7964 34.0076L46.6 32.7228L47.4035 34.5093L48.2071 34.9467L49.0107 35.632L49.8142 43.3078L50.6178 46.2601L51.4214 41.8738L52.225 41.0134L53.0285 43.4277L53.8321 42.3095L54.6357 41.2829L55.4392 44.3622L56.2428 42.9927L57.0464 47.0133L57.85 46.5303L58.6535 46.0098L59.4571 41.3047L60.2607 41.3973L61.0642 41.7488L61.8678 40.1321L62.6714 35.6651L63.475 40.6163L64.2785 36.3327L65.0821 36.0858L65.8857 36.2517L66.6892 34.3565L67.4928 34.6066L68.2964 35.391L69.1 35.4106L69.9035 39.6805L70.7071 39.6943L71.5107 39.8613L72.3142 37.8841L73.1178 35.4205L73.9214 36.5886L74.725 36.9611L75.5285 37.157L76.3321 29.7933L77.1357 25.9096L77.9392 22.0884L78.7428 19.2151L79.5464 16.7625L80.35 21.0217L81.1535 20.3139L81.9571 19.8702L82.7607 21.0197L83.5642 23.1957L84.3678 25.3609L85.1714 24.4228L85.975 24.1722L86.7785 24.5083L87.5821 21.5749L88.3857 21.0093L89.1892 21.9017L89.9928 19.9298L90.7964 18.5335L91.6 18.0438L92.4035 20.7467L93.2071 19.1687L94.0107 19.7549L94.8142 18.391L95.6178 20.5488L96.4214 20.0526L97.225 21.3358L98.0285 21.4324L98.8321 22.836L99.6357 22.832L100.439 24.4043L101.243 23.0828L102.046 22.9373L102.85 20.739L103.654 24.0749L104.457 24.9314L105.261 24.5725L106.064 25.6076L106.868 23.7644L107.671 24.3151L108.475 24.6812L109.279 21.6873L110.082 20.365L110.886 21.2579L111.689 20.0626L112.493 19.4969L113.296 16.1456L114.1 13.3892L114.904 12.2292L115.707 15.3938L116.511 15.4441L117.314 16.6181L118.118 18.0542L118.921 19.2821L119.725 17.6484L120.529 18.7464L121.332 2.23257L122.136 7.39345L122.939 9.70555L123.743 9.08305L124.546 5.30658L125.35 2.07506L126.154 0.84668L126.957 5.06903L127.761 5.50044L128.564 7.24116L129.368 7.82715L130.171 3.72249L130.975 6.88723L131.779 7.13616L132.582 9.00521L133.386 8.28628L134.189 8.81183L134.993 11.163" stroke="#32CA5B" stroke-width="1.25"/>
</g>
<defs>
<clipPath id="clip0_16_379">
<rect width="135" height="50" fill="white" transform="translate(0.796387 0.84668)"/>
</clipPath>
</defs>
</svg>
