<svg width="136" height="51" viewBox="0 0 136 51" fill="none" xmlns="http://www.w3.org/2000/svg">
<g clip-path="url(#clip0_2_929)">
<path d="M0.796387 19.6806L1.59996 21.3325L2.40353 16.2883L3.2071 18.422L4.01067 20.1119L4.81424 24.342L5.61782 14.733L6.42139 14.9466L7.22496 14.8249L8.02853 14.0689L8.8321 15.0689L9.63567 17.3128L10.4392 17.0734L11.2428 17.0264L12.0464 17.1266L12.85 15.6155L13.6535 15.6405L14.4571 16.5965L15.2607 16.1125L16.0642 22.5873L16.8678 32.7714L17.6714 35.7323L18.475 40.8828L19.2785 44.135L20.0821 46.7541L20.8857 48.4018L21.6892 49.3372L22.4928 46.9483L23.2964 49.9813L24.1 47.1673L24.9035 45.8649L25.7071 39.1817L26.5107 30.8164L27.3142 17.8336L28.1178 16.157L28.9214 14.0302L29.725 8.82038L30.5285 12.1714L31.3321 8.86022L32.1357 17.2467L32.9392 14.3565L33.7428 14.0599L34.5464 16.104L35.35 8.37451L36.1535 15.2333L36.9571 11.9932L37.7607 23.0964L38.5642 24.5014L39.3678 35.4318L40.1714 30.6974L40.975 23.4046L41.7785 27.6799L42.5821 27.3616L43.3857 27.6424L44.1892 17.7585L44.9928 19.2823L45.7964 16.3144L46.6 18.3742L47.4035 23.2403L48.2071 24.7837L49.0107 28.6268L49.8142 34.1887L50.6178 38.6935L51.4214 36.8971L52.225 36.7843L53.0285 42.1665L53.8321 44.5998L54.6357 39.1912L55.4392 45.303L56.2428 46.1665L57.0464 50.8467L57.85 44.9313L58.6535 47.0454L59.4571 45.9562L60.2607 49.1508L61.0642 43.797L61.8678 44.9083L62.6714 44.2101L63.475 44.6685L64.2785 42.287L65.0821 42.2899L65.8857 43.4036L66.6892 46.659L67.4928 46.7054L68.2964 46.7166L69.1 44.3069L69.9035 43.869L70.7071 45.3744L71.5107 45.9231L72.3142 45.8719L73.1178 42.9403L73.9214 42.9733L74.725 42.6733L75.5285 31.8163L76.3321 26.6403L77.1357 28.3014L77.9392 27.9028L78.7428 26.1906L79.5464 27.394L80.35 31.7228L81.1535 31.9026L81.9571 29.5266L82.7607 28.3885L83.5642 32.5044L84.3678 36.9577L85.1714 30.0686L85.975 28.0384L86.7785 29.8584L87.5821 30.906L88.3857 31.6438L89.1892 31.48L89.9928 29.0316L90.7964 30.4567L91.6 27.7771L92.4035 24.8788L93.2071 29.3277L94.0107 26.2969L94.8142 29.6894L95.6178 33.6004L96.4214 32.7691L97.225 34.1699L98.0285 35.7703L98.8321 37.6231L99.6357 34.8677L100.439 32.4931L101.243 32.2052L102.046 33.8973L102.85 30.657L103.654 29.7357L104.457 30.9653L105.261 33.558L106.064 24.7685L106.868 21.6304L107.671 19.0778L108.475 15.8343L109.279 15.7095L110.082 19.7408L110.886 18.7456L111.689 18.2893L112.493 18.7628L113.296 17.9021L114.1 20.7131L114.904 22.4581L115.707 19.9716L116.511 18.9935L117.314 20.173L118.118 18.7586L118.921 20.5179L119.725 19.1099L120.529 18.8029L121.332 17.6024L122.136 16.889L122.939 16.043L123.743 16.2914L124.546 18.6356L125.35 12.0489L126.154 9.81185L126.957 4.16528L127.761 0.84668L128.564 6.78706L129.368 7.25618L130.171 7.68067L130.975 5.98124L131.779 6.46551L132.582 9.42474L133.386 13.1024L134.189 7.59102L134.993 10.084" stroke="#32CA5B" stroke-width="1.25"/>
</g>
<defs>
<clipPath id="clip0_2_929">
<rect width="135" height="50" fill="white" transform="translate(0.796387 0.84668)"/>
</clipPath>
</defs>
</svg>
