<svg width="12" height="15" viewBox="0 0 12 15" fill="none" xmlns="http://www.w3.org/2000/svg">
<path d="M1.67139 1.56836C1.41618 1.56836 1.20654 1.65039 1.04248 1.81445C0.878418 1.97852 0.796387 2.18815 0.796387 2.44336C0.796387 2.69857 0.878418 2.9082 1.04248 3.07227C1.20654 3.23633 1.41618 3.31836 1.67139 3.31836H10.4214C10.6766 3.31836 10.8862 3.23633 11.0503 3.07227C11.2144 2.9082 11.2964 2.69857 11.2964 2.44336C11.2964 2.18815 11.2144 1.97852 11.0503 1.81445C10.8862 1.65039 10.6766 1.56836 10.4214 1.56836H1.67139ZM6.67529 5.31445C6.493 5.15039 6.28337 5.06836 6.04639 5.06836C5.80941 5.06836 5.59977 5.15039 5.41748 5.31445L1.91748 8.81445C1.75342 8.99674 1.67139 9.20638 1.67139 9.44336C1.67139 9.68034 1.75342 9.88997 1.91748 10.0723C2.09977 10.2363 2.30941 10.3184 2.54639 10.3184C2.78337 10.3184 2.993 10.2363 3.17529 10.0723L5.17139 8.04883V12.9434C5.17139 13.1986 5.25342 13.4082 5.41748 13.5723C5.58154 13.7363 5.79118 13.8184 6.04639 13.8184C6.3016 13.8184 6.51123 13.7363 6.67529 13.5723C6.83936 13.4082 6.92139 13.1986 6.92139 12.9434V8.04883L8.91748 10.0723C9.09977 10.2363 9.30941 10.3184 9.54639 10.3184C9.78337 10.3184 9.993 10.2363 10.1753 10.0723C10.3394 9.88997 10.4214 9.68034 10.4214 9.44336C10.4214 9.20638 10.3394 8.99674 10.1753 8.81445L6.67529 5.31445Z" fill="#0F172A"/>
</svg>
