<svg width="136" height="51" viewBox="0 0 136 51" fill="none" xmlns="http://www.w3.org/2000/svg">
<g clip-path="url(#clip0_2_789)">
<path d="M0.796387 1.48871L1.59996 3.05734L2.40353 1.69047L3.2071 3.66638L4.01067 7.57809L4.81424 11.9519L5.61782 7.2047L6.42139 6.72169L7.22496 5.17389L8.02853 2.62092L8.8321 1.72865L9.63567 1.09625L10.4392 0.84668L11.2428 1.42764L12.0464 2.62273L12.85 2.65774L13.6535 1.7318L14.4571 4.34038L15.2607 4.92921L16.0642 13.6966L16.8678 24.0525L17.6714 23.5385L18.475 31.0802L19.2785 31.6882L20.0821 35.2088L20.8857 36.5586L21.6892 38.9692L22.4928 36.2224L23.2964 37.3493L24.1 37.1198L24.9035 34.398L25.7071 30.7121L26.5107 30.4186L27.3142 30.0887L28.1178 32.6264L28.9214 33.0352L29.725 29.4803L30.5285 28.8195L31.3321 29.3349L32.1357 36.0416L32.9392 37.3982L33.7428 38.9899L34.5464 40.1675L35.35 37.0843L36.1535 37.9352L36.9571 33.572L37.7607 42.0292L38.5642 41.9988L39.3678 47.9008L40.1714 46.2934L40.975 42.821L41.7785 44.0666L42.5821 42.7053L43.3857 42.4367L44.1892 40.5393L44.9928 37.7458L45.7964 39.2471L46.6 36.3041L47.4035 38.0701L48.2071 40.7933L49.0107 40.3097L49.8142 45.4454L50.6178 49.4962L51.4214 46.4153L52.225 43.2425L53.0285 50.8467L53.8321 47.8651L54.6357 47.1718L55.4392 50.2667L56.2428 46.3157L57.0464 48.4203L57.85 45.7937L58.6535 44.3288L59.4571 40.8675L60.2607 42.526L61.0642 40.9144L61.8678 40.3311L62.6714 39.6241L63.475 41.1416L64.2785 38.631L65.0821 39.346L65.8857 39.8047L66.6892 39.421L67.4928 37.061L68.2964 38.5118L69.1 38.2131L69.9035 38.1312L70.7071 38.0073L71.5107 37.6839L72.3142 36.4507L73.1178 35.3633L73.9214 37.7059L74.725 35.0938L75.5285 35.8196L76.3321 32.3403L77.1357 35.3456L77.9392 35.2694L78.7428 35.4388L79.5464 35.2735L80.35 33.5221L81.1535 33.6112L81.9571 33.3247L82.7607 30.9976L83.5642 33.9654L84.3678 36.3107L85.1714 36.6663L85.975 34.9782L86.7785 34.5326L87.5821 33.0183L88.3857 34.0041L89.1892 33.4257L89.9928 33.1314L90.7964 32.9147L91.6 33.2808L92.4035 32.8483L93.2071 35.7386L94.0107 34.6207L94.8142 35.9202L95.6178 38.9645L96.4214 38.1983L97.225 39.9107L98.0285 41.8317L98.8321 43.914L99.6357 41.0145L100.439 38.8989L101.243 39.6175L102.046 39.5529L102.85 36.6948L103.654 38.6604L104.457 40.3298L105.261 40.7262L106.064 39.8352L106.868 40.4279L107.671 39.3649L108.475 39.412L109.279 38.6842L110.082 39.844L110.886 38.3844L111.689 37.5061L112.493 39.1912L113.296 35.5641L114.1 34.1979L114.904 36.0777L115.707 37.3952L116.511 35.7348L117.314 37.2099L118.118 36.0985L118.921 37.1534L119.725 34.01L120.529 34.5195L121.332 29.7781L122.136 28.3534L122.939 28.3297L123.743 27.5897L124.546 27.894L125.35 30.6104L126.154 28.0617L126.957 28.1356L127.761 30.3007L128.564 33.9584L129.368 37.5847L130.171 35.6042L130.975 36.507L131.779 32.9393L132.582 30.8122L133.386 33.4278L134.189 30.7399L134.993 37.5812" stroke="#FF3A33" stroke-width="1.25"/>
</g>
<defs>
<clipPath id="clip0_2_789">
<rect width="135" height="50" fill="white" transform="translate(0.796387 0.84668)"/>
</clipPath>
</defs>
</svg>
