<svg width="136" height="51" viewBox="0 0 136 51" fill="none" xmlns="http://www.w3.org/2000/svg">
<g clip-path="url(#clip0_2_416)">
<path d="M0.214844 23.5385L1.01366 20.2586L1.81248 12.2513L2.61129 10.1638L3.41011 11.8978L4.20893 9.63882L5.00774 11.127L5.80656 8.16944L6.60538 5.22337L7.40419 10.663L8.20301 8.62778L9.00183 10.4186L9.80064 11.5806L10.5995 10.1605L11.3983 7.60107L12.1971 3.57975L12.9959 0.547852L13.7947 2.45996L14.5935 5.43754L15.3924 5.61336L16.1912 2.15031L16.99 0.697116L17.7888 1.44884L18.5876 9.17943L19.3864 11.8094L20.1853 13.2905L20.9841 12.2819L21.7829 14.5924L22.5817 11.4544L23.3805 13.5763L24.1793 16.582L24.9782 15.6734L25.777 13.1266L26.5758 3.59258L27.3746 10.3381L28.1734 9.21406L28.9722 17.5388L29.7711 13.7793L30.5699 16.5367L31.3687 14.7015L32.1675 17.5718L32.9663 22.3568L33.7651 23.3363L34.564 28.948L35.3628 26.6869L36.1616 22.3361L36.9604 20.294L37.7592 20.9717L38.558 16.6589L39.3569 11.9735L40.1557 12.6973L40.9545 14.9548L41.7533 13.6611L42.5521 15.1683L43.3509 16.6419L44.1498 18.4919L44.9486 15.952L45.7474 20.9707L46.5462 14.0947L47.345 12.372L48.1438 20.391L48.9427 20.7896L49.7415 23.0877L50.5403 25.2512L51.3391 23.3329L52.1379 22.2497L52.9367 21.4509L53.7356 15.8272L54.5344 17.867L55.3332 25.8291L56.132 17.9479L56.9308 17.6444L57.7296 17.1069L58.5285 17.6822L59.3273 19.4302L60.1261 20.2878L60.9249 24.5307L61.7237 26.1978L62.5225 25.9081L63.3214 20.6113L64.1202 22.4019L64.919 15.9137L65.7178 17.8662L66.5166 0.644033L67.3154 9.77547L68.1143 7.28543L68.9131 9.73235L69.7119 13.1178L70.5107 13.5093L71.3095 8.66233L72.1083 12.6273L72.9072 15.4216L73.706 13.5471L74.5048 10.9705L75.3036 15.8453L76.1024 15.3102L76.9012 23.3959L77.7001 24.7634L78.4989 25.5054L79.2977 31.232L80.0965 32.3181L80.8953 29.6223L81.6941 30.868L82.493 33.0008L83.2918 35.5378L84.0906 36.799L84.8894 36.381L85.6882 34.6153L86.487 32.0731L87.2859 33.1201L88.0847 33.3124L88.8835 34.1L89.6823 34.7848L90.4811 33.1216L91.2799 32.0882L92.0788 33.3376L92.8776 32.1475L93.6764 32.1115L94.4752 29.3193L95.274 30.2373L96.0728 34.1175L96.8717 35.9275L97.6705 38.0588L98.4693 38.2687L99.2681 34.969L100.067 36.497L100.866 34.6668L101.665 39.2571L102.463 30.8193L103.262 30.7626L104.061 28.8251L104.86 26.1453L105.659 26.2658L106.457 26.7216L107.256 25.0259L108.055 26.9211L108.854 26.378L109.653 28.5817L110.452 27.6941L111.25 23.9733L112.049 31.0214L112.848 34.7933L113.647 43.2851L114.446 41.7432L115.244 36.615L116.043 36.2393L116.842 33.182L117.641 31.5454L118.44 41.1238L119.239 37.7925L120.037 32.1234L120.836 32.3519L121.635 36.8843L122.434 37.4828L123.233 41.8624L124.031 41.1482L124.83 40.286L125.629 41.6751L126.428 39.2287L127.227 37.0904L128.025 40.4546L128.824 44.5383L129.623 50.5479L130.422 40.4189L131.221 40.2363L132.02 37.0941L132.818 30.7761L133.617 29.9591L134.416 22.6033" stroke="#32CA5B" stroke-width="1.25"/>
</g>
<defs>
<clipPath id="clip0_2_416">
<rect width="135" height="50" fill="white" transform="translate(0.214844 0.547852)"/>
</clipPath>
</defs>
</svg>
