<svg width="136" height="51" viewBox="0 0 136 51" fill="none" xmlns="http://www.w3.org/2000/svg">
<g clip-path="url(#clip0_2_947)">
<path d="M0.796387 20.568L1.5952 27.1346L2.39402 27.0919L3.19284 18.0659L3.99165 20.9648L4.79047 25.5052L5.58929 27.1776L6.3881 21.8775L7.18692 22.1931L7.98574 24.1069L8.78455 20.4355L9.58337 20.28L10.3822 17.7434L11.181 16.6218L11.9798 16.5945L12.7786 16.7244L13.5775 17.4822L14.3763 18.3619L15.1751 18.8155L15.9739 20.9338L16.7727 25.0879L17.5715 30.5399L18.3704 33.5045L19.1692 37.1343L19.968 39.7498L20.7668 34.6674L21.5656 40.0961L22.3644 42.8121L23.1632 40.7929L23.9621 43.2771L24.7609 42.3683L25.5597 41.6811L26.3585 38.4533L27.1573 37.9768L27.9562 39.3952L28.755 41.0003L29.5538 40.2322L30.3526 37.3911L31.1514 37.8969L31.9502 37.2971L32.7491 40.8103L33.5479 41.1419L34.3467 42.8548L35.1455 44.1578L35.9443 41.0568L36.7431 40.1721L37.542 38.9089L38.3408 39.5648L39.1396 39.6314L39.9384 44.1954L40.7372 47.5515L41.536 48.4247L42.3348 49.0997L43.1337 47.6942L43.9325 50.8467L44.7313 48.9363L45.5301 47.7282L46.3289 47.5703L47.1277 41.5928L47.9266 40.945L48.7254 40.6187L49.5242 41.427L50.323 44.4251L51.1218 45.7015L51.9206 45.7524L52.7195 42.8427L53.5183 43.5956L54.3171 45.4379L55.1159 44.3186L55.9147 46.9382L56.7135 48.5003L57.5124 46.8292L58.3112 45.3244L59.11 45.7824L59.9088 39.9051L60.7076 39.8641L61.5064 39.0186L62.3053 37.352L63.1041 36.7831L63.9029 34.6991L64.7017 27.8334L65.5005 30.4143L66.2993 29.4134L67.0982 30.1284L67.897 28.5663L68.6958 28.4449L69.4946 27.425L70.2934 24.4858L71.0922 22.3851L71.8911 21.8392L72.6899 21.6085L73.4887 16.0454L74.2875 13.3341L75.0863 13.5921L75.8851 5.23978L76.684 10.3638L77.4828 19.5487L78.2816 16.171L79.0804 13.6799L79.8792 16.4827L80.678 17.7311L81.4769 16.5694L82.2757 16.2186L83.0745 16.2491L83.8733 18.1673L84.6721 19.565L85.4709 20.2064L86.2698 20.6816L87.0686 18.0746L87.8674 16.8731L88.6662 17.5817L89.465 19.0263L90.2638 17.8438L91.0627 18.6398L91.8615 19.0596L92.6603 18.2034L93.4591 18.1933L94.2579 19.0085L95.0567 18.482L95.8556 19.8685L96.6544 21.553L97.4532 22.28L98.252 23.7965L99.0508 26.1768L99.8496 23.5275L100.648 21.6631L101.447 21.8882L102.246 24.2724L103.045 23.085L103.844 22.9234L104.643 24.2596L105.441 24.1942L106.24 24.2521L107.039 22.7841L107.838 23.6273L108.637 21.684L109.435 21.5664L110.234 22.4765L111.033 21.9566L111.832 20.9287L112.631 18.873L113.43 13.7404L114.228 12.3846L115.027 13.7949L115.826 14.261L116.625 14.3716L117.424 15.5422L118.222 16.6284L119.021 17.7286L119.82 15.792L120.619 15.1101L121.418 8.69571L122.217 9.60646L123.015 9.04862L123.814 9.82026L124.613 11.1413L125.412 9.54733L126.211 6.94434L127.009 7.11462L127.808 6.7844L128.607 6.63632L129.406 7.25468L130.205 4.18951L131.003 3.45015L131.802 2.45722L132.601 0.84668L133.4 2.40364L134.199 3.03807L134.998 10.1883" stroke="#32CA5B" stroke-width="1.25"/>
</g>
<defs>
<clipPath id="clip0_2_947">
<rect width="135" height="50" fill="white" transform="translate(0.796387 0.84668)"/>
</clipPath>
</defs>
</svg>
