<svg width="136" height="51" viewBox="0 0 136 51" fill="none" xmlns="http://www.w3.org/2000/svg">
<g clip-path="url(#clip0_2_875)">
<path d="M0.796387 3.32849L1.5952 4.83672L2.39402 5.74519L3.19284 3.12671L3.99165 5.80118L4.79047 10.4777L5.58929 12.7039L6.3881 7.63577L7.18692 9.52557L7.98574 7.89673L8.78455 5.68176L9.58337 0.84668L10.3822 3.62783L11.181 1.41016L11.9798 1.68322L12.7786 3.59952L13.5775 1.82851L14.3763 0.999447L15.1751 3.15185L15.9739 2.71766L16.7727 9.42996L17.5715 15.1496L18.3704 19.1969L19.1692 27.2116L19.968 27.3488L20.7668 31.8342L21.5656 33.6059L22.3644 34.3857L23.1632 33.2761L23.9621 35.1566L24.7609 35.1097L25.5597 34.8958L26.3585 32.7922L27.1573 30.6829L27.9562 29.9078L28.755 31.4204L29.5538 29.9013L30.3526 26.9807L31.1514 27.4317L31.9502 27.7034L32.7491 32.9705L33.5479 36.7172L34.3467 36.871L35.1455 38.5413L35.9443 33.7689L36.7431 34.7935L37.542 33.8968L38.3408 34.9113L39.1396 35.1463L39.9384 41.4913L40.7372 42.6384L41.536 39.3232L42.3348 41.8447L43.1337 39.6808L43.9325 39.636L44.7313 38.4488L45.5301 37.7474L46.3289 39.6021L47.1277 38.7989L47.9266 39.9079L48.7254 40.9407L49.5242 39.8994L50.323 43.6236L51.1218 50.1049L51.9206 45.4763L52.7195 44.2377L53.5183 47.6819L54.3171 47.1943L55.1159 46.3317L55.9147 49.0204L56.7135 48.0307L57.5124 50.8467L58.3112 48.9841L59.11 48.803L59.9088 46.1885L60.7076 49.6536L61.5064 47.2573L62.3053 46.8059L63.1041 46.9292L63.9029 48.8396L64.7017 44.4048L65.5005 45.7954L66.2993 46.9577L67.0982 46.4661L67.897 44.0357L68.6958 44.091L69.4946 42.0061L70.2934 39.9399L71.0922 40.5537L71.8911 40.4843L72.6899 38.3611L73.4887 38.4266L74.2875 38.5989L75.0863 38.7492L75.8851 37.2284L76.684 34.6114L77.4828 34.8024L78.2816 33.8447L79.0804 33.3978L79.8792 34.1845L80.678 35.8962L81.4769 36.9389L82.2757 35.1082L83.0745 33.8026L83.8733 35.2637L84.6721 37.1487L85.4709 39.1137L86.2698 38.8864L87.0686 36.4597L87.8674 35.8419L88.6662 37.0073L89.465 35.5765L90.2638 36.0949L91.0627 37.1354L91.8615 36.9726L92.6603 35.8943L93.4591 38.2859L94.2579 37.3701L95.0567 37.8305L95.8556 41.1112L96.6544 40.8974L97.4532 43.0095L98.252 44.3756L99.0508 45.3794L99.8496 42.8252L100.648 41.2057L101.447 41.8612L102.246 42.169L103.045 39.0712L103.844 40.8113L104.643 41.8746L105.441 41.7377L106.24 41.6162L107.039 41.1727L107.838 41.1438L108.637 40.8189L109.435 39.7702L110.234 40.7608L111.033 39.5268L111.832 38.6847L112.631 37.0541L113.43 30.3978L114.228 29.7157L115.027 31.9137L115.826 33.1179L116.625 32.3483L117.424 33.9971L118.222 33.2129L119.021 36.2769L119.82 32.3897L120.619 30.6851L121.418 25.5333L122.217 25.1839L123.015 24.4205L123.814 23.0337L124.613 25.0426L125.412 26.1353L126.211 25.156L127.009 24.2937L127.808 25.6787L128.607 28.772L129.406 32.4628L130.205 30.9089L131.003 31.9149L131.802 27.2675L132.601 25.2527L133.4 26.4564L134.199 23.2914L134.998 31.1568" stroke="#FF3A33" stroke-width="1.25"/>
</g>
<defs>
<clipPath id="clip0_2_875">
<rect width="135" height="50" fill="white" transform="translate(0.796387 0.84668)"/>
</clipPath>
</defs>
</svg>
