<svg width="136" height="51" viewBox="0 0 136 51" fill="none" xmlns="http://www.w3.org/2000/svg">
<g clip-path="url(#clip0_16_245)">
<path d="M0.796387 18.4397L1.5952 10.8059L2.39402 21.8537L3.19284 22.3772L3.99165 22.248L4.79047 27.1649L5.58929 19.6696L6.3881 19.9432L7.18692 25.4736L7.98574 22.4517L8.78455 22.4578L9.58337 22.4258L10.3822 21.1953L11.181 23.7603L11.9798 21.9163L12.7786 21.766L13.5775 27.9377L14.3763 21.4791L15.1751 18.7729L15.9739 22.5597L16.7727 19.335L17.5715 20.7731L18.3704 27.7996L19.1692 14.0735L19.968 18.7375L20.7668 28.2474L21.5656 30.4856L22.3644 23.2975L23.1632 39.9987L23.9621 17.0902L24.7609 15.4361L25.5597 23.9173L26.3585 19.4519L27.1573 23.4731L27.9562 24.3649L28.755 24.5606L29.5538 19.3526L30.3526 23.6719L31.1514 23.1386L31.9502 22.494L32.7491 25.0936L33.5479 29.1864L34.3467 25.1025L35.1455 23.7862L35.9443 6.18903L36.7431 39.204L37.542 23.1145L38.3408 36.9061L39.1396 20.4529L39.9384 22.7532L40.7372 6.383L41.536 20.2353L42.3348 26.2576L43.1337 23.1862L43.9325 24.4692L44.7313 12.9469L45.5301 30.1157L46.3289 25.0888L47.1277 24.0555L47.9266 20.0692L48.7254 19.8442L49.5242 20.8368L50.323 25.9143L51.1218 32.0784L51.9206 17.959L52.7195 16.7312L53.5183 44.0867L54.3171 20.7259L55.1159 0.84668L55.9147 25.6178L56.7135 19.2984L57.5124 26.7256L58.3112 21.9308L59.11 33.3191L59.9088 17.4968L60.7076 22.0131L61.5064 17.9792L62.3053 26.9397L63.1041 20.3004L63.9029 12.3628L64.7017 16.6424L65.5005 26.5024L66.2993 16.3892L67.0982 16.0495L67.897 24.3449L68.6958 20.0265L69.4946 25.8851L70.2934 22.3948L71.0922 18.4268L71.8911 22.744L72.6899 20.5288L73.4887 24.944L74.2875 32.2277L75.0863 19.9872L75.8851 23.2191L76.684 18.3672L77.4828 21.3072L78.2816 23.8129L79.0804 12.3104L79.8792 20.3408L80.678 21.9694L81.4769 20.595L82.2757 16.1244L83.0745 27.7391L83.8733 23.4837L84.6721 27.3571L85.4709 25.0141L86.2698 16.3221L87.0686 19.9406L87.8674 23.0883L88.6662 22.2718L89.465 20.2967L90.2638 19.5781L91.0627 21.9207L91.8615 22.3132L92.6603 19.5769L93.4591 20.2279L94.2579 21.299L95.0567 19.4916L95.8556 24.5294L96.6544 26.1458L97.4532 20.8215L98.252 24.2183L99.0508 21.7863L99.8496 13.7171L100.648 22.7881L101.447 24.7827L102.246 21.2236L103.045 16.2232L103.844 19.608L104.643 21.6642L105.441 18.6079L106.24 21.7473L107.039 20.1583L107.838 21.3857L108.637 20.7516L109.435 21.637L110.234 20.0071L111.033 21.4925L111.832 15.1469L112.631 22.9569L113.43 27.3194L114.228 12.663L115.027 20.2821L115.826 24.8597L116.625 14.8464L117.424 16.4008L118.222 18.869L119.021 17.1777L119.82 10.0752L120.619 23.7063L121.418 17.3399L122.217 22.8799L123.015 20.3473L123.814 18.683L124.613 21.0363L125.412 21.8886L126.211 21.1952L127.009 17.294L127.808 28.4051L128.607 24.496L129.406 29.0551L130.205 28.8789L131.003 19.7082L131.802 21.1873L132.601 50.769L133.4 16.2434L134.199 28.3504L134.998 50.8467" stroke="#FF3A33" stroke-width="1.25"/>
</g>
<defs>
<clipPath id="clip0_16_245">
<rect width="135" height="50" fill="white" transform="translate(0.796387 0.84668)"/>
</clipPath>
</defs>
</svg>
