<svg width="136" height="51" viewBox="0 0 136 51" fill="none" xmlns="http://www.w3.org/2000/svg">
<g clip-path="url(#clip0_9_429)">
<path d="M0.214844 49.8407L1.01366 47.8615L1.81248 45.369L2.61129 42.8436L3.41011 43.6821L4.20893 46.7724L5.00774 45.0677L5.80656 45.2974L6.60538 46.6597L7.40419 50.5479L8.20301 48.6946L9.00183 47.31L9.80064 47.0758L10.5995 47.2319L11.3983 46.5693L12.1971 44.317L12.9959 38.823L13.7947 37.3301L14.5935 39.1786L15.3924 35.4169L16.1912 31.7952L16.99 31.4257L17.7888 32.2743L18.5876 34.581L19.3864 36.0464L20.1853 38.2717L20.9841 38.1699L21.7829 37.2808L22.5817 36.152L23.3805 36.14L24.1793 34.1124L24.9782 33.1154L25.777 32.5542L26.5758 26.959L27.3746 16.6008L28.1734 8.53347L28.9722 12.7331L29.7711 4.4916L30.5699 4.65348L31.3687 4.14172L32.1675 7.96376L32.9663 4.72786L33.7651 0.547852L34.564 10.5142L35.3628 10.1457L36.1616 11.3548L36.9604 10.048L37.7592 9.53832L38.558 5.65162L39.3569 6.91051L40.1557 7.53524L40.9545 6.84052L41.7533 4.72975L42.5521 3.42371L43.3509 4.35624L44.1498 3.48963L44.9486 0.800521L45.7474 10.0316L46.5462 2.5448L47.345 1.30226L48.1438 7.5189L48.9427 9.34656L49.7415 11.9855L50.5403 15.9046L51.3391 13.2532L52.1379 14.2294L52.9367 13.3803L53.7356 14.886L54.5344 17.5088L55.3332 16.9421L56.132 8.14821L56.9308 6.89153L57.7296 3.25084L58.5285 5.65907L59.3273 6.82841L60.1261 5.91223L60.9249 8.83745L61.7237 12.4266L62.5225 10.324L63.3214 8.4871L64.1202 8.627L64.919 8.17969L65.7178 5.61215L66.5166 1.81359L67.3154 3.86727L68.1143 5.90302L68.9131 9.07898L69.7119 9.11683L70.5107 9.26661L71.3095 4.55038L72.1083 5.51734L72.9072 5.07446L73.706 2.07228L74.5048 3.84718L75.3036 6.40791L76.1024 6.36505L76.9012 7.73183L77.7001 9.51453L78.4989 6.88534L79.2977 12.6608L80.0965 8.96005L80.8953 9.10845L81.6941 8.01194L82.493 10.2502L83.2918 12.2843L84.0906 11.3873L84.8894 12.0918L85.6882 13.9132L86.487 12.7774L87.2859 15.2291L88.0847 14.7265L88.8835 15.9898L89.6823 18.0568L90.4811 18.1771L91.2799 16.5434L92.0788 15.8627L92.8776 14.5145L93.6764 13.4165L94.4752 11.8431L95.274 13.7935L96.0728 13.9804L96.8717 16.1726L97.6705 22.6367L98.4693 22.5141L99.2681 20.8789L100.067 20.5842L100.866 19.2198L101.665 24.3474L102.463 19.4221L103.262 19.1992L104.061 13.4232L104.86 12.7148L105.659 12.0269L106.457 10.3446L107.256 7.4506L108.055 8.68623L108.854 8.05319L109.653 12.4499L110.452 12.1082L111.25 11.4901L112.049 18.351L112.848 18.8194L113.647 16.239L114.446 17.9872L115.244 14.5561L116.043 17.8267L116.842 18.1098L117.641 21.6585L118.44 23.2963L119.239 24.0269L120.037 22.1111L120.836 21.1408L121.635 25.1454L122.434 24.0627L123.233 29.4285L124.031 27.703L124.83 29.1548L125.629 29.5909L126.428 27.5747L127.227 27.2918L128.025 29.805L128.824 33.1036L129.623 32.9451L130.422 30.1019L131.221 27.7936L132.02 26.9807L132.818 23.9081L133.617 22.249L134.416 26.2824" stroke="#32CA5B" stroke-width="1.25"/>
</g>
<defs>
<clipPath id="clip0_9_429">
<rect width="135" height="50" fill="white" transform="translate(0.214844 0.547852)"/>
</clipPath>
</defs>
</svg>
