<svg width="136" height="51" viewBox="0 0 136 51" fill="none" xmlns="http://www.w3.org/2000/svg">
<g clip-path="url(#clip0_2_402)">
<path d="M0.214844 15.1209L1.01842 7.77604L1.82199 34.347L2.62556 19.3789L3.42913 31.5222L4.2327 23.362L5.03627 23.563L5.83984 50.5479L6.64341 32.176L7.44699 37.4748L8.25056 15.7065L9.05413 42.7169L9.8577 15.3819L10.6613 43.9445L11.4648 24.5051L12.2684 2.94827L13.072 8.98815L13.8756 24.0014L14.6791 23.0781L15.4827 20.1113L16.2863 20.4011L17.0898 26.3009L17.8934 32.99L18.697 24.461L19.5006 30.0624L20.3041 23.3642L21.1077 27.4983L21.9113 26.6584L22.7148 33.2391L23.5184 17.7672L24.322 35.0552L25.1256 7.34895L25.9291 16.5324L26.7327 15.3212L27.5363 34.3752L28.3398 22.399L29.1434 21.0834L29.947 29.2798L30.7506 30.4312L31.5541 33.7703L32.3577 22.1444L33.1613 18.4436L33.9648 24.1252L34.7684 20.9423L35.572 26.0178L36.3756 21.532L37.1791 10.0277L37.9827 9.88157L38.7863 18.1985L39.5898 23.0294L40.3934 26.5353L41.197 27.167L42.0006 36.2398L42.8041 14.3394L43.6077 31.18L44.4113 16.2187L45.2148 11.9319L46.0184 21.9797L46.822 39.6811L47.6256 21.1404L48.4291 21.6324L49.2327 14.5591L50.0363 14.2326L50.8398 17.9722L51.6434 30.4692L52.447 17.9925L53.2506 25.3313L54.0541 20.133L54.8577 21.8533L55.6613 23.6283L56.4648 22.6561L57.2684 11.2232L58.072 22.5317L58.8756 8.72666L59.6791 4.60198L60.4827 21.9612L61.2863 23.584L62.0898 20.796L62.8934 14.2416L63.697 0.547852L64.5006 35.6883L65.3041 30.5019L66.1077 47.7075L66.9113 25.1035L67.7148 19.2456L68.5184 31.4775L69.322 25.4179L70.1256 22.3651L70.9291 26.0876L71.7327 22.5105L72.5363 25.3976L73.3398 21.4049L74.1434 23.8315L74.947 24.7319L75.7506 26.6873L76.5541 27.7354L77.3577 20.8527L78.1613 29.7688L78.9648 28.3958L79.7684 20.1528L80.572 19.0728L81.3756 23.7474L82.1791 24.5095L82.9827 18.4042L83.7863 21.4094L84.5898 26.0796L85.3934 19.1381L86.197 23.6032L87.0006 26.756L87.8041 25.425L88.6077 30.177L89.4113 21.1498L90.2148 27.2479L91.0184 27.6809L91.822 32.3793L92.6256 22.0257L93.4291 31.1008L94.2327 24.5764L95.0363 21.2374L95.8398 24.7596L96.6434 33.1236L97.447 26.2492L98.2506 16.3668L99.0541 19.8285L99.8577 19.2872L100.661 27.3291L101.465 14.103L102.268 26.3861L103.072 25.7511L103.876 21.5582L104.679 22.5801L105.483 28.6422L106.286 25.4005L107.09 29.7166L107.893 31.7687L108.697 23.0257L109.501 32.2241L110.304 37.4619L111.108 24.9812L111.911 30.6567L112.715 21.3037L113.518 21.5411L114.322 25.8316L115.126 11.4145L115.929 32.3158L116.733 25.5671L117.536 22.3315L118.34 45.9926L119.143 30.7672L119.947 16.0435L120.751 35.051L121.554 35.3884L122.358 12.879L123.161 30.2609L123.965 21.75L124.768 20.9062L125.572 14.2998L126.376 17.2985L127.179 24.7705L127.983 19.5477L128.786 22.1653L129.59 20.0744L130.393 29.0156L131.197 21.6578L132.001 25.0859L132.804 18.5691L133.608 26.6401L134.411 24.0646" stroke="#FF3A33" stroke-width="1.25"/>
</g>
<defs>
<clipPath id="clip0_2_402">
<rect width="135" height="50" fill="white" transform="translate(0.214844 0.547852)"/>
</clipPath>
</defs>
</svg>
