<svg width="136" height="51" viewBox="0 0 136 51" fill="none" xmlns="http://www.w3.org/2000/svg">
<g clip-path="url(#clip0_16_377)">
<path d="M0.796387 4.61152L1.59996 5.77036L2.40353 3.26619L3.2071 2.97055L4.01067 9.65055L4.81424 12.9433L5.61782 8.62932L6.42139 7.57883L7.22496 6.46681L8.02853 1.50332L8.8321 3.17364L9.63567 4.80488L10.4392 4.0337L11.2428 2.4427L12.0464 4.29937L12.85 2.12052L13.6535 0.84668L14.4571 3.73513L15.2607 6.7513L16.0642 12.4059L16.8678 22.9694L17.6714 25.2402L18.475 32.2703L19.2785 34.0547L20.0821 34.8973L20.8857 36.5375L21.6892 37.103L22.4928 38.5666L23.2964 41.0224L24.1 37.5686L24.9035 32.1994L25.7071 30.9491L26.5107 31.8387L27.3142 29.252L28.1178 30.9447L28.9214 30.4214L29.725 15.7328L30.5285 17.0083L31.3321 10.4877L32.1357 20.4909L32.9392 22.4153L33.7428 19.9547L34.5464 25.8119L35.35 21.1021L36.1535 24.2665L36.9571 17.7918L37.7607 21.37L38.5642 24.8403L39.3678 34.8963L40.1714 33.2905L40.975 29.364L41.7785 34.5648L42.5821 31.4228L43.3857 31.312L44.1892 26.2946L44.9928 23.0525L45.7964 21.2682L46.6 18.7086L47.4035 19.5777L48.2071 23.9263L49.0107 24.5087L49.8142 32.6515L50.6178 37.5393L51.4214 34.9845L52.225 34.15L53.0285 42.1767L53.8321 41.6547L54.6357 37.9538L55.4392 44.202L56.2428 43.6945L57.0464 50.8467L57.85 44.4314L58.6535 44.3969L59.4571 41.9949L60.2607 46.7585L61.0642 42.4612L61.8678 40.8879L62.6714 42.6202L63.475 45.3787L64.2785 40.3164L65.0821 43.2688L65.8857 44.1551L66.6892 43.317L67.4928 41.6401L68.2964 41.7642L69.1 38.6531L69.9035 36.4686L70.7071 38.1301L71.5107 38.348L72.3142 36.4362L73.1178 32.0238L73.9214 35.037L74.725 31.1541L75.5285 29.3136L76.3321 24.4594L77.1357 25.1098L77.9392 21.4212L78.7428 20.648L79.5464 21.4316L80.35 24.2817L81.1535 24.8339L81.9571 23.4832L82.7607 20.2915L83.5642 17.1757L84.3678 22.1545L85.1714 20.412L85.975 19.3573L86.7785 16.959L87.5821 16.3212L88.3857 17.9564L89.1892 17.3908L89.9928 14.1567L90.7964 17.9252L91.6 17.6656L92.4035 14.0651L93.2071 17.7623L94.0107 16.8003L94.8142 17.1557L95.6178 21.0871L96.4214 17.0625L97.225 21.4313L98.0285 22.4663L98.8321 24.1905L99.6357 20.9539L100.439 17.3679L101.243 14.6103L102.046 16.0309L102.85 10.635L103.654 13.7193L104.457 18.3704L105.261 20.7705L106.064 19.4098L106.868 19.0908L107.671 14.4071L108.475 16.2202L109.279 13.8008L110.082 15.7075L110.886 13.4676L111.689 12.0761L112.493 14.3951L113.296 7.44482L114.1 10.0156L114.904 12.5519L115.707 13.6614L116.511 14.5081L117.314 18.2827L118.118 18.1747L118.921 21.0903L119.725 18.2495L120.529 16.2366L121.332 9.48769L122.136 5.12006L122.939 9.51606L123.743 7.99025L124.546 10.5414L125.35 10.5398L126.154 8.70598L126.957 10.8443L127.761 9.91018L128.564 15.6652L129.368 22.0086L130.171 19.3437L130.975 19.6019L131.779 16.3924L132.582 16.7733L133.386 14.471L134.189 10.3483L134.993 22.196" stroke="#FF3A33" stroke-width="1.25"/>
</g>
<defs>
<clipPath id="clip0_16_377">
<rect width="135" height="50" fill="white" transform="translate(0.796387 0.84668)"/>
</clipPath>
</defs>
</svg>
