<svg width="136" height="51" viewBox="0 0 136 51" fill="none" xmlns="http://www.w3.org/2000/svg">
<g clip-path="url(#clip0_2_873)">
<path d="M0.796387 10.9075L1.5952 9.52596L2.39402 6.09132L3.19284 6.66153L3.99165 7.68114L4.79047 8.62406L5.58929 6.38409L6.3881 5.35167L7.18692 5.79065L7.98574 4.12398L8.78455 4.11188L9.58337 3.11106L10.3822 1.46796L11.181 0.84668L11.9798 2.38476L12.7786 2.17095L13.5775 2.85707L14.3763 3.51132L15.1751 3.77964L15.9739 10.6165L16.7727 12.8463L17.5715 18.9783L18.3704 22.7754L19.1692 25.8634L19.968 23.5126L20.7668 23.4568L21.5656 32.7298L22.3644 27.6337L23.1632 31.2855L23.9621 29.6645L24.7609 28.0565L25.5597 27.0695L26.3585 25.1802L27.1573 24.6611L27.9562 26.0525L28.755 25.1745L29.5538 26.3325L30.3526 24.7756L31.1514 25.477L31.9502 28.0907L32.7491 29.5445L33.5479 28.6823L34.3467 29.2405L35.1455 33.5622L35.9443 30.1082L36.7431 30.1941L37.542 28.134L38.3408 31.9455L39.1396 36.0645L39.9384 41.7016L40.7372 40.4974L41.536 42.7975L42.3348 41.4826L43.1337 41.9369L43.9325 40.6649L44.7313 39.4619L45.5301 39.297L46.3289 39.4112L47.1277 38.1184L47.9266 39.7737L48.7254 39.4486L49.5242 40.8769L50.323 46.2242L51.1218 47.8965L51.9206 44.5411L52.7195 44.9279L53.5183 45.8975L54.3171 46.7302L55.1159 48.7483L55.9147 50.8467L56.7135 49.8702L57.5124 45.8345L58.3112 46.1902L59.11 46.3634L59.9088 46.3793L60.7076 45.7207L61.5064 45.5891L62.3053 45.1629L63.1041 45.7318L63.9029 44.461L64.7017 41.821L65.5005 43.5318L66.2993 41.1108L67.0982 41.3772L67.897 39.8811L68.6958 40.3361L69.4946 39.6466L70.2934 40.8396L71.0922 41.3407L71.8911 41.2706L72.6899 39.8272L73.4887 39.8507L74.2875 43.4056L75.0863 39.0541L75.8851 32.0804L76.684 34.9292L77.4828 34.4622L78.2816 33.7961L79.0804 33.5381L79.8792 33.7207L80.678 35.0619L81.4769 35.3129L82.2757 35.2072L83.0745 35.1011L83.8733 35.8065L84.6721 37.9506L85.4709 37.2853L86.2698 35.884L87.0686 34.8791L87.8674 34.4585L88.6662 34.8076L89.465 34.4982L90.2638 34.3755L91.0627 35.4195L91.8615 34.8363L92.6603 34.8487L93.4591 36.4076L94.2579 36.1962L95.0567 36.8217L95.8556 36.7438L96.6544 37.3755L97.4532 38.6184L98.252 38.665L99.0508 36.8591L99.8496 35.6899L100.648 35.9337L101.447 36.6066L102.246 35.5681L103.045 35.3284L103.844 35.7346L104.643 35.8296L105.441 35.4288L106.24 34.8844L107.039 35.0527L107.838 34.9241L108.637 34.119L109.435 34.8226L110.234 33.8639L111.033 33.2774L111.832 33.5756L112.631 32.9125L113.43 30.7442L114.228 31.9552L115.027 31.8189L115.826 30.7906L116.625 31.5084L117.424 31.886L118.222 32.5812L119.021 33.6768L119.82 32.0482L120.619 28.2647L121.418 24.3501L122.217 21.9786L123.015 23.4874L123.814 24.7164L124.613 25.3444L125.412 24.6396L126.211 26.37L127.009 25.4069L127.808 30.0451L128.607 30.6523L129.406 28.9908L130.205 28.1975L131.003 27.0856L131.802 21.3037L132.601 25.2697L133.4 28.0919L134.199 26.696L134.998 31.8221" stroke="#FF3A33" stroke-width="1.25"/>
</g>
<defs>
<clipPath id="clip0_2_873">
<rect width="135" height="50" fill="white" transform="translate(0.796387 0.84668)"/>
</clipPath>
</defs>
</svg>
