<svg width="136" height="51" viewBox="0 0 136 51" fill="none" xmlns="http://www.w3.org/2000/svg">
<g clip-path="url(#clip0_9_293)">
<path d="M0.214844 43.1437L1.01366 41.6059L1.81248 43.0322L2.61129 46.9244L3.41011 44.0229L4.20893 46.3013L5.00774 43.2228L5.80656 48.0485L6.60538 50.5479L7.40419 48.3811L8.20301 44.4149L9.00183 37.0101L9.80064 41.9695L10.5995 39.9304L11.3983 40.9914L12.1971 38.4211L12.9959 34.1045L13.7947 35.0908L14.5935 33.5945L15.3924 33.9882L16.1912 31.7787L16.99 37.0558L17.7888 36.9614L18.5876 41.8463L19.3864 39.8697L20.1853 45.209L20.9841 45.987L21.7829 43.3956L22.5817 43.0692L23.3805 42.4426L24.1793 42.9722L24.9782 44.1999L25.777 41.2105L26.5758 37.5425L27.3746 42.9421L28.1734 47.9819L28.9722 46.7343L29.7711 43.6904L30.5699 45.7512L31.3687 44.4307L32.1675 47.027L32.9663 50.26L33.7651 48.6071L34.564 47.9648L35.3628 39.7848L36.1616 40.3523L36.9604 40.6977L37.7592 39.9854L38.558 34.4662L39.3569 28.751L40.1557 34.1543L40.9545 35.8729L41.7533 28.3598L42.5521 23.3859L43.3509 22.8194L44.1498 17.0233L44.9486 12.7627L45.7474 7.21327L46.5462 0.547852L47.345 9.50815L48.1438 14.2271L48.9427 15.2934L49.7415 17.4705L50.5403 18.3077L51.3391 18.7292L52.1379 20.0813L52.9367 21.6156L53.7356 21.5374L54.5344 25.3868L55.3332 27.7907L56.132 21.9927L56.9308 15.7519L57.7296 11.2634L58.5285 15.7977L59.3273 14.9262L60.1261 13.9623L60.9249 21.102L61.7237 23.9533L62.5225 24.0993L63.3214 22.2851L64.1202 22.2419L64.919 22.7756L65.7178 25.1469L66.5166 26.0553L67.3154 28.3621L68.1143 25.6954L68.9131 33.2102L69.7119 33.6139L70.5107 31.9802L71.3095 28.4199L72.1083 27.6633L72.9072 27.983L73.706 27.8549L74.5048 24.7607L75.3036 25.0262L76.1024 26.1209L76.9012 28.8878L77.7001 31.1524L78.4989 32.4222L79.2977 33.6249L80.0965 27.7059L80.8953 26.2852L81.6941 30.0088L82.493 31.8452L83.2918 25.8378L84.0906 23.3966L84.8894 23.9496L85.6882 26.9906L86.487 26.017L87.2859 26.8252L88.0847 25.1319L88.8835 27.2387L89.6823 24.3658L90.4811 21.2248L91.2799 20.4121L92.0788 27.6797L92.8776 27.7028L93.6764 26.6895L94.4752 26.3653L95.274 27.2542L96.0728 30.1821L96.8717 30.704L97.6705 34.0184L98.4693 29.9474L99.2681 31.449L100.067 33.1564L100.866 31.1604L101.665 33.5062L102.463 30.1615L103.262 27.3023L104.061 29.4986L104.86 24.0634L105.659 18.3072L106.457 21.1922L107.256 19.3515L108.055 23.4137L108.854 24.7058L109.653 27.4663L110.452 27.9254L111.25 29.015L112.049 33.8823L112.848 35.4865L113.647 35.9376L114.446 41.589L115.244 38.0774L116.043 38.6728L116.842 35.9394L117.641 37.3062L118.44 40.7258L119.239 38.5648L120.037 38.0827L120.836 34.1942L121.635 37.629L122.434 32.618L123.233 39.0108L124.031 35.1972L124.83 29.5673L125.629 29.5483L126.428 33.0479L127.227 33.5201L128.025 31.9672L128.824 38.7187L129.623 40.2788L130.422 34.2245L131.221 38.9161L132.02 37.4714L132.818 32.9002L133.617 30.8261L134.416 28.2382" stroke="#32CA5B" stroke-width="1.25"/>
</g>
<defs>
<clipPath id="clip0_9_293">
<rect width="135" height="50" fill="white" transform="translate(0.214844 0.547852)"/>
</clipPath>
</defs>
</svg>
