<svg width="136" height="51" viewBox="0 0 136 51" fill="none" xmlns="http://www.w3.org/2000/svg">
<g clip-path="url(#clip0_2_919)">
<path d="M0.796387 4.08715L1.5952 4.65505L2.39402 2.45331L3.19284 3.53734L3.99165 6.73559L4.79047 14.4619L5.58929 7.92005L6.3881 7.19744L7.18692 8.76228L7.98574 4.90046L8.78455 3.34415L9.58337 5.04594L10.3822 2.25698L11.181 0.84668L11.9798 2.19369L12.7786 1.39824L13.5775 2.27461L14.3763 3.37174L15.1751 4.35588L15.9739 13.7374L16.7727 13.2929L17.5715 22.3133L18.3704 30.5991L19.1692 40.4252L19.968 37.0561L20.7668 35.5929L21.5656 38.5275L22.3644 35.7235L23.1632 37.9934L23.9621 37.0543L24.7609 36.6141L25.5597 38.6671L26.3585 36.1309L27.1573 32.4251L27.9562 32.331L28.755 32.9629L29.5538 30.4598L30.3526 29.3564L31.1514 30.5081L31.9502 37.1703L32.7491 33.5351L33.5479 26.284L34.3467 30.8892L35.1455 35.3227L35.9443 33.966L36.7431 32.9868L37.542 33.8608L38.3408 34.9865L39.1396 39.7572L39.9384 44.3618L40.7372 39.918L41.536 41.7948L42.3348 43.1279L43.1337 42.8369L43.9325 40.532L44.7313 39.7869L45.5301 40.893L46.3289 38.3378L47.1277 37.4808L47.9266 36.2311L48.7254 35.7696L49.5242 36.5525L50.323 43.1206L51.1218 43.5149L51.9206 45.9288L52.7195 45.2806L53.5183 46.0982L54.3171 48.1051L55.1159 44.0789L55.9147 48.0492L56.7135 50.8467L57.5124 46.1356L58.3112 46.6717L59.11 46.1898L59.9088 47.2575L60.7076 45.9701L61.5064 46.4155L62.3053 45.813L63.1041 45.764L63.9029 41.597L64.7017 40.8492L65.5005 42.0663L66.2993 40.0333L67.0982 39.9018L67.897 38.5917L68.6958 38.1029L69.4946 35.6302L70.2934 37.1941L71.0922 37.2534L71.8911 37.6628L72.6899 37.7155L73.4887 34.8849L74.2875 39.1337L75.0863 35.6284L75.8851 32.974L76.684 32.5972L77.4828 32.3654L78.2816 32.6746L79.0804 32.7369L79.8792 32.6568L80.678 32.2582L81.4769 32.189L82.2757 30.5051L83.0745 31.5222L83.8733 33.0494L84.6721 35.004L85.4709 33.9813L86.2698 33.1073L87.0686 31.7343L87.8674 33.1115L88.6662 33.0371L89.465 31.8027L90.2638 32.1013L91.0627 31.7035L91.8615 31.5217L92.6603 31.4436L93.4591 32.8327L94.2579 30.3229L95.0567 33.391L95.8556 33.1042L96.6544 33.6256L97.4532 35.3151L98.252 36.0426L99.0508 34.5485L99.8496 32.9476L100.648 32.7559L101.447 32.7066L102.246 31.4106L103.045 33.0023L103.844 34.0608L104.643 35.5505L105.441 35.0196L106.24 33.9755L107.039 34.7991L107.838 33.3211L108.637 34.0201L109.435 34.3813L110.234 33.3748L111.033 33.3622L111.832 31.5239L112.631 29.3777L113.43 28.3954L114.228 27.9443L115.027 27.8564L115.826 29.4408L116.625 28.0131L117.424 29.3937L118.222 29.7884L119.021 28.8293L119.82 26.0391L120.619 23.2238L121.418 21.1325L122.217 23.0722L123.015 24.1632L123.814 24.6909L124.613 25.8L125.412 24.3464L126.211 25.2147L127.009 24.5391L127.808 28.998L128.607 32.3403L129.406 31.6393L130.205 30.9809L131.003 27.9628L131.802 23.3817L132.601 26.8604L133.4 25.826L134.199 24.3105L134.998 29.6289" stroke="#FF3A33" stroke-width="1.25"/>
</g>
<defs>
<clipPath id="clip0_2_919">
<rect width="135" height="50" fill="white" transform="translate(0.796387 0.84668)"/>
</clipPath>
</defs>
</svg>
