<svg width="17" height="15" viewBox="0 0 17 15" fill="none" xmlns="http://www.w3.org/2000/svg">
<path d="M9.46426 1.18516C9.30019 0.87526 9.03587 0.711198 8.67129 0.692969C8.32493 0.711198 8.06061 0.87526 7.87832 1.18516L6.12832 4.79453L2.19082 5.39609C1.84447 5.45078 1.6166 5.64219 1.50723 5.97031C1.39785 6.31667 1.47077 6.61745 1.72598 6.87266L4.56973 9.68906L3.88613 13.6812C3.84967 14.0276 3.96816 14.3102 4.2416 14.5289C4.53327 14.7294 4.84316 14.7477 5.17129 14.5836L8.67129 12.7242L12.1986 14.5836C12.5085 14.7477 12.8093 14.7294 13.101 14.5289C13.3926 14.3102 13.5111 14.0276 13.4564 13.6812L12.8002 9.68906L15.6439 6.87266C15.8809 6.61745 15.9538 6.31667 15.8627 5.97031C15.7351 5.64219 15.4981 5.45078 15.1518 5.39609L11.2143 4.79453L9.46426 1.18516Z" fill="#EAB308"/>
</svg>
