<svg width="13" height="14" viewBox="0 0 13 14" fill="none" xmlns="http://www.w3.org/2000/svg">
<path d="M8.83984 5.76953C8.83984 5.09766 8.67578 4.47266 8.34766 3.89453C8.00391 3.31641 7.54297 2.85547 6.96484 2.51172C6.37109 2.18359 5.74609 2.01953 5.08984 2.01953C4.43359 2.01953 3.80859 2.18359 3.21484 2.51172C2.63672 2.85547 2.17578 3.31641 1.83203 3.89453C1.50391 4.47266 1.33984 5.09766 1.33984 5.76953C1.33984 6.44141 1.50391 7.06641 1.83203 7.64453C2.17578 8.22266 2.63672 8.68359 3.21484 9.02734C3.80859 9.35547 4.43359 9.51953 5.08984 9.51953C5.74609 9.51953 6.37109 9.35547 6.96484 9.02734C7.54297 8.68359 8.00391 8.22266 8.34766 7.64453C8.67578 7.06641 8.83984 6.44141 8.83984 5.76953ZM8.11328 9.58984C7.26953 10.2773 6.26172 10.6289 5.08984 10.6445C3.71484 10.6133 2.56641 10.1367 1.64453 9.21484C0.722656 8.29297 0.246094 7.14453 0.214844 5.76953C0.246094 4.39453 0.722656 3.24609 1.64453 2.32422C2.56641 1.40234 3.71484 0.925781 5.08984 0.894531C6.46484 0.925781 7.61328 1.40234 8.53516 2.32422C9.45703 3.24609 9.93359 4.39453 9.96484 5.76953C9.94922 6.94141 9.59766 7.94922 8.91016 8.79297L12.0508 11.9336C12.2695 12.1992 12.2695 12.4648 12.0508 12.7305C11.7852 12.9492 11.5195 12.9492 11.2539 12.7305L8.11328 9.58984Z" fill="#64748B"/>
</svg>
