<svg width="48" height="48" viewBox="0 0 48 48" fill="none" xmlns="http://www.w3.org/2000/svg">
<g clip-path="url(#clip0_3_802)">
<mask id="mask0_3_802" style="mask-type:luminance" maskUnits="userSpaceOnUse" x="0" y="0" width="48" height="48">
<path d="M48 0H0V48H48V0Z" fill="white"/>
</mask>
<g mask="url(#mask0_3_802)">
<path d="M38.2041 0.122449H9.79592C4.45341 0.122449 0.122452 4.45341 0.122452 9.79592V38.2041C0.122452 43.5466 4.45341 47.8775 9.79592 47.8775H38.2041C43.5466 47.8775 47.8776 43.5466 47.8776 38.2041V9.79592C47.8776 4.45341 43.5466 0.122449 38.2041 0.122449Z" fill="url(#paint0_linear_3_802)" stroke="#3F3F3F" stroke-width="0.244898"/>
<path d="M24.6553 12.2895C24.6553 11.9943 24.416 11.7551 24.121 11.7551C23.8259 11.7551 23.5867 11.9943 23.5867 12.2895V34.7309C23.5867 35.0261 23.8259 35.2653 24.121 35.2653C24.416 35.2653 24.6553 35.0261 24.6553 34.7309V12.2895Z" fill="#B3C6C0"/>
<path d="M20.3825 13.8903H13.9715C13.3814 13.8903 12.9031 14.3688 12.9031 14.959C12.9031 15.5492 13.3814 16.0276 13.9715 16.0276H20.3825C20.9726 16.0276 21.451 15.5492 21.451 14.959C21.451 14.3688 20.9726 13.8903 20.3825 13.8903Z" fill="#00D092"/>
<path d="M35.349 13.8903H27.8695C27.2794 13.8903 26.8011 14.3688 26.8011 14.959C26.8011 15.5492 27.2794 16.0276 27.8695 16.0276H35.349C35.9391 16.0276 36.4174 15.5492 36.4174 14.959C36.4174 14.3688 35.9391 13.8903 35.349 13.8903Z" fill="#B1FFE8"/>
<path d="M20.3919 24.5835H11.844C11.2538 24.5835 10.7755 25.062 10.7755 25.6522C10.7755 26.2424 11.2538 26.7208 11.844 26.7208H20.3919C20.9821 26.7208 21.4604 26.2424 21.4604 25.6522C21.4604 25.062 20.9821 24.5835 20.3919 24.5835Z" fill="#A2A2A2"/>
<path d="M32.1435 24.5835H27.8695C27.2794 24.5835 26.8011 25.062 26.8011 25.6522C26.8011 26.2424 27.2794 26.7208 27.8695 26.7208H32.1435C32.7336 26.7208 33.212 26.2424 33.212 25.6522C33.212 25.062 32.7336 24.5835 32.1435 24.5835Z" fill="#92FFDE"/>
<path d="M20.3807 19.2436H16.1067C15.5166 19.2436 15.0383 19.722 15.0383 20.3122C15.0383 20.9024 15.5166 21.3809 16.1067 21.3809H20.3807C20.9708 21.3809 21.4492 20.9024 21.4492 20.3122C21.4492 19.722 20.9708 19.2436 20.3807 19.2436Z" fill="#18B284"/>
<path d="M36.4174 19.2436H27.8695C27.2794 19.2436 26.8011 19.722 26.8011 20.3122C26.8011 20.9024 27.2794 21.3809 27.8695 21.3809H36.4174C37.0075 21.3809 37.486 20.9024 37.486 20.3122C37.486 19.722 37.0075 19.2436 36.4174 19.2436Z" fill="#00D092"/>
<path d="M20.391 29.9235H12.9116C12.3215 29.9235 11.8431 30.4019 11.8431 30.9921C11.8431 31.5823 12.3215 32.0608 12.9116 32.0608H20.391C20.9811 32.0608 21.4595 31.5823 21.4595 30.9921C21.4595 30.4019 20.9811 29.9235 20.391 29.9235Z" fill="#6FB29E"/>
<path d="M34.2804 29.9215H27.8695C27.2794 29.9215 26.8011 30.4 26.8011 30.9902C26.8011 31.5804 27.2794 32.0588 27.8695 32.0588H34.2804C34.8705 32.0588 35.349 31.5804 35.349 30.9902C35.349 30.4 34.8705 29.9215 34.2804 29.9215Z" fill="#92FFDE"/>
</g>
</g>
<defs>
<linearGradient id="paint0_linear_3_802" x1="24" y1="8.61593e-09" x2="24" y2="48" gradientUnits="userSpaceOnUse">
<stop stop-color="#515151" stop-opacity="0.61"/>
<stop offset="1" stop-color="#1B1B1B" stop-opacity="0"/>
</linearGradient>
<clipPath id="clip0_3_802">
<rect width="48" height="48" fill="white"/>
</clipPath>
</defs>
</svg>
