<svg width="136" height="51" viewBox="0 0 136 51" fill="none" xmlns="http://www.w3.org/2000/svg">
<g clip-path="url(#clip0_2_843)">
<path d="M0.796387 13.4184L1.59996 12.3596L2.40353 10.7207L3.2071 12.1145L4.01067 16.1454L4.81424 17.4816L5.61782 13.1324L6.42139 12.2513L7.22496 11.4589L8.02853 8.49756L8.8321 5.04604L9.63567 4.63329L10.4392 0.84668L11.2428 1.13695L12.0464 2.33848L12.85 3.57067L13.6535 2.12456L14.4571 3.028L15.2607 3.62106L16.0642 9.62614L16.8678 17.3552L17.6714 18.5328L18.475 23.9508L19.2785 26.1014L20.0821 27.8522L20.8857 29.8042L21.6892 29.8002L22.4928 28.3368L23.2964 28.785L24.1 27.9401L24.9035 26.7712L25.7071 23.4615L26.5107 23.4998L27.3142 25.0474L28.1178 24.9985L28.9214 26.5748L29.725 24.1839L30.5285 25.4138L31.3321 24.6946L32.1357 29.8534L32.9392 30.9869L33.7428 30.6638L34.5464 31.9674L35.35 28.6651L36.1535 30.1563L36.9571 25.6592L37.7607 29.6423L38.5642 30.9775L39.3678 37.2284L40.1714 38.1633L40.975 37.4646L41.7785 39.9111L42.5821 37.3522L43.3857 38.8836L44.1892 38.8694L44.9928 37.1827L45.7964 36.7382L46.6 35.101L47.4035 35.487L48.2071 37.91L49.0107 38.1491L49.8142 42.193L50.6178 46.92L51.4214 43.5358L52.225 42.7892L53.0285 46.8924L53.8321 46.3418L54.6357 46.341L55.4392 50.8467L56.2428 49.0525L57.0464 50.8459L57.85 48.3194L58.6535 49.2655L59.4571 47.7052L60.2607 50.3245L61.0642 48.0104L61.8678 47.0117L62.6714 47.7019L63.475 47.8816L64.2785 44.2224L65.0821 44.4464L65.8857 44.5053L66.6892 44.0326L67.4928 42.9663L68.2964 44.3001L69.1 43.2439L69.9035 42.8302L70.7071 43.7915L71.5107 43.2479L72.3142 42.6265L73.1178 41.3176L73.9214 42.8846L74.725 40.4044L75.5285 39.4171L76.3321 36.0573L77.1357 37.2847L77.9392 34.8402L78.7428 34.1998L79.5464 35.4421L80.35 36.3802L81.1535 36.8171L81.9571 35.7785L82.7607 34.7531L83.5642 36.2139L84.3678 38.8674L85.1714 38.7208L85.975 37.1501L86.7785 34.8149L87.5821 34.1747L88.3857 34.02L89.1892 34.7881L89.9928 33.4779L90.7964 33.1752L91.6 32.5661L92.4035 31.6293L93.2071 33.2419L94.0107 33.9424L94.8142 33.982L95.6178 36.8072L96.4214 36.8369L97.225 37.5593L98.0285 39.1767L98.8321 40.4562L99.6357 39.3253L100.439 37.0253L101.243 37.9771L102.046 38.1738L102.85 36.8694L103.654 37.9885L104.457 38.8238L105.261 39.3832L106.064 38.8559L106.868 39.1529L107.671 38.4922L108.475 38.3398L109.279 37.8225L110.082 38.4186L110.886 36.3739L111.689 35.0388L112.493 35.3963L113.296 32.2404L114.1 31.3704L114.904 32.9146L115.707 31.8915L116.511 30.875L117.314 31.9133L118.118 29.9355L118.921 31.7362L119.725 27.2499L120.529 25.6171L121.332 22.175L122.136 19.9447L122.939 22.185L123.743 22.9119L124.546 24.5319L125.35 25.5263L126.154 24.1129L126.957 25.5287L127.761 25.5513L128.564 27.9455L129.368 30.6304L130.171 27.4163L130.975 26.7809L131.779 24.9563L132.582 22.3197L133.386 24.1395L134.189 22.9627L134.993 25.5397" stroke="#FF3A33" stroke-width="1.25"/>
</g>
<defs>
<clipPath id="clip0_2_843">
<rect width="135" height="50" fill="white" transform="translate(0.796387 0.84668)"/>
</clipPath>
</defs>
</svg>
