<svg width="9" height="14" viewBox="0 0 9 14" fill="none" xmlns="http://www.w3.org/2000/svg">
<path d="M7.30127 6.31055C7.45361 6.47982 7.52979 6.67448 7.52979 6.89453C7.52979 7.11458 7.45361 7.30924 7.30127 7.47852L3.23877 11.541C3.0695 11.6934 2.87484 11.7695 2.65479 11.7695C2.43473 11.7695 2.24007 11.6934 2.0708 11.541C1.91846 11.3717 1.84229 11.1771 1.84229 10.957C1.84229 10.737 1.91846 10.5423 2.0708 10.373L5.57471 6.89453L2.0708 3.41602C1.91846 3.24675 1.84229 3.05208 1.84229 2.83203C1.84229 2.61198 1.91846 2.41732 2.0708 2.24805C2.24007 2.0957 2.43473 2.01953 2.65479 2.01953C2.87484 2.01953 3.0695 2.0957 3.23877 2.24805L7.30127 6.31055Z" fill="#334155"/>
</svg>
