<svg width="136" height="51" viewBox="0 0 136 51" fill="none" xmlns="http://www.w3.org/2000/svg">
<g clip-path="url(#clip0_16_291)">
<path d="M0.796387 10.264L1.5952 10.2788L2.39402 9.52361L3.19284 9.26462L3.99165 9.7572L4.79047 11.6773L5.58929 13.51L6.3881 9.44313L7.18692 7.34644L7.98574 6.36058L8.78455 5.32709L9.58337 3.57169L10.3822 4.98238L11.181 2.97584L11.9798 2.34028L12.7786 2.35658L13.5775 1.17509L14.3763 0.84668L15.1751 3.36808L15.9739 3.8464L16.7727 10.0106L17.5715 21.2473L18.3704 25.2538L19.1692 30.9962L19.968 34.4798L20.7668 37.1294L21.5656 40.2892L22.3644 47.6935L23.1632 39.9404L23.9621 41.8339L24.7609 41.2309L25.5597 39.4223L26.3585 35.8384L27.1573 35.1339L27.9562 34.4636L28.755 35.4905L29.5538 35.8903L30.3526 33.0201L31.1514 33.2001L31.9502 32.8609L32.7491 38.3269L33.5479 43.0226L34.3467 41.2875L35.1455 41.6536L35.9443 37.0163L36.7431 42.3635L37.542 36.2403L38.3408 38.2386L39.1396 39.9794L39.9384 44.876L40.7372 45.5235L41.536 42.8174L42.3348 44.6626L43.1337 45.4624L43.9325 44.7951L44.7313 42.892L45.5301 38.7718L46.3289 38.6065L47.1277 37.3947L47.9266 38.6667L48.7254 40.4108L49.5242 38.1394L50.323 41.3428L51.1218 49.7874L51.9206 42.9918L52.7195 40.9322L53.5183 44.9968L54.3171 44.0988L55.1159 44.3898L55.9147 50.8467L56.7135 46.2616L57.5124 49.1256L58.3112 44.6351L59.11 44.7453L59.9088 41.5834L60.7076 43.3242L61.5064 41.3701L62.3053 41.0292L63.1041 40.8919L63.9029 41.5214L64.7017 33.2809L65.5005 36.2302L66.2993 35.5546L67.0982 33.9539L67.897 32.5365L68.6958 34.6212L69.4946 33.0949L70.2934 34.0509L71.0922 33.2056L71.8911 34.7784L72.6899 33.9236L73.4887 32.0118L74.2875 34.8527L75.0863 33.8233L75.8851 32.0352L76.684 27.8854L77.4828 29.6566L78.2816 27.6041L79.0804 27.1617L79.8792 28.6382L80.678 29.0298L81.4769 28.7792L82.2757 28.5629L83.0745 25.6077L83.8733 26.5912L84.6721 28.5621L85.4709 28.9851L86.2698 26.2175L87.0686 25.4313L87.8674 24.1579L88.6662 26.4236L89.465 23.9966L90.2638 23.7494L91.0627 24.2089L91.8615 22.9456L92.6603 22.29L93.4591 22.1623L94.2579 23.0791L95.0567 19.563L95.8556 22.2265L96.6544 20.8728L97.4532 20.5828L98.252 25.0295L99.0508 27.5177L99.8496 23.8528L100.648 18.5779L101.447 18.3424L102.246 18.1594L103.045 16.4049L103.844 16.4083L104.643 16.7196L105.441 16.6071L106.24 14.4973L107.039 14.4334L107.838 12.3384L108.637 11.8653L109.435 9.72946L110.234 9.28408L111.033 7.57053L111.832 8.78028L112.631 9.13284L113.43 9.23708L114.228 9.31841L115.027 10.3498L115.826 10.9424L116.625 9.1825L117.424 10.1572L118.222 9.77371L119.021 12.616L119.82 8.69511L120.619 11.9835L121.418 7.45842L122.217 5.27583L123.015 7.50589L123.814 6.07936L124.613 6.79622L125.412 7.60284L126.211 6.91442L127.009 8.4107L127.808 9.84755L128.607 14.8819L129.406 19.2449L130.205 18.1556L131.003 22.6277L131.802 17.5275L132.601 14.8781L133.4 21.7859L134.199 20.323L134.998 29.7622" stroke="#FF3A33" stroke-width="1.25"/>
</g>
<defs>
<clipPath id="clip0_16_291">
<rect width="135" height="50" fill="white" transform="translate(0.796387 0.84668)"/>
</clipPath>
</defs>
</svg>
