<svg width="136" height="51" viewBox="0 0 136 51" fill="none" xmlns="http://www.w3.org/2000/svg">
<g clip-path="url(#clip0_2_771)">
<path d="M0.796387 2.10141L1.5952 1.67638L2.39402 0.84668L3.19284 2.07613L3.99165 2.51806L4.79047 5.83642L5.58929 11.3088L6.3881 9.06664L7.18692 9.32069L7.98574 7.37875L8.78455 4.54329L9.58337 3.7105L10.3822 5.33117L11.181 4.08396L11.9798 3.77808L12.7786 4.46144L13.5775 2.19599L14.3763 2.19906L15.1751 4.05665L15.9739 4.63567L16.7727 11.8088L17.5715 22.7592L18.3704 28.3573L19.1692 29.7366L19.968 32.1476L20.7668 36.8425L21.5656 36.9221L22.3644 39.68L23.1632 37.2028L23.9621 35.1018L24.7609 35.5336L25.5597 33.5473L26.3585 30.6923L27.1573 29.8543L27.9562 31.0712L28.755 30.4647L29.5538 30.1057L30.3526 27.2324L31.1514 27.7085L31.9502 26.3634L32.7491 33.007L33.5479 33.1004L34.3467 32.1089L35.1455 35.3134L35.9443 32.4473L36.7431 35.1267L37.542 30.0121L38.3408 31.9006L39.1396 31.6919L39.9384 39.378L40.7372 38.8375L41.536 35.9627L42.3348 38.531L43.1337 37.1876L43.9325 40.8457L44.7313 43.8457L45.5301 43.7643L46.3289 43.5068L47.1277 39.7283L47.9266 41.199L48.7254 41.1528L49.5242 39.9721L50.323 44.2716L51.1218 50.8467L51.9206 45.3423L52.7195 43.831L53.5183 46.8496L54.3171 46.0071L55.1159 42.1367L55.9147 45.1042L56.7135 42.3438L57.5124 44.1502L58.3112 41.6783L59.11 41.5949L59.9088 39.386L60.7076 42.619L61.5064 38.8686L62.3053 39.0612L63.1041 38.5176L63.9029 38.9481L64.7017 34.6646L65.5005 37.381L66.2993 37.4563L67.0982 38.1876L67.897 36.471L68.6958 39.1871L69.4946 38.082L70.2934 37.44L71.0922 37.0328L71.8911 36.6341L72.6899 35.5646L73.4887 34.9527L74.2875 38.4733L75.0863 37.8L75.8851 35.093L76.684 33.4098L77.4828 34.2683L78.2816 33.2636L79.0804 32.647L79.8792 32.6319L80.678 33.5502L81.4769 33.4926L82.2757 33.1844L83.0745 32.5942L83.8733 34.404L84.6721 35.5323L85.4709 34.7697L86.2698 33.5501L87.0686 32.294L87.8674 31.7381L88.6662 33.171L89.465 32.9358L90.2638 35.2806L91.0627 35.0151L91.8615 35.8234L92.6603 36.2847L93.4591 39.248L94.2579 38.3789L95.0567 38.1352L95.8556 41.8147L96.6544 42.1921L97.4532 43.4919L98.252 44.6619L99.0508 47.8L99.8496 45.0442L100.648 45.4385L101.447 46.1412L102.246 46.8993L103.045 44.6768L103.844 46.7348L104.643 48.0058L105.441 47.9543L106.24 47.6984L107.039 48.043L107.838 48.2911L108.637 48.7015L109.435 47.8042L110.234 47.4004L111.033 46.1171L111.832 45.0288L112.631 44.3251L113.43 42.7311L114.228 41.9855L115.027 44.9622L115.826 44.9138L116.625 38.6867L117.424 41.3621L118.222 39.3282L119.021 41.1605L119.82 38.504L120.619 39.6624L121.418 36.4754L122.217 36.0269L123.015 36.2584L123.814 36.2507L124.613 38.7185L125.412 38.1995L126.211 36.4891L127.009 38.3947L127.808 40.1231L128.607 43.7011L129.406 47.2206L130.205 44.0847L131.003 45.0688L131.802 42.7341L132.601 41.699L133.4 43.7108L134.199 42.123L134.998 46.2168" stroke="#FF3A33" stroke-width="1.25"/>
</g>
<defs>
<clipPath id="clip0_2_771">
<rect width="135" height="50" fill="white" transform="translate(0.796387 0.84668)"/>
</clipPath>
</defs>
</svg>
