<svg width="14" height="14" viewBox="0 0 14 14" fill="none" xmlns="http://www.w3.org/2000/svg">
<path d="M6.13086 10.7285C6.30013 10.8809 6.49479 10.957 6.71484 10.957C6.9349 10.957 7.12956 10.8809 7.29883 10.7285L12.1738 5.85352C12.3262 5.68424 12.4023 5.48958 12.4023 5.26953C12.4023 5.04948 12.3262 4.85482 12.1738 4.68555C12.0046 4.5332 11.8099 4.45703 11.5898 4.45703C11.3698 4.45703 11.1751 4.5332 11.0059 4.68555L6.71484 9.00195L2.42383 4.68555C2.25456 4.5332 2.0599 4.45703 1.83984 4.45703C1.61979 4.45703 1.42513 4.5332 1.25586 4.68555C1.10352 4.85482 1.02734 5.04948 1.02734 5.26953C1.02734 5.48958 1.10352 5.68424 1.25586 5.85352L6.13086 10.7285Z" fill="#0F172A"/>
</svg>
