<svg width="136" height="51" viewBox="0 0 136 51" fill="none" xmlns="http://www.w3.org/2000/svg">
<g clip-path="url(#clip0_9_315)">
<path d="M0.214844 37.7093L1.01842 38.2396L1.82199 36.8139L2.62556 27.8179L3.42913 34.104L4.2327 31.3153L5.03627 31.4865L5.83984 39.4651L6.64341 41.1069L7.44699 37.9494L8.25056 31.1719L9.05413 17.8367L9.8577 25.6611L10.6613 20.0179L11.4648 20.3245L12.2684 13.8333L13.072 17.9618L13.8756 24.7741L14.6791 17.7475L15.4827 14.8017L16.2863 15.3391L17.0898 16.6629L17.8934 24.2566L18.697 19.376L19.5006 25.8471L20.3041 20.0113L21.1077 17.6049L21.9113 18.8834L22.7148 17.4273L23.5184 16.6775L24.322 22.4864L25.1256 22.8636L25.9291 23.8333L26.7327 29.2693L27.5363 31.0464L28.3398 31.5914L29.1434 26.2196L29.947 28.1414L30.7506 26.3796L31.5541 30.4821L32.3577 31.0416L33.1613 29.3246L33.9648 32.9829L34.7684 27.2033L35.572 21.7563L36.3756 19.9094L37.1791 15.0038L37.9827 2.62647L38.7863 4.05264L39.5898 9.32345L40.3934 14.2414L41.197 13.4845L42.0006 11.0676L42.8041 17.0331L43.6077 13.3704L44.4113 16.5185L45.2148 16.1129L46.0184 13.1542L46.822 16.5105L47.6256 22.7477L48.4291 20.2889L49.2327 21.2979L50.0363 24.2293L50.8398 25.0941L51.6434 27.2899L52.447 26.1474L53.2506 25.6484L54.0541 25.5696L54.8577 22.8116L55.6613 16.3693L56.4648 12.6016L57.2684 7.88073L58.072 16.2081L58.8756 15.2929L59.6791 17.2296L60.4827 21.4935L61.2863 24.9095L62.0898 23.4291L62.8934 20.4164L63.697 23.3818L64.5006 19.2422L65.3041 15.429L66.1077 13.8701L66.9113 15.7944L67.7148 12.9331L68.5184 11.7939L69.322 11.173L70.1256 7.28959L70.9291 6.59589L71.7327 0.547852L72.5363 3.68813L73.3398 8.66674L74.1434 9.19904L74.947 12.4216L75.7506 13.9595L76.5541 17.796L77.3577 19.9264L78.1613 21.7494L78.9648 26.0627L79.7684 23.7214L80.572 21.9234L81.3756 23.0782L82.1791 25.8446L82.9827 26.7041L83.7863 24.6246L84.5898 25.9139L85.3934 25.1931L86.197 25.2618L87.0006 25.6083L87.8041 26.7222L88.6077 28.0465L89.4113 28.9655L90.2148 27.4675L91.0184 26.6056L91.822 29.9428L92.6256 29.6746L93.4291 31.3841L94.2327 27.8292L95.0363 30.0946L95.8398 31.5863L96.6434 32.587L97.447 37.6254L98.2506 39.3632L99.0541 37.3493L99.8577 37.8273L100.661 33.4033L101.465 36.9526L102.268 34.7349L103.072 29.0892L103.876 28.4341L104.679 19.9091L105.483 18.2034L106.286 18.5378L107.09 18.5084L107.893 19.9521L108.697 20.5793L109.501 26.3209L110.304 25.924L111.108 26.6834L111.911 33.3786L112.715 37.4997L113.518 35.0336L114.322 36.3444L115.126 31.0697L115.929 32.8293L116.733 27.4892L117.536 28.1508L118.34 38.2817L119.143 37.2752L119.947 36.4188L120.751 34.703L121.554 35.9542L122.358 32.8744L123.161 38.7162L123.965 37.5329L124.768 35.9092L125.572 37.107L126.376 36.8144L127.179 35.5625L127.983 35.9694L128.786 46.6433L129.59 50.5479L130.393 41.8705L131.197 39.4554L132.001 37.8726L132.804 32.6839L133.608 24.8717L134.411 17.5005" stroke="#32CA5B" stroke-width="1.25"/>
</g>
<defs>
<clipPath id="clip0_9_315">
<rect width="135" height="50" fill="white" transform="translate(0.214844 0.547852)"/>
</clipPath>
</defs>
</svg>
