<svg width="136" height="51" viewBox="0 0 136 51" fill="none" xmlns="http://www.w3.org/2000/svg">
<g clip-path="url(#clip0_2_819)">
<path d="M0.796387 4.12039L1.5952 4.55587L2.39402 4.11706L3.19284 3.15898L3.99165 4.30187L4.79047 9.72286L5.58929 9.67755L6.3881 6.03978L7.18692 5.72671L7.98574 5.72996L8.78455 3.34141L9.58337 3.1957L10.3822 4.7643L11.181 1.93832L11.9798 1.63409L12.7786 1.95474L13.5775 2.37349L14.3763 0.84668L15.1751 2.74136L15.9739 4.92209L16.7727 11.6601L17.5715 24.5478L18.3704 24.8089L19.1692 28.3144L19.968 32.8502L20.7668 34.953L21.5656 38.6259L22.3644 41.0886L23.1632 40.1208L23.9621 38.3283L24.7609 37.2661L25.5597 36.2567L26.3585 33.7888L27.1573 33.0423L27.9562 33.3935L28.755 33.9276L29.5538 33.4424L30.3526 30.7133L31.1514 32.4008L31.9502 33.3209L32.7491 39.8262L33.5479 40.0829L34.3467 38.9488L35.1455 44.0071L35.9443 42.388L36.7431 45.2283L37.542 39.0493L38.3408 43.8457L39.1396 43.6074L39.9384 49.698L40.7372 50.8467L41.536 45.8689L42.3348 49.1425L43.1337 48.7809L43.9325 50.2891L44.7313 49.4604L45.5301 46.9386L46.3289 45.6012L47.1277 44.826L47.9266 44.512L48.7254 46.6834L49.5242 45.8261L50.323 46.2118L51.1218 45.6931L51.9206 40.6276L52.7195 35.3856L53.5183 43.6658L54.3171 41.5719L55.1159 42.4688L55.9147 46.7705L56.7135 37.8399L57.5124 40.5187L58.3112 36.222L59.11 35.8422L59.9088 34.0619L60.7076 38.6487L61.5064 36.5325L62.3053 35.1146L63.1041 35.2467L63.9029 37.6929L64.7017 34.5411L65.5005 34.3421L66.2993 34.9734L67.0982 34.6203L67.897 32.8562L68.6958 36.2852L69.4946 34.5813L70.2934 35.0318L71.0922 35.0981L71.8911 36.7676L72.6899 34.5101L73.4887 33.4559L74.2875 35.5434L75.0863 35.3742L75.8851 31.1441L76.684 27.892L77.4828 27.9985L78.2816 25.3084L79.0804 25.4267L79.8792 27.097L80.678 28.8666L81.4769 29.3384L82.2757 27.7057L83.0745 27.4633L83.8733 29.1951L84.6721 32.838L85.4709 33.2999L86.2698 32.1301L87.0686 30.1489L87.8674 29.3088L88.6662 31.8258L89.465 30.2683L90.2638 30.1954L91.0627 30.9255L91.8615 31.5656L92.6603 30.7968L93.4591 31.6551L94.2579 30.962L95.0567 30.932L95.8556 33.938L96.6544 32.0757L97.4532 34.6159L98.252 36.9821L99.0508 38.9305L99.8496 36.1196L100.648 34.3601L101.447 34.9162L102.246 35.0086L103.045 33.1221L103.844 34.9205L104.643 36.3173L105.441 35.3774L106.24 35.1939L107.039 35.4935L107.838 27.8491L108.637 32.3154L109.435 30.325L110.234 31.8319L111.033 30.6013L111.832 29.8345L112.631 31.5412L113.43 28.3915L114.228 26.7848L115.027 29.3248L115.826 28.6975L116.625 27.7677L117.424 28.6097L118.222 28.9899L119.021 32.2435L119.82 28.2491L120.619 28.8813L121.418 22.9375L122.217 21.9439L123.015 22.8319L123.814 23.6651L124.613 23.8031L125.412 23.7139L126.211 21.6857L127.009 21.804L127.808 25.3222L128.607 29.3694L129.406 32.3689L130.205 29.6036L131.003 29.108L131.802 27.1816L132.601 26.9493L133.4 27.483L134.199 25.7646L134.998 31.5409" stroke="#FF3A33" stroke-width="1.25"/>
</g>
<defs>
<clipPath id="clip0_2_819">
<rect width="135" height="50" fill="white" transform="translate(0.796387 0.84668)"/>
</clipPath>
</defs>
</svg>
