<svg width="136" height="51" viewBox="0 0 136 51" fill="none" xmlns="http://www.w3.org/2000/svg">
<g clip-path="url(#clip0_9_273)">
<path d="M0.214844 50.5479L1.01366 48.1285L1.81248 44.1408L2.61129 43.1448L3.41011 43.5466L4.20893 43.3294L5.00774 42.3239L5.80656 41.8503L6.60538 39.6963L7.40419 37.2333L8.20301 39.2177L9.00183 34.5204L9.80064 31.2872L10.5995 31.0595L11.3983 24.5006L12.1971 26.7059L12.9959 24.7209L13.7947 25.675L14.5935 25.3475L15.3924 22.419L16.1912 22.6213L16.99 20.9691L17.7888 22.6777L18.5876 26.1868L19.3864 28.6561L20.1853 31.7536L20.9841 32.0772L21.7829 31.3441L22.5817 29.8258L23.3805 32.273L24.1793 30.9193L24.9782 31.6649L25.777 26.9842L26.5758 26.7859L27.3746 28.2033L28.1734 29.8281L28.9722 31.6469L29.7711 28.9608L30.5699 29.3034L31.3687 29.8174L32.1675 30.9586L32.9663 31.9277L33.7651 31.8749L34.564 33.2386L35.3628 30.9328L36.1616 27.8441L36.9604 27.6289L37.7592 26.5935L38.558 23.4553L39.3569 20.2737L40.1557 16.4886L40.9545 20.4419L41.7533 18.3731L42.5521 20.3572L43.3509 17.672L44.1498 16.9786L44.9486 16.0928L45.7474 16.3098L46.5462 11.4565L47.345 13.2303L48.1438 15.5847L48.9427 13.5281L49.7415 16.855L50.5403 18.2576L51.3391 10.7715L52.1379 15.0296L52.9367 10.2718L53.7356 9.12575L54.5344 9.56931L55.3332 5.75748L56.132 4.59296L56.9308 4.64954L57.7296 0.547852L58.5285 1.41266L59.3273 5.77999L60.1261 7.63118L60.9249 9.23545L61.7237 12.5139L62.5225 10.4957L63.3214 8.04254L64.1202 8.37133L64.919 6.01329L65.7178 9.44482L66.5166 7.19431L67.3154 9.84963L68.1143 10.4261L68.9131 12.7572L69.7119 11.7113L70.5107 12.0939L71.3095 10.8615L72.1083 11.567L72.9072 10.8659L73.706 11.0699L74.5048 8.75884L75.3036 10.2003L76.1024 10.8337L76.9012 14.6931L77.7001 15.304L78.4989 17.8237L79.2977 17.4258L80.0965 15.5728L80.8953 11.9445L81.6941 12.9289L82.493 13.5842L83.2918 12.8889L84.0906 10.4429L84.8894 11.8789L85.6882 12.4988L86.487 12.5656L87.2859 13.1328L88.0847 12.6426L88.8835 13.3825L89.6823 14.0614L90.4811 14.7221L91.2799 13.2454L92.0788 16.1001L92.8776 15.4471L93.6764 14.7535L94.4752 13.1239L95.274 14.4411L96.0728 15.3852L96.8717 18.5798L97.6705 18.6182L98.4693 18.2149L99.2681 17.741L100.067 18.223L100.866 15.7354L101.665 19.3694L102.463 16.0457L103.262 15.2375L104.061 12.9377L104.86 10.6546L105.659 11.2298L106.457 10.0039L107.256 10.3506L108.055 12.0249L108.854 12.9732L109.653 15.4603L110.452 17.4182L111.25 18.889L112.049 24.8117L112.848 23.5006L113.647 24.2007L114.446 24.5821L115.244 23.0609L116.043 24.0664L116.842 22.8264L117.641 24.2406L118.44 28.4331L119.239 29.606L120.037 27.9591L120.836 28.0748L121.635 29.1734L122.434 30.9311L123.233 34.3222L124.031 31.8562L124.83 31.7449L125.629 32.4588L126.428 33.3608L127.227 32.6228L128.025 31.6875L128.824 35.481L129.623 39.5649L130.422 35.5043L131.221 35.2088L132.02 34.6068L132.818 31.4127L133.617 31.184L134.416 29.6026" stroke="#32CA5B" stroke-width="1.25"/>
</g>
<defs>
<clipPath id="clip0_9_273">
<rect width="135" height="50" fill="white" transform="translate(0.214844 0.547852)"/>
</clipPath>
</defs>
</svg>
