<svg width="136" height="51" viewBox="0 0 136 51" fill="none" xmlns="http://www.w3.org/2000/svg">
<g clip-path="url(#clip0_2_941)">
<path d="M0.796387 12.4073L1.5905 11.9035L2.38462 9.86074L3.17874 9.91548L3.97286 12.2269L4.76697 14.0289L5.56109 16.42L6.35521 10.994L7.14933 12.9701L7.94345 9.10735L8.73756 7.6001L9.53168 9.29951L10.3258 7.59782L11.1199 7.35098L11.914 7.1972L12.7082 3.35101L13.5023 3.59638L14.2964 3.54816L15.0905 3.12828L15.8846 0.84668L16.6787 6.3205L17.4729 12.9789L18.267 12.623L19.0611 17.4527L19.8552 16.7525L20.6493 21.039L21.4434 25.3142L22.2376 23.4748L23.0317 20.757L23.8258 22.0437L24.6199 23.6759L25.414 16.4418L26.2082 12.3229L27.0023 10.9918L27.7964 13.3043L28.5905 14.9752L29.3846 16.9585L30.1787 16.7789L30.9729 18.339L31.767 19.7739L32.5611 25.9071L33.3552 31.9741L34.1493 30.8505L34.9434 31.9176L35.7376 31.9854L36.5317 31.5217L37.3258 26.4167L38.1199 28.4672L38.914 30.4682L39.7082 34.56L40.5023 34.3544L41.2964 33.2207L42.0905 34.0297L42.8846 35.9052L43.6787 36.0169L44.4729 39.3868L45.267 38.7774L46.0611 38.2271L46.8552 39.0289L47.6493 38.7508L48.4434 41.5761L49.2376 42.4727L50.0317 45.9426L50.8258 48.3526L51.6199 47.1676L52.414 46.5724L53.2082 47.1766L54.0023 47.914L54.7964 47.8713L55.5905 49.1815L56.3846 48.7629L57.1787 50.8467L57.9729 49.2369L58.767 49.9147L59.5611 47.8162L60.3552 49.5815L61.1493 49.4213L61.9434 47.9362L62.7376 47.9771L63.5317 49.0357L64.3258 47.3958L65.1199 47.1886L65.914 48.0161L66.7082 46.4927L67.5023 43.4912L68.2964 41.6755L69.0905 37.6028L69.8846 35.7229L70.6787 38.1563L71.4729 38.0379L72.267 35.5346L73.0611 35.2056L73.8552 36.2836L74.6493 36.9554L75.4434 36.168L76.2376 32.8484L77.0317 33.0908L77.8258 32.2683L78.6199 30.4694L79.414 32.3289L80.2082 36.3801L81.0023 37.5815L81.7964 37.3089L82.5905 37.4474L83.3846 39.7369L84.1787 41.1008L84.9729 40.6079L85.767 40.4393L86.5611 39.5446L87.3552 37.7482L88.1493 37.6709L88.9434 37.1601L89.7376 35.7036L90.5317 37.264L91.3258 37.3496L92.1199 36.7564L92.914 38.5245L93.7082 38.073L94.5023 38.7147L95.2964 41.0572L96.0905 40.6766L96.8846 42.1661L97.6787 43.5485L98.4729 43.59L99.267 42.676L100.061 42.1543L100.855 42.2864L101.649 43.5539L102.443 42.3521L103.238 42.9045L104.032 43.7778L104.826 43.9952L105.62 43.403L106.414 43.1716L107.208 43.0935L108.002 43.0587L108.796 42.6389L109.591 42.9653L110.385 41.336L111.179 40.7803L111.973 40.8324L112.767 37.7969L113.561 38.0623L114.355 38.2335L115.149 38.075L115.943 38.1819L116.738 39.6236L117.532 39.6945L118.326 40.8224L119.12 38.9767L119.914 38.6466L120.708 36.1885L121.502 34.4848L122.296 35.3755L123.091 35.2272L123.885 36.4291L124.679 37.5107L125.473 36.0123L126.267 36.888L127.061 37.729L127.855 38.8518L128.649 42.4636L129.443 43.0502L130.238 43.6916L131.032 41.7148L131.826 40.6475L132.62 40.3969L133.414 40.0035L134.208 39.4841L135.002 42.7472" stroke="#FF3A33" stroke-width="1.25"/>
</g>
<defs>
<clipPath id="clip0_2_941">
<rect width="135" height="50" fill="white" transform="translate(0.796387 0.84668)"/>
</clipPath>
</defs>
</svg>
