<svg width="136" height="51" viewBox="0 0 136 51" fill="none" xmlns="http://www.w3.org/2000/svg">
<g clip-path="url(#clip0_2_446)">
<path d="M0.214844 36.1019L1.01366 34.1472L1.81248 30.559L2.61129 34.9571L3.41011 37.509L4.20893 38.653L5.00774 36.5542L5.80656 37.7087L6.60538 44.1978L7.40419 44.741L8.20301 42.6949L9.00183 42.2202L9.80064 41.0162L10.5995 40.4053L11.3983 38.556L12.1971 38.746L12.9959 39.8489L13.7947 37.4962L14.5935 43.2921L15.3924 44.7485L16.1912 42.7188L16.99 44.3068L17.7888 42.5703L18.5876 45.5816L19.3864 46.4323L20.1853 49.835L20.9841 48.4201L21.7829 49.1081L22.5817 50.5479L23.3805 49.0368L24.1793 46.466L24.9782 47.3242L25.777 44.2474L26.5758 39.8322L27.3746 41.2382L28.1734 36.9816L28.9722 32.5902L29.7711 27.8636L30.5699 27.5196L31.3687 26.4615L32.1675 31.0082L32.9663 33.4284L33.7651 32.7145L34.564 37.9223L35.3628 31.0455L36.1616 31.2633L36.9604 29.218L37.7592 27.9825L38.558 23.1032L39.3569 17.8948L40.1557 18.5155L40.9545 22.4497L41.7533 24.3529L42.5521 22.279L43.3509 18.1699L44.1498 18.062L44.9486 22.9522L45.7474 23.8681L46.5462 19.2454L47.345 21.1208L48.1438 25.5647L48.9427 25.6511L49.7415 30.2145L50.5403 28.6458L51.3391 25.0433L52.1379 25.1118L52.9367 25.2213L53.7356 25.8522L54.5344 26.1696L55.3332 26.2026L56.132 19.9921L56.9308 22.346L57.7296 21.0655L58.5285 24.2083L59.3273 23.1512L60.1261 21.702L60.9249 26.8974L61.7237 27.7313L62.5225 26.6821L63.3214 24.0188L64.1202 24.1587L64.919 21.8438L65.7178 22.8856L66.5166 16.1924L67.3154 18.7397L68.1143 16.0461L68.9131 18.0855L69.7119 16.7464L70.5107 18.7241L71.3095 16.9842L72.1083 16.8638L72.9072 16.4063L73.706 15.6866L74.5048 13.9075L75.3036 13.0383L76.1024 14.3709L76.9012 19.2883L77.7001 24.1165L78.4989 26.4947L79.2977 28.3081L80.0965 24.9355L80.8953 21.278L81.6941 22.2111L82.493 26.4851L83.2918 27.9176L84.0906 22.5807L84.8894 25.9681L85.6882 28.8224L86.487 27.7109L87.2859 27.2678L88.0847 27.213L88.8835 28.3985L89.6823 30.468L90.4811 28.4237L91.2799 27.9454L92.0788 31.3304L92.8776 29.1813L93.6764 30.3097L94.4752 28.1657L95.274 31.6479L96.0728 31.9008L96.8717 33.3534L97.6705 35.3896L98.4693 33.2547L99.2681 31.489L100.067 33.7668L100.866 30.7172L101.665 35.3562L102.463 31.0982L103.262 32.1162L104.061 29.5329L104.86 26.9687L105.659 25.3405L106.457 25.4977L107.256 18.8864L108.055 20.7987L108.854 15.7721L109.653 23.3304L110.452 22.219L111.25 24.792L112.049 29.9336L112.848 31.8468L113.647 29.2128L114.446 29.8675L115.244 18.8875L116.043 23.3432L116.842 18.1434L117.641 19.2358L118.44 27.3189L119.239 27.9627L120.037 27.3709L120.836 20.2813L121.635 24.4562L122.434 21.7884L123.233 26.4038L124.031 25.6673L124.83 24.256L125.629 25.6002L126.428 21.014L127.227 14.0362L128.025 15.6997L128.824 21.3686L129.623 27.3447L130.422 17.0203L131.221 16.327L132.02 13.6954L132.818 0.547852L133.617 3.65947L134.416 7.99742" stroke="#32CA5B" stroke-width="1.25"/>
</g>
<defs>
<clipPath id="clip0_2_446">
<rect width="135" height="50" fill="white" transform="translate(0.214844 0.547852)"/>
</clipPath>
</defs>
</svg>
