<svg width="14" height="14" viewBox="0 0 14 14" fill="none" xmlns="http://www.w3.org/2000/svg">
<path d="M8.75 0C8.49479 0 8.28516 0.0820312 8.12109 0.246094C7.95703 0.410156 7.875 0.619792 7.875 0.875C7.875 1.13021 7.95703 1.33984 8.12109 1.50391C8.28516 1.66797 8.49479 1.75 8.75 1.75H11.0195L5.49609 7.24609C5.33203 7.42839 5.25 7.63802 5.25 7.875C5.25 8.11198 5.33203 8.32161 5.49609 8.50391C5.67839 8.66797 5.88802 8.75 6.125 8.75C6.36198 8.75 6.57161 8.66797 6.75391 8.50391L12.25 2.98047V5.25C12.25 5.50521 12.332 5.71484 12.4961 5.87891C12.6602 6.04297 12.8698 6.125 13.125 6.125C13.3802 6.125 13.5898 6.04297 13.7539 5.87891C13.918 5.71484 14 5.50521 14 5.25V0.875C14 0.619792 13.918 0.410156 13.7539 0.246094C13.5898 0.0820312 13.3802 0 13.125 0H8.75ZM2.1875 0.875C1.56771 0.893229 1.04818 1.10286 0.628906 1.50391C0.227865 1.92318 0.0182292 2.44271 0 3.0625V11.8125C0.0182292 12.4323 0.227865 12.9518 0.628906 13.3711C1.04818 13.7721 1.56771 13.9818 2.1875 14H10.9375C11.5573 13.9818 12.0768 13.7721 12.4961 13.3711C12.8971 12.9518 13.1068 12.4323 13.125 11.8125V8.75C13.125 8.49479 13.043 8.28516 12.8789 8.12109C12.7148 7.95703 12.5052 7.875 12.25 7.875C11.9948 7.875 11.7852 7.95703 11.6211 8.12109C11.457 8.28516 11.375 8.49479 11.375 8.75V11.8125C11.3568 12.0859 11.2109 12.2318 10.9375 12.25H2.1875C1.91406 12.2318 1.76823 12.0859 1.75 11.8125V3.0625C1.76823 2.78906 1.91406 2.64323 2.1875 2.625H5.25C5.50521 2.625 5.71484 2.54297 5.87891 2.37891C6.04297 2.21484 6.125 2.00521 6.125 1.75C6.125 1.49479 6.04297 1.28516 5.87891 1.12109C5.71484 0.957031 5.50521 0.875 5.25 0.875H2.1875Z" fill="#64748B"/>
</svg>
