<svg width="15" height="15" viewBox="0 0 15 15" fill="none" xmlns="http://www.w3.org/2000/svg">
<path d="M1.45264 2.22461C1.4891 1.82357 1.70785 1.60482 2.10889 1.56836H2.98389C3.38493 1.60482 3.60368 1.82357 3.64014 2.22461V5.50586H4.07764C4.47868 5.54232 4.69743 5.76107 4.73389 6.16211C4.69743 6.56315 4.47868 6.7819 4.07764 6.81836H1.89014C1.4891 6.7819 1.27035 6.56315 1.23389 6.16211C1.27035 5.76107 1.4891 5.54232 1.89014 5.50586H2.32764V2.88086H2.10889C1.70785 2.8444 1.4891 2.62565 1.45264 2.22461ZM3.17529 10.0176C2.93831 9.81706 2.71956 9.82617 2.51904 10.0449L2.21826 10.4824C1.94482 10.7923 1.63493 10.847 1.28857 10.6465C0.978678 10.373 0.923991 10.0632 1.12451 9.7168L1.45264 9.2793C1.79899 8.82357 2.23649 8.58659 2.76514 8.56836C3.29378 8.55013 3.75863 8.75065 4.15967 9.16992C4.45133 9.51628 4.58805 9.89909 4.56982 10.3184C4.56982 10.7559 4.42399 11.1387 4.13232 11.4668L3.17529 12.5059H4.07764C4.47868 12.5423 4.69743 12.7611 4.73389 13.1621C4.69743 13.5632 4.47868 13.7819 4.07764 13.8184H1.67139C1.39795 13.8001 1.19743 13.6725 1.06982 13.4355C0.978678 13.1621 1.01514 12.9251 1.1792 12.7246L3.14795 10.5918C3.29378 10.4095 3.3029 10.2181 3.17529 10.0176ZM6.92139 2.44336H13.9214C14.1766 2.44336 14.3862 2.52539 14.5503 2.68945C14.7144 2.85352 14.7964 3.06315 14.7964 3.31836C14.7964 3.57357 14.7144 3.7832 14.5503 3.94727C14.3862 4.11133 14.1766 4.19336 13.9214 4.19336H6.92139C6.66618 4.19336 6.45654 4.11133 6.29248 3.94727C6.12842 3.7832 6.04639 3.57357 6.04639 3.31836C6.04639 3.06315 6.12842 2.85352 6.29248 2.68945C6.45654 2.52539 6.66618 2.44336 6.92139 2.44336ZM6.92139 6.81836H13.9214C14.1766 6.81836 14.3862 6.90039 14.5503 7.06445C14.7144 7.22852 14.7964 7.43815 14.7964 7.69336C14.7964 7.94857 14.7144 8.1582 14.5503 8.32227C14.3862 8.48633 14.1766 8.56836 13.9214 8.56836H6.92139C6.66618 8.56836 6.45654 8.48633 6.29248 8.32227C6.12842 8.1582 6.04639 7.94857 6.04639 7.69336C6.04639 7.43815 6.12842 7.22852 6.29248 7.06445C6.45654 6.90039 6.66618 6.81836 6.92139 6.81836ZM6.92139 11.1934H13.9214C14.1766 11.1934 14.3862 11.2754 14.5503 11.4395C14.7144 11.6035 14.7964 11.8132 14.7964 12.0684C14.7964 12.3236 14.7144 12.5332 14.5503 12.6973C14.3862 12.8613 14.1766 12.9434 13.9214 12.9434H6.92139C6.66618 12.9434 6.45654 12.8613 6.29248 12.6973C6.12842 12.5332 6.04639 12.3236 6.04639 12.0684C6.04639 11.8132 6.12842 11.6035 6.29248 11.4395C6.45654 11.2754 6.66618 11.1934 6.92139 11.1934Z" fill="#64748B"/>
</svg>
