<svg width="18" height="15" viewBox="0 0 18 15" fill="none" xmlns="http://www.w3.org/2000/svg">
<path d="M9.89453 1.87109L9.23828 0.558594C9.18359 0.449219 9.09245 0.394531 8.96484 0.394531C8.85547 0.394531 8.76432 0.449219 8.69141 0.558594L8.03516 1.87109L6.61328 2.08984C6.48568 2.10807 6.40365 2.17188 6.36719 2.28125C6.33073 2.40885 6.35807 2.51823 6.44922 2.60938L7.48828 3.62109L7.24219 5.07031C7.22396 5.19792 7.26042 5.29818 7.35156 5.37109C7.44271 5.44401 7.55208 5.45312 7.67969 5.39844L8.96484 4.71484L10.25 5.37109C10.3776 5.42578 10.487 5.41667 10.5781 5.34375C10.6693 5.27083 10.7148 5.17057 10.7148 5.04297L10.4688 3.62109L11.5078 2.60938C11.599 2.51823 11.6172 2.41797 11.5625 2.30859C11.526 2.18099 11.444 2.10807 11.3164 2.08984L9.89453 1.87109ZM7.21484 7.39453C6.95964 7.39453 6.75 7.47656 6.58594 7.64062C6.42188 7.80469 6.33984 8.01432 6.33984 8.26953V13.5195C6.33984 13.7747 6.42188 13.9844 6.58594 14.1484C6.75 14.3125 6.95964 14.3945 7.21484 14.3945H10.7148C10.9701 14.3945 11.1797 14.3125 11.3438 14.1484C11.5078 13.9844 11.5898 13.7747 11.5898 13.5195V8.26953C11.5898 8.01432 11.5078 7.80469 11.3438 7.64062C11.1797 7.47656 10.9701 7.39453 10.7148 7.39453H7.21484ZM1.08984 9.14453C0.834635 9.14453 0.625 9.22656 0.460938 9.39062C0.296875 9.55469 0.214844 9.76432 0.214844 10.0195V13.5195C0.214844 13.7747 0.296875 13.9844 0.460938 14.1484C0.625 14.3125 0.834635 14.3945 1.08984 14.3945H4.58984C4.84505 14.3945 5.05469 14.3125 5.21875 14.1484C5.38281 13.9844 5.46484 13.7747 5.46484 13.5195V10.0195C5.46484 9.76432 5.38281 9.55469 5.21875 9.39062C5.05469 9.22656 4.84505 9.14453 4.58984 9.14453H1.08984ZM12.4648 11.7695V13.5195C12.4648 13.7747 12.5469 13.9844 12.7109 14.1484C12.875 14.3125 13.0846 14.3945 13.3398 14.3945H16.8398C17.0951 14.3945 17.3047 14.3125 17.4688 14.1484C17.6328 13.9844 17.7148 13.7747 17.7148 13.5195V11.7695C17.7148 11.5143 17.6328 11.3047 17.4688 11.1406C17.3047 10.9766 17.0951 10.8945 16.8398 10.8945H13.3398C13.0846 10.8945 12.875 10.9766 12.7109 11.1406C12.5469 11.3047 12.4648 11.5143 12.4648 11.7695Z" fill="#35AF00"/>
</svg>
