<svg width="136" height="51" viewBox="0 0 136 51" fill="none" xmlns="http://www.w3.org/2000/svg">
<g clip-path="url(#clip0_2_787)">
<path d="M0.796387 6.31016L1.5952 8.63615L2.39402 5.17176L3.19284 6.32772L3.99165 9.3264L4.79047 16.5756L5.58929 10.1598L6.3881 7.51801L7.18692 9.05418L7.98574 3.52824L8.78455 2.64556L9.58337 4.42742L10.3822 2.03774L11.181 0.84668L11.9798 3.17149L12.7786 3.35307L13.5775 4.34348L14.3763 5.30258L15.1751 5.43954L15.9739 17.4165L16.7727 18.0031L17.5715 24.1363L18.3704 29.593L19.1692 39.0442L19.968 32.8639L20.7668 35.3689L21.5656 43.4307L22.3644 38.8726L23.1632 40.9689L23.9621 39.1878L24.7609 36.1067L25.5597 36.949L26.3585 33.8327L27.1573 31.3414L27.9562 33.876L28.755 34.2963L29.5538 32.453L30.3526 31.4333L31.1514 32.4085L31.9502 37.7067L32.7491 39.6954L33.5479 38.8949L34.3467 38.8884L35.1455 43.5498L35.9443 38.4191L36.7431 36.4862L37.542 36.9535L38.3408 39.1693L39.1396 43.9144L39.9384 45.8192L40.7372 39.9244L41.536 41.5534L42.3348 43.4289L43.1337 42.13L43.9325 40.6063L44.7313 37.7139L45.5301 38.2744L46.3289 38.7828L47.1277 37.5056L47.9266 39.3747L48.7254 38.9269L49.5242 39.2414L50.323 46.4732L51.1218 46.2935L51.9206 45.6862L52.7195 43.8466L53.5183 46.3669L54.3171 50.8467L55.1159 42.7936L55.9147 42.8997L56.7135 46.1558L57.5124 42.0093L58.3112 40.4122L59.11 38.1785L59.9088 39.444L60.7076 38.8822L61.5064 38.5553L62.3053 36.8552L63.1041 37.3424L63.9029 33.5078L64.7017 31.1038L65.5005 38.248L66.2993 37.0321L67.0982 34.5113L67.897 35.4638L68.6958 34.9488L69.4946 33.8326L70.2934 34.9546L71.0922 35.9053L71.8911 36.0399L72.6899 35.1784L73.4887 30.9702L74.2875 35.6769L75.0863 33.3314L75.8851 29.98L76.684 30.2856L77.4828 29.7673L78.2816 30.0322L79.0804 30.7901L79.8792 30.9916L80.678 31.6731L81.4769 31.9635L82.2757 30.0447L83.0745 31.1073L83.8733 32.7172L84.6721 33.2612L85.4709 32.5705L86.2698 31.4447L87.0686 30.7833L87.8674 30.3825L88.6662 30.6337L89.465 29.9455L90.2638 32.0121L91.0627 31.5373L91.8615 31.4935L92.6603 31.6909L93.4591 32.137L94.2579 32.6707L95.0567 35.6781L95.8556 34.9193L96.6544 35.1507L97.4532 37.1911L98.252 37.6989L99.0508 36.3134L99.8496 35.0876L100.648 35.7871L101.447 35.32L102.246 32.8416L103.045 33.8435L103.844 33.2582L104.643 34.2116L105.441 33.1002L106.24 32.403L107.039 32.6535L107.838 32.6817L108.637 32.4925L109.435 33.6661L110.234 32.8204L111.033 32.5376L111.832 30.6846L112.631 30.332L113.43 31.01L114.228 31.8571L115.027 32.4333L115.826 32.7906L116.625 31.8444L117.424 31.9183L118.222 32.5551L119.021 31.8813L119.82 30.3186L120.619 27.3626L121.418 24.304L122.217 24.1293L123.015 25.8643L123.814 25.0803L124.613 26.4455L125.412 25.0736L126.211 25.5731L127.009 25.3451L127.808 27.8204L128.607 31.7614L129.406 32.118L130.205 31.559L131.003 22.433L131.802 22.1339L132.601 23.8225L133.4 22.6751L134.199 21.3754L134.998 30.3431" stroke="#FF3A33" stroke-width="1.25"/>
</g>
<defs>
<clipPath id="clip0_2_787">
<rect width="135" height="50" fill="white" transform="translate(0.796387 0.84668)"/>
</clipPath>
</defs>
</svg>
