<svg width="14" height="14" viewBox="0 0 14 14" fill="none" xmlns="http://www.w3.org/2000/svg">
<path d="M6.7124 11.0273C6.88167 11.1797 7.07633 11.2559 7.29639 11.2559C7.51644 11.2559 7.7111 11.1797 7.88037 11.0273L12.7554 6.15234C12.9077 5.98307 12.9839 5.78841 12.9839 5.56836C12.9839 5.34831 12.9077 5.15365 12.7554 4.98438C12.5861 4.83203 12.3914 4.75586 12.1714 4.75586C11.9513 4.75586 11.7567 4.83203 11.5874 4.98438L7.29639 9.30078L3.00537 4.98438C2.8361 4.83203 2.64144 4.75586 2.42139 4.75586C2.20133 4.75586 2.00667 4.83203 1.8374 4.98438C1.68506 5.15365 1.60889 5.34831 1.60889 5.56836C1.60889 5.78841 1.68506 5.98307 1.8374 6.15234L6.7124 11.0273Z" fill="#0F172A"/>
</svg>
