<svg width="48" height="48" viewBox="0 0 48 48" fill="none" xmlns="http://www.w3.org/2000/svg">
<g clip-path="url(#clip0_3_794)">
<mask id="mask0_3_794" style="mask-type:luminance" maskUnits="userSpaceOnUse" x="0" y="0" width="48" height="48">
<path d="M48 0H0V48H48V0Z" fill="white"/>
</mask>
<g mask="url(#mask0_3_794)">
<path d="M38.2041 0.122449H9.79592C4.45341 0.122449 0.122452 4.45341 0.122452 9.79592V38.2041C0.122452 43.5466 4.45341 47.8775 9.79592 47.8775H38.2041C43.5466 47.8775 47.8776 43.5466 47.8776 38.2041V9.79592C47.8776 4.45341 43.5466 0.122449 38.2041 0.122449Z" fill="url(#paint0_linear_3_794)" stroke="#3F3F3F" stroke-width="0.244898"/>
<path d="M15.7156 16.5335C15.7156 14.7229 17.1833 13.2551 18.9939 13.2551H29.0109C30.8215 13.2551 32.2892 14.7229 32.2892 16.5335V34.4258C32.2892 35.38 31.1521 35.8759 30.4529 35.2266L25.1177 30.2725C24.4888 29.6886 23.516 29.6886 22.887 30.2725L17.5519 35.2266C16.8527 35.8759 15.7156 35.38 15.7156 34.4258V16.5335Z" fill="#00D797"/>
<path d="M27.3595 21.2135C27.4392 21.1512 27.4982 21.0646 27.5285 20.9654C27.5587 20.8663 27.5586 20.7598 27.5281 20.6608C27.4975 20.5617 27.4383 20.4752 27.3585 20.4132C27.2787 20.3513 27.1824 20.3171 27.0832 20.3154L25.1548 20.2391C25.1453 20.2384 25.1362 20.2348 25.1287 20.2289C25.1211 20.2229 25.1153 20.2148 25.112 20.2054L24.4456 18.3195C24.4122 18.2236 24.3514 18.1408 24.2715 18.0823C24.1916 18.0237 24.0964 17.9924 23.9989 17.9924C23.9015 17.9924 23.8063 18.0237 23.7264 18.0823C23.6465 18.1408 23.5857 18.2236 23.5522 18.3195L22.888 20.2121C22.8847 20.2215 22.879 20.2296 22.8713 20.2356C22.8638 20.2416 22.8547 20.2451 22.8452 20.2458L20.9168 20.3221C20.8176 20.3239 20.7213 20.3581 20.6415 20.42C20.5617 20.4819 20.5025 20.5685 20.4719 20.6675C20.4414 20.7666 20.4413 20.873 20.4715 20.9722C20.5018 21.0713 20.5609 21.158 20.6405 21.2201L22.1531 22.4662C22.1607 22.4723 22.1663 22.4808 22.1694 22.4904C22.1725 22.5 22.1728 22.5102 22.1702 22.52L21.6496 24.453C21.6226 24.5514 21.6253 24.6561 21.6571 24.7529C21.689 24.8498 21.7485 24.9339 21.8277 24.9941C21.9068 25.0541 22.0016 25.0873 22.0994 25.0889C22.1971 25.0905 22.293 25.0605 22.3738 25.003L23.9722 23.8805C23.98 23.8748 23.9893 23.8718 23.9989 23.8718C24.0085 23.8718 24.0178 23.8748 24.0257 23.8805L25.6241 25.003C25.7038 25.0625 25.7993 25.0944 25.8973 25.0944C25.9951 25.0944 26.0907 25.0625 26.1704 25.003C26.2495 24.9434 26.3092 24.8597 26.341 24.7632C26.3729 24.6667 26.3754 24.5623 26.3483 24.4642L25.8233 22.5245C25.8206 22.5147 25.8207 22.5044 25.8238 22.4948C25.8268 22.4851 25.8326 22.4766 25.8405 22.4707L27.3595 21.2135Z" fill="white"/>
</g>
</g>
<defs>
<linearGradient id="paint0_linear_3_794" x1="24" y1="8.61593e-09" x2="24" y2="48" gradientUnits="userSpaceOnUse">
<stop stop-color="#515151" stop-opacity="0.61"/>
<stop offset="1" stop-color="#1B1B1B" stop-opacity="0"/>
</linearGradient>
<clipPath id="clip0_3_794">
<rect width="48" height="48" fill="white"/>
</clipPath>
</defs>
</svg>
