<svg width="16" height="16" viewBox="0 0 16 16" fill="none" xmlns="http://www.w3.org/2000/svg">
<path d="M6.79646 7.51676C7.1665 7.51676 7.46646 7.21679 7.46646 6.84676C7.46646 6.47673 7.1665 6.17676 6.79646 6.17676C6.42643 6.17676 6.12646 6.47673 6.12646 6.84676C6.12646 7.21679 6.42643 7.51676 6.79646 7.51676Z" fill="#00AECD"/>
<path d="M4.99619 12.1467C4.39619 12.4801 4.09619 12.2967 4.09619 11.5967V4.94672C4.09619 4.28005 4.42952 4.08005 5.09619 4.34672L11.1962 7.84672C12.2629 8.18005 12.2629 8.51339 11.1962 8.84672L7.44619 10.8467V8.59672C7.44619 8.51136 7.42938 8.42684 7.39671 8.34797C7.36405 8.26911 7.31617 8.19746 7.25581 8.1371C7.19545 8.07674 7.1238 8.02886 7.04494 7.9962C6.96607 7.96353 6.88155 7.94672 6.79619 7.94672C6.71083 7.94672 6.62631 7.96353 6.54745 7.9962C6.46859 8.02886 6.39693 8.07674 6.33657 8.1371C6.27621 8.19746 6.22834 8.26911 6.19567 8.34797C6.163 8.42684 6.14619 8.51136 6.14619 8.59672V11.5967C6.14725 11.7494 6.18711 11.8992 6.26203 12.0322C6.33695 12.1652 6.44448 12.277 6.57448 12.357C6.70449 12.437 6.85271 12.4826 7.0052 12.4896C7.15769 12.4965 7.30945 12.4646 7.44619 12.3967L13.4962 9.04672C14.1629 8.58005 14.1629 8.08005 13.4962 7.54672L4.09619 2.44672C3.36286 2.24672 2.86286 2.54672 2.59619 3.34672V13.3467C2.86286 14.2801 3.36286 14.5467 4.09619 14.1467L5.59619 13.3467C5.75532 13.2672 5.87633 13.1276 5.93259 12.9589C5.98885 12.7901 5.97576 12.6058 5.89619 12.4467C5.81663 12.2876 5.67711 12.1666 5.50832 12.1103C5.33954 12.0541 5.15532 12.0672 4.99619 12.1467Z" fill="#00AECD"/>
</svg>
