<svg width="136" height="51" viewBox="0 0 136 51" fill="none" xmlns="http://www.w3.org/2000/svg">
<g clip-path="url(#clip0_2_358)">
<path d="M0.214844 27.3699L1.01366 23.4018L1.81248 23.1251L2.61129 21.8309L3.41011 23.863L4.20893 26.5515L5.00774 27.5382L5.80656 26.7134L6.60538 34.9041L7.40419 36.0979L8.20301 35.1843L9.00183 27.9895L9.80064 22.4284L10.5995 26.1401L11.3983 21.8689L12.1971 22.9216L12.9959 19.2602L13.7947 15.733L14.5935 24.5764L15.3924 25.9764L16.1912 25.1751L16.99 23.6154L17.7888 24.095L18.5876 30.0412L19.3864 31.9202L20.1853 32.7122L20.9841 32.1497L21.7829 31.104L22.5817 33.1474L23.3805 32.6314L24.1793 31.6024L24.9782 34.4403L25.777 31.1509L26.5758 30.6716L27.3746 39.6758L28.1734 40.5033L28.9722 47.1594L29.7711 45.3674L30.5699 46.557L31.3687 45.1828L32.1675 46.1769L32.9663 48.2405L33.7651 44.0232L34.564 50.5479L35.3628 41.7322L36.1616 40.6703L36.9604 39.1414L37.7592 41.5384L38.558 32.9183L39.3569 34.4809L40.1557 30.9929L40.9545 34.4105L41.7533 33.1124L42.5521 29.6397L43.3509 31.7752L44.1498 30.3734L44.9486 31.1964L45.7474 26.8611L46.5462 23.7819L47.345 23.4667L48.1438 28.925L48.9427 21.3898L49.7415 22.509L50.5403 25.7901L51.3391 26.3413L52.1379 28.9985L52.9367 26.9344L53.7356 26.1155L54.5344 30.3327L55.3332 31.5445L56.132 26.5418L56.9308 23.9627L57.7296 21.4551L58.5285 19.8356L59.3273 19.601L60.1261 16.5906L60.9249 21.8565L61.7237 23.7651L62.5225 22.1906L63.3214 19.9868L64.1202 18.3489L64.919 10.778L65.7178 10.9538L66.5166 0.547852L67.3154 7.40296L68.1143 5.37782L68.9131 7.08004L69.7119 9.27891L70.5107 8.65429L71.3095 4.44454L72.1083 7.78738L72.9072 7.74884L73.706 8.82654L74.5048 6.18464L75.3036 9.88269L76.1024 8.70055L76.9012 11.1718L77.7001 12.1644L78.4989 13.3799L79.2977 18.3337L80.0965 16.5489L80.8953 14.6271L81.6941 14.3894L82.493 19.85L83.2918 16.5618L84.0906 15.7191L84.8894 16.0481L85.6882 17.9094L86.487 13.1644L87.2859 13.9977L88.0847 13.7341L88.8835 14.2408L89.6823 17.2618L90.4811 14.5655L91.2799 14.1616L92.0788 15.8472L92.8776 14.737L93.6764 15.2304L94.4752 14.6323L95.274 16.1741L96.0728 17.6881L96.8717 22.7227L97.6705 26.2452L98.4693 23.05L99.2681 23.6916L100.067 23.9394L100.866 20.8898L101.665 23.1841L102.463 21.4142L103.262 22.2808L104.061 17.6664L104.86 17.7107L105.659 18.7067L106.457 18.1992L107.256 17.6272L108.055 19.3879L108.854 17.5499L109.653 21.881L110.452 21.3392L111.25 23.4302L112.049 34.4335L112.848 37.1129L113.647 30.101L114.446 30.1957L115.244 27.3329L116.043 28.9387L116.842 26.471L117.641 25.5027L118.44 35.8539L119.239 37.643L120.037 29.5179L120.836 28.7123L121.635 31.5452L122.434 35.7806L123.233 38.5517L124.031 38.0026L124.83 37.1547L125.629 42.6357L126.428 40.2257L127.227 34.7287L128.025 36.2523L128.824 38.783L129.623 38.7388L130.422 32.4918L131.221 32.7582L132.02 33.4803L132.818 29.7112L133.617 26.1673L134.416 27.6471" stroke="#FF3A33" stroke-width="1.25"/>
</g>
<defs>
<clipPath id="clip0_2_358">
<rect width="135" height="50" fill="white" transform="translate(0.214844 0.547852)"/>
</clipPath>
</defs>
</svg>
