<svg width="136" height="51" viewBox="0 0 136 51" fill="none" xmlns="http://www.w3.org/2000/svg">
<g clip-path="url(#clip0_2_414)">
<path d="M0.214844 29.9231L1.01366 28.7643L1.81248 29.2099L2.61129 24.3402L3.41011 19.3643L4.20893 15.0304L5.00774 8.50725L5.80656 23.292L6.60538 24.8355L7.40419 26.0158L8.20301 29.783L9.00183 28.2548L9.80064 23.7138L10.5995 19.9859L11.3983 25.9602L12.1971 24.5111L12.9959 22.7096L13.7947 24.8484L14.5935 27.9125L15.3924 28.7166L16.1912 31.0106L16.99 31.4904L17.7888 27.9434L18.5876 30.3315L19.3864 33.0432L20.1853 31.1477L20.9841 25.5321L21.7829 22.7968L22.5817 17.5693L23.3805 17.8996L24.1793 18.9407L24.9782 28.0293L25.777 26.1515L26.5758 23.7554L27.3746 22.0568L28.1734 25.3147L28.9722 25.6094L29.7711 19.9783L30.5699 24.7842L31.3687 25.7958L32.1675 26.3033L32.9663 26.3587L33.7651 23.7684L34.564 25.6684L35.3628 24.9228L36.1616 19.0908L36.9604 21.3219L37.7592 27.6773L38.558 27.6401L39.3569 31.2159L40.1557 23.9537L40.9545 28.7124L41.7533 30.0098L42.5521 26.6584L43.3509 28.8731L44.1498 31.339L44.9486 29.6114L45.7474 39.5634L46.5462 32.2348L47.345 30.4172L48.1438 44.5617L48.9427 42.2521L49.7415 46.8932L50.5403 47.8999L51.3391 50.5479L52.1379 41.6558L52.9367 41.1194L53.7356 36.938L54.5344 35.0462L55.3332 40.6848L56.132 36.5647L56.9308 25.942L57.7296 21.9103L58.5285 27.3733L59.3273 30.5792L60.1261 30.6437L60.9249 34.2489L61.7237 39.6462L62.5225 40.3272L63.3214 36.8574L64.1202 35.5074L64.919 31.3018L65.7178 33.85L66.5166 32.0486L67.3154 37.1281L68.1143 35.0383L68.9131 32.3624L69.7119 30.6321L70.5107 32.4819L71.3095 31.1591L72.1083 29.2737L72.9072 32.238L73.706 32.1403L74.5048 32.4122L75.3036 33.7994L76.1024 35.9775L76.9012 39.4637L77.7001 36.9197L78.4989 34.9154L79.2977 35.0249L80.0965 31.9406L80.8953 31.4675L81.6941 30.6773L82.493 32.0451L83.2918 37.2839L84.0906 38.8848L84.8894 36.0228L85.6882 37.8432L86.487 36.7036L87.2859 37.4556L88.0847 38.0862L88.8835 38.9612L89.6823 39.3652L90.4811 37.368L91.2799 35.3672L92.0788 33.245L92.8776 31.8286L93.6764 34.9472L94.4752 36.1487L95.274 35.3844L96.0728 37.799L96.8717 32.9797L97.6705 35.0574L98.4693 37.651L99.2681 38.8296L100.067 39.7863L100.866 35.3062L101.665 35.8475L102.463 21.8597L103.262 22.0833L104.061 19.3181L104.86 17.885L105.659 18.4841L106.457 17.1243L107.256 11.5251L108.055 11.9329L108.854 16.7719L109.653 23.1799L110.452 23.3038L111.25 25.2516L112.049 31.7864L112.848 29.6303L113.647 25.705L114.446 24.423L115.244 10.4281L116.043 9.54018L116.842 5.45957L117.641 9.63402L118.44 18.1722L119.239 14.7818L120.037 9.2162L120.836 4.37017L121.635 3.97746L122.434 6.15753L123.233 10.8506L124.031 10.0792L124.83 8.52933L125.629 13.6796L126.428 13.4969L127.227 4.78977L128.025 8.03532L128.824 15.0809L129.623 14.7765L130.422 11.682L131.221 13.1257L132.02 6.34236L132.818 0.547852L133.617 1.56233L134.416 11.9445" stroke="#32CA5B" stroke-width="1.25"/>
</g>
<defs>
<clipPath id="clip0_2_414">
<rect width="135" height="50" fill="white" transform="translate(0.214844 0.547852)"/>
</clipPath>
</defs>
</svg>
