<svg width="48" height="48" viewBox="0 0 48 48" fill="none" xmlns="http://www.w3.org/2000/svg">
<g clip-path="url(#clip0_3_875)">
<mask id="mask0_3_875" style="mask-type:luminance" maskUnits="userSpaceOnUse" x="0" y="0" width="48" height="48">
<path d="M48 0H0V48H48V0Z" fill="white"/>
</mask>
<g mask="url(#mask0_3_875)">
<path d="M38.2041 0.122449H9.79592C4.45341 0.122449 0.122452 4.45341 0.122452 9.79592V38.2041C0.122452 43.5466 4.45341 47.8775 9.79592 47.8775H38.2041C43.5466 47.8775 47.8776 43.5466 47.8776 38.2041V9.79592C47.8776 4.45341 43.5466 0.122449 38.2041 0.122449Z" fill="url(#paint0_linear_3_875)" stroke="#3F3F3F" stroke-width="0.244898"/>
<mask id="mask1_3_875" style="mask-type:luminance" maskUnits="userSpaceOnUse" x="11" y="10" width="28" height="28">
<path d="M11.7551 13.7143C11.7551 12.0912 13.0708 10.7755 14.6939 10.7755H35.2653C36.8884 10.7755 38.2041 12.0912 38.2041 13.7143V37.2245H14.6939C13.0708 37.2245 11.7551 35.9088 11.7551 34.2857V13.7143Z" fill="white"/>
</mask>
<g mask="url(#mask1_3_875)">
<path d="M11.7551 10.7755H38.2041V28.4082L34.2857 32.3265L29.3878 37.2245H11.7551V10.7755Z" fill="#00D092"/>
<path d="M15.5309 14.8835H17.8254C19.1044 14.8835 19.8567 15.6359 19.8567 16.6797C19.8567 17.385 19.443 17.9116 18.8693 18.1185C19.5746 18.3066 20.0636 18.9179 20.0636 19.7078C20.0636 20.7799 19.2361 21.551 17.9947 21.551H15.5309V14.8835ZM16.6499 17.7048H17.675C18.3333 17.7048 18.7282 17.3286 18.7282 16.7737C18.7282 16.2095 18.3333 15.8427 17.6468 15.8427H16.6499V17.7048ZM16.6499 20.5918H17.7972C18.4743 20.5918 18.9163 20.225 18.9163 19.6326C18.9163 19.0589 18.5308 18.6546 17.8349 18.6546H16.6499V20.5918Z" fill="white"/>
<path d="M19.8755 28.1997L18.8599 28.5194C18.7941 28.1057 18.4461 27.4944 17.5527 27.4944C16.8756 27.4944 16.4054 27.9458 16.4054 28.4536C16.4054 28.8768 16.6687 29.1965 17.186 29.3094L18.1452 29.5069C19.3207 29.742 19.9508 30.4849 19.9508 31.4253C19.9508 32.4598 19.1138 33.4472 17.5903 33.4472C15.8976 33.4472 15.1171 32.3563 15.0136 31.3971L16.0669 31.0962C16.1327 31.7921 16.6311 32.4315 17.5903 32.4315C18.3897 32.4315 18.8035 32.0272 18.8035 31.5099C18.8035 31.0774 18.4837 30.7294 17.9101 30.6072L16.9697 30.4097C15.954 30.2028 15.2769 29.5351 15.2769 28.5383C15.2769 27.4192 16.302 26.4976 17.5433 26.4976C19.1138 26.4976 19.7251 27.4568 19.8755 28.1997Z" fill="white"/>
<path d="M35.2653 15.6735H24.4898C23.9488 15.6735 23.5102 16.112 23.5102 16.6531C23.5102 17.1941 23.9488 17.6327 24.4898 17.6327H35.2653C35.8063 17.6327 36.2449 17.1941 36.2449 16.6531C36.2449 16.112 35.8063 15.6735 35.2653 15.6735Z" fill="white"/>
<path d="M35.2653 19.5918H27.4286C26.8876 19.5918 26.449 20.0304 26.449 20.5714C26.449 21.1124 26.8876 21.551 27.4286 21.551H35.2653C35.8063 21.551 36.2449 21.1124 36.2449 20.5714C36.2449 20.0304 35.8063 19.5918 35.2653 19.5918Z" fill="white"/>
<path d="M38.6123 28.4082L29.3878 37.2637V29.1461C29.3878 28.7386 29.7182 28.4082 30.1257 28.4082H38.6123Z" fill="#006E4D"/>
</g>
</g>
</g>
<defs>
<linearGradient id="paint0_linear_3_875" x1="24" y1="8.61593e-09" x2="24" y2="48" gradientUnits="userSpaceOnUse">
<stop stop-color="#515151" stop-opacity="0.61"/>
<stop offset="1" stop-color="#1B1B1B" stop-opacity="0"/>
</linearGradient>
<clipPath id="clip0_3_875">
<rect width="48" height="48" fill="white"/>
</clipPath>
</defs>
</svg>
