<svg width="9" height="14" viewBox="0 0 9 14" fill="none" xmlns="http://www.w3.org/2000/svg">
<path d="M7.88281 6.60938C8.03516 6.77865 8.11133 6.97331 8.11133 7.19336C8.11133 7.41341 8.03516 7.60807 7.88281 7.77734L3.82031 11.8398C3.65104 11.9922 3.45638 12.0684 3.23633 12.0684C3.01628 12.0684 2.82161 11.9922 2.65234 11.8398C2.5 11.6706 2.42383 11.4759 2.42383 11.2559C2.42383 11.0358 2.5 10.8411 2.65234 10.6719L6.15625 7.19336L2.65234 3.71484C2.5 3.54557 2.42383 3.35091 2.42383 3.13086C2.42383 2.91081 2.5 2.71615 2.65234 2.54688C2.82161 2.39453 3.01628 2.31836 3.23633 2.31836C3.45638 2.31836 3.65104 2.39453 3.82031 2.54688L7.88281 6.60938Z" fill="#334155"/>
</svg>
