<svg width="130" height="48" viewBox="0 0 130 48" fill="none" xmlns="http://www.w3.org/2000/svg">
<g clip-path="url(#clip0_15_15800)">
<path d="M0 37.2319L0.762353 37.6058L1.52471 37.4152L2.28706 38.268L3.04941 38.6164L3.81176 40.2143L4.57412 43.3055L5.33647 42.3475L6.09882 42.761L6.86118 45.8933L7.62353 48L8.38588 44.5263L9.14823 47.3428L9.91059 45.4708L10.6729 44.2817L11.4353 43.995L12.1976 41.5386L12.96 43.1232L13.7224 42.527L14.4847 46.6679L15.2471 46.3428L16.0094 46.0126L16.7718 31.9971L17.5341 32.5302L18.2965 35.4802L19.0588 33.0292L19.8212 30.1616L20.5835 31.7516L21.3459 29.0767L22.1082 28.573L22.8706 30.2766L23.6329 28.7916L24.3953 18.7958L25.1576 19.7384L25.92 13.0737L26.6824 16.7597L27.4447 15.0517L28.2071 12.1834L28.9694 14.6527L29.7318 13.5362L30.4941 13.7228L31.2565 10.1446L32.0188 13.0611L32.7812 10.6261L33.5435 12.2845L34.3059 14.821L35.0682 20.5773L35.8306 19.9175L36.5929 23.9433L37.3553 18.7558L38.1176 20.008L38.88 19.11L39.6424 21.6068L40.4047 19.8132L41.1671 27.3397L41.9294 22.8467L42.6918 10.9243L43.4541 35.8808L44.2165 23.9275L44.9788 20.9846L45.7412 18.3771L46.5035 19.6052L47.2659 20.9157L48.0282 26.9373L48.7906 21.6389L49.5529 18.6772L50.3153 17.9455L51.0776 15.603L51.84 11.1599L52.6024 11.7404L53.3647 12.7476L54.1271 16.5325L54.8894 14.1916L55.6518 20.6559L56.4141 19.0997L57.1765 12.3611L57.9388 7.3546L58.7012 8.38084L59.4635 9.69718L60.2259 10.49L60.9882 10.4108L61.7506 14.8089L62.5129 16.9111L63.2753 18.9392L64.0376 17.0487L64.8 16.5376L65.5624 16.2273L66.3247 13.2992L67.0871 14.5697L67.8494 14.4513L68.6118 15.4845L69.3741 12.165L70.1365 9.91741L70.8988 14.2703L71.6612 11.807L72.4235 14.3902L73.1859 19.9468L73.9482 20.7945L74.7106 22.3231L75.4729 23.198L76.2353 25.6849L76.9976 27.5205L77.76 31.8257L78.5224 26.9393L79.2847 31.7267L80.0471 32.7825L80.8094 26.9639L81.5718 28.8167L82.3341 29.7273L83.0965 32.7999L83.8588 30.2998L84.6212 29.224L85.3835 28.3523L86.1459 26.9773L86.9082 26.6223L87.6706 25.5409L88.4329 17.6866L89.1953 21.333L89.9576 25.2011L90.72 24.3028L91.4824 22.4948L92.2447 24.3359L93.0071 21.9816L93.7694 22.2011L94.5318 23.3785L95.2941 23.7535L96.0565 24.9123L96.8188 27.4656L97.5812 24.4448L98.3435 22.7135L99.1059 22.1734L99.8682 17.0151L100.631 18.5027L101.393 17.7074L102.155 20.0699L102.918 21.588L103.68 21.0727L104.442 20.1186L105.205 16.8625L105.967 15.1833L106.729 14.1274L107.492 9.23737L108.254 13.1272L109.016 17.1972L109.779 14.9821L110.541 15.4042L111.304 16.529L112.066 16.7772L112.828 17.0184L113.591 18.9502L114.353 20.6324L115.115 19.1854L115.878 19.012L116.64 15.0675L117.402 15.3372L118.165 17.4473L118.927 14.6764L119.689 9.80297L120.452 8.5011L121.214 6.10751L121.976 3.54391L122.739 1.23813L123.501 0L124.264 4.09852L125.026 6.53959L125.788 6.36632L126.551 6.51828L127.313 6.62076L128.075 7.34858L128.838 6.28822" stroke="#32CA5B" stroke-width="1.2"/>
</g>
<defs>
<clipPath id="clip0_15_15800">
<rect width="129.6" height="48" fill="white"/>
</clipPath>
</defs>
</svg>
