<svg width="136" height="51" viewBox="0 0 136 51" fill="none" xmlns="http://www.w3.org/2000/svg">
<g clip-path="url(#clip0_16_323)">
<path d="M0.796387 16.2523L1.5952 22.9924L2.39402 27.0902L3.19284 24.1831L3.99165 31.1783L4.79047 50.8467L5.58929 23.8718L6.3881 24.9948L7.18692 32.3148L7.98574 27.6539L8.78455 28.7308L9.58337 31.4185L10.3822 29.8573L11.181 29.7877L11.9798 26.5188L12.7786 27.0889L13.5775 26.2561L14.3763 23.6492L15.1751 26.207L15.9739 30.3128L16.7727 20.2865L17.5715 17.6376L18.3704 36.0944L19.1692 20.7244L19.968 32.519L20.7668 27.5888L21.5656 0.84668L22.3644 22.8334L23.1632 30.6741L23.9621 29.7409L24.7609 24.3723L25.5597 29.7241L26.3585 27.8526L27.1573 19.1426L27.9562 27.8213L28.755 24.2217L29.5538 20.6836L30.3526 23.0792L31.1514 18.8147L31.9502 23.4571L32.7491 29.3387L33.5479 24.3656L34.3467 16.6853L35.1455 11.1434L35.9443 18.0824L36.7431 17.8746L37.542 23.9111L38.3408 19.5337L39.1396 23.1568L39.9384 27.37L40.7372 19.8395L41.536 19.9531L42.3348 23.8731L43.1337 19.7278L43.9325 21.885L44.7313 21.7638L45.5301 26.9349L46.3289 32.006L47.1277 24.8386L47.9266 27.9161L48.7254 25.1299L49.5242 22.2496L50.323 14.1944L51.1218 20.7824L51.9206 18.5384L52.7195 26.8788L53.5183 23.2271L54.3171 22.0335L55.1159 21.651L55.9147 25.0013L56.7135 28.4862L57.5124 23.989L58.3112 28.913L59.11 27.422L59.9088 26.8015L60.7076 32.2242L61.5064 26.427L62.3053 26.0196L63.1041 21.7214L63.9029 25.0392L64.7017 25.607L65.5005 29.7803L66.2993 31.7461L67.0982 23.0292L67.897 30.1386L68.6958 27.6446L69.4946 26.2263L70.2934 18.0397L71.0922 25.3477L71.8911 23.2349L72.6899 33.0902L73.4887 21.1806L74.2875 13.6075L75.0863 28.0485L75.8851 28.3636L76.684 16.1333L77.4828 23.1014L78.2816 24.1029L79.0804 14.2499L79.8792 25.681L80.678 26.7401L81.4769 20.0368L82.2757 26.197L83.0745 21.4116L83.8733 28.5013L84.6721 21.3958L85.4709 24.3021L86.2698 24.6528L87.0686 24.4008L87.8674 27.09L88.6662 27.9139L89.465 25.5871L90.2638 25.7152L91.0627 28.7564L91.8615 25.9122L92.6603 23.7975L93.4591 27.7681L94.2579 28.9674L95.0567 28.093L95.8556 28.6669L96.6544 30.3595L97.4532 29.2727L98.252 28.3117L99.0508 27.859L99.8496 29.8541L100.648 26.0902L101.447 29.5493L102.246 34.3726L103.045 27.488L103.844 33.1489L104.643 33.1106L105.441 27.9688L106.24 29.3808L107.039 28.0362L107.838 27.6504L108.637 26.7032L109.435 29.2525L110.234 29.527L111.033 29.933L111.832 28.9678L112.631 26.4584L113.43 23.5621L114.228 29.7886L115.027 29.417L115.826 30.58L116.625 33.6132L117.424 29.4258L118.222 29.3632L119.021 25.3515L119.82 23.8435L120.619 34.9937L121.418 27.7162L122.217 35.9912L123.015 27.7776L123.814 30.4151L124.613 30.2728L125.412 31.5078L126.211 34.948L127.009 34.2692L127.808 28.6001L128.607 34.2168L129.406 33.0221L130.205 28.4332L131.003 22.9474L131.802 43.6086L132.601 30.3326L133.4 30.7942L134.199 31.9326L134.998 48.9358" stroke="#FF3A33" stroke-width="1.25"/>
</g>
<defs>
<clipPath id="clip0_16_323">
<rect width="135" height="50" fill="white" transform="translate(0.796387 0.84668)"/>
</clipPath>
</defs>
</svg>
