<svg width="36" height="36" viewBox="0 0 36 36" fill="none" xmlns="http://www.w3.org/2000/svg">
<g clip-path="url(#clip0_3_1008)">
<mask id="mask0_3_1008" style="mask-type:luminance" maskUnits="userSpaceOnUse" x="0" y="0" width="36" height="36">
<path d="M36 0H0V36H36V0Z" fill="white"/>
</mask>
<g mask="url(#mask0_3_1008)">
<path d="M3.9766 35.9996H24.7968C25.8884 35.9996 26.7734 35.1147 26.7734 34.023V9.48721C26.7734 8.95599 26.5596 8.44713 26.1801 8.07535L20.827 2.83037C20.4575 2.46838 19.9609 2.26562 19.4437 2.26562H3.9766C2.88495 2.26562 2 3.15058 2 4.24222V34.023C2 35.1147 2.88496 35.9996 3.9766 35.9996Z" fill="#18B284"/>
<path d="M6.34379 33.734H27.164C28.2556 33.734 29.1406 32.849 29.1406 31.7574V7.22159C29.1406 6.69037 28.9268 6.18151 28.5473 5.80973L23.1942 0.564745C22.8247 0.202751 22.3281 0 21.8109 0H6.34379C5.25214 0 4.36719 0.884953 4.36719 1.9766V31.7574C4.36719 32.849 5.25214 33.734 6.34379 33.734Z" fill="#00D092"/>
<path d="M17.0348 5.84375C17.7449 5.84375 18.426 6.12585 18.9281 6.62799C19.4303 7.13013 19.7124 7.81118 19.7124 8.52131C19.7124 9.23144 19.4303 9.91249 18.9281 10.4146C18.426 10.9168 17.7449 11.1989 17.0348 11.1989C16.3247 11.1989 15.6436 10.9168 15.1415 10.4146C14.6393 9.91249 14.3572 9.23144 14.3572 8.52131C14.3572 7.81118 14.6393 7.13013 15.1415 6.62799C15.6436 6.12585 16.3247 5.84375 17.0348 5.84375ZM17.0348 16.554C17.0348 16.554 22.3899 16.554 22.3899 15.2152C22.3899 13.6087 19.7793 11.8683 17.0348 11.8683C14.2903 11.8683 11.6797 13.6087 11.6797 15.2152C11.6797 16.554 17.0348 16.554 17.0348 16.554Z" fill="white"/>
<path d="M9.80469 21.3867H24.4096" stroke="white" stroke-width="0.922414" stroke-linecap="round"/>
<path d="M9.80469 24.4844H24.4096" stroke="white" stroke-width="0.922414" stroke-linecap="round"/>
<path d="M9.80469 27.582H20.5149" stroke="white" stroke-width="0.922414" stroke-linecap="round"/>
<mask id="mask1_3_1008" style="mask-type:alpha" maskUnits="userSpaceOnUse" x="19" y="0" width="11" height="12">
<path d="M23.1955 0.564745L28.5486 5.80973C28.928 6.18151 29.1419 6.69037 29.1419 7.22159V9.29002C29.1419 10.3817 28.2569 11.2666 27.1653 11.2666H21.3672C20.2756 11.2666 19.3906 10.3817 19.3906 9.29003V1.9766C19.3906 0.884954 20.2756 0 21.3672 0H21.8121C22.3294 0 22.826 0.202751 23.1955 0.564745Z" fill="url(#paint0_linear_3_1008)"/>
</mask>
<g mask="url(#mask1_3_1008)">
<path d="M22.6172 0L29.14 6.39101H24.1326C23.2957 6.39101 22.6172 5.71254 22.6172 4.87562V0Z" fill="#B1FFE8"/>
</g>
</g>
</g>
<defs>
<linearGradient id="paint0_linear_3_1008" x1="16.7552" y1="0" x2="16.7552" y2="33.734" gradientUnits="userSpaceOnUse">
<stop stop-color="#7FAEF4"/>
<stop offset="1" stop-color="#497CDC"/>
</linearGradient>
<clipPath id="clip0_3_1008">
<rect width="36" height="36" fill="white"/>
</clipPath>
</defs>
</svg>
