<svg width="136" height="51" viewBox="0 0 136 51" fill="none" xmlns="http://www.w3.org/2000/svg">
<g clip-path="url(#clip0_9_447)">
<path d="M0.214844 45.2487L1.01366 45.0936L1.81248 44.4747L2.61129 45.6239L3.41011 44.9623L4.20893 45.1228L5.00774 42.5716L5.80656 43.0567L6.60538 50.5479L7.40419 47.6269L8.20301 47.3583L9.00183 45.1143L9.80064 45.9174L10.5995 42.0774L11.3983 40.7721L12.1971 39.6036L12.9959 37.8164L13.7947 38.0056L14.5935 36.8623L15.3924 31.7573L16.1912 30.2249L16.99 32.3325L17.7888 34.098L18.5876 34.0589L19.3864 36.6646L20.1853 35.5035L20.9841 35.2668L21.7829 35.3767L22.5817 35.7774L23.3805 36.2893L24.1793 36.6839L24.9782 36.4324L25.777 34.0394L26.5758 35.8932L27.3746 34.7111L28.1734 36.999L28.9722 36.5471L29.7711 35.4514L30.5699 36.5884L31.3687 36.5014L32.1675 38.3732L32.9663 41.6384L33.7651 41.2147L34.564 43.4087L35.3628 40.5095L36.1616 40.3307L36.9604 38.8982L37.7592 35.8375L38.558 34.8524L39.3569 35.1764L40.1557 34.6031L40.9545 35.0282L41.7533 29.8989L42.5521 31.5092L43.3509 31.1513L44.1498 32.5587L44.9486 31.0598L45.7474 25.9414L46.5462 17.9741L47.345 21.1939L48.1438 20.8574L48.9427 21.0045L49.7415 24.1413L50.5403 21.9658L51.3391 18.8565L52.1379 18.5964L52.9367 18.4858L53.7356 20.5016L54.5344 22.127L55.3332 18.4174L56.132 15.1267L56.9308 15.1722L57.7296 2.25565L58.5285 4.05628L59.3273 0.547852L60.1261 3.86554L60.9249 8.24422L61.7237 9.2516L62.5225 6.41223L63.3214 10.0386L64.1202 3.97664L64.919 5.08939L65.7178 7.57091L66.5166 10.64L67.3154 8.48478L68.1143 8.77761L68.9131 8.71296L69.7119 9.46282L70.5107 8.68616L71.3095 10.3793L72.1083 8.01022L72.9072 8.11404L73.706 3.98714L74.5048 5.61641L75.3036 6.41917L76.1024 9.01895L76.9012 13.6782L77.7001 12.3513L78.4989 15.1242L79.2977 16.4643L80.0965 13.03L80.8953 13.177L81.6941 14.2073L82.493 14.4381L83.2918 12.9428L84.0906 13.6299L84.8894 15.8993L85.6882 13.8011L86.487 13.3416L87.2859 13.3404L88.0847 13.615L88.8835 15.818L89.6823 14.6414L90.4811 14.8368L91.2799 15.2468L92.0788 17.1524L92.8776 13.7302L93.6764 13.7208L94.4752 15.9353L95.274 17.2316L96.0728 18.0464L96.8717 19.2678L97.6705 20.2002L98.4693 18.5889L99.2681 20.8781L100.067 19.9204L100.866 21.1505L101.665 19.0694L102.463 19.4302L103.262 18.185L104.061 18.0672L104.86 13.1082L105.659 13.3146L106.457 13.7892L107.256 14.1882L108.055 14.0367L108.854 13.9397L109.653 16.9416L110.452 18.4224L111.25 16.4943L112.049 20.1372L112.848 18.5482L113.647 20.2734L114.446 18.6885L115.244 13.7885L116.043 13.2121L116.842 16.601L117.641 19.3455L118.44 23.0049L119.239 21.3104L120.037 17.4651L120.836 16.793L121.635 20.2002L122.434 22.589L123.233 25.9669L124.031 25.5013L124.83 25.5986L125.629 24.3494L126.428 23.2245L127.227 23.156L128.025 27.118L128.824 31.6117L129.623 27.7553L130.422 24.8219L131.221 25.9938L132.02 21.7284L132.818 18.4634L133.617 20.9484L134.416 20.4914" stroke="#32CA5B" stroke-width="1.25"/>
</g>
<defs>
<clipPath id="clip0_9_447">
<rect width="135" height="50" fill="white" transform="translate(0.214844 0.547852)"/>
</clipPath>
</defs>
</svg>
