<svg width="136" height="51" viewBox="0 0 136 51" fill="none" xmlns="http://www.w3.org/2000/svg">
<g clip-path="url(#clip0_16_367)">
<path d="M0.796387 45.606L1.5905 46.2289L2.38462 47.309L3.17874 43.8634L3.97286 45.2731L4.76697 46.3238L5.56109 48.1905L6.35521 44.786L7.14933 44.7408L7.94345 43.6866L8.73756 41.697L9.53168 42.9603L10.3258 41.2522L11.1199 41.3646L11.914 39.4623L12.7082 40.402L13.5023 39.3834L14.2964 38.8389L15.0905 39.6056L15.8846 39.8783L16.6787 41.378L17.4729 45.9775L18.267 43.825L19.0611 45.0156L19.8552 42.2411L20.6493 45.3436L21.4434 47.6999L22.2376 42.722L23.0317 43.3523L23.8258 45.4444L24.6199 45.2622L25.414 46.6475L26.2082 42.6467L27.0023 41.6779L27.7964 42.7209L28.5905 42.9699L29.3846 44.9818L30.1787 42.6878L30.9729 39.8852L31.767 38.9823L32.5611 41.9529L33.3552 42.4232L34.1493 44.777L34.9434 45.5901L35.7376 43.1957L36.5317 42.6967L37.3258 42.083L38.1199 46.0846L38.914 46.5804L39.7082 50.6807L40.5023 48.7102L41.2964 45.7294L42.0905 45.3427L42.8846 46.2492L43.6787 44.721L44.4729 42.1555L45.267 41.1999L46.0611 39.4051L46.8552 39.1368L47.6493 38.7225L48.4434 39.7838L49.2376 39.9964L50.0317 43.1121L50.8258 45.973L51.6199 45.6359L52.414 43.5031L53.2082 47.4053L54.0023 47.1626L54.7964 46.9726L55.5905 48.1236L56.3846 49.0189L57.1787 50.8467L57.9729 48.5356L58.767 46.5406L59.5611 44.5698L60.3552 46.6892L61.1493 45.0499L61.9434 46.2645L62.7376 47.3018L63.5317 48.3544L64.3258 45.5441L65.1199 47.6319L65.914 47.6417L66.7082 46.4873L67.5023 43.4668L68.2964 42.6335L69.0905 41.5522L69.8846 41.0011L70.6787 43.8614L71.4729 44.638L72.267 43.41L73.0611 40.3408L73.8552 40.2097L74.6493 40.8831L75.4434 37.5667L76.2376 35.768L77.0317 31.3626L77.8258 27.784L78.6199 26.7349L79.414 27.0752L80.2082 28.2074L81.0023 29.0928L81.7964 28.2074L82.5905 28.4312L83.3846 28.3889L84.1787 29.5302L84.9729 29.57L85.767 28.4644L86.5611 21.7063L87.3552 22.8512L88.1493 22.3644L88.9434 21.571L89.7376 19.5254L90.5317 21.5388L91.3258 20.8306L92.1199 19.8872L92.914 19.148L93.7082 19.9142L94.5023 21.198L95.2964 22.4509L96.0905 21.6788L96.8846 22.7874L97.6787 24.4719L98.4729 25.8359L99.267 24.9328L100.061 23.3876L100.855 23.8048L101.649 23.0375L102.443 22.7348L103.238 22.9846L104.032 23.9152L104.826 24.0986L105.62 24.2358L106.414 23.9758L107.208 22.68L108.002 22.4257L108.796 20.3239L109.591 18.4498L110.385 17.9845L111.179 11.5782L111.973 11.9424L112.767 7.92847L113.561 4.77935L114.355 7.67046L115.149 7.07148L115.943 5.83618L116.738 8.19116L117.532 9.40927L118.326 9.03036L119.12 6.83186L119.914 6.19697L120.708 4.15901L121.502 0.84668L122.296 6.11144L123.091 4.89075L123.885 4.97431L124.679 0.885149L125.473 1.56345L126.267 1.25074L127.061 1.93509L127.855 2.8158L128.649 3.30551L129.443 4.84394L130.238 8.00146L131.032 7.26773L131.826 5.86907L132.62 6.92685L133.414 5.07401L134.208 7.60211L135.002 10.0133" stroke="#32CA5B" stroke-width="1.25"/>
</g>
<defs>
<clipPath id="clip0_16_367">
<rect width="135" height="50" fill="white" transform="translate(0.796387 0.84668)"/>
</clipPath>
</defs>
</svg>
