<svg width="19" height="15" viewBox="0 0 19 15" fill="none" xmlns="http://www.w3.org/2000/svg">
<path d="M10.4761 2.16992L9.81982 0.857422C9.76514 0.748047 9.67399 0.693359 9.54639 0.693359C9.43701 0.693359 9.34587 0.748047 9.27295 0.857422L8.6167 2.16992L7.19482 2.38867C7.06722 2.4069 6.98519 2.4707 6.94873 2.58008C6.91227 2.70768 6.93962 2.81706 7.03076 2.9082L8.06982 3.91992L7.82373 5.36914C7.8055 5.49674 7.84196 5.59701 7.93311 5.66992C8.02425 5.74284 8.13363 5.75195 8.26123 5.69727L9.54639 5.01367L10.8315 5.66992C10.9591 5.72461 11.0685 5.71549 11.1597 5.64258C11.2508 5.56966 11.2964 5.4694 11.2964 5.3418L11.0503 3.91992L12.0894 2.9082C12.1805 2.81706 12.1987 2.7168 12.144 2.60742C12.1076 2.47982 12.0256 2.4069 11.8979 2.38867L10.4761 2.16992ZM7.79639 7.69336C7.54118 7.69336 7.33154 7.77539 7.16748 7.93945C7.00342 8.10352 6.92139 8.31315 6.92139 8.56836V13.8184C6.92139 14.0736 7.00342 14.2832 7.16748 14.4473C7.33154 14.6113 7.54118 14.6934 7.79639 14.6934H11.2964C11.5516 14.6934 11.7612 14.6113 11.9253 14.4473C12.0894 14.2832 12.1714 14.0736 12.1714 13.8184V8.56836C12.1714 8.31315 12.0894 8.10352 11.9253 7.93945C11.7612 7.77539 11.5516 7.69336 11.2964 7.69336H7.79639ZM1.67139 9.44336C1.41618 9.44336 1.20654 9.52539 1.04248 9.68945C0.878418 9.85352 0.796387 10.0632 0.796387 10.3184V13.8184C0.796387 14.0736 0.878418 14.2832 1.04248 14.4473C1.20654 14.6113 1.41618 14.6934 1.67139 14.6934H5.17139C5.4266 14.6934 5.63623 14.6113 5.80029 14.4473C5.96436 14.2832 6.04639 14.0736 6.04639 13.8184V10.3184C6.04639 10.0632 5.96436 9.85352 5.80029 9.68945C5.63623 9.52539 5.4266 9.44336 5.17139 9.44336H1.67139ZM13.0464 12.0684V13.8184C13.0464 14.0736 13.1284 14.2832 13.2925 14.4473C13.4565 14.6113 13.6662 14.6934 13.9214 14.6934H17.4214C17.6766 14.6934 17.8862 14.6113 18.0503 14.4473C18.2144 14.2832 18.2964 14.0736 18.2964 13.8184V12.0684C18.2964 11.8132 18.2144 11.6035 18.0503 11.4395C17.8862 11.2754 17.6766 11.1934 17.4214 11.1934H13.9214C13.6662 11.1934 13.4565 11.2754 13.2925 11.4395C13.1284 11.6035 13.0464 11.8132 13.0464 12.0684Z" fill="#35AF00"/>
</svg>
