<svg width="136" height="51" viewBox="0 0 136 51" fill="none" xmlns="http://www.w3.org/2000/svg">
<g clip-path="url(#clip0_2_861)">
<path d="M0.796387 10.6053L1.5952 10.7155L2.39402 10.9362L3.19284 8.12665L3.99165 10.2795L4.79047 15.0091L5.58929 15.2417L6.3881 10.4L7.18692 10.2335L7.98574 10.2246L8.78455 7.95146L9.58337 7.39045L10.3822 5.09595L11.181 0.878956L11.9798 3.44655L12.7786 6.65529L13.5775 8.56912L14.3763 6.80573L15.1751 8.99091L15.9739 10.4877L16.7727 18.9619L17.5715 31.2258L18.3704 29.1997L19.1692 33.2492L19.968 34.9665L20.7668 37.7455L21.5656 38.9486L22.3644 42.8935L23.1632 42.4122L23.9621 43.5707L24.7609 42.7497L25.5597 43.2244L26.3585 39.0995L27.1573 36.1941L27.9562 34.3977L28.755 35.3635L29.5538 33.1331L30.3526 29.7426L31.1514 28.3915L31.9502 26.9267L32.7491 33.7599L33.5479 35.9148L34.3467 34.7147L35.1455 38.0384L35.9443 33.5714L36.7431 35.1195L37.542 30.598L38.3408 34.7212L39.1396 38.4683L39.9384 43.5338L40.7372 44.3853L41.536 38.7134L42.3348 41.1479L43.1337 40.3051L43.9325 42.189L44.7313 39.2711L45.5301 39.2312L46.3289 37.4347L47.1277 37.9095L47.9266 38.5795L48.7254 40.6244L49.5242 39.1193L50.323 44.3174L51.1218 48.348L51.9206 44.52L52.7195 42.555L53.5183 44.5582L54.3171 45.6767L55.1159 42.6382L55.9147 47.906L56.7135 46.6903L57.5124 49.752L58.3112 48.658L59.11 49.0753L59.9088 47.3763L60.7076 50.8467L61.5064 48.1709L62.3053 47.3354L63.1041 47.2011L63.9029 48.1695L64.7017 42.7377L65.5005 45.2259L66.2993 45.8442L67.0982 44.0067L67.897 41.0242L68.6958 41.0126L69.4946 38.311L70.2934 34.7053L71.0922 34.7454L71.8911 36.5593L72.6899 34.7812L73.4887 32.1471L74.2875 37.1876L75.0863 36.1322L75.8851 34.3392L76.684 29.7156L77.4828 32.705L78.2816 30.6784L79.0804 29.8085L79.8792 30.7372L80.678 31.4937L81.4769 31.5389L82.2757 29.937L83.0745 29.3648L83.8733 31.1562L84.6721 33.9335L85.4709 32.6894L86.2698 30.7894L87.0686 28.0536L87.8674 26.8168L88.6662 28.4005L89.465 28.4406L90.2638 28.7689L91.0627 30.2373L91.8615 30.7526L92.6603 29.2255L93.4591 31.3456L94.2579 30.8921L95.0567 29.837L95.8556 33.164L96.6544 32.3273L97.4532 33.444L98.252 35.5708L99.0508 35.9057L99.8496 34.1432L100.648 30.6337L101.447 29.2591L102.246 30.1514L103.045 28.9693L103.844 29.3145L104.643 30.9011L105.441 31.2603L106.24 30.5963L107.039 30.1972L107.838 29.293L108.637 29.3125L109.435 25.6329L110.234 24.9113L111.033 23.2803L111.832 23.8634L112.631 25.9411L113.43 21.0394L114.228 22.189L115.027 25.4671L115.826 25.5903L116.625 25.1123L117.424 26.3611L118.222 26.4406L119.021 27.4515L119.82 24.4811L120.619 23.7515L121.418 17.2457L122.217 15.3438L123.015 17.9918L123.814 18.0788L124.613 17.21L125.412 16.9272L126.211 10.8578L127.009 8.36103L127.808 7.85997L128.607 9.59329L129.406 14.7462L130.205 10.1279L131.003 15.0231L131.802 10.0908L132.601 5.61872L133.4 5.55344L134.199 0.84668L134.998 8.26799" stroke="#32CA5B" stroke-width="1.25"/>
</g>
<defs>
<clipPath id="clip0_2_861">
<rect width="135" height="50" fill="white" transform="translate(0.796387 0.84668)"/>
</clipPath>
</defs>
</svg>
