<svg width="136" height="51" viewBox="0 0 136 51" fill="none" xmlns="http://www.w3.org/2000/svg">
<g clip-path="url(#clip0_2_480)">
<path d="M0.214844 27.678L1.01366 25.0158L1.81248 12.1848L2.61129 16.6344L3.41011 22.4308L4.20893 22.7318L5.00774 20.2712L5.80656 22.0083L6.60538 31.2406L7.40419 33.5706L8.20301 33.926L9.00183 32.9062L9.80064 29.6747L10.5995 27.519L11.3983 26.9838L12.1971 30.1286L12.9959 25.8861L13.7947 26.3011L14.5935 28.4509L15.3924 25.6584L16.1912 23.5945L16.99 25.874L17.7888 24.7373L18.5876 30.9136L19.3864 32.0542L20.1853 38.1205L20.9841 37.3401L21.7829 36.063L22.5817 36.6765L23.3805 36.9834L24.1793 36.1834L24.9782 37.067L25.777 37.4453L26.5758 27.8034L27.3746 25.6492L28.1734 22.4224L28.9722 14.0613L29.7711 21.6922L30.5699 23.0743L31.3687 23.4362L32.1675 28.9435L32.9663 35.9868L33.7651 33.8822L34.564 37.2673L35.3628 32.1074L36.1616 33.1376L36.9604 33.1984L37.7592 33.8443L38.558 23.6273L39.3569 18.1269L40.1557 28.6232L40.9545 27.2013L41.7533 24.2565L42.5521 25.5755L43.3509 23.713L44.1498 26.0454L44.9486 21.834L45.7474 24.4556L46.5462 17.1866L47.345 21.0369L48.1438 22.1404L48.9427 22.3851L49.7415 29.8355L50.5403 31.7258L51.3391 27.0131L52.1379 25.3569L52.9367 18.7292L53.7356 19.0486L54.5344 19.9115L55.3332 23.6911L56.132 15.0926L56.9308 7.50305L57.7296 7.35548L58.5285 7.47609L59.3273 7.66307L60.1261 0.547852L60.9249 10.967L61.7237 16.2961L62.5225 15.284L63.3214 12.5967L64.1202 12.8362L64.919 5.40463L65.7178 10.2127L66.5166 7.57978L67.3154 16.523L68.1143 11.3152L68.9131 13.8931L69.7119 16.3399L70.5107 17.8797L71.3095 16.3741L72.1083 17.3483L72.9072 14.8223L73.706 16.2355L74.5048 10.3045L75.3036 14.1589L76.1024 17.772L76.9012 29.0327L77.7001 31.0066L78.4989 33.707L79.2977 36.1042L80.0965 32.6458L80.8953 29.7017L81.6941 30.9016L82.493 36.3522L83.2918 33.923L84.0906 34.016L84.8894 34.1004L85.6882 37.0333L86.487 35.7386L87.2859 37.0481L88.0847 36.7405L88.8835 36.8752L89.6823 38.485L90.4811 39.0623L91.2799 37.5416L92.0788 40.8423L92.8776 39.7349L93.6764 40.4263L94.4752 39.9784L95.274 42.3839L96.0728 45.0073L96.8717 47.9215L97.6705 49.5132L98.4693 49.2951L99.2681 48.7627L100.067 47.7658L100.866 46.8973L101.665 50.5479L102.463 45.6112L103.262 46.1439L104.061 38.1032L104.86 19.8047L105.659 15.9307L106.457 4.49537L107.256 6.99426L108.055 11.8327L108.854 13.7313L109.653 20.7616L110.452 18.6003L111.25 16.7982L112.049 24.8959L112.848 24.4394L113.647 26.5583L114.446 23.3533L115.244 18.7363L116.043 20.8118L116.842 15.5194L117.641 17.7008L118.44 28.6051L119.239 31.2221L120.037 23.7018L120.836 17.1833L121.635 19.3573L122.434 21.6049L123.233 25.6901L124.031 16.5419L124.83 17.926L125.629 17.9092L126.428 21.6558L127.227 20.3183L128.025 23.6406L128.824 30.9932L129.623 26.0987L130.422 22.1235L131.221 26.1901L132.02 28.0472L132.818 22.9539L133.617 23.0404L134.416 25.521" stroke="#32CA5B" stroke-width="1.25"/>
</g>
<defs>
<clipPath id="clip0_2_480">
<rect width="135" height="50" fill="white" transform="translate(0.214844 0.547852)"/>
</clipPath>
</defs>
</svg>
