<svg width="16" height="14" viewBox="0 0 16 14" fill="none" xmlns="http://www.w3.org/2000/svg">
<path d="M8.84795 1.1501C8.69561 0.862338 8.45016 0.709994 8.11162 0.693067C7.79001 0.709994 7.54456 0.862338 7.37529 1.1501L5.75029 4.50166L2.09404 5.06025C1.77243 5.11104 1.56084 5.28877 1.45928 5.59346C1.35771 5.91507 1.42542 6.19437 1.6624 6.43135L4.30303 9.04658L3.66826 12.7536C3.63441 13.0752 3.74443 13.3376 3.99834 13.5407C4.26917 13.7269 4.55693 13.7438 4.86162 13.5915L8.11162 11.8649L11.387 13.5915C11.6748 13.7438 11.9541 13.7269 12.2249 13.5407C12.4957 13.3376 12.6058 13.0752 12.555 12.7536L11.9456 9.04658L14.5862 6.43135C14.8063 6.19437 14.874 5.91507 14.7894 5.59346C14.6709 5.28877 14.4508 5.11104 14.1292 5.06025L10.4729 4.50166L8.84795 1.1501Z" fill="#EAB308"/>
</svg>
