<svg width="136" height="51" viewBox="0 0 136 51" fill="none" xmlns="http://www.w3.org/2000/svg">
<g clip-path="url(#clip0_2_855)">
<path d="M0.796387 5.73854L1.5952 8.04074L2.39402 8.01074L3.19284 6.21178L3.99165 4.75865L4.79047 10.3092L5.58929 12.0113L6.3881 8.02292L7.18692 7.04278L7.98574 6.02614L8.78455 3.24057L9.58337 3.04376L10.3822 4.70326L11.181 1.59454L11.9798 0.84668L12.7786 2.02654L13.5775 2.69346L14.3763 0.958763L15.1751 3.02277L15.9739 4.22391L16.7727 12.2544L17.5715 17.7283L18.3704 18.7513L19.1692 21.5619L19.968 26.3524L20.7668 30.1939L21.5656 34.358L22.3644 31.5236L23.1632 33.0621L23.9621 34.2054L24.7609 33.9181L25.5597 32.9729L26.3585 29.6634L27.1573 30.4383L27.9562 29.3957L28.755 32.4309L29.5538 31.7588L30.3526 26.0514L31.1514 27.4418L31.9502 27.4156L32.7491 34.598L33.5479 35.1251L34.3467 33.2631L35.1455 36.6411L35.9443 31.1558L36.7431 32.028L37.542 29.7221L38.3408 34.5455L39.1396 34.2524L39.9384 42.0181L40.7372 40.5533L41.536 38.255L42.3348 36.9964L43.1337 37.5011L43.9325 38.8098L44.7313 37.4364L45.5301 35.5454L46.3289 33.102L47.1277 33.2146L47.9266 33.3549L48.7254 35.3872L49.5242 35.3123L50.323 41.4724L51.1218 46.1773L51.9206 39.9476L52.7195 38.069L53.5183 43.9456L54.3171 42.198L55.1159 42.8481L55.9147 47.6201L56.7135 45.1826L57.5124 50.8467L58.3112 46.1531L59.11 45.9464L59.9088 42.3159L60.7076 44.4373L61.5064 43.2819L62.3053 41.8169L63.1041 42.0656L63.9029 43.8699L64.7017 39.7436L65.5005 39.6966L66.2993 41.1142L67.0982 40.1427L67.897 37.6882L68.6958 38.546L69.4946 37.8158L70.2934 37.8056L71.0922 36.4236L71.8911 37.703L72.6899 35.9428L73.4887 37.2864L74.2875 37.3855L75.0863 39.9368L75.8851 37.0978L76.684 32.7106L77.4828 34.1307L78.2816 31.7897L79.0804 30.9209L79.8792 31.6485L80.678 31.5396L81.4769 32.7422L82.2757 31.2729L83.0745 31.2848L83.8733 31.2699L84.6721 33.3014L85.4709 34.3428L86.2698 31.9944L87.0686 29.9988L87.8674 29.6824L88.6662 30.9674L89.465 31.3594L90.2638 30.5621L91.0627 31.4853L91.8615 31.7629L92.6603 30.7446L93.4591 32.6307L94.2579 32.7459L95.0567 32.5196L95.8556 37.1975L96.6544 36.6881L97.4532 37.9019L98.252 38.7637L99.0508 39.5878L99.8496 37.7439L100.648 34.7059L101.447 34.8091L102.246 35.003L103.045 31.976L103.844 33.2928L104.643 34.8678L105.441 35.5255L106.24 34.8284L107.039 34.2221L107.838 32.7722L108.637 33.0157L109.435 31.7649L110.234 31.7971L111.033 30.6956L111.832 29.3101L112.631 29.8482L113.43 27.2996L114.228 25.3493L115.027 27.622L115.826 29.4958L116.625 26.9654L117.424 28.1498L118.222 26.9982L119.021 29.6076L119.82 27.1169L120.619 26.0653L121.418 20.3552L122.217 14.713L123.015 16.3825L123.814 15.0758L124.613 14.2742L125.412 16.1919L126.211 14.0717L127.009 13.6666L127.808 16.811L128.607 20.9586L129.406 24.8868L130.205 24.2955L131.003 25.5419L131.802 21.4412L132.601 18.9887L133.4 22.1122L134.199 19.2925L134.998 24.793" stroke="#FF3A33" stroke-width="1.25"/>
</g>
<defs>
<clipPath id="clip0_2_855">
<rect width="135" height="50" fill="white" transform="translate(0.796387 0.84668)"/>
</clipPath>
</defs>
</svg>
