<svg width="136" height="51" viewBox="0 0 136 51" fill="none" xmlns="http://www.w3.org/2000/svg">
<g clip-path="url(#clip0_16_311)">
<path d="M0.796387 1.61273L1.5952 2.2408L2.39402 3.52206L3.19284 2.90951L3.99165 3.3849L4.79047 5.20658L5.58929 9.3601L6.3881 6.40355L7.18692 5.98949L7.98574 4.24026L8.78455 4.38868L9.58337 4.80484L10.3822 4.34002L11.181 2.42961L11.9798 1.98613L12.7786 2.18022L13.5775 2.62096L14.3763 0.84668L15.1751 2.67594L15.9739 4.56395L16.7727 8.47697L17.5715 18.2301L18.3704 18.5297L19.1692 19.5728L19.968 24.0631L20.7668 20.8782L21.5656 27.8793L22.3644 30.2519L23.1632 27.6247L23.9621 29.2655L24.7609 28.8487L25.5597 28.9074L26.3585 24.9199L27.1573 23.8672L27.9562 23.8912L28.755 24.4186L29.5538 25.7061L30.3526 25.5031L31.1514 25.7766L31.9502 26.1296L32.7491 31.6595L33.5479 30.6113L34.3467 30.3868L35.1455 33.1773L35.9443 31.9385L36.7431 34.4048L37.542 32.1779L38.3408 32.739L39.1396 32.1587L39.9384 38.7725L40.7372 36.5271L41.536 34.8087L42.3348 41.0419L43.1337 39.1179L43.9325 41.8571L44.7313 40.9391L45.5301 40.3982L46.3289 41.1725L47.1277 40.0457L47.9266 40.5245L48.7254 42.3518L49.5242 41.2794L50.323 45.8962L51.1218 49.0248L51.9206 46.8465L52.7195 45.5769L53.5183 48.5263L54.3171 47.7741L55.1159 47.5848L55.9147 48.6831L56.7135 47.09L57.5124 50.8467L58.3112 45.7348L59.11 44.8435L59.9088 42.3727L60.7076 46.2821L61.5064 44.0569L62.3053 43.9698L63.1041 42.2902L63.9029 44.7329L64.7017 40.9127L65.5005 41.1063L66.2993 42.4016L67.0982 40.8558L67.897 39.9346L68.6958 41.5847L69.4946 41.6995L70.2934 41.9638L71.0922 42.0692L71.8911 41.3949L72.6899 41.5474L73.4887 41.086L74.2875 42.359L75.0863 43.0579L75.8851 41.1199L76.684 39.4348L77.4828 40.4153L78.2816 38.0697L79.0804 37.4984L79.8792 36.9668L80.678 37.6938L81.4769 37.0396L82.2757 36.3898L83.0745 35.4762L83.8733 36.0415L84.6721 36.1272L85.4709 35.5774L86.2698 35.6843L87.0686 34.9918L87.8674 34.9695L88.6662 34.9781L89.465 33.5608L90.2638 34.3331L91.0627 34.2638L91.8615 35.4538L92.6603 35.1925L93.4591 37.4986L94.2579 37.411L95.0567 36.6597L95.8556 38.332L96.6544 36.543L97.4532 37.5366L98.252 38.4996L99.0508 39.6328L99.8496 36.9977L100.648 35.8349L101.447 36.1209L102.246 36.1892L103.045 34.8138L103.844 35.3155L104.643 36.6601L105.441 36.6468L106.24 36.1842L107.039 36.2151L107.838 36.2593L108.637 36.5979L109.435 35.6106L110.234 35.4463L111.033 34.7255L111.832 33.0669L112.631 34.5456L113.43 31.9378L114.228 31.8605L115.027 33.275L115.826 33.5638L116.625 33.87L117.424 36.0895L118.222 35.9123L119.021 37.5136L119.82 36.4833L120.619 34.5032L121.418 31.3503L122.217 31.7377L123.015 31.9486L123.814 32.0748L124.613 33.1778L125.412 32.4007L126.211 31.7494L127.009 32.8288L127.808 33.2545L128.607 34.049L129.406 36.2779L130.205 35.7498L131.003 36.9523L131.802 34.3522L132.601 33.53L133.4 36.2314L134.199 34.8874L134.998 40.3026" stroke="#FF3A33" stroke-width="1.25"/>
</g>
<defs>
<clipPath id="clip0_16_311">
<rect width="135" height="50" fill="white" transform="translate(0.796387 0.84668)"/>
</clipPath>
</defs>
</svg>
