<svg width="136" height="51" viewBox="0 0 136 51" fill="none" xmlns="http://www.w3.org/2000/svg">
<g clip-path="url(#clip0_2_785)">
<path d="M0.796387 7.62087L1.5952 7.76563L2.39402 7.78507L3.19284 6.7368L3.99165 7.62976L4.79047 9.99561L5.58929 11.4072L6.3881 7.84136L7.18692 7.71632L7.98574 6.43647L8.78455 4.27378L9.58337 3.58124L10.3822 3.13635L11.181 0.84668L11.9798 1.01031L12.7786 2.44295L13.5775 2.81407L14.3763 1.44981L15.1751 2.80283L15.9739 5.31245L16.7727 9.46625L17.5715 20.0633L18.3704 22.8207L19.1692 25.1573L19.968 28.2717L20.7668 30.7509L21.5656 33.4216L22.3644 33.589L23.1632 33.8671L23.9621 34.0458L24.7609 33.2257L25.5597 31.479L26.3585 29.5537L27.1573 28.4667L27.9562 29.8801L28.755 29.1753L29.5538 30.0197L30.3526 27.3995L31.1514 28.6282L31.9502 27.8033L32.7491 33.384L33.5479 33.6805L34.3467 34.7538L35.1455 36.1117L35.9443 35.076L36.7431 39.0867L37.542 36.1897L38.3408 39.7318L39.1396 40.8958L39.9384 47.7339L40.7372 45.4077L41.536 46.1855L42.3348 46.2669L43.1337 44.5303L43.9325 44.0941L44.7313 40.9622L45.5301 41.7579L46.3289 41.6563L47.1277 40.5397L47.9266 39.458L48.7254 41.972L49.5242 41.4491L50.323 44.8286L51.1218 49.6399L51.9206 45.2822L52.7195 44.5925L53.5183 46.9292L54.3171 46.4384L55.1159 47.6062L55.9147 50.8467L56.7135 47.6462L57.5124 49.5736L58.3112 47.0541L59.11 46.9852L59.9088 44.5492L60.7076 46.4701L61.5064 44.6941L62.3053 44.2719L63.1041 43.7348L63.9029 45.2451L64.7017 40.9277L65.5005 42.4002L66.2993 41.5524L67.0982 40.7516L67.897 36.9833L68.6958 37.0924L69.4946 35.7216L70.2934 35.0471L71.0922 34.9274L71.8911 35.0781L72.6899 35.5369L73.4887 33.2926L74.2875 35.1589L75.0863 33.4081L75.8851 30.2278L76.684 29.1208L77.4828 32.1871L78.2816 30.8983L79.0804 30.7325L79.8792 31.0798L80.678 32.5015L81.4769 32.5104L82.2757 32.1033L83.0745 31.1992L83.8733 31.7055L84.6721 33.9258L85.4709 33.3317L86.2698 31.303L87.0686 29.4846L87.8674 28.1664L88.6662 28.2811L89.465 26.8051L90.2638 24.6773L91.0627 26.1509L91.8615 26.1792L92.6603 25.1225L93.4591 26.8839L94.2579 26.4817L95.0567 25.1252L95.8556 27.462L96.6544 27.9623L97.4532 28.5699L98.252 31.0725L99.0508 32.0841L99.8496 28.9713L100.648 28.0335L101.447 27.4436L102.246 28.9876L103.045 26.6863L103.844 27.6062L104.643 26.9574L105.441 26.2495L106.24 26.0883L107.039 24.6755L107.838 25.6741L108.637 26.863L109.435 26.871L110.234 27.9179L111.033 27.7055L111.832 27.5393L112.631 28.7723L113.43 25.944L114.228 26.3458L115.027 28.6103L115.826 27.9705L116.625 26.1922L117.424 28.8371L118.222 27.0327L119.021 29.4547L119.82 28.5564L120.619 27.2527L121.418 21.9895L122.217 18.8338L123.015 19.3337L123.814 17.3269L124.613 17.1779L125.412 19.2372L126.211 17.8275L127.009 18.9701L127.808 21.3554L128.607 24.7087L129.406 25.1236L130.205 23.6297L131.003 24.8927L131.802 18.7417L132.601 19.8553L133.4 19.962L134.199 20.1006L134.998 28.2231" stroke="#FF3A33" stroke-width="1.25"/>
</g>
<defs>
<clipPath id="clip0_2_785">
<rect width="135" height="50" fill="white" transform="translate(0.796387 0.84668)"/>
</clipPath>
</defs>
</svg>
