<svg width="136" height="51" viewBox="0 0 136 51" fill="none" xmlns="http://www.w3.org/2000/svg">
<g clip-path="url(#clip0_2_915)">
<path d="M0.796387 8.83961L1.5952 6.71296L2.39402 6.4019L3.19284 7.25037L3.99165 5.22078L4.79047 10.2623L5.58929 8.22429L6.3881 5.98652L7.18692 9.21261L7.98574 6.87655L8.78455 5.03937L9.58337 2.16756L10.3822 1.04908L11.181 1.29082L11.9798 2.43305L12.7786 0.923901L13.5775 0.84668L14.3763 1.36052L15.1751 2.37044L15.9739 8.42136L16.7727 8.89869L17.5715 6.83691L18.3704 13.6039L19.1692 18.6813L19.968 21.4727L20.7668 28.1683L21.5656 31.3801L22.3644 28.7664L23.1632 31.8095L23.9621 29.1206L24.7609 27.5448L25.5597 24.475L26.3585 24.6325L27.1573 25.9897L27.9562 25.3869L28.755 24.9843L29.5538 24.934L30.3526 20.707L31.1514 21.0738L31.9502 25.1532L32.7491 27.5791L33.5479 25.1037L34.3467 24.9768L35.1455 28.0564L35.9443 22.5183L36.7431 20.9159L37.542 21.4758L38.3408 22.56L39.1396 31.0646L39.9384 35.2952L40.7372 33.2232L41.536 35.3483L42.3348 37.7255L43.1337 32.9078L43.9325 34.0315L44.7313 32.8487L45.5301 34.3196L46.3289 36.4993L47.1277 33.6059L47.9266 34.9887L48.7254 36.0203L49.5242 37.9909L50.323 39.116L51.1218 38.9558L51.9206 37.1558L52.7195 37.4902L53.5183 38.309L54.3171 39.4004L55.1159 42.4164L55.9147 50.8467L56.7135 50.0449L57.5124 47.3288L58.3112 46.042L59.11 45.2462L59.9088 43.9474L60.7076 42.1557L61.5064 40.4872L62.3053 39.855L63.1041 39.5436L63.9029 39.0923L64.7017 36.2251L65.5005 36.1241L66.2993 35.4088L67.0982 35.402L67.897 35.9033L68.6958 33.4693L69.4946 33.4684L70.2934 33.0552L71.0922 32.6031L71.8911 33.4337L72.6899 33.6025L73.4887 29.2437L74.2875 27.9832L75.0863 29.5296L75.8851 28.5263L76.684 27.0337L77.4828 29.0765L78.2816 27.7179L79.0804 24.9694L79.8792 25.366L80.678 26.2641L81.4769 25.6807L82.2757 25.5096L83.0745 26.3345L83.8733 27.6461L84.6721 25.9622L85.4709 24.5512L86.2698 25.8836L87.0686 24.4978L87.8674 26.4595L88.6662 28.2684L89.465 26.8344L90.2638 26.6358L91.0627 26.623L91.8615 26.246L92.6603 26.4898L93.4591 28.626L94.2579 26.0633L95.0567 26.0468L95.8556 26.4782L96.6544 25.6874L97.4532 25.7974L98.252 29.1288L99.0508 27.6685L99.8496 21.8006L100.648 23.7635L101.447 26.4617L102.246 25.2556L103.045 26.0827L103.844 25.8034L104.643 24.3021L105.441 23.1309L106.24 21.7756L107.039 23.4442L107.838 22.7268L108.637 21.8299L109.435 22.7914L110.234 21.3341L111.033 20.4276L111.832 18.4152L112.631 17.8184L113.43 15.6019L114.228 15.2244L115.027 15.6368L115.826 14.9544L116.625 16.1583L117.424 15.8515L118.222 16.3657L119.021 14.8669L119.82 15.4659L120.619 14.1455L121.418 14.356L122.217 12.7678L123.015 17.2478L123.814 12.4295L124.613 12.6237L125.412 11.6361L126.211 13.6608L127.009 11.4697L127.808 13.4936L128.607 14.9323L129.406 15.0939L130.205 13.4992L131.003 12.0221L131.802 10.3721L132.601 10.1805L133.4 5.92093L134.199 8.07513L134.998 16.7927" stroke="#FF3A33" stroke-width="1.25"/>
</g>
<defs>
<clipPath id="clip0_2_915">
<rect width="135" height="50" fill="white" transform="translate(0.796387 0.84668)"/>
</clipPath>
</defs>
</svg>
