<svg width="16" height="14" viewBox="0 0 16 14" fill="none" xmlns="http://www.w3.org/2000/svg">
<path d="M8.66836 0.492285C8.5043 0.18239 8.23997 0.0183272 7.87539 9.799e-05C7.52904 0.0183272 7.26471 0.18239 7.08242 0.492285L5.33242 4.10166L1.39492 4.70322C1.04857 4.75791 0.820703 4.94932 0.711328 5.27744C0.601953 5.6238 0.67487 5.92458 0.930078 6.17979L3.77383 8.99619L3.09023 12.9884C3.05378 13.3347 3.17227 13.6173 3.4457 13.836C3.73737 14.0366 4.04727 14.0548 4.37539 13.8907L7.87539 12.0313L11.4027 13.8907C11.7126 14.0548 12.0134 14.0366 12.3051 13.836C12.5967 13.6173 12.7152 13.3347 12.6605 12.9884L12.0043 8.99619L14.848 6.17979C15.085 5.92458 15.1579 5.6238 15.0668 5.27744C14.9392 4.94932 14.7022 4.75791 14.3559 4.70322L10.4184 4.10166L8.66836 0.492285Z" fill="#EAB308"/>
</svg>
