<svg width="136" height="51" viewBox="0 0 136 51" fill="none" xmlns="http://www.w3.org/2000/svg">
<g clip-path="url(#clip0_9_411)">
<path d="M0.214844 22.3056L1.01366 20.6414L1.81248 17.9884L2.61129 14.7464L3.41011 18.5509L4.20893 15.5907L5.00774 13.838L5.80656 15.4887L6.60538 22.0323L7.40419 23.3256L8.20301 24.1389L9.00183 23.5349L9.80064 22.8253L10.5995 21.2786L11.3983 18.1185L12.1971 19.0585L12.9959 16.9914L13.7947 15.5981L14.5935 18.8131L15.3924 14.8948L16.1912 16.9858L16.99 15.2847L17.7888 12.41L18.5876 13.3714L19.3864 16.4259L20.1853 20.849L20.9841 16.569L21.7829 11.3395L22.5817 6.01963L23.3805 8.51786L24.1793 3.6638L24.9782 6.33115L25.777 4.84977L26.5758 4.02446L27.3746 7.16317L28.1734 10.1493L28.9722 11.3875L29.7711 11.2152L30.5699 15.185L31.3687 13.4486L32.1675 15.8229L32.9663 15.8754L33.7651 16.1839L34.564 19.4153L35.3628 13.7346L36.1616 15.7164L36.9604 14.7772L37.7592 14.0478L38.558 7.63152L39.3569 5.65166L40.1557 4.75033L40.9545 6.5072L41.7533 4.54414L42.5521 4.08433L43.3509 3.92454L44.1498 2.51177L44.9486 2.04542L45.7474 3.91337L46.5462 6.96859L47.345 5.45491L48.1438 8.12837L48.9427 6.1769L49.7415 4.78812L50.5403 11.6632L51.3391 11.298L52.1379 12.0287L52.9367 6.94939L53.7356 8.70527L54.5344 10.6199L55.3332 11.8539L56.132 4.04107L56.9308 3.13375L57.7296 3.94345L58.5285 5.2683L59.3273 0.67384L60.1261 0.547852L60.9249 3.29646L61.7237 10.7559L62.5225 8.10671L63.3214 7.3799L64.1202 7.38545L64.919 3.20665L65.7178 1.88416L66.5166 0.73531L67.3154 6.11038L68.1143 5.57134L68.9131 14.3159L69.7119 14.2421L70.5107 14.5598L71.3095 11.9621L72.1083 12.3949L72.9072 10.9158L73.706 11.7016L74.5048 7.77658L75.3036 8.94007L76.1024 8.06915L76.9012 12.2282L77.7001 13.8085L78.4989 17.3139L79.2977 21.1027L80.0965 17.1001L80.8953 17.1634L81.6941 18.72L82.493 21.237L83.2918 24.2854L84.0906 20.7432L84.8894 23.0326L85.6882 25.2208L86.487 24.3588L87.2859 25.0288L88.0847 22.9877L88.8835 24.8056L89.6823 24.9271L90.4811 22.2333L91.2799 22.0356L92.0788 24.0007L92.8776 22.6209L93.6764 22.237L94.4752 23.271L95.274 27.5479L96.0728 27.8013L96.8717 29.9287L97.6705 32.9047L98.4693 31.8093L99.2681 31.7978L100.067 30.6969L100.866 31.4702L101.665 34.3629L102.463 32.2049L103.262 32.8566L104.061 29.4676L104.86 29.4874L105.659 30.1665L106.457 29.5843L107.256 23.5347L108.055 24.8748L108.854 25.984L109.653 26.9394L110.452 30.034L111.25 29.4518L112.049 35.4608L112.848 38.4948L113.647 37.7804L114.446 37.704L115.244 34.8384L116.043 38.0294L116.842 36.3225L117.641 38.9387L118.44 43.0787L119.239 37.2031L120.037 34.2988L120.836 33.8494L121.635 39.3477L122.434 38.5733L123.233 42.8848L124.031 43.5236L124.83 44.5658L125.629 41.5184L126.428 38.6953L127.227 38.0316L128.025 41.968L128.824 44.2617L129.623 48.1771L130.422 50.0565L131.221 50.5479L132.02 44.8973L132.818 43.7427L133.617 44.8617L134.416 44.2759" stroke="#FF3A33" stroke-width="1.25"/>
</g>
<defs>
<clipPath id="clip0_9_411">
<rect width="135" height="50" fill="white" transform="translate(0.214844 0.547852)"/>
</clipPath>
</defs>
</svg>
