<svg width="15" height="14" viewBox="0 0 15 14" fill="none" xmlns="http://www.w3.org/2000/svg">
<path d="M8.26616 0.85127C8.11382 0.563509 7.86838 0.411165 7.52983 0.394238C7.20822 0.411165 6.96278 0.563509 6.79351 0.85127L5.16851 4.20283L1.51226 4.76143C1.19064 4.81221 0.979053 4.98994 0.87749 5.29463C0.775928 5.61624 0.843636 5.89554 1.08062 6.13252L3.72124 8.74775L3.08647 12.4548C3.05262 12.7764 3.16265 13.0388 3.41655 13.2419C3.68739 13.4281 3.97515 13.445 4.27983 13.2927L7.52983 11.5661L10.8052 13.2927C11.093 13.445 11.3723 13.4281 11.6431 13.2419C11.9139 13.0388 12.024 12.7764 11.9732 12.4548L11.3638 8.74775L14.0044 6.13252C14.2245 5.89554 14.2922 5.61624 14.2076 5.29463C14.0891 4.98994 13.869 4.81221 13.5474 4.76143L9.89116 4.20283L8.26616 0.85127Z" fill="#EAB308"/>
</svg>
