<svg width="136" height="51" viewBox="0 0 136 51" fill="none" xmlns="http://www.w3.org/2000/svg">
<g clip-path="url(#clip0_2_538)">
<path d="M0.214844 45.1623L1.01366 39.9585L1.81248 38.3605L2.61129 38.242L3.41011 35.0375L4.20893 33.6676L5.00774 29.327L5.80656 29.4872L6.60538 37.06L7.40419 38.5793L8.20301 41.3737L9.00183 41.2195L9.80064 36.6672L10.5995 39.5846L11.3983 34.552L12.1971 31.3452L12.9959 32.2599L13.7947 28.6647L14.5935 28.6929L15.3924 24.8838L16.1912 18.8985L16.99 23.3023L17.7888 22.078L18.5876 25.7303L19.3864 20.7535L20.1853 29.061L20.9841 20.8934L21.7829 20.7778L22.5817 25.6516L23.3805 24.7369L24.1793 20.9382L24.9782 20.8162L25.777 22.6657L26.5758 19.9827L27.3746 24.6328L28.1734 24.6646L28.9722 28.9943L29.7711 25.5969L30.5699 25.6881L31.3687 22.0833L32.1675 27.2933L32.9663 28.703L33.7651 31.6695L34.564 35.6007L35.3628 34.7L36.1616 31.5635L36.9604 31.2569L37.7592 30.6816L38.558 24.0407L39.3569 21.9512L40.1557 21.6335L40.9545 23.2379L41.7533 23.2092L42.5521 19.1859L43.3509 20.557L44.1498 17.98L44.9486 14.6315L45.7474 10.7637L46.5462 7.5187L47.345 12.233L48.1438 16.5985L48.9427 14.3283L49.7415 19.6573L50.5403 18.0425L51.3391 13.6978L52.1379 15.8505L52.9367 12.5552L53.7356 8.25023L54.5344 10.2752L55.3332 13.1332L56.132 7.24049L56.9308 3.29992L57.7296 0.547852L58.5285 3.2824L59.3273 3.51393L60.1261 1.85337L60.9249 7.33323L61.7237 10.4611L62.5225 6.72405L63.3214 5.43874L64.1202 5.64133L64.919 1.88422L65.7178 4.11728L66.5166 2.60171L67.3154 9.14746L68.1143 7.76897L68.9131 11.8147L69.7119 8.73658L70.5107 8.86681L71.3095 4.31963L72.1083 7.94734L72.9072 8.14661L73.706 8.20968L74.5048 5.35374L75.3036 8.12796L76.1024 7.48254L76.9012 10.6972L77.7001 14.9568L78.4989 19.5934L79.2977 24.5126L80.0965 21.3338L80.8953 18.6475L81.6941 21.8151L82.493 24.6815L83.2918 22.934L84.0906 20.2205L84.8894 21.2182L85.6882 21.4214L86.487 19.2894L87.2859 18.8195L88.0847 18.9908L88.8835 20.9288L89.6823 20.2489L90.4811 19.6466L91.2799 17.4444L92.0788 22.3593L92.8776 21.8198L93.6764 21.614L94.4752 16.8764L95.274 18.4242L96.0728 19.1635L96.8717 21.8657L97.6705 24.3215L98.4693 24.5841L99.2681 21.9736L100.067 25.6668L100.866 24.3102L101.665 27.3884L102.463 21.1055L103.262 23.6215L104.061 21.0609L104.86 19.9727L105.659 18.4724L106.457 18.549L107.256 12.8572L108.055 16.1403L108.854 16.437L109.653 16.1816L110.452 19.4825L111.25 16.1203L112.049 27.1276L112.848 30.3702L113.647 30.8078L114.446 29.4391L115.244 27.0247L116.043 30.3709L116.842 25.9102L117.641 28.3715L118.44 35.9346L119.239 34.3202L120.037 33.4611L120.836 32.5464L121.635 35.0953L122.434 38.0988L123.233 43.5537L124.031 43.7329L124.83 40.9855L125.629 43.428L126.428 43.6914L127.227 40.985L128.025 43.1148L128.824 49.6702L129.623 50.5479L130.422 43.1276L131.221 45.4108L132.02 44.5916L132.818 40.0932L133.617 41.8457L134.416 38.6329" stroke="#32CA5B" stroke-width="1.25"/>
</g>
<defs>
<clipPath id="clip0_2_538">
<rect width="135" height="50" fill="white" transform="translate(0.214844 0.547852)"/>
</clipPath>
</defs>
</svg>
