<svg width="14" height="14" viewBox="0 0 14 14" fill="none" xmlns="http://www.w3.org/2000/svg">
<path d="M7 1.3125C8.03906 1.3125 8.98698 1.56771 9.84375 2.07812C10.7005 2.57031 11.3932 3.26302 11.9219 4.15625C12.4323 5.04948 12.6875 5.9974 12.6875 7C12.6875 8.0026 12.4323 8.95052 11.9219 9.84375C11.3932 10.737 10.7005 11.4297 9.84375 11.9219C8.98698 12.4323 8.03906 12.6875 7 12.6875C5.96094 12.6875 5.01302 12.4323 4.15625 11.9219C3.29948 11.4297 2.60677 10.737 2.07812 9.84375C1.56771 8.95052 1.3125 8.0026 1.3125 7C1.3125 5.9974 1.56771 5.04948 2.07812 4.15625C2.60677 3.26302 3.29948 2.57031 4.15625 2.07812C5.01302 1.56771 5.96094 1.3125 7 1.3125ZM7 14C8.27604 13.9818 9.44271 13.6719 10.5 13.0703C11.5573 12.4505 12.4141 11.5938 13.0703 10.5C13.6901 9.38802 14 8.22135 14 7C14 5.77865 13.6901 4.61198 13.0703 3.5C12.4141 2.40625 11.5573 1.54948 10.5 0.929688C9.44271 0.328125 8.27604 0.0182292 7 0C5.72396 0.0182292 4.55729 0.328125 3.5 0.929688C2.44271 1.54948 1.58594 2.40625 0.929688 3.5C0.309896 4.61198 0 5.77865 0 7C0 8.22135 0.309896 9.38802 0.929688 10.5C1.58594 11.5938 2.44271 12.4505 3.5 13.0703C4.55729 13.6719 5.72396 13.9818 7 14ZM5.90625 9.1875C5.50521 9.22396 5.28646 9.44271 5.25 9.84375C5.28646 10.2448 5.50521 10.4635 5.90625 10.5H8.09375C8.49479 10.4635 8.71354 10.2448 8.75 9.84375C8.71354 9.44271 8.49479 9.22396 8.09375 9.1875H7.875V6.78125C7.83854 6.38021 7.61979 6.16146 7.21875 6.125H5.90625C5.50521 6.16146 5.28646 6.38021 5.25 6.78125C5.28646 7.18229 5.50521 7.40104 5.90625 7.4375H6.5625V9.1875H5.90625ZM7 5.25C7.25521 5.25 7.46484 5.16797 7.62891 5.00391C7.79297 4.83984 7.875 4.63021 7.875 4.375C7.875 4.11979 7.79297 3.91016 7.62891 3.74609C7.46484 3.58203 7.25521 3.5 7 3.5C6.74479 3.5 6.53516 3.58203 6.37109 3.74609C6.20703 3.91016 6.125 4.11979 6.125 4.375C6.125 4.63021 6.20703 4.83984 6.37109 5.00391C6.53516 5.16797 6.74479 5.25 7 5.25Z" fill="#64748B"/>
</svg>
