<svg width="136" height="51" viewBox="0 0 136 51" fill="none" xmlns="http://www.w3.org/2000/svg">
<g clip-path="url(#clip0_9_267)">
<path d="M0.214844 27.6932L1.01366 24.8187L1.81248 21.0514L2.61129 17.0956L3.41011 23.2731L4.20893 25.6295L5.00774 26.112L5.80656 26.0094L6.60538 37.276L7.40419 35.1369L8.20301 34.9715L9.00183 29.1268L9.80064 26.3154L10.5995 24.9277L11.3983 23.1851L12.1971 20.4088L12.9959 15.9893L13.7947 18.3561L14.5935 24.0924L15.3924 25.8346L16.1912 23.2098L16.99 23.7217L17.7888 27.1152L18.5876 30.0326L19.3864 31.8595L20.1853 32.6796L20.9841 31.4262L21.7829 30.2511L22.5817 29.9311L23.3805 32.4013L24.1793 31.023L24.9782 34.3478L25.777 31.6921L26.5758 30.5264L27.3746 38.5678L28.1734 41.074L28.9722 48.0835L29.7711 45.4257L30.5699 49.4421L31.3687 46.9446L32.1675 46.8703L32.9663 50.5479L33.7651 44.9841L34.564 50.2788L35.3628 41.8689L36.1616 40.5068L36.9604 39.8408L37.7592 40.635L38.558 32.9837L39.3569 34.3104L40.1557 29.4595L40.9545 34.5836L41.7533 33.1242L42.5521 31.2491L43.3509 29.5766L44.1498 28.789L44.9486 32.9535L45.7474 32.996L46.5462 23.1334L47.345 20.299L48.1438 29.4233L48.9427 20.4341L49.7415 21.9956L50.5403 28.7056L51.3391 25.816L52.1379 28.4515L52.9367 26.9944L53.7356 26.2156L54.5344 30.1741L55.3332 33.8303L56.132 26.5742L56.9308 23.6917L57.7296 22.787L58.5285 18.9412L59.3273 17.5016L60.1261 16.0745L60.9249 18.4018L61.7237 23.5549L62.5225 21.4736L63.3214 19.2797L64.1202 18.8026L64.919 8.62188L65.7178 7.23306L66.5166 0.547852L67.3154 3.8691L68.1143 4.42604L68.9131 5.05977L69.7119 6.3685L70.5107 6.70206L71.3095 2.24695L72.1083 5.89573L72.9072 6.02077L73.706 7.08649L74.5048 3.93788L75.3036 8.4162L76.1024 6.50999L76.9012 10.5987L77.7001 11.4892L78.4989 14.0767L79.2977 15.9386L80.0965 15.4765L80.8953 13.4154L81.6941 14.5329L82.493 19.6307L83.2918 16.2502L84.0906 13.8953L84.8894 14.919L85.6882 17.1874L86.487 12.5648L87.2859 13.2978L88.0847 12.3185L88.8835 13.0969L89.6823 15.5489L90.4811 12.8341L91.2799 13.1746L92.0788 14.5659L92.8776 13.9022L93.6764 13.8712L94.4752 13.7072L95.274 15.1087L96.0728 16.3876L96.8717 21.9294L97.6705 25.9974L98.4693 24.012L99.2681 23.4904L100.067 23.6966L100.866 21.137L101.665 22.9833L102.463 20.2166L103.262 21.6136L104.061 17.0207L104.86 15.9678L105.659 18.3203L106.457 17.434L107.256 16.3923L108.055 18.3814L108.854 17.0226L109.653 21.1687L110.452 19.6883L111.25 23.3152L112.049 34.7157L112.848 36.9621L113.647 30.6346L114.446 30.1848L115.244 26.9174L116.043 29.6803L116.842 27.7902L117.641 25.3622L118.44 36.4165L119.239 38.3737L120.037 29.4117L120.836 28.524L121.635 32.7725L122.434 34.2269L123.233 38.5488L124.031 38.8541L124.83 37.7015L125.629 44.3285L126.428 41.2864L127.227 35.7681L128.025 36.3314L128.824 42.5788L129.623 39.4601L130.422 32.7654L131.221 34.9433L132.02 33.8599L132.818 29.8492L133.617 26.2968L134.416 26.7941" stroke="#32CA5B" stroke-width="1.25"/>
</g>
<defs>
<clipPath id="clip0_9_267">
<rect width="135" height="50" fill="white" transform="translate(0.214844 0.547852)"/>
</clipPath>
</defs>
</svg>
