<svg width="136" height="51" viewBox="0 0 136 51" fill="none" xmlns="http://www.w3.org/2000/svg">
<g clip-path="url(#clip0_2_364)">
<path d="M0.214844 48.3836L1.01366 47.8086L1.81248 45.5374L2.61129 43.6238L3.41011 47.534L4.20893 48.9712L5.00774 44.8029L5.80656 45.386L6.60538 50.5479L7.40419 49.944L8.20301 50.5373L9.00183 47.4633L9.80064 43.7252L10.5995 45.6257L11.3983 40.1482L12.1971 41.2539L12.9959 35.2327L13.7947 26.2102L14.5935 27.6646L15.3924 29.317L16.1912 28.8094L16.99 30.6554L17.7888 29.2928L18.5876 33.3242L19.3864 34.7779L20.1853 36.5797L20.9841 35.7869L21.7829 35.7384L22.5817 37.8013L23.3805 35.6957L24.1793 33.8735L24.9782 36.513L25.777 33.2223L26.5758 28.8979L27.3746 34.0895L28.1734 34.2752L28.9722 37.4809L29.7711 34.603L30.5699 34.4404L31.3687 35.5974L32.1675 38.2166L32.9663 41.1006L33.7651 40.923L34.564 45.6565L35.3628 41.3483L36.1616 38.0387L36.9604 38.9235L37.7592 38.0479L38.558 35.3768L39.3569 33.3404L40.1557 31.3881L40.9545 33.4164L41.7533 33.4787L42.5521 26.4187L43.3509 27.4842L44.1498 27.7577L44.9486 23.3762L45.7474 24.9279L46.5462 10.2458L47.345 11.1268L48.1438 17.462L48.9427 14.2779L49.7415 18.1187L50.5403 17.5356L51.3391 17.456L52.1379 15.4763L52.9367 16.5638L53.7356 15.7113L54.5344 21.7972L55.3332 20.9307L56.132 17.1883L56.9308 13.459L57.7296 11.9966L58.5285 10.8853L59.3273 10.8357L60.1261 8.0066L60.9249 12.3341L61.7237 15.6422L62.5225 16.0299L63.3214 12.989L64.1202 13.3542L64.919 2.37807L65.7178 4.88315L66.5166 7.24966L67.3154 10.2191L68.1143 7.83107L68.9131 10.4571L69.7119 9.60303L70.5107 10.8073L71.3095 8.74528L72.1083 10.1855L72.9072 9.79792L73.706 7.81358L74.5048 6.82708L75.3036 7.98357L76.1024 8.21226L76.9012 10.3474L77.7001 14.0707L78.4989 14.5457L79.2977 18.2812L80.0965 13.3681L80.8953 11.2168L81.6941 12.278L82.493 14.0719L83.2918 11.0879L84.0906 10.0903L84.8894 13.0588L85.6882 13.6399L86.487 13.4224L87.2859 13.559L88.0847 13.2652L88.8835 14.3658L89.6823 13.7244L90.4811 13.8267L91.2799 13.5312L92.0788 12.7216L92.8776 9.7176L93.6764 10.9414L94.4752 10.2418L95.274 12.113L96.0728 14.9328L96.8717 17.4633L97.6705 17.7552L98.4693 16.1794L99.2681 15.9831L100.067 15.2439L100.866 13.1143L101.665 15.0793L102.463 12.8858L103.262 13.7759L104.061 12.4148L104.86 11.0257L105.659 9.67947L106.457 8.78973L107.256 6.44456L108.055 2.46719L108.854 0.547852L109.653 5.69865L110.452 8.05043L111.25 7.26898L112.049 11.9708L112.848 18.2067L113.647 15.9367L114.446 16.2426L115.244 13.1576L116.043 13.9569L116.842 12.9643L117.641 14.3299L118.44 19.6517L119.239 21.4965L120.037 17.858L120.836 13.8719L121.635 14.3704L122.434 14.4833L123.233 21.6178L124.031 20.4006L124.83 17.6287L125.629 18.6784L126.428 18.6486L127.227 14.0049L128.025 16.6175L128.824 21.0363L129.623 27.1878L130.422 22.5561L131.221 23.7702L132.02 23.2031L132.818 19.1797L133.617 17.7714L134.416 13.5951" stroke="#32CA5B" stroke-width="1.25"/>
</g>
<defs>
<clipPath id="clip0_2_364">
<rect width="135" height="50" fill="white" transform="translate(0.214844 0.547852)"/>
</clipPath>
</defs>
</svg>
