<svg width="15" height="15" viewBox="0 0 15 15" fill="none" xmlns="http://www.w3.org/2000/svg">
<path d="M8.82812 0.832031C8.66406 0.558594 8.41797 0.412761 8.08984 0.394531C7.76172 0.412761 7.51562 0.558594 7.35156 0.832031L4.72656 5.20703C4.5625 5.4987 4.55339 5.79036 4.69922 6.08203C4.88151 6.35547 5.13672 6.5013 5.46484 6.51953H10.7148C11.043 6.5013 11.2982 6.35547 11.4805 6.08203C11.6263 5.79036 11.6172 5.4987 11.4531 5.20703L8.82812 0.832031ZM8.08984 8.92578V12.8633C8.08984 13.1732 8.19922 13.4284 8.41797 13.6289C8.61849 13.8477 8.8737 13.957 9.18359 13.957H13.1211C13.431 13.957 13.6862 13.8477 13.8867 13.6289C14.1055 13.4284 14.2148 13.1732 14.2148 12.8633V8.92578C14.2148 8.61589 14.1055 8.36068 13.8867 8.16016C13.6862 7.94141 13.431 7.83203 13.1211 7.83203H9.18359C8.8737 7.83203 8.61849 7.94141 8.41797 8.16016C8.19922 8.36068 8.08984 8.61589 8.08984 8.92578ZM3.71484 14.3945C4.35286 14.3945 4.9362 14.2396 5.46484 13.9297C5.99349 13.6198 6.42188 13.1914 6.75 12.6445C7.0599 12.0977 7.21484 11.5143 7.21484 10.8945C7.21484 10.2747 7.0599 9.69141 6.75 9.14453C6.42188 8.59766 5.99349 8.16927 5.46484 7.85938C4.9362 7.54948 4.35286 7.39453 3.71484 7.39453C3.07682 7.39453 2.49349 7.54948 1.96484 7.85938C1.4362 8.16927 1.00781 8.59766 0.679688 9.14453C0.369792 9.69141 0.214844 10.2747 0.214844 10.8945C0.214844 11.5143 0.369792 12.0977 0.679688 12.6445C1.00781 13.1914 1.4362 13.6198 1.96484 13.9297C2.49349 14.2396 3.07682 14.3945 3.71484 14.3945Z" fill="#64748B"/>
</svg>
