<svg width="136" height="51" viewBox="0 0 136 51" fill="none" xmlns="http://www.w3.org/2000/svg">
<g clip-path="url(#clip0_2_442)">
<path d="M0.214844 46.4377L1.01366 45.1532L1.81248 41.9044L2.61129 41.4207L3.41011 41.3962L4.20893 40.4908L5.00774 42.0167L5.80656 40.9947L6.60538 46.9923L7.40419 46.4004L8.20301 45.8368L9.00183 42.0729L9.80064 41.424L10.5995 39.0154L11.3983 36.1277L12.1971 35.3102L12.9959 36.1173L13.7947 34.4397L14.5935 39.7128L15.3924 38.223L16.1912 35.3363L16.99 37.7981L17.7888 38.1711L18.5876 41.1756L19.3864 40.7873L20.1853 43.2956L20.9841 43.5286L21.7829 43.1455L22.5817 42.5464L23.3805 42.5356L24.1793 42.9412L24.9782 43.9897L25.777 44.9515L26.5758 44.1455L27.3746 44.9085L28.1734 46.9817L28.9722 47.4879L29.7711 47.517L30.5699 46.4157L31.3687 44.8083L32.1675 43.9033L32.9663 45.9288L33.7651 47.2795L34.564 50.5479L35.3628 49.5813L36.1616 48.0256L36.9604 46.8609L37.7592 47.7013L38.558 45.3419L39.3569 43.5768L40.1557 42.5711L40.9545 43.0459L41.7533 42.0595L42.5521 32.3885L43.3509 13.3633L44.1498 19.3032L44.9486 14.804L45.7474 18.2747L46.5462 13.8788L47.345 11.5957L48.1438 12.0473L48.9427 11.4752L49.7415 11.5226L50.5403 10.5013L51.3391 9.9695L52.1379 11.8926L52.9367 7.50561L53.7356 9.41967L54.5344 11.477L55.3332 13.2777L56.132 4.29096L56.9308 3.80184L57.7296 3.03559L58.5285 5.32174L59.3273 9.27639L60.1261 5.89755L60.9249 11.8803L61.7237 15.4213L62.5225 15.6507L63.3214 13.2444L64.1202 10.2328L64.919 5.55156L65.7178 1.86021L66.5166 3.56149L67.3154 4.49274L68.1143 2.12464L68.9131 2.9524L69.7119 5.50187L70.5107 7.43353L71.3095 5.93642L72.1083 6.02956L72.9072 4.92179L73.706 8.55924L74.5048 6.33092L75.3036 5.70969L76.1024 9.15769L76.9012 8.95298L77.7001 10.5976L78.4989 9.2362L79.2977 8.59617L80.0965 5.53939L80.8953 3.94612L81.6941 3.5895L82.493 6.00158L83.2918 3.26894L84.0906 5.137L84.8894 5.43473L85.6882 2.6646L86.487 1.72253L87.2859 1.79849L88.0847 2.44832L88.8835 4.74789L89.6823 5.47259L90.4811 3.23932L91.2799 2.03752L92.0788 4.32511L92.8776 3.22379L93.6764 1.80886L94.4752 2.03513L95.274 1.03308L96.0728 2.49936L96.8717 6.45731L97.6705 8.54516L98.4693 11.1833L99.2681 8.87484L100.067 8.17765L100.866 7.04312L101.665 8.75187L102.463 6.82705L103.262 6.27327L104.061 3.85389L104.86 3.909L105.659 3.77408L106.457 3.19234L107.256 0.65743L108.055 1.68936L108.854 0.547852L109.653 1.53715L110.452 2.66516L111.25 4.3848L112.049 13.6878L112.848 18.9253L113.647 13.5035L114.446 14.6623L115.244 11.1836L116.043 10.0162L116.842 14.7081L117.641 15.3298L118.44 19.0692L119.239 23.9638L120.037 24.0236L120.836 20.7058L121.635 20.6564L122.434 20.2457L123.233 21.5683L124.031 23.3937L124.83 25.755L125.629 24.2024L126.428 23.5944L127.227 20.8391L128.025 20.3336L128.824 20.1523L129.623 21.4349L130.422 19.7924L131.221 20.7348L132.02 19.0286L132.818 15.8418L133.617 16.0606L134.416 11.7735" stroke="#32CA5B" stroke-width="1.25"/>
</g>
<defs>
<clipPath id="clip0_2_442">
<rect width="135" height="50" fill="white" transform="translate(0.214844 0.547852)"/>
</clipPath>
</defs>
</svg>
