<svg width="136" height="51" viewBox="0 0 136 51" fill="none" xmlns="http://www.w3.org/2000/svg">
<g clip-path="url(#clip0_16_257)">
<path d="M0.796387 3.20489L1.5952 2.67533L2.39402 3.65131L3.19284 0.894142L3.99165 3.85278L4.79047 8.70478L5.58929 14.2838L6.3881 9.63959L7.18692 8.06235L7.98574 7.28801L8.78455 4.23026L9.58337 2.29619L10.3822 2.91695L11.181 1.04428L11.9798 1.17157L12.7786 2.41029L13.5775 2.56688L14.3763 0.84668L15.1751 2.48114L15.9739 4.37963L16.7727 11.5114L17.5715 24.479L18.3704 24.1727L19.1692 32.2723L19.968 34.4057L20.7668 35.6808L21.5656 41.0829L22.3644 39.0664L23.1632 34.7912L23.9621 37.3692L24.7609 36.1941L25.5597 35.3288L26.3585 32.3155L27.1573 32.5863L27.9562 34.0941L28.755 33.9022L29.5538 34.0866L30.3526 30.3093L31.1514 32.1779L31.9502 32.3379L32.7491 38.3176L33.5479 38.1601L34.3467 39.1619L35.1455 43.4983L35.9443 38.2114L36.7431 40.6522L37.542 35.382L38.3408 40.1462L39.1396 40.0425L39.9384 45.4298L40.7372 43.7887L41.536 42.0997L42.3348 43.6082L43.1337 41.8006L43.9325 43.6568L44.7313 40.0723L45.5301 37.8486L46.3289 39.467L47.1277 39.1627L47.9266 40.3478L48.7254 42.0144L49.5242 40.3486L50.323 44.7568L51.1218 50.8467L51.9206 46.1976L52.7195 43.0878L53.5183 46.8977L54.3171 46.3527L55.1159 45.4307L55.9147 50.0814L56.7135 45.7367L57.5124 49.1333L58.3112 46.401L59.11 45.8429L59.9088 42.4508L60.7076 44.9575L61.5064 42.7701L62.3053 42.3126L63.1041 42.0796L63.9029 42.7402L64.7017 37.7157L65.5005 39.0044L66.2993 38.0462L67.0982 36.8438L67.897 33.3946L68.6958 35.1269L69.4946 33.4393L70.2934 33.1306L71.0922 34.6296L71.8911 35.5423L72.6899 31.6677L73.4887 27.8819L74.2875 33.2194L75.0863 34.2381L75.8851 32.8733L76.684 30.174L77.4828 31.833L78.2816 28.8956L79.0804 25.989L79.8792 27.0583L80.678 28.7709L81.4769 29.3036L82.2757 29.6248L83.0745 27.8698L83.8733 30.4638L84.6721 33.3553L85.4709 33.6879L86.2698 32.5835L87.0686 30.2026L87.8674 29.949L88.6662 30.3831L89.465 28.5956L90.2638 27.7245L91.0627 29.7338L91.8615 29.9493L92.6603 28.2544L93.4591 30.6752L94.2579 29.7928L95.0567 28.5285L95.8556 30.6705L96.6544 29.9403L97.4532 31.7681L98.252 33.6851L99.0508 33.6657L99.8496 31.0807L100.648 28.5617L101.447 29.6733L102.246 29.8279L103.045 28.0454L103.844 28.6477L104.643 31.5381L105.441 31.3001L106.24 31.2888L107.039 31.8707L107.838 30.6083L108.637 30.4097L109.435 29.8727L110.234 30.8442L111.033 29.2243L111.832 27.8659L112.631 27.6043L113.43 21.6573L114.228 20.8517L115.027 24.4384L115.826 23.9665L116.625 22.349L117.424 25.1959L118.222 24.5942L119.021 27.6884L119.82 23.1027L120.619 22.9312L121.418 14.9744L122.217 11.9187L123.015 14.4026L123.814 15.1623L124.613 16.6067L125.412 16.5281L126.211 14.5337L127.009 14.9678L127.808 17.5119L128.607 21.317L129.406 23.6437L130.205 22.7576L131.003 24.5427L131.802 20.8643L132.601 20.2382L133.4 20.7077L134.199 20.1588L134.998 27.2644" stroke="#FF3A33" stroke-width="1.25"/>
</g>
<defs>
<clipPath id="clip0_16_257">
<rect width="135" height="50" fill="white" transform="translate(0.796387 0.84668)"/>
</clipPath>
</defs>
</svg>
