<svg width="136" height="42" viewBox="0 0 136 42" fill="none" xmlns="http://www.w3.org/2000/svg">
<g clip-path="url(#clip0_9_453)">
<path d="M129.778 1.04492H5.48328C2.73729 1.04492 0.51123 3.27098 0.51123 6.01697V35.8472C0.51123 38.5932 2.73729 40.8193 5.48328 40.8193H129.778C132.524 40.8193 134.751 38.5932 134.751 35.8472V6.01697C134.751 3.27098 132.524 1.04492 129.778 1.04492Z" fill="black"/>
<path d="M129.781 1.82987C130.889 1.83344 131.95 2.27594 132.732 3.06039C133.514 3.84484 133.953 4.90728 133.953 6.01488V35.8499C133.949 36.9551 133.509 38.0141 132.727 38.7956C131.945 39.5772 130.886 40.0178 129.781 40.0214H5.47996C4.37471 40.0178 3.31574 39.5772 2.5342 38.7956C1.75266 38.0141 1.31202 36.9551 1.30846 35.8499V6.01488C1.30846 4.90728 1.74752 3.84484 2.52944 3.06039C3.31137 2.27594 4.37237 1.83344 5.47996 1.82987H129.781ZM129.781 1.04688H5.47996C4.16292 1.04866 2.90032 1.57265 1.96903 2.50394C1.03773 3.43523 0.513749 4.69783 0.511963 6.01488V35.8499C0.513749 37.1669 1.03773 38.4295 1.96903 39.3608C2.90032 40.2921 4.16292 40.8161 5.47996 40.8179H129.781C131.098 40.8161 132.361 40.2921 133.292 39.3608C134.223 38.4295 134.747 37.1669 134.749 35.8499V6.01488C134.747 4.699 134.224 3.43742 133.295 2.50632C132.365 1.57522 131.104 1.05044 129.788 1.04688H129.781Z" fill="#A6A6A6"/>
<path d="M49.9625 11.4821C49.9793 11.8178 49.9282 12.1535 49.8122 12.469C49.6963 12.7844 49.5178 13.0733 49.2875 13.3181C49.0259 13.5879 48.7103 13.7995 48.3614 13.9391C48.0125 14.0786 47.638 14.1431 47.2625 14.1281C46.6952 14.1202 46.1427 13.9462 45.6732 13.6276C45.2038 13.309 44.838 12.8598 44.6211 12.3355C44.4042 11.8112 44.3457 11.2349 44.4529 10.6777C44.56 10.1206 44.8281 9.60705 45.224 9.20064C45.4874 8.93185 45.8028 8.71958 46.151 8.57683C46.4991 8.43408 46.8728 8.36383 47.249 8.37038C47.6428 8.36451 48.0335 8.44036 48.3965 8.59313C48.7258 8.72596 49.0193 8.93402 49.2538 9.20064L48.761 9.69339C48.5771 9.47658 48.3455 9.30526 48.0844 9.19284C47.8233 9.08043 47.5397 9.02996 47.2558 9.04538C46.9682 9.04339 46.6831 9.09958 46.4178 9.21058C46.1525 9.32157 45.9123 9.48508 45.7118 9.69127C45.5113 9.89745 45.3546 10.1421 45.251 10.4104C45.1475 10.6787 45.0993 10.9652 45.1093 11.2526C45.0991 11.6831 45.2178 12.1068 45.4502 12.4693C45.6826 12.8318 46.018 13.1165 46.4134 13.287C46.8088 13.4575 47.2461 13.506 47.6693 13.4261C48.0924 13.3463 48.482 13.1418 48.788 12.8389C49.0701 12.5323 49.233 12.1348 49.247 11.7184H47.2625V11.0569H49.9355C49.9585 11.1907 49.9698 11.3262 49.9693 11.4619L49.9625 11.4821ZM54.1813 9.18714H51.6973V10.9219H53.9585V11.5834H51.6973V13.3384H54.1813V14.0134H50.9615V8.49863H54.1813V9.18714ZM57.1985 14.0134H56.4898V9.18038H54.9373V8.49189H58.7848V9.16689H57.185L57.1985 14.0134ZM61.4848 14.0134V8.49863H62.1935V14.0134H61.4848ZM65.3323 14.0134H64.6303V9.18038H63.0778V8.49189H66.8713V9.16689H65.339L65.3323 14.0134ZM74.0533 13.2979C73.5156 13.8337 72.7874 14.1346 72.0283 14.1346C71.2691 14.1346 70.541 13.8337 70.0033 13.2979C69.4771 12.7456 69.1836 12.0121 69.1836 11.2493C69.1836 10.4865 69.4771 9.75292 70.0033 9.20064C70.2682 8.93288 70.5835 8.72031 70.9311 8.57523C71.2787 8.43016 71.6516 8.35547 72.0283 8.35547C72.4049 8.35547 72.7778 8.43016 73.1254 8.57523C73.473 8.72031 73.7884 8.93288 74.0533 9.20064C74.5774 9.75258 74.8697 10.4847 74.8697 11.2459C74.8697 12.0071 74.5774 12.7392 74.0533 13.2911V13.2979ZM70.523 12.8254C70.9216 13.2232 71.4618 13.4465 72.0249 13.4465C72.588 13.4465 73.1282 13.2232 73.5268 12.8254C73.9167 12.3917 74.1324 11.8291 74.1324 11.2459C74.1324 10.6627 73.9167 10.1001 73.5268 9.66638C73.1282 9.26862 72.588 9.04523 72.0249 9.04523C71.4618 9.04523 70.9216 9.26862 70.523 9.66638C70.1293 10.1009 69.9113 10.6663 69.9113 11.2526C69.9113 11.839 70.1293 12.4044 70.523 12.8389V12.8254ZM75.8555 14.0066V8.49189H76.733L79.4128 12.7849V8.49189H80.108V14.0066H79.3655L76.571 9.51113V13.9999L75.8555 14.0066Z" fill="white" stroke="white" stroke-width="0.1836" stroke-miterlimit="10"/>
<path d="M69.0243 22.0599C68.2506 22.0626 67.495 22.2945 66.853 22.7263C66.2109 23.1581 65.7112 23.7704 65.417 24.486C65.1227 25.2016 65.0471 25.9884 65.1997 26.7469C65.3523 27.5055 65.7262 28.2018 66.2743 28.748C66.8223 29.2941 67.5199 29.6657 68.279 29.8157C69.0381 29.9656 69.8245 29.8873 70.5391 29.5906C71.2537 29.2939 71.8644 28.7921 72.294 28.1486C72.7235 27.505 72.9528 26.7487 72.9528 25.9749C72.962 25.4571 72.8666 24.9428 72.6723 24.4627C72.4779 23.9827 72.1887 23.5468 71.8218 23.1813C71.455 22.8157 71.0182 22.528 70.5375 22.3353C70.0568 22.1426 69.5421 22.0489 69.0243 22.0599ZM69.0243 28.3374C68.5481 28.3713 68.0727 28.261 67.6601 28.0207C67.2475 27.7805 66.9168 27.4216 66.7112 26.9907C66.5056 26.5598 66.4346 26.0769 66.5074 25.605C66.5802 25.1332 66.7935 24.6942 67.1194 24.3453C67.4454 23.9965 67.8689 23.7539 68.3347 23.6492C68.8005 23.5445 69.2871 23.5826 69.7309 23.7585C70.1748 23.9344 70.5554 24.24 70.823 24.6353C71.0907 25.0306 71.2331 25.4975 71.2316 25.9749C71.2451 26.2752 71.1987 26.5752 71.0949 26.8574C70.9912 27.1395 70.8322 27.3982 70.6273 27.6181C70.4224 27.8381 70.1757 28.015 69.9016 28.1385C69.6275 28.262 69.3316 28.3296 69.0311 28.3374H69.0243ZM60.4653 22.0599C59.691 22.0599 58.9341 22.2895 58.2903 22.7197C57.6464 23.1499 57.1447 23.7613 56.8483 24.4767C56.552 25.1921 56.4745 25.9792 56.6256 26.7387C56.7766 27.4981 57.1495 28.1957 57.697 28.7432C58.2445 29.2907 58.9421 29.6636 59.7016 29.8147C60.461 29.9657 61.2482 29.8882 61.9635 29.5919C62.6789 29.2956 63.2903 28.7938 63.7205 28.15C64.1507 27.5061 64.3803 26.7492 64.3803 25.9749C64.3895 25.4571 64.2941 24.9428 64.0998 24.4627C63.9054 23.9827 63.6162 23.5468 63.2493 23.1813C62.8825 22.8157 62.4457 22.528 61.965 22.3353C61.4842 22.1426 60.9696 22.0489 60.4518 22.0599H60.4653ZM60.4653 28.3374C59.9888 28.3741 59.5122 28.2661 59.0979 28.0277C58.6837 27.7893 58.3509 27.4315 58.1432 27.001C57.9355 26.5706 57.8624 26.0874 57.9335 25.6148C58.0047 25.1421 58.2167 24.7019 58.542 24.3516C58.8672 24.0014 59.2905 23.7574 59.7566 23.6515C60.2227 23.5456 60.7099 23.5827 61.1546 23.758C61.5992 23.9333 61.9807 24.2387 62.2491 24.6342C62.5175 25.0297 62.6604 25.4969 62.6591 25.9749C62.6726 26.2752 62.6262 26.5752 62.5224 26.8574C62.4187 27.1395 62.2597 27.3982 62.0548 27.6181C61.8499 27.8381 61.6032 28.015 61.3291 28.1385C61.055 28.262 60.7591 28.3296 60.4586 28.3374H60.4653ZM50.2728 23.2749V24.9219H54.2351C54.1741 25.703 53.8506 26.4406 53.3171 27.0144C52.9195 27.4198 52.4414 27.7374 51.9136 27.9466C51.3857 28.1559 50.8199 28.2522 50.2526 28.2294C49.0818 28.2294 47.9589 27.7643 47.1311 26.9364C46.3032 26.1086 45.8381 24.9857 45.8381 23.8149C45.8381 22.6441 46.3032 21.5213 47.1311 20.6934C47.9589 19.8655 49.0818 19.4004 50.2526 19.4004C51.3738 19.3819 52.4566 19.8092 53.2631 20.5884L54.4241 19.4207C53.8804 18.8697 53.2316 18.4335 52.5162 18.1378C51.8008 17.8421 51.0334 17.6931 50.2593 17.6994C48.6481 17.6994 47.1029 18.3395 45.9637 19.4787C44.8244 20.618 44.1843 22.1632 44.1843 23.7744C44.1843 25.3856 44.8244 26.9308 45.9637 28.0701C47.1029 29.2094 48.6481 29.8494 50.2593 29.8494C51.0464 29.8847 51.8318 29.7512 52.563 29.4578C53.2941 29.1644 53.954 28.718 54.4983 28.1484C55.4602 27.089 55.9733 25.6975 55.9293 24.2672C55.9337 23.9187 55.9043 23.5705 55.8416 23.2277H50.2593L50.2728 23.2749ZM91.9338 24.5574C91.6948 23.8508 91.2466 23.2335 90.6487 22.7874C90.0507 22.3414 89.3313 22.0876 88.5858 22.0599C88.0822 22.0589 87.5837 22.1612 87.1212 22.3607C86.6588 22.5602 86.2422 22.8525 85.8973 23.2195C85.5524 23.5866 85.2866 24.0205 85.1163 24.4945C84.9459 24.9684 84.8747 25.4723 84.9071 25.9749C84.8971 26.4883 84.9905 26.9985 85.1817 27.475C85.373 27.9516 85.6581 28.3847 86.0203 28.7488C86.3824 29.1128 86.8141 29.4003 87.2897 29.594C87.7652 29.7877 88.2749 29.8838 88.7883 29.8764C89.4312 29.8798 90.0649 29.7238 90.6327 29.4222C91.2005 29.1206 91.6847 28.683 92.0418 28.1484L90.7121 27.2237C90.5128 27.5552 90.2306 27.8292 89.8933 28.0186C89.556 28.2079 89.1752 28.3062 88.7883 28.3037C88.3912 28.3186 87.9988 28.214 87.6618 28.0034C87.3249 27.7928 87.0589 27.4859 86.8983 27.1224L92.1296 24.9624L91.9338 24.5574ZM86.6013 25.8602C86.5822 25.5758 86.62 25.2905 86.7126 25.0209C86.8052 24.7514 86.9507 24.5031 87.1406 24.2906C87.3305 24.078 87.5609 23.9056 87.8184 23.7833C88.0758 23.6611 88.3551 23.5915 88.6398 23.5787C88.9364 23.5599 89.232 23.6285 89.49 23.7761C89.7479 23.9237 89.9569 24.1437 90.0911 24.4089L86.6013 25.8602ZM82.3488 29.6402H84.0701V18.1652H82.3488V29.6402ZM79.5341 22.9374H79.4801C79.2205 22.6485 78.9031 22.4175 78.5484 22.2593C78.1937 22.1011 77.8097 22.0194 77.4213 22.0194C76.383 22.0194 75.3872 22.4319 74.653 23.1661C73.9188 23.9003 73.5063 24.8961 73.5063 25.9344C73.5063 26.9727 73.9188 27.9685 74.653 28.7027C75.3872 29.4369 76.383 29.8494 77.4213 29.8494C77.8107 29.856 78.1968 29.7773 78.5525 29.6187C78.9082 29.4601 79.2248 29.2255 79.4801 28.9314H79.5341V29.5659C79.5341 31.0644 78.7241 31.8609 77.4416 31.8609C77.0151 31.8494 76.6016 31.7118 76.2533 31.4655C75.9049 31.2193 75.6372 30.8753 75.4841 30.4772L73.9788 31.0982C74.2613 31.7849 74.7425 32.3715 75.3607 32.7828C75.9788 33.1941 76.7058 33.4114 77.4483 33.4067C79.4733 33.4067 81.1338 32.2254 81.1338 29.3364V22.2827H79.5476L79.5341 22.9374ZM77.5766 28.3374C76.9918 28.2749 76.4508 27.9983 76.0577 27.5609C75.6646 27.1236 75.4471 26.5563 75.4471 25.9682C75.4471 25.3801 75.6646 24.8127 76.0577 24.3754C76.4508 23.938 76.9918 23.6614 77.5766 23.5989C77.8714 23.6134 78.1604 23.6868 78.4263 23.8149C78.6923 23.943 78.9298 24.1232 79.1249 24.3447C79.32 24.5662 79.4687 24.8247 79.5622 25.1047C79.6557 25.3847 79.692 25.6806 79.6691 25.9749C79.693 26.2698 79.6568 26.5665 79.5627 26.847C79.4687 27.1276 79.3186 27.3861 79.1218 27.6069C78.9249 27.8278 78.6852 28.0064 78.4173 28.132C78.1494 28.2575 77.8588 28.3274 77.5631 28.3374H77.5766ZM99.9866 18.1449H95.8826V29.6469H97.6038V25.2999H100.007C100.494 25.329 100.982 25.2579 101.441 25.0911C101.9 24.9244 102.32 24.6654 102.675 24.3302C103.03 23.9951 103.313 23.5907 103.506 23.1422C103.699 22.6936 103.798 22.2103 103.797 21.722C103.796 21.2337 103.695 20.7507 103.501 20.3029C103.306 19.8551 103.022 19.4518 102.666 19.118C102.309 18.7841 101.888 18.5268 101.429 18.3617C100.969 18.1967 100.481 18.1275 99.9933 18.1584L99.9866 18.1449ZM99.9866 23.6799H97.5971V19.7514H100.027C100.286 19.7514 100.542 19.8024 100.781 19.9014C101.02 20.0005 101.238 20.1457 101.421 20.3287C101.604 20.5117 101.749 20.729 101.848 20.9681C101.947 21.2073 101.998 21.4636 101.998 21.7224C101.998 21.9812 101.947 22.2375 101.848 22.4767C101.749 22.7158 101.604 22.9331 101.421 23.1161C101.238 23.2991 101.02 23.4443 100.781 23.5434C100.542 23.6424 100.286 23.6934 100.027 23.6934L99.9866 23.6799ZM110.598 22.0194C109.972 21.9829 109.35 22.1295 108.807 22.4412C108.264 22.7529 107.824 23.2162 107.54 23.7744L109.059 24.4157C109.207 24.1386 109.433 23.9106 109.708 23.7596C109.984 23.6086 110.298 23.541 110.611 23.5652C110.831 23.538 111.053 23.5551 111.266 23.6155C111.479 23.6759 111.677 23.7784 111.85 23.9169C112.022 24.0553 112.165 24.2269 112.27 24.4216C112.375 24.6163 112.44 24.83 112.461 25.0502V25.1649C111.906 24.8697 111.287 24.7166 110.658 24.7194C109.011 24.7194 107.351 25.6442 107.351 27.3114C107.367 27.6662 107.454 28.0142 107.607 28.3348C107.76 28.6554 107.975 28.9421 108.241 29.1781C108.506 29.414 108.817 29.5944 109.153 29.7085C109.489 29.8227 109.845 29.8683 110.199 29.8427C110.633 29.873 111.068 29.7855 111.456 29.5894C111.845 29.3934 112.173 29.0961 112.407 28.7289H112.461V29.6469H114.121V25.2324C114.121 23.2209 112.589 22.0599 110.631 22.0599L110.598 22.0194ZM110.395 28.3239C110.088 28.3691 109.775 28.2929 109.523 28.1115C109.271 27.93 109.1 27.6576 109.045 27.3519C109.045 26.4272 110.024 26.1234 110.888 26.1234C111.43 26.1113 111.966 26.2441 112.44 26.5082C112.384 27.0051 112.15 27.465 111.782 27.8034C111.413 28.1419 110.936 28.3363 110.436 28.3509L110.395 28.3239ZM120.162 22.3029L118.191 27.2844H118.137L116.092 22.3029H114.256L117.314 29.2689L115.572 33.1434H117.361L122.073 22.3029H120.169H120.162ZM104.705 29.6604H106.419V18.1584H104.698L104.705 29.6604Z" fill="white"/>
<path d="M15.9627 8.98467C15.6604 9.34637 15.5083 9.81017 15.5375 10.2807V30.6252C15.5117 31.0911 15.6637 31.5494 15.9627 31.9077L16.0302 31.9752L27.4175 20.5947V20.3112L16.0235 8.93066L15.9627 8.98467Z" fill="url(#paint0_linear_9_453)"/>
<path d="M31.1975 24.388L27.4175 20.5877V20.3178L31.1975 16.5107L31.265 16.558L35.7875 19.123C37.07 19.8452 37.07 21.0467 35.7875 21.7825L31.292 24.334L31.1975 24.388Z" fill="url(#paint1_linear_9_453)"/>
<path d="M31.2986 24.3344L27.4174 20.4531L15.9626 31.9079C16.225 32.1378 16.5593 32.269 16.908 32.2789C17.2568 32.2887 17.598 32.1766 17.8729 31.9619L31.3054 24.3344" fill="url(#paint2_linear_9_453)"/>
<path d="M31.2987 16.5722L17.8662 8.9447C17.5916 8.72726 17.2494 8.61292 16.8992 8.62155C16.549 8.63018 16.2128 8.76123 15.9492 8.99195L27.4242 20.467L31.2987 16.5722Z" fill="url(#paint3_linear_9_453)"/>
<path opacity="0.2" d="M31.1973 24.2539L17.8661 31.8409C17.6005 32.0408 17.2771 32.1489 16.9447 32.1489C16.6123 32.1489 16.2889 32.0408 16.0233 31.8409L15.9558 31.9084L16.0233 31.9759C16.2885 32.1768 16.612 32.2856 16.9447 32.2856C17.2774 32.2856 17.6009 32.1768 17.8661 31.9759L31.2986 24.3349L31.1973 24.2539Z" fill="black"/>
<path opacity="0.12" d="M15.9627 31.7796C15.6637 31.4214 15.5117 30.9631 15.5375 30.4971V30.6321C15.5117 31.0981 15.6637 31.5564 15.9627 31.9146L16.0302 31.8471L15.9627 31.7796ZM35.7875 21.6546L31.1975 24.2534L31.265 24.3344L35.7875 21.7694C36.0424 21.6497 36.2615 21.4651 36.4226 21.2341C36.5837 21.0031 36.6813 20.7337 36.7055 20.4531C36.6531 20.708 36.5431 20.9475 36.384 21.1534C36.2249 21.3593 36.0209 21.5261 35.7875 21.6411V21.6546Z" fill="black"/>
<path opacity="0.25" d="M17.8663 9.06565L35.7875 19.2582C36.0217 19.3738 36.2262 19.5417 36.3854 19.7488C36.5445 19.9559 36.6541 20.1968 36.7055 20.4529C36.6836 20.1699 36.5871 19.8978 36.4259 19.6642C36.2646 19.4306 36.0444 19.2439 35.7875 19.1231L17.8663 8.93065C16.5838 8.20165 15.5308 8.80915 15.5308 10.2807V10.4156C15.551 8.93065 16.577 8.33665 17.8595 9.06565H17.8663Z" fill="white"/>
</g>
<defs>
<linearGradient id="paint0_linear_9_453" x1="26.3973" y1="10.1281" x2="10.9706" y2="25.5548" gradientUnits="userSpaceOnUse">
<stop stop-color="#00A0FF"/>
<stop offset="0.01" stop-color="#00A1FF"/>
<stop offset="0.26" stop-color="#00BEFF"/>
<stop offset="0.51" stop-color="#00D2FF"/>
<stop offset="0.76" stop-color="#00DFFF"/>
<stop offset="1" stop-color="#00E3FF"/>
</linearGradient>
<linearGradient id="paint1_linear_9_453" x1="37.4571" y1="20.5074" x2="15.218" y2="20.5074" gradientUnits="userSpaceOnUse">
<stop stop-color="#FFE000"/>
<stop offset="0.41" stop-color="#FFBD00"/>
<stop offset="0.78" stop-color="#FFA500"/>
<stop offset="1" stop-color="#FF9C00"/>
</linearGradient>
<linearGradient id="paint2_linear_9_453" x1="29.1828" y1="22.6223" x2="8.25843" y2="43.5375" gradientUnits="userSpaceOnUse">
<stop stop-color="#FF3A44"/>
<stop offset="1" stop-color="#C31162"/>
</linearGradient>
<linearGradient id="paint3_linear_9_453" x1="13.0667" y1="2.28661" x2="22.4073" y2="11.6272" gradientUnits="userSpaceOnUse">
<stop stop-color="#32A071"/>
<stop offset="0.07" stop-color="#2DA771"/>
<stop offset="0.48" stop-color="#15CF74"/>
<stop offset="0.8" stop-color="#06E775"/>
<stop offset="1" stop-color="#00F076"/>
</linearGradient>
<clipPath id="clip0_9_453">
<rect width="135" height="40.5" fill="white" transform="translate(0.214844 0.547852)"/>
</clipPath>
</defs>
</svg>
