<svg width="15" height="15" viewBox="0 0 15 15" fill="none" xmlns="http://www.w3.org/2000/svg">
<path d="M13.0664 2.0625L12.5469 1.54297C11.7448 0.777344 10.8151 0.394531 9.75781 0.394531C8.70052 0.394531 7.77083 0.777344 6.96875 1.54297L1.36328 7.14844C0.597656 7.95052 0.214844 8.88021 0.214844 9.9375C0.214844 10.9948 0.597656 11.9245 1.36328 12.7266L1.88281 13.2461C2.6849 14.0117 3.61458 14.3945 4.67188 14.3945C5.72917 14.3945 6.65885 14.0117 7.46094 13.2461L13.0664 7.64062C13.832 6.83854 14.2148 5.90885 14.2148 4.85156C14.2148 3.79427 13.832 2.86458 13.0664 2.0625ZM6.77734 12.6445C6.15755 13.2461 5.4375 13.5469 4.61719 13.5469C3.8151 13.5469 3.09505 13.2461 2.45703 12.6445L1.96484 12.1523C1.36328 11.5143 1.0625 10.7943 1.0625 9.99219C1.0625 9.17188 1.36328 8.45182 1.96484 7.83203L4.53516 5.26172L9.375 10.0742L6.77734 12.6445ZM9.89453 9.55469L5.05469 4.71484L7.65234 2.14453C8.27214 1.54297 8.99219 1.24219 9.8125 1.24219C10.6146 1.24219 11.3346 1.54297 11.9727 2.14453L12.4648 2.63672C13.0664 3.27474 13.3672 3.99479 13.3672 4.79688C13.3672 5.61719 13.0664 6.33724 12.4648 6.95703L9.89453 9.55469ZM2.21094 11.9062L2.70312 12.3984C3.26823 12.9271 3.90625 13.1914 4.61719 13.1914C5.34635 13.1914 5.98438 12.9271 6.53125 12.3984L8.85547 10.0742L4.53516 5.75391L2.21094 8.07812C1.68229 8.64323 1.41797 9.28125 1.41797 9.99219C1.41797 10.7031 1.68229 11.3411 2.21094 11.9062Z" fill="#64748B"/>
</svg>
