<svg width="136" height="51" viewBox="0 0 136 51" fill="none" xmlns="http://www.w3.org/2000/svg">
<g clip-path="url(#clip0_9_373)">
<path d="M0.214844 26.2218L1.01366 23.8549L1.81248 22.8863L2.61129 21.4485L3.41011 20.9721L4.20893 25.91L5.00774 26.3108L5.80656 27.8579L6.60538 34.112L7.40419 35.525L8.20301 32.5606L9.00183 27.7862L9.80064 23.7582L10.5995 25.8771L11.3983 23.0529L12.1971 23.5188L12.9959 21.2783L13.7947 19.8069L14.5935 21.9794L15.3924 20.2948L16.1912 23.855L16.99 24.2842L17.7888 27.6784L18.5876 29.7659L19.3864 35.3768L20.1853 31.1764L20.9841 32.1574L21.7829 29.6355L22.5817 29.9618L23.3805 33.4847L24.1793 31.6901L24.9782 32.6831L25.777 31.2172L26.5758 33.1432L27.3746 38.13L28.1734 46.067L28.9722 48.6827L29.7711 44.7944L30.5699 46.9357L31.3687 44.8832L32.1675 48.3039L32.9663 49.6089L33.7651 46.2643L34.564 50.5479L35.3628 40.3798L36.1616 40.9155L36.9604 40.5472L37.7592 35.9287L38.558 33.7534L39.3569 31.7275L40.1557 28.9656L40.9545 34.1885L41.7533 28.0673L42.5521 28.9944L43.3509 29.0926L44.1498 30.6288L44.9486 26.5156L45.7474 20.5491L46.5462 17.2952L47.345 23.0015L48.1438 26.7059L48.9427 20.224L49.7415 28.5569L50.5403 26.7293L51.3391 25.5094L52.1379 29.0583L52.9367 28.3584L53.7356 27.6157L54.5344 30.3289L55.3332 28.4094L56.132 23.1923L56.9308 22.9744L57.7296 17.7027L58.5285 18.5003L59.3273 14.9491L60.1261 16.4966L60.9249 23.0509L61.7237 22.839L62.5225 16.5943L63.3214 19.9568L64.1202 10.4506L64.919 6.32034L65.7178 0.547852L66.5166 8.49194L67.3154 7.47588L68.1143 4.1011L68.9131 5.35969L69.7119 6.0321L70.5107 4.42344L71.3095 4.29629L72.1083 5.04625L72.9072 5.92164L73.706 3.62324L74.5048 6.22716L75.3036 5.75034L76.1024 8.50023L76.9012 9.86725L77.7001 10.1507L78.4989 13.6939L79.2977 15.9483L80.0965 13.4422L80.8953 14.0669L81.6941 16.663L82.493 21.0673L83.2918 14.5378L84.0906 15.2948L84.8894 14.1606L85.6882 13.7282L86.487 11.4682L87.2859 11.025L88.0847 11.4385L88.8835 15.8514L89.6823 14.168L90.4811 13.0998L91.2799 11.2605L92.0788 14.9569L92.8776 11.3093L93.6764 13.976L94.4752 14.9472L95.274 15.7636L96.0728 17.6918L96.8717 22.1769L97.6705 25.1342L98.4693 21.7764L99.2681 24.0793L100.067 22.0188L100.866 21.4174L101.665 19.5819L102.463 20.2005L103.262 17.2036L104.061 18.495L104.86 15.8565L105.659 17.4608L106.457 17.1752L107.256 16.2999L108.055 17.7828L108.854 17.3046L109.653 21.5758L110.452 14.3412L111.25 26.8538L112.049 34.775L112.848 33.8755L113.647 32.5461L114.446 29.6824L115.244 25.1699L116.043 24.7613L116.842 29.5225L117.641 27.6479L118.44 39.3435L119.239 32.9511L120.037 29.141L120.836 29.1156L121.635 33.7785L122.434 33.9107L123.233 38.2437L124.031 38.3035L124.83 45.7259L125.629 42.454L126.428 34.3196L127.227 35.67L128.025 38.0848L128.824 40.3179L129.623 35.0129L130.422 32.5678L131.221 33.6075L132.02 29.6602L132.818 29.6316L133.617 27.2613L134.416 26.4073" stroke="#FF3A33" stroke-width="1.25"/>
</g>
<defs>
<clipPath id="clip0_9_373">
<rect width="135" height="50" fill="white" transform="translate(0.214844 0.547852)"/>
</clipPath>
</defs>
</svg>
