<svg width="136" height="51" viewBox="0 0 136 51" fill="none" xmlns="http://www.w3.org/2000/svg">
<g clip-path="url(#clip0_2_400)">
<path d="M0.214844 49.9924L1.01366 46.6934L1.81248 48.2889L2.61129 50.5142L3.41011 47.83L4.20893 49.4037L5.00774 48.6131L5.80656 50.331L6.60538 33.62L7.40419 31.412L8.20301 29.1539L9.00183 29.0042L9.80064 50.0828L10.5995 49.0688L11.3983 50.3431L12.1971 50.3817L12.9959 49.3264L13.7947 50.5479L14.5935 49.3328L15.3924 30.7642L16.1912 28.6481L16.99 29.8454L17.7888 28.6055L18.5876 31.1206L19.3864 32.7899L20.1853 32.0544L20.9841 33.0989L21.7829 34.4806L22.5817 34.294L23.3805 31.263L24.1793 36.3795L24.9782 30.2255L25.777 28.4846L26.5758 26.8378L27.3746 28.3206L28.1734 28.8112L28.9722 27.9825L29.7711 27.2353L30.5699 27.0366L31.3687 28.0597L32.1675 27.3764L32.9663 27.1879L33.7651 29.2495L34.564 26.7443L35.3628 27.504L36.1616 28.6837L36.9604 27.4963L37.7592 29.7811L38.558 28.5372L39.3569 29.7223L40.1557 30.1336L40.9545 26.0795L41.7533 25.6141L42.5521 26.0183L43.3509 25.2921L44.1498 23.7081L44.9486 21.5231L45.7474 25.2618L46.5462 15.8137L47.345 14.7825L48.1438 16.0723L48.9427 17.3418L49.7415 13.5559L50.5403 15.582L51.3391 14.1723L52.1379 16.1L52.9367 16.0562L53.7356 14.3265L54.5344 15.3284L55.3332 15.086L56.132 17.6901L56.9308 14.9565L57.7296 16.6312L58.5285 14.8493L59.3273 17.2673L60.1261 15.1455L60.9249 14.4229L61.7237 23.2974L62.5225 14.327L63.3214 15.1788L64.1202 16.0188L64.919 15.0065L65.7178 15.5981L66.5166 17.875L67.3154 17.0427L68.1143 17.5319L68.9131 14.3133L69.7119 17.4219L70.5107 15.69L71.3095 17.0642L72.1083 13.4841L72.9072 16.6075L73.706 16.2149L74.5048 14.744L75.3036 15.5797L76.1024 14.7808L76.9012 15.8343L77.7001 14.2063L78.4989 15.0192L79.2977 13.8941L80.0965 15.2831L80.8953 15.2983L81.6941 16.0328L82.493 16.6581L83.2918 14.8989L84.0906 14.6033L84.8894 16.1168L85.6882 16.5421L86.487 16.0347L87.2859 15.8529L88.0847 16.8411L88.8835 14.0098L89.6823 14.212L90.4811 16.3837L91.2799 16.923L92.0788 14.5971L92.8776 18.2465L93.6764 15.0754L94.4752 14.7746L95.274 14.6406L96.0728 14.7738L96.8717 12.2687L97.6705 13.975L98.4693 16.2594L99.2681 16.768L100.067 12.1298L100.866 15.4429L101.665 16.5505L102.463 17.6618L103.262 17.2257L104.061 18.8334L104.86 15.2112L105.659 17.5163L106.457 18.3506L107.256 16.5267L108.055 18.8026L108.854 18.6411L109.653 16.9032L110.452 19.5786L111.25 17.2061L112.049 19.9379L112.848 7.73831L113.647 11.9537L114.446 19.7542L115.244 19.1601L116.043 13.5872L116.842 15.9242L117.641 14.1153L118.44 8.84001L119.239 10.5049L120.037 9.8746L120.836 12.0691L121.635 8.59321L122.434 9.85196L123.233 10.2769L124.031 10.9015L124.83 11.1997L125.629 11.9334L126.428 5.29175L127.227 3.71257L128.025 2.95853L128.824 2.97554L129.623 3.73761L130.422 3.57019L131.221 2.28251L132.02 0.547852L132.818 1.60605L133.617 2.93068L134.416 4.61753" stroke="#32CA5B" stroke-width="1.25"/>
</g>
<defs>
<clipPath id="clip0_2_400">
<rect width="135" height="50" fill="white" transform="translate(0.214844 0.547852)"/>
</clipPath>
</defs>
</svg>
