<svg width="158" height="59" viewBox="0 0 158 59" fill="none" xmlns="http://www.w3.org/2000/svg">
<g clip-path="url(#clip0_2_747)">
<path d="M0.796387 10.6223L1.72847 8.8571L2.66055 5.57063L3.59264 6.90765L4.52472 9.95419L5.4568 12.0574L6.38889 8.91684L7.32097 9.19442L8.25305 9.11757L9.18514 5.43497L10.1172 3.15919L11.0493 4.66635L11.9814 0.84668L12.9135 1.18929L13.8456 2.16808L14.7776 2.63467L15.7097 1.93479L16.6418 4.07204L17.5739 4.73471L18.506 13.7365L19.4381 21.0628L20.3701 22.052L21.3022 25.8501L22.2343 28.9316L23.1664 31.7528L24.0985 34.7873L25.0306 42.4072L25.9626 38.6349L26.8947 42.831L27.8268 42.4993L28.7589 40.1228L29.691 34.9579L30.6231 31.6382L31.5551 32.0744L32.4872 34.5577L33.4193 34.6625L34.3514 31.5343L35.2835 31.8031L36.2156 31.1042L37.1476 37.9886L38.0797 39.2267L39.0118 39.1214L39.9439 43.9805L40.876 38.1149L41.8081 41.5676L42.7401 34.4675L43.6722 35.5358L44.6043 36.952L45.5364 46.5858L46.4685 51.4317L47.4006 46.5967L48.3326 47.9693L49.2647 48.3105L50.1968 50.7152L51.1289 48.1188L52.061 46.3571L52.9931 43.7158L53.9251 41.3792L54.8572 43.2189L55.7893 45.227L56.7214 43.7352L57.6535 48.6129L58.5856 57.0564L59.5176 52.1187L60.4497 49.221L61.3818 52.0361L62.3139 53.7236L63.246 55.1325L64.1781 58.7227L65.1101 54.4774L66.0422 58.843L66.9743 54.7522L67.9064 53.1759L68.8385 50.1467L69.7706 53.0944L70.7026 51.6531L71.6347 51.0134L72.5668 52.1608L73.4989 54.5116L74.431 46.3314L75.3631 47.9311L76.2951 49.5798L77.2272 48.2795L78.1593 45.3677L79.0914 46.8641L80.0235 43.8415L80.9556 42.9797L81.8876 44.4437L82.8197 44.8788L83.7518 42.9481L84.6839 39.0173L85.616 41.8755L86.5481 45.7394L87.4801 37.852L88.4122 33.1456L89.3443 35.5692L90.2764 32.8165L91.2085 31.7157L92.1406 31.5261L93.0726 33.3746L94.0047 34.186L94.9368 35.3166L95.8689 33.5685L96.801 34.6506L97.7331 38.4262L98.6651 38.2546L99.5972 36.9831L100.529 34.1904L101.461 32.8917L102.393 34.3771L103.326 33.6195L104.258 32.4754L105.19 33.5867L106.122 33.7836L107.054 32.53L107.986 34.6351L108.918 34.152L109.85 34.191L110.782 37.0652L111.714 36.2868L112.646 37.9011L113.578 38.8581L114.511 40.746L115.443 38.6819L116.375 35.819L117.307 35.5507L118.239 37.5679L119.171 34.9382L120.103 36.0404L121.035 37.2624L121.967 37.5586L122.899 36.7135L123.831 36.7574L124.763 36.4025L125.696 35.9313L126.628 35.086L127.56 35.73L128.492 34.3535L129.424 32.9286L130.356 32.6882L131.288 26.6813L132.22 27.2792L133.152 28.9671L134.084 29.2428L135.016 27.6154L135.948 28.8481L136.881 28.9922L137.813 32.8531L138.745 29.2054L139.677 26.5653L140.609 16.8147L141.541 15.0486L142.473 16.393L143.405 17.4374L144.337 18.2421L145.269 19.3271L146.201 15.9096L147.133 18.0954L148.066 17.8264L148.998 22.5843L149.93 25.9902L150.862 23.2783L151.794 25.1469L152.726 19.8082L153.658 13.1768L154.59 17.75L155.522 15.8521L156.454 16.4444" stroke="#FF3A33" stroke-width="1.44991"/>
</g>
<defs>
<clipPath id="clip0_2_747">
<rect width="156.59" height="57.9963" fill="white" transform="translate(0.796387 0.84668)"/>
</clipPath>
</defs>
</svg>
