<svg width="136" height="51" viewBox="0 0 136 51" fill="none" xmlns="http://www.w3.org/2000/svg">
<g clip-path="url(#clip0_16_259)">
<path d="M0.796387 17.2217L1.5952 14.2096L2.39402 13.4029L3.19284 14.1564L3.99165 15.8754L4.79047 15.5043L5.58929 20.8221L6.3881 17.9474L7.18692 20.3781L7.98574 19.6269L8.78455 18.3744L9.58337 16.2407L10.3822 14.8559L11.181 14.5396L11.9798 13.856L12.7786 12.9089L13.5775 11.7492L14.3763 11.168L15.1751 11.3622L15.9739 11.4095L16.7727 16.4564L17.5715 26.1679L18.3704 34.2082L19.1692 33.4865L19.968 42.0935L20.7668 41.2093L21.5656 45.7428L22.3644 46.589L23.1632 44.3013L23.9621 47.6209L24.7609 45.3288L25.5597 50.551L26.3585 46.7557L27.1573 43.3229L27.9562 41.7571L28.755 39.9252L29.5538 38.7488L30.3526 37.6898L31.1514 40.8652L31.9502 38.1507L32.7491 44.7059L33.5479 46.2597L34.3467 43.2365L35.1455 47.0622L35.9443 39.0167L36.7431 44.9275L37.542 30.5328L38.3408 30.9017L39.1396 35.4867L39.9384 37.1279L40.7372 36.5552L41.536 35.8881L42.3348 35.561L43.1337 35.5615L43.9325 36.8291L44.7313 39.3271L45.5301 44.2665L46.3289 37.9657L47.1277 35.6538L47.9266 33.1877L48.7254 35.734L49.5242 33.7159L50.323 36.5996L51.1218 44.6849L51.9206 40.9572L52.7195 38.9539L53.5183 43.6528L54.3171 41.6218L55.1159 41.4301L55.9147 40.4657L56.7135 32.3113L57.5124 40.8496L58.3112 30.5459L59.11 22.0805L59.9088 13.8836L60.7076 9.28429L61.5064 5.23117L62.3053 4.27319L63.1041 2.9317L63.9029 10.4643L64.7017 9.72441L65.5005 14.4495L66.2993 11.153L67.0982 14.6838L67.897 13.9077L68.6958 11.0269L69.4946 9.40928L70.2934 6.86829L71.0922 9.63696L71.8911 6.33145L72.6899 5.5508L73.4887 8.81213L74.2875 8.02189L75.0863 0.84668L75.8851 7.7659L76.684 11.4759L77.4828 14.4427L78.2816 11.8951L79.0804 11.6317L79.8792 12.8141L80.678 14.0519L81.4769 13.7887L82.2757 14.2991L83.0745 17.4194L83.8733 25.2352L84.6721 28.7081L85.4709 29.1084L86.2698 29.7158L87.0686 29.7255L87.8674 36.4391L88.6662 36.8117L89.465 33.9626L90.2638 43.4472L91.0627 42.6036L91.8615 41.7068L92.6603 41.8559L93.4591 41.8893L94.2579 41.7461L95.0567 42.1965L95.8556 46.7916L96.6544 43.0665L97.4532 45.6687L98.252 44.2548L99.0508 47.2L99.8496 46.5009L100.648 46.1671L101.447 47.0148L102.246 49.0186L103.045 46.5526L103.844 49.2564L104.643 50.8467L105.441 50.4308L106.24 49.9746L107.039 49.814L107.838 50.07L108.637 43.8957L109.435 40.4155L110.234 39.3224L111.033 39.0383L111.832 39.0914L112.631 39.2954L113.43 35.4782L114.228 33.2023L115.027 36.2834L115.826 38.4844L116.625 37.052L117.424 38.7779L118.222 38.3342L119.021 37.8357L119.82 37.5725L120.619 38.8621L121.418 34.8602L122.217 39.85L123.015 42.1713L123.814 41.3049L124.613 42.5723L125.412 40.3871L126.211 36.873L127.009 37.2648L127.808 33.0846L128.607 34.2287L129.406 31.8658L130.205 23.2179L131.003 24.4924L131.802 18.2867L132.601 28.1099L133.4 18.7943L134.199 19.8389L134.998 22.5623" stroke="#FF3A33" stroke-width="1.25"/>
</g>
<defs>
<clipPath id="clip0_16_259">
<rect width="135" height="50" fill="white" transform="translate(0.796387 0.84668)"/>
</clipPath>
</defs>
</svg>
