<svg width="13" height="19" viewBox="0 0 13 19" fill="none" xmlns="http://www.w3.org/2000/svg">
<g clip-path="url(#clip0_9_136)">
<path d="M7.86574 10.8959C7.75898 11.693 7.02591 12.2482 6.22879 12.1343C5.43166 12.0204 4.87652 11.2945 4.9904 10.4973C5.10427 9.70022 5.83023 9.14508 6.62735 9.25895C6.62735 9.25895 6.62735 9.25895 6.63447 9.25895C7.42448 9.37283 7.97962 10.1059 7.86574 10.8959Z" fill="#FDC113"/>
<path d="M5.22523 11.2872C4.89784 10.6253 5.16829 9.81397 5.8373 9.48658C6.02235 9.39406 6.22163 9.35135 6.42803 9.35135C6.49209 9.35135 6.55614 9.35847 6.62019 9.36559C7.35327 9.47235 7.8657 10.1485 7.75894 10.8815C7.66642 11.5292 7.12552 12.0132 6.47073 12.0345H6.39956C6.37109 12.0345 6.34262 12.0345 6.32127 12.0345C6.28569 12.0345 6.2501 12.0274 6.21452 12.0274L6.16469 12.0203C6.10776 12.0061 6.05082 11.9918 5.99388 11.9776L5.94406 11.9562C5.66649 11.8495 5.43874 11.6502 5.28216 11.394C5.27505 11.3798 5.26081 11.3584 5.2537 11.3513C5.24658 11.3299 5.23234 11.3086 5.22523 11.2872ZM6.42803 9.2446C5.7092 9.2446 5.10423 9.77127 4.99748 10.4759C4.99748 10.483 4.99748 10.483 4.99748 10.4901V10.5043C4.89784 11.2659 5.41027 11.9776 6.17181 12.1199L6.22875 12.1271C6.25722 12.1342 6.28569 12.1342 6.31416 12.1342C6.35686 12.1413 6.39956 12.1413 6.43515 12.1413C7.11128 12.1413 7.70201 11.6716 7.85147 11.0097C7.85859 10.9741 7.8657 10.9314 7.87282 10.8958C7.87994 10.846 7.88705 10.789 7.88705 10.7392C7.90841 10.0346 7.43155 9.42253 6.74119 9.27306C6.7056 9.26595 6.67713 9.25883 6.64155 9.25883C6.60596 9.25171 6.57037 9.25171 6.54191 9.2446C6.50632 9.23748 6.46362 9.23748 6.42803 9.2446Z" fill="#FDD803"/>
<path d="M6.39251 9.56495C6.34269 9.74999 7.18252 10.0204 7.22522 9.77134C7.27504 9.52936 6.47792 9.23756 6.39251 9.56495Z" fill="white"/>
<path d="M12.008 9.25191C12.3211 9.9921 11.9866 10.839 11.2464 11.1593C10.5062 11.4725 9.65928 11.138 9.33901 10.3978C9.01873 9.65759 9.36036 8.81065 10.1005 8.49037C10.8336 8.1701 11.6877 8.51172 12.008 9.25191Z" fill="#E82264"/>
<path d="M9.95109 10.9525C9.32478 10.554 9.13973 9.72837 9.53829 9.10206C9.93685 8.47575 10.7624 8.2907 11.3888 8.68926C12.0151 9.08783 12.2001 9.91342 11.8016 10.5397C11.7019 10.7034 11.5596 10.8387 11.403 10.9454C11.3603 10.9739 11.3176 11.0023 11.2749 11.0237C11.2464 11.0379 11.2108 11.0522 11.1752 11.0664L11.1325 11.0806C11.0756 11.102 11.0187 11.1162 10.9617 11.1305L10.9119 11.1376C10.8407 11.1518 10.7624 11.1589 10.6842 11.1589C10.4635 11.1589 10.25 11.1091 10.0507 11.0023C10.0294 10.9952 10.0151 10.981 10.0009 10.9739L9.95109 10.9525ZM10.6699 8.37611C9.86568 8.37611 9.21802 9.02377 9.21802 9.82801C9.21802 10.6323 9.86568 11.2799 10.6699 11.2799C10.8407 11.2799 11.0044 11.2515 11.161 11.1945C11.1895 11.1874 11.2108 11.1732 11.2393 11.166L11.2962 11.1447C11.8941 10.86 12.2215 10.2052 12.0934 9.55756C12.072 9.45792 12.0435 9.35828 12.0008 9.26576C11.9795 9.21594 11.9581 9.16611 11.9297 9.11629C11.6806 8.65368 11.1966 8.36899 10.6699 8.37611Z" fill="#EF4A67"/>
<path d="M10.0578 8.88163C10.1076 9.06668 10.9688 8.8674 10.8834 8.62541C10.7908 8.39055 9.96523 8.55424 10.0578 8.88163Z" fill="white"/>
<path d="M5.44617 10.4907C5.21131 11.2593 4.40706 11.6935 3.63841 11.4586C2.86975 11.2238 2.4356 10.4195 2.67047 9.65086C2.90534 8.8822 3.70958 8.44805 4.47824 8.68292C5.24689 8.91067 5.68104 9.72203 5.44617 10.4907Z" fill="#8CC34A"/>
<path d="M2.77711 10.4696C2.55648 9.76501 2.94792 9.01059 3.65252 8.78995C4.35713 8.56932 5.11155 8.96077 5.33218 9.66537C5.55281 10.37 5.16137 11.1244 4.45677 11.345C4.32866 11.3877 4.19343 11.4091 4.0582 11.4091C4.00127 11.4091 3.94433 11.402 3.88739 11.3948C3.83757 11.3877 3.78775 11.3806 3.73793 11.3735C3.70234 11.3664 3.66676 11.3593 3.63829 11.345L3.59559 11.3308C3.53865 11.3094 3.48883 11.2881 3.43189 11.2596L3.38207 11.2311C3.12585 11.0817 2.92657 10.8539 2.8127 10.5764C2.80558 10.555 2.79846 10.5408 2.79134 10.5265C2.79134 10.5194 2.78423 10.491 2.77711 10.4696ZM4.0582 8.61914C3.43901 8.61914 2.88387 9.0177 2.68459 9.60131C2.67747 9.61555 2.67747 9.62978 2.67035 9.64402L2.66323 9.66537C2.45684 10.3771 2.82693 11.1315 3.51018 11.4091C3.55288 11.4233 3.59559 11.4375 3.63829 11.4518C3.66676 11.4589 3.68811 11.466 3.71658 11.4731C4.49947 11.6582 5.28236 11.1813 5.46741 10.3984C5.6311 9.72942 5.29659 9.03194 4.67028 8.74013C4.61334 8.71166 4.54929 8.69031 4.48523 8.66896C4.44253 8.65473 4.39271 8.64761 4.35001 8.63337C4.25037 8.62626 4.15784 8.61914 4.0582 8.61914Z" fill="#B9D64F"/>
<path d="M4.19344 8.95384C4.11515 9.13177 4.90515 9.53033 4.99056 9.28835C5.07597 9.04636 4.33578 8.64068 4.19344 8.95384Z" fill="white"/>
<path d="M2.94079 10.6538C2.35007 11.2019 1.43195 11.1663 0.891045 10.5756C0.350138 9.98483 0.378607 9.06672 0.969334 8.52581C1.56006 7.9849 2.47818 8.01337 3.01908 8.6041C3.56711 9.18771 3.53152 10.1058 2.94079 10.6538Z" fill="#39A4DD"/>
<path d="M0.634738 9.3518C0.762848 8.61873 1.46033 8.13477 2.1934 8.26288C2.92647 8.39098 3.41044 9.08847 3.28233 9.82154C3.15422 10.5546 2.45674 11.0386 1.72367 10.9105C1.51015 10.8749 1.31087 10.7824 1.14006 10.6542C1.09736 10.6258 1.06177 10.5973 1.02618 10.5617C0.997715 10.5404 0.976363 10.5119 0.955012 10.4834L0.926543 10.4479C0.890957 10.4051 0.855371 10.3553 0.826902 10.3055L0.784199 10.2628C0.641855 10.0066 0.584918 9.70055 0.620504 9.40874C0.627621 9.38739 0.627621 9.36604 0.634738 9.3518ZM1.95142 8.13477C1.15429 8.13477 0.499512 8.78955 0.499512 9.58667C0.499512 9.86424 0.577801 10.1276 0.727262 10.3624C0.819785 10.5048 0.93366 10.6329 1.06889 10.7397C1.70232 11.2307 2.61332 11.1097 3.1044 10.4692C3.59549 9.83577 3.4745 8.92477 2.83395 8.43369C2.58485 8.24152 2.27169 8.14188 1.95142 8.13477Z" fill="#2CC4EE"/>
<path d="M2.63456 8.69672C2.47799 8.8106 2.95484 9.55078 3.147 9.38709C3.33917 9.21628 2.91213 8.49744 2.63456 8.69672Z" fill="white"/>
<path d="M9.75179 9.44392C10.3496 9.97771 10.4066 10.8887 9.8799 11.4937C9.34611 12.0915 8.43511 12.1484 7.83015 11.6218C7.23231 11.0951 7.17537 10.177 7.70204 9.57203C8.23583 8.96707 9.14683 8.91013 9.75179 9.44392Z" fill="#904098"/>
<path d="M8.62739 11.8639C7.89432 11.7714 7.36765 11.1023 7.46017 10.3693C7.5527 9.6362 8.22171 9.10952 8.95478 9.20205C9.68785 9.29457 10.2145 9.96359 10.122 10.6967C10.1007 10.8888 10.0366 11.0668 9.93696 11.2304C9.90849 11.2731 9.88002 11.3159 9.85155 11.3586C9.8302 11.387 9.80885 11.4155 9.78749 11.444L9.75191 11.4795C9.70921 11.5223 9.6665 11.5578 9.61668 11.5934L9.57398 11.6219C9.34623 11.7785 9.08289 11.8639 8.80532 11.871C8.78397 11.871 8.76262 11.871 8.74127 11.871C8.71992 11.871 8.70568 11.871 8.68433 11.871L8.62739 11.8639ZM8.79109 9.08105C8.39253 9.08105 8.01531 9.24475 7.74486 9.52944L7.70216 9.57214C7.68081 9.59349 7.66657 9.61484 7.65234 9.63619C7.20396 10.2056 7.24666 11.024 7.75198 11.5436C7.77333 11.5721 7.8018 11.5934 7.83027 11.6148C7.85874 11.6361 7.87297 11.6504 7.89432 11.6646C8.52775 12.1628 9.43875 12.0489 9.92984 11.4226C10.428 10.7892 10.3142 9.87818 9.68785 9.38709C9.43164 9.18781 9.11136 9.08105 8.79109 9.08105Z" fill="#BC5BA3"/>
<path d="M7.83027 9.94176C7.95838 10.0841 8.64875 9.53608 8.4637 9.35815C8.27866 9.18734 7.60252 9.68554 7.83027 9.94176Z" fill="white"/>
<path d="M3.30374 12.7394C2.94076 13.4511 2.06535 13.7358 1.34651 13.3728C0.627676 13.0099 0.350105 12.1344 0.713082 11.4156C1.07606 10.6968 1.95147 10.4192 2.67031 10.7822C3.38914 11.1523 3.67383 12.0277 3.30374 12.7394Z" fill="#FDC113"/>
<path d="M0.691732 12.3122C0.563623 11.5791 1.05471 10.8888 1.78066 10.7607C2.50661 10.6325 3.2041 11.1236 3.33221 11.8496C3.46032 12.5827 2.96923 13.273 2.24328 13.4011C2.02976 13.4367 1.81625 13.4225 1.60985 13.3584C1.56003 13.3442 1.51021 13.33 1.46751 13.3086C1.43192 13.2944 1.40345 13.2801 1.36786 13.2659L1.32516 13.2446C1.27534 13.2161 1.22552 13.1805 1.1757 13.1449L1.133 13.1093C0.905248 12.9172 0.74867 12.6538 0.691732 12.362C0.691732 12.3407 0.691732 12.3264 0.691732 12.3122ZM1.51733 10.718C1.1757 10.8389 0.891013 11.0952 0.720201 11.4154C0.705966 11.451 0.684615 11.4795 0.67038 11.5151C0.39281 12.177 0.641912 12.9528 1.26111 13.3228C1.28958 13.3371 1.31804 13.3584 1.34651 13.3655C1.37498 13.3798 1.40345 13.394 1.4248 13.4011C2.0867 13.6929 2.86247 13.451 3.23969 12.8389C3.26104 12.8033 3.27527 12.7748 3.29662 12.7392C3.32509 12.6823 3.35356 12.6254 3.37491 12.5684C3.64537 11.814 3.25392 10.9813 2.4995 10.7108C2.18634 10.597 1.8376 10.6041 1.51733 10.718Z" fill="#FDD803"/>
<path d="M2.343 11.0027C2.23624 11.1593 2.94085 11.6931 3.06184 11.4725C3.18283 11.2518 2.53517 10.7252 2.343 11.0027Z" fill="white"/>
<path d="M5.4032 13.0453C4.81247 13.5933 3.89435 13.5578 3.35345 12.967C2.81254 12.3763 2.84101 11.4582 3.43174 10.9173C4.02246 10.3693 4.93346 10.4048 5.48149 10.9956C6.02239 11.5863 5.98681 12.5044 5.4032 13.0453Z" fill="#F06492"/>
<path d="M3.09002 11.7502C3.21813 11.0172 3.91562 10.5332 4.64869 10.6613C5.38176 10.7894 5.86573 11.4869 5.73762 12.22C5.60951 12.953 4.91202 13.437 4.17895 13.3089C3.96544 13.2733 3.77327 13.1879 3.60246 13.0527C3.55976 13.0242 3.51705 12.9886 3.48147 12.953C3.453 12.9317 3.43165 12.9032 3.4103 12.8748L3.38183 12.8392C3.34624 12.7965 3.31066 12.7466 3.28219 12.6968L3.25372 12.6541C3.11137 12.3979 3.05444 12.0919 3.09002 11.8001C3.09002 11.7787 3.09714 11.7645 3.09002 11.7502ZM4.42094 10.5332H4.38535C3.58111 10.5546 2.94768 11.2165 2.96903 12.0207C2.96903 12.0563 2.96903 12.099 2.97615 12.1346C2.9975 12.341 3.06155 12.5403 3.16831 12.7253C3.21813 12.8107 3.28219 12.8961 3.34624 12.9673C3.36759 12.9957 3.39606 13.0171 3.41741 13.0385C4.00102 13.5865 4.91914 13.558 5.46716 12.9744C6.01519 12.3908 5.98672 11.4727 5.40311 10.9246C5.13266 10.6755 4.7768 10.5332 4.4067 10.5332" fill="#F59395"/>
<path d="M5.09719 11.0881C4.94061 11.2019 5.41747 11.9421 5.61675 11.7784C5.81603 11.6147 5.36764 10.8888 5.09719 11.0881Z" fill="white"/>
<path d="M6.88354 10.7471C6.88354 10.7542 6.89066 10.7613 6.89066 10.7755C6.89066 10.7684 6.89066 10.7613 6.88354 10.7471Z" fill="#FFD10D"/>
<path d="M7.76609 12.7531C7.63086 13.5431 6.88356 14.0769 6.09355 13.9416C5.30354 13.8064 4.76975 13.0591 4.90498 12.2691C5.04021 11.4791 5.78751 10.9453 6.57752 11.0805C7.36753 11.2086 7.8942 11.963 7.76609 12.7531Z" fill="#39A4DD"/>
<path d="M5.11139 13.0667C4.79824 12.3906 5.09716 11.5934 5.76618 11.2874C5.94411 11.2091 6.13627 11.1664 6.32843 11.1664C6.40672 11.1664 6.47789 11.1735 6.55618 11.1877C7.28925 11.3087 7.78746 11.992 7.66646 12.7251C7.55971 13.3798 6.99745 13.8567 6.33555 13.8567H6.29285C6.25726 13.8567 6.21456 13.8567 6.17897 13.8496C6.14339 13.8496 6.1078 13.8425 6.07221 13.8353L6.02239 13.8282C5.96546 13.814 5.90852 13.7998 5.85158 13.7784L5.80176 13.7571C5.53131 13.6432 5.30356 13.4368 5.1541 13.1806C5.14698 13.1663 5.13275 13.145 5.12563 13.1307C5.13275 13.1165 5.12563 13.088 5.11139 13.0667ZM6.32843 11.0596C6.29285 11.0596 6.25014 11.0596 6.21456 11.0668C5.41743 11.1308 4.81959 11.8354 4.89076 12.6325C4.95482 13.387 5.58113 13.9634 6.33555 13.9634C6.38537 13.9634 6.42807 13.9634 6.47078 13.9563C7.2679 13.878 7.85863 13.1734 7.78034 12.3763C7.70917 11.6219 7.08286 11.0525 6.32843 11.0596Z" fill="#2CC4EE"/>
<path d="M6.32847 11.3869C6.27154 11.5719 7.10425 11.8637 7.16118 11.6218C7.211 11.3727 6.421 11.0595 6.32847 11.3869Z" fill="white"/>
<path d="M11.4031 11.4658C10.9831 11.7434 10.4351 11.7576 10.001 11.5014C10.0152 11.5085 10.0294 11.5228 10.0508 11.5299C10.243 11.6295 10.4636 11.6865 10.6842 11.6865C10.7625 11.6865 10.8337 11.6793 10.912 11.6651L10.9618 11.658C11.0187 11.6438 11.0757 11.6295 11.1326 11.6082L11.1753 11.5939C11.2109 11.5797 11.2394 11.5655 11.275 11.5512C11.3177 11.5228 11.3604 11.5014 11.4031 11.4658Z" fill="#F26B48"/>
<path d="M5.37468 14.8673C5.00459 15.579 4.12917 15.8566 3.41745 15.4865C2.70573 15.1164 2.42816 14.241 2.79826 13.5293C3.16835 12.8176 4.04377 12.54 4.75548 12.9101C5.4672 13.2802 5.74477 14.1556 5.37468 14.8673Z" fill="#904098"/>
<path d="M2.75548 14.3546C2.67007 13.6215 3.19674 12.9525 3.92981 12.86C4.66288 12.7746 5.3319 13.3012 5.42442 14.0343C5.50983 14.7674 4.98316 15.4364 4.25009 15.5289C4.05792 15.5503 3.86576 15.536 3.68071 15.472C3.63089 15.4577 3.58819 15.4435 3.53837 15.4222C3.50278 15.4079 3.47431 15.3937 3.43873 15.3795L3.39602 15.3581C3.3462 15.3296 3.29638 15.294 3.25368 15.2585L3.21098 15.2229C2.99034 15.0307 2.83377 14.7674 2.77683 14.4756C2.76971 14.4542 2.76971 14.44 2.76971 14.4186C2.76971 14.4044 2.76259 14.3759 2.75548 14.3546ZM4.09351 12.7461C3.28927 12.7461 2.6416 13.3938 2.6416 14.198C2.6416 14.8813 3.12557 15.4791 3.79459 15.6143C3.89423 15.6357 3.99387 15.6428 4.08639 15.6428C4.57036 15.6428 5.02586 15.4008 5.29631 14.9951C5.32478 14.9524 5.34613 14.9097 5.3746 14.867C5.39595 14.8314 5.41019 14.7887 5.43154 14.7531C5.73758 14.013 5.38172 13.166 4.64153 12.86C4.47072 12.7888 4.27855 12.7461 4.09351 12.7461Z" fill="#BC5BA3"/>
<path d="M4.42806 13.1241C4.3213 13.2807 5.01879 13.8216 5.1469 13.6009C5.27501 13.3803 4.62023 12.8465 4.42806 13.1241Z" fill="white"/>
<path d="M6.49219 14.8965C6.49219 14.9036 6.49931 14.9178 6.49931 14.925C6.49931 14.9178 6.49219 14.9107 6.49219 14.8965Z" fill="#EF8272"/>
<path d="M7.49562 14.9535C7.41022 15.7506 6.69138 16.3271 5.89426 16.2417C5.09713 16.1563 4.52064 15.4375 4.60604 14.6403C4.69145 13.8432 5.41029 13.2667 6.20741 13.3521C7.00454 13.4375 7.58103 14.1564 7.49562 14.9535Z" fill="#F06492"/>
<path d="M4.8979 15.487C4.52069 14.8536 4.72709 14.028 5.36052 13.6436C5.56692 13.5227 5.80178 13.4515 6.04377 13.4515C6.09359 13.4515 6.14341 13.4515 6.19323 13.4586C6.93342 13.5369 7.46009 14.2059 7.3818 14.939C7.31063 15.5866 6.78396 16.092 6.12917 16.1347C6.09359 16.1418 6.058 16.1418 6.0153 16.1418H5.9726C5.93701 16.1418 5.90142 16.1418 5.86584 16.1347L5.81602 16.1275C5.75908 16.1204 5.70214 16.1062 5.64521 16.0848L5.59539 16.0706C5.31781 15.971 5.07583 15.7788 4.91925 15.5297L4.8979 15.487ZM6.05089 13.3447C5.97971 13.3447 5.90854 13.3518 5.83737 13.359C5.49574 13.4088 5.18259 13.5867 4.95484 13.85C4.43528 14.455 4.49934 15.3731 5.11142 15.8998C5.33205 16.092 5.60962 16.213 5.90142 16.2414C5.95836 16.2485 6.00818 16.2485 6.06512 16.2485H6.13629C6.94053 16.2058 7.55261 15.5226 7.50991 14.7255C7.47432 14.0636 6.99747 13.5084 6.34981 13.3803C6.3071 13.3732 6.2644 13.3661 6.2217 13.359C6.15764 13.3447 6.10071 13.3447 6.05089 13.3447Z" fill="#F59395"/>
<path d="M5.97959 13.6724C5.93689 13.8575 6.78383 14.1066 6.81942 13.8575C6.855 13.6084 6.05788 13.345 5.97959 13.6724Z" fill="white"/>
<path d="M6.07924 16.9955C6.00095 17.7927 5.28923 18.3763 4.4921 18.298C3.69498 18.2197 3.11137 17.508 3.18966 16.7109C3.26795 15.9137 3.97967 15.3301 4.77679 15.4084C5.58103 15.4867 6.15753 16.1984 6.07924 16.9955Z" fill="#E82264"/>
<path d="M3.48866 17.5436C3.10433 16.9102 3.31073 16.0846 3.94416 15.7003C4.15055 15.5722 4.39254 15.5081 4.63452 15.5081C4.68434 15.5081 4.72705 15.5081 4.76975 15.5152C5.50994 15.5935 6.04373 16.2483 5.96544 16.9885C5.90138 17.6362 5.37471 18.1415 4.72705 18.1913C4.68434 18.1984 4.64164 18.1984 4.60605 18.1984H4.57759C4.542 18.1984 4.50641 18.1984 4.47083 18.1913L4.42101 18.1842C4.36407 18.1771 4.30713 18.1628 4.2502 18.1486L4.20037 18.1273C3.9228 18.0276 3.68082 17.8426 3.51713 17.5935C3.50289 17.5792 3.49577 17.5579 3.48866 17.5436ZM4.63452 15.4014C3.83028 15.4014 3.18262 16.049 3.18262 16.8533C3.18262 17.6575 3.83028 18.3052 4.63452 18.3052C5.33201 18.3052 5.93697 17.807 6.05796 17.1166C6.06508 17.081 6.0722 17.0383 6.0722 17.0027C6.07931 16.96 6.07931 16.9387 6.07931 16.9031C6.10066 16.0989 5.46723 15.4298 4.66299 15.4085C4.65587 15.4014 4.64876 15.4014 4.63452 15.4014Z" fill="#EF4A67"/>
<path d="M4.55625 15.729C4.51355 15.914 5.36049 16.156 5.39608 15.9069C5.43166 15.6578 4.62742 15.4016 4.55625 15.729Z" fill="white"/>
<path d="M3.49599 14.6469C3.18995 15.3871 2.33589 15.7359 1.5957 15.4298C0.85551 15.1238 0.506768 14.2697 0.812807 13.5295C1.11885 12.7893 1.97291 12.4406 2.7131 12.7466C3.45328 13.0527 3.80203 13.9067 3.49599 14.6469Z" fill="#E82264"/>
<path d="M0.855472 14.4261C0.670425 13.7072 1.10457 12.9742 1.82341 12.7891C2.54225 12.6041 3.27532 13.0382 3.46036 13.757C3.64541 14.4759 3.21126 15.209 2.49242 15.394C2.28603 15.4438 2.07251 15.4509 1.859 15.4011C1.80917 15.394 1.75935 15.3798 1.70953 15.3655C1.67395 15.3584 1.64548 15.3442 1.60989 15.3299L1.56719 15.3086C1.51737 15.2801 1.46043 15.2517 1.41773 15.2232L1.37503 15.1947C1.14016 15.0168 0.962229 14.7677 0.876823 14.4901C0.862589 14.4545 0.862589 14.4403 0.855472 14.4261ZM2.15792 12.6396C1.58854 12.6396 1.0761 12.9742 0.83412 13.4866C0.827003 13.5008 0.819886 13.5151 0.812768 13.5293C0.805651 13.5435 0.805651 13.5506 0.798534 13.5649C0.513847 14.298 0.869706 15.1235 1.59566 15.4225C1.73089 15.4794 1.87323 15.515 2.02269 15.5292C2.06539 15.5363 2.1081 15.5363 2.15792 15.5363C2.649 15.5363 3.1045 15.2872 3.37496 14.8816C3.46748 14.7463 3.53153 14.5898 3.56712 14.4332C3.73793 13.7428 3.37496 13.0311 2.72017 12.7535H2.71306L2.70594 12.7464C2.53513 12.6752 2.35008 12.6396 2.15792 12.6396Z" fill="#EF4A67"/>
<path d="M2.0582 13.0952C2.0155 13.2802 2.86244 13.5222 2.89803 13.2731C2.93362 13.024 2.12937 12.7678 2.0582 13.0952Z" fill="white"/>
<path d="M2.69165 15.5938C2.69877 15.6009 2.70588 15.608 2.713 15.608C2.70588 15.6009 2.69877 15.6009 2.69165 15.5938Z" fill="#92C83E"/>
<path d="M9.85848 11.9142C10.1005 12.6757 9.68055 13.4942 8.91901 13.7362C8.15748 13.9782 7.339 13.5582 7.09701 12.7967C6.85503 12.0352 7.27494 11.2167 8.03648 10.9747C8.7909 10.7327 9.60938 11.1526 9.85848 11.9142Z" fill="#8CC34A"/>
<path d="M7.70201 13.4513C7.09705 13.0242 6.95471 12.1844 7.38174 11.5795C7.80877 10.9745 8.6486 10.8321 9.25356 11.2592C9.85852 11.6862 10.0009 12.526 9.57383 13.131C9.45284 13.3018 9.28915 13.4442 9.09698 13.5438C9.05428 13.5723 9.00446 13.5936 8.96175 13.6079C8.92617 13.6221 8.8977 13.6363 8.86211 13.6434L8.81941 13.6577C8.76247 13.6719 8.70554 13.6861 8.6486 13.6861L8.59878 13.6933C8.57031 13.6933 8.53472 13.7004 8.50625 13.7004C8.24292 13.7004 7.9867 13.6221 7.75895 13.4797C7.72336 13.4726 7.70913 13.4655 7.70201 13.4513ZM8.47779 10.9033C7.67354 10.9033 7.02588 11.551 7.02588 12.3552C7.02588 13.1595 7.67354 13.8071 8.47779 13.8071C8.59878 13.8071 8.71977 13.7929 8.83364 13.7644L8.91193 13.7431C8.93329 13.736 8.95464 13.7288 8.97599 13.7217C9.73041 13.4442 10.1076 12.6043 9.83005 11.857C9.62365 11.2805 9.07563 10.9033 8.47779 10.9033Z" fill="#B9D64F"/>
<path d="M8.65581 12.5618C8.70563 12.5618 8.75545 12.5547 8.80527 12.5405C8.89068 12.5191 8.96897 12.4835 9.04014 12.4408C9.11843 12.3981 9.1896 12.3483 9.25366 12.2914C9.32483 12.2344 9.38177 12.1775 9.43159 12.1063H9.4387C9.38888 12.1846 9.33194 12.2486 9.26789 12.3056C9.20384 12.3625 9.13266 12.4195 9.05437 12.4693C8.97609 12.5191 8.8978 12.5547 8.81239 12.576C8.7768 12.5832 8.74834 12.5903 8.71275 12.5903C8.65581 12.5903 8.59887 12.576 8.54905 12.5476V12.5405C8.58464 12.5547 8.62023 12.5618 8.65581 12.5618ZM9.15402 12.1205C9.13266 12.1205 9.1042 12.1063 9.1042 12.085C9.09708 12.0565 9.11131 12.0209 9.13978 12.0138C9.1469 12.0138 9.15402 12.0138 9.15402 12.0138C9.17537 12.0138 9.19672 12.028 9.20384 12.0494C9.21095 12.0778 9.19672 12.1134 9.16825 12.1205H9.15402ZM8.1932 12.3625C8.05085 12.3625 7.93698 12.2486 7.93698 12.0992C7.93698 11.9853 8.00815 11.8857 8.11491 11.8501C8.14337 11.843 8.16473 11.8359 8.1932 11.8359C8.33554 11.8359 8.44941 11.9497 8.44941 12.0992C8.44941 12.2131 8.37824 12.3127 8.27148 12.3483C8.24302 12.3554 8.22166 12.3625 8.1932 12.3625ZM8.42095 11.665C8.37113 11.665 8.3213 11.665 8.26437 11.6722C8.14337 11.6793 8.0295 11.7077 7.92274 11.7647C7.49571 12.0351 7.48859 12.2914 7.55265 12.5689C7.62382 12.8821 7.68076 13.1169 7.64517 13.4159L7.68076 13.4443L7.69499 13.4586C8.03662 13.7006 8.47788 13.7717 8.87644 13.6436C8.94762 13.6223 9.01879 13.5938 9.08996 13.5582C8.91915 13.2024 9.13266 12.7326 9.26077 12.4835C9.28924 12.4266 9.33194 12.3554 9.37465 12.2771C9.54546 11.9853 9.51699 11.7077 9.03302 11.7077H8.94762C8.85509 11.7077 8.76257 11.7006 8.66293 11.6935C8.57752 11.6722 8.49923 11.665 8.42095 11.665Z" fill="#92C83E"/>
<path d="M7.95121 11.3663C7.9868 11.5585 8.86221 11.4375 8.79815 11.1955C8.7341 10.9535 7.88715 11.0318 7.95121 11.3663Z" fill="white"/>
<path d="M9.16101 12.0137C9.15389 12.0137 9.14677 12.0137 9.14677 12.0137C9.11831 12.0208 9.10407 12.0564 9.11119 12.0848C9.11831 12.1062 9.13966 12.1275 9.16101 12.1204H9.17524C9.20371 12.1133 9.21795 12.0777 9.21083 12.0493C9.20371 12.0279 9.18236 12.0137 9.16101 12.0137Z" fill="#C0DA72"/>
<path d="M8.49191 11.6004C8.41362 11.6076 8.33533 11.6289 8.26416 11.6716C8.31398 11.6645 8.3638 11.6645 8.42074 11.6645C8.49903 11.6645 8.58443 11.6716 8.66272 11.6859C8.65561 11.6787 8.64849 11.6716 8.64849 11.6645C8.62714 11.6432 8.59867 11.6289 8.56308 11.6147C8.54173 11.6004 8.51326 11.5933 8.49191 11.6004Z" fill="#68BD45"/>
<path d="M8.19316 12.2843C8.09352 12.2843 8.00811 12.1989 8.00811 12.0993C8.00811 12.021 8.05793 11.9498 8.13622 11.9285C8.15045 11.9213 8.17181 11.9213 8.19316 11.9213C8.2928 11.9213 8.3782 12.0067 8.3782 12.1064C8.3782 12.1847 8.32838 12.2559 8.2501 12.2772C8.22874 12.2843 8.21451 12.2843 8.19316 12.2843ZM8.19316 11.8359C8.16469 11.8359 8.14334 11.8431 8.11487 11.8502C7.97964 11.8929 7.90135 12.0423 7.94406 12.1776C7.97964 12.2843 8.07928 12.3555 8.19316 12.3555C8.22163 12.3555 8.24298 12.3484 8.27145 12.3413C8.40667 12.2986 8.48496 12.1491 8.44226 12.0139C8.40667 11.9142 8.30703 11.8359 8.19316 11.8359Z" fill="#C0DA72"/>
<path d="M8.19311 11.9209C8.17176 11.9209 8.15752 11.9209 8.13617 11.928C8.04365 11.9565 7.98671 12.0632 8.01518 12.1558C8.03653 12.2341 8.1077 12.2839 8.18599 12.2839C8.20734 12.2839 8.22158 12.2839 8.24293 12.2768C8.33545 12.2483 8.39239 12.1415 8.36392 12.049C8.34257 11.9707 8.2714 11.9209 8.19311 11.9209Z" fill="#92C83E"/>
<path d="M9.43868 12.1064C9.38886 12.1776 9.32481 12.2417 9.26075 12.2915C9.1967 12.3484 9.12553 12.3983 9.04724 12.441C8.96895 12.4837 8.89066 12.5121 8.81237 12.5406C8.76255 12.5548 8.71273 12.5619 8.66291 12.5619C8.62732 12.5619 8.59174 12.5548 8.55615 12.5477V12.5548C8.60597 12.5833 8.66291 12.5975 8.71985 12.5975C8.75543 12.5975 8.79102 12.5904 8.81949 12.5833C8.90489 12.5619 8.9903 12.5264 9.06147 12.4765C9.13976 12.4267 9.21093 12.3769 9.27499 12.3128C9.33904 12.2559 9.39598 12.1847 9.4458 12.1136L9.43868 12.1064Z" fill="#7DC242"/>
<path d="M8.57739 10.3691L8.60586 10.3763C8.59874 10.3763 8.58451 10.3691 8.57739 10.3691Z" fill="#A04895"/>
<path d="M9.26076 13.3228C9.86572 13.8495 9.92266 14.7676 9.38887 15.3726C8.86219 15.9775 7.94408 16.0345 7.33912 15.5007C6.73416 14.974 6.67722 14.0559 7.21101 13.4509C7.7448 12.846 8.66291 12.789 9.26076 13.3228Z" fill="#904098"/>
<path d="M8.20036 15.7499C7.46017 15.693 6.91215 15.0453 6.96908 14.3122C7.02602 13.572 7.67368 13.024 8.40675 13.081C9.14694 13.1379 9.69497 13.7856 9.63803 14.5186C9.62379 14.7321 9.55262 14.9385 9.43875 15.1236C9.4174 15.1663 9.38893 15.209 9.35334 15.2446C9.33199 15.273 9.31064 15.3015 9.28217 15.33L9.24658 15.3656C9.20388 15.4083 9.16118 15.451 9.11136 15.4794L9.06865 15.5079C8.8409 15.6645 8.57757 15.7499 8.3 15.757C8.27865 15.757 8.25729 15.757 8.23594 15.757C8.22882 15.7499 8.20747 15.7499 8.20036 15.7499ZM8.3 12.96C7.69504 12.96 7.15413 13.3372 6.94061 13.9065C6.66304 14.661 7.04737 15.4937 7.79468 15.7713C8.32847 15.9705 8.92631 15.8353 9.33199 15.4367C9.35334 15.4154 9.36757 15.394 9.38893 15.3798L9.4174 15.3442C9.90848 14.7606 9.85866 13.8923 9.31064 13.3656C9.2964 13.3514 9.28217 13.3372 9.26793 13.3229L9.22523 13.2874C8.9619 13.0738 8.64162 12.96 8.3 12.96Z" fill="#BC5BA3"/>
<path d="M7.33918 13.8207C7.46729 13.963 8.15766 13.415 7.97261 13.2371C7.79468 13.0662 7.11855 13.5644 7.33918 13.8207Z" fill="white"/>
<path d="M8.81226 15.9707L8.83361 15.9849C8.82649 15.9778 8.81937 15.9707 8.81226 15.9707Z" fill="#FFD10D"/>
<path d="M9.70205 15.6933C10.2501 16.2769 10.2145 17.195 9.63088 17.7431C9.04727 18.2911 8.12915 18.2555 7.58113 17.6719C7.0331 17.0883 7.06869 16.1702 7.6523 15.6221C8.23591 15.0741 9.15403 15.1097 9.70205 15.6933Z" fill="#FDC113"/>
<path d="M8.4068 18.0069C7.67373 17.8788 7.18976 17.1813 7.31787 16.4482C7.44598 15.7151 8.14346 15.2312 8.87653 15.3593C9.6096 15.4874 10.0936 16.1849 9.96546 16.9179C9.92988 17.1315 9.84447 17.3236 9.70924 17.4944C9.68077 17.5371 9.64519 17.5727 9.6096 17.6154C9.58825 17.6439 9.55978 17.6652 9.53843 17.6937L9.50285 17.7222C9.46014 17.7578 9.41032 17.7934 9.3605 17.8289L9.3178 17.8574C9.1114 17.9713 8.88365 18.0353 8.64878 18.0353C8.59185 18.0353 8.52779 18.0282 8.47085 18.0211C8.44238 18.0211 8.42815 18.014 8.4068 18.0069ZM8.64167 15.2383C8.31428 15.2383 7.994 15.3522 7.73778 15.5586C7.70931 15.5799 7.68085 15.6013 7.65949 15.6297C7.61679 15.6724 7.57409 15.7151 7.5385 15.7578C7.02606 16.3699 7.10435 17.288 7.72355 17.8005C8.33563 18.3129 9.25374 18.2346 9.76618 17.6154C10.1292 17.1813 10.2074 16.5692 9.95835 16.0568C9.83735 15.8077 9.64519 15.6013 9.41032 15.4518C9.17545 15.3095 8.91212 15.2383 8.64167 15.2383Z" fill="#FDD803"/>
<path d="M7.74479 16.006C7.85867 16.1626 8.59885 15.6787 8.43516 15.4865C8.27146 15.2943 7.54551 15.7356 7.74479 16.006Z" fill="white"/>
<path d="M8.18616 17.3152C7.9513 18.0838 7.14705 18.518 6.3784 18.2831C5.60974 18.0483 5.17559 17.2369 5.41046 16.4682C5.64533 15.6996 6.44957 15.2654 7.21823 15.5003C7.98688 15.7352 8.42103 16.5465 8.18616 17.3152Z" fill="#8CC34A"/>
<path d="M5.51711 17.2941C5.31783 16.6109 5.7164 15.892 6.39965 15.6927C7.0829 15.4935 7.80173 15.892 8.00101 16.5753C8.20029 17.2585 7.80173 17.9774 7.11848 18.1766C6.91208 18.2336 6.69145 18.2407 6.48505 18.198C6.44947 18.1909 6.41388 18.1838 6.38541 18.1695L6.34271 18.1553C6.28577 18.1339 6.23595 18.1126 6.17901 18.0841L6.12207 18.0556C5.86586 17.9062 5.66657 17.6784 5.5527 17.4009C5.54558 17.3795 5.53847 17.3653 5.53135 17.351C5.53135 17.3368 5.52423 17.3155 5.51711 17.2941ZM6.79821 15.4365C6.18613 15.4365 5.63811 15.8209 5.43171 16.3973C5.42459 16.4187 5.41747 16.44 5.41036 16.4685C5.41036 16.4756 5.40324 16.4899 5.40324 16.497C5.20396 17.2016 5.55982 17.9489 6.23595 18.2336C6.27865 18.2478 6.32136 18.2692 6.37118 18.2834C6.39965 18.2905 6.421 18.2976 6.44947 18.3048C7.09713 18.4613 7.76614 18.1624 8.0793 17.5717C8.122 17.4934 8.15759 17.408 8.18606 17.3155C8.20029 17.2799 8.20741 17.2443 8.21453 17.2016C8.37111 16.4756 7.95831 15.7426 7.24659 15.5077L7.21812 15.5006L7.15407 15.4792C7.04019 15.4579 6.9192 15.4365 6.79821 15.4365Z" fill="#B9D64F"/>
<path d="M6.79109 15.9918C6.7128 16.1697 7.50281 16.5682 7.5811 16.3263C7.66651 16.0914 6.92632 15.6857 6.79109 15.9918Z" fill="white"/>
<path d="M10.4636 11.6152C10.4707 11.6152 10.485 11.6224 10.4921 11.6224C10.485 11.6224 10.4779 11.6152 10.4636 11.6152Z" fill="#EF8272"/>
<path d="M11.6308 11.196C12.2287 11.7298 12.2714 12.6479 11.7376 13.2457C11.2038 13.8436 10.2857 13.8863 9.68784 13.3525C9.09 12.8187 9.0473 11.9006 9.58109 11.3027C10.122 10.7049 11.0401 10.6551 11.6308 11.196Z" fill="#F06492"/>
<path d="M10.4778 13.6012C9.74473 13.5015 9.23229 12.8254 9.33193 12.0923C9.43158 11.3593 10.1077 10.8468 10.8408 10.9465C11.5738 11.0461 12.0863 11.7222 11.9866 12.4553C11.9582 12.6475 11.8941 12.8254 11.7945 12.9891C11.766 13.0318 11.7375 13.0745 11.7091 13.1172C11.6877 13.1457 11.6664 13.1741 11.6379 13.1955L11.6023 13.2311C11.5596 13.2738 11.5169 13.3094 11.4671 13.345L11.4244 13.3734C11.2038 13.5229 10.9404 13.6083 10.67 13.6083C10.6415 13.6083 10.6201 13.6083 10.5917 13.6083L10.5347 13.6012H10.4778ZM10.6628 10.8184C10.2572 10.8184 9.86572 10.9892 9.58815 11.2881V11.2952L9.55968 11.3237C9.34617 11.5728 9.22518 11.8859 9.21806 12.2133C9.19671 13.0176 9.82302 13.6866 10.6273 13.7079C10.6415 13.7079 10.6557 13.7079 10.67 13.7079C10.7554 13.7079 10.8479 13.7008 10.9333 13.6866H10.9404C11.0685 13.6652 11.1895 13.6225 11.3034 13.5727H11.3105C11.5383 13.4588 11.7304 13.288 11.8728 13.0745C12.314 12.4055 12.129 11.5016 11.4529 11.0675C11.218 10.9109 10.9475 10.8255 10.6628 10.8184Z" fill="#F59395"/>
<path d="M9.70928 11.6723C9.83739 11.8147 10.5278 11.2738 10.3498 11.0958C10.1648 10.925 9.48865 11.4161 9.70928 11.6723Z" fill="white"/>
<path d="M11.0828 13.501C11.0828 13.5081 11.0899 13.5223 11.0899 13.5294C11.0899 13.5223 11.0899 13.5081 11.0828 13.501Z" fill="#FFD10D"/>
<path d="M12.0649 14.1629C11.951 14.9601 11.218 15.5081 10.4279 15.4013C9.63082 15.2874 9.08279 14.5544 9.18955 13.7644C9.30343 12.9672 10.0365 12.4192 10.8265 12.526C11.6236 12.6327 12.1788 13.3658 12.0649 14.1629Z" fill="#FDC113"/>
<path d="M9.46 14.6116C9.09702 13.9639 9.33189 13.1454 9.97956 12.7825C10.6272 12.4195 11.4457 12.6543 11.8087 13.302C12.1716 13.9497 11.9368 14.7681 11.2891 15.1311C11.097 15.2379 10.8906 15.2948 10.6699 15.3019H10.5988C10.5703 15.3019 10.5418 15.3019 10.5205 15.3019C10.4849 15.3019 10.4493 15.2948 10.4137 15.2877L10.3639 15.2806C10.3069 15.2664 10.25 15.2521 10.1931 15.2379L10.1433 15.2236C9.86568 15.1169 9.63793 14.9176 9.48135 14.6614C9.46712 14.64 9.46 14.6258 9.46 14.6116ZM10.6272 12.5049C9.82298 12.5049 9.17531 13.1597 9.18243 13.9639C9.18243 14.6472 9.6664 15.2379 10.3354 15.3802C10.3639 15.3873 10.3924 15.3945 10.4279 15.3945C10.4706 15.4016 10.5133 15.4016 10.556 15.4087C10.5845 15.4087 10.6059 15.4087 10.6343 15.4087C11.3389 15.4087 11.9368 14.9034 12.0578 14.213C12.0578 14.1988 12.0649 14.1774 12.0649 14.1632C12.0649 14.149 12.072 14.1205 12.072 14.0991C12.1432 13.3661 11.6592 12.697 10.9404 12.5405C10.9048 12.5334 10.8692 12.5262 10.8336 12.5191L10.7696 12.512C10.7197 12.5049 10.677 12.5049 10.6272 12.5049Z" fill="#FDD803"/>
<path d="M10.5917 12.8394C10.5419 13.0244 11.3817 13.2949 11.4244 13.0529C11.4743 12.8038 10.6843 12.5049 10.5917 12.8394Z" fill="white"/>
<path d="M10.8124 13.3379C10.791 13.3379 10.7626 13.3379 10.7412 13.345C10.7626 13.345 10.7768 13.345 10.7981 13.345C10.8836 13.3379 10.969 13.3664 11.033 13.4233C11.0544 13.4446 11.0757 13.4731 11.0828 13.5016C11.0544 13.3877 10.9334 13.345 10.8124 13.3379Z" fill="#FFC610"/>
<path d="M4.09377 16.2987C4.15071 17.0959 3.55286 17.7933 2.75574 17.8503C1.95861 17.9072 1.26113 17.3094 1.20419 16.5123C1.14725 15.7151 1.7451 15.0176 2.54222 14.9607C3.33223 14.8967 4.02971 15.5016 4.09377 16.2987Z" fill="#8CC34A"/>
<path d="M1.63832 17.295C1.14724 16.7398 1.20418 15.8929 1.75932 15.4018C2.31446 14.9107 3.1614 14.9676 3.65249 15.5228C4.14357 16.0779 4.08664 16.9249 3.5315 17.416C3.3678 17.5583 3.17564 17.6579 2.96924 17.7078C2.91942 17.722 2.8696 17.7291 2.81978 17.7362C2.78419 17.7434 2.74861 17.7434 2.71302 17.7505H2.6632C2.60626 17.7505 2.54221 17.7505 2.48527 17.7434L2.43545 17.7362C2.32869 17.7149 2.22193 17.6864 2.12229 17.6437C1.95148 17.5725 1.7949 17.4658 1.66679 17.3306C1.65968 17.3163 1.64544 17.3021 1.63832 17.295ZM3.20411 15.0673C3.10446 15.0246 2.99771 14.9961 2.89095 14.9748C2.77707 14.9534 2.65608 14.9463 2.53509 14.9605C2.44968 14.9676 2.37139 14.9819 2.29311 14.9961C1.64544 15.1598 1.18994 15.7434 1.18994 16.4124C1.18994 16.4409 1.18994 16.4765 1.19706 16.505C1.19706 16.5405 1.20418 16.5832 1.21129 16.626C1.33229 17.416 2.07959 17.9569 2.8696 17.8359C3.50303 17.7362 3.99411 17.238 4.08664 16.6046C4.11511 16.4053 4.10087 16.1989 4.04393 15.9996C3.91582 15.5797 3.60979 15.2381 3.20411 15.0673Z" fill="#B9D64F"/>
<path d="M2.99774 15.5793C2.88386 15.7359 3.57423 16.2839 3.70234 16.0704C3.83045 15.8569 3.1899 15.3088 2.99774 15.5793Z" fill="white"/>
<path d="M11.6736 16.3829C11.5383 17.1729 10.791 17.7067 10.001 17.5715C9.21101 17.4363 8.67722 16.689 8.81245 15.899C8.94768 15.109 9.69498 14.5752 10.485 14.7104C11.275 14.8456 11.8017 15.5929 11.6736 16.3829Z" fill="#39A4DD"/>
<path d="M9.01886 16.7036C8.70571 16.0275 9.00463 15.2304 9.67365 14.9243C9.85158 14.846 10.0437 14.8033 10.2359 14.8033C10.3142 14.8033 10.3854 14.8104 10.4637 14.8247C11.1967 14.9457 11.6949 15.6289 11.5739 16.362C11.4672 17.0168 10.9049 17.4936 10.243 17.4936H10.2003C10.1647 17.4936 10.122 17.4936 10.0864 17.4865C10.0509 17.4865 10.0153 17.4794 9.97968 17.4723L9.92986 17.4652C9.87293 17.4509 9.81599 17.4367 9.75905 17.4153L9.70923 17.394C9.43878 17.2801 9.21103 17.0737 9.06157 16.8175C9.05445 16.8033 9.04022 16.7819 9.0331 16.7677C9.04022 16.7463 9.0331 16.725 9.01886 16.7036ZM10.2359 14.6895C10.2003 14.6895 10.1576 14.6895 10.122 14.6966C9.3249 14.7606 8.72706 15.4652 8.79823 16.2624C8.86229 17.0168 9.4886 17.5933 10.243 17.5933C10.2928 17.5933 10.3355 17.5933 10.3782 17.5861C11.1754 17.5079 11.7661 16.8033 11.6878 16.0061C11.6166 15.2588 10.9903 14.6895 10.2359 14.6895Z" fill="#2CC4EE"/>
<path d="M10.2359 15.0171C10.179 15.2022 11.0117 15.494 11.0687 15.252C11.1256 15.01 10.3285 14.6969 10.2359 15.0171Z" fill="white"/>
<path opacity="0.5" d="M11.8158 5.07402C11.2393 4.07761 9.99383 3.95662 9.82302 3.77157C9.68067 3.56517 9.59526 3.32319 9.5668 3.07409L2.69159 3.05273C2.69159 3.05273 2.7343 3.7004 2.42114 3.92103C2.10798 4.14166 0.762836 4.31248 0.513734 5.98502C0.250398 7.70026 -0.354562 17.4793 1.96564 18.2479C4.28584 19.0166 10.371 19.0593 11.581 17.4793C12.7909 15.8993 12.5631 6.36934 11.8158 5.07402ZM11.3319 17.1448C10.186 18.6536 4.38548 18.618 2.17204 17.8778C-0.0414063 17.1376 0.542203 7.79278 0.784187 6.15583C1.02617 4.55446 2.44249 4.20572 2.7343 4.00644C2.7343 4.00644 3.33214 3.77869 6.16478 3.76445C8.22165 3.75022 9.38175 3.92103 10.0009 4.1132C10.4707 4.33383 11.161 4.60428 11.5525 5.29465C12.2713 6.52592 12.4777 15.6359 11.3319 17.1448Z" fill="#8BC8EE"/>
<path d="M2.59904 1.82136C2.32859 2.02776 2.26453 3.32308 2.36417 3.41561C2.68445 3.67894 8.82658 3.75011 9.75893 3.42984C10.0579 3.3302 9.59524 1.83559 9.26073 1.70036C9.06857 1.62208 7.5099 1.48685 5.97259 1.4655C4.39969 1.44415 2.84103 1.63631 2.59904 1.82136Z" fill="#E12E51"/>
<path d="M9.35322 1.77159C9.32475 1.74312 9.29628 1.71466 9.2607 1.70042C9.06853 1.62213 7.50987 1.48691 5.97256 1.46555C4.43524 1.4442 2.91217 1.62925 2.62036 1.80718C4.89786 1.98511 7.55257 1.99934 9.35322 1.77159Z" fill="#D41D52"/>
<path opacity="0.1" d="M4.17908 1.90726C3.7734 1.90014 3.14708 1.87167 2.61329 1.80762C2.60618 1.81473 2.59906 1.81473 2.59194 1.82185C2.32149 2.02825 2.25743 3.32358 2.36419 3.4161C2.54924 3.57268 4.6844 3.6652 6.6345 3.65097C5.61675 3.42322 4.7271 2.79691 4.17908 1.90726Z" fill="#642B7D"/>
<path d="M7.07578 1.53714C7.07578 1.66525 6.62028 1.74354 6.07938 1.74354C5.53847 1.74354 5.09009 1.66525 5.09009 1.54426C5.09009 0.996234 5.53135 0.547852 6.07226 0.547852C6.61317 0.547852 7.06867 0.989117 7.07578 1.53714Z" fill="#B72948"/>
<path opacity="0.2" d="M11.5524 5.30256C12.2642 6.54095 12.4777 15.6509 11.3318 17.1598C10.1859 18.6686 4.37832 18.6259 2.16487 17.8929C-0.0414578 17.1527 0.542152 7.80781 0.784136 6.17085C0.919362 5.11751 1.69514 4.25633 2.73425 4.02146C3.44596 3.8293 6.59888 3.53038 9.43864 3.98588C9.87278 4.04993 11.0044 4.34885 11.5524 5.30256Z" fill="#C9DFF2"/>
<path opacity="0.5" d="M11.1111 15.4157C11.0257 15.5295 10.9047 15.6363 10.7552 15.7288C11.5381 13.921 11.3531 7.13125 10.7908 6.1562C10.3353 5.36619 9.39585 5.11709 9.03287 5.06015C6.67708 4.68294 4.05796 4.92492 3.46723 5.08862C3.15408 5.15979 2.87651 5.30213 2.63452 5.48718C2.91921 5.00321 3.39606 4.64023 3.97255 4.50501C4.55616 4.34131 7.1824 4.09933 9.53108 4.47654C9.89405 4.53348 10.8335 4.77546 11.289 5.56547C11.8869 6.6117 12.0648 14.163 11.1111 15.4157Z" fill="white"/>
</g>
<defs>
<clipPath id="clip0_9_136">
<rect width="12.2416" height="18.22" fill="white" transform="translate(0.214844 0.547852)"/>
</clipPath>
</defs>
</svg>
