<svg width="136" height="51" viewBox="0 0 136 51" fill="none" xmlns="http://www.w3.org/2000/svg">
<g clip-path="url(#clip0_16_319)">
<path d="M0.796387 47.8296L1.5952 35.5775L2.39402 33.9422L3.19284 32.8899L3.99165 35.4877L4.79047 33.2592L5.58929 40.3214L6.3881 31.7408L7.18692 40.7718L7.98574 29.1325L8.78455 30.9791L9.58337 34.1433L10.3822 29.0833L11.181 33.7551L11.9798 27.8823L12.7786 27.871L13.5775 35.4372L14.3763 29.8534L15.1751 32.848L15.9739 33.0419L16.7727 27.1949L17.5715 33.794L18.3704 33.6826L19.1692 16.9846L19.968 0.84668L20.7668 41.0496L21.5656 50.8467L22.3644 20.9471L23.1632 40.5084L23.9621 31.1245L24.7609 31.5822L25.5597 36.6612L26.3585 28.0195L27.1573 28.2283L27.9562 33.5839L28.755 26.1934L29.5538 28.5489L30.3526 32.6866L31.1514 35.3126L31.9502 34.0011L32.7491 31.1749L33.5479 31.9056L34.3467 36.822L35.1455 40.0609L35.9443 27.1824L36.7431 36.9361L37.542 30.4101L38.3408 35.16L39.1396 32.8379L39.9384 39.3642L40.7372 32.1684L41.536 32.8756L42.3348 32.0112L43.1337 27.1239L43.9325 34.6384L44.7313 28.7115L45.5301 27.349L46.3289 28.3011L47.1277 32.7261L47.9266 36.7114L48.7254 33.4437L49.5242 32.3295L50.323 30.953L51.1218 34.9973L51.9206 32.5007L52.7195 27.8218L53.5183 42.9341L54.3171 35.104L55.1159 23.9205L55.9147 44.735L56.7135 22.8733L57.5124 30.9843L58.3112 28.1495L59.11 32.8265L59.9088 28.8323L60.7076 38.2904L61.5064 31.1399L62.3053 29.1422L63.1041 33.4891L63.9029 31.2814L64.7017 29.2251L65.5005 40.0854L66.2993 32.3856L67.0982 35.2406L67.897 34.3276L68.6958 33.8936L69.4946 31.5211L70.2934 34.3655L71.0922 31.2384L71.8911 35.8684L72.6899 31.0933L73.4887 19.8289L74.2875 38.5504L75.0863 28.3287L75.8851 27.6342L76.684 31.3633L77.4828 37.9505L78.2816 23.3448L79.0804 33.6403L79.8792 29.44L80.678 33.5643L81.4769 31.6495L82.2757 29.9214L83.0745 29.6183L83.8733 30.8146L84.6721 35.2191L85.4709 33.1962L86.2698 30.8234L87.0686 34.5097L87.8674 29.8793L88.6662 30.6027L89.465 28.8974L90.2638 31.6762L91.0627 30.6291L91.8615 29.5431L92.6603 27.8385L93.4591 32.5786L94.2579 29.609L95.0567 30.5212L95.8556 34.8167L96.6544 31.686L97.4532 33.2537L98.252 36.063L99.0508 33.0873L99.8496 28.2489L100.648 35.1507L101.447 30.6823L102.246 30.8513L103.045 33.0103L103.844 32.7296L104.643 33.106L105.441 32.6647L106.24 31.1888L107.039 33.7052L107.838 32.3767L108.637 31.4992L109.435 31.2701L110.234 31.9234L111.033 29.0898L111.832 26.7835L112.631 33.2105L113.43 23.5474L114.228 27.7719L115.027 34.7018L115.826 32.1385L116.625 31.5718L117.424 36.9524L118.222 33.2541L119.021 46.7653L119.82 22.7175L120.619 31.8913L121.418 26.9273L122.217 30.1806L123.015 28.7235L123.814 28.4256L124.613 33.34L125.412 32.805L126.211 30.9687L127.009 29.6903L127.808 36.0093L128.607 29.6872L129.406 34.3494L130.205 26.0113L131.003 33.9834L131.802 29.0898L132.601 35.488L133.4 34.4908L134.199 29.5121L134.998 48.4318" stroke="#FF3A33" stroke-width="1.25"/>
</g>
<defs>
<clipPath id="clip0_16_319">
<rect width="135" height="50" fill="white" transform="translate(0.796387 0.84668)"/>
</clipPath>
</defs>
</svg>
