<svg width="14" height="20" viewBox="0 0 14 20" fill="none" xmlns="http://www.w3.org/2000/svg">
<g clip-path="url(#clip0_2_636)">
<path d="M8.44728 11.1947C8.34053 11.9919 7.60746 12.547 6.81033 12.4331C6.01321 12.3192 5.45807 11.5933 5.57194 10.7962C5.68582 9.99905 6.41177 9.44391 7.20889 9.55778C7.20889 9.55778 7.20889 9.55778 7.21601 9.55778C8.00602 9.67166 8.56116 10.4047 8.44728 11.1947Z" fill="#FDC113"/>
<path d="M5.80701 11.5861C5.47962 10.9242 5.75008 10.1128 6.41909 9.78541C6.60414 9.69288 6.80342 9.65018 7.00982 9.65018C7.07387 9.65018 7.13793 9.6573 7.20198 9.66442C7.93505 9.77117 8.44749 10.4473 8.34073 11.1804C8.24821 11.828 7.7073 12.312 7.05252 12.3334H6.98135C6.95288 12.3334 6.92441 12.3334 6.90306 12.3334C6.86747 12.3334 6.83189 12.3262 6.7963 12.3262L6.74648 12.3191C6.68954 12.3049 6.63261 12.2907 6.57567 12.2764L6.52585 12.2551C6.24828 12.1483 6.02053 11.949 5.86395 11.6928C5.85683 11.6786 5.8426 11.6572 5.83548 11.6501C5.82837 11.6288 5.81413 11.6074 5.80701 11.5861ZM7.00982 9.54342C6.29098 9.54342 5.68602 10.0701 5.57926 10.7747C5.57926 10.7818 5.57926 10.7818 5.57926 10.7889V10.8032C5.47962 11.5647 5.99206 12.2764 6.7536 12.4188L6.81054 12.4259C6.83901 12.433 6.86747 12.433 6.89594 12.433C6.93865 12.4401 6.98135 12.4401 7.01694 12.4401C7.69307 12.4401 8.28379 11.9704 8.43326 11.3085C8.44037 11.2729 8.44749 11.2302 8.45461 11.1946C8.46172 11.1448 8.46884 11.0879 8.46884 11.038C8.49019 10.3334 8.01334 9.72135 7.32297 9.57189C7.28739 9.56478 7.25892 9.55766 7.22333 9.55766C7.18775 9.55054 7.15216 9.55054 7.12369 9.54342C7.08811 9.53631 7.0454 9.53631 7.00982 9.54342Z" fill="#FDD803"/>
<path d="M6.97381 9.86377C6.92399 10.0488 7.76382 10.3193 7.80652 10.0702C7.85634 9.82819 7.05922 9.53638 6.97381 9.86377Z" fill="white"/>
<path d="M12.59 9.55074C12.9031 10.2909 12.5686 11.1379 11.8284 11.4581C11.0883 11.7713 10.2413 11.4368 9.92104 10.6966C9.60076 9.95642 9.94239 9.10947 10.6826 8.7892C11.4156 8.46893 12.2697 8.81055 12.59 9.55074Z" fill="#E82264"/>
<path d="M10.5329 11.2514C9.90656 10.8528 9.72152 10.0272 10.1201 9.40089C10.5186 8.77458 11.3442 8.58953 11.9705 8.98809C12.5969 9.38665 12.7819 10.2122 12.3833 10.8386C12.2837 11.0023 12.1414 11.1375 11.9848 11.2442C11.9421 11.2727 11.8994 11.3012 11.8567 11.3225C11.8282 11.3368 11.7926 11.351 11.757 11.3652L11.7143 11.3795C11.6574 11.4008 11.6005 11.4151 11.5435 11.4293L11.4937 11.4364C11.4225 11.4506 11.3442 11.4578 11.2659 11.4578C11.0453 11.4578 10.8318 11.4079 10.6325 11.3012C10.6112 11.2941 10.5969 11.2798 10.5827 11.2727L10.5329 11.2514ZM11.2517 8.67494C10.4475 8.67494 9.7998 9.3226 9.7998 10.1268C9.7998 10.9311 10.4475 11.5787 11.2517 11.5787C11.4225 11.5787 11.5862 11.5503 11.7428 11.4933C11.7713 11.4862 11.7926 11.472 11.8211 11.4649L11.878 11.4435C12.4759 11.1588 12.8033 10.5041 12.6751 9.85639C12.6538 9.75675 12.6253 9.65711 12.5826 9.56458C12.5613 9.51476 12.5399 9.46494 12.5115 9.41512C12.2624 8.95251 11.7784 8.66782 11.2517 8.67494Z" fill="#EF4A67"/>
<path d="M10.6395 9.18046C10.6894 9.36551 11.5505 9.16623 11.4651 8.92424C11.3726 8.68937 10.547 8.85307 10.6395 9.18046Z" fill="white"/>
<path d="M6.02747 10.7895C5.7926 11.5582 4.98836 11.9923 4.21971 11.7575C3.45105 11.5226 3.0169 10.7183 3.25177 9.94969C3.48664 9.18103 4.29088 8.74688 5.05953 8.98175C5.82819 9.2095 6.26234 10.0209 6.02747 10.7895Z" fill="#8CC34A"/>
<path d="M3.35841 10.7684C3.13778 10.0638 3.52922 9.30941 4.23382 9.08878C4.93842 8.86815 5.69285 9.25959 5.91348 9.9642C6.13411 10.6688 5.74267 11.4232 5.03806 11.6439C4.90996 11.6866 4.77473 11.7079 4.6395 11.7079C4.58256 11.7079 4.52563 11.7008 4.46869 11.6937C4.41887 11.6866 4.36905 11.6794 4.31923 11.6723C4.28364 11.6652 4.24806 11.6581 4.21959 11.6439L4.17689 11.6296C4.11995 11.6083 4.07013 11.5869 4.01319 11.5584L3.96337 11.53C3.70715 11.3805 3.50787 11.1528 3.39399 10.8752C3.38688 10.8538 3.37976 10.8396 3.37264 10.8254C3.37264 10.8183 3.36553 10.7898 3.35841 10.7684ZM4.6395 8.91797C4.02031 8.91797 3.46517 9.31653 3.26589 9.90014C3.25877 9.91437 3.25877 9.92861 3.25165 9.94284L3.24453 9.9642C3.03814 10.6759 3.40823 11.4303 4.09148 11.7079C4.13418 11.7221 4.17688 11.7364 4.21959 11.7506C4.24806 11.7577 4.26941 11.7648 4.29788 11.772C5.08077 11.957 5.86366 11.4802 6.04871 10.6973C6.2124 10.0282 5.87789 9.33077 5.25158 9.03896C5.19464 9.01049 5.13059 8.98914 5.06653 8.96779C5.02383 8.95355 4.97401 8.94644 4.93131 8.9322C4.83167 8.92509 4.73914 8.91797 4.6395 8.91797Z" fill="#B9D64F"/>
<path d="M4.77449 9.25267C4.6962 9.4306 5.48621 9.82916 5.57162 9.58717C5.65702 9.34519 4.91683 8.93951 4.77449 9.25267Z" fill="white"/>
<path d="M3.52234 10.9527C2.93161 11.5007 2.01349 11.4651 1.47259 10.8744C0.931681 10.2837 0.96015 9.36554 1.55088 8.82464C2.1416 8.28373 3.05972 8.3122 3.60063 8.90293C4.14865 9.48654 4.11306 10.4047 3.52234 10.9527Z" fill="#39A4DD"/>
<path d="M1.21628 9.65063C1.34439 8.91756 2.04187 8.43359 2.77495 8.5617C3.50802 8.68981 3.99198 9.3873 3.86387 10.1204C3.73577 10.8534 3.03828 11.3374 2.30521 11.2093C2.0917 11.1737 1.89241 11.0812 1.7216 10.9531C1.6789 10.9246 1.64331 10.8961 1.60773 10.8606C1.57926 10.8392 1.55791 10.8107 1.53655 10.7823L1.50809 10.7467C1.4725 10.704 1.43691 10.6542 1.40845 10.6043L1.36574 10.5616C1.2234 10.3054 1.16646 9.99937 1.20205 9.70757C1.20916 9.68622 1.20916 9.66487 1.21628 9.65063ZM2.53296 8.43359C1.73584 8.43359 1.08105 9.08838 1.08105 9.8855C1.08105 10.1631 1.15934 10.4264 1.3088 10.6613C1.40133 10.8036 1.5152 10.9317 1.65043 11.0385C2.28386 11.5296 3.19486 11.4086 3.68595 10.768C4.17703 10.1346 4.05604 9.2236 3.41549 8.73252C3.16639 8.54035 2.85323 8.44071 2.53296 8.43359Z" fill="#2CC4EE"/>
<path d="M3.21611 8.99555C3.05953 9.10942 3.53638 9.84961 3.72854 9.68592C3.92071 9.5151 3.49368 8.79627 3.21611 8.99555Z" fill="white"/>
<path d="M10.3336 9.74275C10.9314 10.2765 10.9884 11.1875 10.4617 11.7925C9.9279 12.3903 9.0169 12.4473 8.41194 11.9206C7.8141 11.3939 7.75716 10.4758 8.28383 9.87086C8.81762 9.26589 9.72862 9.20896 10.3336 9.74275Z" fill="#904098"/>
<path d="M9.20918 12.1627C8.47611 12.0702 7.94944 11.4012 8.04196 10.6681C8.13448 9.93502 8.8035 9.40835 9.53657 9.50087C10.2696 9.5934 10.7963 10.2624 10.7038 10.9955C10.6824 11.1876 10.6184 11.3656 10.5187 11.5293C10.4903 11.572 10.4618 11.6147 10.4333 11.6574C10.412 11.6859 10.3906 11.7143 10.3693 11.7428L10.3337 11.7784C10.291 11.8211 10.2483 11.8567 10.1985 11.8922L10.1558 11.9207C9.92802 12.0773 9.66468 12.1627 9.38711 12.1698C9.36576 12.1698 9.34441 12.1698 9.32306 12.1698C9.3017 12.1698 9.28747 12.1698 9.26612 12.1698L9.20918 12.1627ZM9.37288 9.37988C8.97431 9.37988 8.5971 9.54358 8.32665 9.82827L8.28395 9.87097C8.26259 9.89232 8.24836 9.91367 8.23413 9.93502C7.78574 10.5044 7.82845 11.3229 8.33377 11.8424C8.35512 11.8709 8.38359 11.8922 8.41205 11.9136C8.44052 11.935 8.45476 11.9492 8.47611 11.9634C9.10954 12.4616 10.0205 12.3477 10.5116 11.7214C11.0098 11.088 10.896 10.177 10.2696 9.68592C10.0134 9.48664 9.69315 9.37988 9.37288 9.37988Z" fill="#BC5BA3"/>
<path d="M8.41206 10.2406C8.54017 10.3829 9.23054 9.83491 9.04549 9.65698C8.86044 9.48616 8.18431 9.98437 8.41206 10.2406Z" fill="white"/>
<path d="M3.88504 13.0382C3.52206 13.7499 2.64665 14.0346 1.92781 13.6717C1.20897 13.3087 0.931404 12.4333 1.29438 11.7144C1.65736 10.9956 2.53277 10.718 3.25161 11.081C3.97044 11.4511 4.25513 12.3265 3.88504 13.0382Z" fill="#FDC113"/>
<path d="M1.27279 12.611C1.14468 11.878 1.63576 11.1876 2.36172 11.0595C3.08767 10.9314 3.78515 11.4225 3.91326 12.1484C4.04137 12.8815 3.55029 13.5719 2.82433 13.7C2.61082 13.7355 2.3973 13.7213 2.1909 13.6573C2.14108 13.643 2.09126 13.6288 2.04856 13.6074C2.01297 13.5932 1.98451 13.579 1.94892 13.5647L1.90622 13.5434C1.8564 13.5149 1.80658 13.4793 1.75676 13.4437L1.71405 13.4082C1.4863 13.216 1.32972 12.9527 1.27279 12.6609C1.27279 12.6395 1.27279 12.6253 1.27279 12.611ZM2.09838 11.0168C1.75676 11.1378 1.47207 11.394 1.30126 11.7143C1.28702 11.7499 1.26567 11.7783 1.25144 11.8139C0.973865 12.4758 1.22297 13.2516 1.84216 13.6217C1.87063 13.6359 1.8991 13.6573 1.92757 13.6644C1.95604 13.6786 1.98451 13.6928 2.00586 13.7C2.66776 13.9918 3.44353 13.7498 3.82074 13.1377C3.84209 13.1021 3.85633 13.0737 3.87768 13.0381C3.90615 12.9811 3.93462 12.9242 3.95597 12.8673C4.22642 12.1128 3.83497 11.2801 3.08055 11.0097C2.7674 10.8958 2.41865 10.9029 2.09838 11.0168Z" fill="#FDD803"/>
<path d="M2.92406 11.3016C2.8173 11.4581 3.5219 11.9919 3.64289 11.7713C3.76388 11.5507 3.11622 11.024 2.92406 11.3016Z" fill="white"/>
<path d="M5.98474 13.3441C5.39401 13.8922 4.4759 13.8566 3.93499 13.2659C3.39408 12.6751 3.42255 11.757 4.01328 11.2161C4.60401 10.6681 5.51501 10.7037 6.06303 11.2944C6.60394 11.8851 6.56835 12.8032 5.98474 13.3441Z" fill="#F06492"/>
<path d="M3.67181 12.0491C3.79992 11.316 4.4974 10.832 5.23047 10.9601C5.96354 11.0883 6.44751 11.7857 6.3194 12.5188C6.19129 13.2519 5.49381 13.7358 4.76074 13.6077C4.54722 13.5721 4.35506 13.4867 4.18425 13.3515C4.14154 13.323 4.09884 13.2875 4.06325 13.2519C4.03479 13.2305 4.01343 13.2021 3.99208 13.1736L3.96361 13.138C3.92803 13.0953 3.89244 13.0455 3.86397 12.9957L3.8355 12.953C3.69316 12.6967 3.63622 12.3907 3.67181 12.0989C3.67181 12.0775 3.67893 12.0633 3.67181 12.0491ZM5.00272 10.832H4.96714C4.1629 10.8534 3.52947 11.5153 3.55082 12.3195C3.55082 12.3551 3.55082 12.3978 3.55793 12.4334C3.57929 12.6398 3.64334 12.8391 3.7501 13.0241C3.79992 13.1095 3.86397 13.1949 3.92803 13.2661C3.94938 13.2946 3.97785 13.3159 3.9992 13.3373C4.58281 13.8853 5.50093 13.8568 6.04895 13.2732C6.59697 12.6896 6.56851 11.7715 5.9849 11.2235C5.71444 10.9744 5.35858 10.832 4.98849 10.832" fill="#F59395"/>
<path d="M5.67849 11.3869C5.52191 11.5008 5.99876 12.2409 6.19805 12.0772C6.39733 11.9136 5.94894 11.1876 5.67849 11.3869Z" fill="white"/>
<path d="M7.46533 11.0459C7.46533 11.053 7.47245 11.0601 7.47245 11.0744C7.47245 11.0672 7.47245 11.0601 7.46533 11.0459Z" fill="#FFD10D"/>
<path d="M8.34788 13.0519C8.21265 13.8419 7.46535 14.3757 6.67534 14.2405C5.88533 14.1052 5.35154 13.3579 5.48677 12.5679C5.62199 11.7779 6.3693 11.2441 7.15931 11.3793C7.94931 11.5075 8.47599 12.2619 8.34788 13.0519Z" fill="#39A4DD"/>
<path d="M5.69318 13.3655C5.38003 12.6894 5.67895 11.8923 6.34796 11.5862C6.52589 11.5079 6.71806 11.4652 6.91022 11.4652C6.98851 11.4652 7.05968 11.4723 7.13797 11.4866C7.87104 11.6076 8.36924 12.2908 8.24825 13.0239C8.14149 13.6787 7.57924 14.1555 6.91734 14.1555H6.87463C6.83905 14.1555 6.79635 14.1555 6.76076 14.1484C6.72517 14.1484 6.68959 14.1413 6.654 14.1342L6.60418 14.1271C6.54724 14.1128 6.49031 14.0986 6.43337 14.0772L6.38355 14.0559C6.1131 13.942 5.88535 13.7356 5.73588 13.4794C5.72877 13.4652 5.71453 13.4438 5.70742 13.4296C5.71453 13.4153 5.70742 13.3869 5.69318 13.3655ZM6.91022 11.3585C6.87463 11.3585 6.83193 11.3585 6.79635 11.3656C5.99922 11.4296 5.40138 12.1342 5.47255 12.9314C5.5366 13.6858 6.16292 14.2623 6.91734 14.2623C6.96716 14.2623 7.00986 14.2623 7.05256 14.2552C7.84969 14.1769 8.44042 13.4723 8.36213 12.6751C8.29096 11.9207 7.66464 11.3513 6.91022 11.3585Z" fill="#2CC4EE"/>
<path d="M6.91002 11.6857C6.85308 11.8708 7.68579 12.1626 7.74273 11.9206C7.79255 11.6715 7.00254 11.3583 6.91002 11.6857Z" fill="white"/>
<path d="M11.9846 11.7646C11.5647 12.0422 11.0167 12.0565 10.5825 11.8002C10.5968 11.8074 10.611 11.8216 10.6323 11.8287C10.8245 11.9283 11.0451 11.9853 11.2658 11.9853C11.3441 11.9853 11.4152 11.9782 11.4935 11.9639L11.5433 11.9568C11.6003 11.9426 11.6572 11.9283 11.7142 11.907L11.7569 11.8928C11.7924 11.8785 11.8209 11.8643 11.8565 11.8501C11.8992 11.8216 11.9419 11.8002 11.9846 11.7646Z" fill="#F26B48"/>
<path d="M5.95622 15.1661C5.58613 15.8778 4.71072 16.1554 3.999 15.7853C3.28728 15.4152 3.00971 14.5398 3.3798 13.8281C3.74989 13.1164 4.62531 12.8388 5.33703 13.2089C6.04875 13.579 6.32632 14.4544 5.95622 15.1661Z" fill="#904098"/>
<path d="M3.33702 14.6534C3.25161 13.9203 3.77829 13.2513 4.51136 13.1588C5.24443 13.0734 5.91344 13.6001 6.00596 14.3331C6.09137 15.0662 5.5647 15.7352 4.83163 15.8277C4.63946 15.8491 4.4473 15.8349 4.26225 15.7708C4.21243 15.7566 4.16973 15.7423 4.11991 15.721C4.08432 15.7068 4.05586 15.6925 4.02027 15.6783L3.97757 15.6569C3.92775 15.6285 3.87793 15.5929 3.83522 15.5573L3.79252 15.5217C3.57189 15.3295 3.41531 15.0662 3.35837 14.7744C3.35125 14.753 3.35125 14.7388 3.35125 14.7175C3.35125 14.7032 3.34414 14.6748 3.33702 14.6534ZM4.67505 13.0449C3.87081 13.0449 3.22314 13.6926 3.22314 14.4968C3.22314 15.1801 3.70711 15.7779 4.37613 15.9131C4.47577 15.9345 4.57541 15.9416 4.66793 15.9416C5.1519 15.9416 5.6074 15.6996 5.87786 15.294C5.90632 15.2513 5.92768 15.2085 5.95614 15.1658C5.9775 15.1303 5.99173 15.0876 6.01308 15.052C6.31912 14.3118 5.96326 13.4648 5.22307 13.1588C5.05226 13.0876 4.8601 13.0449 4.67505 13.0449Z" fill="#BC5BA3"/>
<path d="M5.0096 13.4229C4.90285 13.5795 5.60033 14.1204 5.72844 13.8998C5.85655 13.6791 5.20177 13.1453 5.0096 13.4229Z" fill="white"/>
<path d="M7.07373 15.1953C7.07373 15.2024 7.08085 15.2167 7.08085 15.2238C7.08085 15.2167 7.07373 15.2095 7.07373 15.1953Z" fill="#EF8272"/>
<path d="M8.07717 15.2523C7.99176 16.0495 7.27292 16.626 6.4758 16.5405C5.67867 16.4551 5.10218 15.7363 5.18759 14.9392C5.27299 14.1421 5.99183 13.5656 6.78895 13.651C7.58608 13.7364 8.16257 14.4552 8.07717 15.2523Z" fill="#F06492"/>
<path d="M5.4792 15.7858C5.10199 15.1524 5.30839 14.3268 5.94182 13.9425C6.14822 13.8215 6.38308 13.7503 6.62507 13.7503C6.67489 13.7503 6.72471 13.7503 6.77453 13.7574C7.51472 13.8357 8.04139 14.5047 7.9631 15.2378C7.89193 15.8855 7.36525 16.3908 6.71047 16.4335C6.67489 16.4406 6.6393 16.4406 6.5966 16.4406H6.55389C6.51831 16.4406 6.48272 16.4406 6.44714 16.4335L6.39732 16.4264C6.34038 16.4193 6.28344 16.405 6.2265 16.3837L6.17668 16.3694C5.89911 16.2698 5.65713 16.0776 5.50055 15.8285L5.4792 15.7858ZM6.63218 13.6436C6.56101 13.6436 6.48984 13.6507 6.41867 13.6578C6.07704 13.7076 5.76389 13.8855 5.53614 14.1489C5.01658 14.7538 5.08064 15.672 5.69272 16.1986C5.91335 16.3908 6.19092 16.5118 6.48272 16.5402C6.53966 16.5474 6.58948 16.5474 6.64642 16.5474H6.71759C7.52183 16.5047 8.13391 15.8214 8.09121 15.0243C8.05562 14.3624 7.57877 13.8072 6.93111 13.6791C6.8884 13.672 6.8457 13.6649 6.803 13.6578C6.73894 13.6436 6.682 13.6436 6.63218 13.6436Z" fill="#F59395"/>
<path d="M6.56113 13.9712C6.51843 14.1563 7.36537 14.4054 7.40096 14.1563C7.43655 13.9072 6.63942 13.6439 6.56113 13.9712Z" fill="white"/>
<path d="M6.66078 17.2944C6.58249 18.0915 5.87077 18.6751 5.07365 18.5968C4.27652 18.5185 3.69291 17.8068 3.7712 17.0097C3.84949 16.2126 4.56121 15.6289 5.35833 15.7072C6.16258 15.7855 6.73907 16.4972 6.66078 17.2944Z" fill="#E82264"/>
<path d="M4.0702 17.8425C3.68587 17.209 3.89227 16.3834 4.5257 15.9991C4.7321 15.871 4.97408 15.807 5.21607 15.807C5.26589 15.807 5.30859 15.807 5.35129 15.8141C6.09148 15.8924 6.62527 16.5471 6.54698 17.2873C6.48293 17.935 5.95625 18.4403 5.30859 18.4901C5.26589 18.4972 5.22318 18.4973 5.1876 18.4973H5.15913C5.12354 18.4973 5.08796 18.4972 5.05237 18.4901L5.00255 18.483C4.94561 18.4759 4.88868 18.4617 4.83174 18.4474L4.78192 18.4261C4.50435 18.3264 4.26236 18.1414 4.09867 17.8923C4.08443 17.8781 4.07732 17.8567 4.0702 17.8425ZM5.21607 15.7002C4.41182 15.7002 3.76416 16.3479 3.76416 17.1521C3.76416 17.9563 4.41182 18.604 5.21607 18.604C5.91355 18.604 6.51851 18.1058 6.6395 17.4154C6.64662 17.3799 6.65374 17.3371 6.65374 17.3016C6.66086 17.2589 6.66086 17.2375 6.66086 17.2019C6.68221 16.3977 6.04878 15.7287 5.24454 15.7073C5.23742 15.7002 5.2303 15.7002 5.21607 15.7002Z" fill="#EF4A67"/>
<path d="M5.13779 16.0278C5.09509 16.2129 5.94203 16.4548 5.97762 16.2057C6.01321 15.9566 5.20896 15.7004 5.13779 16.0278Z" fill="white"/>
<path d="M4.07729 14.9458C3.77125 15.686 2.91718 16.0347 2.177 15.7287C1.43681 15.4226 1.08807 14.5686 1.39411 13.8284C1.70015 13.0882 2.55421 12.7394 3.2944 13.0455C4.03458 13.3515 4.38332 14.2056 4.07729 14.9458Z" fill="#E82264"/>
<path d="M1.43677 14.7249C1.25172 14.0061 1.68587 13.273 2.40471 13.0879C3.12354 12.9029 3.85661 13.337 4.04166 14.0559C4.22671 14.7747 3.79256 15.5078 3.07372 15.6928C2.86733 15.7426 2.65381 15.7498 2.44029 15.6999C2.39047 15.6928 2.34065 15.6786 2.29083 15.6644C2.25525 15.6572 2.22678 15.643 2.19119 15.6288L2.14849 15.6074C2.09867 15.579 2.04173 15.5505 1.99903 15.522L1.95633 15.4935C1.72146 15.3156 1.54353 15.0665 1.45812 14.7889C1.44389 14.7534 1.44389 14.7391 1.43677 14.7249ZM2.73922 12.9385C2.16984 12.9385 1.6574 13.273 1.41542 13.7854C1.4083 13.7997 1.40118 13.8139 1.39407 13.8281C1.38695 13.8424 1.38695 13.8495 1.37983 13.8637C1.09515 14.5968 1.451 15.4224 2.17696 15.7213C2.31218 15.7782 2.45453 15.8138 2.60399 15.8281C2.64669 15.8352 2.6894 15.8352 2.73922 15.8352C3.2303 15.8352 3.6858 15.5861 3.95626 15.1804C4.04878 15.0452 4.11283 14.8886 4.14842 14.732C4.31923 14.0416 3.95625 13.3299 3.30147 13.0524H3.29436L3.28724 13.0452C3.11643 12.9741 2.93138 12.9385 2.73922 12.9385Z" fill="#EF4A67"/>
<path d="M2.63975 13.394C2.59704 13.5791 3.44399 13.8211 3.47957 13.572C3.51516 13.3228 2.71092 13.0666 2.63975 13.394Z" fill="white"/>
<path d="M3.27295 15.8926C3.28007 15.8997 3.28718 15.9068 3.2943 15.9068C3.28718 15.8997 3.28007 15.8997 3.27295 15.8926Z" fill="#92C83E"/>
<path d="M10.4403 12.213C10.6823 12.9745 10.2623 13.793 9.5008 14.035C8.73926 14.277 7.92079 13.8571 7.6788 13.0955C7.43682 12.334 7.85673 11.5155 8.61827 11.2735C9.37269 11.0315 10.1912 11.4515 10.4403 12.213Z" fill="#8CC34A"/>
<path d="M8.28355 13.7501C7.67859 13.3231 7.53625 12.4832 7.96328 11.8783C8.39031 11.2733 9.23014 11.131 9.8351 11.558C10.4401 11.985 10.5824 12.8249 10.1554 13.4298C10.0344 13.6006 9.87069 13.743 9.67852 13.8426C9.63582 13.8711 9.586 13.8924 9.5433 13.9067C9.50771 13.9209 9.47924 13.9351 9.44366 13.9423L9.40095 13.9565C9.34402 13.9707 9.28708 13.985 9.23014 13.985L9.18032 13.9921C9.15185 13.9921 9.11627 13.9992 9.0878 13.9992C8.82446 13.9992 8.56824 13.9209 8.34049 13.7786C8.30491 13.7715 8.29067 13.7643 8.28355 13.7501ZM9.05933 11.2021C8.25509 11.2021 7.60742 11.8498 7.60742 12.6541C7.60742 13.4583 8.25509 14.106 9.05933 14.106C9.18032 14.106 9.30131 14.0917 9.41519 14.0633L9.49348 14.0419C9.51483 14.0348 9.53618 14.0277 9.55753 14.0206C10.312 13.743 10.6892 12.9032 10.4116 12.1559C10.2052 11.5794 9.65717 11.2021 9.05933 11.2021Z" fill="#B9D64F"/>
<path d="M9.23711 12.8606C9.28693 12.8606 9.33675 12.8535 9.38657 12.8393C9.47198 12.8179 9.55027 12.7823 9.62144 12.7396C9.69973 12.6969 9.7709 12.6471 9.83495 12.5902C9.90613 12.5332 9.96306 12.4763 10.0129 12.4051H10.02C9.97018 12.4834 9.91324 12.5475 9.84919 12.6044C9.78513 12.6614 9.71396 12.7183 9.63567 12.7681C9.55738 12.8179 9.4791 12.8535 9.39369 12.8749C9.3581 12.882 9.32963 12.8891 9.29405 12.8891C9.23711 12.8891 9.18017 12.8749 9.13035 12.8464V12.8393C9.16594 12.8535 9.20153 12.8606 9.23711 12.8606ZM9.73531 12.4194C9.71396 12.4194 9.68549 12.4051 9.68549 12.3838C9.67838 12.3553 9.69261 12.3197 9.72108 12.3126C9.7282 12.3126 9.73531 12.3126 9.73531 12.3126C9.75667 12.3126 9.77802 12.3268 9.78513 12.3482C9.79225 12.3767 9.77802 12.4123 9.74955 12.4194H9.73531ZM8.77449 12.6614C8.63215 12.6614 8.51828 12.5475 8.51828 12.398C8.51828 12.2841 8.58945 12.1845 8.6962 12.1489C8.72467 12.1418 8.74603 12.1347 8.77449 12.1347C8.91684 12.1347 9.03071 12.2486 9.03071 12.398C9.03071 12.5119 8.95954 12.6115 8.85278 12.6471C8.82431 12.6542 8.80296 12.6614 8.77449 12.6614ZM9.00224 11.9639C8.95242 11.9639 8.9026 11.9639 8.84567 11.971C8.72467 11.9781 8.6108 12.0066 8.50404 12.0635C8.07701 12.334 8.06989 12.5902 8.13395 12.8677C8.20512 13.1809 8.26206 13.4158 8.22647 13.7147L8.26206 13.7432L8.27629 13.7574C8.61792 13.9994 9.05918 14.0706 9.45774 13.9424C9.52892 13.9211 9.60009 13.8926 9.67126 13.857C9.50045 13.5012 9.71396 13.0314 9.84207 12.7823C9.87054 12.7254 9.91324 12.6542 9.95595 12.5759C10.1268 12.2841 10.0983 12.0066 9.61432 12.0066H9.52892C9.43639 12.0066 9.34387 11.9995 9.24423 11.9923C9.15882 11.971 9.08053 11.9639 9.00224 11.9639Z" fill="#92C83E"/>
<path d="M8.53275 11.6651C8.56834 11.8573 9.44375 11.7363 9.3797 11.4943C9.31564 11.2523 8.4687 11.3306 8.53275 11.6651Z" fill="white"/>
<path d="M9.74255 12.3125C9.73543 12.3125 9.72832 12.3125 9.72832 12.3125C9.69985 12.3196 9.68561 12.3552 9.69273 12.3837C9.69985 12.405 9.7212 12.4264 9.74255 12.4193H9.75679C9.78526 12.4121 9.79949 12.3766 9.79237 12.3481C9.78526 12.3267 9.7639 12.3125 9.74255 12.3125Z" fill="#C0DA72"/>
<path d="M9.07345 11.8993C8.99516 11.9064 8.91688 11.9277 8.8457 11.9704C8.89552 11.9633 8.94534 11.9633 9.00228 11.9633C9.08057 11.9633 9.16598 11.9704 9.24427 11.9847C9.23715 11.9776 9.23003 11.9704 9.23003 11.9633C9.20868 11.942 9.18021 11.9277 9.14463 11.9135C9.12327 11.8993 9.09481 11.8922 9.07345 11.8993Z" fill="#68BD45"/>
<path d="M8.77446 12.5831C8.67482 12.5831 8.58941 12.4977 8.58941 12.3981C8.58941 12.3198 8.63923 12.2486 8.71752 12.2273C8.73175 12.2202 8.7531 12.2202 8.77446 12.2202C8.8741 12.2202 8.9595 12.3056 8.9595 12.4052C8.9595 12.4835 8.90968 12.5547 8.83139 12.576C8.81004 12.5831 8.79581 12.5831 8.77446 12.5831ZM8.77446 12.1348C8.74599 12.1348 8.72464 12.1419 8.69617 12.149C8.56094 12.1917 8.48265 12.3412 8.52535 12.4764C8.56094 12.5831 8.66058 12.6543 8.77446 12.6543C8.80293 12.6543 8.82428 12.6472 8.85275 12.6401C8.98797 12.5974 9.06626 12.4479 9.02356 12.3127C8.98797 12.2131 8.88833 12.1348 8.77446 12.1348Z" fill="#C0DA72"/>
<path d="M8.77465 12.2197C8.7533 12.2197 8.73907 12.2197 8.71771 12.2268C8.62519 12.2553 8.56825 12.3621 8.59672 12.4546C8.61807 12.5329 8.68925 12.5827 8.76753 12.5827C8.78889 12.5827 8.80312 12.5827 8.82447 12.5756C8.917 12.5471 8.97393 12.4404 8.94546 12.3478C8.92411 12.2695 8.85294 12.2197 8.77465 12.2197Z" fill="#92C83E"/>
<path d="M10.0202 12.4053C9.97041 12.4764 9.90635 12.5405 9.8423 12.5903C9.77824 12.6473 9.70707 12.6971 9.62878 12.7398C9.55049 12.7825 9.4722 12.811 9.39391 12.8394C9.34409 12.8537 9.29427 12.8608 9.24445 12.8608C9.20887 12.8608 9.17328 12.8537 9.1377 12.8465V12.8537C9.18752 12.8821 9.24445 12.8964 9.30139 12.8964C9.33698 12.8964 9.37256 12.8892 9.40103 12.8821C9.48644 12.8608 9.57184 12.8252 9.64302 12.7754C9.72131 12.7255 9.79248 12.6757 9.85653 12.6117C9.92059 12.5547 9.97752 12.4836 10.0273 12.4124L10.0202 12.4053Z" fill="#7DC242"/>
<path d="M9.15918 10.668L9.18765 10.6751C9.18053 10.6751 9.1663 10.668 9.15918 10.668Z" fill="#A04895"/>
<path d="M9.8423 13.6217C10.4473 14.1483 10.5042 15.0664 9.97041 15.6714C9.44374 16.2764 8.52562 16.3333 7.92066 15.7995C7.3157 15.2728 7.25876 14.3547 7.79255 13.7498C8.32634 13.1448 9.24446 13.0879 9.8423 13.6217Z" fill="#904098"/>
<path d="M8.78166 16.0487C8.04147 15.9918 7.49344 15.3441 7.55038 14.6111C7.60732 13.8709 8.25498 13.3228 8.98805 13.3798C9.72824 13.4367 10.2763 14.0844 10.2193 14.8175C10.2051 15.031 10.1339 15.2374 10.02 15.4224C9.99869 15.4651 9.97023 15.5078 9.93464 15.5434C9.91329 15.5719 9.89194 15.6003 9.86347 15.6288L9.82788 15.6644C9.78518 15.7071 9.74248 15.7498 9.69266 15.7783L9.64995 15.8067C9.4222 15.9633 9.15887 16.0487 8.8813 16.0558C8.85994 16.0558 8.83859 16.0558 8.81724 16.0558C8.81012 16.0487 8.78877 16.0487 8.78166 16.0487ZM8.8813 13.2588C8.27633 13.2588 7.73543 13.636 7.52191 14.2054C7.24434 14.9598 7.62867 15.7925 8.37598 16.0701C8.90976 16.2694 9.50761 16.1341 9.91329 15.7356C9.93464 15.7142 9.94887 15.6929 9.97023 15.6786L9.99869 15.643C10.4898 15.0594 10.44 14.1911 9.89194 13.6645C9.8777 13.6502 9.86347 13.636 9.84923 13.6218L9.80653 13.5862C9.54319 13.3727 9.22292 13.2588 8.8813 13.2588Z" fill="#BC5BA3"/>
<path d="M7.92073 14.1195C8.04884 14.2618 8.7392 13.7138 8.55416 13.5359C8.37623 13.3651 7.70009 13.8633 7.92073 14.1195Z" fill="white"/>
<path d="M9.39404 16.2695L9.41539 16.2838C9.40828 16.2766 9.40116 16.2695 9.39404 16.2695Z" fill="#FFD10D"/>
<path d="M10.2836 15.9921C10.8316 16.5758 10.796 17.4939 10.2124 18.0419C9.62881 18.5899 8.71069 18.5543 8.16267 17.9707C7.61465 17.3871 7.65023 16.469 8.23384 15.921C8.81745 15.3729 9.73557 15.4085 10.2836 15.9921Z" fill="#FDC113"/>
<path d="M8.9881 18.3057C8.25503 18.1776 7.77106 17.4801 7.89917 16.747C8.02728 16.014 8.72476 15.53 9.45783 15.6581C10.1909 15.7862 10.6749 16.4837 10.5468 17.2168C10.5112 17.4303 10.4258 17.6224 10.2905 17.7933C10.2621 17.836 10.2265 17.8715 10.1909 17.9143C10.1696 17.9427 10.1411 17.9641 10.1197 17.9925L10.0841 18.021C10.0414 18.0566 9.99162 18.0922 9.9418 18.1278L9.8991 18.1562C9.6927 18.2701 9.46495 18.3342 9.23008 18.3342C9.17314 18.3342 9.10909 18.327 9.05215 18.3199C9.02368 18.3199 9.00945 18.3128 8.9881 18.3057ZM9.22296 15.5371C8.89557 15.5371 8.5753 15.651 8.31908 15.8574C8.29061 15.8787 8.26214 15.9001 8.24079 15.9286C8.19809 15.9713 8.15539 16.014 8.1198 16.0567C7.60736 16.6687 7.68565 17.5869 8.30485 18.0993C8.91693 18.6117 9.83504 18.5334 10.3475 17.9143C10.7105 17.4801 10.7887 16.868 10.5396 16.3556C10.4187 16.1065 10.2265 15.9001 9.99162 15.7506C9.75675 15.6083 9.49342 15.5371 9.22296 15.5371Z" fill="#FDD803"/>
<path d="M8.32634 16.3049C8.44021 16.4615 9.1804 15.9775 9.0167 15.7853C8.85301 15.5932 8.12705 16.0344 8.32634 16.3049Z" fill="white"/>
<path d="M8.76771 17.614C8.53284 18.3827 7.7286 18.8168 6.95994 18.582C6.19128 18.3471 5.75714 17.5357 5.992 16.7671C6.22687 15.9984 7.03111 15.5643 7.79977 15.7991C8.56842 16.034 9.00257 16.8454 8.76771 17.614Z" fill="#8CC34A"/>
<path d="M6.09866 17.5929C5.89938 16.9097 6.29794 16.1909 6.98119 15.9916C7.66444 15.7923 8.38327 16.1909 8.58256 16.8741C8.78184 17.5574 8.38327 18.2762 7.70002 18.4755C7.49363 18.5324 7.27299 18.5395 7.06659 18.4968C7.03101 18.4897 6.99542 18.4826 6.96695 18.4684L6.92425 18.4541C6.86731 18.4328 6.81749 18.4114 6.76056 18.3829L6.70362 18.3545C6.4474 18.205 6.24812 17.9773 6.13424 17.6997C6.12713 17.6783 6.12001 17.6641 6.11289 17.6499C6.11289 17.6356 6.10577 17.6143 6.09866 17.5929ZM7.37975 15.7354C6.76767 15.7354 6.21965 16.1197 6.01325 16.6962C6.00613 16.7175 5.99902 16.7389 5.9919 16.7673C5.9919 16.7745 5.98478 16.7887 5.98478 16.7958C5.7855 17.5004 6.14136 18.2477 6.81749 18.5324C6.8602 18.5466 6.9029 18.568 6.95272 18.5822C6.98119 18.5893 7.00254 18.5965 7.03101 18.6036C7.67867 18.7602 8.34769 18.4612 8.66084 17.8705C8.70355 17.7922 8.73913 17.7068 8.7676 17.6143C8.78184 17.5787 8.78895 17.5431 8.79607 17.5004C8.95265 16.7745 8.53985 16.0414 7.82813 15.8065L7.79966 15.7994L7.73561 15.7781C7.62173 15.7567 7.50074 15.7354 7.37975 15.7354Z" fill="#B9D64F"/>
<path d="M7.37264 16.2906C7.29435 16.4685 8.08435 16.8671 8.16264 16.6251C8.24805 16.3902 7.50786 15.9845 7.37264 16.2906Z" fill="white"/>
<path d="M11.0449 11.9141C11.052 11.9141 11.0663 11.9212 11.0734 11.9212C11.0663 11.9212 11.0592 11.9141 11.0449 11.9141Z" fill="#EF8272"/>
<path d="M12.2121 11.4948C12.81 12.0286 12.8527 12.9467 12.3189 13.5446C11.7851 14.1424 10.867 14.1851 10.2691 13.6513C9.6713 13.1175 9.62859 12.1994 10.1624 11.6016C10.7033 11.0037 11.6214 10.9539 12.2121 11.4948Z" fill="#F06492"/>
<path d="M11.0591 13.9C10.326 13.8004 9.81359 13.1242 9.91323 12.3912C10.0129 11.6581 10.689 11.1457 11.4221 11.2453C12.1551 11.3449 12.6676 12.0211 12.5679 12.7541C12.5395 12.9463 12.4754 13.1242 12.3758 13.2879C12.3473 13.3306 12.3188 13.3733 12.2904 13.416C12.269 13.4445 12.2477 13.473 12.2192 13.4943L12.1836 13.5299C12.1409 13.5726 12.0982 13.6082 12.0484 13.6438L12.0057 13.6723C11.7851 13.8217 11.5217 13.9071 11.2513 13.9071C11.2228 13.9071 11.2014 13.9071 11.173 13.9071L11.116 13.9H11.0591ZM11.2441 11.1172C10.8385 11.1172 10.447 11.288 10.1695 11.5869V11.594L10.141 11.6225C9.92747 11.8716 9.80648 12.1848 9.79936 12.5122C9.77801 13.3164 10.4043 13.9854 11.2086 14.0068C11.2228 14.0068 11.237 14.0068 11.2513 14.0068C11.3367 14.0068 11.4292 13.9996 11.5146 13.9854H11.5217C11.6498 13.9641 11.7708 13.9214 11.8847 13.8715H11.8918C12.1196 13.7577 12.3117 13.5869 12.4541 13.3733C12.8953 12.7043 12.7103 11.8004 12.0342 11.3663C11.7993 11.2097 11.5288 11.1243 11.2441 11.1172Z" fill="#F59395"/>
<path d="M10.2903 11.9712C10.4184 12.1135 11.1088 11.5726 10.9309 11.3947C10.7458 11.2239 10.0697 11.7149 10.2903 11.9712Z" fill="white"/>
<path d="M11.6641 13.7998C11.6641 13.8069 11.6712 13.8212 11.6712 13.8283C11.6712 13.8212 11.6712 13.8069 11.6641 13.7998Z" fill="#FFD10D"/>
<path d="M12.6464 14.4618C12.5326 15.2589 11.7995 15.8069 11.0095 15.7002C10.2124 15.5863 9.66434 14.8532 9.7711 14.0632C9.88497 13.2661 10.618 12.718 11.408 12.8248C12.2052 12.9316 12.7603 13.6646 12.6464 14.4618Z" fill="#FDC113"/>
<path d="M10.0418 14.9104C9.67881 14.2627 9.91368 13.4443 10.5613 13.0813C11.209 12.7183 12.0275 12.9532 12.3905 13.6008C12.7534 14.2485 12.5186 15.067 11.8709 15.43C11.6787 15.5367 11.4723 15.5936 11.2517 15.6008H11.1805C11.1521 15.6008 11.1236 15.6008 11.1022 15.6008C11.0667 15.6008 11.0311 15.5936 10.9955 15.5865L10.9457 15.5794C10.8887 15.5652 10.8318 15.5509 10.7749 15.5367L10.725 15.5225C10.4475 15.4157 10.2197 15.2164 10.0631 14.9602C10.0489 14.9389 10.0418 14.9246 10.0418 14.9104ZM11.209 12.8037C10.4048 12.8037 9.7571 13.4585 9.76422 14.2627C9.76422 14.946 10.2482 15.5367 10.9172 15.6791C10.9457 15.6862 10.9741 15.6933 11.0097 15.6933C11.0524 15.7004 11.0951 15.7004 11.1378 15.7075C11.1663 15.7075 11.1877 15.7075 11.2161 15.7075C11.9207 15.7075 12.5186 15.2022 12.6396 14.5118C12.6396 14.4976 12.6467 14.4763 12.6467 14.462C12.6467 14.4478 12.6538 14.4193 12.6538 14.398C12.725 13.6649 12.241 12.9959 11.5222 12.8393C11.4866 12.8322 11.451 12.8251 11.4154 12.8179L11.3514 12.8108C11.3015 12.8037 11.2588 12.8037 11.209 12.8037Z" fill="#FDD803"/>
<path d="M11.173 13.1382C11.1232 13.3232 11.963 13.5937 12.0057 13.3517C12.0556 13.1026 11.2656 12.8037 11.173 13.1382Z" fill="white"/>
<path d="M11.3939 13.6367C11.3726 13.6367 11.3441 13.6367 11.3228 13.6438C11.3441 13.6438 11.3583 13.6438 11.3797 13.6438C11.4651 13.6367 11.5505 13.6652 11.6146 13.7221C11.6359 13.7435 11.6573 13.7719 11.6644 13.8004C11.6359 13.6865 11.5149 13.6438 11.3939 13.6367Z" fill="#FFC610"/>
<path d="M4.67507 16.5976C4.73201 17.3947 4.13416 18.0922 3.33704 18.1491C2.53991 18.2061 1.84243 17.6082 1.78549 16.8111C1.72855 16.014 2.3264 15.3165 3.12352 15.2595C3.91353 15.1955 4.61101 15.8004 4.67507 16.5976Z" fill="#8CC34A"/>
<path d="M2.21987 17.5938C1.72878 17.0387 1.78572 16.1917 2.34086 15.7006C2.896 15.2095 3.74295 15.2665 4.23403 15.8216C4.72512 16.3768 4.66818 17.2237 4.11304 17.7148C3.94934 17.8571 3.75718 17.9568 3.55078 18.0066C3.50096 18.0208 3.45114 18.0279 3.40132 18.0351C3.36573 18.0422 3.33015 18.0422 3.29456 18.0493H3.24474C3.1878 18.0493 3.12375 18.0493 3.06681 18.0422L3.01699 18.0351C2.91023 18.0137 2.80348 17.9852 2.70384 17.9425C2.53302 17.8714 2.37645 17.7646 2.24834 17.6294C2.24122 17.6151 2.22698 17.6009 2.21987 17.5938ZM3.78565 15.3661C3.68601 15.3234 3.57925 15.2949 3.47249 15.2736C3.35862 15.2522 3.23762 15.2451 3.11663 15.2594C3.03123 15.2665 2.95294 15.2807 2.87465 15.2949C2.22698 15.4586 1.77148 16.0422 1.77148 16.7113C1.77148 16.7397 1.77148 16.7753 1.7786 16.8038C1.7786 16.8394 1.78572 16.8821 1.79284 16.9248C1.91383 17.7148 2.66113 18.2557 3.45114 18.1347C4.08457 18.0351 4.57566 17.5369 4.66818 16.9034C4.69665 16.7041 4.68241 16.4977 4.62548 16.2985C4.49737 15.8786 4.19133 15.5369 3.78565 15.3661Z" fill="#B9D64F"/>
<path d="M3.57903 15.8781C3.46516 16.0347 4.15553 16.5827 4.28364 16.3692C4.41174 16.1557 3.7712 15.6077 3.57903 15.8781Z" fill="white"/>
<path d="M12.2551 16.6818C12.1199 17.4718 11.3726 18.0056 10.5826 17.8703C9.79256 17.7351 9.25877 16.9878 9.39399 16.1978C9.52922 15.4078 10.2765 14.874 11.0665 15.0092C11.8565 15.1445 12.3832 15.8918 12.2551 16.6818Z" fill="#39A4DD"/>
<path d="M9.60041 17.0024C9.28725 16.3263 9.58617 15.5292 10.2552 15.2231C10.4331 15.1449 10.6253 15.1022 10.8174 15.1022C10.8957 15.1022 10.9669 15.1093 11.0452 15.1235C11.7783 15.2445 12.2765 15.9277 12.1555 16.6608C12.0487 17.3156 11.4865 17.7925 10.8246 17.7925H10.7819C10.7463 17.7925 10.7036 17.7925 10.668 17.7853C10.6324 17.7853 10.5968 17.7782 10.5612 17.7711L10.5114 17.764C10.4545 17.7497 10.3975 17.7355 10.3406 17.7142L10.2908 17.6928C10.0203 17.5789 9.79257 17.3725 9.64311 17.1163C9.63599 17.1021 9.62176 17.0807 9.61464 17.0665C9.62176 17.0451 9.61464 17.0238 9.60041 17.0024ZM10.8174 14.9883C10.7819 14.9883 10.7392 14.9883 10.7036 14.9954C9.90645 15.0595 9.3086 15.7641 9.37977 16.5612C9.44383 17.3156 10.0701 17.8921 10.8246 17.8921C10.8744 17.8921 10.9171 17.8921 10.9598 17.885C11.7569 17.8067 12.3476 17.1021 12.2694 16.305C12.1982 15.5577 11.5719 14.9883 10.8174 14.9883Z" fill="#2CC4EE"/>
<path d="M10.8172 15.316C10.7603 15.501 11.593 15.7928 11.65 15.5508C11.7069 15.3088 10.9098 14.9957 10.8172 15.316Z" fill="white"/>
<path opacity="0.5" d="M12.3974 5.37284C11.8209 4.37644 10.5754 4.25545 10.4046 4.0704C10.2622 3.864 10.1768 3.62202 10.1483 3.37291L3.27314 3.35156C3.27314 3.35156 3.31584 3.99923 3.00268 4.21986C2.68953 4.44049 1.34438 4.6113 1.09528 6.28384C0.831941 7.99909 0.226981 17.7781 2.54718 18.5468C4.86739 19.3154 10.9526 19.3581 12.1625 17.7781C13.3724 16.1981 13.1447 6.66817 12.3974 5.37284ZM11.9134 17.4436C10.7675 18.9524 4.96703 18.9169 2.75358 18.1767C0.540137 17.4365 1.12375 8.09161 1.36573 6.45466C1.60771 4.85329 3.02404 4.50455 3.31584 4.30527C3.31584 4.30527 3.91368 4.07752 6.74632 4.06328C8.80319 4.04905 9.96329 4.21986 10.5825 4.41202C11.0522 4.63266 11.7426 4.90311 12.134 5.59348C12.8529 6.82475 13.0593 15.9348 11.9134 17.4436Z" fill="#8BC8EE"/>
<path d="M3.18059 2.12018C2.91013 2.32658 2.84608 3.62191 2.94572 3.71443C3.26599 3.97777 9.40812 4.04894 10.3405 3.72867C10.6394 3.62903 10.1768 2.13442 9.84227 1.99919C9.65011 1.9209 8.09144 1.78568 6.55413 1.76433C4.98123 1.74297 3.42257 1.93514 3.18059 2.12018Z" fill="#E12E51"/>
<path d="M9.93501 2.07042C9.90654 2.04195 9.87807 2.01348 9.84248 1.99925C9.65032 1.92096 8.09166 1.78573 6.55434 1.76438C5.01703 1.74303 3.49395 1.92808 3.20215 2.10601C5.47965 2.28394 8.13436 2.29817 9.93501 2.07042Z" fill="#D41D52"/>
<path opacity="0.1" d="M4.76086 2.20609C4.35518 2.19897 3.72887 2.1705 3.19508 2.10645C3.18796 2.11356 3.18085 2.11356 3.17373 2.12068C2.90328 2.32708 2.83922 3.62241 2.94598 3.71493C3.13103 3.87151 5.26618 3.96403 7.21629 3.9498C6.19853 3.72205 5.30889 3.09573 4.76086 2.20609Z" fill="#642B7D"/>
<path d="M7.65708 1.83597C7.65708 1.96408 7.20158 2.04237 6.66068 2.04237C6.11977 2.04237 5.67139 1.96408 5.67139 1.84309C5.67139 1.29506 6.11265 0.84668 6.65356 0.84668C7.19447 0.84668 7.64996 1.28795 7.65708 1.83597Z" fill="#B72948"/>
<path opacity="0.2" d="M12.1342 5.60139C12.8459 6.83978 13.0595 15.9498 11.9136 17.4586C10.7677 18.9675 4.9601 18.9248 2.74666 18.1917C0.540329 17.4515 1.12394 8.10664 1.36592 6.46968C1.50115 5.41634 2.27692 4.55516 3.31603 4.32029C4.02775 4.12813 7.18067 3.82921 10.0204 4.28471C10.4546 4.34876 11.5862 4.64768 12.1342 5.60139Z" fill="#C9DFF2"/>
<path opacity="0.5" d="M11.6929 15.7145C11.6075 15.8284 11.4865 15.9351 11.337 16.0276C12.1199 14.2199 11.9349 7.43008 11.3726 6.45502C10.9171 5.66502 9.97764 5.41591 9.61466 5.35898C7.25887 4.98177 4.63975 5.22375 4.04902 5.38745C3.73586 5.45862 3.45829 5.60096 3.21631 5.78601C3.501 5.30204 3.97785 4.93906 4.55434 4.80384C5.13795 4.64014 7.76419 4.39816 10.1129 4.77537C10.4758 4.83231 11.4153 5.07429 11.8708 5.8643C12.4687 6.91052 12.6466 14.4619 11.6929 15.7145Z" fill="white"/>
</g>
<defs>
<clipPath id="clip0_2_636">
<rect width="12.2416" height="18.22" fill="white" transform="translate(0.796387 0.84668)"/>
</clipPath>
</defs>
</svg>
