<svg width="136" height="51" viewBox="0 0 136 51" fill="none" xmlns="http://www.w3.org/2000/svg">
<g clip-path="url(#clip0_2_835)">
<path d="M0.796387 5.39502L1.5952 6.46438L2.39402 6.49388L3.19284 3.94851L3.99165 5.08731L4.79047 7.36204L5.58929 13.3955L6.3881 10.7724L7.18692 4.85058L7.98574 7.21723L8.78455 3.37145L9.58337 1.29604L10.3822 4.36319L11.181 3.94403L11.9798 0.84668L12.7786 4.21575L13.5775 4.06639L14.3763 3.50136L15.1751 3.92713L15.9739 4.01863L16.7727 15.2398L17.5715 15.232L18.3704 20.5774L19.1692 27.5524L19.968 35.1524L20.7668 31.8727L21.5656 35.0487L22.3644 38.8182L23.1632 35.2501L23.9621 37.0262L24.7609 35.6746L25.5597 33.2271L26.3585 33.5837L27.1573 31.8834L27.9562 27.7173L28.755 30.3296L29.5538 30.0141L30.3526 29.2366L31.1514 27.0086L31.9502 24.3319L32.7491 29.5967L33.5479 31.8851L34.3467 32.1114L35.1455 32.7359L35.9443 35.9132L36.7431 32.4375L37.542 26.98L38.3408 25.2416L39.1396 30.1167L39.9384 35.6992L40.7372 38.2021L41.536 36.3829L42.3348 37.3319L43.1337 37.6014L43.9325 35.8789L44.7313 36.2571L45.5301 30.587L46.3289 30.9136L47.1277 31.6592L47.9266 30.2895L48.7254 33.122L49.5242 32.4308L50.323 33.9423L51.1218 43.4182L51.9206 41.5098L52.7195 40.5771L53.5183 42.0216L54.3171 45.6637L55.1159 46.0172L55.9147 46.0692L56.7135 48.137L57.5124 50.8467L58.3112 48.5351L59.11 47.5919L59.9088 47.7154L60.7076 49.1545L61.5064 48.551L62.3053 46.9878L63.1041 45.4359L63.9029 47.8346L64.7017 46.0318L65.5005 45.41L66.2993 48.4769L67.0982 44.495L67.897 44.093L68.6958 42.0753L69.4946 39.8456L70.2934 36.7081L71.0922 38.3618L71.8911 43.0264L72.6899 44.9217L73.4887 45.4346L74.2875 40.5104L75.0863 46.5388L75.8851 42.6862L76.684 36.5246L77.4828 36.4151L78.2816 34.5494L79.0804 34.3494L79.8792 34.6959L80.678 34.8251L81.4769 37.3082L82.2757 38.0427L83.0745 34.4902L83.8733 34.0777L84.6721 35.6455L85.4709 37.6634L86.2698 36.5978L87.0686 36.48L87.8674 35.6203L88.6662 35.4043L89.465 36.6129L90.2638 35.9925L91.0627 37.2968L91.8615 39.0756L92.6603 37.9962L93.4591 38.5758L94.2579 41.522L95.0567 41.9656L95.8556 43.2702L96.6544 42.7035L97.4532 44.296L98.252 48.6175L99.0508 49.4394L99.8496 46.7729L100.648 43.4663L101.447 45.0016L102.246 46.0815L103.045 43.2484L103.844 45.4547L104.643 47.2071L105.441 49.5442L106.24 48.147L107.039 46.0324L107.838 46.1967L108.637 46.7122L109.435 45.5326L110.234 46.1058L111.033 44.873L111.832 43.7179L112.631 43.522L113.43 38.9684L114.228 39.3067L115.027 38.4076L115.826 38.6594L116.625 37.4764L117.424 42.3459L118.222 46.0866L119.021 46.6686L119.82 46.8557L120.619 44.3349L121.418 40.8128L122.217 35.7543L123.015 36.5463L123.814 38.0109L124.613 36.0341L125.412 38.1952L126.211 37.0869L127.009 36.8282L127.808 37.5667L128.607 45.4443L129.406 47.9543L130.205 49.1537L131.003 50.2546L131.802 47.8927L132.601 38.3995L133.4 42.8836L134.199 40.8518L134.998 45.8522" stroke="#FF3A33" stroke-width="1.25"/>
</g>
<defs>
<clipPath id="clip0_2_835">
<rect width="135" height="50" fill="white" transform="translate(0.796387 0.84668)"/>
</clipPath>
</defs>
</svg>
