<svg width="16" height="15" viewBox="0 0 16 15" fill="none" xmlns="http://www.w3.org/2000/svg">
<path d="M8.08984 0.394075C8.36328 0.412305 8.5638 0.539909 8.69141 0.776888L10.5508 4.63236L14.7344 5.23392C15.0078 5.28861 15.1901 5.44355 15.2813 5.69876C15.3542 5.95397 15.2995 6.17272 15.1172 6.35501L12.082 9.36283L12.793 13.6285C12.8294 13.8837 12.7383 14.1024 12.5195 14.2847C12.3008 14.4305 12.0729 14.4396 11.8359 14.312L8.08984 12.316L4.34375 14.312C4.10677 14.4396 3.87891 14.4214 3.66016 14.2574C3.44141 14.0933 3.35026 13.8837 3.38672 13.6285L4.09766 9.36283L1.0625 6.35501C0.880208 6.17272 0.825521 5.95397 0.898438 5.69876C0.989583 5.44355 1.17188 5.28861 1.44531 5.23392L5.62891 4.63236L7.48828 0.776888C7.61589 0.539909 7.81641 0.412305 8.08984 0.394075ZM8.08984 2.55423L6.64062 5.50736C6.54948 5.70788 6.38542 5.83548 6.14844 5.89017L2.92188 6.35501L5.27344 8.67923C5.41927 8.84329 5.48307 9.0347 5.46484 9.25345L4.89062 12.5347L7.78906 11.0035C7.98958 10.8941 8.1901 10.8941 8.39062 11.0035L11.2617 12.5347L10.7148 9.25345C10.6784 9.0347 10.7422 8.84329 10.9062 8.67923L13.2578 6.35501L10.0312 5.89017C9.79427 5.83548 9.63021 5.70788 9.53906 5.50736L8.08984 2.55423Z" fill="#0F172A"/>
</svg>
