<svg width="136" height="42" viewBox="0 0 136 42" fill="none" xmlns="http://www.w3.org/2000/svg">
<g clip-path="url(#clip0_2_951)">
<path d="M130.36 1.34375H6.06482C3.31884 1.34375 1.09277 3.56981 1.09277 6.3158V36.1461C1.09277 38.8921 3.31884 41.1181 6.06482 41.1181H130.36C133.106 41.1181 135.332 38.8921 135.332 36.1461V6.3158C135.332 3.56981 133.106 1.34375 130.36 1.34375Z" fill="black"/>
<path d="M130.363 2.1287C131.47 2.13227 132.531 2.57477 133.313 3.35922C134.095 4.14367 134.534 5.20611 134.534 6.3137V36.1487C134.53 37.2539 134.09 38.3129 133.308 39.0945C132.527 39.876 131.468 40.3166 130.363 40.3202H6.06126C4.95601 40.3166 3.89704 39.876 3.1155 39.0945C2.33396 38.3129 1.89332 37.2539 1.88976 36.1487V6.3137C1.88976 5.20611 2.32882 4.14367 3.11074 3.35922C3.89267 2.57477 4.95367 2.13227 6.06126 2.1287H130.363ZM130.363 1.3457H6.06126C4.74421 1.34749 3.48162 1.87147 2.55033 2.80277C1.61903 3.73406 1.09505 4.99666 1.09326 6.3137V36.1487C1.09505 37.4657 1.61903 38.7283 2.55033 39.6596C3.48162 40.5909 4.74421 41.1149 6.06126 41.1167H130.363C131.68 41.1149 132.942 40.5909 133.873 39.6596C134.805 38.7283 135.329 37.4657 135.331 36.1487V6.3137C135.329 4.99782 134.806 3.73625 133.876 2.80515C132.946 1.87405 131.685 1.34927 130.369 1.3457H130.363Z" fill="#A6A6A6"/>
<path d="M50.5438 11.781C50.5606 12.1167 50.5095 12.4523 50.3935 12.7678C50.2776 13.0833 50.0991 13.3721 49.8688 13.617C49.6072 13.8867 49.2916 14.0983 48.9427 14.2379C48.5938 14.3775 48.2193 14.4419 47.8438 14.427C47.2765 14.419 46.724 14.245 46.2545 13.9264C45.7851 13.6078 45.4193 13.1586 45.2024 12.6343C44.9855 12.11 44.927 11.5337 45.0342 10.9766C45.1413 10.4194 45.4094 9.90588 45.8053 9.49947C46.0687 9.23068 46.3841 9.01841 46.7323 8.87566C47.0804 8.7329 47.4541 8.66266 47.8303 8.66921C48.2241 8.66334 48.6148 8.73918 48.9778 8.89196C49.3071 9.02479 49.6006 9.23285 49.8351 9.49947L49.3423 9.99222C49.1584 9.77541 48.9268 9.60409 48.6657 9.49167C48.4046 9.37925 48.121 9.32879 47.8371 9.34421C47.5495 9.34222 47.2644 9.39841 46.9991 9.50941C46.7338 9.6204 46.4936 9.78391 46.2931 9.99009C46.0926 10.1963 45.9359 10.4409 45.8323 10.7092C45.7288 10.9775 45.6805 11.264 45.6906 11.5515C45.6804 11.9819 45.7991 12.4056 46.0315 12.7681C46.2639 13.1306 46.5993 13.4154 46.9947 13.5859C47.3901 13.7564 47.8274 13.8048 48.2505 13.7249C48.6737 13.6451 49.0633 13.4406 49.3693 13.1377C49.6514 12.8311 49.8143 12.4336 49.8283 12.0172H47.8438V11.3557H50.5168C50.5398 11.4895 50.5511 11.625 50.5506 11.7607L50.5438 11.781ZM54.7626 9.48597H52.2786V11.2207H54.5398V11.8822H52.2786V13.6372H54.7626V14.3122H51.5428V8.79746H54.7626V9.48597ZM57.7798 14.3122H57.0711V9.47921H55.5186V8.79072H59.3661V9.46572H57.7663L57.7798 14.3122ZM62.0661 14.3122V8.79746H62.7748V14.3122H62.0661ZM65.9136 14.3122H65.2116V9.47921H63.6591V8.79072H67.4526V9.46572H65.9203L65.9136 14.3122ZM74.6346 13.5967C74.0969 14.1326 73.3687 14.4334 72.6096 14.4334C71.8504 14.4334 71.1223 14.1326 70.5846 13.5967C70.0584 13.0444 69.7649 12.3109 69.7649 11.5481C69.7649 10.7853 70.0584 10.0518 70.5846 9.49947C70.8495 9.23171 71.1648 9.01913 71.5124 8.87406C71.86 8.72899 72.2329 8.6543 72.6096 8.6543C72.9862 8.6543 73.3591 8.72899 73.7067 8.87406C74.0543 9.01913 74.3697 9.23171 74.6346 9.49947C75.1587 10.0514 75.451 10.7835 75.451 11.5447C75.451 12.3059 75.1587 13.038 74.6346 13.59V13.5967ZM71.1043 13.1242C71.5029 13.522 72.0431 13.7454 72.6062 13.7454C73.1693 13.7454 73.7094 13.522 74.1081 13.1242C74.498 12.6905 74.7137 12.1279 74.7137 11.5447C74.7137 10.9615 74.498 10.3989 74.1081 9.96521C73.7094 9.56744 73.1693 9.34406 72.6062 9.34406C72.0431 9.34406 71.5029 9.56744 71.1043 9.96521C70.7106 10.3997 70.4926 10.9651 70.4926 11.5515C70.4926 12.1378 70.7106 12.7032 71.1043 13.1377V13.1242ZM76.4368 14.3055V8.79072H77.3143L79.9941 13.0837V8.79072H80.6893V14.3055H79.9468L77.1523 9.80996V14.2987L76.4368 14.3055Z" fill="white" stroke="white" stroke-width="0.1836" stroke-miterlimit="10"/>
<path d="M69.6061 22.3587C68.8324 22.3614 68.0768 22.5933 67.4347 23.0251C66.7927 23.4569 66.293 24.0693 65.9988 24.7849C65.7045 25.5005 65.6289 26.2872 65.7815 27.0457C65.9341 27.8043 66.308 28.5006 66.8561 29.0468C67.4041 29.593 68.1017 29.9645 68.8608 30.1145C69.6199 30.2644 70.4063 30.1861 71.1209 29.8894C71.8355 29.5927 72.4462 29.0909 72.8757 28.4474C73.3053 27.8039 73.5346 27.0475 73.5346 26.2737C73.5438 25.7559 73.4484 25.2416 73.254 24.7616C73.0597 24.2815 72.7705 23.8457 72.4036 23.4801C72.0368 23.1145 71.5999 22.8268 71.1192 22.6341C70.6385 22.4414 70.1239 22.3478 69.6061 22.3587ZM69.6061 28.6362C69.1299 28.6702 68.6545 28.5598 68.2419 28.3196C67.8293 28.0793 67.4986 27.7204 67.293 27.2895C67.0874 26.8586 67.0164 26.3757 67.0892 25.9039C67.162 25.432 67.3753 24.993 67.7012 24.6442C68.0272 24.2953 68.4506 24.0527 68.9165 23.948C69.3823 23.8434 69.8689 23.8815 70.3127 24.0574C70.7566 24.2333 71.1371 24.5388 71.4048 24.9341C71.6725 25.3295 71.8149 25.7963 71.8134 26.2737C71.8269 26.5741 71.7805 26.8741 71.6767 27.1562C71.573 27.4383 71.414 27.697 71.2091 27.917C71.0042 28.1369 70.7575 28.3138 70.4834 28.4373C70.2093 28.5608 69.9134 28.6285 69.6129 28.6362H69.6061ZM61.0471 22.3587C60.2728 22.3587 59.5159 22.5883 58.8721 23.0185C58.2282 23.4487 57.7264 24.0602 57.4301 24.7755C57.1338 25.4909 57.0563 26.2781 57.2073 27.0375C57.3584 27.7969 57.7313 28.4945 58.2788 29.0421C58.8263 29.5896 59.5239 29.9624 60.2833 30.1135C61.0428 30.2646 61.8299 30.187 62.5453 29.8907C63.2607 29.5944 63.8721 29.0926 64.3023 28.4488C64.7325 27.805 64.9621 27.0481 64.9621 26.2737C64.9713 25.7559 64.8759 25.2416 64.6815 24.7616C64.4872 24.2815 64.198 23.8457 63.8311 23.4801C63.4643 23.1145 63.0274 22.8268 62.5467 22.6341C62.066 22.4414 61.5514 22.3478 61.0336 22.3587H61.0471ZM61.0471 28.6362C60.5705 28.6729 60.094 28.565 59.6797 28.3266C59.2655 28.0881 58.9327 27.7303 58.725 27.2999C58.5173 26.8694 58.4442 26.3863 58.5153 25.9136C58.5865 25.441 58.7985 25.0007 59.1238 24.6505C59.449 24.3002 59.8723 24.0562 60.3384 23.9503C60.8045 23.8444 61.2917 23.8815 61.7364 24.0568C62.181 24.2322 62.5625 24.5375 62.8309 24.933C63.0993 25.3285 63.2422 25.7958 63.2409 26.2737C63.2544 26.5741 63.208 26.8741 63.1042 27.1562C63.0005 27.4383 62.8415 27.697 62.6366 27.917C62.4317 28.1369 62.185 28.3138 61.9109 28.4373C61.6368 28.5608 61.3409 28.6285 61.0404 28.6362H61.0471ZM50.8546 23.5737V25.2207H54.8169C54.7559 26.0019 54.4324 26.7394 53.8989 27.3132C53.5013 27.7186 53.0232 28.0362 52.4954 28.2455C51.9675 28.4547 51.4017 28.5511 50.8344 28.5282C49.6636 28.5282 48.5407 28.0631 47.7128 27.2353C46.885 26.4074 46.4199 25.2845 46.4199 24.1137C46.4199 22.9429 46.885 21.8201 47.7128 20.9922C48.5407 20.1643 49.6636 19.6992 50.8344 19.6992C51.9556 19.6808 53.0384 20.108 53.8449 20.8872L55.0059 19.7195C54.4621 19.1685 53.8134 18.7323 53.098 18.4366C52.3826 18.141 51.6152 17.9919 50.8411 17.9982C49.2299 17.9982 47.6847 18.6383 46.5454 19.7776C45.4062 20.9169 44.7661 22.4621 44.7661 24.0732C44.7661 25.6844 45.4062 27.2296 46.5454 28.3689C47.6847 29.5082 49.2299 30.1482 50.8411 30.1482C51.6281 30.1835 52.4136 30.05 53.1447 29.7566C53.8759 29.4632 54.5358 29.0168 55.0801 28.4472C56.042 27.3878 56.5551 25.9963 56.5111 24.566C56.5155 24.2175 56.4861 23.8693 56.4234 23.5265H50.8411L50.8546 23.5737ZM92.5156 24.8562C92.2766 24.1496 91.8284 23.5323 91.2304 23.0862C90.6325 22.6402 89.9131 22.3865 89.1676 22.3587C88.664 22.3577 88.1655 22.4601 87.703 22.6595C87.2406 22.859 86.824 23.1513 86.4791 23.5184C86.1342 23.8854 85.8684 24.3193 85.6981 24.7933C85.5277 25.2673 85.4565 25.7711 85.4889 26.2737C85.4789 26.7871 85.5722 27.2973 85.7635 27.7738C85.9547 28.2504 86.2399 28.6836 86.6021 29.0476C86.9642 29.4116 87.3959 29.6991 87.8715 29.8928C88.347 30.0865 88.8567 30.1826 89.3701 30.1752C90.013 30.1787 90.6467 30.0226 91.2145 29.721C91.7823 29.4195 92.2664 28.9818 92.6236 28.4472L91.2939 27.5225C91.0946 27.854 90.8124 28.128 90.4751 28.3174C90.1378 28.5068 89.7569 28.605 89.3701 28.6025C88.973 28.6174 88.5806 28.5129 88.2436 28.3022C87.9067 28.0916 87.6407 27.7847 87.4801 27.4212L92.7114 25.2612L92.5156 24.8562ZM87.1831 26.159C87.1639 25.8746 87.2018 25.5893 87.2944 25.3198C87.387 25.0502 87.5325 24.8019 87.7224 24.5894C87.9123 24.3769 88.1427 24.2044 88.4002 24.0822C88.6576 23.9599 88.9369 23.8903 89.2216 23.8775C89.5182 23.8587 89.8138 23.9274 90.0718 24.0749C90.3297 24.2225 90.5387 24.4425 90.6729 24.7077L87.1831 26.159ZM82.9306 29.939H84.6519V18.464H82.9306V29.939ZM80.1159 23.2362H80.0619C79.8023 22.9473 79.4849 22.7163 79.1302 22.5581C78.7755 22.4 78.3915 22.3182 78.0031 22.3182C76.9648 22.3182 75.969 22.7307 75.2348 23.4649C74.5006 24.1991 74.0881 25.1949 74.0881 26.2332C74.0881 27.2716 74.5006 28.2674 75.2348 29.0016C75.969 29.7358 76.9648 30.1482 78.0031 30.1482C78.3925 30.1549 78.7786 30.0761 79.1343 29.9175C79.49 29.7589 79.8066 29.5243 80.0619 29.2302H80.1159V29.8647C80.1159 31.3632 79.3059 32.1597 78.0234 32.1597C77.5969 32.1482 77.1834 32.0106 76.835 31.7643C76.4867 31.5181 76.219 31.1742 76.0659 30.776L74.5606 31.397C74.8431 32.0837 75.3243 32.6703 75.9424 33.0816C76.5606 33.493 77.2876 33.7102 78.0301 33.7055C80.0551 33.7055 81.7156 32.5242 81.7156 29.6352V22.5815H80.1294L80.1159 23.2362ZM78.1584 28.6362C77.5736 28.5737 77.0326 28.2972 76.6395 27.8598C76.2464 27.4224 76.0289 26.8551 76.0289 26.267C76.0289 25.6789 76.2464 25.1116 76.6395 24.6742C77.0326 24.2368 77.5736 23.9602 78.1584 23.8977C78.4532 23.9122 78.7422 23.9856 79.0081 24.1137C79.2741 24.2418 79.5116 24.422 79.7067 24.6435C79.9018 24.8651 80.0505 25.1235 80.144 25.4035C80.2374 25.6835 80.2738 25.9794 80.2509 26.2737C80.2748 26.5687 80.2386 26.8653 80.1445 27.1459C80.0504 27.4264 79.9004 27.6849 79.7035 27.9058C79.5067 28.1266 79.267 28.3053 78.9991 28.4308C78.7312 28.5564 78.4406 28.6263 78.1449 28.6362H78.1584ZM100.568 18.4437H96.4644V29.9457H98.1856V25.5987H100.589C101.076 25.6278 101.564 25.5567 102.023 25.39C102.482 25.2232 102.902 24.9643 103.257 24.6291C103.612 24.2939 103.895 23.8896 104.088 23.441C104.281 22.9924 104.38 22.5091 104.379 22.0208C104.378 21.5325 104.277 21.0496 104.083 20.6017C103.888 20.1539 103.604 19.7506 103.247 19.4168C102.891 19.083 102.47 18.8256 102.01 18.6606C101.551 18.4955 101.062 18.4263 100.575 18.4572L100.568 18.4437ZM100.568 23.9787H98.1789V20.0502H100.609C100.868 20.0502 101.124 20.1012 101.363 20.2003C101.602 20.2993 101.82 20.4445 102.003 20.6275C102.186 20.8105 102.331 21.0278 102.43 21.267C102.529 21.5061 102.58 21.7624 102.58 22.0212C102.58 22.2801 102.529 22.5364 102.43 22.7755C102.331 23.0146 102.186 23.2319 102.003 23.4149C101.82 23.598 101.602 23.7431 101.363 23.8422C101.124 23.9413 100.868 23.9922 100.609 23.9922L100.568 23.9787ZM111.179 22.3182C110.554 22.2817 109.932 22.4283 109.389 22.74C108.846 23.0517 108.405 23.5151 108.122 24.0732L109.64 24.7145C109.789 24.4374 110.015 24.2094 110.29 24.0584C110.566 23.9074 110.879 23.8399 111.193 23.864C111.412 23.8368 111.635 23.8539 111.848 23.9144C112.06 23.9748 112.259 24.0772 112.431 24.2157C112.604 24.3541 112.747 24.5258 112.852 24.7204C112.957 24.9151 113.021 25.1288 113.042 25.349V25.4637C112.488 25.1685 111.868 25.0155 111.24 25.0182C109.593 25.0182 107.933 25.943 107.933 27.6102C107.949 27.9651 108.036 28.313 108.189 28.6336C108.342 28.9542 108.557 29.241 108.823 29.4769C109.088 29.7128 109.398 29.8932 109.735 30.0073C110.071 30.1215 110.427 30.1671 110.781 30.1415C111.215 30.1718 111.649 30.0843 112.038 29.8883C112.426 29.6922 112.755 29.3949 112.988 29.0277H113.042V29.9457H114.703V25.5312C114.703 23.5197 113.171 22.3587 111.213 22.3587L111.179 22.3182ZM110.977 28.6227C110.67 28.6679 110.357 28.5917 110.105 28.4103C109.853 28.2289 109.681 27.9564 109.627 27.6507C109.627 26.726 110.606 26.4222 111.47 26.4222C112.012 26.4102 112.548 26.543 113.022 26.807C112.965 27.3039 112.732 27.7638 112.363 28.1023C111.995 28.4407 111.517 28.6351 111.017 28.6497L110.977 28.6227ZM120.744 22.6017L118.773 27.5832H118.719L116.674 22.6017H114.838L117.896 29.5677L116.154 33.4422H117.943L122.654 22.6017H120.751H120.744ZM105.287 29.9592H107.001V18.4572H105.28L105.287 29.9592Z" fill="white"/>
<path d="M16.544 9.28349C16.2417 9.6452 16.0896 10.109 16.1188 10.5795V30.924C16.093 31.3899 16.245 31.8482 16.544 32.2065L16.6115 32.274L27.9988 20.8935V20.61L16.6048 9.22949L16.544 9.28349Z" fill="url(#paint0_linear_2_951)"/>
<path d="M31.779 24.6868L27.999 20.8866V20.6166L31.779 16.8096L31.8465 16.8568L36.369 19.4218C37.6515 20.1441 37.6515 21.3456 36.369 22.0813L31.8735 24.6328L31.779 24.6868Z" fill="url(#paint1_linear_2_951)"/>
<path d="M31.8804 24.6332L27.9992 20.752L16.5444 32.2067C16.8068 32.4367 17.1411 32.5679 17.4898 32.5777C17.8385 32.5876 18.1798 32.4755 18.4547 32.2607L31.8872 24.6332" fill="url(#paint2_linear_2_951)"/>
<path d="M31.8803 16.871L18.4478 9.24353C18.1731 9.02609 17.8309 8.91175 17.4807 8.92038C17.1305 8.92901 16.7944 9.06006 16.5308 9.29077L28.0058 20.7658L31.8803 16.871Z" fill="url(#paint3_linear_2_951)"/>
<path opacity="0.2" d="M31.7791 24.5527L18.4478 32.1397C18.1823 32.3396 17.8589 32.4477 17.5265 32.4477C17.1941 32.4477 16.8707 32.3396 16.6051 32.1397L16.5376 32.2072L16.6051 32.2747C16.8702 32.4757 17.1938 32.5844 17.5265 32.5844C17.8591 32.5844 18.1827 32.4757 18.4478 32.2747L31.8803 24.6337L31.7791 24.5527Z" fill="black"/>
<path opacity="0.12" d="M16.5443 32.0785C16.2453 31.7202 16.0933 31.2619 16.119 30.796V30.931C16.0933 31.3969 16.2453 31.8552 16.5443 32.2135L16.6118 32.146L16.5443 32.0785ZM36.369 21.9535L31.779 24.5522L31.8465 24.6332L36.369 22.0682C36.624 21.9485 36.843 21.7639 37.0041 21.5329C37.1653 21.3019 37.2628 21.0326 37.287 20.752C37.2346 21.0068 37.1247 21.2464 36.9656 21.4522C36.8065 21.6581 36.6024 21.825 36.369 21.94V21.9535Z" fill="black"/>
<path opacity="0.25" d="M18.4478 9.36448L36.3691 19.557C36.6033 19.6727 36.8078 19.8405 36.9669 20.0476C37.1261 20.2548 37.2356 20.4956 37.2871 20.7517C37.2651 20.4687 37.1687 20.1966 37.0074 19.963C36.8462 19.7295 36.6259 19.5428 36.3691 19.422L18.4478 9.22948C17.1653 8.50048 16.1123 9.10798 16.1123 10.5795V10.7145C16.1326 9.22948 17.1586 8.63548 18.4411 9.36448H18.4478Z" fill="white"/>
</g>
<defs>
<linearGradient id="paint0_linear_2_951" x1="26.9786" y1="10.427" x2="11.5519" y2="25.8536" gradientUnits="userSpaceOnUse">
<stop stop-color="#00A0FF"/>
<stop offset="0.01" stop-color="#00A1FF"/>
<stop offset="0.26" stop-color="#00BEFF"/>
<stop offset="0.51" stop-color="#00D2FF"/>
<stop offset="0.76" stop-color="#00DFFF"/>
<stop offset="1" stop-color="#00E3FF"/>
</linearGradient>
<linearGradient id="paint1_linear_2_951" x1="38.0386" y1="20.8063" x2="15.7995" y2="20.8063" gradientUnits="userSpaceOnUse">
<stop stop-color="#FFE000"/>
<stop offset="0.41" stop-color="#FFBD00"/>
<stop offset="0.78" stop-color="#FFA500"/>
<stop offset="1" stop-color="#FF9C00"/>
</linearGradient>
<linearGradient id="paint2_linear_2_951" x1="29.7646" y1="22.9211" x2="8.84022" y2="43.8363" gradientUnits="userSpaceOnUse">
<stop stop-color="#FF3A44"/>
<stop offset="1" stop-color="#C31162"/>
</linearGradient>
<linearGradient id="paint3_linear_2_951" x1="13.6482" y1="2.58543" x2="22.9888" y2="11.926" gradientUnits="userSpaceOnUse">
<stop stop-color="#32A071"/>
<stop offset="0.07" stop-color="#2DA771"/>
<stop offset="0.48" stop-color="#15CF74"/>
<stop offset="0.8" stop-color="#06E775"/>
<stop offset="1" stop-color="#00F076"/>
</linearGradient>
<clipPath id="clip0_2_951">
<rect width="135" height="40.5" fill="white" transform="translate(0.796387 0.84668)"/>
</clipPath>
</defs>
</svg>
