<svg width="136" height="51" viewBox="0 0 136 51" fill="none" xmlns="http://www.w3.org/2000/svg">
<g clip-path="url(#clip0_2_903)">
<path d="M0.796387 2.3026L1.5952 2.45762L2.39402 2.59051L3.19284 1.45572L3.99165 2.81431L4.79047 7.00542L5.58929 9.58932L6.3881 5.03908L7.18692 4.44409L7.98574 6.1403L8.78455 1.97182L9.58337 0.84668L10.3822 3.27276L11.181 1.36583L11.9798 2.20886L12.7786 1.93148L13.5775 1.93501L14.3763 1.5679L15.1751 3.42663L15.9739 6.00381L16.7727 12.4635L17.5715 25.0117L18.3704 22.895L19.1692 30.7372L19.968 31.269L20.7668 33.6939L21.5656 35.7121L22.3644 38.1591L23.1632 33.0368L23.9621 35.2602L24.7609 35.7811L25.5597 36.692L26.3585 32.7331L27.1573 32.2646L27.9562 30.0835L28.755 31.3767L29.5538 29.7747L30.3526 27.5184L31.1514 27.0549L31.9502 26.8766L32.7491 34.5548L33.5479 34.74L34.3467 34.6779L35.1455 38.9907L35.9443 35.7942L36.7431 38.5242L37.542 33.9127L38.3408 39.6574L39.1396 39.7434L39.9384 45.6207L40.7372 48.2321L41.536 43.576L42.3348 44.3933L43.1337 44.228L43.9325 45.3857L44.7313 43.4196L45.5301 42.5059L46.3289 40.1227L47.1277 38.9214L47.9266 37.7659L48.7254 39.5755L49.5242 38.296L50.323 42.7746L51.1218 50.634L51.9206 44.7035L52.7195 39.2738L53.5183 44.1602L54.3171 41.9506L55.1159 42.1309L55.9147 47.6193L56.7135 45.9172L57.5124 50.8467L58.3112 45.3516L59.11 45.8128L59.9088 41.8347L60.7076 46.8489L61.5064 45.2481L62.3053 43.8155L63.1041 43.0764L63.9029 44.4069L64.7017 37.3343L65.5005 38.484L66.2993 38.885L67.0982 38.0205L67.897 34.2967L68.6958 39.5294L69.4946 37.4879L70.2934 37.0972L71.0922 38.9869L71.8911 40.3627L72.6899 39.0779L73.4887 36.1866L74.2875 36.8199L75.0863 36.7622L75.8851 33.7632L76.684 29.1806L77.4828 31.0468L78.2816 28.119L79.0804 29.4464L79.8792 29.252L80.678 31.1611L81.4769 32.7045L82.2757 30.9347L83.0745 30.215L83.8733 30.6351L84.6721 34.9086L85.4709 34.9L86.2698 32.6822L87.0686 30.8871L87.8674 29.9732L88.6662 30.2062L89.465 29.8442L90.2638 29.4131L91.0627 31.4196L91.8615 29.1201L92.6603 28.116L93.4591 28.8987L94.2579 28.9739L95.0567 28.2123L95.8556 32.9889L96.6544 32.988L97.4532 32.4132L98.252 35.7498L99.0508 38.2057L99.8496 35.6129L100.648 32.3222L101.447 34.4271L102.246 33.4441L103.045 32.7674L103.844 32.7027L104.643 32.7512L105.441 34.2566L106.24 31.6952L107.039 31.7377L107.838 33.1055L108.637 31.7219L109.435 29.893L110.234 30.6831L111.033 28.1716L111.832 27.5212L112.631 29.7508L113.43 26.3997L114.228 27.1608L115.027 28.4358L115.826 30.1796L116.625 30.2961L117.424 30.5522L118.222 31.5399L119.021 32.2505L119.82 29.0984L120.619 29.539L121.418 25.9587L122.217 24.2816L123.015 24.6688L123.814 22.0407L124.613 23.6453L125.412 23.9455L126.211 22.6102L127.009 24.1988L127.808 25.3491L128.607 27.605L129.406 30.7028L130.205 28.7257L131.003 31.1825L131.802 26.7307L132.601 27.9827L133.4 28.2634L134.199 25.9636L134.998 32.547" stroke="#FF3A33" stroke-width="1.25"/>
</g>
<defs>
<clipPath id="clip0_2_903">
<rect width="135" height="50" fill="white" transform="translate(0.796387 0.84668)"/>
</clipPath>
</defs>
</svg>
