<svg width="15" height="15" viewBox="0 0 15 15" fill="none" xmlns="http://www.w3.org/2000/svg">
<path d="M9.54639 0.693359C9.29118 0.693359 9.08154 0.775391 8.91748 0.939453C8.75342 1.10352 8.67139 1.31315 8.67139 1.56836C8.67139 1.82357 8.75342 2.0332 8.91748 2.19727C9.08154 2.36133 9.29118 2.44336 9.54639 2.44336H11.8159L6.29248 7.93945C6.12842 8.12174 6.04639 8.33138 6.04639 8.56836C6.04639 8.80534 6.12842 9.01497 6.29248 9.19727C6.47477 9.36133 6.68441 9.44336 6.92139 9.44336C7.15837 9.44336 7.368 9.36133 7.55029 9.19727L13.0464 3.67383V5.94336C13.0464 6.19857 13.1284 6.4082 13.2925 6.57227C13.4565 6.73633 13.6662 6.81836 13.9214 6.81836C14.1766 6.81836 14.3862 6.73633 14.5503 6.57227C14.7144 6.4082 14.7964 6.19857 14.7964 5.94336V1.56836C14.7964 1.31315 14.7144 1.10352 14.5503 0.939453C14.3862 0.775391 14.1766 0.693359 13.9214 0.693359H9.54639ZM2.98389 1.56836C2.3641 1.58659 1.84456 1.79622 1.42529 2.19727C1.02425 2.61654 0.814616 3.13607 0.796387 3.75586V12.5059C0.814616 13.1257 1.02425 13.6452 1.42529 14.0645C1.84456 14.4655 2.3641 14.6751 2.98389 14.6934H11.7339C12.3537 14.6751 12.8732 14.4655 13.2925 14.0645C13.6935 13.6452 13.9032 13.1257 13.9214 12.5059V9.44336C13.9214 9.18815 13.8394 8.97852 13.6753 8.81445C13.5112 8.65039 13.3016 8.56836 13.0464 8.56836C12.7912 8.56836 12.5815 8.65039 12.4175 8.81445C12.2534 8.97852 12.1714 9.18815 12.1714 9.44336V12.5059C12.1532 12.7793 12.0073 12.9251 11.7339 12.9434H2.98389C2.71045 12.9251 2.56462 12.7793 2.54639 12.5059V3.75586C2.56462 3.48242 2.71045 3.33659 2.98389 3.31836H6.04639C6.3016 3.31836 6.51123 3.23633 6.67529 3.07227C6.83936 2.9082 6.92139 2.69857 6.92139 2.44336C6.92139 2.18815 6.83936 1.97852 6.67529 1.81445C6.51123 1.65039 6.3016 1.56836 6.04639 1.56836H2.98389Z" fill="#64748B"/>
</svg>
