<svg width="136" height="51" viewBox="0 0 136 51" fill="none" xmlns="http://www.w3.org/2000/svg">
<g clip-path="url(#clip0_2_881)">
<path d="M0.796387 8.49063L1.5952 8.30582L2.39402 8.05842L3.19284 6.22724L3.99165 6.84312L4.79047 11.2001L5.58929 12.9252L6.3881 7.60251L7.18692 9.17023L7.98574 8.1848L8.78455 5.67225L9.58337 3.97234L10.3822 4.80894L11.181 2.11111L11.9798 0.84668L12.7786 2.09812L13.5775 3.31096L14.3763 2.41037L15.1751 5.64788L15.9739 6.2718L16.7727 10.1987L17.5715 17.9838L18.3704 18.8337L19.1692 24.7488L19.968 26.134L20.7668 28.2796L21.5656 31.0873L22.3644 29.1694L23.1632 30.09L23.9621 30.3075L24.7609 31.0495L25.5597 30.2829L26.3585 28.5615L27.1573 27.3674L27.9562 25.2311L28.755 28.3591L29.5538 28.5693L30.3526 26.4874L31.1514 27.0108L31.9502 27.1066L32.7491 32.0703L33.5479 31.3375L34.3467 32.8766L35.1455 35.2219L35.9443 31.9483L36.7431 33.1126L37.542 29.7878L38.3408 35.5613L39.1396 37.8322L39.9384 45.938L40.7372 45.3665L41.536 41.8177L42.3348 42.8978L43.1337 43.8607L43.9325 44.1291L44.7313 42.6525L45.5301 41.4364L46.3289 41.0264L47.1277 39.2503L47.9266 38.84L48.7254 39.8233L49.5242 39.1167L50.323 43.8822L51.1218 47.7168L51.9206 43.3622L52.7195 41.2102L53.5183 45.8237L54.3171 45.5261L55.1159 42.2554L55.9147 46.7152L56.7135 46.6674L57.5124 50.8467L58.3112 47.4622L59.11 48.2335L59.9088 44.8072L60.7076 46.6234L61.5064 44.7482L62.3053 44.599L63.1041 43.8067L63.9029 45.7601L64.7017 41.9487L65.5005 42.8944L66.2993 44.5206L67.0982 42.9989L67.897 41.1205L68.6958 41.8112L69.4946 39.6716L70.2934 39.282L71.0922 39.2994L71.8911 40.7983L72.6899 40.2226L73.4887 38.267L74.2875 39.6682L75.0863 38.839L75.8851 36.7829L76.684 35.9242L77.4828 36.6982L78.2816 34.5367L79.0804 33.8488L79.8792 33.7588L80.678 33.8164L81.4769 34.4038L82.2757 35.1819L83.0745 33.079L83.8733 33.0692L84.6721 36.1315L85.4709 36.0941L86.2698 34.1079L87.0686 33.0995L87.8674 31.9269L88.6662 32.6823L89.465 32.092L90.2638 30.0823L91.0627 31.2881L91.8615 30.5301L92.6603 29.4218L93.4591 32.4785L94.2579 31.4969L95.0567 31.8595L95.8556 34.1816L96.6544 34.0787L97.4532 35.9226L98.252 36.9582L99.0508 37.707L99.8496 36.483L100.648 34.369L101.447 35.023L102.246 35.5506L103.045 33.4691L103.844 34.2523L104.643 35.4029L105.441 35.5609L106.24 35.5438L107.039 35.715L107.838 34.8796L108.637 34.5681L109.435 33.3127L110.234 33.2381L111.033 32.6791L111.832 31.0033L112.631 31.5812L113.43 28.366L114.228 25.3243L115.027 27.1825L115.826 26.1426L116.625 24.2498L117.424 25.8851L118.222 25.9867L119.021 28.3633L119.82 25.6528L120.619 24.9162L121.418 19.058L122.217 19.6439L123.015 21.2876L123.814 20.5154L124.613 22.2371L125.412 23.5412L126.211 22.223L127.009 22.222L127.808 23.234L128.607 25.7727L129.406 28.6937L130.205 25.5549L131.003 28.3266L131.802 25.891L132.601 25.0831L133.4 24.649L134.199 23.3918L134.998 28.1561" stroke="#FF3A33" stroke-width="1.25"/>
</g>
<defs>
<clipPath id="clip0_2_881">
<rect width="135" height="50" fill="white" transform="translate(0.796387 0.84668)"/>
</clipPath>
</defs>
</svg>
