<svg width="136" height="51" viewBox="0 0 136 51" fill="none" xmlns="http://www.w3.org/2000/svg">
<g clip-path="url(#clip0_2_795)">
<path d="M0.796387 4.88066L1.5952 4.86808L2.39402 7.19043L3.19284 7.50373L3.99165 6.47322L4.79047 10.9536L5.58929 11.9888L6.3881 7.97122L7.18692 11.0845L7.98574 10.1258L8.78455 7.0924L9.58337 5.71601L10.3822 5.35774L11.181 0.84668L11.9798 2.01916L12.7786 4.06098L13.5775 4.37171L14.3763 1.88666L15.1751 3.8155L15.9739 4.28298L16.7727 12.0446L17.5715 21.9052L18.3704 24.5796L19.1692 28.7334L19.968 28.59L20.7668 31.6456L21.5656 33.5432L22.3644 31.5237L23.1632 32.6404L23.9621 34.133L24.7609 32.6948L25.5597 34.8611L26.3585 29.4086L27.1573 28.5236L27.9562 29.7281L28.755 30.7565L29.5538 30.3554L30.3526 28.2451L31.1514 27.6295L31.9502 27.3558L32.7491 33.853L33.5479 35.4287L34.3467 36.4914L35.1455 35.9181L35.9443 35.1371L36.7431 36.3453L37.542 32.3885L38.3408 37.6985L39.1396 40.0324L39.9384 46.49L40.7372 44.2208L41.536 40.8012L42.3348 42.7357L43.1337 40.9302L43.9325 42.6425L44.7313 42.3365L45.5301 38.719L46.3289 38.1202L47.1277 36.8281L47.9266 37.9852L48.7254 40.3823L49.5242 40.0474L50.323 44.4089L51.1218 50.8467L51.9206 46.3702L52.7195 43.3207L53.5183 46.2893L54.3171 47.7849L55.1159 44.9975L55.9147 46.6253L56.7135 44.9188L57.5124 49.2663L58.3112 45.6551L59.11 46.3879L59.9088 42.0958L60.7076 46.5172L61.5064 44.0879L62.3053 41.7221L63.1041 41.7618L63.9029 43.8637L64.7017 37.5568L65.5005 41.3405L66.2993 40.5976L67.0982 41.2536L67.897 39.3462L68.6958 40.8542L69.4946 39.1834L70.2934 38.8607L71.0922 39.81L71.8911 40.4918L72.6899 38.2292L73.4887 35.5914L74.2875 37.7572L75.0863 40.0793L75.8851 36.096L76.684 33.1487L77.4828 33.673L78.2816 32.303L79.0804 32.5936L79.8792 32.4541L80.678 33.2525L81.4769 33.4011L82.2757 32.1736L83.0745 32.4373L83.8733 32.8515L84.6721 37.5189L85.4709 37.7031L86.2698 37.3049L87.0686 34.5979L87.8674 34.6985L88.6662 36.0407L89.465 34.2629L90.2638 33.569L91.0627 35.1157L91.8615 34.8486L92.6603 34.5092L93.4591 37.9711L94.2579 38.707L95.0567 38.6158L95.8556 40.5451L96.6544 39.6598L97.4532 41.2751L98.252 38.731L99.0508 39.1451L99.8496 37.5527L100.648 35.9146L101.447 36.3306L102.246 36.8392L103.045 34.1931L103.844 35.7172L104.643 37.0638L105.441 37.8755L106.24 37.8455L107.039 37.6343L107.838 37.6862L108.637 37.248L109.435 36.551L110.234 37.5334L111.033 35.6265L111.832 35.0769L112.631 34.0473L113.43 29.4149L114.228 28.3641L115.027 31.4938L115.826 32.1085L116.625 31.48L117.424 33.2849L118.222 31.9961L119.021 33.5971L119.82 29.3166L120.619 27.6171L121.418 24.105L122.217 12.8072L123.015 16.2749L123.814 15.4228L124.613 14.1638L125.412 14.8778L126.211 14.6469L127.009 14.9504L127.808 17.1936L128.607 19.2823L129.406 24.3177L130.205 21.0107L131.003 23.0174L131.802 17.5721L132.601 16.4462L133.4 13.1689L134.199 12.0869L134.998 18.1275" stroke="#FF3A33" stroke-width="1.25"/>
</g>
<defs>
<clipPath id="clip0_2_795">
<rect width="135" height="50" fill="white" transform="translate(0.796387 0.84668)"/>
</clipPath>
</defs>
</svg>
