<svg width="158" height="59" viewBox="0 0 158 59" fill="none" xmlns="http://www.w3.org/2000/svg">
<g clip-path="url(#clip0_2_749)">
<path d="M0.796387 29.1237L1.72847 28.1853L2.66055 27.8456L3.59264 27.8858L4.52472 28.2631L5.4568 27.0716L6.38889 26.6411L7.32097 27.2052L8.25305 28.403L9.18514 29.157L10.1172 28.7138L11.0493 28.573L11.9814 28.678L12.9135 28.2746L13.8456 28.6781L14.7776 29.6722L15.7097 31.5105L16.6418 32.3513L17.5739 32.7385L18.506 30.5414L19.4381 27.8407L20.3701 22.0857L21.3022 19.2145L22.2343 12.7758L23.1664 9.01573L24.0985 10.0553L25.0306 6.15426L25.9626 4.00068L26.8947 3.37223L27.8268 4.0166L28.7589 4.13746L29.691 3.87148L30.6231 3.17277L31.5551 3.26111L32.4872 3.96844L33.4193 3.92485L34.3514 3.71102L35.2835 3.7876L36.2156 3.91252L37.1476 3.82793L38.0797 3.10022L39.0118 1.91809L39.9439 0.84668L40.876 1.16867L41.8081 3.43871L42.7401 7.87557L43.6722 9.29715L44.6043 14.7398L45.5364 15.5249L46.4685 13.9882L47.4006 16.2369L48.3326 17.2684L49.2647 18.7241L50.1968 19.3114L51.1289 18.7716L52.061 14.7098L52.9931 18.8417L53.9251 18.8017L54.8572 19.6311L55.7893 19.8323L56.7214 20.2433L57.6535 20.4739L58.5856 18.7159L59.5176 17.6198L60.4497 17.8322L61.3818 18.5353L62.3139 18.6841L63.246 18.8493L64.1781 18.4253L65.1101 17.4034L66.0422 19.0443L66.9743 18.422L67.9064 19.6644L68.8385 22.574L69.7706 24.7609L70.7026 25.5269L71.6347 26.2174L72.5668 26.7257L73.4989 27.8164L74.431 27.3171L75.3631 27.4085L76.2951 28.05L77.2272 28.0884L78.1593 17.197L79.0914 17.2452L80.0235 17.5307L80.9556 30.0339L81.8876 31.2972L82.8197 31.8055L83.7518 32.3716L84.6839 31.6286L85.616 32.0231L86.5481 33.2261L87.4801 33.6759L88.4122 33.3863L89.3443 34.1358L90.2764 34.2373L91.2085 34.0632L92.1406 34.2409L93.0726 34.5885L94.0047 34.8958L94.9368 35.1575L95.8689 35.6988L96.801 15.1558L97.7331 15.8217L98.6651 15.8115L99.5972 15.9827L100.529 15.8692L101.461 16.1949L102.393 16.899L103.326 18.1764L104.258 18.5734L105.19 18.862L106.122 19.7013L107.054 43.5459L107.986 45.9882L108.918 48.4887L109.85 50.425L110.782 52.7359L111.714 53.6907L112.646 54.2909L113.578 55.0225L114.511 55.439L115.443 55.4559L116.375 55.5064L117.307 55.803L118.239 56.1876L119.171 56.3334L120.103 56.8103L121.035 57.2553L121.967 57.3366L122.899 57.5989L123.831 57.8881L124.763 58.2149L125.696 58.2627L126.628 58.617L127.56 58.843L128.492 58.8088L129.424 58.5075L130.356 58.294L131.288 57.3022L132.22 56.2284L133.152 55.5594L134.084 55.488L135.016 55.4207L135.948 55.3165L136.881 55.3444L137.813 55.2973L138.745 55.0817L139.677 54.284L140.609 51.9143L141.541 50.2799L142.473 49.0224L143.405 48.0683L144.337 47.7367L145.269 47.2111L146.201 46.362L147.133 45.6079L148.066 44.956L148.998 43.5741L149.93 42.2671L150.862 40.6516L151.794 40.0539L152.726 38.7888L153.658 35.2657L154.59 34.1919L155.522 33.7734L156.454 33.0423" stroke="#FF3A33" stroke-width="1.44991"/>
</g>
<defs>
<clipPath id="clip0_2_749">
<rect width="156.59" height="57.9963" fill="white" transform="translate(0.796387 0.84668)"/>
</clipPath>
</defs>
</svg>
