<svg width="136" height="51" viewBox="0 0 136 51" fill="none" xmlns="http://www.w3.org/2000/svg">
<g clip-path="url(#clip0_9_259)">
<path d="M0.214844 14.7982L1.01366 13.4658L1.81248 13.5549L2.61129 13.4113L3.41011 13.3926L4.20893 14.7974L5.00774 11.8422L5.80656 13.0057L6.60538 10.9941L7.40419 9.62569L8.20301 9.89073L9.00183 9.19795L9.80064 6.29214L10.5995 8.39854L11.3983 5.33849L12.1971 7.74928L12.9959 4.62888L13.7947 7.67221L14.5935 12.6944L15.3924 11.9089L16.1912 9.60363L16.99 10.5931L17.7888 10.2345L18.5876 13.6263L19.3864 15.3463L20.1853 21.9479L20.9841 21.0062L21.7829 20.1276L22.5817 22.7134L23.3805 22.8287L24.1793 20.803L24.9782 24.8209L25.777 20.0926L26.5758 18.6508L27.3746 22.5217L28.1734 26.7782L28.9722 29.1898L29.7711 26.2739L30.5699 29.2513L31.3687 28.9609L32.1675 30.0708L32.9663 32.3652L33.7651 29.9929L34.564 34.557L35.3628 29.3788L36.1616 29.2909L36.9604 29.9471L37.7592 29.257L38.558 24.2587L39.3569 22.9356L40.1557 22.2849L40.9545 22.6141L41.7533 23.2043L42.5521 19.8804L43.3509 22.1915L44.1498 22.4352L44.9486 23.8696L45.7474 19.7458L46.5462 16.0153L47.345 7.83745L48.1438 16.9468L48.9427 20.8009L49.7415 24.5738L50.5403 22.8792L51.3391 20.0095L52.1379 20.8172L52.9367 19.1647L53.7356 17.7293L54.5344 18.8842L55.3332 15.2172L56.132 11.9443L56.9308 12.8162L57.7296 12.0137L58.5285 10.2969L59.3273 12.1219L60.1261 10.004L60.9249 11.7779L61.7237 12.4552L62.5225 7.55505L63.3214 7.19404L64.1202 7.59337L64.919 6.08167L65.7178 7.2031L66.5166 3.77303L67.3154 6.50037L68.1143 7.29413L68.9131 11.0737L69.7119 7.44324L70.5107 8.9021L71.3095 6.37476L72.1083 8.28013L72.9072 8.58318L73.706 7.04961L74.5048 0.547852L75.3036 4.32852L76.1024 4.93341L76.9012 10.2367L77.7001 14.1285L78.4989 14.2338L79.2977 21.6364L80.0965 15.8241L80.8953 14.2708L81.6941 14.8661L82.493 18.2406L83.2918 15.9319L84.0906 14.3406L84.8894 15.572L85.6882 16.3436L86.487 16.6442L87.2859 15.8491L88.0847 16.4449L88.8835 17.487L89.6823 18.272L90.4811 16.1866L91.2799 15.6117L92.0788 17.0685L92.8776 16.2506L93.6764 16.5355L94.4752 16.747L95.274 18.7752L96.0728 19.1073L96.8717 21.0717L97.6705 22.6242L98.4693 21.485L99.2681 20.7261L100.067 20.583L100.866 19.0788L101.665 21.8805L102.463 19.593L103.262 19.6952L104.061 19.8684L104.86 19.073L105.659 19.041L106.457 18.5982L107.256 17.4849L108.055 17.5159L108.854 16.0112L109.653 20.7546L110.452 21.1082L111.25 30.3075L112.049 35.9368L112.848 45.0603L113.647 40.5751L114.446 40.7216L115.244 35.9528L116.043 36.4074L116.842 35.213L117.641 36.7352L118.44 43.4549L119.239 46.1745L120.037 42.9957L120.836 41.6339L121.635 41.3347L122.434 41.0495L123.233 46.6245L124.031 47.192L124.83 45.2987L125.629 45.9515L126.428 45.4173L127.227 43.7764L128.025 45.1028L128.824 48.0143L129.623 50.5479L130.422 46.2411L131.221 45.1171L132.02 44.9694L132.818 41.2733L133.617 37.375L134.416 39.5149" stroke="#FF3A33" stroke-width="1.25"/>
</g>
<defs>
<clipPath id="clip0_9_259">
<rect width="135" height="50" fill="white" transform="translate(0.214844 0.547852)"/>
</clipPath>
</defs>
</svg>
