<svg width="136" height="51" viewBox="0 0 136 51" fill="none" xmlns="http://www.w3.org/2000/svg">
<g clip-path="url(#clip0_2_917)">
<path d="M0.796387 6.04616L1.59996 5.85378L2.40353 0.84668L3.2071 2.50489L4.01067 5.2739L4.81424 14.6423L5.61782 8.46649L6.42139 5.3564L7.22496 9.04584L8.02853 6.22703L8.8321 4.87612L9.63567 7.35206L10.4392 4.04177L11.2428 2.02139L12.0464 3.32698L12.85 1.88356L13.6535 2.52701L14.4571 3.77694L15.2607 5.29374L16.0642 14.4508L16.8678 13.8285L17.6714 19.6869L18.475 25.5096L19.2785 37.3343L20.0821 32.2196L20.8857 34.6222L21.6892 40.5084L22.4928 37.2036L23.2964 37.1934L24.1 34.5035L24.9035 33.4895L25.7071 33.769L26.5107 32.9671L27.3142 31.0727L28.1178 32.0351L28.9214 30.3081L29.725 27.0612L30.5285 27.2644L31.3321 27.4405L32.1357 33.5666L32.9392 34.6135L33.7428 36.2448L34.5464 35.5844L35.35 42.1177L36.1535 37.0973L36.9571 36.111L37.7607 36.2743L38.5642 37.521L39.3678 42.2805L40.1714 45.7029L40.975 40.9634L41.7785 42.5211L42.5821 42.8736L43.3857 42.3038L44.1892 40.5716L44.9928 38.6569L45.7964 39.5369L46.6 38.8649L47.4035 37.1893L48.2071 39.3462L49.0107 39.7893L49.8142 40.846L50.6178 46.1558L51.4214 43.815L52.225 43.0818L53.0285 44.1614L53.8321 46.1707L54.6357 46.5187L55.4392 46.4097L56.2428 48.1576L57.0464 50.8467L57.85 48.7684L58.6535 48.1457L59.4571 47.5103L60.2607 48.0177L61.0642 47.5083L61.8678 47.817L62.6714 45.9634L63.475 46.3221L64.2785 43.8431L65.0821 42.1804L65.8857 43.3795L66.6892 40.6582L67.4928 39.3197L68.2964 37.947L69.1 39.2694L69.9035 35.5789L70.7071 38.5749L71.5107 37.7849L72.3142 39.7111L73.1178 39.6674L73.9214 36.398L74.725 40.479L75.5285 37.4419L76.3321 34.6785L77.1357 34.4029L77.9392 33.9472L78.7428 33.412L79.5464 33.4609L80.35 35.7339L81.1535 35.6062L81.9571 36.5201L82.7607 33.7307L83.5642 34.3157L84.3678 36.0985L85.1714 38.3547L85.975 37.1699L86.7785 34.7818L87.5821 33.5412L88.3857 32.4427L89.1892 33.12L89.9928 34.0874L90.7964 34.6827L91.6 34.3769L92.4035 33.9022L93.2071 34.9701L94.0107 37.2094L94.8142 37.1691L95.6178 38.3879L96.4214 38.9228L97.225 39.4648L98.0285 43.0189L98.8321 44.301L99.6357 41.3242L100.439 40.096L101.243 40.0432L102.046 41.2734L102.85 39.1799L103.654 40.7478L104.457 41.6381L105.261 43.0393L106.064 41.587L106.868 40.0225L107.671 39.1468L108.475 39.4575L109.279 38.8537L110.082 39.9611L110.886 38.4595L111.689 38.4056L112.493 36.7774L113.296 34.0257L114.1 34.575L114.904 33.3265L115.707 34.6414L116.511 35.1252L117.314 35.0157L118.118 35.3465L118.921 36.5612L119.725 35.9306L120.529 33.93L121.332 30.9032L122.136 28.643L122.939 27.4606L123.743 29.087L124.546 29.3313L125.35 30.4266L126.154 27.3954L126.957 29.1908L127.761 28.7858L128.564 32.7787L129.368 35.7988L130.171 35.8427L130.975 35.8186L131.779 33.9753L132.582 28.8473L133.386 32.4097L134.189 31.8433L134.993 38.9838" stroke="#FF3A33" stroke-width="1.25"/>
</g>
<defs>
<clipPath id="clip0_2_917">
<rect width="135" height="50" fill="white" transform="translate(0.796387 0.84668)"/>
</clipPath>
</defs>
</svg>
