<svg width="136" height="51" viewBox="0 0 136 51" fill="none" xmlns="http://www.w3.org/2000/svg">
<g clip-path="url(#clip0_2_827)">
<path d="M0.796387 19.5325L1.5952 21.2645L2.39402 20.2711L3.19284 19.0308L3.99165 19.4485L4.79047 22.0871L5.58929 24.8764L6.3881 19.3059L7.18692 17.7215L7.98574 17.1984L8.78455 15.7943L9.58337 15.352L10.3822 15.8754L11.181 10.6584L11.9798 10.927L12.7786 11.8956L13.5775 12.5564L14.3763 11.64L15.1751 11.8986L15.9739 15.3539L16.7727 21.8865L17.5715 37.8908L18.3704 37.759L19.1692 41.6896L19.968 42.5626L20.7668 46.8219L21.5656 50.8467L22.3644 47.5392L23.1632 45.1427L23.9621 48.1548L24.7609 46.4707L25.5597 41.3386L26.3585 41.4574L27.1573 38.571L27.9562 40.0844L28.755 42.3091L29.5538 41.0651L30.3526 33.4668L31.1514 34.2285L31.9502 34.2631L32.7491 40.7812L33.5479 40.4007L34.3467 37.5305L35.1455 41.6883L35.9443 38.3375L36.7431 39.8868L37.542 34.5696L38.3408 40.6239L39.1396 42.5991L39.9384 49.353L40.7372 46.4746L41.536 43.1312L42.3348 44.1314L43.1337 43.0227L43.9325 42.4265L44.7313 40.8206L45.5301 28.8859L46.3289 25.637L47.1277 18.4381L47.9266 22.4998L48.7254 24.9009L49.5242 24.0705L50.323 25.5701L51.1218 38.264L51.9206 31.2468L52.7195 32.3169L53.5183 38.4743L54.3171 35.7105L55.1159 31.0873L55.9147 37.5159L56.7135 36.5056L57.5124 44.6455L58.3112 33.4053L59.11 30.3631L59.9088 22.5538L60.7076 30.7778L61.5064 25.619L62.3053 27.4379L63.1041 27.0904L63.9029 23.5359L64.7017 13.1763L65.5005 14.11L66.2993 19.2676L67.0982 21.2713L67.897 14.6674L68.6958 15.894L69.4946 11.5054L70.2934 14.2633L71.0922 16.9308L71.8911 17.2836L72.6899 18.4052L73.4887 11.3615L74.2875 11.7283L75.0863 11.8457L75.8851 6.28329L76.684 0.84668L77.4828 2.69311L78.2816 11.4266L79.0804 14.3103L79.8792 16.6169L80.678 17.189L81.4769 19.6137L82.2757 18.1246L83.0745 19.966L83.8733 20.8455L84.6721 25.636L85.4709 25.4551L86.2698 28.1533L87.0686 27.4551L87.8674 28.7447L88.6662 27.6442L89.465 24.6422L90.2638 25.0427L91.0627 27.3681L91.8615 27.4715L92.6603 26.2736L93.4591 28.079L94.2579 29.267L95.0567 30.304L95.8556 33.9038L96.6544 31.6253L97.4532 32.8931L98.252 34.651L99.0508 35.9105L99.8496 34.3503L100.648 29.4188L101.447 29.786L102.246 29.5977L103.045 27.3113L103.844 27.1159L104.643 29.4184L105.441 30.7891L106.24 31.7808L107.039 29.7676L107.838 29.1738L108.637 29.9933L109.435 29.8215L110.234 30.7385L111.033 31.1714L111.832 31.0208L112.631 31.4899L113.43 26.0412L114.228 25.6964L115.027 27.6694L115.826 27.9982L116.625 28.2548L117.424 29.4077L118.222 28.1283L119.021 29.5096L119.82 26.0595L120.619 25.1628L121.418 19.6119L122.217 21.0125L123.015 21.8538L123.814 22.959L124.613 22.1732L125.412 22.7819L126.211 21.1991L127.009 21.6937L127.808 25.2795L128.607 30.4915L129.406 34.7573L130.205 32.6749L131.003 34.5874L131.802 28.7194L132.601 24.9821L133.4 28.4288L134.199 26.6618L134.998 35.8763" stroke="#FF3A33" stroke-width="1.25"/>
</g>
<defs>
<clipPath id="clip0_2_827">
<rect width="135" height="50" fill="white" transform="translate(0.796387 0.84668)"/>
</clipPath>
</defs>
</svg>
