<svg width="136" height="51" viewBox="0 0 136 51" fill="none" xmlns="http://www.w3.org/2000/svg">
<g clip-path="url(#clip0_2_909)">
<path d="M0.796387 15.6113L1.5952 16.0438L2.39402 14.044L3.19284 13.7635L3.99165 16.2561L4.79047 19.5278L5.58929 19.3705L6.3881 16.5506L7.18692 14.2612L7.98574 13.455L8.78455 10.4075L9.58337 8.76191L10.3822 13.1677L11.181 12.5066L11.9798 12.5013L12.7786 12.7229L13.5775 12.7623L14.3763 13.1138L15.1751 14.3496L15.9739 14.7741L16.7727 20.2537L17.5715 28.9051L18.3704 28.9645L19.1692 36.1656L19.968 37.1246L20.7668 37.9529L21.5656 40.3658L22.3644 39.1914L23.1632 41.2572L23.9621 41.1149L24.7609 39.7583L25.5597 39.0046L26.3585 36.4436L27.1573 35.8461L27.9562 36.354L28.755 37.7002L29.5538 37.2779L30.3526 32.9691L31.1514 33.6131L31.9502 33.2053L32.7491 38.1884L33.5479 37.4759L34.3467 37.7749L35.1455 38.5284L35.9443 37.3132L36.7431 39.9495L37.542 37.8841L38.3408 41.0062L39.1396 42.6438L39.9384 49.0285L40.7372 47.3799L41.536 45.4264L42.3348 45.6761L43.1337 45.9628L43.9325 46.6418L44.7313 45.133L45.5301 43.6684L46.3289 43.3072L47.1277 42.8573L47.9266 43.2262L48.7254 44.9178L49.5242 44.1965L50.323 47.7816L51.1218 50.8467L51.9206 48.2075L52.7195 45.9274L53.5183 47.6525L54.3171 47.2979L55.1159 45.3569L55.9147 49.4057L56.7135 47.1417L57.5124 50.0489L58.3112 47.1101L59.11 48.5873L59.9088 46.1254L60.7076 48.2302L61.5064 45.863L62.3053 45.7446L63.1041 46.3034L63.9029 46.9282L64.7017 44.1222L65.5005 45.1957L66.2993 43.6263L67.0982 43.1759L67.897 40.8919L68.6958 39.9363L69.4946 39.0315L70.2934 37.9827L71.0922 40.8737L71.8911 42.4522L72.6899 39.4508L73.4887 38.2433L74.2875 42.1801L75.0863 40.8103L75.8851 39.2363L76.684 37.0464L77.4828 37.5424L78.2816 35.202L79.0804 34.1646L79.8792 35.3537L80.678 36.5263L81.4769 37.3018L82.2757 35.6542L83.0745 34.2479L83.8733 34.3977L84.6721 37.621L85.4709 37.4036L86.2698 33.9183L87.0686 30.8319L87.8674 23.3128L88.6662 23.8341L89.465 21.0247L90.2638 14.7739L91.0627 19.3427L91.8615 19.9577L92.6603 18.1058L93.4591 18.8068L94.2579 20.8661L95.0567 19.4257L95.8556 24.5766L96.6544 24.5304L97.4532 24.4896L98.252 26.9793L99.0508 28.8248L99.8496 26.5566L100.648 24.7703L101.447 24.412L102.246 23.5917L103.045 20.4595L103.844 22.658L104.643 24.4457L105.441 24.6024L106.24 22.8467L107.039 23.0015L107.838 21.0956L108.637 21.4207L109.435 19.5666L110.234 19.478L111.033 18.2411L111.832 12.4411L112.631 15.3491L113.43 13.3061L114.228 4.27349L115.027 6.76444L115.826 8.49524L116.625 8.62102L117.424 11.5836L118.222 10.9357L119.021 12.4034L119.82 10.0956L120.619 11.5672L121.418 7.89396L122.217 2.48225L123.015 5.3863L123.814 3.42273L124.613 4.05384L125.412 0.84668L126.211 1.36966L127.009 4.18332L127.808 4.66275L128.607 7.6988L129.406 13.0314L130.205 10.436L131.003 11.8397L131.802 9.33464L132.601 3.55056L133.4 4.04309L134.199 2.81168L134.998 9.01868" stroke="#32CA5B" stroke-width="1.25"/>
</g>
<defs>
<clipPath id="clip0_2_909">
<rect width="135" height="50" fill="white" transform="translate(0.796387 0.84668)"/>
</clipPath>
</defs>
</svg>
