<svg width="136" height="51" viewBox="0 0 136 51" fill="none" xmlns="http://www.w3.org/2000/svg">
<g clip-path="url(#clip0_2_374)">
<path d="M0.214844 40.534L1.01366 41.6096L1.81248 42.4738L2.61129 43.1251L3.41011 44.093L4.20893 44.9735L5.00774 43.6062L5.80656 43.3152L6.60538 45.2874L7.40419 48.9608L8.20301 50.5479L9.00183 48.1731L9.80064 45.1642L10.5995 42.7728L11.3983 42.5924L12.1971 40.6846L12.9959 38.194L13.7947 41.9604L14.5935 41.6887L15.3924 38.9265L16.1912 35.4183L16.99 32.8626L17.7888 27.0073L18.5876 30.0393L19.3864 37.3272L20.1853 43.6172L20.9841 38.5568L21.7829 36.8151L22.5817 34.4883L23.3805 32.9584L24.1793 33.1911L24.9782 35.3676L25.777 33.1591L26.5758 33.0098L27.3746 35.9042L28.1734 36.2464L28.9722 37.4361L29.7711 33.9004L30.5699 32.2623L31.3687 30.8599L32.1675 31.7043L32.9663 30.1455L33.7651 32.2997L34.564 35.2987L35.3628 33.9077L36.1616 26.6524L36.9604 27.8477L37.7592 31.6074L38.558 26.6601L39.3569 26.1681L40.1557 23.4258L40.9545 26.6306L41.7533 25.461L42.5521 22.8279L43.3509 25.2225L44.1498 25.6218L44.9486 23.6774L45.7474 26.1474L46.5462 18.0201L47.345 20.9236L48.1438 25.8945L48.9427 25.409L49.7415 28.1183L50.5403 27.5984L51.3391 25.4326L52.1379 26.4692L52.9367 25.6988L53.7356 24.3153L54.5344 28.4912L55.3332 30.2734L56.132 26.1244L56.9308 24.7268L57.7296 25.0706L58.5285 22.5146L59.3273 25.1214L60.1261 18.1049L60.9249 18.0383L61.7237 20.3545L62.5225 18.8682L63.3214 8.77586L64.1202 7.87968L64.919 4.63207L65.7178 9.85579L66.5166 2.41885L67.3154 2.16108L68.1143 0.547852L68.9131 5.61684L69.7119 5.45233L70.5107 8.43077L71.3095 8.41946L72.1083 9.78339L72.9072 9.59582L73.706 6.05156L74.5048 4.61689L75.3036 4.88468L76.1024 5.55885L76.9012 10.5051L77.7001 14.5796L78.4989 16.9363L79.2977 21.449L80.0965 15.0874L80.8953 14.5478L81.6941 14.0899L82.493 17.0866L83.2918 20.8221L84.0906 21.8107L84.8894 19.9369L85.6882 21.6597L86.487 20.6362L87.2859 19.0602L88.0847 18.0497L88.8835 18.9722L89.6823 20.4595L90.4811 18.0542L91.2799 19.7944L92.0788 22.5929L92.8776 22.6831L93.6764 21.4406L94.4752 20.0341L95.274 23.636L96.0728 24.7296L96.8717 26.5222L97.6705 29.8296L98.4693 27.5191L99.2681 24.3725L100.067 23.6933L100.866 23.3887L101.665 26.4884L102.463 25.5935L103.262 24.5996L104.061 22.3197L104.86 21.4113L105.659 20.3948L106.457 20.5433L107.256 18.5607L108.055 17.6439L108.854 17.7956L109.653 23.1904L110.452 21.862L111.25 21.2343L112.049 25.2051L112.848 29.3319L113.647 25.4039L114.446 26.0801L115.244 23.6277L116.043 25.012L116.842 22.6509L117.641 22.8071L118.44 28.1075L119.239 27.3968L120.037 24.8028L120.836 22.7644L121.635 24.6021L122.434 24.1685L123.233 26.1581L124.031 25.2557L124.83 22.4504L125.629 21.9527L126.428 20.9812L127.227 22.4208L128.025 22.9383L128.824 26.8241L129.623 33.2321L130.422 30.6066L131.221 30.904L132.02 28.6301L132.818 25.3098L133.617 24.3346L134.416 22.3202" stroke="#32CA5B" stroke-width="1.25"/>
</g>
<defs>
<clipPath id="clip0_2_374">
<rect width="135" height="50" fill="white" transform="translate(0.214844 0.547852)"/>
</clipPath>
</defs>
</svg>
