<svg width="136" height="51" viewBox="0 0 136 51" fill="none" xmlns="http://www.w3.org/2000/svg">
<g clip-path="url(#clip0_9_309)">
<path d="M0.214844 25.6459L1.00896 23.181L1.80308 24.2696L2.5972 17.9435L3.39131 20.3503L4.18543 24.7272L4.97955 25.7649L5.77367 25.814L6.56778 37.8525L7.3619 36.4549L8.15602 34.5055L8.95014 29.5011L9.74426 26.0404L10.5384 24.2492L11.3325 22.4302L12.1266 20.787L12.9207 16.5712L13.7148 14.8276L14.509 20.7296L15.3031 24.3266L16.0972 24.1279L16.8913 25.349L17.6854 25.7581L18.4795 30.5675L19.2737 31.9626L20.0678 33.4035L20.8619 31.0931L21.656 29.7626L22.4501 33.161L23.2443 32.882L24.0384 30.9843L24.8325 33.948L25.6266 30.9882L26.4207 30.4327L27.2148 39.107L28.009 43.044L28.8031 47.849L29.5972 46.8402L30.3913 48.2109L31.1854 47.5306L31.9795 49.3737L32.7737 48.8975L33.5678 46.1625L34.3619 50.5479L35.156 42.0788L35.9501 41.2764L36.7443 39.3531L37.5384 37.7632L38.3325 34.5271L39.1266 34.4851L39.9207 33.2409L40.7148 32.2112L41.509 32.7059L42.3031 28.7197L43.0972 27.4879L43.8913 29.0168L44.6854 29.3953L45.4795 26.9172L46.2737 23.1042L47.0678 21.2358L47.8619 27.394L48.656 21.3054L49.4501 22.0951L50.2443 26.5911L51.0384 23.2831L51.8325 26.75L52.6266 28.6732L53.4207 25.7763L54.2148 31.7405L55.009 30.9781L55.8031 25.1601L56.5972 22.7181L57.3913 21.2168L58.1854 18.6189L58.9795 17.7609L59.7737 14.7844L60.5678 18.1196L61.3619 23.5063L62.156 21.3865L62.9501 19.1033L63.7443 15.938L64.5384 9.43724L65.3325 8.5591L66.1266 0.547852L66.9207 4.02242L67.7148 4.73047L68.509 4.74676L69.3031 5.91352L70.0972 6.6883L70.8913 2.19503L71.6854 5.85349L72.4796 6.04405L73.2737 5.23339L74.0678 3.95597L74.8619 7.94225L75.656 5.11705L76.4501 10.1828L77.2443 10.4206L78.0384 12.4408L78.8325 15.5205L79.6266 14.5124L80.4207 12.8469L81.2148 13.0108L82.009 19.9318L82.8031 17.159L83.5972 13.8483L84.3913 14.0232L85.1854 15.5509L85.9796 11.7387L86.7737 11.4902L87.5678 10.6609L88.3619 11.1108L89.156 14.0419L89.9501 12.3956L90.7443 12.4225L91.5384 13.4633L92.3325 13.5263L93.1266 11.8228L93.9207 12.9447L94.7148 13.849L95.509 15.4675L96.3031 20.7816L97.0972 24.3193L97.8913 23.3036L98.6854 21.379L99.4796 22.6329L100.274 20.113L101.068 21.3495L101.862 19.7773L102.656 19.9585L103.45 16.2212L104.244 16.2919L105.038 16.0116L105.832 16.0165L106.627 14.9276L107.421 17.0837L108.215 16.0517L109.009 17.2307L109.803 19.9531L110.597 24.5381L111.391 32.9343L112.185 34.0506L112.98 29.7234L113.774 29.0337L114.568 23.7538L115.362 28.7939L116.156 29.1851L116.95 24.9548L117.744 35.3854L118.538 37.9174L119.332 28.8945L120.127 27.786L120.921 29.7671L121.715 35.1129L122.509 37.4282L123.303 37.1219L124.097 36.9213L124.891 43.7978L125.685 39.8108L126.48 34.1695L127.274 35.6724L128.068 39.8887L128.862 38.6158L129.656 32.4272L130.45 32.0458L131.244 32.8519L132.038 28.7933L132.832 24.0934L133.627 24.9054L134.421 26.1171" stroke="#FF3A33" stroke-width="1.25"/>
</g>
<defs>
<clipPath id="clip0_9_309">
<rect width="135" height="50" fill="white" transform="translate(0.214844 0.547852)"/>
</clipPath>
</defs>
</svg>
