<svg width="136" height="51" viewBox="0 0 136 51" fill="none" xmlns="http://www.w3.org/2000/svg">
<g clip-path="url(#clip0_9_349)">
<path d="M0.214844 40.1402L1.01366 33.7845L1.81248 32.7282L2.61129 32.6196L3.41011 36.2088L4.20893 35.729L5.00774 35.376L5.80656 34.655L6.60538 36.8711L7.40419 39.5229L8.20301 43.4697L9.00183 40.4675L9.80064 39.2842L10.5995 35.2511L11.3983 28.6554L12.1971 30.4123L12.9959 30.5373L13.7947 22.84L14.5935 19.7892L15.3924 18.2708L16.1912 14.4271L16.99 14.5233L17.7888 20.1976L18.5876 21.2107L19.3864 24.0275L20.1853 28.2099L20.9841 23.6438L21.7829 23.1079L22.5817 21.843L23.3805 22.1939L24.1793 23.995L24.9782 24.835L25.777 24.3096L26.5758 23.6409L27.3746 30.1092L28.1734 32.8934L28.9722 36.2112L29.7711 35.0942L30.5699 35.1625L31.3687 31.6181L32.1675 32.7137L32.9663 37.3007L33.7651 36.1131L34.564 40.1581L35.3628 35.4648L36.1616 32.1403L36.9604 29.3098L37.7592 29.8618L38.558 28.5646L39.3569 27.4782L40.1557 26.2781L40.9545 25.0596L41.7533 26.9897L42.5521 20.8743L43.3509 20.7159L44.1498 19.4529L44.9486 18.0252L45.7474 18.8516L46.5462 14.4406L47.345 12.9175L48.1438 16.1226L48.9427 15.7941L49.7415 19.4366L50.5403 17.6779L51.3391 15.1898L52.1379 14.0695L52.9367 12.2912L53.7356 14.4984L54.5344 15.4642L55.3332 15.769L56.132 13.6182L56.9308 12.4857L57.7296 11.3878L58.5285 14.6664L59.3273 16.694L60.1261 10.8846L60.9249 14.0103L61.7237 14.8506L62.5225 14.9149L63.3214 12.6452L64.1202 12.2774L64.919 3.13571L65.7178 2.83369L66.5166 4.66158L67.3154 6.86476L68.1143 2.9435L68.9131 7.72803L69.7119 9.03966L70.5107 10.3455L71.3095 6.25752L72.1083 5.51751L72.9072 2.37455L73.706 2.03807L74.5048 0.547852L75.3036 3.58388L76.1024 5.26682L76.9012 10.2535L77.7001 12.7645L78.4989 14.0957L79.2977 24.5104L80.0965 20.651L80.8953 16.4296L81.6941 20.7349L82.493 22.2487L83.2918 17.2442L84.0906 14.0923L84.8894 16.4619L85.6882 24.276L86.487 23.1837L87.2859 23.9403L88.0847 24.674L88.8835 24.3285L89.6823 25.5056L90.4811 25.0819L91.2799 21.1845L92.0788 24.09L92.8776 22.4764L93.6764 22.2513L94.4752 22.5953L95.274 24.5245L96.0728 26.0236L96.8717 26.845L97.6705 28.1299L98.4693 27.7956L99.2681 27.4052L100.067 30.687L100.866 22.3323L101.665 29.1857L102.463 24.3361L103.262 27.3361L104.061 24.5297L104.86 19.1289L105.659 19.8152L106.457 16.0667L107.256 16.8886L108.055 17.67L108.854 19.4802L109.653 21.9004L110.452 22.7379L111.25 25.3393L112.049 31.9222L112.848 28.5439L113.647 32.6536L114.446 34.2579L115.244 32.4307L116.043 34.1871L116.842 32.2447L117.641 35.7528L118.44 40.398L119.239 40.6462L120.037 39.2473L120.836 35.5809L121.635 38.994L122.434 34.3361L123.233 39.201L124.031 41.785L124.83 43.5815L125.629 42.9038L126.428 41.0895L127.227 41.2763L128.025 40.9248L128.824 43.3861L129.623 50.5479L130.422 42.9876L131.221 45.9148L132.02 41.8951L132.818 38.8628L133.617 40.3061L134.416 30.308" stroke="#32CA5B" stroke-width="1.25"/>
</g>
<defs>
<clipPath id="clip0_9_349">
<rect width="135" height="50" fill="white" transform="translate(0.214844 0.547852)"/>
</clipPath>
</defs>
</svg>
