<svg width="136" height="41" viewBox="0 0 136 41" fill="none" xmlns="http://www.w3.org/2000/svg">
<g clip-path="url(#clip0_2_965)">
<path d="M130.996 40.8467H5.52639C4.27272 40.844 3.07117 40.3449 2.18469 39.4584C1.29822 38.5719 0.799029 37.3703 0.796387 36.1167L0.796387 5.57668C0.796387 4.32221 1.29472 3.11911 2.18177 2.23206C3.06882 1.34502 4.27191 0.84668 5.52639 0.84668L130.996 0.84668C133.596 0.84668 135.796 2.96668 135.796 5.57668V36.1167C135.796 38.7167 133.596 40.8467 130.996 40.8467Z" fill="#A6A6A6"/>
<path d="M134.826 36.1171C134.826 37.1328 134.423 38.107 133.705 38.8253C132.986 39.5436 132.012 39.9471 130.996 39.9471H5.52629C4.51051 39.9471 3.53633 39.5436 2.81807 38.8253C2.09981 38.107 1.69629 37.1328 1.69629 36.1171V5.56707C1.70154 4.55556 2.10569 3.58698 2.82095 2.87173C3.5362 2.15648 4.50478 1.75233 5.51629 1.74707H130.996C132.012 1.74707 132.986 2.15059 133.705 2.86885C134.423 3.58712 134.826 4.56129 134.826 5.57707V36.1171Z" fill="black"/>
<path d="M30.9265 20.6271C30.8965 17.4071 33.5665 15.8271 33.6865 15.7671C32.1665 13.5671 29.8265 13.2671 28.9865 13.2371C27.0365 13.0171 25.1265 14.4071 24.1265 14.4071C23.0965 14.4071 21.5565 13.2471 19.8965 13.2871C17.7665 13.3171 15.7665 14.5571 14.6665 16.4871C12.3965 20.3871 14.0865 26.1671 16.2665 29.3371C17.3465 30.8871 18.6165 32.6371 20.2665 32.5671C21.8965 32.4971 22.5065 31.5271 24.4665 31.5271C26.4165 31.5271 26.9865 32.5571 28.6665 32.5271C30.4165 32.4871 31.5165 30.9571 32.5665 29.3871C33.8165 27.6071 34.3265 25.8571 34.3465 25.7671C34.3065 25.7471 30.9465 24.4671 30.9265 20.6071V20.6271ZM27.7265 11.1571C28.5965 10.0571 29.1965 8.58715 29.0265 7.07715C27.7665 7.12715 26.1865 7.94715 25.2765 9.01715C24.4765 9.95715 23.7465 11.5171 23.9365 12.9571C25.3565 13.0571 26.8165 12.2371 27.7365 11.1571H27.7265ZM54.4465 32.3471H52.1665L50.9265 28.4471H46.5965L45.4165 32.3471H43.2165L47.4865 19.0471H50.1265L54.4265 32.3471H54.4465ZM50.5465 26.8071L49.4265 23.3271C49.3065 22.9771 49.0865 22.1271 48.7565 20.8271H48.7165C48.5176 21.6632 48.3076 22.4967 48.0865 23.3271L46.9665 26.8071H50.5465ZM65.4465 27.4371C65.4465 29.0571 65.0165 30.3372 64.1465 31.2971C63.3465 32.1371 62.3665 32.5571 61.1965 32.5571C59.9265 32.5571 59.0265 32.1071 58.4665 31.1971H58.4265V36.2472H56.2965V25.9271C56.2965 24.8971 56.2665 23.8471 56.2165 22.7671H58.0965L58.2165 24.2971H58.2465C58.9665 23.1472 60.0465 22.5771 61.4865 22.5771C62.6065 22.5771 63.5565 23.0371 64.3165 23.9271C65.0665 24.8271 65.4465 26.0071 65.4465 27.4671V27.4371ZM63.2865 27.5071C63.2865 26.5671 63.0665 25.8071 62.6465 25.2071C62.1865 24.5571 61.5665 24.2471 60.7865 24.2471C60.2665 24.2471 59.7865 24.4271 59.3565 24.7771C58.9265 25.1271 58.6565 25.5771 58.5165 26.1471C58.4565 26.4171 58.4165 26.6271 58.4165 26.7971V28.3971C58.4165 29.0971 58.6365 29.6971 59.0665 30.1671C59.4965 30.6371 60.0465 30.8871 60.7265 30.8871C61.5265 30.8871 62.1565 30.5872 62.6065 29.9671C63.0565 29.3471 63.2765 28.5271 63.2765 27.5171L63.2865 27.5071ZM76.4865 27.4271C76.4865 29.0471 76.0465 30.3272 75.1565 31.2871C74.3765 32.1271 73.3865 32.5471 72.2165 32.5471C70.9565 32.5471 70.0465 32.0971 69.4965 31.1871H69.4665V36.2371H67.3365V25.9271C67.3365 24.8971 67.3065 23.8471 67.2565 22.7671H69.1265L69.2465 24.2971H69.2865C69.9865 23.1472 71.0665 22.5771 72.5165 22.5771C73.6465 22.5771 74.5965 23.0371 75.3465 23.9271C76.1065 24.8271 76.4865 26.0071 76.4865 27.4671V27.4271ZM74.3165 27.4971C74.3165 26.5571 74.1165 25.7971 73.6765 25.1971C73.2065 24.5471 72.5965 24.2371 71.8165 24.2371C71.2922 24.2394 70.7856 24.4272 70.3865 24.7671C69.9665 25.1171 69.6865 25.5672 69.5565 26.1371C69.4865 26.4072 69.4565 26.6171 69.4565 26.7871V28.3871C69.4565 29.0872 69.6565 29.6871 70.0965 30.1571C70.5365 30.6371 71.0965 30.8771 71.7765 30.8771C72.5765 30.8771 73.2065 30.5772 73.6565 29.9571C74.0965 29.3371 74.3265 28.5171 74.3265 27.5071L74.3165 27.4971ZM88.8165 28.5971C88.8165 29.7271 88.4365 30.6472 87.6465 31.3671C86.7765 32.1371 85.5665 32.5271 84.0165 32.5271C82.5865 32.5271 81.4365 32.2471 80.5665 31.6971L81.0665 29.9171C81.9965 30.4771 83.0265 30.7571 84.1465 30.7571C84.9465 30.7571 85.5765 30.5772 86.0265 30.2171C86.4665 29.8571 86.6965 29.3671 86.6965 28.7671C86.6965 28.2271 86.5165 27.7671 86.1465 27.3971C85.7865 27.0271 85.1665 26.6971 84.3165 26.3671C81.9865 25.4971 80.8165 24.2271 80.8165 22.5671C80.8165 21.4671 81.2165 20.5671 82.0465 19.8671C82.8465 19.1671 83.9465 18.8171 85.3065 18.8171C86.5265 18.8171 87.5265 19.0171 88.3365 19.4471L87.7965 21.2171C87.0365 20.8172 86.1965 20.6171 85.2465 20.6171C84.4965 20.6171 83.9065 20.7871 83.4865 21.1571C83.3129 21.3088 83.1747 21.4966 83.0814 21.7074C82.9881 21.9181 82.9421 22.1467 82.9465 22.3771C82.9465 22.8972 83.1465 23.3371 83.5465 23.6771C83.9065 23.9971 84.5465 24.3371 85.4865 24.7071C86.6365 25.1671 87.4865 25.7071 88.0165 26.3271C88.5565 26.9271 88.8165 27.7071 88.8165 28.6271V28.5971ZM95.8765 24.3371H93.5165V29.0071C93.5165 30.1871 93.9165 30.7771 94.7565 30.7771C95.1365 30.7771 95.4565 30.7471 95.7065 30.6771L95.7665 32.2971C95.3365 32.4571 94.7665 32.5371 94.0965 32.5371C93.2565 32.5371 92.5965 32.2771 92.1165 31.7671C91.6465 31.2671 91.4165 30.3871 91.4165 29.1671V24.3471H90.0165V22.7471H91.4165V20.9971L93.5165 20.3671V22.7671H95.8565V24.3671L95.8765 24.3371ZM106.476 27.4671C106.476 28.9371 106.046 30.1471 105.206 31.0971C104.306 32.0671 103.146 32.5571 101.686 32.5571C100.286 32.5571 99.1665 32.0871 98.3265 31.1571C97.4865 30.2271 97.0765 29.0571 97.0765 27.6271C97.0765 26.1271 97.4965 24.9072 98.3565 23.9571C99.2265 23.0171 100.386 22.5371 101.856 22.5371C103.256 22.5371 104.386 23.0171 105.236 23.9371C106.056 24.8571 106.466 26.0371 106.466 27.4671H106.476ZM104.256 27.5371C104.256 26.6371 104.056 25.8871 103.686 25.2571C103.246 24.4871 102.606 24.1071 101.786 24.1071C100.916 24.1071 100.266 24.4871 99.8265 25.2571C99.4265 25.8871 99.2465 26.6571 99.2465 27.5771C99.2465 28.4571 99.4465 29.2171 99.8265 29.8471C100.286 30.6271 100.926 31.0071 101.756 31.0071C102.576 31.0071 103.216 30.6071 103.676 29.8371C104.056 29.1871 104.256 28.4171 104.256 27.5371ZM113.396 24.6171C113.175 24.5768 112.951 24.5568 112.726 24.5571C111.976 24.5571 111.396 24.8571 110.986 25.4071C110.646 25.9071 110.466 26.5471 110.466 27.3071V32.3371H108.336L108.356 25.7671C108.356 24.6671 108.326 23.6671 108.276 22.7471H110.116L110.196 24.5971H110.256C110.486 23.9571 110.836 23.4571 111.326 23.0671C111.773 22.7395 112.313 22.5642 112.866 22.5671C113.046 22.5671 113.226 22.5671 113.386 22.5971V24.6271L113.396 24.6171ZM122.936 27.0871C122.941 27.4123 122.915 27.7372 122.856 28.0571H116.456C116.486 29.0071 116.796 29.7271 117.386 30.2271C117.936 30.6671 118.636 30.8871 119.486 30.8871C120.436 30.8871 121.306 30.7371 122.086 30.4371L122.416 31.9371C121.516 32.3171 120.436 32.5171 119.196 32.5171C117.716 32.5171 116.546 32.0772 115.696 31.2171C114.856 30.3172 114.426 29.1571 114.426 27.6771C114.426 26.2371 114.826 25.0271 115.626 24.0771C116.446 23.0471 117.556 22.5271 118.966 22.5271C120.366 22.5271 121.396 23.0271 122.106 24.0571C122.686 24.8771 122.966 25.8771 122.966 27.0771L122.936 27.0871ZM120.906 26.5371C120.906 25.9072 120.776 25.3571 120.486 24.8971C120.126 24.2971 119.566 23.9971 118.786 23.9971C118.106 23.9971 117.536 24.2971 117.106 24.8771C116.746 25.3371 116.536 25.8771 116.476 26.5371H120.906ZM49.8465 10.8471C49.8465 12.0471 49.4965 12.9171 48.7865 13.5171C48.1265 14.0671 47.1865 14.3371 45.9865 14.3371C45.3865 14.3371 44.8865 14.2971 44.4665 14.2371V7.84715C45.0165 7.74715 45.6165 7.71715 46.2665 7.71715C47.4165 7.71715 48.2665 7.96715 48.8665 8.45715C49.5065 9.01715 49.8365 9.81715 49.8365 10.8571L49.8465 10.8471ZM48.7465 10.8871C48.7465 10.1271 48.5465 9.53715 48.1465 9.12715C47.7265 8.72715 47.1465 8.52715 46.3665 8.52715C46.0365 8.52715 45.7665 8.52715 45.5165 8.58715V13.4871C45.6465 13.4871 45.8865 13.5071 46.2165 13.5071C47.0165 13.5071 47.6465 13.2771 48.0865 12.8371C48.5265 12.3971 48.7265 11.7371 48.7265 10.8771L48.7465 10.8871ZM55.7065 11.8871C55.7065 12.6071 55.5065 13.2071 55.1065 13.6671C54.6565 14.1471 54.0865 14.3871 53.3665 14.3871C52.6665 14.3871 52.1265 14.1571 51.7165 13.6871C51.3165 13.2371 51.1165 12.6571 51.1165 11.9671C51.1165 11.2371 51.3165 10.6371 51.7465 10.1671C52.1765 9.69715 52.7465 9.46715 53.4465 9.46715C54.1465 9.46715 54.7065 9.69715 55.1265 10.1671C55.5265 10.6071 55.7265 11.1671 55.7265 11.8871H55.7065ZM54.6265 11.9171C54.6265 11.4871 54.5265 11.1171 54.3465 10.7971C54.1265 10.4271 53.8165 10.2371 53.4065 10.2371C52.9865 10.2371 52.6665 10.4171 52.4465 10.7871C52.2465 11.0871 52.1665 11.4871 52.1665 11.9271C52.1665 12.3571 52.2665 12.7271 52.4465 13.0271C52.6765 13.4271 52.9865 13.5971 53.3965 13.5971C53.7965 13.5971 54.0965 13.3971 54.3265 13.0271C54.5265 12.7071 54.6265 12.3271 54.6265 11.8971V11.9171ZM63.5765 9.56715L62.0965 14.2671H61.1265L60.5265 12.2371C60.3666 11.7311 60.233 11.2171 60.1265 10.6971C60.0295 11.216 59.8959 11.7273 59.7265 12.2271L59.0865 14.2571H58.1065L56.7265 9.55715H57.7965L58.3465 11.7871C58.4665 12.3171 58.5765 12.8171 58.6665 13.2871C58.7665 12.9071 58.8865 12.4071 59.0665 11.7871L59.7365 9.54715H60.5965L61.2365 11.7471C61.3865 12.2871 61.5165 12.8071 61.6165 13.2971H61.6365C61.7165 12.8171 61.8165 12.2971 61.9565 11.7471L62.5365 9.54715H63.5665L63.5765 9.56715ZM69.0065 14.2671H67.9565V11.5671C67.9565 10.7471 67.6365 10.3271 67.0065 10.3271C66.8615 10.3236 66.7176 10.3533 66.5859 10.414C66.4541 10.4746 66.338 10.5647 66.2465 10.6771C66.0533 10.8989 65.9468 11.183 65.9465 11.4771V14.2771H64.8965V10.9171C64.8965 10.4971 64.8965 10.0471 64.8665 9.56715H65.7965L65.8365 10.2971H65.8665C65.9865 10.0771 66.1665 9.89715 66.4065 9.73715C66.7065 9.53715 67.0065 9.45715 67.3665 9.45715C67.8065 9.45715 68.1665 9.59715 68.4665 9.88715C68.8265 10.2371 69.0065 10.7571 69.0065 11.4471V14.2771V14.2671ZM71.9065 14.2671H70.8465V7.41715H71.8965V14.2871L71.9065 14.2671ZM78.0665 11.8871C78.0665 12.6071 77.8665 13.2071 77.4465 13.6671C77.0065 14.1471 76.4465 14.3871 75.7165 14.3871C75.0365 14.3871 74.4865 14.1571 74.0765 13.6871C73.6765 13.2371 73.4565 12.6571 73.4565 11.9671C73.4565 11.2371 73.6565 10.6371 74.0965 10.1671C74.5365 9.69715 75.0965 9.46715 75.7965 9.46715C76.4965 9.46715 77.0565 9.69715 77.4765 10.1671C77.8765 10.6071 78.0765 11.1671 78.0765 11.8871H78.0665ZM76.9665 11.9171C76.9665 11.4871 76.8865 11.1171 76.6965 10.7971C76.4665 10.4271 76.1565 10.2371 75.7465 10.2371C75.3265 10.2371 75.0065 10.4171 74.7865 10.7871C74.5865 11.0871 74.4865 11.4871 74.4865 11.9271C74.4865 12.3571 74.5865 12.7271 74.7865 13.0271C75.0065 13.4271 75.3165 13.5971 75.7265 13.5971C76.1265 13.5971 76.4265 13.3971 76.6665 13.0271C76.8665 12.7071 76.9665 12.3271 76.9665 11.8971V11.9171ZM83.1365 14.2771H82.1965L82.0965 13.7371H82.0765C81.7565 14.1571 81.2965 14.3771 80.6965 14.3771C80.2565 14.3771 79.8965 14.2371 79.6265 13.9471C79.3828 13.6916 79.2498 13.3502 79.2565 12.9971C79.2565 12.4271 79.4965 11.9971 79.9765 11.6771C80.4765 11.3771 81.1365 11.2271 82.0165 11.2371V11.1371C82.0165 10.5171 81.6865 10.2071 81.0365 10.2071C80.5665 10.2071 80.1565 10.3271 79.8065 10.5571L79.6065 9.85715C80.0365 9.59715 80.5765 9.45715 81.2065 9.45715C82.4465 9.45715 83.0665 10.1071 83.0665 11.4071V13.1471C83.0665 13.6271 83.0965 13.9971 83.1365 14.2771ZM82.0365 12.6571V11.9571C80.8965 11.9271 80.3165 12.2371 80.3165 12.8971C80.3165 13.1371 80.3865 13.3271 80.5165 13.4471C80.6465 13.5671 80.8365 13.6171 81.0365 13.6171C81.2665 13.6171 81.4865 13.5471 81.6765 13.3971C81.7947 13.3135 81.8909 13.2025 81.9571 13.0737C82.0233 12.9449 82.0573 12.802 82.0565 12.6571H82.0365ZM89.0865 14.2871H88.1565L88.1165 13.5371H88.0965C87.7965 14.1071 87.2965 14.3971 86.5765 14.3971C86.0065 14.3971 85.5365 14.1771 85.1765 13.7271C84.8165 13.2771 84.5965 12.7071 84.5965 11.9971C84.5965 11.2271 84.7965 10.5971 85.2165 10.1371C85.6165 9.69715 86.0865 9.47715 86.6665 9.47715C87.2965 9.47715 87.7465 9.69715 87.9965 10.1171H88.0165V7.41715H89.0665V13.0171C89.0665 13.4771 89.0665 13.9171 89.1065 14.2871H89.0865ZM88.0065 12.3071V11.5071C88.0161 11.3274 87.9851 11.1477 87.9159 10.9816C87.8466 10.8154 87.7409 10.6669 87.6065 10.5471C87.4139 10.376 87.1641 10.2832 86.9065 10.2871C86.5065 10.2871 86.2065 10.4371 85.9765 10.7471C85.7565 11.0471 85.6365 11.4471 85.6365 11.9471C85.6365 12.4071 85.7365 12.7871 85.9565 13.0771C86.1865 13.3771 86.4965 13.5471 86.8765 13.5471C87.2165 13.5471 87.4965 13.4171 87.7065 13.1471C87.9065 12.9171 88.0065 12.6271 88.0065 12.2871V12.3071ZM98.0565 11.9071C98.0565 12.6071 97.8565 13.2071 97.4365 13.6771C96.9965 14.1571 96.4365 14.3971 95.7065 14.3971C95.0065 14.3971 94.4665 14.1671 94.0565 13.6971C93.6565 13.2471 93.4365 12.6671 93.4365 11.9771C93.4365 11.2471 93.6365 10.6471 94.0765 10.1771C94.5165 9.70715 95.0765 9.47715 95.7765 9.47715C96.4765 9.47715 97.0365 9.70715 97.4565 10.1771C97.8565 10.6171 98.0565 11.1771 98.0565 11.8971V11.9071ZM96.9565 11.9271C96.9565 11.4971 96.8765 11.1271 96.6865 10.8071C96.4665 10.4371 96.1565 10.2471 95.7465 10.2471C95.3265 10.2471 95.0065 10.4271 94.7865 10.7971C94.5865 11.0971 94.5065 11.4971 94.5065 11.9371C94.5065 12.3671 94.6065 12.7371 94.7865 13.0371C95.0165 13.4371 95.3265 13.6071 95.7365 13.6071C96.1365 13.6071 96.4365 13.4071 96.6765 13.0371C96.8765 12.7171 96.9765 12.3371 96.9765 11.9071L96.9565 11.9271ZM103.686 14.2871H102.636V11.5871C102.636 10.7571 102.336 10.3471 101.686 10.3471C101.386 10.3471 101.126 10.4471 100.936 10.6771C100.746 10.9071 100.636 11.1771 100.636 11.4771V14.2771H99.5965V10.9171C99.5965 10.4971 99.5665 10.0471 99.5465 9.56715H100.466L100.516 10.2971H100.546C100.675 10.0671 100.861 9.87417 101.086 9.73715C101.366 9.53715 101.686 9.45715 102.026 9.45715C102.466 9.45715 102.826 9.59715 103.126 9.88715C103.486 10.2371 103.666 10.7571 103.666 11.4471V14.2771L103.686 14.2871ZM110.746 10.3571H109.596V12.6571C109.596 13.2371 109.796 13.5271 110.196 13.5271C110.376 13.5271 110.536 13.5071 110.656 13.4771L110.686 14.2771C110.466 14.3471 110.186 14.3771 109.866 14.3771C109.446 14.3771 109.126 14.2571 108.896 14.0071C108.666 13.7571 108.556 13.3371 108.556 12.7371V10.3471H107.856V9.56715H108.556V8.69715L109.586 8.39715V9.56715H110.726V10.3471L110.746 10.3571ZM116.286 14.2871H115.236V11.6071C115.236 10.7671 114.916 10.3471 114.286 10.3471C113.806 10.3271 113.466 10.5771 113.286 11.0671C113.251 11.1907 113.235 11.3187 113.236 11.4471V14.2771H112.196V7.40715H113.226V10.2471H113.246C113.576 9.72715 114.046 9.46715 114.666 9.46715C115.096 9.46715 115.466 9.60715 115.746 9.89715C116.096 10.2471 116.276 10.7771 116.276 11.4771V14.2771L116.286 14.2871ZM122.016 11.7071C122.016 11.9071 122.016 12.0571 121.986 12.1871H118.846C118.846 12.6471 119.006 13.0071 119.296 13.2471C119.566 13.4471 119.896 13.5671 120.326 13.5671C120.806 13.5671 121.226 13.4971 121.606 13.3471L121.776 14.0771C121.326 14.2771 120.796 14.3771 120.176 14.3771C119.476 14.3771 118.876 14.1571 118.476 13.7271C118.056 13.2971 117.846 12.7271 117.846 11.9871C117.846 11.2871 118.046 10.6871 118.426 10.2171C118.826 9.71715 119.386 9.45715 120.076 9.45715C120.756 9.45715 121.276 9.72715 121.616 10.2271C121.886 10.6271 122.016 11.1271 122.016 11.7071ZM121.016 11.4371C121.032 11.1565 120.962 10.8777 120.816 10.6371C120.636 10.3371 120.366 10.1971 119.986 10.1971C119.824 10.1958 119.663 10.2343 119.518 10.3092C119.373 10.3841 119.249 10.4933 119.156 10.6271C118.986 10.8617 118.882 11.1382 118.856 11.4271H121.026L121.016 11.4371Z" fill="white"/>
</g>
<defs>
<clipPath id="clip0_2_965">
<rect width="135" height="40" fill="white" transform="translate(0.796387 0.84668)"/>
</clipPath>
</defs>
</svg>
