<svg width="136" height="51" viewBox="0 0 136 51" fill="none" xmlns="http://www.w3.org/2000/svg">
<g clip-path="url(#clip0_2_775)">
<path d="M0.796387 8.08655L1.59996 9.55656L2.40353 7.38298L3.2071 8.3616L4.01067 11.218L4.81424 12.7741L5.61782 9.84481L6.42139 9.85507L7.22496 8.07542L8.02853 5.74854L8.8321 4.53344L9.63567 5.841L10.4392 2.70196L11.2428 3.36118L12.0464 3.01445L12.85 2.7551L13.6535 0.84668L14.4571 2.43949L15.2607 2.95098L16.0642 9.5951L16.8678 18.5316L17.6714 23.1367L18.475 24.9818L19.2785 26.7057L20.0821 29.0689L20.8857 31.2505L21.6892 33.3275L22.4928 28.55L23.2964 30.5624L24.1 32.1591L24.9035 30.6692L25.7071 28.2135L26.5107 27.1037L27.3142 25.9833L28.1178 27.3851L28.9214 28.4779L29.725 24.6891L30.5285 24.1926L31.3321 24.3605L32.1357 30.1036L32.9392 31.8341L33.7428 30.3362L34.5464 33.8656L35.35 31.1821L36.1535 32.0363L36.9571 28.3421L37.7607 31.6808L38.5642 31.6041L39.3678 39.0809L40.1714 38.354L40.975 35.3936L41.7785 36.5913L42.5821 35.4362L43.3857 37.0882L44.1892 35.6279L44.9928 34.8781L45.7964 36.0775L46.6 35.4573L47.4035 35.4685L48.2071 36.1969L49.0107 35.5445L49.8142 42.3418L50.6178 47.3287L51.4214 43.8475L52.225 40.5718L53.0285 45.1652L53.8321 46.4752L54.6357 46.8543L55.4392 50.8467L56.2428 47.2511L57.0464 48.9289L57.85 46.5118L58.6535 46.1471L59.4571 43.3111L60.2607 45.3524L61.0642 44.0808L61.8678 43.8777L62.6714 44.4801L63.475 46.3365L64.2785 41.5678L65.0821 41.548L65.8857 41.5992L66.6892 40.6489L67.4928 39.0588L68.2964 40.1656L69.1 37.6858L69.9035 34.6126L70.7071 35.1282L71.5107 36.2883L72.3142 33.3777L73.1178 32.0905L73.9214 33.4771L74.725 31.0954L75.5285 29.5879L76.3321 25.5898L77.1357 28.9694L77.9392 26.428L78.7428 27.178L79.5464 26.9122L80.35 27.7284L81.1535 28.1095L81.9571 27.3147L82.7607 26.902L83.5642 28.9449L84.3678 32.0626L85.1714 31.7347L85.975 30.193L86.7785 27.4686L87.5821 28.2465L88.3857 29.8572L89.1892 29.9766L89.9928 30.1083L90.7964 31.7205L91.6 31.8719L92.4035 31.1788L93.2071 33.9471L94.0107 33.3838L94.8142 33.1899L95.6178 35.5088L96.4214 35.0276L97.225 35.4355L98.0285 36.7266L98.8321 38.8564L99.6357 36.0997L100.439 34.2913L101.243 34.6195L102.046 35.3127L102.85 32.4321L103.654 32.9667L104.457 33.9298L105.261 32.2981L106.064 31.3056L106.868 30.7057L107.671 28.0183L108.475 29.0251L109.279 28.1352L110.082 29.3145L110.886 25.9995L111.689 23.8782L112.493 24.5129L113.296 21.1348L114.1 19.8189L114.904 21.9866L115.707 20.5592L116.511 19.4042L117.314 21.7277L118.118 21.4202L118.921 23.0313L119.725 22.2424L120.529 20.6154L121.332 17.6193L122.136 15.1496L122.939 16.7968L123.743 16.6007L124.546 17.5285L125.35 15.8523L126.154 14.9566L126.957 17.282L127.761 19.0318L128.564 20.5544L129.368 22.1955L130.171 20.4626L130.975 19.1239L131.779 18.9732L132.582 16.0164L133.386 17.5146L134.189 15.7938L134.993 20.1124" stroke="#FF3A33" stroke-width="1.25"/>
</g>
<defs>
<clipPath id="clip0_2_775">
<rect width="135" height="50" fill="white" transform="translate(0.796387 0.84668)"/>
</clipPath>
</defs>
</svg>
