<svg width="136" height="51" viewBox="0 0 136 51" fill="none" xmlns="http://www.w3.org/2000/svg">
<g clip-path="url(#clip0_2_372)">
<path d="M0.214844 49.895L1.01366 49.1539L1.81248 48.0494L2.61129 48.4412L3.41011 48.6344L4.20893 48.4673L5.00774 45.8305L5.80656 46.2237L6.60538 48.6864L7.40419 49.8867L8.20301 50.0019L9.00183 48.6374L9.80064 46.6124L10.5995 46.3463L11.3983 45.9839L12.1971 47.1646L12.9959 45.5598L13.7947 45.3241L14.5935 45.26L15.3924 44.1295L16.1912 44.2136L16.99 44.6367L17.7888 43.7658L18.5876 45.0454L19.3864 45.9917L20.1853 47.3788L20.9841 47.2374L21.7829 47.0373L22.5817 47.1114L23.3805 47.0485L24.1793 46.0253L24.9782 46.361L25.777 46.5113L26.5758 45.0044L27.3746 46.7289L28.1734 45.1837L28.9722 45.9016L29.7711 45.6461L30.5699 44.5805L31.3687 44.9156L32.1675 44.9724L32.9663 47.3975L33.7651 48.0997L34.564 50.5479L35.3628 48.2399L36.1616 47.8309L36.9604 47.127L37.7592 47.7164L38.558 44.064L39.3569 38.0328L40.1557 36.8521L40.9545 36.845L41.7533 36.6592L42.5521 35.8017L43.3509 37.2355L44.1498 36.4465L44.9486 35.0825L45.7474 35.4057L46.5462 28.0317L47.345 24.3054L48.1438 27.7501L48.9427 27.0144L49.7415 30.4074L50.5403 30.2405L51.3391 29.4804L52.1379 29.9107L52.9367 27.0757L53.7356 26.4518L54.5344 28.3925L55.3332 27.994L56.132 26.6016L56.9308 20.8721L57.7296 18.5805L58.5285 16.2611L59.3273 17.6282L60.1261 15.8214L60.9249 15.7101L61.7237 16.8322L62.5225 17.6856L63.3214 14.457L64.1202 13.8458L64.919 9.42895L65.7178 9.33719L66.5166 10.9133L67.3154 15.1238L68.1143 13.7692L68.9131 14.9855L69.7119 15.3203L70.5107 15.8349L71.3095 14.035L72.1083 15.8089L72.9072 13.5836L73.706 13.8375L74.5048 10.1373L75.3036 10.8295L76.1024 11.2655L76.9012 14.7558L77.7001 16.4262L78.4989 19.3673L79.2977 19.9261L80.0965 19.3088L80.8953 15.9308L81.6941 13.8834L82.493 16.083L83.2918 13.7025L84.0906 2.48134L84.8894 0.547852L85.6882 4.47069L86.487 3.18496L87.2859 0.63567L88.0847 1.71573L88.8835 1.30669L89.6823 3.68719L90.4811 4.53045L91.2799 5.55153L92.0788 6.25947L92.8776 3.84181L93.6764 2.45208L94.4752 3.27945L95.274 4.46509L96.0728 6.53735L96.8717 8.54133L97.6705 10.4605L98.4693 9.87047L99.2681 9.3204L100.067 8.60417L100.866 8.39005L101.665 11.3869L102.463 9.51805L103.262 12.0631L104.061 10.4528L104.86 11.0743L105.659 9.1538L106.457 8.60295L107.256 6.86591L108.055 8.22675L108.854 8.30507L109.653 12.0673L110.452 14.9215L111.25 14.9203L112.049 18.6128L112.848 19.7365L113.647 18.5893L114.446 18.9731L115.244 16.9599L116.043 18.7292L116.842 17.4014L117.641 18.7025L118.44 22.3393L119.239 23.7622L120.037 22.2951L120.836 22.2732L121.635 24.5316L122.434 25.2036L123.233 29.4833L124.031 29.6848L124.83 27.911L125.629 27.5386L126.428 28.225L127.227 26.286L128.025 28.3667L128.824 31.7789L129.623 35.7025L130.422 32.4364L131.221 31.3271L132.02 30.7826L132.818 28.6322L133.617 27.272L134.416 27.3541" stroke="#32CA5B" stroke-width="1.25"/>
</g>
<defs>
<clipPath id="clip0_2_372">
<rect width="135" height="50" fill="white" transform="translate(0.214844 0.547852)"/>
</clipPath>
</defs>
</svg>
