<svg width="136" height="51" viewBox="0 0 136 51" fill="none" xmlns="http://www.w3.org/2000/svg">
<g clip-path="url(#clip0_2_797)">
<path d="M0.796387 26.6386L1.5905 27.8374L2.38462 16.985L3.17874 14.4046L3.97286 13.1725L4.76697 13.2003L5.56109 14.4455L6.35521 14.172L7.14933 12.0679L7.94345 9.23351L8.73756 10.9626L9.53168 13.127L10.3258 10.653L11.1199 13.9393L11.914 9.15103L12.7082 7.77027L13.5023 6.48193L14.2964 11.4795L15.0905 14.8425L15.8846 11.2536L16.6787 8.93412L17.4729 11.6227L18.267 14.7596L19.0611 26.3076L19.8552 19.4099L20.6493 17.1976L21.4434 23.0321L22.2376 20.4042L23.0317 21.4251L23.8258 15.9405L24.6199 21.7068L25.414 19.8127L26.2082 22.0444L27.0023 16.2168L27.7964 25.6499L28.5905 21.2139L29.3846 23.6412L30.1787 26.7329L30.9729 28.0261L31.767 29.7112L32.5611 27.8288L33.3552 30.759L34.1493 19.384L34.9434 23.2731L35.7376 34.0705L36.5317 26.2548L37.3258 32.5757L38.1199 28.4764L38.914 25.8246L39.7082 29.4561L40.5023 21.215L41.2964 20.7042L42.0905 37.9497L42.8846 44.0758L43.6787 44.353L44.4729 40.1814L45.267 43.5633L46.0611 45.507L46.8552 50.7337L47.6493 47.93L48.4434 50.8467L49.2376 37.8717L50.0317 39.8715L50.8258 41.1032L51.6199 37.5708L52.414 35.5666L53.2082 36.7858L54.0023 34.7691L54.7964 35.5L55.5905 39.877L56.3846 45.4694L57.1787 37.5107L57.9729 36.7323L58.767 34.8597L59.5611 31.5872L60.3552 31.5516L61.1493 36.7118L61.9434 33.7903L62.7376 32.3883L63.5317 30.5076L64.3258 28.7144L65.1199 27.247L65.914 21.8662L66.7082 25.0988L67.5023 22.6505L68.2964 25.3558L69.0905 29.4482L69.8846 19.0451L70.6787 22.532L71.4729 17.6532L72.267 16.4751L73.0611 15.6339L73.8552 16.657L74.6493 19.6244L75.4434 34.6334L76.2376 30.7588L77.0317 31.5658L77.8258 27.0153L78.6199 22.4909L79.414 25.9323L80.2082 23.2904L81.0023 24.6927L81.7964 25.7934L82.5905 19.5818L83.3846 31.8901L84.1787 21.9603L84.9729 27.9323L85.767 21.3025L86.5611 25.0022L87.3552 24.9658L88.1493 23.4397L88.9434 23.6992L89.7376 20.7235L90.5317 24.1411L91.3258 24.7101L92.1199 20.5174L92.914 21.4966L93.7082 29.052L94.5023 31.0851L95.2964 31.4914L96.0905 23.9727L96.8846 20.0717L97.6787 24.233L98.4729 21.3674L99.267 16.5418L100.061 14.4599L100.855 17.8639L101.649 14.2809L102.443 9.6097L103.238 14.3258L104.032 12.0071L104.826 17.5437L105.62 16.5318L106.414 8.05091L107.208 15.7666L108.002 15.263L108.796 12.5034L109.591 14.1957L110.385 13.3962L111.179 8.16375L111.973 5.63943L112.767 7.63025L113.561 7.44163L114.355 7.23917L115.149 6.33073L115.943 5.12964L116.738 6.53888L117.532 8.12306L118.326 5.27205L119.12 3.34529L119.914 10.3347L120.708 7.37824L121.502 6.08178L122.296 9.0922L123.091 6.22726L123.885 4.14577L124.679 14.7178L125.473 16.2185L126.267 17.6836L127.061 14.745L127.855 3.03753L128.649 8.90748L129.443 4.077L130.238 6.27618L131.032 4.85225L131.826 7.06218L132.62 3.07195L133.414 2.90007L134.208 5.69069L135.002 0.84668" stroke="#32CA5B" stroke-width="1.25"/>
</g>
<defs>
<clipPath id="clip0_2_797">
<rect width="135" height="50" fill="white" transform="translate(0.796387 0.84668)"/>
</clipPath>
</defs>
</svg>
