<svg width="136" height="51" viewBox="0 0 136 51" fill="none" xmlns="http://www.w3.org/2000/svg">
<g clip-path="url(#clip0_9_279)">
<path d="M0.214844 30.1709L1.00896 26.5375L1.80308 26.6082L2.5972 18.3277L3.39131 19.9167L4.18543 25.0132L4.97955 26.6497L5.77367 26.5609L6.56778 31.2584L7.3619 37.2284L8.15602 36.0906L8.95014 31.2137L9.74426 23.8015L10.5384 25.6923L11.3325 24.6455L12.1266 23.3657L12.9207 19.8071L13.7148 18.5096L14.509 23.3536L15.3031 25.9877L16.0972 23.0298L16.8913 24.5748L17.6854 25.0482L18.4795 27.9913L19.2737 32.0994L20.0678 32.5591L20.8619 32.021L21.656 32.1963L22.4501 34.7835L23.2443 32.4457L24.0384 31.4941L24.8325 33.6505L25.6266 32.2717L26.4207 33.2796L27.2148 39.9661L28.009 41.9427L28.8031 47.7731L29.5972 47.443L30.3913 47.2948L31.1854 47.117L31.9795 47.8907L32.7737 50.5479L33.5678 48.9899L34.3619 50.3522L35.156 46.3015L35.9501 43.7303L36.7443 39.7528L37.5384 38.6424L38.3325 35.9312L39.1266 34.5606L39.9207 29.4027L40.7148 34.4085L41.509 31.9687L42.3031 30.8606L43.0972 28.6971L43.8913 30.1252L44.6854 30.7246L45.4795 29.7376L46.2737 20.8479L47.0678 19.1378L47.8619 28.8918L48.656 22.0778L49.4501 23.0653L50.2443 27.086L51.0384 26.0945L51.8325 27.5231L52.6266 27.7143L53.4207 27.2354L54.2148 28.9716L55.009 31.615L55.8031 24.1603L56.5972 23.016L57.3913 17.4694L58.1854 17.9526L58.9795 15.0958L59.7737 15.0202L60.5678 18.0599L61.3619 22.3232L62.156 21.2327L62.9501 19.3207L63.7443 17.0059L64.5384 9.82737L65.3325 8.03914L66.1266 0.547852L66.9207 4.15916L67.7148 4.74869L68.509 4.36382L69.3031 5.88032L70.0972 5.44588L70.8913 2.37284L71.6854 3.84903L72.4796 5.74497L73.2737 5.29572L74.0678 4.21419L74.8619 6.92419L75.656 5.04861L76.4501 7.81683L77.2443 10.6968L78.0384 11.5642L78.8325 13.0389L79.6266 15.5958L80.4207 13.5426L81.2148 14.2736L82.009 18.1028L82.8031 17.3717L83.5972 14.2649L84.3913 14.5514L85.1854 16.2518L85.9796 13.0933L86.7737 11.048L87.5678 11.8112L88.3619 13.695L89.156 15.8647L89.9501 13.6466L90.7443 13.3605L91.5384 14.0962L92.3325 13.2558L93.1266 12.3215L93.9207 13.0806L94.7148 14.4314L95.509 15.2043L96.3031 21.1564L97.0972 25.2424L97.8913 24.302L98.6854 22.3097L99.4796 24.0892L100.274 20.5294L101.068 22.8004L101.862 20.4809L102.656 22.3186L103.45 16.6194L104.244 16.5859L105.038 16.3644L105.832 16.6782L106.627 15.8523L107.421 17.1502L108.215 16.537L109.009 18.2929L109.803 19.3396L110.597 26.3019L111.391 34.0768L112.185 35.0069L112.98 30.7241L113.774 29.3176L114.568 27.7485L115.362 28.6749L116.156 27.1099L116.95 24.8086L117.744 32.175L118.538 38.0984L119.332 29.2474L120.127 28.9189L120.921 30.1212L121.715 34.0463L122.509 37.0836L123.303 38.5154L124.097 38.9697L124.891 45.9407L125.685 41.298L126.48 35.6062L127.274 36.3672L128.068 38.3542L128.862 40.9042L129.656 33.4748L130.45 33.341L131.244 34.8654L132.038 29.9884L132.832 26.7281L133.627 27.293L134.421 24.9517" stroke="#32CA5B" stroke-width="1.25"/>
</g>
<defs>
<clipPath id="clip0_9_279">
<rect width="135" height="50" fill="white" transform="translate(0.214844 0.547852)"/>
</clipPath>
</defs>
</svg>
