<svg width="136" height="51" viewBox="0 0 136 51" fill="none" xmlns="http://www.w3.org/2000/svg">
<g clip-path="url(#clip0_2_805)">
<path d="M0.796387 39.8186L1.5952 40.4388L2.39402 40.2873L3.19284 39.6392L3.99165 39.8498L4.79047 45.376L5.58929 47.3976L6.3881 42.905L7.18692 41.6546L7.98574 40.8352L8.78455 38.1488L9.58337 34.1041L10.3822 33.1979L11.181 29.4166L11.9798 31.3665L12.7786 30.8921L13.5775 30.2825L14.3763 28.5775L15.1751 29.7324L15.9739 30.1101L16.7727 37.1348L17.5715 42.8923L18.3704 36.3478L19.1692 44.2028L19.968 42.3475L20.7668 46.3052L21.5656 49.6936L22.3644 47.5004L23.1632 45.6968L23.9621 50.1663L24.7609 50.4104L25.5597 50.237L26.3585 46.8007L27.1573 47.7159L27.9562 48.3131L28.755 47.2132L29.5538 43.1758L30.3526 40.2464L31.1514 42.7308L31.9502 42.9614L32.7491 48.891L33.5479 50.3414L34.3467 50.8467L35.1455 47.6454L35.9443 40.9707L36.7431 46.5015L37.542 43.6712L38.3408 43.6486L39.1396 41.7836L39.9384 47.7515L40.7372 48.5764L41.536 41.7885L42.3348 44.5755L43.1337 43.9039L43.9325 44.2805L44.7313 43.0556L45.5301 35.2903L46.3289 33.7867L47.1277 30.974L47.9266 29.8309L48.7254 27.8285L49.5242 30.5059L50.323 34.6292L51.1218 38.6662L51.9206 30.5991L52.7195 24.7974L53.5183 27.7543L54.3171 24.3615L55.1159 22.1032L55.9147 25.4581L56.7135 26.6856L57.5124 30.0383L58.3112 28.9318L59.11 31.2071L59.9088 26.1539L60.7076 25.9046L61.5064 26.5122L62.3053 22.9884L63.1041 21.2741L63.9029 27.3195L64.7017 26.6987L65.5005 31.0666L66.2993 28.4602L67.0982 24.7636L67.897 24.8975L68.6958 23.9175L69.4946 18.4565L70.2934 10.0081L71.0922 12.3772L71.8911 11.9601L72.6899 11.2136L73.4887 11.7867L74.2875 9.69205L75.0863 11.4173L75.8851 1.47879L76.684 4.32626L77.4828 0.84668L78.2816 2.36809L79.0804 2.49339L79.8792 4.64185L80.678 4.53886L81.4769 4.73868L82.2757 4.36374L83.0745 7.3886L83.8733 8.87299L84.6721 9.47447L85.4709 6.91809L86.2698 2.64068L87.0686 9.50556L87.8674 9.12311L88.6662 7.106L89.465 5.78334L90.2638 9.64639L91.0627 9.49117L91.8615 9.13563L92.6603 7.88146L93.4591 6.83156L94.2579 6.05963L95.0567 8.13022L95.8556 13.144L96.6544 14.426L97.4532 13.7197L98.252 14.6736L99.0508 17.9662L99.8496 17.416L100.648 17.3533L101.447 18.9606L102.246 15.9485L103.045 14.7613L103.844 13.8541L104.643 15.8677L105.441 15.2576L106.24 16.7528L107.039 16.748L107.838 15.3051L108.637 13.945L109.435 13.7385L110.234 16.7912L111.033 19.4747L111.832 17.6159L112.631 14.3398L113.43 9.55924L114.228 14.726L115.027 15.9474L115.826 17.0035L116.625 15.498L117.424 21.1239L118.222 20.1852L119.021 22.2596L119.82 18.4293L120.619 16.9551L121.418 8.46871L122.217 8.27059L123.015 11.6442L123.814 12.5907L124.613 12.9115L125.412 14.6628L126.211 13.0705L127.009 12.0858L127.808 12.3489L128.607 12.5553L129.406 20.4688L130.205 19.9299L131.003 22.7717L131.802 20.8254L132.601 19.0523L133.4 20.0022L134.199 6.57275L134.998 10.8826" stroke="#32CA5B" stroke-width="1.25"/>
</g>
<defs>
<clipPath id="clip0_2_805">
<rect width="135" height="50" fill="white" transform="translate(0.796387 0.84668)"/>
</clipPath>
</defs>
</svg>
