<svg width="136" height="51" viewBox="0 0 136 51" fill="none" xmlns="http://www.w3.org/2000/svg">
<g clip-path="url(#clip0_2_847)">
<path d="M0.796387 15.1078L1.59996 12.4971L2.40353 8.52492L3.2071 9.47192L4.01067 12.6989L4.81424 16.1008L5.61782 10.2237L6.42139 9.82901L7.22496 8.33096L8.02853 0.84668L8.8321 2.61797L9.63567 4.92171L10.4392 3.63814L11.2428 3.15497L12.0464 5.14828L12.85 5.05488L13.6535 4.9488L14.4571 7.11394L15.2607 6.9543L16.0642 11.246L16.8678 19.9961L17.6714 23.1361L18.475 25.8463L19.2785 29.0771L20.0821 32.6373L20.8857 33.5928L21.6892 32.7814L22.4928 33.92L23.2964 33.4306L24.1 34.4334L24.9035 35.3541L25.7071 33.2523L26.5107 31.4535L27.3142 31.9939L28.1178 29.2398L28.9214 29.6022L29.725 22.521L30.5285 22.3527L31.3321 22.4569L32.1357 28.9082L32.9392 29.3305L33.7428 29.2983L34.5464 30.6247L35.35 28.7944L36.1535 24.8881L36.9571 23.3092L37.7607 29.6624L38.5642 32.4453L39.3678 40.3844L40.1714 39.5643L40.975 36.7902L41.7785 38.1222L42.5821 37.1291L43.3857 38.1578L44.1892 38.5183L44.9928 37.5452L45.7964 38.4432L46.6 36.6522L47.4035 37.241L48.2071 39.3014L49.0107 38.642L49.8142 42.0919L50.6178 47.431L51.4214 44.3541L52.225 43.0751L53.0285 45.6767L53.8321 45.3907L54.6357 43.4092L55.4392 48.1429L56.2428 47.2108L57.0464 50.8467L57.85 48.5245L58.6535 48.9766L59.4571 46.8318L60.2607 48.9544L61.0642 47.3245L61.8678 46.6987L62.6714 47.6606L63.475 48.1755L64.2785 45.923L65.0821 46.1474L65.8857 46.507L66.6892 46.3176L67.4928 44.5951L68.2964 45.8134L69.1 44.1895L69.9035 42.2192L70.7071 43.1056L71.5107 42.4962L72.3142 40.5205L73.1178 39.0327L73.9214 38.9042L74.725 37.0423L75.5285 37.4419L76.3321 36.312L77.1357 37.2519L77.9392 35.6535L78.7428 36.0345L79.5464 36.1943L80.35 36.9709L81.1535 37.0637L81.9571 36.725L82.7607 36.0319L83.5642 37.298L84.3678 39.4329L85.1714 40.0291L85.975 38.6154L86.7785 37.4732L87.5821 36.924L88.3857 37.4314L89.1892 36.4197L89.9928 36.0487L90.7964 36.8873L91.6 37.7123L92.4035 37.5571L93.2071 38.8836L94.0107 38.7463L94.8142 39.0427L95.6178 41.5754L96.4214 40.5425L97.225 41.8094L98.0285 42.0302L98.8321 43.1728L99.6357 42.0769L100.439 40.9166L101.243 41.0851L102.046 41.6497L102.85 39.9661L103.654 41.1695L104.457 42.0961L105.261 42.0154L106.064 41.5254L106.868 41.9817L107.671 41.2107L108.475 41.4171L109.279 40.4795L110.082 40.7025L110.886 39.7488L111.689 38.0683L112.493 38.4885L113.296 36.2563L114.1 34.3255L114.904 35.5942L115.707 36.2387L116.511 35.5885L117.314 36.4195L118.118 35.6997L118.921 37.0486L119.725 35.0654L120.529 33.6286L121.332 30.0536L122.136 28.9868L122.939 29.7284L123.743 30.1014L124.546 30.6624L125.35 30.2001L126.154 29.1877L126.957 30.0319L127.761 31.2674L128.564 33.1039L129.368 35.5199L130.171 33.4702L130.975 33.5711L131.779 30.9221L132.582 29.3315L133.386 28.8218L134.189 27.1832L134.993 31.1574" stroke="#FF3A33" stroke-width="1.25"/>
</g>
<defs>
<clipPath id="clip0_2_847">
<rect width="135" height="50" fill="white" transform="translate(0.796387 0.84668)"/>
</clipPath>
</defs>
</svg>
