<svg width="48" height="48" viewBox="0 0 48 48" fill="none" xmlns="http://www.w3.org/2000/svg">
<g clip-path="url(#clip0_3_924)">
<mask id="mask0_3_924" style="mask-type:luminance" maskUnits="userSpaceOnUse" x="0" y="0" width="48" height="48">
<path d="M48 0H0V48H48V0Z" fill="white"/>
</mask>
<g mask="url(#mask0_3_924)">
<path d="M38.2041 0.122449H9.79592C4.45341 0.122449 0.122452 4.45341 0.122452 9.79592V38.2041C0.122452 43.5466 4.45341 47.8775 9.79592 47.8775H38.2041C43.5466 47.8775 47.8776 43.5466 47.8776 38.2041V9.79592C47.8776 4.45341 43.5466 0.122449 38.2041 0.122449Z" fill="url(#paint0_linear_3_924)" stroke="#3F3F3F" stroke-width="0.244898"/>
<mask id="mask1_3_924" style="mask-type:luminance" maskUnits="userSpaceOnUse" x="9" y="9" width="30" height="30">
<path d="M38.2041 9.79592H9.79593V38.2041H38.2041V9.79592Z" fill="white"/>
</mask>
<g mask="url(#mask1_3_924)">
<mask id="mask2_3_924" style="mask-type:luminance" maskUnits="userSpaceOnUse" x="9" y="10" width="29" height="29">
<path d="M37.4757 10.81H9.79593V38.4897H37.4757V10.81Z" fill="white"/>
</mask>
<g mask="url(#mask2_3_924)">
<path d="M17.9437 18.6065H16.7854V14.3736L15.048 18.6065H14.0685L12.3311 14.4077V18.6065H11.2069V12.5681H12.7569L14.5711 16.9287L16.3425 12.5681H17.9437V18.6065ZM20.5416 18.6065H19.3577V12.5681H23.1733V13.6838H20.533V15.1743H22.8838V16.2558H20.5416V18.6065Z" fill="#00F7AD"/>
<path d="M24.3674 23.5544C24.3674 22.951 24.8566 22.4617 25.46 22.4617H27.6452C28.2487 22.4617 28.7378 22.951 28.7378 23.5544V34.8448H24.3674V23.5544Z" fill="#00D797"/>
<path d="M17.8011 27.201C17.8011 26.5976 18.2902 26.1084 18.8937 26.1084H21.0789C21.6823 26.1084 22.1715 26.5976 22.1715 27.201V34.8494H17.8011V27.201Z" fill="#00D797"/>
<path d="M11.2539 30.1092C11.2539 29.5058 11.7431 29.0166 12.3465 29.0166H14.5317C15.1351 29.0166 15.6243 29.5058 15.6243 30.1092V34.8439H11.2539V30.1092Z" fill="#006E4D"/>
<path d="M36.7473 34.8502H10.5243C10.1221 34.8502 9.79593 35.1763 9.79593 35.5786V35.5786C9.79593 35.9809 10.1221 36.307 10.5243 36.307H36.7473C37.1495 36.307 37.4757 35.9809 37.4757 35.5786C37.4757 35.1763 37.1495 34.8502 36.7473 34.8502Z" fill="#81CFB7"/>
</g>
<mask id="mask3_3_924" style="mask-type:luminance" maskUnits="userSpaceOnUse" x="28" y="14" width="11" height="21">
<path d="M38.2066 14.4528H28.7372V34.8484H38.2066V14.4528Z" fill="white"/>
</mask>
<g mask="url(#mask3_3_924)">
<path d="M35.5168 34.8502V21.4502H37.3512C37.663 21.4502 37.9748 21.2792 38.1125 21.0014C38.2502 20.6951 38.2285 20.3532 38.0255 20.1038L34.1609 14.7894C33.8491 14.3406 33.1168 14.3406 32.776 14.7894L28.9041 20.1038C28.7084 20.3532 28.6794 20.6951 28.8461 20.9729C28.9839 21.2508 29.2667 21.4217 29.6075 21.4217H31.4491V34.8216" fill="#92FFDE"/>
</g>
</g>
</g>
</g>
<defs>
<linearGradient id="paint0_linear_3_924" x1="24" y1="8.61593e-09" x2="24" y2="48" gradientUnits="userSpaceOnUse">
<stop stop-color="#515151" stop-opacity="0.61"/>
<stop offset="1" stop-color="#1B1B1B" stop-opacity="0"/>
</linearGradient>
<clipPath id="clip0_3_924">
<rect width="48" height="48" fill="white"/>
</clipPath>
</defs>
</svg>
