<svg width="136" height="51" viewBox="0 0 136 51" fill="none" xmlns="http://www.w3.org/2000/svg">
<g clip-path="url(#clip0_2_841)">
<path d="M0.796387 8.76278L1.5952 8.37262L2.39402 7.32813L3.19284 7.43572L3.99165 7.23332L4.79047 8.6503L5.58929 12.7733L6.3881 8.42087L7.18692 10.1061L7.98574 7.79195L8.78455 6.04626L9.58337 6.87717L10.3822 4.52125L11.181 5.72753L11.9798 4.68961L12.7786 3.28473L13.5775 0.84668L14.3763 1.48401L15.1751 1.00165L15.9739 1.55227L16.7727 11.7436L17.5715 27.6906L18.3704 19.4532L19.1692 24.462L19.968 30.4452L20.7668 34.796L21.5656 34.6202L22.3644 36.4224L23.1632 35.6301L23.9621 37.0863L24.7609 33.4936L25.5597 31.863L26.3585 28.7849L27.1573 28.0381L27.9562 28.2544L28.755 29.1397L29.5538 29.2568L30.3526 26.4084L31.1514 25.2506L31.9502 24.3157L32.7491 31.1376L33.5479 36.1139L34.3467 34.0268L35.1455 35.0756L35.9443 32.5521L36.7431 32.9462L37.542 30.5966L38.3408 33.3644L39.1396 34.4791L39.9384 43.1903L40.7372 42.4404L41.536 39.6012L42.3348 38.5031L43.1337 36.6755L43.9325 38.6306L44.7313 38.612L45.5301 36.6087L46.3289 35.6235L47.1277 34.6087L47.9266 36.273L48.7254 37.7894L49.5242 40.4594L50.323 42.7092L51.1218 47.4287L51.9206 42.2453L52.7195 41.6331L53.5183 44.7408L54.3171 48.716L55.1159 44.923L55.9147 47.5057L56.7135 48.2667L57.5124 50.8467L58.3112 47.7506L59.11 47.9197L59.9088 44.7086L60.7076 42.5112L61.5064 41.2703L62.3053 38.83L63.1041 38.4161L63.9029 40.3916L64.7017 36.1671L65.5005 36.2659L66.2993 36.5043L67.0982 37.3092L67.897 36.721L68.6958 35.5624L69.4946 34.3653L70.2934 33.8468L71.0922 34.024L71.8911 35.2485L72.6899 31.8973L73.4887 30.2016L74.2875 30.2485L75.0863 31.6074L75.8851 30.432L76.684 27.5515L77.4828 29.7048L78.2816 28.681L79.0804 26.5187L79.8792 27.3505L80.678 27.5615L81.4769 27.1084L82.2757 26.3235L83.0745 25.9897L83.8733 27.1008L84.6721 29.5516L85.4709 30.6187L86.2698 30.2835L87.0686 28.8741L87.8674 27.9579L88.6662 28.1122L89.465 27.9771L90.2638 27.6618L91.0627 28.4178L91.8615 27.1068L92.6603 26.9424L93.4591 29.0404L94.2579 28.7312L95.0567 30.403L95.8556 32.0811L96.6544 32.2394L97.4532 33.8567L98.252 34.3655L99.0508 34.5269L99.8496 34.5573L100.648 32.565L101.447 32.5322L102.246 32.5259L103.045 31.1321L103.844 32.3108L104.643 33.0992L105.441 34.394L106.24 33.4689L107.039 32.2008L107.838 33.5945L108.637 34.9091L109.435 33.6927L110.234 36.0398L111.033 34.2792L111.832 33.3634L112.631 33.6525L113.43 31.2544L114.228 29.5435L115.027 32.3415L115.826 31.6679L116.625 31.0027L117.424 31.4013L118.222 32.0811L119.021 33.1063L119.82 31.7654L120.619 29.8424L121.418 26.914L122.217 24.3479L123.015 25.3743L123.814 25.6381L124.613 27.1963L125.412 28.0831L126.211 26.1802L127.009 27.2299L127.808 29.0573L128.607 33.0789L129.406 35.9469L130.205 34.6897L131.003 35.7225L131.802 32.9235L132.601 32.45L133.4 31.3578L134.199 31.2241L134.998 38.6058" stroke="#FF3A33" stroke-width="1.25"/>
</g>
<defs>
<clipPath id="clip0_2_841">
<rect width="135" height="50" fill="white" transform="translate(0.796387 0.84668)"/>
</clipPath>
</defs>
</svg>
