<svg width="136" height="51" viewBox="0 0 136 51" fill="none" xmlns="http://www.w3.org/2000/svg">
<g clip-path="url(#clip0_2_937)">
<path d="M0.796387 5.00825L1.59996 5.18444L2.40353 3.3743L3.2071 4.7988L4.01067 9.18334L4.81424 9.77032L5.61782 4.80736L6.42139 6.33442L7.22496 5.78655L8.02853 2.77781L8.8321 3.94996L9.63567 4.32522L10.4392 0.84668L11.2428 1.71002L12.0464 2.24276L12.85 1.84275L13.6535 1.38132L14.4571 2.55597L15.2607 3.88657L16.0642 9.20305L16.8678 17.2615L17.6714 22.9463L18.475 25.8519L19.2785 30.996L20.0821 34.2312L20.8857 36.0135L21.6892 35.8275L22.4928 35.933L23.2964 34.7131L24.1 34.9814L24.9035 35.2404L25.7071 31.2988L26.5107 30.4865L27.3142 29.1316L28.1178 30.7466L28.9214 30.8277L29.725 27.7153L30.5285 29.3884L31.3321 29.8536L32.1357 35.103L32.9392 35.0438L33.7428 35.4501L34.5464 37.2297L35.35 33.074L36.1535 36.5519L36.9571 29.7707L37.7607 36.1245L38.5642 38.2619L39.3678 45.6093L40.1714 42.0974L40.975 39.4944L41.7785 39.5995L42.5821 39.663L43.3857 39.9644L44.1892 39.4443L44.9928 37.5922L45.7964 38.4168L46.6 36.8701L47.4035 36.834L48.2071 38.3954L49.0107 39.0931L49.8142 42.3483L50.6178 47.1602L51.4214 43.373L52.225 41.7318L53.0285 43.4983L53.8321 45.0305L54.6357 43.0266L55.4392 47.554L56.2428 46.0888L57.0464 50.8467L57.85 46.6266L58.6535 46.7175L59.4571 44.8531L60.2607 47.7541L61.0642 45.4918L61.8678 42.7411L62.6714 41.8114L63.475 43.2594L64.2785 38.4021L65.0821 38.7003L65.8857 40.1302L66.6892 39.6243L67.4928 37.1463L68.2964 38.0876L69.1 36.593L69.9035 37.2695L70.7071 38.0771L71.5107 35.4092L72.3142 34.8952L73.1178 32.7924L73.9214 33.7611L74.725 32.6074L75.5285 31.5259L76.3321 30.1862L77.1357 32.213L77.9392 29.9936L78.7428 30.7806L79.5464 30.7013L80.35 31.8277L81.1535 32.1446L81.9571 30.3556L82.7607 29.5656L83.5642 30.9854L84.3678 33.3071L85.1714 33.6449L85.975 31.5943L86.7785 29.8272L87.5821 28.5153L88.3857 29.902L89.1892 29.3596L89.9928 28.3155L90.7964 31.4003L91.6 29.6434L92.4035 29.6701L93.2071 31.4689L94.0107 29.6763L94.8142 29.0126L95.6178 32.5421L96.4214 29.4713L97.225 30.8385L98.0285 32.4616L98.8321 33.2333L99.6357 30.8316L100.439 28.0952L101.243 29.4447L102.046 29.7563L102.85 30.2775L103.654 29.2381L104.457 29.3649L105.261 31.5125L106.064 30.2879L106.868 30.4603L107.671 30.8071L108.475 30.254L109.279 28.9163L110.082 28.8945L110.886 26.5641L111.689 25.4371L112.493 28.3232L113.296 25.2706L114.1 23.7878L114.904 26.6902L115.707 28.3274L116.511 26.6806L117.314 29.4377L118.118 28.9685L118.921 29.3305L119.725 28.0812L120.529 27.1173L121.332 21.2834L122.136 20.8825L122.939 23.8163L123.743 23.2539L124.546 24.4984L125.35 24.5307L126.154 24.6161L126.957 24.0127L127.761 25.7644L128.564 27.0218L129.368 30.0017L130.171 28.1248L130.975 30.2403L131.779 27.1477L132.582 24.8825L133.386 28.5801L134.189 27.191L134.993 32.3216" stroke="#FF3A33" stroke-width="1.25"/>
</g>
<defs>
<clipPath id="clip0_2_937">
<rect width="135" height="50" fill="white" transform="translate(0.796387 0.84668)"/>
</clipPath>
</defs>
</svg>
