<svg width="16" height="15" viewBox="0 0 16 15" fill="none" xmlns="http://www.w3.org/2000/svg">
<path d="M8.88271 0.886329C8.71865 0.576432 8.45433 0.41237 8.08975 0.394141C7.74339 0.41237 7.47907 0.576432 7.29678 0.886329L5.54678 4.4957L1.60928 5.09727C1.26292 5.15195 1.03506 5.34336 0.925684 5.67148C0.816309 6.01784 0.889225 6.31862 1.14443 6.57383L3.98818 9.39023L3.30459 13.3824C3.26813 13.7288 3.38662 14.0113 3.66006 14.2301C3.95173 14.4306 4.26162 14.4488 4.58975 14.2848L8.08975 12.4254L11.6171 14.2848C11.927 14.4488 12.2278 14.4306 12.5194 14.2301C12.8111 14.0113 12.9296 13.7288 12.8749 13.3824L12.2187 9.39023L15.0624 6.57383C15.2994 6.31862 15.3723 6.01784 15.2812 5.67148C15.1535 5.34336 14.9166 5.15195 14.5702 5.09727L10.6327 4.4957L8.88271 0.886329Z" fill="#EAB308"/>
</svg>
