<svg width="136" height="51" viewBox="0 0 136 51" fill="none" xmlns="http://www.w3.org/2000/svg">
<g clip-path="url(#clip0_2_406)">
<path d="M0.214844 44.9524L1.00896 43.3565L1.80308 41.6262L2.5972 42.3766L3.39131 41.4333L4.18543 43.7399L4.97955 42.9285L5.77367 40.4673L6.56778 44.8024L7.3619 46.8089L8.15602 50.5479L8.95014 46.7161L9.74426 45.7268L10.5384 46.6775L11.3325 43.4L12.1266 45.8019L12.9207 42.0847L13.7148 41.6848L14.509 44.2428L15.3031 42.4991L16.0972 41.4981L16.8913 40.8865L17.6854 40.3254L18.4795 42.6304L19.2737 44.5925L20.0678 47.4195L20.8619 46.6109L21.656 45.5482L22.4501 46.335L23.2443 45.5326L24.0384 44.7933L24.8325 43.8104L25.6266 40.1045L26.4207 34.7037L27.2148 36.7102L28.009 35.3587L28.8031 38.4307L29.5972 37.2518L30.3913 40.0467L31.1854 37.8428L31.9795 41.9255L32.7737 41.722L33.5678 44.0064L34.3619 48.9927L35.156 45.7875L35.9501 44.9759L36.7443 43.4553L37.5384 41.3575L38.3325 38.1218L39.1266 36.4278L39.9207 35.3772L40.7148 37.9436L41.509 34.0592L42.3031 33.942L43.0972 35.0361L43.8913 35.1116L44.6854 33.202L45.4795 37.7223L46.2737 26.4098L47.0678 29.3314L47.8619 28.3197L48.656 28.5758L49.4501 29.6626L50.2443 33.4338L51.0384 27.0236L51.8325 27.421L52.6266 24.4603L53.4207 23.6007L54.2148 24.3206L55.009 24.526L55.8031 22.1438L56.5972 17.9534L57.3913 16.9224L58.1854 20.1783L58.9795 22.2398L59.7737 20.3389L60.5678 18.7931L61.3619 15.4819L62.156 13.3838L62.9501 10.4466L63.7443 12.1369L64.5384 10.617L65.3325 11.2619L66.1266 7.7705L66.9207 10.3502L67.7148 10.6424L68.509 8.06243L69.3031 6.3729L70.0972 6.98378L70.8913 4.78295L71.6854 2.5817L72.4796 1.03402L73.2737 3.38276L74.0678 0.731084L74.8619 0.547852L75.656 1.8128L76.4501 8.4287L77.2443 10.0387L78.0384 9.70746L78.8325 17.4544L79.6266 17.3379L80.4207 13.4936L81.2148 15.4529L82.009 20.8165L82.8031 16.8583L83.5972 13.3551L84.3913 15.1341L85.1854 17.447L85.9796 16.0471L86.7737 15.3701L87.5678 15.1254L88.3619 15.1239L89.156 14.616L89.9501 15.1011L90.7443 13.2262L91.5384 15.6514L92.3325 16.0286L93.1266 15.8045L93.9207 16.5476L94.7148 20.231L95.509 21.6631L96.3031 22.0811L97.0972 24.0979L97.8913 22.7376L98.6854 22.5719L99.4796 23.1225L100.274 20.8664L101.068 23.4937L101.862 19.6453L102.656 16.8539L103.45 14.7114L104.244 14.3685L105.038 15.1847L105.832 13.9479L106.627 11.0785L107.421 11.7967L108.215 13.4168L109.009 16.9801L109.803 20.2136L110.597 20.9388L111.391 28.8498L112.185 31.0381L112.98 32.8614L113.774 33.6222L114.568 30.0411L115.362 30.3113L116.156 28.5341L116.95 30.7462L117.744 40.2559L118.538 39.867L119.332 36.7911L120.127 38.0136L120.921 37.5571L121.715 35.6445L122.509 41.971L123.303 39.7469L124.097 37.542L124.891 37.5584L125.685 36.7173L126.48 36.4289L127.274 36.9775L128.068 39.1161L128.862 41.1574L129.656 36.6277L130.45 34.2924L131.244 33.1944L132.038 32.0433L132.832 30.0881L133.627 31.6593L134.421 27.2878" stroke="#32CA5B" stroke-width="1.25"/>
</g>
<defs>
<clipPath id="clip0_2_406">
<rect width="135" height="50" fill="white" transform="translate(0.214844 0.547852)"/>
</clipPath>
</defs>
</svg>
