<svg width="136" height="51" viewBox="0 0 136 51" fill="none" xmlns="http://www.w3.org/2000/svg">
<g clip-path="url(#clip0_2_763)">
<path d="M0.796387 5.71508L1.5952 5.1049L2.39402 4.95936L3.19284 4.50471L3.99165 4.79879L4.79047 6.39085L5.58929 9.66754L6.3881 6.36702L7.18692 5.66837L7.98574 5.20363L8.78455 4.96677L9.58337 6.79223L10.3822 5.66025L11.181 5.3697L11.9798 2.66638L12.7786 2.53814L13.5775 1.78934L14.3763 0.84668L15.1751 2.52816L15.9739 2.32134L16.7727 6.61253L17.5715 12.0819L18.3704 9.14329L19.1692 12.6914L19.968 14.2816L20.7668 8.45963L21.5656 10.2221L22.3644 11.94L23.1632 14.8399L23.9621 16.7831L24.7609 15.9429L25.5597 13.309L26.3585 12.3516L27.1573 12.7942L27.9562 14.4395L28.755 13.2753L29.5538 15.1207L30.3526 15.2529L31.1514 14.3817L31.9502 14.2155L32.7491 19.4757L33.5479 18.4836L34.3467 20.896L35.1455 19.8183L35.9443 21.0338L36.7431 22.1029L37.542 19.1236L38.3408 22.0697L39.1396 24.6399L39.9384 26.8321L40.7372 25.8082L41.536 26.5439L42.3348 38.6747L43.1337 37.3855L43.9325 40.2572L44.7313 42.586L45.5301 42.1717L46.3289 40.4546L47.1277 41.0826L47.9266 40.8029L48.7254 42.7061L49.5242 43.0831L50.323 49.4011L51.1218 50.7226L51.9206 48.2814L52.7195 46.5405L53.5183 50.8467L54.3171 48.7365L55.1159 47.3202L55.9147 49.7224L56.7135 47.4972L57.5124 49.7024L58.3112 47.8944L59.11 46.9262L59.9088 45.7309L60.7076 46.881L61.5064 46.0773L62.3053 46.3817L63.1041 47.6184L63.9029 49.7467L64.7017 46.8583L65.5005 47.3255L66.2993 46.4966L67.0982 45.2637L67.897 44.8633L68.6958 47.9191L69.4946 46.7229L70.2934 46.2795L71.0922 46.8468L71.8911 46.985L72.6899 46.3276L73.4887 45.2038L74.2875 48.6803L75.0863 46.9714L75.8851 47.3057L76.684 42.8284L77.4828 43.3404L78.2816 41.0303L79.0804 41.5485L79.8792 42.3701L80.678 42.7523L81.4769 42.9594L82.2757 42.3323L83.0745 42.5336L83.8733 43.2623L84.6721 44.435L85.4709 45.2326L86.2698 44.3916L87.0686 43.1982L87.8674 42.4264L88.6662 42.9103L89.465 43.0631L90.2638 42.9204L91.0627 43.1799L91.8615 43.4653L92.6603 43.2032L93.4591 43.8835L94.2579 43.7301L95.0567 43.7034L95.8556 45.3736L96.6544 44.9747L97.4532 43.8084L98.252 43.6059L99.0508 44.8286L99.8496 44.152L100.648 43.4066L101.447 44.6322L102.246 43.8105L103.045 43.3617L103.844 43.7436L104.643 43.9856L105.441 44.5267L106.24 43.5704L107.039 43.4858L107.838 43.8964L108.637 43.9622L109.435 44.0504L110.234 44.0803L111.033 43.6763L111.832 43.5393L112.631 43.5547L113.43 42.5199L114.228 41.3841L115.027 42.5829L115.826 42.7814L116.625 42.6149L117.424 43.1236L118.222 43.2096L119.021 44.0403L119.82 43.1001L120.619 42.7369L121.418 40.626L122.217 40.1699L123.015 39.7643L123.814 39.8856L124.613 39.4111L125.412 40.0652L126.211 39.2282L127.009 39.4523L127.808 39.745L128.607 41.8161L129.406 43.0074L130.205 41.3553L131.003 41.5078L131.802 39.9325L132.601 40.3036L133.4 40.1142L134.199 38.2785L134.998 41.9051" stroke="#FF3A33" stroke-width="1.25"/>
</g>
<defs>
<clipPath id="clip0_2_763">
<rect width="135" height="50" fill="white" transform="translate(0.796387 0.84668)"/>
</clipPath>
</defs>
</svg>
