<svg width="136" height="51" viewBox="0 0 136 51" fill="none" xmlns="http://www.w3.org/2000/svg">
<g clip-path="url(#clip0_2_534)">
<path d="M0.214844 50.5479L1.01366 47.6135L1.81248 47.5712L2.61129 42.8083L3.41011 42.459L4.20893 39.0464L5.00774 35.5015L5.80656 37.5722L6.60538 39.3366L7.40419 40.998L8.20301 41.1241L9.00183 39.2285L9.80064 38.3163L10.5995 36.2005L11.3983 34.1333L12.1971 35.5226L12.9959 34.0903L13.7947 34.5035L14.5935 35.1601L15.3924 32.5627L16.1912 32.4831L16.99 31.358L17.7888 31.7302L18.5876 35.2746L19.3864 37.9041L20.1853 39.7539L20.9841 38.0421L21.7829 37.9515L22.5817 39.8504L23.3805 38.7631L24.1793 37.07L24.9782 37.995L25.777 35.6557L26.5758 34.4932L27.3746 35.9837L28.1734 37.2904L28.9722 37.5442L29.7711 35.4223L30.5699 35.1492L31.3687 34.233L32.1675 36.9158L32.9663 37.6604L33.7651 40.2974L34.564 41.6727L35.3628 39.1226L36.1616 37.9641L36.9604 36.9086L37.7592 34.6406L38.558 32.4616L39.3569 31.2126L40.1557 30.9394L40.9545 33.0496L41.7533 29.6238L42.5521 27.5708L43.3509 28.3655L44.1498 28.8611L44.9486 27.776L45.7474 26.8909L46.5462 24.2563L47.345 20.3156L48.1438 25.4449L48.9427 22.4516L49.7415 24.7215L50.5403 24.8104L51.3391 21.5521L52.1379 18.8371L52.9367 21.0352L53.7356 18.3785L54.5344 19.6451L55.3332 18.8987L56.132 15.3802L56.9308 9.42769L57.7296 7.13655L58.5285 8.46632L59.3273 6.83861L60.1261 3.6019L60.9249 6.86991L61.7237 10.4161L62.5225 10.6393L63.3214 9.24831L64.1202 10.9377L64.919 7.38774L65.7178 6.57913L66.5166 3.25248L67.3154 7.57106L68.1143 6.54822L68.9131 4.96277L69.7119 6.34264L70.5107 5.59547L71.3095 3.85363L72.1083 5.86762L72.9072 3.56402L73.706 3.9459L74.5048 0.547852L75.3036 1.19378L76.1024 1.60652L76.9012 6.61751L77.7001 9.81072L78.4989 8.39571L79.2977 10.5149L80.0965 9.83906L80.8953 6.06316L81.6941 10.3727L82.493 14.2572L83.2918 12.1123L84.0906 9.87277L84.8894 10.5746L85.6882 9.37848L86.487 8.29748L87.2859 8.07434L88.0847 7.99825L88.8835 9.0729L89.6823 11.8802L90.4811 10.2108L91.2799 10.1442L92.0788 13.9119L92.8776 11.6033L93.6764 10.0869L94.4752 9.24944L95.274 12.194L96.0728 13.8048L96.8717 13.8374L97.6705 15.9985L98.4693 15.7204L99.2681 14.3777L100.067 16.1873L100.866 15.4578L101.665 19.1633L102.463 13.0172L103.262 11.8941L104.061 5.61513L104.86 5.3022L105.659 5.68023L106.457 7.01224L107.256 5.52382L108.055 6.71293L108.854 5.75156L109.653 7.62642L110.452 8.67103L111.25 8.68622L112.049 13.279L112.848 13.3997L113.647 10.7662L114.446 14.5556L115.244 13.6863L116.043 17.4434L116.842 16.1599L117.641 18.0202L118.44 24.0846L119.239 24.9896L120.037 22.2325L120.836 22.8228L121.635 23.8579L122.434 23.8503L123.233 27.4834L124.031 25.4109L124.83 19.6199L125.629 16.5965L126.428 20.2258L127.227 20.2454L128.025 22.3554L128.824 26.5653L129.623 28.7769L130.422 24.741L131.221 25.2873L132.02 24.5343L132.818 19.9405L133.617 19.9308L134.416 16.0653" stroke="#32CA5B" stroke-width="1.25"/>
</g>
<defs>
<clipPath id="clip0_2_534">
<rect width="135" height="50" fill="white" transform="translate(0.214844 0.547852)"/>
</clipPath>
</defs>
</svg>
