<svg width="136" height="51" viewBox="0 0 136 51" fill="none" xmlns="http://www.w3.org/2000/svg">
<g clip-path="url(#clip0_2_428)">
<path d="M0.214844 39.1517L1.01842 38.612L1.82199 29.3194L2.62556 32.283L3.42913 30.2298L4.2327 23.1704L5.03627 25.0446L5.83984 32.7692L6.64341 32.4439L7.44699 29.0755L8.25056 32.42L9.05413 29.7139L9.8577 24.9567L10.6613 23.6972L11.4648 26.019L12.2684 25.9377L13.072 19.965L13.8756 22.3722L14.6791 22.4905L15.4827 17.3022L16.2863 9.04235L17.0898 7.60164L17.8934 13.6009L18.697 20.1571L19.5006 27.1547L20.3041 25.8901L21.1077 27.0925L21.9113 27.2634L22.7148 26.155L23.5184 28.7038L24.322 29.4712L25.1256 28.2608L25.9291 25.3598L26.7327 28.3884L27.5363 29.467L28.3398 33.2734L29.1434 31.5278L29.947 36.1074L30.7506 35.5761L31.5541 37.9687L32.3577 39.888L33.1613 42.6362L33.9648 46.2028L34.7684 39.5679L35.572 36.6413L36.3756 32.5654L37.1791 27.0391L37.9827 20.1576L38.7863 19.8867L39.5898 16.2669L40.3934 22.206L41.197 15.9892L42.0006 16.0763L42.8041 12.9452L43.6077 12.6793L44.4113 8.45651L45.2148 9.60582L46.0184 2.30185L46.822 0.547852L47.6256 5.13747L48.4291 8.72303L49.2327 13.2313L50.0363 18.3363L50.8398 12.0935L51.6434 12.987L52.447 6.76467L53.2506 8.61677L54.0541 9.46493L54.8577 14.9555L55.6613 10.1203L56.4648 10.6236L57.2684 7.91816L58.072 12.4065L58.8756 11.4281L59.6791 9.10554L60.4827 15.9793L61.2863 19.7047L62.0898 17.6936L62.8934 12.9159L63.697 7.84922L64.5006 11.442L65.3041 13.0562L66.1077 9.23457L66.9113 15.8399L67.7148 10.4214L68.5184 15.7907L69.322 15.4976L70.1256 15.393L70.9291 14.772L71.7327 15.2476L72.5363 14.5121L73.3398 14.6015L74.1434 10.8713L74.947 16.5985L75.7506 16.4717L76.5541 18.1541L77.3577 18.3448L78.1613 26.2867L78.9648 28.3649L79.7684 25.5158L80.572 23.6681L81.3756 25.6065L82.1791 27.0628L82.9827 27.356L83.7863 27.558L84.5898 29.4987L85.3934 30.0958L86.197 28.2579L87.0006 26.3367L87.8041 26.5007L88.6077 28.2657L89.4113 27.5629L90.2148 25.5654L91.0184 22.1509L91.822 29.1664L92.6256 25.8586L93.4291 26.7927L94.2327 27.0314L95.0363 28.6052L95.8398 31.489L96.6434 33.9948L97.447 35.2455L98.2506 33.8362L99.0541 32.6642L99.8577 30.6962L100.661 27.7804L101.465 33.0138L102.268 28.4592L103.072 31.0618L103.876 30.0413L104.679 27.5582L105.483 25.4318L106.286 26.4266L107.09 20.556L107.893 21.2561L108.697 16.9966L109.501 22.9933L110.304 23.088L111.108 18.6438L111.911 29.028L112.715 33.1781L113.518 29.2076L114.322 30.5104L115.126 28.9185L115.929 31.7439L116.733 27.9358L117.536 33.0991L118.34 45.3994L119.143 47.2937L119.947 42.5624L120.751 40.2541L121.554 42.1947L122.358 43.1217L123.161 47.3576L123.965 46.6602L124.768 43.265L125.572 45.6255L126.376 44.2715L127.179 42.5812L127.983 43.1505L128.786 46.7465L129.59 50.5479L130.393 42.9562L131.197 40.7969L132.001 40.084L132.804 38.1705L133.608 37.5677L134.411 33.6412" stroke="#32CA5B" stroke-width="1.25"/>
</g>
<defs>
<clipPath id="clip0_2_428">
<rect width="135" height="50" fill="white" transform="translate(0.214844 0.547852)"/>
</clipPath>
</defs>
</svg>
