<svg width="136" height="51" viewBox="0 0 136 51" fill="none" xmlns="http://www.w3.org/2000/svg">
<g clip-path="url(#clip0_16_381)">
<path d="M0.796387 11.1655L1.5952 10.3539L2.39402 6.20124L3.19284 6.95042L3.99165 6.59364L4.79047 8.93933L5.58929 6.40821L6.3881 4.68744L7.18692 6.45125L7.98574 4.10371L8.78455 2.86867L9.58337 3.2029L10.3822 1.70606L11.181 0.90595L11.9798 1.4392L12.7786 0.84668L13.5775 3.57015L14.3763 1.66854L15.1751 4.2175L15.9739 6.94167L16.7727 12.5914L17.5715 19.0692L18.3704 23.097L19.1692 26.3663L19.968 20.8441L20.7668 22.5519L21.5656 29.5919L22.3644 29.4916L23.1632 29.4962L23.9621 30.4652L24.7609 29.5024L25.5597 26.7557L26.3585 24.351L27.1573 24.8583L27.9562 26.1584L28.755 25.96L29.5538 26.5053L30.3526 25.7787L31.1514 26.523L31.9502 28.6547L32.7491 29.5203L33.5479 29.5209L34.3467 29.6473L35.1455 35.981L35.9443 32.7791L36.7431 28.8972L37.542 27.8967L38.3408 31.2349L39.1396 37.6039L39.9384 41.732L40.7372 41.8162L41.536 42.0599L42.3348 43.5508L43.1337 43.116L43.9325 44.1464L44.7313 39.9249L45.5301 40.8566L46.3289 39.0361L47.1277 38.862L47.9266 39.9909L48.7254 40.417L49.5242 42.8032L50.323 48.0229L51.1218 46.6055L51.9206 45.8114L52.7195 45.1851L53.5183 45.2706L54.3171 45.4913L55.1159 48.148L55.9147 50.3405L56.7135 50.8467L57.5124 47.1672L58.3112 47.0955L59.11 45.0135L59.9088 46.2359L60.7076 45.7365L61.5064 46.0993L62.3053 46.5187L63.1041 46.0381L63.9029 40.1569L64.7017 42.4962L65.5005 44.3708L66.2993 41.4027L67.0982 41.7002L67.897 41.6277L68.6958 40.6675L69.4946 39.1728L70.2934 40.9254L71.0922 41.5743L71.8911 41.0006L72.6899 38.9075L73.4887 40.6626L74.2875 45.204L75.0863 39.7888L75.8851 33.2838L76.684 34.9229L77.4828 35.0502L78.2816 34.7331L79.0804 34.9354L79.8792 34.4164L80.678 34.338L81.4769 36.3801L82.2757 35.2135L83.0745 35.4731L83.8733 35.9492L84.6721 37.6485L85.4709 38.1776L86.2698 36.506L87.0686 35.3804L87.8674 35.4399L88.6662 34.6041L89.465 35.2852L90.2638 34.1076L91.0627 35.324L91.8615 35.2894L92.6603 35.8538L93.4591 36.5776L94.2579 35.8117L95.0567 36.4979L95.8556 37.2868L96.6544 38.145L97.4532 38.6911L98.252 38.3058L99.0508 37.0451L99.8496 35.8647L100.648 35.166L101.447 36.7126L102.246 35.0515L103.045 36.1175L103.844 35.3394L104.643 36.2166L105.441 35.6508L106.24 34.7431L107.039 35.344L107.838 34.1143L108.637 34.9371L109.435 35.6128L110.234 34.2581L111.033 33.5462L111.832 33.6779L112.631 32.0624L113.43 32.7979L114.228 32.7279L115.027 31.9777L115.826 30.0588L116.625 31.0291L117.424 32.1168L118.222 32.5596L119.021 33.9814L119.82 32.0264L120.619 30.3309L121.418 24.7126L122.217 23.0711L123.015 22.2725L123.814 23.724L124.613 25.5504L125.412 25.1591L126.211 25.9838L127.009 24.6122L127.808 31.2739L128.607 31.089L129.406 29.3835L130.205 27.8531L131.003 27.0301L131.802 21.3388L132.601 25.2964L133.4 26.4124L134.199 27.6802L134.998 33.6458" stroke="#FF3A33" stroke-width="1.25"/>
</g>
<defs>
<clipPath id="clip0_16_381">
<rect width="135" height="50" fill="white" transform="translate(0.796387 0.84668)"/>
</clipPath>
</defs>
</svg>
