<svg width="136" height="51" viewBox="0 0 136 51" fill="none" xmlns="http://www.w3.org/2000/svg">
<g clip-path="url(#clip0_9_291)">
<path d="M0.214844 43.427L1.01366 43.2811L1.81248 41.5182L2.61129 38.4441L3.41011 39.2601L4.20893 38.0815L5.00774 35.1839L5.80656 34.3682L6.60538 38.4494L7.40419 41.115L8.20301 41.8118L9.00183 40.1993L9.80064 37.3919L10.5995 37.1797L11.3983 34.4634L12.1971 34.7275L12.9959 29.2318L13.7947 26.8436L14.5935 31.0485L15.3924 28.9126L16.1912 27.3132L16.99 27.6137L17.7888 26.4356L18.5876 27.6023L19.3864 29.2014L20.1853 32.6615L20.9841 32.3839L21.7829 31.4734L22.5817 32.4887L23.3805 27.991L24.1793 27.7978L24.9782 27.6341L25.777 23.1372L26.5758 21.0846L27.3746 24.5351L28.1734 22.7901L28.9722 20.6046L29.7711 21.6333L30.5699 22.4921L31.3687 22.8712L32.1675 26.8429L32.9663 29.0479L33.7651 29.7112L34.564 36.087L35.3628 31.5024L36.1616 29.8975L36.9604 27.0538L37.7592 21.7936L38.558 16.077L39.3569 16.2188L40.1557 15.3341L40.9545 18.0562L41.7533 16.8668L42.5521 17.9465L43.3509 18.5929L44.1498 16.4892L44.9486 12.3707L45.7474 12.5763L46.5462 8.19413L47.345 10.6506L48.1438 14.1762L48.9427 12.1869L49.7415 16.7287L50.5403 17.848L51.3391 14.7438L52.1379 16.0246L52.9367 11.5746L53.7356 9.37309L54.5344 7.66794L55.3332 6.62439L56.132 2.66027L56.9308 2.70522L57.7296 0.547852L58.5285 3.31421L59.3273 5.41041L60.1261 4.60307L60.9249 5.99589L61.7237 8.48716L62.5225 5.6612L63.3214 2.68571L64.1202 4.56496L64.919 4.64915L65.7178 3.64589L66.5166 2.07651L67.3154 5.7727L68.1143 6.03132L68.9131 8.93948L69.7119 6.25155L70.5107 6.36767L71.3095 5.10901L72.1083 6.76187L72.9072 5.81688L73.706 6.00279L74.5048 3.03695L75.3036 6.01386L76.1024 5.59594L76.9012 9.06913L77.7001 11.9449L78.4989 12.2015L79.2977 17.8121L80.0965 13.1914L80.8953 11.1689L81.6941 13.4738L82.493 14.4961L83.2918 13.7542L84.0906 13.7847L84.8894 14.8752L85.6882 15.4528L86.487 14.9565L87.2859 14.0685L88.0847 14.0434L88.8835 15.5161L89.6823 15.4138L90.4811 14.689L91.2799 14.8198L92.0788 15.8274L92.8776 15.1579L93.6764 13.9174L94.4752 13.1531L95.274 16.6622L96.0728 17.0202L96.8717 17.5226L97.6705 22.9018L98.4693 21.9044L99.2681 21.9108L100.067 22.2953L100.866 20.237L101.665 24.0718L102.463 20.8301L103.262 18.1988L104.061 16.2214L104.86 14.1771L105.659 15.2364L106.457 14.193L107.256 11.013L108.055 13.1798L108.854 13.5345L109.653 18.0043L110.452 19.2107L111.25 20.0746L112.049 25.6772L112.848 30.314L113.647 25.9283L114.446 27.0427L115.244 26.1267L116.043 27.5138L116.842 22.9849L117.641 23.7516L118.44 31.8048L119.239 32.747L120.037 30.7397L120.836 31.8403L121.635 35.1445L122.434 37.8159L123.233 42.0318L124.031 40.7397L124.83 38.6031L125.629 39.8007L126.428 41.4119L127.227 40.008L128.025 42.0375L128.824 46.0553L129.623 50.5479L130.422 45.6718L131.221 45.1757L132.02 43.5859L132.818 40.9637L133.617 40.0472L134.416 40.9434" stroke="#32CA5B" stroke-width="1.25"/>
</g>
<defs>
<clipPath id="clip0_9_291">
<rect width="135" height="50" fill="white" transform="translate(0.214844 0.547852)"/>
</clipPath>
</defs>
</svg>
