<svg width="136" height="51" viewBox="0 0 136 51" fill="none" xmlns="http://www.w3.org/2000/svg">
<g clip-path="url(#clip0_9_319)">
<path d="M0.214844 40.531L1.00896 39.9426L1.80308 37.1081L2.5972 37.1367L3.39131 35.9609L4.18543 39.2226L4.97955 37.6162L5.77367 38.8697L6.56778 42.9288L7.3619 43.883L8.15602 43.535L8.95014 42.8554L9.74426 39.9362L10.5384 40.6597L11.3325 36.7967L12.1266 37.5782L12.9207 36.4748L13.7148 34.6726L14.509 34.6703L15.3031 34.0117L16.0972 31.6724L16.8913 31.5487L17.6854 31.1594L18.4795 33.6532L19.2737 34.6352L20.0678 39.7572L20.8619 37.6088L21.656 34.9025L22.4501 36.6649L23.2443 35.6966L24.0384 33.7993L24.8325 27.2606L25.6266 26.8951L26.4207 23.5267L27.2148 30.713L28.009 30.7882L28.8031 34.652L29.5972 30.4512L30.3913 32.7209L31.1854 30.0355L31.9795 28.0987L32.7737 31.0875L33.5678 32.7666L34.3619 40.4325L35.156 35.3643L35.9501 32.7166L36.7443 32.5891L37.5384 32.736L38.3325 28.7939L39.1266 23.6165L39.9207 24.1419L40.7148 25.8064L41.509 19.6448L42.3031 18.419L43.0972 20.6829L43.8913 15.9798L44.6854 19.2349L45.4795 13.0146L46.2737 12.4699L47.0678 8.84898L47.8619 13.4347L48.656 11.0147L49.4501 14.7937L50.2443 17.8205L51.0384 15.4669L51.8325 15.7007L52.6266 14.1954L53.4207 14.9531L54.2148 15.848L55.009 15.6047L55.8031 11.1142L56.5972 10.2051L57.3913 3.511L58.1854 4.33141L58.9795 4.08601L59.7737 3.05622L60.5678 5.77493L61.3619 9.09436L62.156 7.92883L62.9501 4.9824L63.7443 3.69183L64.5384 1.18766L65.3325 2.97579L66.1266 0.573174L66.9207 6.60416L67.7148 6.46266L68.509 7.38952L69.3031 7.05235L70.0972 6.04643L70.8913 3.82087L71.6854 4.71796L72.4796 2.25755L73.2737 2.76629L74.0678 0.547852L74.8619 2.42109L75.656 4.81019L76.4501 7.74664L77.2443 13.0169L78.0384 18.1525L78.8325 19.1693L79.6266 18.1241L80.4207 16.598L81.2148 18.3621L82.009 19.6041L82.8031 18.5767L83.5972 14.4173L84.3913 16.5763L85.1854 18.3509L85.9796 14.9741L86.7737 16.4651L87.5678 16.0416L88.3619 17.118L89.156 18.2873L89.9501 17.7636L90.7443 16.4797L91.5384 19.5619L92.3325 17.7888L93.1266 16.7941L93.9207 16.768L94.7148 18.1167L95.509 19.8849L96.3031 21.5566L97.0972 23.2601L97.8913 22.24L98.6854 21.7333L99.4796 23.7627L100.274 22.0977L101.068 25.8449L101.862 22.8144L102.656 22.6425L103.45 19.1915L104.244 18.6795L105.038 18.7673L105.832 17.7789L106.627 15.7911L107.421 17.6497L108.215 16.6395L109.009 19.3662L109.803 20.6314L110.597 22.636L111.391 30.6323L112.185 35.9974L112.98 30.9139L113.774 32.7877L114.568 29.1331L115.362 30.8869L116.156 27.6079L116.95 28.4308L117.744 37.2378L118.538 36.8925L119.332 34.575L120.127 33.949L120.921 34.6034L121.715 36.7032L122.509 41.5363L123.303 42.0749L124.097 40.3476L124.891 43.4694L125.685 43.5309L126.48 42.6923L127.274 43.6812L128.068 45.6925L128.862 50.5479L129.656 48.2591L130.45 47.7569L131.244 46.4796L132.038 42.3746L132.832 41.5056L133.627 41.5866L134.421 42.5856" stroke="#FF3A33" stroke-width="1.25"/>
</g>
<defs>
<clipPath id="clip0_9_319">
<rect width="135" height="50" fill="white" transform="translate(0.214844 0.547852)"/>
</clipPath>
</defs>
</svg>
