<svg width="136" height="51" viewBox="0 0 136 51" fill="none" xmlns="http://www.w3.org/2000/svg">
<g clip-path="url(#clip0_2_544)">
<path d="M0.214844 48.3319L1.00896 47.4627L1.80308 46.5683L2.5972 46.8321L3.39131 48.8249L4.18543 48.4874L4.97955 48.2814L5.77367 47.8079L6.56778 50.5479L7.3619 49.6085L8.15602 49.9179L8.95014 48.0674L9.74426 46.676L10.5384 47.5661L11.3325 44.6885L12.1266 44.7461L12.9207 41.1799L13.7148 41.0769L14.509 40.9635L15.3031 38.9214L16.0972 35.8332L16.8913 34.9007L17.6854 31.8099L18.4795 34.9981L19.2737 35.0382L20.0678 38.2169L20.8619 36.8104L21.656 34.4369L22.4501 35.1547L23.2443 34.9821L24.0384 31.4563L24.8325 35.2581L25.6266 35.981L26.4207 34.0661L27.2148 34.6686L28.009 32.0861L28.8031 34.2812L29.5972 31.1725L30.3913 28.3203L31.1854 24.7161L31.9795 26.5209L32.7737 29.499L33.5678 30.8824L34.3619 35.469L35.156 33.6422L35.9501 29.0174L36.7443 24.3882L37.5384 12.6822L38.3325 6.94313L39.1266 10.3267L39.9207 7.56168L40.7148 8.80878L41.509 3.11011L42.3031 3.27026L43.0972 2.82113L43.8913 6.92791L44.6854 6.98887L45.4795 11.2837L46.2737 10.5293L47.0678 12.2081L47.8619 15.4725L48.656 13.7003L49.4501 15.3963L50.2443 17.4883L51.0384 14.6523L51.8325 14.1184L52.6266 11.4889L53.4207 11.7833L54.2148 11.4986L55.009 13.5044L55.8031 6.985L56.5972 7.97084L57.3913 6.45971L58.1854 4.10904L58.9795 5.40675L59.7737 0.547852L60.5678 7.90348L61.3619 9.48313L62.156 10.0767L62.9501 9.52096L63.7443 9.70332L64.5384 7.93223L65.3325 5.20679L66.1266 3.11039L66.9207 8.48708L67.7148 7.03422L68.509 7.82847L69.3031 6.89995L70.0972 7.12731L70.8913 5.3054L71.6854 6.88947L72.4796 5.42098L73.2737 5.14183L74.0678 3.89959L74.8619 6.68197L75.656 6.55904L76.4501 11.4836L77.2443 13.6128L78.0384 15.9669L78.8325 16.5081L79.6266 15.4843L80.4207 14.8934L81.2148 15.2248L82.009 18.2517L82.8031 16.7364L83.5972 16.0285L84.3913 16.1944L85.1854 18.1352L85.9796 16.3173L86.7737 16.5327L87.5678 16.8157L88.3619 18.2745L89.156 19.3831L89.9501 19.522L90.7443 17.7226L91.5384 18.0646L92.3325 15.8146L93.1266 14.2672L93.9207 12.2659L94.7148 14.1556L95.509 15.4801L96.3031 19.4825L97.0972 21.8177L97.8913 20.6232L98.6854 20.6305L99.4796 20.1166L100.274 17.6284L101.068 21.3953L101.862 16.814L102.656 14.7304L103.45 11.7641L104.244 11.0183L105.038 10.365L105.832 10.2382L106.627 9.46066L107.421 11.0808L108.215 12.4073L109.009 14.2532L109.803 13.0402L110.597 14.8547L111.391 20.0703L112.185 20.4998L112.98 18.0565L113.774 18.6271L114.568 16.4042L115.362 19.4518L116.156 15.6462L116.95 17.2484L117.744 20.8876L118.538 19.1345L119.332 17.3729L120.127 19.5368L120.921 20.6814L121.715 22.2376L122.509 26.0621L123.303 26.8114L124.097 25.0763L124.891 24.8714L125.685 25.452L126.48 24.2278L127.274 24.5542L128.068 29.7196L128.862 30.6244L129.656 24.2148L130.45 24.3887L131.244 22.0326L132.038 18.3644L132.832 16.6161L133.627 20.0518L134.421 17.9582" stroke="#32CA5B" stroke-width="1.25"/>
</g>
<defs>
<clipPath id="clip0_2_544">
<rect width="135" height="50" fill="white" transform="translate(0.214844 0.547852)"/>
</clipPath>
</defs>
</svg>
