<svg width="136" height="51" viewBox="0 0 136 51" fill="none" xmlns="http://www.w3.org/2000/svg">
<g clip-path="url(#clip0_2_907)">
<path d="M0.796387 11.8483L1.5952 13.4119L2.39402 12.2549L3.19284 9.2717L3.99165 10.8462L4.79047 14.906L5.58929 16.8974L6.3881 10.2128L7.18692 11.7296L7.98574 10.7457L8.78455 6.55101L9.58337 6.64249L10.3822 6.51025L11.181 1.87139L11.9798 1.98597L12.7786 3.97477L13.5775 2.74602L14.3763 0.84668L15.1751 3.92438L15.9739 2.95516L16.7727 9.5862L17.5715 21.0729L18.3704 19.7246L19.1692 24.5044L19.968 25.2477L20.7668 25.0142L21.5656 29.9404L22.3644 28.477L23.1632 28.7359L23.9621 29.3561L24.7609 27.5023L25.5597 28.3866L26.3585 25.9919L27.1573 24.6662L27.9562 25.1696L28.755 28.4707L29.5538 27.8028L30.3526 22.1591L31.1514 21.8792L31.9502 22.835L32.7491 29.2895L33.5479 31.1454L34.3467 31.8966L35.1455 34.7839L35.9443 29.2744L36.7431 30.8912L37.542 23.8331L38.3408 27.8129L39.1396 29.0171L39.9384 37.7653L40.7372 34.6374L41.536 33.4827L42.3348 35.8554L43.1337 33.4502L43.9325 34.8843L44.7313 32.8637L45.5301 32.2934L46.3289 29.8067L47.1277 28.2872L47.9266 30.1986L48.7254 33.3381L49.5242 32.2113L50.323 37.1947L51.1218 46.7939L51.9206 41.789L52.7195 39.5123L53.5183 44.9686L54.3171 44.3809L55.1159 40.4118L55.9147 47.751L56.7135 45.0223L57.5124 50.8467L58.3112 45.8853L59.11 46.1168L59.9088 43.9362L60.7076 48.1855L61.5064 46.7825L62.3053 44.2461L63.1041 44.0191L63.9029 46.355L64.7017 41.7454L65.5005 40.6751L66.2993 40.6997L67.0982 40.1139L67.897 39.9504L68.6958 40.329L69.4946 39.7347L70.2934 37.9693L71.0922 41.1608L71.8911 41.8615L72.6899 39.2429L73.4887 35.0692L74.2875 37.9248L75.0863 35.8065L75.8851 35.3673L76.684 31.2353L77.4828 31.2716L78.2816 31.7276L79.0804 31.3918L79.8792 32.525L80.678 32.2934L81.4769 33.3398L82.2757 32.1876L83.0745 30.4626L83.8733 32.6616L84.6721 37.2875L85.4709 36.2284L86.2698 35.2354L87.0686 33.4795L87.8674 31.8604L88.6662 32.6971L89.465 32.0981L90.2638 31.6545L91.0627 33.1555L91.8615 30.933L92.6603 25.8496L93.4591 29.9818L94.2579 30.443L95.0567 31.1106L95.8556 34.7813L96.6544 33.4267L97.4532 35.6344L98.252 36.5037L99.0508 38.3819L99.8496 35.3361L100.648 31.7022L101.447 32.3346L102.246 33.8812L103.045 31.4906L103.844 32.6886L104.643 34.3416L105.441 34.8925L106.24 33.2572L107.039 32.5904L107.838 31.6086L108.637 31.1406L109.435 30.4913L110.234 31.622L111.033 30.1306L111.832 29.9088L112.631 28.5032L113.43 22.8216L114.228 21.6939L115.027 22.0697L115.826 23.4841L116.625 22.2859L117.424 24.0507L118.222 24.8881L119.021 27.0262L119.82 22.3682L120.619 20.0375L121.418 13.776L122.217 11.3607L123.015 15.3128L123.814 18.5332L124.613 19.9798L125.412 19.3553L126.211 16.8052L127.009 17.4994L127.808 17.9429L128.607 23.1471L129.406 26.622L130.205 24.158L131.003 25.5575L131.802 22.2433L132.601 21.7315L133.4 23.4494L134.199 20.9955L134.998 28.8065" stroke="#FF3A33" stroke-width="1.25"/>
</g>
<defs>
<clipPath id="clip0_2_907">
<rect width="135" height="50" fill="white" transform="translate(0.796387 0.84668)"/>
</clipPath>
</defs>
</svg>
