<svg width="136" height="51" viewBox="0 0 136 51" fill="none" xmlns="http://www.w3.org/2000/svg">
<g clip-path="url(#clip0_2_869)">
<path d="M0.796387 9.0548L1.5952 13.2774L2.39402 10.9896L3.19284 7.39367L3.99165 6.59696L4.79047 10.9846L5.58929 17.3184L6.3881 10.6513L7.18692 9.39274L7.98574 10.6138L8.78455 6.26213L9.58337 1.22638L10.3822 2.86737L11.181 3.23724L11.9798 3.54393L12.7786 5.71634L13.5775 3.71497L14.3763 1.03405L15.1751 1.45656L15.9739 0.84668L16.7727 7.44273L17.5715 19.3787L18.3704 10.7225L19.1692 16.3141L19.968 11.4714L20.7668 19.1481L21.5656 22.1575L22.3644 22.5731L23.1632 18.4372L23.9621 20.2214L24.7609 15.8895L25.5597 16.2383L26.3585 13.5782L27.1573 10.3059L27.9562 10.7264L28.755 7.98389L29.5538 8.41487L30.3526 3.41546L31.1514 6.26014L31.9502 5.21571L32.7491 15.9072L33.5479 21.534L34.3467 27.9612L35.1455 30.3791L35.9443 24.9529L36.7431 23.6479L37.542 24.36L38.3408 29.2968L39.1396 30.1048L39.9384 38.6106L40.7372 37.4393L41.536 29.7918L42.3348 30.2958L43.1337 30.1145L43.9325 28.4163L44.7313 28.1464L45.5301 26.7819L46.3289 29.047L47.1277 25.7873L47.9266 28.9913L48.7254 30.344L49.5242 27.916L50.323 33.2931L51.1218 46.5606L51.9206 37.3223L52.7195 32.391L53.5183 39.313L54.3171 42.5262L55.1159 39.6575L55.9147 44.5187L56.7135 44.9664L57.5124 49.5548L58.3112 47.4611L59.11 50.2962L59.9088 46.6619L60.7076 50.8467L61.5064 49.017L62.3053 47.9475L63.1041 49.3279L63.9029 49.6086L64.7017 46.3896L65.5005 48.5502L66.2993 48.4105L67.0982 48.4009L67.897 46.0725L68.6958 44.6227L69.4946 42.8266L70.2934 38.2397L71.0922 37.6421L71.8911 40.0588L72.6899 34.8928L73.4887 37.4259L74.2875 37.1264L75.0863 37.7672L75.8851 36.0723L76.684 32.5836L77.4828 31.8691L78.2816 32.7466L79.0804 32.0001L79.8792 31.8393L80.678 34.4707L81.4769 36.4365L82.2757 35.7156L83.0745 34.2654L83.8733 36.017L84.6721 38.5466L85.4709 40.188L86.2698 40.1995L87.0686 37.5078L87.8674 35.7887L88.6662 36.6481L89.465 35.624L90.2638 36.7167L91.0627 36.5183L91.8615 37.5056L92.6603 36.581L93.4591 38.5443L94.2579 38.0973L95.0567 38.6332L95.8556 42.1662L96.6544 40.3246L97.4532 42.6101L98.252 45.2027L99.0508 45.5226L99.8496 43.9031L100.648 42.4215L101.447 43.6515L102.246 43.7476L103.045 41.6631L103.844 43.1571L104.643 44.6035L105.441 44.5961L106.24 44.6016L107.039 44.4479L107.838 44.0825L108.637 44.6471L109.435 43.6571L110.234 44.3246L111.033 43.41L111.832 43.3854L112.631 42.5739L113.43 34.88L114.228 33.4516L115.027 33.9308L115.826 34.7249L116.625 32.6411L117.424 34.5702L118.222 35.6085L119.021 38.8207L119.82 33.2977L120.619 31.6697L121.418 25.4578L122.217 24.6407L123.015 22.2727L123.814 21.4302L124.613 24.2939L125.412 24.9451L126.211 22.829L127.009 24.3081L127.808 25.7475L128.607 28.5912L129.406 30.6957L130.205 28.6024L131.003 31.4546L131.802 27.5217L132.601 27.8533L133.4 26.7367L134.199 25.8885L134.998 30.8877" stroke="#FF3A33" stroke-width="1.25"/>
</g>
<defs>
<clipPath id="clip0_2_869">
<rect width="135" height="50" fill="white" transform="translate(0.796387 0.84668)"/>
</clipPath>
</defs>
</svg>
