<svg width="24" height="24" viewBox="0 0 24 24" fill="none" xmlns="http://www.w3.org/2000/svg">
<path d="M18.002 5.57813V1.73437C18.002 1.73437 17.9697 1.12716 17.6036 0.632813C17.1348 0 16.2207 0 16.2207 0H7.8535C7.8535 0 7.22069 0 6.63476 0.515626C6.09569 0.99 6.09569 1.71094 6.09569 1.71094V3.39845L6.00195 3.49219V4.05468L6.09569 4.125V5.01562L6.00195 5.06251V6.60938L6.09569 6.65626V7.21874L6.00195 7.31251V8.76562L6.09569 8.81251L6.07227 22.2656C6.07227 22.2656 6.11933 23.0156 6.58789 23.4844C7.03321 23.9299 7.78321 24 7.78321 24H16.2676C16.2676 24 17.1114 23.8982 17.5567 23.3672C17.9551 22.8921 18.002 22.2656 18.002 22.2656V8.34374L18.0957 8.29687V5.625L18.002 5.57813Z" fill="#9EC8CE"/>
<path d="M16.2188 0.750366H7.87501C7.30546 0.750366 6.84375 1.21208 6.84375 1.78162V22.2191C6.84375 22.7887 7.30546 23.2504 7.87501 23.2504H16.2188C16.7883 23.2504 17.25 22.7887 17.25 22.2191V1.78162C17.25 1.21208 16.7883 0.750366 16.2188 0.750366Z" fill="#245750"/>
<path d="M13.6 2H10.4C10.1791 2 10 2.17909 10 2.4C10 2.62091 10.1791 2.8 10.4 2.8H13.6C13.8209 2.8 14 2.62091 14 2.4C14 2.17909 13.8209 2 13.6 2Z" fill="#9EC8CE"/>
</svg>
