<svg width="136" height="51" viewBox="0 0 136 51" fill="none" xmlns="http://www.w3.org/2000/svg">
<g clip-path="url(#clip0_16_305)">
<path d="M0.796387 4.93345L1.5952 4.84052L2.39402 3.89525L3.19284 2.1112L3.99165 3.47786L4.79047 7.13866L5.58929 9.23559L6.3881 7.02578L7.18692 5.68084L7.98574 5.08118L8.78455 3.92925L9.58337 2.87313L10.3822 2.62752L11.181 0.84668L11.9798 1.80042L12.7786 3.59772L13.5775 2.86574L14.3763 3.26126L15.1751 5.52932L15.9739 5.81298L16.7727 9.99065L17.5715 20.9177L18.3704 16.2703L19.1692 24.5082L19.968 29.1025L20.7668 32.4753L21.5656 30.7583L22.3644 33.5374L23.1632 27.0937L23.9621 31.2488L24.7609 31.6798L25.5597 27.4299L26.3585 24.8244L27.1573 23.6546L27.9562 24.4484L28.755 24.7538L29.5538 25.1618L30.3526 22.4146L31.1514 26.5206L31.9502 27.5714L32.7491 36.241L33.5479 40.7822L34.3467 36.2449L35.1455 39.8381L35.9443 32.8111L36.7431 37.0417L37.542 32.5637L38.3408 37.832L39.1396 37.0014L39.9384 42.1458L40.7372 44.8557L41.536 41.4653L42.3348 42.7501L43.1337 43.3611L43.9325 45.3071L44.7313 40.8248L45.5301 40.6187L46.3289 38.8538L47.1277 36.7755L47.9266 37.0358L48.7254 39.0997L49.5242 36.8793L50.323 41.4895L51.1218 48.4978L51.9206 41.8567L52.7195 39.3811L53.5183 43.7999L54.3171 44.8243L55.1159 42.4147L55.9147 45.3675L56.7135 42.4441L57.5124 44.7157L58.3112 41.7271L59.11 40.8812L59.9088 37.2385L60.7076 39.5813L61.5064 39.8632L62.3053 38.0949L63.1041 36.3593L63.9029 37.0752L64.7017 33.8155L65.5005 32.0042L66.2993 32.2326L67.0982 28.8756L67.897 27.8928L68.6958 29.4766L69.4946 27.7701L70.2934 27.4086L71.0922 30.285L71.8911 31.757L72.6899 31.8999L73.4887 31.4536L74.2875 32.6668L75.0863 35.6118L75.8851 31.3689L76.684 31.3242L77.4828 32.9939L78.2816 32.3819L79.0804 31.6247L79.8792 32.0318L80.678 33.2305L81.4769 34.1667L82.2757 32.7976L83.0745 32.969L83.8733 33.521L84.6721 35.0744L85.4709 34.5621L86.2698 34.4094L87.0686 33.4041L87.8674 29.37L88.6662 29.3588L89.465 28.5371L90.2638 28.7656L91.0627 28.069L91.8615 28.0506L92.6603 28.5068L93.4591 29.8976L94.2579 31.2542L95.0567 31.0391L95.8556 34.8069L96.6544 34.8593L97.4532 37.5721L98.252 38.8035L99.0508 39.1807L99.8496 35.9284L100.648 34.2138L101.447 34.1623L102.246 36.471L103.045 33.8099L103.844 34.4118L104.643 36.3041L105.441 37.641L106.24 36.7091L107.039 36.371L107.838 36.1522L108.637 35.9578L109.435 35.129L110.234 36.0961L111.033 36.1041L111.832 35.448L112.631 34.8532L113.43 31.2905L114.228 31.4237L115.027 34.9928L115.826 36.0933L116.625 34.8276L117.424 39.0031L118.222 38.8212L119.021 43.2548L119.82 44.0466L120.619 46.5457L121.418 41.988L122.217 36.7383L123.015 40.4363L123.814 42.7935L124.613 42.6882L125.412 43.5078L126.211 41.325L127.009 39.748L127.808 37.7184L128.607 42.2299L129.406 48.0452L130.205 50.2045L131.003 49.4463L131.802 44.9513L132.601 44.0705L133.4 44.9226L134.199 42.9163L134.998 50.8467" stroke="#FF3A33" stroke-width="1.25"/>
</g>
<defs>
<clipPath id="clip0_16_305">
<rect width="135" height="50" fill="white" transform="translate(0.796387 0.84668)"/>
</clipPath>
</defs>
</svg>
