<svg width="36" height="36" viewBox="0 0 36 36" fill="none" xmlns="http://www.w3.org/2000/svg">
<g clip-path="url(#clip0_3_1024)">
<mask id="mask0_3_1024" style="mask-type:luminance" maskUnits="userSpaceOnUse" x="0" y="0" width="36" height="36">
<path d="M36 0H0V36H36V0Z" fill="white"/>
</mask>
<g mask="url(#mask0_3_1024)">
<mask id="mask1_3_1024" style="mask-type:luminance" maskUnits="userSpaceOnUse" x="0" y="0" width="36" height="36">
<path d="M36 0H0V36H36V0Z" fill="white"/>
</mask>
<g mask="url(#mask1_3_1024)">
<path d="M3.25 3L3.25 24C3.25 25.5188 4.48122 26.75 6 26.75H29C30.5188 26.75 31.75 25.5188 31.75 24V3C31.75 1.48122 30.5188 0.25 29 0.25H6C4.48122 0.25 3.25 1.48122 3.25 3Z" fill="#1AB286" stroke="#B1FFE8" stroke-width="0.5"/>
<path d="M11.0556 16C12.1679 12.9062 13.7252 6.37821 11.0556 5.01693C10.2817 4.9138 8.79214 5.23349 9.02428 7.33729C9.31446 9.96704 10.9105 15.0718 12.9418 13.8343C13.232 13.6281 13.9574 12.7205 14.5378 10.7405C14.828 11.6171 15.5534 13.2774 16.1338 12.9062C16.7141 12.5349 17.1494 11.3077 17.2945 10.7405C17.5363 11.3593 18.136 12.504 18.6003 12.1327C19.0646 11.7615 19.8578 10.9467 20.1963 10.5858C20.3898 10.8436 21.0379 11.2355 22.0825 10.7405C23.1272 10.2455 25.1295 9.19358 26 8.72951" stroke="#B1FFE8" stroke-width="0.8" stroke-linecap="round" stroke-linejoin="round"/>
<path d="M0.5 23L0.5 30C0.5 31.3807 1.61929 32.5 3 32.5H33C34.3807 32.5 35.5 31.3807 35.5 30V23C35.5 21.6193 34.3807 20.5 33 20.5H3C1.61929 20.5 0.5 21.6193 0.5 23Z" fill="#B1FFE8" stroke="#19B285"/>
<path d="M8 28C9.10457 28 10 27.1046 10 26C10 24.8954 9.10457 24 8 24C6.89543 24 6 24.8954 6 26C6 27.1046 6.89543 28 8 28Z" fill="#19B285"/>
<path d="M15 28C16.1046 28 17 27.1046 17 26C17 24.8954 16.1046 24 15 24C13.8954 24 13 24.8954 13 26C13 27.1046 13.8954 28 15 28Z" fill="#19B285"/>
<path d="M22 28C23.1046 28 24 27.1046 24 26C24 24.8954 23.1046 24 22 24C20.8954 24 20 24.8954 20 26C20 27.1046 20.8954 28 22 28Z" fill="#19B285"/>
<path d="M29 28C30.1046 28 31 27.1046 31 26C31 24.8954 30.1046 24 29 24C27.8954 24 27 24.8954 27 26C27 27.1046 27.8954 28 29 28Z" fill="#19B285"/>
</g>
</g>
</g>
<defs>
<clipPath id="clip0_3_1024">
<rect width="36" height="36" fill="white"/>
</clipPath>
</defs>
</svg>
