<svg width="12" height="13" viewBox="0 0 12 13" fill="none" xmlns="http://www.w3.org/2000/svg">
<path d="M8.625 5.375C8.625 4.70313 8.46094 4.07812 8.13281 3.5C7.78906 2.92188 7.32812 2.46094 6.75 2.11719C6.15625 1.78906 5.53125 1.625 4.875 1.625C4.21875 1.625 3.59375 1.78906 3 2.11719C2.42188 2.46094 1.96094 2.92188 1.61719 3.5C1.28906 4.07812 1.125 4.70313 1.125 5.375C1.125 6.04687 1.28906 6.67188 1.61719 7.25C1.96094 7.82812 2.42188 8.28906 3 8.63281C3.59375 8.96094 4.21875 9.125 4.875 9.125C5.53125 9.125 6.15625 8.96094 6.75 8.63281C7.32812 8.28906 7.78906 7.82812 8.13281 7.25C8.46094 6.67188 8.625 6.04687 8.625 5.375ZM7.89844 9.19531C7.05469 9.88281 6.04688 10.2344 4.875 10.25C3.5 10.2187 2.35156 9.74219 1.42969 8.82031C0.507813 7.89844 0.03125 6.75 0 5.375C0.03125 4 0.507813 2.85156 1.42969 1.92969C2.35156 1.00781 3.5 0.53125 4.875 0.5C6.25 0.53125 7.39844 1.00781 8.32031 1.92969C9.24219 2.85156 9.71875 4 9.75 5.375C9.73437 6.54688 9.38281 7.55469 8.69531 8.39844L11.8359 11.5391C12.0547 11.8047 12.0547 12.0703 11.8359 12.3359C11.5703 12.5547 11.3047 12.5547 11.0391 12.3359L7.89844 9.19531Z" fill="#0F172A"/>
</svg>
