<svg width="136" height="51" viewBox="0 0 136 51" fill="none" xmlns="http://www.w3.org/2000/svg">
<g clip-path="url(#clip0_2_849)">
<path d="M0.796387 5.35834L1.5952 6.65668L2.39402 6.54183L3.19284 4.83195L3.99165 5.66605L4.79047 8.7422L5.58929 11.8766L6.3881 8.19506L7.18692 7.46336L7.98574 7.64222L8.78455 5.33534L9.58337 3.13599L10.3822 2.52965L11.181 1.17292L11.9798 0.84668L12.7786 2.49548L13.5775 2.40587L14.3763 1.47586L15.1751 3.46987L15.9739 5.38638L16.7727 12.3411L17.5715 21.5792L18.3704 24.7275L19.1692 31.4803L19.968 31.4473L20.7668 34.0367L21.5656 35.4919L22.3644 38.4507L23.1632 34.8042L23.9621 35.8099L24.7609 37.0289L25.5597 35.4502L26.3585 33.5269L27.1573 32.0651L27.9562 33.63L28.755 33.3594L29.5538 34.5809L30.3526 32.5467L31.1514 32.6761L31.9502 31.5666L32.7491 36.9162L33.5479 39.4736L34.3467 38.785L35.1455 39.4159L35.9443 36.6907L36.7431 39.6563L37.542 34.6442L38.3408 38.2483L39.1396 38.4287L39.9384 44.1055L40.7372 46.1046L41.536 43.9659L42.3348 45.7561L43.1337 44.2389L43.9325 45.5125L44.7313 45.0003L45.5301 42.555L46.3289 42.4467L47.1277 40.9215L47.9266 41.3686L48.7254 43.2166L49.5242 43.1567L50.323 47.649L51.1218 49.62L51.9206 47.0938L52.7195 44.7755L53.5183 47.9634L54.3171 47.007L55.1159 46.9078L55.9147 50.8467L56.7135 48.2851L57.5124 50.3989L58.3112 47.4435L59.11 48.1439L59.9088 45.4149L60.7076 47.9582L61.5064 45.0619L62.3053 43.9916L63.1041 44.7835L63.9029 44.5656L64.7017 40.513L65.5005 40.3876L66.2993 41.0651L67.0982 40.0698L67.897 37.3455L68.6958 39.0038L69.4946 37.6117L70.2934 36.1387L71.0922 35.8259L71.8911 36.2993L72.6899 35.9783L73.4887 34.6575L74.2875 36.1471L75.0863 36.0224L75.8851 32.5723L76.684 29.4632L77.4828 32.3224L78.2816 29.8067L79.0804 29.9051L79.8792 29.1827L80.678 29.4629L81.4769 30.5939L82.2757 29.5266L83.0745 28.5413L83.8733 30.2835L84.6721 32.2901L85.4709 32.7709L86.2698 31.6782L87.0686 30.9578L87.8674 30.3159L88.6662 32.0563L89.465 31.8709L90.2638 31.1795L91.0627 33.0269L91.8615 32.1196L92.6603 31.343L93.4591 33.6531L94.2579 33.5597L95.0567 34.2379L95.8556 36.7217L96.6544 36.1518L97.4532 38.2177L98.252 39.1625L99.0508 40.0667L99.8496 38.8371L100.648 36.5974L101.447 37.2097L102.246 37.3868L103.045 34.8956L103.844 35.6446L104.643 37.0732L105.441 37.1763L106.24 36.8687L107.039 37.2191L107.838 36.7722L108.637 37.2506L109.435 36.3114L110.234 37.3724L111.033 36.6939L111.832 35.3907L112.631 35.4507L113.43 31.8677L114.228 32.2693L115.027 33.8558L115.826 32.909L116.625 32.2149L117.424 34.6385L118.222 34.1876L119.021 36.0556L119.82 35.3395L120.619 32.8722L121.418 27.2488L122.217 27.5008L123.015 27.0116L123.814 28.3124L124.613 29.5743L125.412 29.2532L126.211 27.8622L127.009 28.9964L127.808 29.162L128.607 33.245L129.406 35.1832L130.205 32.8334L131.003 32.5996L131.802 31.2374L132.601 30.2729L133.4 30.4808L134.199 30.6788L134.998 34.7203" stroke="#FF3A33" stroke-width="1.25"/>
</g>
<defs>
<clipPath id="clip0_2_849">
<rect width="135" height="50" fill="white" transform="translate(0.796387 0.84668)"/>
</clipPath>
</defs>
</svg>
