<svg width="136" height="51" viewBox="0 0 136 51" fill="none" xmlns="http://www.w3.org/2000/svg">
<g clip-path="url(#clip0_2_380)">
<path d="M0.214844 49.4387L1.01366 47.5679L1.81248 44.4566L2.61129 41.5152L3.41011 42.657L4.20893 44.569L5.00774 42.3802L5.80656 43.3423L6.60538 46.6472L7.40419 49.5276L8.20301 49.3124L9.00183 46.9073L9.80064 46.5136L10.5995 46.971L11.3983 41.5471L12.1971 43.7159L12.9959 38.2584L13.7947 34.5178L14.5935 37.756L15.3924 37.8969L16.1912 38.4994L16.99 39.8241L17.7888 39.0393L18.5876 42.0356L19.3864 42.8091L20.1853 45.4665L20.9841 42.5305L21.7829 42.6953L22.5817 43.4495L23.3805 42.9493L24.1793 40.2092L24.9782 42.9491L25.777 38.8376L26.5758 37.8252L27.3746 42.8564L28.1734 45.6213L28.9722 45.9728L29.7711 44.2065L30.5699 44.2355L31.3687 44.4745L32.1675 45.5324L32.9663 47.2744L33.7651 47.8864L34.564 50.5479L35.3628 47.3933L36.1616 45.0877L36.9604 44.3226L37.7592 43.0348L38.558 39.9708L39.3569 39.0313L40.1557 37.4553L40.9545 40.4024L41.7533 40.0452L42.5521 35.5352L43.3509 32.7861L44.1498 27.9572L44.9486 30.5943L45.7474 27.5731L46.5462 18.201L47.345 18.894L48.1438 24.3312L48.9427 22.8654L49.7415 24.3783L50.5403 22.8896L51.3391 20.5668L52.1379 24.3345L52.9367 21.5946L53.7356 21.1766L54.5344 23.0904L55.3332 23.6473L56.132 18.2443L56.9308 17.6911L57.7296 16.0345L58.5285 15.3068L59.3273 14.1565L60.1261 11.3865L60.9249 11.3594L61.7237 13.6171L62.5225 10.6552L63.3214 7.97129L64.1202 8.14541L64.919 0.547852L65.7178 5.76331L66.5166 2.80667L67.3154 4.65919L68.1143 5.73417L68.9131 7.04602L69.7119 5.54003L70.5107 5.22328L71.3095 3.62296L72.1083 2.65815L72.9072 0.909561L73.706 0.561324L74.5048 2.61853L75.3036 7.13893L76.1024 8.15541L76.9012 11.9559L77.7001 16.4979L78.4989 18.9304L79.2977 19.6927L80.0965 17.9927L80.8953 15.0753L81.6941 17.4549L82.493 19.6779L83.2918 17.6836L84.0906 15.2717L84.8894 18.3642L85.6882 20.4081L86.487 18.7429L87.2859 17.8704L88.0847 18.1442L88.8835 19.3724L89.6823 19.0729L90.4811 20.0929L91.2799 19.4067L92.0788 20.7344L92.8776 20.4651L93.6764 21.408L94.4752 22.1931L95.274 22.841L96.0728 23.6181L96.8717 26.8947L97.6705 29.1024L98.4693 28.3492L99.2681 28.1013L100.067 28.8906L100.866 28.0314L101.665 32.3822L102.463 28.6266L103.262 30.0511L104.061 25.3112L104.86 24.4254L105.659 22.6933L106.457 23.5282L107.256 19.6035L108.055 22.1827L108.854 19.8645L109.653 23.2687L110.452 23.6187L111.25 25.146L112.049 31.7557L112.848 35.3294L113.647 29.6361L114.446 31.1573L115.244 27.3085L116.043 30.4331L116.842 25.1423L117.641 24.7692L118.44 33.441L119.239 35.8963L120.037 33.3927L120.836 31.2046L121.635 33.6119L122.434 34.6686L123.233 38.1557L124.031 34.817L124.83 35.2502L125.629 35.8069L126.428 37.796L127.227 34.8549L128.025 36.1791L128.824 40.0441L129.623 42.1498L130.422 38.1861L131.221 38.1999L132.02 35.7918L132.818 32.6432L133.617 30.999L134.416 28.5204" stroke="#32CA5B" stroke-width="1.25"/>
</g>
<defs>
<clipPath id="clip0_2_380">
<rect width="135" height="50" fill="white" transform="translate(0.214844 0.547852)"/>
</clipPath>
</defs>
</svg>
