<svg width="13" height="19" viewBox="0 0 13 19" fill="none" xmlns="http://www.w3.org/2000/svg">
<g clip-path="url(#clip0_15_15251)">
<path d="M7.64992 10.3485C7.54316 11.1457 6.81009 11.7008 6.01297 11.5869C5.21584 11.4731 4.6607 10.7471 4.77458 9.94998C4.88845 9.15285 5.61441 8.59771 6.41153 8.71159C6.41153 8.71159 6.41153 8.71159 6.41865 8.71159C7.20866 8.82546 7.7638 9.55853 7.64992 10.3485Z" fill="#FDC113"/>
<path d="M5.00965 10.7399C4.68226 10.078 4.95271 9.26661 5.62173 8.93922C5.80678 8.84669 6.00606 8.80399 6.21245 8.80399C6.27651 8.80399 6.34056 8.81111 6.40462 8.81822C7.13769 8.92498 7.65013 9.60112 7.54337 10.3342C7.45085 10.9818 6.90994 11.4658 6.25516 11.4872H6.18399C6.15552 11.4872 6.12705 11.4872 6.1057 11.4872C6.07011 11.4872 6.03453 11.4801 5.99894 11.4801L5.94912 11.4729C5.89218 11.4587 5.83524 11.4445 5.77831 11.4302L5.72849 11.4089C5.45092 11.3021 5.22317 11.1028 5.06659 10.8466C5.05947 10.8324 5.04524 10.811 5.03812 10.8039C5.031 10.7826 5.01677 10.7612 5.00965 10.7399ZM6.21245 8.69723C5.49362 8.69723 4.88866 9.2239 4.7819 9.92851C4.7819 9.93562 4.7819 9.93562 4.7819 9.94274V9.95697C4.68226 10.7185 5.1947 11.4302 5.95624 11.5726L6.01317 11.5797C6.04164 11.5868 6.07011 11.5868 6.09858 11.5868C6.14128 11.5939 6.18399 11.5939 6.21957 11.5939C6.8957 11.5939 7.48643 11.1242 7.63589 10.4623C7.64301 10.4267 7.65013 10.384 7.65724 10.3484C7.66436 10.2986 7.67148 10.2417 7.67148 10.1918C7.69283 9.48724 7.21598 8.87516 6.52561 8.7257C6.49002 8.71858 6.46156 8.71147 6.42597 8.71147C6.39038 8.70435 6.3548 8.70435 6.32633 8.69723C6.29074 8.69012 6.24804 8.69012 6.21245 8.69723Z" fill="#FDD803"/>
<path d="M6.17596 9.01758C6.12614 9.20263 6.96597 9.47308 7.00867 9.22398C7.05849 8.982 6.26137 8.69019 6.17596 9.01758Z" fill="white"/>
<path d="M11.7912 8.70455C12.1043 9.44474 11.7698 10.2917 11.0296 10.612C10.2894 10.9251 9.44248 10.5906 9.12221 9.85042C8.80194 9.11023 9.14356 8.26328 9.88375 7.94301C10.6168 7.62274 11.4709 7.96436 11.7912 8.70455Z" fill="#E82264"/>
<path d="M9.73502 10.4057C9.10871 10.0071 8.92366 9.1815 9.32223 8.55518C9.72079 7.92887 10.5464 7.74383 11.1727 8.14239C11.799 8.54095 11.9841 9.36654 11.5855 9.99286C11.4859 10.1566 11.3435 10.2918 11.1869 10.3985C11.1442 10.427 11.1015 10.4555 11.0588 10.4768C11.0304 10.4911 10.9948 10.5053 10.9592 10.5195L10.9165 10.5338C10.8595 10.5551 10.8026 10.5693 10.7457 10.5836L10.6958 10.5907C10.6247 10.6049 10.5464 10.6121 10.4681 10.6121C10.2475 10.6121 10.0339 10.5622 9.83466 10.4555C9.81331 10.4484 9.79908 10.4341 9.78484 10.427L9.73502 10.4057ZM10.4539 7.82923C9.64962 7.82923 9.00195 8.4769 9.00195 9.28114C9.00195 10.0854 9.64962 10.733 10.4539 10.733C10.6247 10.733 10.7884 10.7046 10.9449 10.6476C10.9734 10.6405 10.9948 10.6263 11.0232 10.6192L11.0802 10.5978C11.678 10.3131 12.0054 9.65835 11.8773 9.01068C11.8559 8.91104 11.8275 8.8114 11.7848 8.71888C11.7634 8.66906 11.7421 8.61924 11.7136 8.56942C11.4645 8.1068 10.9805 7.82211 10.4539 7.82923Z" fill="#EF4A67"/>
<path d="M9.8412 8.33427C9.89102 8.51932 10.7522 8.32003 10.6668 8.07805C10.5743 7.84318 9.74868 8.00688 9.8412 8.33427Z" fill="white"/>
<path d="M5.23011 9.94283C4.99524 10.7115 4.191 11.1456 3.42234 10.9108C2.65369 10.6759 2.21954 9.87166 2.4544 9.10301C2.68927 8.33435 3.49351 7.9002 4.26217 8.13507C5.03083 8.36282 5.46498 9.17418 5.23011 9.94283Z" fill="#8CC34A"/>
<path d="M2.56153 9.92127C2.3409 9.21667 2.73235 8.46225 3.43695 8.24161C4.14155 8.02098 4.89597 8.41243 5.1166 9.11703C5.33724 9.82163 4.94579 10.5761 4.24119 10.7967C4.11308 10.8394 3.97785 10.8607 3.84263 10.8607C3.78569 10.8607 3.72875 10.8536 3.67181 10.8465C3.62199 10.8394 3.57217 10.8323 3.52235 10.8252C3.48677 10.818 3.45118 10.8109 3.42271 10.7967L3.38001 10.7824C3.32307 10.7611 3.27325 10.7397 3.21631 10.7113L3.16649 10.6828C2.91028 10.5333 2.71099 10.3056 2.59712 10.028C2.59 10.0067 2.58289 9.99244 2.57577 9.97821C2.57577 9.97109 2.56865 9.94262 2.56153 9.92127ZM3.84263 8.0708C3.22343 8.0708 2.66829 8.46936 2.46901 9.05297C2.46189 9.06721 2.46189 9.08144 2.45478 9.09568L2.44766 9.11703C2.24126 9.82875 2.61135 10.5832 3.2946 10.8607C3.33731 10.875 3.38001 10.8892 3.42271 10.9034C3.45118 10.9106 3.47253 10.9177 3.501 10.9248C4.28389 11.1098 5.06678 10.633 5.25183 9.8501C5.41553 9.18108 5.08102 8.4836 4.45471 8.19179C4.39777 8.16332 4.33371 8.14197 4.26966 8.12062C4.22696 8.10639 4.17713 8.09927 4.13443 8.08503C4.03479 8.07792 3.94227 8.0708 3.84263 8.0708Z" fill="#B9D64F"/>
<path d="M3.9781 8.4055C3.89982 8.58343 4.68982 8.98199 4.77523 8.74001C4.86064 8.49802 4.12045 8.09234 3.9781 8.4055Z" fill="white"/>
<path d="M2.72497 10.1065C2.13425 10.6545 1.21613 10.6189 0.675224 10.0282C0.134318 9.43747 0.162787 8.51935 0.753513 7.97845C1.34424 7.43754 2.26236 7.46601 2.80326 8.05674C3.35129 8.64035 3.3157 9.55846 2.72497 10.1065Z" fill="#39A4DD"/>
<path d="M0.41843 8.80395C0.546539 8.07088 1.24402 7.58691 1.97709 7.71502C2.71016 7.84313 3.19413 8.54062 3.06602 9.27369C2.93791 10.0068 2.24043 10.4907 1.50736 10.3626C1.29384 10.327 1.09456 10.2345 0.92375 10.1064C0.881047 10.0779 0.845461 10.0495 0.809875 10.0139C0.781406 9.99252 0.760055 9.96406 0.738703 9.93559L0.710234 9.9C0.674648 9.8573 0.639063 9.80748 0.610594 9.75766L0.567891 9.71495C0.425547 9.45873 0.368609 9.1527 0.404195 8.86089C0.411312 8.83954 0.411313 8.81819 0.41843 8.80395ZM1.73511 7.58691C0.937984 7.58691 0.283203 8.2417 0.283203 9.03882C0.283203 9.31639 0.361492 9.57973 0.510953 9.81459C0.603477 9.95694 0.717352 10.085 0.852578 10.1918C1.48601 10.6829 2.39701 10.5619 2.88809 9.92135C3.37918 9.28792 3.25819 8.37692 2.61764 7.88584C2.36854 7.69367 2.05538 7.59403 1.73511 7.58691Z" fill="#2CC4EE"/>
<path d="M2.41777 8.14936C2.26119 8.26323 2.73804 9.00342 2.9302 8.83973C3.12237 8.66891 2.69534 7.95008 2.41777 8.14936Z" fill="white"/>
<path d="M9.53719 8.89655C10.135 9.43034 10.192 10.3413 9.6653 10.9463C9.13151 11.5441 8.22051 11.6011 7.61555 11.0744C7.01771 10.5477 6.96077 9.62962 7.48744 9.02466C8.02123 8.4197 8.93223 8.36277 9.53719 8.89655Z" fill="#904098"/>
<path d="M8.41182 11.3165C7.67875 11.224 7.15207 10.555 7.2446 9.8219C7.33712 9.08883 8.00614 8.56216 8.73921 8.65468C9.47228 8.74721 9.99895 9.41622 9.90643 10.1493C9.88507 10.3415 9.82102 10.5194 9.72138 10.6831C9.69291 10.7258 9.66444 10.7685 9.63597 10.8112C9.61462 10.8397 9.59327 10.8681 9.57192 10.8966L9.53633 10.9322C9.49363 10.9749 9.45093 11.0105 9.40111 11.0461L9.3584 11.0745C9.13065 11.2311 8.86732 11.3165 8.58975 11.3236C8.56839 11.3236 8.54704 11.3236 8.52569 11.3236C8.50434 11.3236 8.49011 11.3236 8.46875 11.3236L8.41182 11.3165ZM8.57551 8.53369C8.17695 8.53369 7.79974 8.69739 7.52929 8.98207L7.48658 9.02478C7.46523 9.04613 7.451 9.06748 7.43676 9.08883C6.98838 9.65821 7.03108 10.4767 7.5364 10.9962C7.55775 11.0247 7.58622 11.0461 7.61469 11.0674C7.64316 11.0888 7.65739 11.103 7.67875 11.1172C8.31218 11.6154 9.22318 11.5016 9.71426 10.8752C10.2125 10.2418 10.0986 9.33082 9.47228 8.83973C9.21606 8.64045 8.89579 8.53369 8.57551 8.53369Z" fill="#BC5BA3"/>
<path d="M7.6147 9.39488C7.74281 9.53723 8.43317 8.9892 8.24813 8.81127C8.06308 8.64046 7.38695 9.13866 7.6147 9.39488Z" fill="white"/>
<path d="M3.08767 12.1915C2.7247 12.9033 1.84928 13.188 1.13045 12.825C0.411611 12.462 0.134041 11.5866 0.497018 10.8678C0.859994 10.1489 1.73541 9.87135 2.45424 10.2343C3.17308 10.6044 3.45777 11.4798 3.08767 12.1915Z" fill="#FDC113"/>
<path d="M0.475912 11.7644C0.347802 11.0313 0.838888 10.3409 1.56484 10.2128C2.29079 10.0847 2.98828 10.5758 3.11639 11.3017C3.2445 12.0348 2.75341 12.7252 2.02746 12.8533C1.81394 12.8889 1.60043 12.8746 1.39403 12.8106C1.34421 12.7963 1.29439 12.7821 1.25169 12.7608C1.2161 12.7465 1.18763 12.7323 1.15204 12.7181L1.10934 12.6967C1.05952 12.6682 1.0097 12.6327 0.95988 12.5971L0.917177 12.5615C0.689427 12.3693 0.532849 12.106 0.475912 11.8142C0.475912 11.7928 0.475912 11.7786 0.475912 11.7644ZM1.30151 10.1701C0.95988 10.2911 0.675193 10.5473 0.50438 10.8676C0.490146 10.9032 0.468795 10.9316 0.45456 10.9672C0.17699 11.6291 0.426091 12.4049 1.04529 12.775C1.07376 12.7892 1.10222 12.8106 1.13069 12.8177C1.15916 12.8319 1.18763 12.8462 1.20898 12.8533C1.87088 13.1451 2.64665 12.9031 3.02387 12.291C3.04522 12.2554 3.05945 12.227 3.0808 12.1914C3.10927 12.1344 3.13774 12.0775 3.15909 12.0206C3.42954 11.2661 3.0381 10.4334 2.28368 10.163C1.97052 10.0491 1.62178 10.0562 1.30151 10.1701Z" fill="#FDD803"/>
<path d="M2.12621 10.4549C2.01945 10.6115 2.72405 11.1453 2.84504 10.9246C2.96603 10.704 2.31837 10.1773 2.12621 10.4549Z" fill="white"/>
<path d="M5.18787 12.498C4.59714 13.046 3.67902 13.0104 3.13811 12.4197C2.59721 11.8289 2.62568 10.9108 3.2164 10.3699C3.80713 9.82189 4.71813 9.85747 5.26615 10.4482C5.80706 11.0389 5.77147 11.957 5.18787 12.498Z" fill="#F06492"/>
<path d="M2.87542 11.2024C3.00353 10.4693 3.70102 9.98535 4.43409 10.1135C5.16716 10.2416 5.65113 10.9391 5.52302 11.6721C5.39491 12.4052 4.69742 12.8892 3.96435 12.7611C3.75084 12.7255 3.55867 12.6401 3.38786 12.5048C3.34516 12.4764 3.30245 12.4408 3.26687 12.4052C3.2384 12.3838 3.21705 12.3554 3.1957 12.3269L3.16723 12.2913C3.13164 12.2486 3.09606 12.1988 3.06759 12.149L3.03912 12.1063C2.89677 11.8501 2.83984 11.544 2.87542 11.2522C2.87542 11.2309 2.88254 11.2166 2.87542 11.2024ZM4.20634 9.98535H4.17075C3.36651 10.0067 2.73308 10.6686 2.75443 11.4728C2.75443 11.5084 2.75443 11.5511 2.76155 11.5867C2.7829 11.7931 2.84695 11.9924 2.95371 12.1774C3.00353 12.2629 3.06759 12.3483 3.13164 12.4194C3.15299 12.4479 3.18146 12.4692 3.20281 12.4906C3.78642 13.0386 4.70454 13.0102 5.25256 12.4265C5.80059 11.8429 5.77212 10.9248 5.18851 10.3768C4.91806 10.1277 4.5622 9.98535 4.1921 9.98535" fill="#F59395"/>
<path d="M4.88259 10.5407C4.72601 10.6546 5.20287 11.3948 5.40215 11.2311C5.60143 11.0674 5.15305 10.3414 4.88259 10.5407Z" fill="white"/>
<path d="M6.66797 10.1987C6.66797 10.2058 6.67509 10.213 6.67509 10.2272C6.67509 10.2201 6.67509 10.213 6.66797 10.1987Z" fill="#FFD10D"/>
<path d="M7.55003 12.2062C7.4148 12.9962 6.66749 13.53 5.87749 13.3948C5.08748 13.2595 4.55369 12.5122 4.68892 11.7222C4.82414 10.9322 5.57145 10.3984 6.36146 10.5336C7.15146 10.6618 7.67813 11.4162 7.55003 12.2062Z" fill="#39A4DD"/>
<path d="M4.89435 12.5193C4.5812 11.8432 4.88012 11.0461 5.54913 10.74C5.72706 10.6617 5.91923 10.619 6.11139 10.619C6.18968 10.619 6.26085 10.6261 6.33914 10.6404C7.07221 10.7614 7.57042 11.4446 7.44942 12.1777C7.34267 12.8325 6.78041 13.3093 6.11851 13.3093H6.07581C6.04022 13.3093 5.99752 13.3093 5.96193 13.3022C5.92635 13.3022 5.89076 13.2951 5.85517 13.288L5.80535 13.2809C5.74842 13.2666 5.69148 13.2524 5.63454 13.231L5.58472 13.2097C5.31427 13.0958 5.08652 12.8894 4.93706 12.6332C4.92994 12.619 4.9157 12.5976 4.90859 12.5834C4.9157 12.5691 4.90859 12.5407 4.89435 12.5193ZM6.11139 10.5123C6.07581 10.5123 6.0331 10.5123 5.99752 10.5194C5.20039 10.5834 4.60255 11.288 4.67372 12.0852C4.73777 12.8396 5.36409 13.4161 6.11851 13.4161C6.16833 13.4161 6.21103 13.4161 6.25374 13.409C7.05086 13.3307 7.64159 12.6261 7.5633 11.829C7.49213 11.0745 6.86581 10.5052 6.11139 10.5123Z" fill="#2CC4EE"/>
<path d="M6.11217 10.8395C6.05523 11.0246 6.88794 11.3164 6.94488 11.0744C6.9947 10.8253 6.20469 10.5121 6.11217 10.8395Z" fill="white"/>
<path d="M11.1872 10.918C10.7673 11.1955 10.2193 11.2098 9.78516 10.9536C9.79939 10.9607 9.81362 10.9749 9.83498 10.982C10.0271 11.0817 10.2478 11.1386 10.4684 11.1386C10.5467 11.1386 10.6179 11.1315 10.6962 11.1173L10.746 11.1101C10.8029 11.0959 10.8599 11.0817 10.9168 11.0603L10.9595 11.0461C10.9951 11.0318 11.0235 11.0176 11.0591 11.0034C11.1018 10.9749 11.1445 10.9536 11.1872 10.918Z" fill="#F26B48"/>
<path d="M5.16032 14.3199C4.79023 15.0317 3.91482 15.3092 3.2031 14.9391C2.49138 14.569 2.21381 13.6936 2.5839 12.9819C2.954 12.2702 3.82941 11.9926 4.54113 12.3627C5.25285 12.7328 5.53042 13.6082 5.16032 14.3199Z" fill="#904098"/>
<path d="M2.54161 13.8077C2.4562 13.0746 2.98288 12.4056 3.71595 12.3131C4.44902 12.2277 5.11803 12.7544 5.21055 13.4874C5.29596 14.2205 4.76929 14.8895 4.03622 14.982C3.84405 15.0034 3.65189 14.9892 3.46684 14.9251C3.41702 14.9109 3.37432 14.8966 3.3245 14.8753C3.28891 14.861 3.26045 14.8468 3.22486 14.8326L3.18216 14.8112C3.13234 14.7828 3.08252 14.7472 3.03981 14.7116L2.99711 14.676C2.77648 14.4838 2.6199 14.2205 2.56296 13.9287C2.55584 13.9073 2.55584 13.8931 2.55584 13.8718C2.55584 13.8575 2.54873 13.8291 2.54161 13.8077ZM3.87964 12.1992C3.0754 12.1992 2.42773 12.8469 2.42773 13.6511C2.42773 14.3344 2.9117 14.9322 3.58072 15.0674C3.68036 15.0888 3.78 15.0959 3.87252 15.0959C4.35649 15.0959 4.81199 14.8539 5.08245 14.4483C5.11091 14.4055 5.13227 14.3628 5.16073 14.3201C5.18209 14.2846 5.19632 14.2419 5.21767 14.2063C5.52371 13.4661 5.16785 12.6191 4.42766 12.3131C4.25685 12.2419 4.06469 12.1992 3.87964 12.1992Z" fill="#BC5BA3"/>
<path d="M4.21419 12.5762C4.10744 12.7328 4.80492 13.2737 4.93303 13.0531C5.06114 12.8324 4.40636 12.2987 4.21419 12.5762Z" fill="white"/>
<path d="M6.27734 14.3481C6.27734 14.3553 6.28446 14.3695 6.28446 14.3766C6.28446 14.3695 6.27734 14.3624 6.27734 14.3481Z" fill="#EF8272"/>
<path d="M7.28078 14.4052C7.19537 15.2023 6.47654 15.7788 5.67941 15.6934C4.88229 15.608 4.30579 14.8891 4.3912 14.092C4.47661 13.2949 5.19544 12.7184 5.99257 12.8038C6.78969 12.8892 7.36618 13.608 7.28078 14.4052Z" fill="#F06492"/>
<path d="M4.68379 14.9391C4.30658 14.3057 4.51298 13.4801 5.14641 13.0958C5.35281 12.9748 5.58767 12.9036 5.82966 12.9036C5.87948 12.9036 5.9293 12.9036 5.97912 12.9107C6.7193 12.989 7.24598 13.6581 7.16769 14.3911C7.09652 15.0388 6.56984 15.5441 5.91506 15.5868C5.87948 15.5939 5.84389 15.5939 5.80119 15.5939H5.75848C5.7229 15.5939 5.68731 15.5939 5.65173 15.5868L5.60191 15.5797C5.54497 15.5726 5.48803 15.5583 5.43109 15.537L5.38127 15.5228C5.1037 15.4231 4.86172 15.231 4.70514 14.9819L4.68379 14.9391ZM5.83677 12.7969C5.7656 12.7969 5.69443 12.804 5.62326 12.8111C5.28163 12.8609 4.96848 13.0389 4.74073 13.3022C4.22117 13.9072 4.28523 14.8253 4.89731 15.3519C5.11794 15.5441 5.39551 15.6651 5.68731 15.6936C5.74425 15.7007 5.79407 15.7007 5.85101 15.7007H5.92218C6.72642 15.658 7.3385 14.9747 7.2958 14.1776C7.26021 13.5157 6.78336 12.9606 6.1357 12.8325C6.09299 12.8253 6.05029 12.8182 6.00759 12.8111C5.94353 12.7969 5.88659 12.7969 5.83677 12.7969Z" fill="#F59395"/>
<path d="M5.76523 13.1241C5.72253 13.3091 6.56948 13.5582 6.60506 13.3091C6.64065 13.06 5.84352 12.7967 5.76523 13.1241Z" fill="white"/>
<path d="M5.86342 16.4477C5.78513 17.2448 5.07341 17.8284 4.27628 17.7501C3.47916 17.6718 2.89555 16.9601 2.97384 16.163C3.05213 15.3659 3.76385 14.7823 4.56097 14.8606C5.36521 14.9388 5.9417 15.6506 5.86342 16.4477Z" fill="#E82264"/>
<path d="M3.27284 16.9958C2.88851 16.3624 3.09491 15.5368 3.72834 15.1524C3.93473 15.0243 4.17672 14.9603 4.4187 14.9603C4.46852 14.9603 4.51123 14.9603 4.55393 14.9674C5.29412 15.0457 5.82791 15.7005 5.74962 16.4406C5.68556 17.0883 5.15889 17.5936 4.51123 17.6435C4.46852 17.6506 4.42582 17.6506 4.39023 17.6506H4.36177C4.32618 17.6506 4.29059 17.6506 4.25501 17.6435L4.20519 17.6363C4.14825 17.6292 4.09131 17.615 4.03437 17.6008L3.98455 17.5794C3.70698 17.4798 3.465 17.2947 3.3013 17.0456C3.28707 17.0314 3.27995 17.01 3.27284 16.9958ZM4.4187 14.8535C3.61446 14.8535 2.9668 15.5012 2.9668 16.3054C2.9668 17.1097 3.61446 17.7573 4.4187 17.7573C5.11619 17.7573 5.72115 17.2591 5.84214 16.5688C5.84926 16.5332 5.85638 16.4905 5.85638 16.4549C5.86349 16.4122 5.86349 16.3908 5.86349 16.3552C5.88484 15.551 5.25141 14.882 4.44717 14.8606C4.44005 14.8535 4.43294 14.8535 4.4187 14.8535Z" fill="#EF4A67"/>
<path d="M4.33945 15.1811C4.29675 15.3662 5.14369 15.6082 5.17928 15.3591C5.21487 15.11 4.41062 14.8537 4.33945 15.1811Z" fill="white"/>
<path d="M3.28041 14.0991C2.97437 14.8393 2.12031 15.188 1.38012 14.882C0.639934 14.5759 0.291192 13.7219 0.597231 12.9817C0.90327 12.2415 1.75733 11.8928 2.49752 12.1988C3.23771 12.5048 3.58645 13.3589 3.28041 14.0991Z" fill="#E82264"/>
<path d="M0.639407 13.8782C0.45436 13.1594 0.888509 12.4263 1.60734 12.2413C2.32618 12.0562 3.05925 12.4904 3.2443 13.2092C3.42934 13.928 2.9952 14.6611 2.27636 14.8461C2.06996 14.896 1.85645 14.9031 1.64293 14.8533C1.59311 14.8461 1.54329 14.8319 1.49347 14.8177C1.45788 14.8106 1.42942 14.7963 1.39383 14.7821L1.35113 14.7607C1.30131 14.7323 1.24437 14.7038 1.20167 14.6753L1.15896 14.6469C0.924095 14.4689 0.746165 14.2198 0.660759 13.9423C0.646524 13.9067 0.646524 13.8924 0.639407 13.8782ZM1.94185 12.0918C1.37248 12.0918 0.86004 12.4263 0.618056 12.9387C0.610938 12.953 0.603821 12.9672 0.596704 12.9814C0.589587 12.9957 0.589587 13.0028 0.58247 13.017C0.297782 13.7501 0.653642 14.5757 1.37959 14.8746C1.51482 14.9316 1.65716 14.9671 1.80663 14.9814C1.84933 14.9885 1.89203 14.9885 1.94185 14.9885C2.43294 14.9885 2.88844 14.7394 3.15889 14.3337C3.25142 14.1985 3.31547 14.0419 3.35106 13.8853C3.52187 13.195 3.15889 12.4832 2.50411 12.2057H2.49699L2.48988 12.1986C2.31906 12.1274 2.13402 12.0918 1.94185 12.0918Z" fill="#EF4A67"/>
<path d="M1.84141 12.5473C1.7987 12.7324 2.64565 12.9744 2.68123 12.7253C2.71682 12.4762 1.91258 12.22 1.84141 12.5473Z" fill="white"/>
<path d="M2.47656 15.0459C2.48368 15.053 2.4908 15.0601 2.49791 15.0601C2.4908 15.053 2.48368 15.053 2.47656 15.0459Z" fill="#92C83E"/>
<path d="M9.64242 11.3663C9.8844 12.1279 9.46449 12.9463 8.70295 13.1883C7.94141 13.4303 7.12293 13.0104 6.88095 12.2488C6.63896 11.4873 7.05888 10.6688 7.82042 10.4268C8.57484 10.1849 9.39332 10.6048 9.64242 11.3663Z" fill="#8CC34A"/>
<path d="M7.48668 12.9034C6.88172 12.4764 6.73937 11.6366 7.16641 11.0316C7.59344 10.4266 8.43327 10.2843 9.03823 10.7113C9.64319 11.1384 9.78553 11.9782 9.3585 12.5831C9.23751 12.754 9.07381 12.8963 8.88165 12.9959C8.83895 13.0244 8.78913 13.0458 8.74642 13.06C8.71084 13.0742 8.68237 13.0885 8.64678 13.0956L8.60408 13.1098C8.54714 13.1241 8.4902 13.1383 8.43327 13.1383L8.38345 13.1454C8.35498 13.1454 8.31939 13.1525 8.29092 13.1525C8.02759 13.1525 7.77137 13.0742 7.54362 12.9319C7.50803 12.9248 7.4938 12.9177 7.48668 12.9034ZM8.26245 10.3555C7.45821 10.3555 6.81055 11.0031 6.81055 11.8074C6.81055 12.6116 7.45821 13.2593 8.26245 13.2593C8.38345 13.2593 8.50444 13.245 8.61831 13.2166L8.6966 13.1952C8.71795 13.1881 8.7393 13.181 8.76066 13.1739C9.51508 12.8963 9.89229 12.0565 9.61472 11.3092C9.40832 10.7327 8.8603 10.3555 8.26245 10.3555Z" fill="#B9D64F"/>
<path d="M8.44121 12.014C8.49103 12.014 8.54085 12.0068 8.59067 11.9926C8.67608 11.9713 8.75437 11.9357 8.82554 11.893C8.90383 11.8503 8.975 11.8004 9.03906 11.7435C9.11023 11.6866 9.16717 11.6296 9.21699 11.5585H9.2241C9.17428 11.6367 9.11735 11.7008 9.05329 11.7577C8.98924 11.8147 8.91806 11.8716 8.83977 11.9214C8.76149 11.9713 8.6832 12.0068 8.59779 12.0282C8.56221 12.0353 8.53374 12.0424 8.49815 12.0424C8.44121 12.0424 8.38428 12.0282 8.33445 11.9997V11.9926C8.37004 12.0068 8.40563 12.014 8.44121 12.014ZM8.93942 11.5727C8.91806 11.5727 8.8896 11.5585 8.8896 11.5371C8.88248 11.5086 8.89671 11.473 8.92518 11.4659C8.9323 11.4659 8.93942 11.4659 8.93942 11.4659C8.96077 11.4659 8.98212 11.4802 8.98924 11.5015C8.99635 11.53 8.98212 11.5656 8.95365 11.5727H8.93942ZM7.9786 11.8147C7.83625 11.8147 7.72238 11.7008 7.72238 11.5513C7.72238 11.4375 7.79355 11.3378 7.90031 11.3022C7.92878 11.2951 7.95013 11.288 7.9786 11.288C8.12094 11.288 8.23481 11.4019 8.23481 11.5513C8.23481 11.6652 8.16364 11.7649 8.05688 11.8004C8.02842 11.8076 8.00706 11.8147 7.9786 11.8147ZM8.20635 11.1172C8.15653 11.1172 8.1067 11.1172 8.04977 11.1243C7.92878 11.1314 7.8149 11.1599 7.70814 11.2168C7.28111 11.4873 7.27399 11.7435 7.33805 12.0211C7.40922 12.3342 7.46616 12.5691 7.43057 12.868L7.46616 12.8965L7.48039 12.9107C7.82202 13.1527 8.26328 13.2239 8.66185 13.0958C8.73302 13.0744 8.80419 13.0459 8.87536 13.0104C8.70455 12.6545 8.91806 12.1848 9.04617 11.9357C9.07464 11.8787 9.11735 11.8076 9.16005 11.7293C9.33086 11.4375 9.30239 11.1599 8.81842 11.1599H8.73302C8.64049 11.1599 8.54797 11.1528 8.44833 11.1457C8.36292 11.1243 8.28463 11.1172 8.20635 11.1172Z" fill="#92C83E"/>
<path d="M7.73588 10.8179C7.77146 11.0101 8.64688 10.8891 8.58282 10.6471C8.51877 10.4052 7.67182 10.4834 7.73588 10.8179Z" fill="white"/>
<path d="M8.94617 11.4658C8.93905 11.4658 8.93193 11.4658 8.93193 11.4658C8.90346 11.4729 8.88923 11.5085 8.89634 11.537C8.90346 11.5583 8.92481 11.5797 8.94617 11.5726H8.9604C8.98887 11.5655 9.0031 11.5299 8.99599 11.5014C8.98887 11.4801 8.96752 11.4658 8.94617 11.4658Z" fill="#C0DA72"/>
<path d="M8.27658 11.0531C8.19829 11.0602 8.12 11.0816 8.04883 11.1243C8.09865 11.1171 8.14847 11.1171 8.20541 11.1171C8.2837 11.1171 8.3691 11.1243 8.44739 11.1385C8.44027 11.1314 8.43316 11.1243 8.43316 11.1171C8.4118 11.0958 8.38334 11.0816 8.34775 11.0673C8.3264 11.0531 8.29793 11.046 8.27658 11.0531Z" fill="#68BD45"/>
<path d="M7.97758 11.736C7.87794 11.736 7.79253 11.6506 7.79253 11.5509C7.79253 11.4726 7.84236 11.4015 7.92064 11.3801C7.93488 11.373 7.95623 11.373 7.97758 11.373C8.07722 11.373 8.16263 11.4584 8.16263 11.558C8.16263 11.6363 8.11281 11.7075 8.03452 11.7289C8.01317 11.736 7.99893 11.736 7.97758 11.736ZM7.97758 11.2876C7.94911 11.2876 7.92776 11.2947 7.89929 11.3018C7.76407 11.3445 7.68578 11.494 7.72848 11.6292C7.76407 11.736 7.86371 11.8072 7.97758 11.8072C8.00605 11.8072 8.0274 11.8 8.05587 11.7929C8.1911 11.7502 8.26939 11.6008 8.22668 11.4655C8.1911 11.3659 8.09146 11.2876 7.97758 11.2876Z" fill="#C0DA72"/>
<path d="M7.97826 11.373C7.95691 11.373 7.94268 11.373 7.92133 11.3802C7.8288 11.4086 7.77187 11.5154 7.80034 11.6079C7.82169 11.6862 7.89286 11.736 7.97115 11.736C7.9925 11.736 8.00673 11.736 8.02809 11.7289C8.12061 11.7004 8.17755 11.5937 8.14908 11.5012C8.12773 11.4229 8.05655 11.373 7.97826 11.373Z" fill="#92C83E"/>
<path d="M9.22238 11.5581C9.17256 11.6293 9.1085 11.6933 9.04445 11.7432C8.98039 11.8001 8.90922 11.8499 8.83093 11.8926C8.75264 11.9353 8.67435 11.9638 8.59606 11.9923C8.54624 12.0065 8.49642 12.0136 8.4466 12.0136C8.41102 12.0136 8.37543 12.0065 8.33984 11.9994V12.0065C8.38966 12.035 8.4466 12.0492 8.50354 12.0492C8.53913 12.0492 8.57471 12.0421 8.60318 12.035C8.68859 12.0136 8.77399 11.978 8.84516 11.9282C8.92345 11.8784 8.99463 11.8286 9.05868 11.7645C9.12273 11.7076 9.17967 11.6364 9.22949 11.5652L9.22238 11.5581Z" fill="#7DC242"/>
<path d="M8.36133 9.82178L8.3898 9.82889C8.38268 9.82889 8.36845 9.82178 8.36133 9.82178Z" fill="#A04895"/>
<path d="M9.04445 12.7755C9.64941 13.3021 9.70635 14.2203 9.17256 14.8252C8.64589 15.4302 7.72777 15.4871 7.12281 14.9533C6.51785 14.4266 6.46091 13.5085 6.9947 12.9036C7.52849 12.2986 8.44661 12.2417 9.04445 12.7755Z" fill="#904098"/>
<path d="M7.98478 15.2025C7.24459 15.1456 6.69657 14.4979 6.75351 13.7649C6.81044 13.0247 7.45811 12.4767 8.19118 12.5336C8.93137 12.5905 9.47939 13.2382 9.42245 13.9713C9.40822 14.1848 9.33705 14.3912 9.22317 14.5762C9.20182 14.6189 9.17335 14.6616 9.13776 14.6972C9.11641 14.7257 9.09506 14.7542 9.06659 14.7826L9.03101 14.8182C8.9883 14.8609 8.9456 14.9036 8.89578 14.9321L8.85308 14.9606C8.62533 15.1171 8.36199 15.2025 8.08442 15.2097C8.06307 15.2097 8.04172 15.2097 8.02037 15.2097C8.01325 15.2025 7.9919 15.2025 7.98478 15.2025ZM8.08442 12.4126C7.47946 12.4126 6.93855 12.7898 6.72504 13.3592C6.44747 14.1136 6.8318 14.9463 7.5791 15.2239C8.11289 15.4232 8.71073 15.2879 9.11641 14.8894C9.13776 14.868 9.152 14.8467 9.17335 14.8324L9.20182 14.7969C9.69291 14.2132 9.64308 13.345 9.09506 12.8183C9.08083 12.804 9.06659 12.7898 9.05236 12.7756L9.00965 12.74C8.74632 12.5265 8.42605 12.4126 8.08442 12.4126Z" fill="#BC5BA3"/>
<path d="M7.1219 13.2738C7.25001 13.4161 7.94038 12.8681 7.75533 12.6902C7.5774 12.5194 6.90127 13.0176 7.1219 13.2738Z" fill="white"/>
<path d="M8.59766 15.4229L8.61901 15.4371C8.61189 15.43 8.60477 15.4229 8.59766 15.4229Z" fill="#FFD10D"/>
<path d="M9.4872 15.1455C10.0352 15.7291 9.99964 16.6472 9.41603 17.1952C8.83242 17.7432 7.91431 17.7076 7.36628 17.124C6.81826 16.5404 6.85385 15.6223 7.43745 15.0743C8.02106 14.5263 8.93918 14.5619 9.4872 15.1455Z" fill="#FDC113"/>
<path d="M8.1922 17.4585C7.45913 17.3304 6.97516 16.6329 7.10327 15.8999C7.23138 15.1668 7.92886 14.6828 8.66193 14.8109C9.395 14.939 9.87897 15.6365 9.75086 16.3696C9.71528 16.5831 9.62987 16.7753 9.49464 16.9461C9.46618 16.9888 9.43059 17.0244 9.395 17.0671C9.37365 17.0956 9.34518 17.1169 9.32383 17.1454L9.28825 17.1738C9.24554 17.2094 9.19572 17.245 9.1459 17.2806L9.1032 17.3091C8.8968 17.4229 8.66905 17.487 8.43418 17.487C8.37725 17.487 8.31319 17.4799 8.25625 17.4728C8.22778 17.4728 8.21355 17.4656 8.1922 17.4585ZM8.42707 14.6899C8.09968 14.6899 7.7794 14.8038 7.52318 15.0102C7.49471 15.0316 7.46625 15.0529 7.44489 15.0814C7.40219 15.1241 7.35949 15.1668 7.3239 15.2095C6.81146 15.8216 6.88975 16.7397 7.50895 17.2521C8.12103 17.7646 9.03914 17.6863 9.55158 17.0671C9.91456 16.6329 9.99285 16.0209 9.74375 15.5084C9.62275 15.2593 9.43059 15.0529 9.19572 14.9035C8.96086 14.7611 8.69752 14.6899 8.42707 14.6899Z" fill="#FDD803"/>
<path d="M7.53044 15.4587C7.64431 15.6153 8.3845 15.1313 8.2208 14.9391C8.05711 14.747 7.33116 15.1882 7.53044 15.4587Z" fill="white"/>
<path d="M7.97034 16.7683C7.73548 17.537 6.93123 17.9711 6.16258 17.7362C5.39392 17.5014 4.95977 16.69 5.19464 15.9214C5.42951 15.1527 6.23375 14.7186 7.0024 14.9534C7.77106 15.1883 8.20521 15.9997 7.97034 16.7683Z" fill="#8CC34A"/>
<path d="M5.30178 16.7467C5.1025 16.0635 5.50106 15.3447 6.18431 15.1454C6.86756 14.9461 7.5864 15.3447 7.78568 16.0279C7.98496 16.7112 7.5864 17.43 6.90315 17.6293C6.69675 17.6862 6.47612 17.6933 6.26972 17.6506C6.23413 17.6435 6.19855 17.6364 6.17008 17.6222L6.12738 17.6079C6.07044 17.5866 6.02062 17.5652 5.96368 17.5368L5.90674 17.5083C5.65052 17.3588 5.45124 17.1311 5.33737 16.8535C5.33025 16.8322 5.32313 16.8179 5.31602 16.8037C5.31602 16.7894 5.3089 16.7681 5.30178 16.7467ZM6.58288 14.8892C5.9708 14.8892 5.42277 15.2735 5.21638 15.85C5.20926 15.8713 5.20214 15.8927 5.19502 15.9212C5.19502 15.9283 5.18791 15.9425 5.18791 15.9496C4.98863 16.6542 5.34448 17.4015 6.02062 17.6862C6.06332 17.7004 6.10602 17.7218 6.15584 17.736C6.18431 17.7432 6.20566 17.7503 6.23413 17.7574C6.8818 17.914 7.55081 17.615 7.86397 17.0243C7.90667 16.946 7.94226 16.8606 7.97073 16.7681C7.98496 16.7325 7.99208 16.6969 7.9992 16.6542C8.15577 15.9283 7.74298 15.1952 7.03126 14.9603L7.00279 14.9532L6.93873 14.9319C6.82486 14.9105 6.70387 14.8892 6.58288 14.8892Z" fill="#B9D64F"/>
<path d="M6.57576 15.4444C6.49747 15.6223 7.28748 16.0209 7.36577 15.7789C7.45118 15.544 6.71099 15.1383 6.57576 15.4444Z" fill="white"/>
<path d="M10.248 11.0674C10.2552 11.0674 10.2694 11.0745 10.2765 11.0745C10.2694 11.0745 10.2623 11.0674 10.248 11.0674Z" fill="#EF8272"/>
<path d="M11.4148 10.6472C12.0126 11.1809 12.0553 12.0991 11.5215 12.6969C10.9877 13.2947 10.0696 13.3374 9.47178 12.8037C8.87393 12.2699 8.83123 11.3518 9.36502 10.7539C9.90593 10.1561 10.824 10.1062 11.4148 10.6472Z" fill="#F06492"/>
<path d="M10.2622 13.0528C9.52915 12.9532 9.01672 12.2771 9.11636 11.544C9.216 10.8109 9.89213 10.2985 10.6252 10.3981C11.3583 10.4978 11.8707 11.1739 11.7711 11.907C11.7426 12.0991 11.6785 12.2771 11.5789 12.4408C11.5504 12.4835 11.522 12.5262 11.4935 12.5689C11.4721 12.5973 11.4508 12.6258 11.4223 12.6472L11.3867 12.6827C11.344 12.7254 11.3013 12.761 11.2515 12.7966L11.2088 12.8251C10.9882 12.9746 10.7248 13.06 10.4544 13.06C10.4259 13.06 10.4046 13.06 10.3761 13.06L10.3192 13.0528H10.2622ZM10.4473 10.27C10.0416 10.27 9.65015 10.4408 9.37258 10.7398V10.7469L9.34411 10.7753C9.13059 11.0244 9.0096 11.3376 9.00248 11.665C8.98113 12.4692 9.60744 13.1382 10.4117 13.1596C10.4259 13.1596 10.4402 13.1596 10.4544 13.1596C10.5398 13.1596 10.6323 13.1525 10.7177 13.1382H10.7248C10.853 13.1169 10.9739 13.0742 11.0878 13.0244H11.0949C11.3227 12.9105 11.5149 12.7397 11.6572 12.5262C12.0985 11.8572 11.9134 10.9533 11.2373 10.5191C11.0024 10.3625 10.732 10.2771 10.4473 10.27Z" fill="#F59395"/>
<path d="M9.49297 11.124C9.62108 11.2663 10.3115 10.7254 10.1335 10.5475C9.94847 10.3767 9.27234 10.8678 9.49297 11.124Z" fill="white"/>
<path d="M10.8672 12.9531C10.8672 12.9602 10.8743 12.9745 10.8743 12.9816C10.8743 12.9745 10.8743 12.9602 10.8672 12.9531Z" fill="#FFD10D"/>
<path d="M11.8496 13.6156C11.7357 14.4127 11.0026 14.9607 10.2126 14.854C9.41549 14.7401 8.86746 14.007 8.97422 13.217C9.0881 12.4199 9.82117 11.8719 10.6112 11.9786C11.4083 12.0854 11.9634 12.8184 11.8496 13.6156Z" fill="#FDC113"/>
<path d="M9.24442 14.0637C8.88145 13.4161 9.11632 12.5976 9.76398 12.2346C10.4116 11.8716 11.2301 12.1065 11.5931 12.7542C11.9561 13.4018 11.7212 14.2203 11.0735 14.5833C10.8814 14.69 10.675 14.747 10.4543 14.7541H10.3832C10.3547 14.7541 10.3262 14.7541 10.3049 14.7541C10.2693 14.7541 10.2337 14.747 10.1981 14.7399L10.1483 14.7327C10.0914 14.7185 10.0344 14.7043 9.9775 14.69L9.92768 14.6758C9.6501 14.569 9.42235 14.3698 9.26578 14.1135C9.25154 14.0922 9.24442 14.078 9.24442 14.0637ZM10.4116 11.957C9.6074 11.957 8.95974 12.6118 8.96685 13.4161C8.96685 14.0993 9.45082 14.69 10.1198 14.8324C10.1483 14.8395 10.1768 14.8466 10.2124 14.8466C10.2551 14.8537 10.2978 14.8537 10.3405 14.8608C10.3689 14.8608 10.3903 14.8608 10.4188 14.8608C11.1234 14.8608 11.7212 14.3555 11.8422 13.6652C11.8422 13.6509 11.8493 13.6296 11.8493 13.6153C11.8493 13.6011 11.8564 13.5726 11.8564 13.5513C11.9276 12.8182 11.4436 12.1492 10.7248 11.9926C10.6892 11.9855 10.6536 11.9784 10.618 11.9713L10.554 11.9641C10.5042 11.957 10.4615 11.957 10.4116 11.957Z" fill="#FDD803"/>
<path d="M10.3771 12.2915C10.3273 12.4766 11.1671 12.747 11.2098 12.505C11.2597 12.2559 10.4697 11.957 10.3771 12.2915Z" fill="white"/>
<path d="M10.5966 12.7896C10.5752 12.7896 10.5467 12.7896 10.5254 12.7967C10.5467 12.7967 10.561 12.7967 10.5823 12.7967C10.6677 12.7896 10.7531 12.818 10.8172 12.875C10.8385 12.8963 10.8599 12.9248 10.867 12.9532C10.8385 12.8394 10.7176 12.7967 10.5966 12.7896Z" fill="#FFC610"/>
<path d="M3.8777 15.7504C3.93464 16.5475 3.3368 17.245 2.53967 17.3019C1.74255 17.3589 1.04506 16.761 0.988127 15.9639C0.931189 15.1668 1.52903 14.4693 2.32616 14.4124C3.11617 14.3483 3.81365 14.9533 3.8777 15.7504Z" fill="#8CC34A"/>
<path d="M1.42299 16.7466C0.931906 16.1915 0.988844 15.3445 1.54398 14.8535C2.09913 14.3624 2.94607 14.4193 3.43716 14.9744C3.92824 15.5296 3.8713 16.3765 3.31616 16.8676C3.15247 17.01 2.9603 17.1096 2.75391 17.1594C2.70409 17.1737 2.65427 17.1808 2.60445 17.1879C2.56886 17.195 2.53327 17.195 2.49769 17.2021H2.44787C2.39093 17.2021 2.32688 17.2021 2.26994 17.195L2.22012 17.1879C2.11336 17.1665 2.0066 17.1381 1.90696 17.0954C1.73615 17.0242 1.57957 16.9174 1.45146 16.7822C1.44434 16.768 1.43011 16.7537 1.42299 16.7466ZM2.98877 14.5189C2.88913 14.4762 2.78237 14.4478 2.67562 14.4264C2.56174 14.4051 2.44075 14.398 2.31976 14.4122C2.23435 14.4193 2.15606 14.4335 2.07777 14.4478C1.43011 14.6115 0.974609 15.1951 0.974609 15.8641C0.974609 15.8926 0.974609 15.9282 0.981727 15.9566C0.981727 15.9922 0.988844 16.0349 0.995961 16.0776C1.11695 16.8676 1.86426 17.4085 2.65427 17.2875C3.2877 17.1879 3.77878 16.6897 3.8713 16.0563C3.89977 15.857 3.88554 15.6506 3.8286 15.4513C3.70049 15.0314 3.39445 14.6898 2.98877 14.5189Z" fill="#B9D64F"/>
<path d="M2.78216 15.0314C2.66828 15.188 3.35865 15.736 3.48676 15.5225C3.61487 15.309 2.97432 14.761 2.78216 15.0314Z" fill="white"/>
<path d="M11.4582 15.8361C11.323 16.6261 10.5757 17.1599 9.78569 17.0246C8.99568 16.8894 8.46189 16.1421 8.59712 15.3521C8.73235 14.5621 9.47965 14.0283 10.2697 14.1635C11.0597 14.2988 11.5863 15.0461 11.4582 15.8361Z" fill="#39A4DD"/>
<path d="M8.80256 16.1563C8.4894 15.4801 8.78832 14.683 9.45734 14.377C9.63527 14.2987 9.82743 14.256 10.0196 14.256C10.0979 14.256 10.1691 14.2631 10.2473 14.2773C10.9804 14.3983 11.4786 15.0816 11.3576 15.8146C11.2509 16.4694 10.6886 16.9463 10.0267 16.9463H9.98401C9.94842 16.9463 9.90572 16.9463 9.87013 16.9391C9.83455 16.9391 9.79896 16.932 9.76338 16.9249L9.71356 16.9178C9.65662 16.9036 9.59968 16.8893 9.54274 16.868L9.49292 16.8466C9.22247 16.7327 8.99472 16.5263 8.84526 16.2701C8.83814 16.2559 8.82391 16.2345 8.81679 16.2203C8.82391 16.199 8.81679 16.1776 8.80256 16.1563ZM10.0196 14.1421C9.98401 14.1421 9.94131 14.1421 9.90572 14.1492C9.10859 14.2133 8.51075 14.9179 8.58192 15.715C8.64598 16.4694 9.27229 17.0459 10.0267 17.0459C10.0765 17.0459 10.1192 17.0459 10.1619 17.0388C10.9591 16.9605 11.5498 16.2559 11.4715 15.4588C11.4003 14.7115 10.774 14.1421 10.0196 14.1421Z" fill="#2CC4EE"/>
<path d="M10.0204 14.4693C9.96343 14.6543 10.7961 14.9461 10.8531 14.7041C10.91 14.4622 10.1129 14.149 10.0204 14.4693Z" fill="white"/>
<path opacity="0.5" d="M11.6005 4.52665C11.024 3.53025 9.7785 3.40925 9.60768 3.22421C9.46534 3.01781 9.37993 2.77582 9.35146 2.52672L2.47626 2.50537C2.47626 2.50537 2.51896 3.15304 2.20581 3.37367C1.89265 3.5943 0.547504 3.76511 0.298402 5.43765C0.0350664 7.15289 -0.569894 16.9319 1.75031 17.7006C4.07051 18.4692 10.1557 18.5119 11.3656 16.9319C12.5755 15.3519 12.3478 5.82198 11.6005 4.52665ZM11.1165 16.5974C9.97066 18.1062 4.17015 18.0707 1.95671 17.3305C-0.256738 16.5903 0.326871 7.24542 0.568855 5.60847C0.81084 4.0071 2.22716 3.65836 2.51896 3.45907C2.51896 3.45907 3.11681 3.23132 5.94945 3.21709C8.00632 3.20286 9.16642 3.37367 9.78561 3.56583C10.2553 3.78646 10.9457 4.05692 11.3372 4.74729C12.056 5.97856 12.2624 15.0886 11.1165 16.5974Z" fill="#8BC8EE"/>
<path d="M2.38469 1.27399C2.11423 1.48039 2.05018 2.77572 2.14982 2.86824C2.47009 3.13158 8.61223 3.20275 9.54458 2.88248C9.8435 2.78284 9.38088 1.28823 9.04637 1.153C8.85421 1.07471 7.29555 0.939486 5.75823 0.918134C4.18534 0.896782 2.62667 1.08895 2.38469 1.27399Z" fill="#E12E51"/>
<path d="M9.13716 1.22423C9.10869 1.19576 9.08022 1.16729 9.04463 1.15306C8.85247 1.07477 7.2938 0.939543 5.75649 0.918191C4.21918 0.89684 2.6961 1.08189 2.4043 1.25982C4.6818 1.43775 7.33651 1.45198 9.13716 1.22423Z" fill="#D41D52"/>
<path opacity="0.1" d="M3.9635 1.35941C3.55782 1.35229 2.93151 1.32382 2.39772 1.25977C2.3906 1.26688 2.38348 1.26688 2.37637 1.274C2.10591 1.4804 2.04186 2.77573 2.14862 2.86825C2.33366 3.02483 4.46882 3.11735 6.41893 3.10312C5.40117 2.87537 4.51152 2.24905 3.9635 1.35941Z" fill="#642B7D"/>
<path d="M6.8607 0.989289C6.8607 1.1174 6.4052 1.19569 5.86429 1.19569C5.32338 1.19569 4.875 1.1174 4.875 0.996406C4.875 0.448383 5.31627 0 5.85717 0C6.39808 0 6.85358 0.441266 6.8607 0.989289Z" fill="#B72948"/>
<path opacity="0.2" d="M11.3369 4.75422C12.0486 5.99261 12.2621 15.1026 11.1162 16.6115C9.97036 18.1203 4.16274 18.0776 1.94929 17.3445C-0.257034 16.6043 0.326575 7.25947 0.56856 5.62251C0.703786 4.56917 1.47956 3.70799 2.51867 3.47312C3.23039 3.28096 6.3833 2.98204 9.22306 3.43754C9.65721 3.50159 10.7888 3.80051 11.3369 4.75422Z" fill="#C9DFF2"/>
<path opacity="0.5" d="M10.8965 14.8678C10.8111 14.9817 10.6901 15.0884 10.5406 15.181C11.3235 13.3732 11.1385 6.5834 10.5762 5.60834C10.1207 4.81834 9.18125 4.56923 8.81827 4.5123C6.46248 4.13509 3.84336 4.37707 3.25263 4.54077C2.93948 4.61194 2.66191 4.75428 2.41992 4.93933C2.70461 4.45536 3.18146 4.09238 3.75795 3.95716C4.34156 3.79346 6.9678 3.55148 9.31648 3.92869C9.67945 3.98563 10.6189 4.22761 11.0744 5.01762C11.6723 6.06384 11.8502 13.6152 10.8965 14.8678Z" fill="white"/>
</g>
<defs>
<clipPath id="clip0_15_15251">
<rect width="12.2416" height="18.22" fill="white"/>
</clipPath>
</defs>
</svg>
