<svg width="136" height="51" viewBox="0 0 136 51" fill="none" xmlns="http://www.w3.org/2000/svg">
<g clip-path="url(#clip0_9_263)">
<path d="M0.214844 45.4365L1.01366 45.6176L1.81248 44.423L2.61129 43.6623L3.41011 42.2839L4.20893 43.5528L5.00774 42.52L5.80656 42.891L6.60538 44.8639L7.40419 45.5938L8.20301 46.4837L9.00183 44.4821L9.80064 43.5703L10.5995 42.8662L11.3983 41.7925L12.1971 42.8785L12.9959 41.2934L13.7947 41.2885L14.5935 42.2922L15.3924 41.7782L16.1912 40.7289L16.99 40.9293L17.7888 40.6518L18.5876 42.5831L19.3864 45.0143L20.1853 45.3077L20.9841 43.9336L21.7829 43.3031L22.5817 44.6679L23.3805 43.8285L24.1793 41.5427L24.9782 43.0099L25.777 41.6587L26.5758 42.6225L27.3746 44.7855L28.1734 44.4729L28.9722 45.8515L29.7711 44.914L30.5699 45.0869L31.3687 44.2637L32.1675 45.2624L32.9663 46.0547L33.7651 46.1643L34.564 50.5479L35.3628 47.7166L36.1616 47.3013L36.9604 47.3967L37.7592 47.3415L38.558 45.7201L39.3569 45.4471L40.1557 44.3738L40.9545 43.9825L41.7533 42.3686L42.5521 42.3971L43.3509 42.7172L44.1498 43.2194L44.9486 41.6676L45.7474 43.3718L46.5462 40.4395L47.345 39.1983L48.1438 40.902L48.9427 40.6139L49.7415 42.2192L50.5403 42.0526L51.3391 41.0967L52.1379 43.0658L52.9367 41.83L53.7356 43.0094L54.5344 43.7262L55.3332 45.9054L56.132 43.8432L56.9308 42.9163L57.7296 41.1757L58.5285 43.5468L59.3273 42.3543L60.1261 41.8604L60.9249 44.0759L61.7237 44.1481L62.5225 43.6527L63.3214 43.4904L64.1202 42.4891L64.919 40.3278L65.7178 42.8267L66.5166 42.549L67.3154 43.7411L68.1143 43.1354L68.9131 44.6721L69.7119 44.6443L70.5107 43.9849L71.3095 43.8398L72.1083 42.8918L72.9072 43.0346L73.706 42.019L74.5048 40.8563L75.3036 42.5796L76.1024 42.5353L76.9012 43.7262L77.7001 43.7352L78.4989 30.4663L79.2977 36.5143L80.0965 30.838L80.8953 24.6183L81.6941 25.3383L82.493 26.5061L83.2918 23.3848L84.0906 23.9669L84.8894 25.2992L85.6882 22.6577L86.487 21.7149L87.2859 21.9071L88.0847 22.4057L88.8835 24.5039L89.6823 26.3285L90.4811 26.0368L91.2799 27.3207L92.0788 29.5936L92.8776 28.7524L93.6764 30.1345L94.4752 28.1352L95.274 26.8389L96.0728 24.1748L96.8717 20.7428L97.6705 18.4677L98.4693 21.6517L99.2681 19.67L100.067 18.8612L100.866 20.6375L101.665 20.9924L102.463 17.731L103.262 8.01027L104.061 0.547852L104.86 2.78689L105.659 3.46713L106.457 2.48841L107.256 4.90729L108.055 10.2075L108.854 8.1943L109.653 11.6536L110.452 10.1481L111.25 7.87591L112.049 8.4862L112.848 10.4976L113.647 8.12456L114.446 9.89085L115.244 4.32767L116.043 8.50915L116.842 8.4296L117.641 4.59574L118.44 13.1768L119.239 19.1098L120.037 17.1221L120.836 15.0205L121.635 20.1384L122.434 21.5332L123.233 24.943L124.031 25.0285L124.83 23.1603L125.629 22.2651L126.428 22.0516L127.227 21.3846L128.025 21.816L128.824 24.1516L129.623 28.9586L130.422 24.1167L131.221 23.0917L132.02 22.4099L132.818 22.0625L133.617 24.7405L134.416 18.1217" stroke="#32CA5B" stroke-width="1.25"/>
</g>
<defs>
<clipPath id="clip0_9_263">
<rect width="135" height="50" fill="white" transform="translate(0.214844 0.547852)"/>
</clipPath>
</defs>
</svg>
