<svg width="136" height="51" viewBox="0 0 136 51" fill="none" xmlns="http://www.w3.org/2000/svg">
<g clip-path="url(#clip0_9_375)">
<path d="M0.214844 50.5286L1.01366 50.5479L1.81248 49.8106L2.61129 47.1263L3.41011 48.3226L4.20893 47.3835L5.00774 43.4296L5.80656 41.9894L6.60538 41.0744L7.40419 44.1493L8.20301 43.1999L9.00183 42.4355L9.80064 40.2035L10.5995 40.6804L11.3983 39.6975L12.1971 42.3082L12.9959 41.3281L13.7947 40.0289L14.5935 40.6836L15.3924 40.5952L16.1912 38.6193L16.99 38.9489L17.7888 37.9643L18.5876 40.394L19.3864 42.2844L20.1853 41.8037L20.9841 41.4803L21.7829 41.4047L22.5817 41.7666L23.3805 41.9744L24.1793 41.686L24.9782 42.9347L25.777 41.7329L26.5758 39.2396L27.3746 41.7972L28.1734 40.263L28.9722 42.7666L29.7711 41.7453L30.5699 40.7474L31.3687 40.6105L32.1675 42.8942L32.9663 45.3634L33.7651 45.2247L34.564 47.7876L35.3628 45.7002L36.1616 44.1992L36.9604 43.6235L37.7592 42.738L38.558 40.5536L39.3569 36.4578L40.1557 37.5509L40.9545 35.8028L41.7533 32.2521L42.5521 32.761L43.3509 34.1295L44.1498 35.5449L44.9486 34.4312L45.7474 36.0447L46.5462 28.8997L47.345 27.4728L48.1438 28.5156L48.9427 29.2248L49.7415 32.4029L50.5403 31.9631L51.3391 28.2285L52.1379 29.6981L52.9367 27.9048L53.7356 27.4787L54.5344 28.2564L55.3332 30.8038L56.132 25.6944L56.9308 19.1551L57.7296 11.3324L58.5285 9.98188L59.3273 7.50553L60.1261 6.4034L60.9249 8.57558L61.7237 7.99296L62.5225 6.25841L63.3214 4.97592L64.1202 6.46484L64.919 0.547852L65.7178 1.66809L66.5166 6.68283L67.3154 7.32228L68.1143 7.34648L68.9131 7.86255L69.7119 8.77803L70.5107 9.30458L71.3095 7.62717L72.1083 7.85218L72.9072 9.13593L73.706 8.17453L74.5048 2.49706L75.3036 4.94224L76.1024 5.6099L76.9012 8.34059L77.7001 9.85179L78.4989 10.5259L79.2977 13.9012L80.0965 12.583L80.8953 6.97794L81.6941 7.86285L82.493 9.89409L83.2918 9.26694L84.0906 6.46509L84.8894 7.85403L85.6882 7.14308L86.487 5.7778L87.2859 6.10157L88.0847 5.54413L88.8835 7.25584L89.6823 5.62598L90.4811 7.97143L91.2799 5.84672L92.0788 7.16749L92.8776 4.04544L93.6764 3.93644L94.4752 6.50444L95.274 9.24503L96.0728 9.62763L96.8717 11.3685L97.6705 12.4619L98.4693 11.3937L99.2681 12.5799L100.067 13.772L100.866 12.4133L101.665 15.1735L102.463 14.0087L103.262 15.5959L104.061 13.4081L104.86 10.4029L105.659 11.8863L106.457 13.5493L107.256 9.01138L108.055 11.6529L108.854 12.1742L109.653 16.3578L110.452 15.666L111.25 14.8004L112.049 18.8631L112.848 19.8204L113.647 17.5704L114.446 18.653L115.244 14.3493L116.043 12.4166L116.842 14.0718L117.641 17.8701L118.44 21.2927L119.239 21.4708L120.037 19.7688L120.836 19.3219L121.635 19.4198L122.434 16.5011L123.233 22.0978L124.031 20.8322L124.83 18.6462L125.629 19.9633L126.428 20.7567L127.227 18.47L128.025 20.8056L128.824 24.8895L129.623 26.8335L130.422 22.4076L131.221 24.058L132.02 22.6355L132.818 20.7013L133.617 16.479L134.416 16.3567" stroke="#32CA5B" stroke-width="1.25"/>
</g>
<defs>
<clipPath id="clip0_9_375">
<rect width="135" height="50" fill="white" transform="translate(0.214844 0.547852)"/>
</clipPath>
</defs>
</svg>
