<svg width="136" height="51" viewBox="0 0 136 51" fill="none" xmlns="http://www.w3.org/2000/svg">
<g clip-path="url(#clip0_2_404)">
<path d="M0.214844 50.5479L1.01366 50.4333L1.81248 48.0259L2.61129 45.7074L3.41011 45.4094L4.20893 43.5817L5.00774 44.903L5.80656 43.9519L6.60538 42.7773L7.40419 39.2485L8.20301 40.2522L9.00183 35.9498L9.80064 30.2L10.5995 30.5674L11.3983 29.1837L12.1971 31.0951L12.9959 19.3629L13.7947 20.3371L14.5935 21.9129L15.3924 19.3576L16.1912 18.9152L16.99 19.7847L17.7888 18.1093L18.5876 20.2771L19.3864 19.9332L20.1853 23.8711L20.9841 20.365L21.7829 21.768L22.5817 20.9171L23.3805 21.6597L24.1793 23.1393L24.9782 24.1844L25.777 24.4811L26.5758 22.1839L27.3746 25.3203L28.1734 28.1826L28.9722 29.5851L29.7711 28.1939L30.5699 27.2947L31.3687 26.8812L32.1675 28.2816L32.9663 28.1927L33.7651 25.995L34.564 29.574L35.3628 26.7315L36.1616 24.4529L36.9604 23.2599L37.7592 25.7597L38.558 26.3543L39.3569 28.5884L40.1557 26.7246L40.9545 28.5624L41.7533 28.2086L42.5521 24.7504L43.3509 24.5205L44.1498 26.9126L44.9486 26.2244L45.7474 25.03L46.5462 23.2167L47.345 22.0381L48.1438 26.5409L48.9427 25.6435L49.7415 24.7871L50.5403 27.1147L51.3391 26.1735L52.1379 26.7232L52.9367 29.8715L53.7356 34.2205L54.5344 32.9305L55.3332 32.6168L56.132 30.6338L56.9308 24.5516L57.7296 22.9991L58.5285 23.8608L59.3273 25.2687L60.1261 25.2453L60.9249 25.7923L61.7237 25.9358L62.5225 25.1103L63.3214 25.2313L64.1202 26.8402L64.919 29.2901L65.7178 28.4298L66.5166 27.6801L67.3154 34.8973L68.1143 33.7716L68.9131 33.7985L69.7119 31.8622L70.5107 29.653L71.3095 30.5211L72.1083 31.5676L72.9072 32.5607L73.706 30.7731L74.5048 32.4112L75.3036 33.858L76.1024 34.638L76.9012 36.5202L77.7001 35.4838L78.4989 34.7213L79.2977 35.7414L80.0965 33.8439L80.8953 34.6018L81.6941 36.4028L82.493 36.3472L83.2918 35.8229L84.0906 32.3197L84.8894 33.3838L85.6882 32.4444L86.487 33.9708L87.2859 34.2533L88.0847 33.0716L88.8835 33.3171L89.6823 35.0469L90.4811 29.9899L91.2799 27.7487L92.0788 25.5763L92.8776 29.4987L93.6764 30.44L94.4752 28.9556L95.274 28.4199L96.0728 29.754L96.8717 32.3785L97.6705 34.6692L98.4693 32.8158L99.2681 29.8317L100.067 28.2767L100.866 27.544L101.665 28.0107L102.463 17.9925L103.262 14.9475L104.061 11.3463L104.86 8.07187L105.659 7.84333L106.457 9.0272L107.256 9.19903L108.055 12.4107L108.854 12.8712L109.653 17.2686L110.452 17.543L111.25 20.1332L112.049 23.6003L112.848 25.2626L113.647 22.0785L114.446 21.1743L115.244 19.4856L116.043 17.4206L116.842 16.064L117.641 18.0388L118.44 21.2599L119.239 22.1293L120.037 19.3246L120.836 18.6285L121.635 19.1467L122.434 18.9475L123.233 19.7826L124.031 19.0592L124.83 13.8688L125.629 9.71121L126.428 12.3631L127.227 10.379L128.025 10.576L128.824 14.5969L129.623 16.2466L130.422 10.4181L131.221 5.27401L132.02 4.98517L132.818 0.7843L133.617 0.547852L134.416 1.74497" stroke="#32CA5B" stroke-width="1.25"/>
</g>
<defs>
<clipPath id="clip0_2_404">
<rect width="135" height="50" fill="white" transform="translate(0.214844 0.547852)"/>
</clipPath>
</defs>
</svg>
