<svg width="136" height="51" viewBox="0 0 136 51" fill="none" xmlns="http://www.w3.org/2000/svg">
<g clip-path="url(#clip0_2_759)">
<path d="M0.796387 4.21583L1.5952 4.92764L2.39402 4.90743L3.19284 1.75848L3.99165 3.53015L4.79047 6.52661L5.58929 10.698L6.3881 7.55715L7.18692 8.38052L7.98574 7.99591L8.78455 5.26758L9.58337 4.31259L10.3822 3.96482L11.181 1.93226L11.9798 1.63589L12.7786 1.75778L13.5775 1.60037L14.3763 0.84668L15.1751 2.23581L15.9739 2.94793L16.7727 10.1862L17.5715 14.9424L18.3704 17.6103L19.1692 20.5661L19.968 21.0567L20.7668 23.2458L21.5656 30.1625L22.3644 26.9782L23.1632 27.1834L23.9621 27.8398L24.7609 27.4216L25.5597 29.2156L26.3585 25.2022L27.1573 22.9426L27.9562 23.5971L28.755 24.2855L29.5538 24.1947L30.3526 20.3376L31.1514 22.0303L31.9502 21.1613L32.7491 26.2171L33.5479 25.1716L34.3467 25.9742L35.1455 30.588L35.9443 24.7008L36.7431 26.5014L37.542 20.3552L38.3408 26.6517L39.1396 28.9072L39.9384 34.8119L40.7372 38.8495L41.536 36.8198L42.3348 36.4947L43.1337 36.2343L43.9325 38.4616L44.7313 37.4768L45.5301 35.7991L46.3289 35.0003L47.1277 33.4705L47.9266 34.7134L48.7254 35.3792L49.5242 35.2496L50.323 41.269L51.1218 48.4145L51.9206 44.7445L52.7195 42.876L53.5183 45.9057L54.3171 48.1386L55.1159 48.6268L55.9147 50.8467L56.7135 48.6336L57.5124 50.4462L58.3112 48.2215L59.11 48.6977L59.9088 45.1154L60.7076 47.843L61.5064 45.6512L62.3053 45.9432L63.1041 45.9748L63.9029 47.079L64.7017 43.317L65.5005 45.2722L66.2993 44.7306L67.0982 44.4198L67.897 40.7191L68.6958 42.4308L69.4946 39.9604L70.2934 38.4302L71.0922 39.1172L71.8911 40.3622L72.6899 38.8223L73.4887 35.4357L74.2875 37.5803L75.0863 39.4072L75.8851 33.7273L76.684 30.5903L77.4828 33.0905L78.2816 30.1197L79.0804 30.2491L79.8792 30.4273L80.678 31.109L81.4769 32.9472L82.2757 31.3521L83.0745 31.0076L83.8733 31.2372L84.6721 34.3457L85.4709 34.8042L86.2698 33.3592L87.0686 31.2869L87.8674 29.5032L88.6662 30.0452L89.465 28.6991L90.2638 28.9032L91.0627 30.0663L91.8615 31.4024L92.6603 30.2481L93.4591 32.344L94.2579 32.34L95.0567 32.7889L95.8556 34.1642L96.6544 33.0247L97.4532 33.9366L98.252 34.4962L99.0508 35.7955L99.8496 34.4847L100.648 32.8255L101.447 34.3829L102.246 34.1078L103.045 31.4096L103.844 32.0388L104.643 32.8401L105.441 33.7101L106.24 33.2239L107.039 32.015L107.838 32.5307L108.637 31.6037L109.435 30.3585L110.234 30.7258L111.033 29.7117L111.832 28.9402L112.631 29.0996L113.43 25.3667L114.228 25.3978L115.027 27.6124L115.826 27.1902L116.625 24.9642L117.424 27.0039L118.222 27.0992L119.021 28.4116L119.82 25.5306L120.619 24.5698L121.418 18.6254L122.217 15.2775L123.015 17.621L123.814 17.0793L124.613 17.7746L125.412 19.2521L126.211 18.2738L127.009 20.9293L127.808 19.4842L128.607 23.3218L129.406 24.8547L130.205 22.8645L131.003 23.9915L131.802 20.8125L132.601 17.5381L133.4 19.165L134.199 19.3441L134.998 24.623" stroke="#FF3A33" stroke-width="1.25"/>
</g>
<defs>
<clipPath id="clip0_2_759">
<rect width="135" height="50" fill="white" transform="translate(0.796387 0.84668)"/>
</clipPath>
</defs>
</svg>
