<svg width="130" height="48" viewBox="0 0 130 48" fill="none" xmlns="http://www.w3.org/2000/svg">
<g clip-path="url(#clip0_15_15792)">
<path d="M0 44.876L0.766864 44.9245L1.53373 44.8742L2.30059 44.4572L3.06746 44.3831L3.83432 45.3812L4.60118 45.5911L5.36805 44.8158L6.13491 44.7247L6.90178 46.9757L7.66864 47.3477L8.4355 45.8559L9.20237 48L9.96923 46.9947L10.7361 47.0671L11.503 46.6484L12.2698 46.0646L13.0367 45.4901L13.8036 45.0344L14.5704 46.5614L15.3373 46.9418L16.1041 47.1277L16.871 43.0768L17.6379 43.5465L18.4047 44.4884L19.1716 44.2734L19.9385 44.0769L20.7053 43.8953L21.4722 43.0848L22.2391 42.6461L23.0059 42.8916L23.7728 42.8988L24.5396 41.4152L25.3065 40.1809L26.0734 39.885L26.8402 40.673L27.6071 40.1066L28.374 40.1132L29.1408 39.2379L29.9077 39.372L30.6746 38.8918L31.4414 37.3862L32.2083 38.1302L32.9752 36.2243L33.742 36.6798L34.5089 36.6224L35.2757 38.4806L36.0426 38.1862L36.8095 39.543L37.5763 38.4522L38.3432 39.4447L39.1101 39.7711L39.8769 39.583L40.6438 39.9631L41.4107 42.3461L42.1775 40.8807L42.9444 36.3775L43.7112 44.1964L44.4781 42.5998L45.245 40.9087L46.0118 39.0108L46.7787 39.6571L47.5456 41.2207L48.3124 42.4674L49.0793 41.1131L49.8462 39.6156L50.613 36.9717L51.3799 38.1268L52.1467 38.3403L52.9136 37.9767L53.6805 37.8471L54.4473 37.7006L55.2142 36.2321L55.9811 36.5053L56.7479 33.7271L57.5148 28.7139L58.2817 24.933L59.0485 27.1221L59.8154 26.6092L60.5823 25.7199L61.3491 25.0288L62.116 27.6863L62.8828 26.0193L63.6497 25.5321L64.4166 25.318L65.1834 25.8634L65.9503 23.8857L66.7172 24.9836L67.484 24.851L68.2509 25.0615L69.0178 26.4406L69.7846 28.1937L70.5515 27.6968L71.3183 28.2498L72.0852 27.1671L72.8521 28.3883L73.6189 30.4234L74.3858 31.0532L75.1527 30.9658L75.9195 30.8845L76.6864 30.2225L77.4533 30.2811L78.2201 31.7149L78.987 31.0638L79.7538 31.5358L80.5207 31.7776L81.2876 31.5373L82.0544 30.4399L82.8213 31.3584L83.5882 32.2207L84.355 27.8445L85.1219 23.1891L85.8888 22.7613L86.6556 22.5908L87.4225 21.5929L88.1894 15.6733L88.9562 13.6984L89.7231 14.4179L90.4899 16.934L91.2568 18.1134L92.0237 16.9271L92.7905 14.5175L93.5574 14.4522L94.3243 14.9706L95.0911 14.6515L95.858 14.4545L96.6249 16.0214L97.3917 16.3044L98.1586 15.0648L98.9255 13.1772L99.6923 11.5773L100.459 8.13624L101.226 7.35859L101.993 9.42157L102.76 12.7838L103.527 11.9783L104.293 10.3973L105.06 10.4041L105.827 10.5298L106.594 10.1039L107.361 1.28697L108.128 0.174511L108.895 1.92689L109.662 3.67964L110.428 1.81734L111.195 1.23607L111.962 2.52457L112.729 1.67812L113.496 1.74104L114.263 0L115.03 4.70616L115.796 1.37613L116.563 1.7807L117.33 0.467171L118.097 2.68572L118.864 5.80779L119.631 7.69994L120.398 8.52607L121.165 7.39624L121.931 6.6717L122.698 5.96243L123.465 3.67699L124.232 2.38727L124.999 5.08204L125.766 4.72363L126.533 5.69857L127.299 6.35311L128.066 5.46119L128.833 4.0902" stroke="#32CA5B" stroke-width="1.2"/>
</g>
<defs>
<clipPath id="clip0_15_15792">
<rect width="129.6" height="48" fill="white"/>
</clipPath>
</defs>
</svg>
