<svg width="136" height="51" viewBox="0 0 136 51" fill="none" xmlns="http://www.w3.org/2000/svg">
<g clip-path="url(#clip0_9_253)">
<path d="M0.214844 44.5248L1.01366 42.732L1.81248 39.4818L2.61129 36.0194L3.41011 40.1586L4.20893 42.7012L5.00774 39.0926L5.80656 42.2338L6.60538 41.6092L7.40419 44.6046L8.20301 45.959L9.00183 44.606L9.80064 35.3842L10.5995 37.0877L11.3983 29.5513L12.1971 30.3039L12.9959 26.831L13.7947 27.2675L14.5935 32.2213L15.3924 32.5262L16.1912 27.1028L16.99 27.9689L17.7888 27.3024L18.5876 31.6546L19.3864 32.6398L20.1853 36.6499L20.9841 36.6082L21.7829 38.1909L22.5817 41.2125L23.3805 40.404L24.1793 37.6385L24.9782 40.7479L25.777 38.2391L26.5758 34.3483L27.3746 40.7006L28.1734 42.8509L28.9722 45.6283L29.7711 43.7464L30.5699 43.9201L31.3687 41.631L32.1675 41.9957L32.9663 46.5134L33.7651 46.5661L34.564 50.5479L35.3628 47.1369L36.1616 43.5131L36.9604 41.7477L37.7592 42.5856L38.558 37.6349L39.3569 38.7464L40.1557 37.4783L40.9545 39.5513L41.7533 35.7227L42.5521 29.3228L43.3509 29.0959L44.1498 28.0407L44.9486 20.0416L45.7474 25.2889L46.5462 12.2864L47.345 12.2469L48.1438 16.3942L48.9427 16.2999L49.7415 23.1269L50.5403 21.874L51.3391 16.8962L52.1379 18.5324L52.9367 17.6468L53.7356 15.795L54.5344 17.2031L55.3332 19.5244L56.132 14.0206L56.9308 14.8294L57.7296 12.9829L58.5285 14.0498L59.3273 12.739L60.1261 8.72105L60.9249 8.18121L61.7237 11.4952L62.5225 12.1773L63.3214 8.8796L64.1202 9.37753L64.919 1.53697L65.7178 3.83476L66.5166 0.547852L67.3154 6.32114L68.1143 5.86696L68.9131 9.65519L69.7119 7.88576L70.5107 7.24464L71.3095 6.67026L72.1083 7.67717L72.9072 6.92868L73.706 5.18704L74.5048 2.36742L75.3036 4.17304L76.1024 4.95087L76.9012 5.35946L77.7001 7.61071L78.4989 7.23712L79.2977 10.102L80.0965 10.2559L80.8953 7.92676L81.6941 8.78834L82.493 11.5416L83.2918 9.91445L84.0906 9.38834L84.8894 10.4898L85.6882 11.7257L86.487 10.5202L87.2859 9.08054L88.0847 8.87249L88.8835 9.51216L89.6823 10.6953L90.4811 9.30459L91.2799 6.88789L92.0788 8.5733L92.8776 7.16865L93.6764 8.12269L94.4752 7.59745L95.274 8.56826L96.0728 10.729L96.8717 12.3285L97.6705 12.5056L98.4693 11.2038L99.2681 11.0772L100.067 10.8514L100.866 8.43536L101.665 10.2919L102.463 7.68325L103.262 10.2812L104.061 8.52345L104.86 7.8563L105.659 7.39638L106.457 7.73831L107.256 5.63412L108.055 7.47508L108.854 6.45204L109.653 11.0065L110.452 11.8712L111.25 12.798L112.049 23.248L112.848 28.347L113.647 27.0575L114.446 27.8026L115.244 26.2975L116.043 29.0268L116.842 25.5561L117.641 29.4793L118.44 39.7152L119.239 40.4171L120.037 36.0806L120.836 33.8002L121.635 36.551L122.434 37.7832L123.233 40.1996L124.031 41.6108L124.83 38.987L125.629 42.1452L126.428 41.3597L127.227 37.1561L128.025 38.6886L128.824 41.8579L129.623 43.5057L130.422 41.3852L131.221 42.6479L132.02 42.6903L132.818 38.4163L133.617 37.6644L134.416 36.4997" stroke="#32CA5B" stroke-width="1.25"/>
</g>
<defs>
<clipPath id="clip0_9_253">
<rect width="135" height="50" fill="white" transform="translate(0.214844 0.547852)"/>
</clipPath>
</defs>
</svg>
