<svg width="136" height="51" viewBox="0 0 136 51" fill="none" xmlns="http://www.w3.org/2000/svg">
<g clip-path="url(#clip0_2_817)">
<path d="M0.796387 4.35416L1.59996 4.4202L2.40353 3.51961L3.2071 4.58159L4.01067 6.74155L4.81424 11.9556L5.61782 9.49771L6.42139 8.95848L7.22496 7.58674L8.02853 3.17846L8.8321 2.24526L9.63567 2.33218L10.4392 0.893439L11.2428 1.6639L12.0464 3.09996L12.85 3.04044L13.6535 0.84668L14.4571 3.17293L15.2607 4.70833L16.0642 10.7988L16.8678 21.2118L17.6714 21.3757L18.475 32.7906L19.2785 34.9239L20.0821 32.9271L20.8857 37.3096L21.6892 41.4072L22.4928 39.4168L23.2964 39.1065L24.1 38.6262L24.9035 34.671L25.7071 26.6574L26.5107 24.3512L27.3142 26.1958L28.1178 30.4469L28.9214 28.5945L29.725 25.5969L30.5285 26.081L31.3321 26.3941L32.1357 35.9096L32.9392 34.24L33.7428 36.2243L34.5464 41.6758L35.35 34.4074L36.1535 36.8026L36.9571 32.3694L37.7607 30.7246L38.5642 31.7174L39.3678 43.2865L40.1714 42.5214L40.975 36.9519L41.7785 40.7184L42.5821 40.4387L43.3857 41.3688L44.1892 38.7171L44.9928 35.97L45.7964 35.0143L46.6 34.6679L47.4035 36.6066L48.2071 37.8874L49.0107 39.0334L49.8142 43.9312L50.6178 50.8467L51.4214 43.7919L52.225 43.4153L53.0285 46.8501L53.8321 44.1636L54.6357 40.6104L55.4392 47.9913L56.2428 46.3962L57.0464 47.1614L57.85 40.4254L58.6535 40.1957L59.4571 36.0949L60.2607 39.7159L61.0642 38.4575L61.8678 36.9987L62.6714 37.3888L63.475 38.3484L64.2785 33.3413L65.0821 35.8776L65.8857 37.3249L66.6892 36.3617L67.4928 33.5652L68.2964 35.0884L69.1 34.0254L69.9035 34.6173L70.7071 34.7987L71.5107 35.7362L72.3142 33.6578L73.1178 33.487L73.9214 32.88L74.725 33.3088L75.5285 28.0498L76.3321 26.2173L77.1357 27.9437L77.9392 25.184L78.7428 25.1733L79.5464 25.1311L80.35 26.4938L81.1535 27.5626L81.9571 26.9623L82.7607 26.2307L83.5642 28.1653L84.3678 32.7594L85.1714 31.1442L85.975 28.9508L86.7785 28.5923L87.5821 26.4503L88.3857 27.0911L89.1892 28.6469L89.9928 27.1859L90.7964 27.2959L91.6 27.3453L92.4035 27.0376L93.2071 29.7914L94.0107 30.5088L94.8142 29.7278L95.6178 34.1702L96.4214 34.7873L97.225 36.8694L98.0285 36.8505L98.8321 37.3184L99.6357 34.1258L100.439 32.7416L101.243 33.2572L102.046 34.0446L102.85 31.8011L103.654 33.0354L104.457 35.0483L105.261 35.4357L106.064 34.8401L106.868 34.6964L107.671 35.306L108.475 34.0492L109.279 32.6045L110.082 32.8153L110.886 30.7904L111.689 29.5245L112.493 31.5601L113.296 28.0183L114.1 26.6228L114.904 28.3038L115.707 28.6566L116.511 28.326L117.314 30.4097L118.118 29.8326L118.921 32.5239L119.725 30.8699L120.529 29.5995L121.332 23.6708L122.136 21.85L122.939 22.3758L123.743 22.6178L124.546 24.1809L125.35 25.5148L126.154 23.3831L126.957 25.0489L127.761 26.0071L128.564 29.5216L129.368 31.5044L130.171 29.1258L130.975 31.1532L131.779 26.014L132.582 27.9572L133.386 27.1261L134.189 26.4562L134.993 37.0282" stroke="#FF3A33" stroke-width="1.25"/>
</g>
<defs>
<clipPath id="clip0_2_817">
<rect width="135" height="50" fill="white" transform="translate(0.796387 0.84668)"/>
</clipPath>
</defs>
</svg>
