<svg width="136" height="51" viewBox="0 0 136 51" fill="none" xmlns="http://www.w3.org/2000/svg">
<g clip-path="url(#clip0_2_500)">
<path d="M0.214844 50.5479L1.01366 49.6917L1.81248 46.4074L2.61129 43.9908L3.41011 49.5773L4.20893 49.9878L5.00774 44.8328L5.80656 43.4017L6.60538 46.0937L7.40419 45.8366L8.20301 44.965L9.00183 39.1081L9.80064 36.4636L10.5995 38.0454L11.3983 33.4437L12.1971 32.3845L12.9959 22.8604L13.7947 20.5206L14.5935 24.4635L15.3924 21.5275L16.1912 20.8236L16.99 22.8856L17.7888 22.5203L18.5876 25.5854L19.3864 30.3222L20.1853 31.746L20.9841 31.8456L21.7829 30.0515L22.5817 31.8605L23.3805 30.805L24.1793 28.1624L24.9782 30.7807L25.777 25.6134L26.5758 22.6395L27.3746 26.7223L28.1734 27.6257L28.9722 31.0368L29.7711 28.4355L30.5699 27.6305L31.3687 29.3517L32.1675 31.7106L32.9663 35.2707L33.7651 34.7698L34.564 34.7312L35.3628 31.5198L36.1616 28.5207L36.9604 29.1439L37.7592 28.0282L38.558 23.7164L39.3569 22.917L40.1557 20.2447L40.9545 24.542L41.7533 22.8371L42.5521 12.701L43.3509 11.9681L44.1498 14.1553L44.9486 16.465L45.7474 11.9405L46.5462 0.547852L47.345 2.77618L48.1438 8.81007L48.9427 8.90198L49.7415 10.5564L50.5403 12.3457L51.3391 10.041L52.1379 9.56024L52.9367 10.3072L53.7356 5.85922L54.5344 7.25304L55.3332 9.94868L56.132 6.67148L56.9308 3.86743L57.7296 6.68905L58.5285 9.07193L59.3273 9.34271L60.1261 5.55416L60.9249 8.43813L61.7237 13.1933L62.5225 13.1555L63.3214 8.21746L64.1202 8.98906L64.919 1.2173L65.7178 2.59086L66.5166 3.51224L67.3154 8.30485L68.1143 6.44959L68.9131 9.44835L69.7119 7.39706L70.5107 8.68386L71.3095 6.26023L72.1083 7.85231L72.9072 6.69518L73.706 5.27441L74.5048 4.44977L75.3036 5.91713L76.1024 6.1879L76.9012 10.9085L77.7001 13.1307L78.4989 17.1142L79.2977 19.3678L80.0965 15.1288L80.8953 11.3997L81.6941 14.6506L82.493 17.5052L83.2918 18.1282L84.0906 14.5087L84.8894 16.0748L85.6882 17.3279L86.487 16.9006L87.2859 17.2588L88.0847 16.4264L88.8835 17.3415L89.6823 16.1283L90.4811 16.4406L91.2799 15.6966L92.0788 20.8749L92.8776 18.5578L93.6764 19.4456L94.4752 19.0663L95.274 20.9184L96.0728 21.957L96.8717 24.2618L97.6705 26.5181L98.4693 24.7905L99.2681 24.1938L100.067 23.4124L100.866 21.4974L101.665 24.855L102.463 21.0203L103.262 23.0744L104.061 20.6297L104.86 18.6027L105.659 18.5715L106.457 16.5836L107.256 11.5507L108.055 11.6362L108.854 10.8346L109.653 15.1507L110.452 16.641L111.25 15.6057L112.049 20.11L112.848 27.7169L113.647 23.3402L114.446 28.0293L115.244 23.2095L116.043 23.3252L116.842 21.6625L117.641 24.992L118.44 27.3799L119.239 30.1082L120.037 26.0808L120.836 23.6004L121.635 24.5042L122.434 23.5236L123.233 29.0313L124.031 30.1391L124.83 28.733L125.629 27.5569L126.428 26.9357L127.227 23.1533L128.025 25.6779L128.824 27.9771L129.623 33.5639L130.422 29.5059L131.221 31.3475L132.02 31.4944L132.818 26.9034L133.617 25.1999L134.416 23.2638" stroke="#32CA5B" stroke-width="1.25"/>
</g>
<defs>
<clipPath id="clip0_2_500">
<rect width="135" height="50" fill="white" transform="translate(0.214844 0.547852)"/>
</clipPath>
</defs>
</svg>
