<svg width="136" height="51" viewBox="0 0 136 51" fill="none" xmlns="http://www.w3.org/2000/svg">
<g clip-path="url(#clip0_2_845)">
<path d="M0.796387 5.64055L1.5952 4.88699L2.39402 5.78027L3.19284 2.78107L3.99165 2.38981L4.79047 4.7846L5.58929 7.72522L6.3881 4.71206L7.18692 4.18809L7.98574 6.49687L8.78455 2.30331L9.58337 3.80772L10.3822 4.40898L11.181 1.06055L11.9798 1.81869L12.7786 2.73327L13.5775 2.41996L14.3763 0.84668L15.1751 1.68936L15.9739 1.5192L16.7727 8.94194L17.5715 18.787L18.3704 17.7218L19.1692 22.019L19.968 23.0484L20.7668 24.6327L21.5656 29.3794L22.3644 25.9295L23.1632 25.7997L23.9621 27.2197L24.7609 27.3468L25.5597 28.4321L26.3585 24.6136L27.1573 20.9891L27.9562 22.9745L28.755 25.0088L29.5538 24.9151L30.3526 23.4135L31.1514 22.2582L31.9502 21.23L32.7491 26.5091L33.5479 26.686L34.3467 27.711L35.1455 33.8561L35.9443 29.7399L36.7431 31.7677L37.542 29.0926L38.3408 32.0601L39.1396 34.7754L39.9384 40.1091L40.7372 39.2107L41.536 37.1366L42.3348 39.4826L43.1337 37.387L43.9325 39.1857L44.7313 35.6833L45.5301 35.3062L46.3289 34.8847L47.1277 33.786L47.9266 35.2753L48.7254 36.1503L49.5242 36.4465L50.323 43.2985L51.1218 47.2712L51.9206 45.3015L52.7195 44.1499L53.5183 47.2851L54.3171 47.2983L55.1159 45.4238L55.9147 48.5512L56.7135 47.3158L57.5124 50.8467L58.3112 46.9888L59.11 45.4754L59.9088 43.2477L60.7076 45.1371L61.5064 44.5256L62.3053 44.737L63.1041 44.7914L63.9029 44.8855L64.7017 41.6172L65.5005 41.2024L66.2993 42.8685L67.0982 41.9161L67.897 39.1533L68.6958 39.1041L69.4946 37.4147L70.2934 34.7377L71.0922 37.3204L71.8911 36.8339L72.6899 35.0195L73.4887 31.6277L74.2875 31.2818L75.0863 33.4522L75.8851 27.6295L76.684 27.6505L77.4828 29.6858L78.2816 28.7941L79.0804 29.5726L79.8792 30.4841L80.678 31.0127L81.4769 32.2506L82.2757 31.2456L83.0745 30.026L83.8733 31.3028L84.6721 33.4872L85.4709 33.5569L86.2698 31.8763L87.0686 30.4479L87.8674 29.1557L88.6662 30.5842L89.465 29.5746L90.2638 29.1449L91.0627 30.7731L91.8615 30.0425L92.6603 30.3756L93.4591 33.3225L94.2579 34.6277L95.0567 36.4823L95.8556 38.414L96.6544 37.2573L97.4532 39.8237L98.252 40.2964L99.0508 40.8775L99.8496 39.7352L100.648 38.0398L101.447 39.6383L102.246 39.4603L103.045 37.4804L103.844 38.8106L104.643 39.6276L105.441 39.9295L106.24 39.6651L107.039 39.6072L107.838 39.0887L108.637 38.268L109.435 37.5067L110.234 38.0721L111.033 36.2773L111.832 35.1896L112.631 35.1059L113.43 34.7265L114.228 37.979L115.027 39.3624L115.826 39.4017L116.625 38.8907L117.424 41.1014L118.222 40.9912L119.021 42.5025L119.82 41.0124L120.619 39.5819L121.418 33.6228L122.217 32.9892L123.015 34.8515L123.814 35.8684L124.613 36.7329L125.412 37.1749L126.211 34.8484L127.009 35.2187L127.808 35.9174L128.607 40.5937L129.406 41.2637L130.205 39.2412L131.003 39.8155L131.802 38.8044L132.601 37.604L133.4 37.7475L134.199 37.4513L134.998 40.4484" stroke="#FF3A33" stroke-width="1.25"/>
</g>
<defs>
<clipPath id="clip0_2_845">
<rect width="135" height="50" fill="white" transform="translate(0.796387 0.84668)"/>
</clipPath>
</defs>
</svg>
