<svg width="136" height="51" viewBox="0 0 136 51" fill="none" xmlns="http://www.w3.org/2000/svg">
<g clip-path="url(#clip0_2_871)">
<path d="M0.796387 36.3703L1.5952 36.3867L2.39402 36.1712L3.19284 34.5354L3.99165 34.0629L4.79047 34.0701L5.58929 34.928L6.3881 36.1263L7.18692 35.1798L7.98574 35.0525L8.78455 34.6601L9.58337 33.522L10.3822 33.8133L11.181 33.591L11.9798 33.5225L12.7786 33.7926L13.5775 33.7542L14.3763 33.0708L15.1751 33.3632L15.9739 33.7405L16.7727 36.012L17.5715 39.1878L18.3704 41.4712L19.1692 45.3695L19.968 45.9225L20.7668 45.8532L21.5656 46.1769L22.3644 46.3829L23.1632 45.379L23.9621 45.8151L24.7609 45.4845L25.5597 43.6737L26.3585 43.6734L27.1573 42.9439L27.9562 43.8518L28.755 44.4885L29.5538 44.5831L30.3526 46.1795L31.1514 45.1665L31.9502 45.1186L32.7491 45.963L33.5479 46.4968L34.3467 47.1985L35.1455 48.1647L35.9443 45.423L36.7431 46.0892L37.542 45.7715L38.3408 45.375L39.1396 45.6147L39.9384 45.5989L40.7372 47.667L41.536 47.7248L42.3348 47.6177L43.1337 47.5294L43.9325 48.3451L44.7313 48.3465L45.5301 49.7197L46.3289 49.1308L47.1277 48.5958L47.9266 48.1342L48.7254 48.269L49.5242 47.2575L50.323 48.3476L51.1218 49.4017L51.9206 48.7991L52.7195 48.7944L53.5183 48.8259L54.3171 48.8808L55.1159 49.5004L55.9147 49.5981L56.7135 50.2554L57.5124 50.8467L58.3112 50.4582L59.11 50.6766L59.9088 49.5818L60.7076 49.3252L61.5064 49.0391L62.3053 49.7926L63.1041 49.2087L63.9029 48.1042L64.7017 46.5026L65.5005 45.5328L66.2993 45.7267L67.0982 43.7571L67.897 43.3782L68.6958 43.8443L69.4946 42.5207L70.2934 33.9164L71.0922 35.6009L71.8911 34.6188L72.6899 39.1309L73.4887 35.8506L74.2875 35.2487L75.0863 37.0307L75.8851 34.8362L76.684 33.5673L77.4828 32.9913L78.2816 32.2635L79.0804 32.63L79.8792 34.6823L80.678 34.0906L81.4769 34.0811L82.2757 33.2142L83.0745 33.3969L83.8733 33.8517L84.6721 34.0618L85.4709 35.5891L86.2698 35.0721L87.0686 33.7185L87.8674 33.3319L88.6662 32.7157L89.465 27.8861L90.2638 26.821L91.0627 25.2269L91.8615 24.3616L92.6603 24.2676L93.4591 21.1552L94.2579 20.4114L95.0567 21.6295L95.8556 20.8691L96.6544 21.3073L97.4532 24.1747L98.252 25.0077L99.0508 24.9953L99.8496 24.0106L100.648 23.8275L101.447 23.254L102.246 22.2444L103.045 21.1644L103.844 21.2429L104.643 21.5275L105.441 21.073L106.24 20.3361L107.039 19.8118L107.838 19.5561L108.637 18.7835L109.435 18.5671L110.234 16.7838L111.033 19.0812L111.832 18.3581L112.631 19.9533L113.43 23.9667L114.228 22.2054L115.027 20.3155L115.826 13.6099L116.625 12.5606L117.424 10.086L118.222 9.71445L119.021 10.9803L119.82 10.6038L120.619 9.95615L121.418 6.50721L122.217 0.84668L123.015 47.2564L123.814 23.9804L124.613 17.5261L125.412 20.264L126.211 19.8095L127.009 18.7797L127.808 17.0423L128.607 19.2726L129.406 20.3162L130.205 20.5827L131.003 19.2639L131.802 19.0851L132.601 20.3982L133.4 20.006L134.199 14.1584L134.998 15.3777" stroke="#32CA5B" stroke-width="1.25"/>
</g>
<defs>
<clipPath id="clip0_2_871">
<rect width="135" height="50" fill="white" transform="translate(0.796387 0.84668)"/>
</clipPath>
</defs>
</svg>
