<svg width="136" height="51" viewBox="0 0 136 51" fill="none" xmlns="http://www.w3.org/2000/svg">
<g clip-path="url(#clip0_2_901)">
<path d="M0.796387 6.4005L1.5952 5.4855L2.39402 5.0022L3.19284 2.05953L3.99165 4.02362L4.79047 5.81243L5.58929 10.1589L6.3881 7.00185L7.18692 8.43455L7.98574 8.54889L8.78455 4.9771L9.58337 3.65181L10.3822 4.52755L11.181 2.57116L11.9798 1.57705L12.7786 2.86124L13.5775 2.3229L14.3763 0.84668L15.1751 3.53781L15.9739 3.78356L16.7727 9.9189L17.5715 21.207L18.3704 19.9609L19.1692 24.9762L19.968 25.283L20.7668 26.87L21.5656 32.206L22.3644 30.5844L23.1632 30.9196L23.9621 30.4931L24.7609 28.2147L25.5597 28.2582L26.3585 26.594L27.1573 24.2638L27.9562 26.2592L28.755 26.1829L29.5538 26.4167L30.3526 22.9515L31.1514 22.9851L31.9502 23.3586L32.7491 28.803L33.5479 30.8162L34.3467 31.1612L35.1455 34.1325L35.9443 30.3583L36.7431 29.3629L37.542 26.0019L38.3408 30.333L39.1396 30.4323L39.9384 37.7592L40.7372 38.4583L41.536 37.608L42.3348 39.0095L43.1337 36.6935L43.9325 39.2067L44.7313 36.856L45.5301 36.419L46.3289 35.8763L47.1277 35.5444L47.9266 35.8948L48.7254 37.3829L49.5242 37.294L50.323 41.5857L51.1218 48.7783L51.9206 43.8214L52.7195 42.5857L53.5183 45.3463L54.3171 46.6651L55.1159 45.3041L55.9147 49.6517L56.7135 48.2447L57.5124 50.8467L58.3112 48.1318L59.11 47.6552L59.9088 45.8748L60.7076 48.9686L61.5064 46.3582L62.3053 46.3316L63.1041 46.8074L63.9029 48.0498L64.7017 44.4551L65.5005 45.532L66.2993 45.8082L67.0982 45.5184L67.897 43.1023L68.6958 43.0198L69.4946 40.9306L70.2934 38.7719L71.0922 40.3509L71.8911 40.4075L72.6899 39.5076L73.4887 37.8109L74.2875 40.4228L75.0863 37.4519L75.8851 36.7821L76.684 33.3588L77.4828 35.2687L78.2816 33.6721L79.0804 34.1617L79.8792 33.6606L80.678 35.1574L81.4769 36.657L82.2757 36.2552L83.0745 34.9334L83.8733 35.3454L84.6721 37.7656L85.4709 38.2968L86.2698 36.9249L87.0686 35.3786L87.8674 33.8374L88.6662 34.5512L89.465 33.8758L90.2638 33.491L91.0627 34.9332L91.8615 35.3554L92.6603 34.4284L93.4591 36.581L94.2579 36.919L95.0567 37.3047L95.8556 39.4818L96.6544 39.5431L97.4532 40.963L98.252 41.9012L99.0508 43.0383L99.8496 40.4786L100.648 39.1383L101.447 41.5643L102.246 41.3517L103.045 39.0309L103.844 39.7057L104.643 40.6773L105.441 41.2748L106.24 40.3911L107.039 39.6817L107.838 39.9533L108.637 39.2781L109.435 38.7026L110.234 39.5168L111.033 37.672L111.832 36.3884L112.631 37.8222L113.43 34.1957L114.228 32.6393L115.027 35.5364L115.826 35.8803L116.625 35.4563L117.424 35.9282L118.222 36.1213L119.021 37.6678L119.82 35.6209L120.619 33.6902L121.418 28.0965L122.217 28.2816L123.015 28.7956L123.814 28.5349L124.613 29.9026L125.412 30.6771L126.211 29.3921L127.009 31.2204L127.808 31.7113L128.607 34.0661L129.406 36.5014L130.205 34.1247L131.003 34.4872L131.802 33.8901L132.601 28.865L133.4 31.1427L134.199 29.5618L134.998 35.9555" stroke="#FF3A33" stroke-width="1.25"/>
</g>
<defs>
<clipPath id="clip0_2_901">
<rect width="135" height="50" fill="white" transform="translate(0.796387 0.84668)"/>
</clipPath>
</defs>
</svg>
