<svg width="136" height="51" viewBox="0 0 136 51" fill="none" xmlns="http://www.w3.org/2000/svg">
<g clip-path="url(#clip0_2_518)">
<path d="M0.214844 41.5103L1.01366 39.1889L1.81248 37.993L2.61129 42.1055L3.41011 42.6244L4.20893 42.3554L5.00774 42.1432L5.80656 42.3972L6.60538 43.5482L7.40419 44.7755L8.20301 45.9691L9.00183 46.5589L9.80064 44.8113L10.5995 47.8537L11.3983 48.6136L12.1971 45.7445L12.9959 44.0485L13.7947 43.2604L14.5935 42.1471L15.3924 44.2604L16.1912 44.7852L16.99 46.0712L17.7888 43.2381L18.5876 45.9935L19.3864 46.4392L20.1853 50.5479L20.9841 48.1341L21.7829 46.6596L22.5817 48.6759L23.3805 47.2595L24.1793 45.8113L24.9782 47.2333L25.777 45.3809L26.5758 43.4764L27.3746 46.1332L28.1734 48.4776L28.9722 49.8166L29.7711 47.4836L30.5699 46.1346L31.3687 43.8739L32.1675 45.8152L32.9663 48.0905L33.7651 47.6338L34.564 49.7712L35.3628 44.4886L36.1616 43.1257L36.9604 42.646L37.7592 40.4614L38.558 37.684L39.3569 35.4054L40.1557 30.9204L40.9545 32.643L41.7533 29.0453L42.5521 28.3621L43.3509 29.1761L44.1498 28.1869L44.9486 29.9452L45.7474 30.4583L46.5462 27.7764L47.345 25.8692L48.1438 24.1813L48.9427 24.9796L49.7415 27.1508L50.5403 31.6735L51.3391 29.3708L52.1379 27.3904L52.9367 27.8954L53.7356 25.8618L54.5344 28.1407L55.3332 30.9624L56.132 27.2807L56.9308 27.5821L57.7296 23.7818L58.5285 24.0785L59.3273 26.122L60.1261 26.5393L60.9249 27.305L61.7237 30.3296L62.5225 28.9323L63.3214 25.2733L64.1202 25.4374L64.919 24.8833L65.7178 23.5223L66.5166 23.8167L67.3154 26.6623L68.1143 25.7551L68.9131 27.0486L69.7119 25.4453L70.5107 23.9186L71.3095 23.0011L72.1083 20.4368L72.9072 16.9633L73.706 16.5999L74.5048 14.8997L75.3036 15.4931L76.1024 17.3984L76.9012 23.0405L77.7001 25.2413L78.4989 28.2801L79.2977 32.9882L80.0965 31.9084L80.8953 26.6811L81.6941 29.8386L82.493 31.6281L83.2918 31.7839L84.0906 28.6509L84.8894 27.3173L85.6882 30.6381L86.487 29.1275L87.2859 30.1609L88.0847 30.4874L88.8835 29.6725L89.6823 33.8844L90.4811 32.9286L91.2799 31.91L92.0788 32.832L92.8776 32.7858L93.6764 31.4787L94.4752 30.446L95.274 32.1058L96.0728 30.5963L96.8717 33.7113L97.6705 35.53L98.4693 32.8358L99.2681 33.1832L100.067 33.9446L100.866 32.4658L101.665 36.0844L102.463 32.0737L103.262 31.1045L104.061 28.3732L104.86 24.558L105.659 22.8293L106.457 21.5757L107.256 15.1672L108.055 19.4574L108.854 16.536L109.653 19.4352L110.452 20.6261L111.25 16.3672L112.049 24.218L112.848 27.2097L113.647 24.4491L114.446 27.6703L115.244 20.8021L116.043 20.7105L116.842 19.7087L117.641 15.5835L118.44 24.5645L119.239 19.8524L120.037 16.1895L120.836 9.97909L121.635 14.1941L122.434 10.9014L123.233 14.7036L124.031 14.8539L124.83 14.1068L125.629 13.2302L126.428 9.67582L127.227 9.77107L128.025 13.793L128.824 16.9283L129.623 21.089L130.422 11.6476L131.221 15.0861L132.02 8.36493L132.818 5.74229L133.617 8.69928L134.416 0.547852" stroke="#32CA5B" stroke-width="1.25"/>
</g>
<defs>
<clipPath id="clip0_2_518">
<rect width="135" height="50" fill="white" transform="translate(0.214844 0.547852)"/>
</clipPath>
</defs>
</svg>
