<svg width="136" height="51" viewBox="0 0 136 51" fill="none" xmlns="http://www.w3.org/2000/svg">
<g clip-path="url(#clip0_16_315)">
<path d="M0.796387 18.5562L1.5952 20.7239L2.39402 19.5704L3.19284 15.9644L3.99165 18.757L4.79047 20.226L5.58929 20.6983L6.3881 19.1941L7.18692 18.5288L7.98574 18.0083L8.78455 16.4292L9.58337 14.6564L10.3822 14.84L11.181 15.5591L11.9798 13.5969L12.7786 15.7291L13.5775 14.9681L14.3763 12.9313L15.1751 15.006L15.9739 15.9577L16.7727 19.5221L17.5715 26.6453L18.3704 23.6456L19.1692 29.5222L19.968 27.0849L20.7668 31.0913L21.5656 32.9618L22.3644 31.912L23.1632 32.4356L23.9621 34.3898L24.7609 31.8805L25.5597 28.1998L26.3585 28.5757L27.1573 25.6594L27.9562 27.5937L28.755 28.0277L29.5538 26.8652L30.3526 23.5969L31.1514 21.4363L31.9502 20.8199L32.7491 26.3162L33.5479 31.6958L34.3467 34.4509L35.1455 35.3065L35.9443 32.2723L36.7431 32.3781L37.542 30.3166L38.3408 34.7478L39.1396 33.6222L39.9384 40.3435L40.7372 39.9533L41.536 34.2672L42.3348 37.4414L43.1337 36.9791L43.9325 37.1448L44.7313 34.2404L45.5301 34.4548L46.3289 34.9896L47.1277 35.9132L47.9266 39.2842L48.7254 41.549L49.5242 41.2335L50.323 44.3217L51.1218 48.6937L51.9206 42.7719L52.7195 42.1491L53.5183 46.4166L54.3171 46.9488L55.1159 44.2173L55.9147 46.7058L56.7135 47.5395L57.5124 50.8467L58.3112 48.0683L59.11 47.8953L59.9088 46.3773L60.7076 49.8583L61.5064 48.8152L62.3053 48.1042L63.1041 48.2654L63.9029 49.5961L64.7017 46.1331L65.5005 47.233L66.2993 49.009L67.0982 48.0145L67.897 45.0914L68.6958 42.0808L69.4946 41.3602L70.2934 39.8909L71.0922 40.5425L71.8911 42.2697L72.6899 38.7465L73.4887 37.7494L74.2875 33.9459L75.0863 32.8088L75.8851 33.7253L76.684 33.4202L77.4828 31.452L78.2816 29.5105L79.0804 30.5089L79.8792 28.6282L80.678 30.1604L81.4769 31.7674L82.2757 31.2902L83.0745 30.2068L83.8733 29.2931L84.6721 31.5292L85.4709 32.2473L86.2698 31.6118L87.0686 27.1452L87.8674 26.2964L88.6662 29.0683L89.465 28.0618L90.2638 29.0101L91.0627 30.1217L91.8615 29.4017L92.6603 28.3293L93.4591 30.7711L94.2579 31.8705L95.0567 32.7292L95.8556 33.7256L96.6544 32.7646L97.4532 34.5917L98.252 35.782L99.0508 37.9631L99.8496 35.5827L100.648 35.385L101.447 35.0233L102.246 35.4191L103.045 32.8649L103.844 33.0438L104.643 35.1572L105.441 36.569L106.24 36.7166L107.039 36.2024L107.838 36.506L108.637 35.535L109.435 33.754L110.234 34.2022L111.033 33.332L111.832 31.9695L112.631 31.0118L113.43 22.81L114.228 24.3145L115.027 23.9912L115.826 24.1438L116.625 23.2751L117.424 22.9477L118.222 21.9662L119.021 23.2507L119.82 15.824L120.619 14.2284L121.418 11.1885L122.217 9.61735L123.015 8.73659L123.814 7.75154L124.613 9.42214L125.412 9.45039L126.211 7.66202L127.009 6.85921L127.808 6.61828L128.607 9.84072L129.406 12.8184L130.205 10.4832L131.003 13.6555L131.802 8.22411L132.601 5.59496L133.4 3.85406L134.199 0.84668L134.998 6.88828" stroke="#32CA5B" stroke-width="1.25"/>
</g>
<defs>
<clipPath id="clip0_16_315">
<rect width="135" height="50" fill="white" transform="translate(0.796387 0.84668)"/>
</clipPath>
</defs>
</svg>
