<svg width="23" height="21" viewBox="0 0 23 21" fill="none" xmlns="http://www.w3.org/2000/svg">
<path d="M11.2497 0.500082C11.6403 0.526123 11.9268 0.708414 12.1091 1.04696L14.7653 6.55477L20.7419 7.41414C21.1325 7.49227 21.393 7.71362 21.5232 8.07821C21.6273 8.44279 21.5492 8.75529 21.2888 9.01571L16.9528 13.3126L17.9685 19.4063C18.0206 19.7709 17.8903 20.0834 17.5778 20.3438C17.2653 20.5522 16.9398 20.5652 16.6013 20.3829L11.2497 17.5313L5.89816 20.3829C5.55962 20.5652 5.2341 20.5391 4.9216 20.3048C4.6091 20.0704 4.47889 19.7709 4.53097 19.4063L5.5466 13.3126L1.21066 9.01571C0.950242 8.75529 0.872117 8.44279 0.976283 8.07821C1.10649 7.71362 1.36691 7.49227 1.75753 7.41414L7.7341 6.55477L10.3903 1.04696C10.5726 0.708414 10.8591 0.526123 11.2497 0.500082ZM11.2497 3.58602L9.17941 7.80477C9.0492 8.09123 8.81483 8.27352 8.47628 8.35164L3.86691 9.01571L7.22628 12.336C7.43462 12.5704 7.52576 12.8438 7.49972 13.1563L6.67941 17.8438L10.82 15.6563C11.1065 15.5001 11.393 15.5001 11.6794 15.6563L15.781 17.8438L14.9997 13.1563C14.9476 12.8438 15.0388 12.5704 15.2732 12.336L18.6325 9.01571L14.0232 8.35164C13.6846 8.27352 13.4502 8.09123 13.32 7.80477L11.2497 3.58602Z" fill="#0F172A"/>
</svg>
