<svg width="136" height="51" viewBox="0 0 136 51" fill="none" xmlns="http://www.w3.org/2000/svg">
<g clip-path="url(#clip0_9_355)">
<path d="M0.214844 46.0715L1.01366 43.692L1.81248 43.5719L2.61129 45.1156L3.41011 45.8961L4.20893 46.7525L5.00774 41.8961L5.80656 41.3596L6.60538 50.5479L7.40419 49.3365L8.20301 44.7196L9.00183 44.8768L9.80064 40.7045L10.5995 37.914L11.3983 39.1552L12.1971 35.8785L12.9959 33.532L13.7947 32.7678L14.5935 34.7183L15.3924 27.6445L16.1912 24.467L16.99 17.0672L17.7888 17.8461L18.5876 26.4093L19.3864 27.5958L20.1853 33.2132L20.9841 33.7012L21.7829 31.5608L22.5817 27.4425L23.3805 29.8458L24.1793 29.8949L24.9782 30.2056L25.777 30.1588L26.5758 29.2792L27.3746 31.5122L28.1734 34.3206L28.9722 32.237L29.7711 32.1536L30.5699 33.7678L31.3687 33.0904L32.1675 35.9524L32.9663 38.6124L33.7651 38.8363L34.564 42.61L35.3628 42.0436L36.1616 40.243L36.9604 39.9431L37.7592 39.1533L38.558 36.1027L39.3569 34.5237L40.1557 30.2033L40.9545 27.8801L41.7533 19.8819L42.5521 14.2847L43.3509 13.7881L44.1498 11.0936L44.9486 10.809L45.7474 12.0726L46.5462 7.94655L47.345 9.5968L48.1438 15.0499L48.9427 16.9301L49.7415 20.4675L50.5403 25.536L51.3391 23.4411L52.1379 23.0984L52.9367 23.5166L53.7356 28.5175L54.5344 27.8169L55.3332 29.4017L56.132 24.4754L56.9308 18.5334L57.7296 13.4585L58.5285 16.7278L59.3273 18.7767L60.1261 19.1107L60.9249 20.6676L61.7237 23.6262L62.5225 23.2906L63.3214 21.6171L64.1202 22.6176L64.919 19.7272L65.7178 21.4206L66.5166 19.2597L67.3154 21.7449L68.1143 17.3068L68.9131 20.6662L69.7119 21.1168L70.5107 19.6789L71.3095 18.192L72.1083 21.1102L72.9072 20.0014L73.706 19.0977L74.5048 21.6737L75.3036 25.9757L76.1024 26.399L76.9012 29.2992L77.7001 30.0808L78.4989 30.3249L79.2977 33.829L80.0965 28.0338L80.8953 30.0158L81.6941 32.1108L82.493 33.0741L83.2918 34.1479L84.0906 30.821L84.8894 31.9631L85.6882 33.1337L86.487 32.5256L87.2859 31.6927L88.0847 31.4663L88.8835 32.2201L89.6823 31.4401L90.4811 31.7498L91.2799 30.3912L92.0788 32.7718L92.8776 32.1696L93.6764 34.4307L94.4752 33.8916L95.274 36.3302L96.0728 37.1312L96.8717 36.236L97.6705 38.8683L98.4693 36.437L99.2681 35.3355L100.067 33.3915L100.866 31.4035L101.665 33.0641L102.463 30.0175L103.262 27.7123L104.061 28.2038L104.86 23.2364L105.659 11.9134L106.457 13.9445L107.256 11.5905L108.055 16.916L108.854 21.0693L109.653 27.2952L110.452 29.2642L111.25 30.0616L112.049 33.0314L112.848 34.2919L113.647 30.5876L114.446 31.924L115.244 31.7289L116.043 24.1733L116.842 20.8254L117.641 23.551L118.44 26.255L119.239 25.2821L120.037 21.8776L120.836 19.2855L121.635 20.8663L122.434 18.2191L123.233 23.7544L124.031 19.6447L124.83 20.5746L125.629 20.1626L126.428 20.124L127.227 15.7542L128.025 17.4354L128.824 23.742L129.623 22.2912L130.422 13.261L131.221 13.4947L132.02 14.7213L132.818 6.97277L133.617 8.15458L134.416 0.547852" stroke="#32CA5B" stroke-width="1.25"/>
</g>
<defs>
<clipPath id="clip0_9_355">
<rect width="135" height="50" fill="white" transform="translate(0.214844 0.547852)"/>
</clipPath>
</defs>
</svg>
