<svg width="136" height="51" viewBox="0 0 136 51" fill="none" xmlns="http://www.w3.org/2000/svg">
<g clip-path="url(#clip0_2_799)">
<path d="M0.796387 10.9968L1.5952 13.0907L2.39402 9.27409L3.19284 11.4471L3.99165 13.349L4.79047 15.649L5.58929 10.8785L6.3881 11.4069L7.18692 12.2763L7.98574 7.1565L8.78455 6.23016L9.58337 5.12635L10.3822 2.26284L11.181 2.89715L11.9798 0.84668L12.7786 3.63297L13.5775 2.46634L14.3763 5.23789L15.1751 5.10459L15.9739 14.267L16.7727 23.0324L17.5715 23.2485L18.3704 29.1819L19.1692 27.4431L19.968 28.4019L20.7668 30.8337L21.5656 31.9392L22.3644 33.2802L23.1632 33.7816L23.9621 34.5125L24.7609 31.7711L25.5597 31.1922L26.3585 29.0113L27.1573 29.876L27.9562 29.2469L28.755 27.6291L29.5538 22.9796L30.3526 22.7724L31.1514 20.3076L31.9502 24.669L32.7491 29.3707L33.5479 29.0753L34.3467 33.3529L35.1455 30.518L35.9443 32.4713L36.7431 29.1059L37.542 32.2197L38.3408 33.8749L39.1396 39.6161L39.9384 41.7895L40.7372 40.8795L41.536 40.4751L42.3348 39.8862L43.1337 41.6219L43.9325 40.8537L44.7313 38.613L45.5301 38.0526L46.3289 38.6429L47.1277 39.3652L47.9266 41.2121L48.7254 40.3387L49.5242 44.1319L50.323 50.6086L51.1218 46.0011L51.9206 43.7236L52.7195 46.4418L53.5183 45.4507L54.3171 45.9054L55.1159 49.0847L55.9147 47.2352L56.7135 50.8467L57.5124 46.7932L58.3112 47.5184L59.11 46.3256L59.9088 48.4141L60.7076 46.0311L61.5064 45.228L62.3053 45.6692L63.1041 46.0203L63.9029 42.2816L64.7017 42.017L65.5005 43.2688L66.2993 41.9244L67.0982 38.9616L67.897 40.6499L68.6958 38.3133L69.4946 38.1534L70.2934 40.9298L71.0922 41.294L71.8911 41.1631L72.6899 40.0348L73.4887 42.6411L74.2875 42.0602L75.0863 40.7149L75.8851 37.0572L76.684 39.4034L77.4828 37.7192L78.2816 38.2141L79.0804 39.4119L79.8792 39.5582L80.678 40.1149L81.4769 39.9083L82.2757 38.4675L83.0745 39.6416L83.8733 41.8713L84.6721 41.171L85.4709 39.4819L86.2698 38.5624L87.0686 37.127L87.8674 39.0188L88.6662 38.4015L89.465 37.9198L90.2638 39.494L91.0627 38.6925L91.8615 36.3026L92.6603 37.3592L93.4591 36.8536L94.2579 35.7442L95.0567 35.2681L95.8556 34.8552L96.6544 37.3027L97.4532 38.6751L98.252 38.5897L99.0508 37.1318L99.8496 35.6709L100.648 36.9271L101.447 36.9322L102.246 35.7214L103.045 35.1064L103.844 36.1684L104.643 37.198L105.441 36.7L106.24 36.4599L107.039 36.1173L107.838 36.4782L108.637 35.6647L109.435 36.9915L110.234 35.4323L111.033 34.5741L111.832 35.1225L112.631 31.8606L113.43 31.4605L114.228 32.4291L115.027 33.1104L115.826 31.7262L116.625 32.6264L117.424 30.829L118.222 32.6868L119.021 28.8161L119.82 26.9915L120.619 22.0407L121.418 16.1486L122.217 18.7404L123.015 20.1889L123.814 21.002L124.613 20.9309L125.412 17.9851L126.211 18.7931L127.009 17.3656L127.808 21.2076L128.607 23.8906L129.406 17.9871L130.205 18.5542L131.003 16.0454L131.802 17.0977L132.601 15.6481L133.4 14.5151L134.199 13.9261L134.998 17.6259" stroke="#FF3A33" stroke-width="1.25"/>
</g>
<defs>
<clipPath id="clip0_2_799">
<rect width="135" height="50" fill="white" transform="translate(0.796387 0.84668)"/>
</clipPath>
</defs>
</svg>
