<svg width="48" height="43" viewBox="0 0 48 43" fill="none" xmlns="http://www.w3.org/2000/svg">
<g clip-path="url(#clip0_3_739)">
<path d="M12.2281 4.43896H9.69109C9.53252 3.30446 9.0475 2.31402 8.25468 1.56669L11.8084 1.5847L12.2935 0H0.485022L0 1.53968H1.92143L3.90815 1.54868C6.1467 1.65673 7.51785 2.7192 7.85363 4.43896H0.485022L0 6.02367H7.8816C7.58312 7.96855 5.94152 8.96794 3.33919 8.96794H0.130583L0.149238 10.1295L7.48055 18.4402H9.65379V18.3051L2.75156 10.4807H3.42313C7.42455 10.4807 9.42063 8.58979 9.71912 6.02367H11.7338L12.2281 4.43896Z" fill="#1BC588"/>
<path d="M32.6512 42.3441C42.0907 42.3441 47.6187 34.5977 47.6187 21.1319C47.6187 7.7664 42.0109 0 32.6512 0C23.2716 0 17.6837 7.74637 17.6638 21.1319C17.6638 34.5777 23.1918 42.324 32.6512 42.3441ZM32.6512 36.9858C27.1233 36.9858 23.7904 31.4068 23.7904 21.1319C23.8104 10.897 27.1432 5.25789 32.6512 5.25789C38.1393 5.25789 41.492 10.897 41.492 21.1319C41.492 31.4068 38.1592 36.9858 32.6512 36.9858Z" fill="white"/>
</g>
<defs>
<clipPath id="clip0_3_739">
<rect width="48" height="42.4828" fill="white"/>
</clipPath>
</defs>
</svg>
