<svg width="20" height="20" viewBox="0 0 20 20" fill="none" xmlns="http://www.w3.org/2000/svg">
<g clip-path="url(#clip0_15_15758)">
<path d="M0.589844 11.2078L3.14297 8.69219L7.48984 7.92188L7.06016 10.1969L1.18359 12.0031L0.803906 11.8391L0.589844 11.2078Z" fill="#CA2C31"/>
<path d="M3.58438 9.3376L0.8125 11.8563L2.85156 12.8501L5.94688 11.2704V10.5251L6.57969 8.81885L3.58438 9.3376Z" fill="#A02422"/>
<path d="M10.1441 13.7733L8.80508 14.3546L7.54102 17.0343C7.54102 17.0343 8.65352 19.4983 8.70352 19.4983C8.75352 19.4983 9.38633 19.5483 9.38633 19.5483L11.6363 17.0327L12.2051 12.7358L10.1441 13.7733Z" fill="#A02422"/>
<path d="M8.82852 15.7562C8.82852 15.7562 9.57383 15.6046 10.1051 15.3515C10.6363 15.0983 11.2926 14.7202 11.2926 14.7202L11.052 16.8187L8.70039 19.4952C8.70039 19.4952 8.6082 19.3812 8.21758 18.5312C7.90664 17.853 7.79883 17.6108 7.79883 17.6108L8.82852 15.7562Z" fill="#CA2C31"/>
<path d="M4.93422 12.6029C4.93422 12.6029 4.03734 12.5279 3.05453 13.7701C2.15765 14.9045 1.73734 16.7514 1.57484 17.2264C1.41234 17.7014 1.02328 17.7982 1.15297 18.0154C1.28265 18.2326 1.84359 18.2201 2.53578 18.1342C3.22797 18.0482 3.82172 17.831 3.82172 17.831C3.82172 17.831 3.79203 17.906 3.69203 18.0685C3.65609 18.1264 3.53109 18.2092 3.54047 18.2951C3.56234 18.4998 5.31547 18.5045 6.71547 17.0639C8.22797 15.5092 7.49359 14.2342 7.49359 14.2342L4.93422 12.6029Z" fill="#F7D74D"/>
<path d="M5.20435 13.3267C5.20435 13.3267 4.23716 13.3782 3.43716 14.6204C2.63716 15.8626 2.26529 17.3017 2.34185 17.3985C2.41685 17.4954 3.90747 16.9563 4.26529 17.0642C4.5106 17.1392 4.38404 17.3876 4.44966 17.4532C4.50435 17.5079 5.15122 17.6001 6.1981 16.4657C7.24653 15.3313 6.9981 13.7376 6.9981 13.7376L5.20435 13.3267Z" fill="#FBF0B4"/>
<path d="M5.67934 11.6313C5.67934 11.6313 5.1934 12.0642 5.01997 12.3126C4.84653 12.561 4.84653 12.5829 4.85747 12.6579C4.8684 12.7329 5.04809 13.5563 5.79653 14.2782C6.71528 15.1642 7.53559 15.2829 7.65434 15.2829C7.77309 15.2829 8.56215 14.397 8.56215 14.397L5.67934 11.6313Z" fill="#858585"/>
<path d="M7.82812 14.2563C7.82812 14.2563 8.61563 14.7734 9.93594 14.3297C11.7406 13.7234 13.0641 12.3672 14.7031 10.6547C16.2844 9.00156 17.6109 6.95 17.6109 6.95L16.6812 3.83594L7.82812 14.2563Z" fill="#437687"/>
<path d="M10.623 12.5515L10.8402 11.8765L11.384 11.953C11.384 11.953 11.798 12.1483 12.1027 12.2905C12.4074 12.4327 12.7996 12.5405 12.7996 12.5405L12.0262 13.1937C12.0262 13.1937 11.6043 13.0343 11.2965 12.8999C10.9496 12.7483 10.623 12.5515 10.623 12.5515Z" fill="#3F545F"/>
<path d="M13.1742 2.52197C13.1742 2.52197 11.6711 3.39385 9.51638 5.43291C7.57419 7.27041 6.13513 8.93291 5.78669 10.347C5.49606 11.5313 5.65075 12.2501 6.31169 13.0267C7.01013 13.8485 7.82888 14.2563 7.82888 14.2563C7.82888 14.2563 8.4445 14.2657 11.0133 12.2892C14.2179 9.82197 16.7851 5.69072 16.7851 5.69072L13.1742 2.52197Z" fill="#8DAFBF"/>
<path d="M16.2787 6.53741C16.2787 6.53741 14.9709 5.9796 14.0381 4.67804C13.1115 3.38585 13.185 2.51241 13.185 2.51241C13.185 2.51241 13.96 1.9046 15.7022 1.20929C16.874 0.742099 18.4693 0.503037 18.9943 0.892099C19.5193 1.28116 18.635 3.23272 18.635 3.23272L17.024 6.35147L16.2787 6.53741Z" fill="#D83F22"/>
<path d="M10.6512 12.5626C10.6512 12.5626 9.52148 11.986 8.80273 11.1657C7.44336 9.61728 7.16211 7.91728 7.16211 7.91728L7.84492 7.11572C7.84492 7.11572 8.01523 8.92197 9.47305 10.4829C10.423 11.5001 11.4152 11.9657 11.4152 11.9657C11.4152 11.9657 11.2168 12.1329 11.0043 12.2954C10.8684 12.4001 10.6512 12.5626 10.6512 12.5626Z" fill="#6896A5"/>
<path d="M17.6102 6.9501C17.6102 6.9501 18.2883 6.13291 18.9305 4.29072C19.8273 1.72197 19.0461 0.943848 19.0461 0.943848C19.0461 0.943848 18.782 2.16572 17.8648 3.86416C17.1289 5.2251 16.2383 6.52041 16.2383 6.52041C16.2383 6.52041 16.7289 6.74072 16.9945 6.81729C17.3289 6.91416 17.6102 6.9501 17.6102 6.9501Z" fill="#A02422"/>
<path d="M6.22103 10.8844C6.42416 11.0782 6.73197 10.8751 6.93353 10.4001C7.13666 9.92506 7.13353 9.65944 6.97728 9.54694C6.78353 9.40631 6.45853 9.71413 6.31634 9.98756C6.16009 10.2907 6.06791 10.7376 6.22103 10.8844Z" fill="#B3E1EE"/>
<path d="M13.2742 3.14551C13.2742 3.14551 12.0851 4.0002 10.8164 5.1627C9.65232 6.22988 8.88045 7.06426 8.7742 7.25801C8.6617 7.46582 8.66014 7.75957 8.74764 7.90957C8.83514 8.05957 9.02889 8.1377 9.20545 8.00645C9.38201 7.87363 10.6398 6.48301 11.7758 5.48926C12.8148 4.57988 13.6164 4.00332 13.6164 4.00332C13.6164 4.00332 13.9414 3.42832 13.8883 3.29707C13.8351 3.16426 13.2742 3.14551 13.2742 3.14551Z" fill="#B3E1EE"/>
<path d="M13.2734 3.1454C13.2734 3.1454 14.1516 2.47196 15.1078 1.99852C15.9969 1.5579 16.8813 1.19071 17.0406 1.50946C17.1922 1.81258 16.2016 2.22508 15.3297 2.78133C14.4578 3.33758 13.6188 4.00165 13.6188 4.00165C13.6188 4.00165 13.4906 3.76727 13.4078 3.55008C13.3156 3.31415 13.2734 3.1454 13.2734 3.1454Z" fill="#ED6A65"/>
<path d="M13.9984 6.13274C13.128 5.33118 11.9171 5.54681 11.3202 6.25931C10.7077 6.99368 10.753 8.11556 11.4765 8.79056C12.1343 9.40306 13.3577 9.54212 14.0952 8.68274C14.7515 7.92024 14.7109 6.78743 13.9984 6.13274Z" fill="#E1E1E1"/>
<path d="M11.7698 6.54205C11.2526 7.04987 11.2807 8.05612 11.8963 8.51549C12.4338 8.91705 13.1963 8.89674 13.6744 8.40768C14.1526 7.91862 14.1526 7.02955 13.7041 6.57018C13.1885 6.04362 12.3619 5.9608 11.7698 6.54205Z" fill="#3F545F"/>
<path d="M7.81236 12.0139C7.81236 12.0139 8.77955 11.0327 8.8858 11.1389C8.99205 11.2452 8.97799 11.8405 8.51549 12.503C8.05143 13.1655 7.03111 14.3452 6.2233 15.1405C5.42643 15.9233 4.30299 16.8186 4.19674 16.803C4.11393 16.7905 3.77799 16.6233 3.64361 16.4608C3.51236 16.2998 3.90455 15.5389 4.06236 15.2873C4.22174 15.0358 7.81236 12.0139 7.81236 12.0139Z" fill="#A02524"/>
<path d="M3.31674 15.9139C3.30424 16.1389 3.64799 16.4671 3.64799 16.4671L8.88549 11.1405C8.88549 11.1405 8.64018 10.8639 7.9183 11.3124C7.19018 11.7655 6.55268 12.3093 5.61205 13.2202C4.30111 14.4921 3.32924 15.6889 3.31674 15.9139Z" fill="#CA2C31"/>
<path d="M2.97715 5.77336C2.80372 5.9468 2.7959 6.22492 2.98965 6.3843C3.16153 6.52649 3.44122 6.4343 3.5459 6.30617C3.65059 6.17805 3.63809 5.89992 3.49903 5.76242C3.35997 5.62336 3.0834 5.66867 2.97715 5.77336Z" fill="white"/>
<path opacity="0.5" d="M6.40869 5.57044C6.27744 5.71575 6.31962 5.93138 6.4415 6.01107C6.56337 6.09075 6.74619 6.08294 6.83525 5.97357C6.91494 5.87513 6.92431 5.67825 6.80244 5.55638C6.69619 5.45169 6.49306 5.47669 6.40869 5.57044Z" fill="white"/>
<path d="M8.67948 1.85767C8.67948 1.85767 8.87011 1.31392 8.98261 1.30767C9.09667 1.30142 9.26073 1.85142 9.26073 1.85142C9.26073 1.85142 9.82479 1.85767 9.86229 1.94048C9.91073 2.04673 9.50136 2.40298 9.50136 2.40298C9.50136 2.40298 9.63417 2.93423 9.57167 2.9983C9.50136 3.06861 9.01542 2.78892 9.01542 2.78892C9.01542 2.78892 8.51542 3.13736 8.40761 3.04204C8.31386 2.95923 8.50917 2.39673 8.50917 2.39673C8.50917 2.39673 8.04042 2.05455 8.06542 1.95923C8.10136 1.82486 8.67948 1.85767 8.67948 1.85767Z" fill="white"/>
<path d="M15.1579 14.8952C15.3469 14.9999 15.5844 14.9405 15.6719 14.7389C15.7516 14.5592 15.6047 14.3452 15.4719 14.2874C15.3391 14.2295 15.1063 14.3061 15.0219 14.4577C14.9391 14.6077 15.0438 14.8327 15.1579 14.8952Z" fill="white"/>
<path d="M17.8424 10.2875C17.7346 10.1203 17.5018 10.0656 17.3502 10.2C17.2033 10.3313 17.2393 10.5375 17.3221 10.6422C17.4049 10.7469 17.6268 10.786 17.7612 10.7C17.8955 10.6141 17.908 10.3875 17.8424 10.2875Z" fill="white"/>
</g>
<defs>
<clipPath id="clip0_15_15758">
<rect width="20" height="20" fill="white"/>
</clipPath>
</defs>
</svg>
