<svg width="136" height="51" viewBox="0 0 136 51" fill="none" xmlns="http://www.w3.org/2000/svg">
<g clip-path="url(#clip0_16_293)">
<path d="M0.796387 22.5498L1.5952 25.2699L2.39402 25.1734L3.19284 20.5748L3.99165 22.2889L4.79047 26.0099L5.58929 25.8492L6.3881 24.2148L7.18692 24.9773L7.98574 21.3948L8.78455 18.3345L9.58337 18.8703L10.3822 17.2918L11.181 22.0423L11.9798 22.9491L12.7786 23.9529L13.5775 24.3524L14.3763 23.8095L15.1751 24.8132L15.9739 27.1123L16.7727 28.1807L17.5715 33.5736L18.3704 30.8737L19.1692 34.1116L19.968 34.6729L20.7668 35.9906L21.5656 37.7702L22.3644 37.2271L23.1632 35.5624L23.9621 36.9117L24.7609 36.118L25.5597 37.516L26.3585 37.5436L27.1573 35.5312L27.9562 35.8463L28.755 35.7805L29.5538 34.0823L30.3526 30.8073L31.1514 27.4792L31.9502 27.1514L32.7491 32.8926L33.5479 33.3849L34.3467 35.8245L35.1455 39.5755L35.9443 37.7914L36.7431 37.1099L37.542 37.0842L38.3408 39.1063L39.1396 41.016L39.9384 44.0747L40.7372 42.1507L41.536 39.8328L42.3348 41.3117L43.1337 40.1722L43.9325 40.7002L44.7313 37.6693L45.5301 37.7936L46.3289 35.0605L47.1277 34.6013L47.9266 36.9524L48.7254 39.4267L49.5242 38.3516L50.323 42.3087L51.1218 46.9436L51.9206 45.6584L52.7195 43.0676L53.5183 46.7118L54.3171 48.0424L55.1159 44.9221L55.9147 50.0942L56.7135 49.7814L57.5124 50.8467L58.3112 47.0538L59.11 46.4952L59.9088 45.113L60.7076 47.9781L61.5064 47.6011L62.3053 46.5514L63.1041 46.5559L63.9029 49.0349L64.7017 45.504L65.5005 46.3243L66.2993 45.3684L67.0982 45.1736L67.897 43.2622L68.6958 44.6182L69.4946 42.3851L70.2934 40.4411L71.0922 41.892L71.8911 41.8061L72.6899 40.2605L73.4887 37.2877L74.2875 36.3008L75.0863 36.2327L75.8851 29.7487L76.684 30.1243L77.4828 29.5874L78.2816 26.7066L79.0804 26.3108L79.8792 27.7326L80.678 26.8452L81.4769 25.785L82.2757 23.2334L83.0745 25.133L83.8733 25.8794L84.6721 26.6994L85.4709 26.4367L86.2698 24.7242L87.0686 20.1187L87.8674 20.9597L88.6662 22.788L89.465 23.2059L90.2638 22.3828L91.0627 24.0092L91.8615 24.8226L92.6603 24.8167L93.4591 25.5857L94.2579 25.2129L95.0567 24.781L95.8556 28.5912L96.6544 27.1588L97.4532 29.7037L98.252 30.2609L99.0508 31.4593L99.8496 29.445L100.648 29.0417L101.447 28.9922L102.246 29.7438L103.045 27.8247L103.844 29.2465L104.643 31.0476L105.441 31.9119L106.24 33.0034L107.039 31.9028L107.838 31.9759L108.637 31.2452L109.435 30.5152L110.234 30.1136L111.033 31.5028L111.832 31.1805L112.631 32.5311L113.43 26.643L114.228 29.2122L115.027 29.4324L115.826 28.5455L116.625 23.2209L117.424 25.228L118.222 25.4508L119.021 23.3436L119.82 19.8654L120.619 10.6949L121.418 0.84668L122.217 5.45234L123.015 7.08514L123.814 8.66605L124.613 10.8264L125.412 9.95616L126.211 10.7602L127.009 11.934L127.808 11.6887L128.607 14.5259L129.406 14.8037L130.205 13.1523L131.003 14.9478L131.802 10.5223L132.601 12.7405L133.4 12.6758L134.199 11.0548L134.998 15.1354" stroke="#32CA5B" stroke-width="1.25"/>
</g>
<defs>
<clipPath id="clip0_16_293">
<rect width="135" height="50" fill="white" transform="translate(0.796387 0.84668)"/>
</clipPath>
</defs>
</svg>
