<svg width="136" height="51" viewBox="0 0 136 51" fill="none" xmlns="http://www.w3.org/2000/svg">
<g clip-path="url(#clip0_2_939)">
<path d="M0.796387 4.04254L1.5952 5.20191L2.39402 5.35234L3.19284 4.15674L3.99165 5.61871L4.79047 10.996L5.58929 12.4464L6.3881 5.82841L7.18692 6.47522L7.98574 5.64902L8.78455 2.40569L9.58337 1.4874L10.3822 3.85348L11.181 2.86123L11.9798 1.74729L12.7786 2.95651L13.5775 1.24211L14.3763 0.97829L15.1751 1.00162L15.9739 0.84668L16.7727 5.77857L17.5715 16.1669L18.3704 26.2545L19.1692 34.462L19.968 31.4817L20.7668 36.5074L21.5656 38.0561L22.3644 35.9472L23.1632 33.6319L23.9621 36.6514L24.7609 37.613L25.5597 37.6737L26.3585 36.9376L27.1573 35.0263L27.9562 33.0787L28.755 34.0901L29.5538 33.0998L30.3526 28.8292L31.1514 29.7228L31.9502 30.6568L32.7491 35.7989L33.5479 35.854L34.3467 36.4346L35.1455 36.335L35.9443 33.3633L36.7431 35.0974L37.542 31.5044L38.3408 34.2312L39.1396 36.6698L39.9384 43.5348L40.7372 39.2865L41.536 39.3695L42.3348 40.1245L43.1337 38.8618L43.9325 39.0297L44.7313 37.7829L45.5301 38.0072L46.3289 37.0584L47.1277 35.4612L47.9266 35.1903L48.7254 35.6405L49.5242 37.3189L50.323 42.5356L51.1218 50.8467L51.9206 43.1529L52.7195 42.1066L53.5183 46.1973L54.3171 45.0358L55.1159 42.898L55.9147 48.8899L56.7135 46.8757L57.5124 50.6075L58.3112 47.4089L59.11 48.1316L59.9088 46.6194L60.7076 49.8079L61.5064 47.3589L62.3053 46.8527L63.1041 46.9529L63.9029 48.7685L64.7017 45.1087L65.5005 46.6818L66.2993 47.8243L67.0982 47.5968L67.897 46.047L68.6958 45.5741L69.4946 43.1317L70.2934 42.2204L71.0922 41.5638L71.8911 40.8915L72.6899 39.3717L73.4887 38.6847L74.2875 40.9169L75.0863 40.7201L75.8851 38.2658L76.684 36.0038L77.4828 36.1629L78.2816 33.9419L79.0804 34.3728L79.8792 36.6399L80.678 38.1011L81.4769 38.9558L82.2757 37.2619L83.0745 36.7182L83.8733 38.1321L84.6721 39.1074L85.4709 40.8376L86.2698 38.913L87.0686 37.899L87.8674 36.1713L88.6662 37.7356L89.465 37.1314L90.2638 36.389L91.0627 38.8863L91.8615 38.2978L92.6603 36.9287L93.4591 39.506L94.2579 39.8809L95.0567 39.1544L95.8556 43.5129L96.6544 42.3578L97.4532 44.1054L98.252 45.3912L99.0508 47.3438L99.8496 45.5408L100.648 42.8121L101.447 44.1904L102.246 45.3018L103.045 42.5657L103.844 44.3702L104.643 45.103L105.441 45.5454L106.24 44.5316L107.039 44.2447L107.838 43.7284L108.637 42.7605L109.435 42.1117L110.234 42.4175L111.033 41.3693L111.832 40.4189L112.631 40.2758L113.43 35.8462L114.228 34.3279L115.027 34.1311L115.826 36.6501L116.625 35.809L117.424 36.2665L118.222 35.676L119.021 37.5654L119.82 35.0854L120.619 31.9453L121.418 23.9747L122.217 25.0429L123.015 19.8456L123.814 19.9728L124.613 21.8489L125.412 22.7359L126.211 20.8872L127.009 20.3555L127.808 21.9836L128.607 28.337L129.406 31.4846L130.205 25.9993L131.003 27.2282L131.802 21.1345L132.601 16.721L133.4 16.1023L134.199 16.3567L134.998 21.7112" stroke="#FF3A33" stroke-width="1.25"/>
</g>
<defs>
<clipPath id="clip0_2_939">
<rect width="135" height="50" fill="white" transform="translate(0.796387 0.84668)"/>
</clipPath>
</defs>
</svg>
