<svg width="48" height="48" viewBox="0 0 48 48" fill="none" xmlns="http://www.w3.org/2000/svg">
<g clip-path="url(#clip0_0_229)">
<mask id="mask0_0_229" style="mask-type:luminance" maskUnits="userSpaceOnUse" x="0" y="0" width="48" height="48">
<path d="M48 0H0V48H48V0Z" fill="white"/>
</mask>
<g mask="url(#mask0_0_229)">
<path d="M38.2041 0.122449H9.79592C4.45341 0.122449 0.122452 4.45341 0.122452 9.79592V38.2041C0.122452 43.5466 4.45341 47.8775 9.79592 47.8775H38.2041C43.5466 47.8775 47.8776 43.5466 47.8776 38.2041V9.79592C47.8776 4.45341 43.5466 0.122449 38.2041 0.122449Z" fill="url(#paint0_linear_0_229)" stroke="#3F3F3F" stroke-width="0.244898"/>
<path d="M17.9886 16.0008L15.9184 20.5705L18.185 23.2835L30.4307 22.9009L33.3055 21.0957L30.9819 16.0192C30.8801 15.7965 30.5808 15.7561 30.4235 15.9436L27.1689 19.8241H21.8892L18.4974 15.9262C18.3514 15.7583 18.0805 15.798 17.9886 16.0008Z" fill="#6FB29E"/>
<path d="M12.1837 17.4772L14.5609 30.2757H34.3806L36.8133 17.4772L30.4036 22.7192C30.0186 23.034 29.4454 22.9437 29.1758 22.5258L24.457 15.2104L19.7931 22.518C19.5243 22.9391 18.948 23.0307 18.5619 22.7137L12.1837 17.4772Z" fill="#00D092"/>
<path d="M16.4564 26.4558L17.5008 25.0317C17.5552 24.9575 17.6654 24.9558 17.7221 25.0282L18.8376 26.4522C18.8787 26.5046 18.8767 26.5788 18.8331 26.629L17.7174 27.9108C17.6609 27.9758 17.5594 27.9741 17.5049 27.9073L16.4607 26.6257C16.4207 26.5767 16.4189 26.5069 16.4564 26.4558Z" fill="#B1FFE8"/>
<path d="M30.1859 26.4558L31.2304 25.0317C31.2847 24.9575 31.3949 24.9558 31.4518 25.0282L32.5672 26.4522C32.6083 26.5046 32.6063 26.5788 32.5626 26.629L31.447 27.9108C31.3904 27.9758 31.2889 27.9741 31.2346 27.9073L30.1903 26.6257C30.1504 26.5767 30.1486 26.5069 30.1859 26.4558Z" fill="#B1FFE8"/>
<path d="M22.5779 25.4281L24.3145 23.1492C24.4081 23.0263 24.5929 23.0256 24.6874 23.1479L26.4494 25.4269C26.5148 25.5115 26.5149 25.6296 26.4495 25.7143L24.6875 27.9959C24.593 28.1182 24.408 28.1176 24.3144 27.9946L22.5778 25.713C22.5138 25.6289 22.5138 25.5123 22.5779 25.4281Z" fill="#B1FFE8"/>
<path d="M12.213 18.9653C13.0068 18.9653 13.6504 18.3218 13.6504 17.5279C13.6504 16.7341 13.0068 16.0905 12.213 16.0905C11.4191 16.0905 10.7756 16.7341 10.7756 17.5279C10.7756 18.3218 11.4191 18.9653 12.213 18.9653Z" fill="#92FFDE"/>
<path d="M36.764 18.9653C37.5578 18.9653 38.2014 18.3218 38.2014 17.5279C38.2014 16.7341 37.5578 16.0905 36.764 16.0905C35.9701 16.0905 35.3266 16.7341 35.3266 17.5279C35.3266 18.3218 35.9701 18.9653 36.764 18.9653Z" fill="#92FFDE"/>
<path d="M24.4808 16.5892C25.2746 16.5892 25.9182 15.9456 25.9182 15.1517C25.9182 14.3579 25.2746 13.7143 24.4808 13.7143C23.6869 13.7143 23.0434 14.3579 23.0434 15.1517C23.0434 15.9456 23.6869 16.5892 24.4808 16.5892Z" fill="#92FFDE"/>
<path d="M14.5331 30.2985H34.3805V33.06C34.3805 33.3669 34.1318 33.6156 33.825 33.6156H15.0888C14.7819 33.6156 14.5331 33.3669 14.5331 33.06V30.2985Z" fill="#81CFB7"/>
</g>
</g>
<defs>
<linearGradient id="paint0_linear_0_229" x1="24" y1="8.61593e-09" x2="24" y2="48" gradientUnits="userSpaceOnUse">
<stop stop-color="#515151" stop-opacity="0.61"/>
<stop offset="1" stop-color="#1B1B1B" stop-opacity="0"/>
</linearGradient>
<clipPath id="clip0_0_229">
<rect width="48" height="48" fill="white"/>
</clipPath>
</defs>
</svg>
