<svg width="136" height="51" viewBox="0 0 136 51" fill="none" xmlns="http://www.w3.org/2000/svg">
<g clip-path="url(#clip0_2_424)">
<path d="M0.214844 44.4825L1.01366 43.3168L1.81248 41.0593L2.61129 41.9739L3.41011 43.6997L4.20893 43.292L5.00774 41.7876L5.80656 41.196L6.60538 45.7995L7.40419 46.2869L8.20301 47.0361L9.00183 46.257L9.80064 45.8477L10.5995 46.4459L11.3983 43.0494L12.1971 41.9267L12.9959 39.5439L13.7947 39.6109L14.5935 39.446L15.3924 38.5147L16.1912 39.1784L16.99 38.3415L17.7888 38.2376L18.5876 38.7476L19.3864 39.6105L20.1853 40.5625L20.9841 39.0792L21.7829 37.4072L22.5817 39.8176L23.3805 41.514L24.1793 39.3492L24.9782 40.9118L25.777 39.5125L26.5758 36.9853L27.3746 42.039L28.1734 42.68L28.9722 43.3407L29.7711 43.23L30.5699 43.1766L31.3687 42.1752L32.1675 43.9706L32.9663 44.7943L33.7651 42.1689L34.564 50.5479L35.3628 46.1372L36.1616 45.4722L36.9604 45.9048L37.7592 45.7269L38.558 42.8726L39.3569 41.4166L40.1557 37.2411L40.9545 37.7152L41.7533 34.7899L42.5521 33.9778L43.3509 32.5159L44.1498 31.3016L44.9486 27.1549L45.7474 29.7681L46.5462 28.5852L47.345 27.5849L48.1438 29.4894L48.9427 27.1078L49.7415 30.1795L50.5403 32.3102L51.3391 29.7921L52.1379 34.1311L52.9367 30.7202L53.7356 29.5755L54.5344 32.1391L55.3332 33.4261L56.132 29.3057L56.9308 29.881L57.7296 27.8799L58.5285 28.3683L59.3273 26.0689L60.1261 24.034L60.9249 27.822L61.7237 32.8025L62.5225 30.8372L63.3214 29.4031L64.1202 30.5623L64.919 24.916L65.7178 28.4877L66.5166 24.5297L67.3154 28.8409L68.1143 29.2276L68.9131 26.4099L69.7119 23.7225L70.5107 25.089L71.3095 23.7098L72.1083 23.1781L72.9072 23.193L73.706 23.0313L74.5048 22.1307L75.3036 22.6534L76.1024 20.9029L76.9012 24.3005L77.7001 27.2247L78.4989 20.2748L79.2977 22.9435L80.0965 18.0385L80.8953 11.0138L81.6941 16.4945L82.493 12.9814L83.2918 11.4432L84.0906 10.8438L84.8894 16.363L85.6882 15.6003L86.487 15.2366L87.2859 15.6385L88.0847 15.763L88.8835 18.2876L89.6823 19.9731L90.4811 21.5825L91.2799 22.8536L92.0788 26.7563L92.8776 25.9288L93.6764 25.4018L94.4752 24.6413L95.274 27.6656L96.0728 26.5601L96.8717 23.4845L97.6705 22.7531L98.4693 25.4977L99.2681 24.6562L100.067 23.3035L100.866 22.8216L101.665 24.3231L102.463 18.7266L103.262 11.5283L104.061 1.02014L104.86 8.90185L105.659 7.8517L106.457 5.87341L107.256 5.75636L108.055 9.02493L108.854 8.80099L109.653 9.51793L110.452 8.25298L111.25 5.74145L112.049 11.2948L112.848 14.6553L113.647 12.2571L114.446 10.2231L115.244 4.86226L116.043 8.9296L116.842 5.72883L117.641 0.547852L118.44 10.9308L119.239 12.5296L120.037 10.9799L120.836 6.7728L121.635 9.466L122.434 10.3141L123.233 18.3694L124.031 20.0605L124.83 17.3217L125.629 18.2289L126.428 20.0796L127.227 19.1948L128.025 19.8815L128.824 22.5128L129.623 28.5122L130.422 24.2417L131.221 23.6436L132.02 21.117L132.818 21.3314L133.617 21.9325L134.416 18.5289" stroke="#32CA5B" stroke-width="1.25"/>
</g>
<defs>
<clipPath id="clip0_2_424">
<rect width="135" height="50" fill="white" transform="translate(0.214844 0.547852)"/>
</clipPath>
</defs>
</svg>
