<svg width="136" height="51" viewBox="0 0 136 51" fill="none" xmlns="http://www.w3.org/2000/svg">
<g clip-path="url(#clip0_2_949)">
<path d="M0.796387 5.21728L1.5952 6.08822L2.39402 1.40376L3.19284 3.43177L3.99165 6.7492L4.79047 11.6881L5.58929 8.81977L6.3881 6.69272L7.18692 8.47355L7.98574 5.26693L8.78455 3.92161L9.58337 4.57933L10.3822 1.50433L11.181 1.87691L11.9798 2.8242L12.7786 0.84668L13.5775 1.46002L14.3763 2.24189L15.1751 3.32516L15.9739 9.77916L16.7727 14.3682L17.5715 16.8981L18.3704 22.0212L19.1692 21.0719L19.968 23.2988L20.7668 24.3313L21.5656 26.6823L22.3644 27.2758L23.1632 28.4408L23.9621 26.9276L24.7609 28.373L25.5597 25.431L26.3585 23.3224L27.1573 22.5551L27.9562 23.9418L28.755 24.2902L29.5538 19.2986L30.3526 21.5171L31.1514 20.5025L31.9502 25.9001L32.7491 25.5892L33.5479 25.8383L34.3467 30.1907L35.1455 24.9874L35.9443 24.2727L36.7431 20.24L37.542 24.6848L38.3408 25.5512L39.1396 33.671L39.9384 38.671L40.7372 36.136L41.536 36.1128L42.3348 35.3618L43.1337 38.3771L43.9325 36.1971L44.7313 35.1552L45.5301 34.0513L46.3289 32.5916L47.1277 34.0027L47.9266 35.9739L48.7254 34.1207L49.5242 37.8913L50.323 47.7237L51.1218 43.8798L51.9206 42.9637L52.7195 46.3819L53.5183 47.9544L54.3171 46.7681L55.1159 50.2523L55.9147 47.7333L56.7135 50.8467L57.5124 48.1769L58.3112 46.4732L59.11 44.8036L59.9088 48.0542L60.7076 44.7598L61.5064 44.786L62.3053 45.3329L63.1041 46.2077L63.9029 42.2396L64.7017 43.3681L65.5005 44.7243L66.2993 43.7656L67.0982 39.7394L67.897 41.5153L68.6958 39.0898L69.4946 37.0547L70.2934 39.1236L71.0922 39.9262L71.8911 38.0257L72.6899 36.423L73.4887 34.2715L74.2875 38.7147L75.0863 33.408L75.8851 29.8054L76.684 32.4627L77.4828 30.2813L78.2816 30.0795L79.0804 30.1018L79.8792 30.6873L80.678 32.3073L81.4769 30.9509L82.2757 29.9639L83.0745 31.2556L83.8733 33.062L84.6721 33.5109L85.4709 32.7642L86.2698 30.7826L87.0686 28.8508L87.8674 28.8467L88.6662 28.7579L89.465 27.9075L90.2638 29.6281L91.0627 30.5323L91.8615 29.6687L92.6603 31.9854L93.4591 31.1794L94.2579 32.0691L95.0567 33.4773L95.8556 32.3984L96.6544 33.5931L97.4532 33.7465L98.252 35.8861L99.0508 33.5324L99.8496 31.9217L100.648 31.9972L101.447 33.7286L102.246 30.8541L103.045 30.8745L103.844 32.5118L104.643 33.1191L105.441 32.1856L106.24 32.0769L107.039 32.0277L107.838 31.2374L108.637 29.9359L109.435 31.1922L110.234 28.9653L111.033 28.1187L111.832 28.1125L112.631 23.7305L113.43 24.8227L114.228 27.1782L115.027 26.6814L115.826 24.8781L116.625 26.4469L117.424 27.0567L118.222 28.0989L119.021 26.1896L119.82 23.7621L120.619 17.7313L121.418 15.3755L122.217 17.1013L123.015 16.3299L123.814 16.6895L124.613 18.6745L125.412 18.0615L126.211 20.0775L127.009 19.8381L127.808 22.2587L128.607 24.0298L129.406 21.923L130.205 23.7135L131.003 20.5391L131.802 15.6063L132.601 18.2375L133.4 17.8637L134.199 17.8693L134.998 22.1953" stroke="#FF3A33" stroke-width="1.25"/>
</g>
<defs>
<clipPath id="clip0_2_949">
<rect width="135" height="50" fill="white" transform="translate(0.796387 0.84668)"/>
</clipPath>
</defs>
</svg>
