<svg width="136" height="51" viewBox="0 0 136 51" fill="none" xmlns="http://www.w3.org/2000/svg">
<g clip-path="url(#clip0_2_911)">
<path d="M0.796387 7.67489L1.5952 4.49046L2.39402 1.54027L3.19284 0.84668L3.99165 4.96027L4.79047 7.35712L5.58929 11.4487L6.3881 13.4127L7.18692 13.9262L7.98574 8.02133L8.78455 6.81481L9.58337 7.98411L10.3822 6.66723L11.181 5.80798L11.9798 4.64891L12.7786 3.68488L13.5775 6.20505L14.3763 4.03612L15.1751 1.42469L15.9739 7.70684L16.7727 17.8153L17.5715 29.9851L18.3704 23.9224L19.1692 34.5298L19.968 30.6963L20.7668 35.7815L21.5656 38.5963L22.3644 40.1348L23.1632 36.6456L23.9621 37.4512L24.7609 39.4683L25.5597 36.3821L26.3585 34.2486L27.1573 32.2079L27.9562 30.7422L28.755 32.6895L29.5538 32.4417L30.3526 28.5693L31.1514 30.754L31.9502 28.4416L32.7491 36.7907L33.5479 36.4209L34.3467 37.9436L35.1455 37.3249L35.9443 34.178L36.7431 34.5873L37.542 35.8044L38.3408 39.6537L39.1396 41.7722L39.9384 50.8467L40.7372 48.5959L41.536 42.9892L42.3348 47.6712L43.1337 46.8871L43.9325 48.8253L44.7313 46.6128L45.5301 44.345L46.3289 42.8054L47.1277 41.2884L47.9266 38.9506L48.7254 39.3518L49.5242 35.7565L50.323 38.6021L51.1218 47.893L51.9206 41.1025L52.7195 40.2291L53.5183 42.7533L54.3171 42.5622L55.1159 35.9752L55.9147 43.1572L56.7135 40.733L57.5124 45.3538L58.3112 41.9415L59.11 38.9959L59.9088 36.1728L60.7076 42.8454L61.5064 40.5866L62.3053 40.6224L63.1041 42.963L63.9029 46.2012L64.7017 38.7698L65.5005 40.5396L66.2993 41.1542L67.0982 38.5229L67.897 35.1639L68.6958 34.6224L69.4946 32.5945L70.2934 33.1373L71.0922 35.0638L71.8911 37.2946L72.6899 32.6777L73.4887 33.7775L74.2875 33.2533L75.0863 30.2152L75.8851 29.0211L76.684 28.8319L77.4828 30.3441L78.2816 28.1101L79.0804 29.9715L79.8792 28.9052L80.678 31.8316L81.4769 30.7497L82.2757 26.5313L83.0745 20.0617L83.8733 18.371L84.6721 16.9319L85.4709 20.7114L86.2698 22.4567L87.0686 15.8183L87.8674 19.8763L88.6662 24.2831L89.465 24.8566L90.2638 23.2525L91.0627 25.4965L91.8615 25.6185L92.6603 26.7385L93.4591 29.7523L94.2579 29.9841L95.0567 29.5936L95.8556 34.0825L96.6544 32.4487L97.4532 32.8953L98.252 38.269L99.0508 40.4982L99.8496 37.919L100.648 36.9534L101.447 38.9476L102.246 37.4593L103.045 33.688L103.844 35.1569L104.643 36.6307L105.441 35.6286L106.24 33.6679L107.039 35.2171L107.838 34.3364L108.637 34.6212L109.435 35.7411L110.234 39.9485L111.033 37.9167L111.832 39.0426L112.631 38.2063L113.43 33.9071L114.228 35.8171L115.027 40.8593L115.826 40.9142L116.625 38.8516L117.424 38.6013L118.222 37.0538L119.021 38.7103L119.82 34.0033L120.619 32.9504L121.418 25.7231L122.217 24.847L123.015 24.5142L123.814 25.7039L124.613 27.6863L125.412 30.6049L126.211 29.6524L127.009 31.6784L127.808 32.6717L128.607 37.0785L129.406 40.0059L130.205 37.7551L131.003 39.832L131.802 36.3826L132.601 39.459L133.4 38.4452L134.199 38.4379L134.998 45.5729" stroke="#FF3A33" stroke-width="1.25"/>
</g>
<defs>
<clipPath id="clip0_2_911">
<rect width="135" height="50" fill="white" transform="translate(0.796387 0.84668)"/>
</clipPath>
</defs>
</svg>
