<svg width="136" height="51" viewBox="0 0 136 51" fill="none" xmlns="http://www.w3.org/2000/svg">
<g clip-path="url(#clip0_2_791)">
<path d="M0.796387 26.8079L1.5952 21.8863L2.39402 24.1203L3.19284 29.6866L3.99165 25.7959L4.79047 27.7459L5.58929 26.1882L6.3881 32.8491L7.18692 27.3678L7.98574 29.9216L8.78455 25.0668L9.58337 31.0794L10.3822 27.3098L11.181 31.4561L11.9798 24.8289L12.7786 19.1252L13.5775 35.4211L14.3763 26.9703L15.1751 26.1591L15.9739 30.8726L16.7727 25.1951L17.5715 26.2491L18.3704 35.5718L19.1692 23.3864L19.968 14.6234L20.7668 37.0366L21.5656 26.2254L22.3644 36.768L23.1632 27.3503L23.9621 26.9912L24.7609 34.2447L25.5597 2.25066L26.3585 31.4753L27.1573 23.3116L27.9562 34.0613L28.755 19.9503L29.5538 16.4807L30.3526 27.9295L31.1514 27.5612L31.9502 33.3703L32.7491 30.6387L33.5479 33.387L34.3467 28.6213L35.1455 32.9056L35.9443 22.3642L36.7431 0.84668L37.542 37.5373L38.3408 44.0051L39.1396 40.9228L39.9384 29.4734L40.7372 1.39972L41.536 30.3165L42.3348 26.1915L43.1337 28.5776L43.9325 36.9374L44.7313 16.9251L45.5301 15.3627L46.3289 32.899L47.1277 30.7733L47.9266 22.4624L48.7254 25.1614L49.5242 29.0694L50.323 27.216L51.1218 31.4147L51.9206 22.7131L52.7195 23.6318L53.5183 46.1501L54.3171 31.9194L55.1159 27.2885L55.9147 40.1399L56.7135 23.8222L57.5124 28.3306L58.3112 36.8803L59.11 25.9724L59.9088 30.1561L60.7076 13.4779L61.5064 16.9025L62.3053 26.4667L63.1041 25.759L63.9029 19.8471L64.7017 24.9212L65.5005 26.0222L66.2993 20.0319L67.0982 23.8179L67.897 31.833L68.6958 25.8849L69.4946 36.4698L70.2934 29.8867L71.0922 22.2829L71.8911 27.6174L72.6899 30.8304L73.4887 33.6266L74.2875 31.7442L75.0863 27.9429L75.8851 16.3085L76.684 20.1584L77.4828 26.9109L78.2816 29.4392L79.0804 18.4883L79.8792 26.9671L80.678 30.789L81.4769 28.5699L82.2757 23.8841L83.0745 37.2335L83.8733 31.2739L84.6721 22.6435L85.4709 28.5178L86.2698 28.0885L87.0686 29.8238L87.8674 28.6927L88.6662 26.6048L89.465 26.5901L90.2638 27.912L91.0627 27.7215L91.8615 30.0661L92.6603 29.7816L93.4591 25.8314L94.2579 28.3392L95.0567 25.1225L95.8556 33.266L96.6544 29.8668L97.4532 32.1904L98.252 32.1582L99.0508 29.6757L99.8496 25.4872L100.648 30.823L101.447 31.155L102.246 31.7152L103.045 22.94L103.844 29.84L104.643 32.5393L105.441 29.6316L106.24 31.1475L107.039 31.8947L107.838 31.3512L108.637 29.9307L109.435 31.77L110.234 30.063L111.033 27.3147L111.832 23.7124L112.631 34.6657L113.43 22.4592L114.228 22.7032L115.027 41.8075L115.826 28.7674L116.625 25.5671L117.424 24.2107L118.222 27.4292L119.021 18.0727L119.82 6.96722L120.619 28.2757L121.418 25.2222L122.217 32.1287L123.015 27.0611L123.814 24.1209L124.613 29.8209L125.412 28.8407L126.211 26.4073L127.009 18.5111L127.808 35.6758L128.607 31.7031L129.406 37.6381L130.205 23.3951L131.003 27.1133L131.802 28.8029L132.601 35.8457L133.4 23.3912L134.199 22.8904L134.998 50.8467" stroke="#FF3A33" stroke-width="1.25"/>
</g>
<defs>
<clipPath id="clip0_2_791">
<rect width="135" height="50" fill="white" transform="translate(0.796387 0.84668)"/>
</clipPath>
</defs>
</svg>
