<svg width="17" height="15" viewBox="0 0 17 15" fill="none" xmlns="http://www.w3.org/2000/svg">
<path d="M8.67139 0.692904C8.94482 0.711133 9.14534 0.838737 9.27295 1.07572L11.1323 4.93119L15.3159 5.53275C15.5894 5.58744 15.7716 5.74238 15.8628 5.99759C15.9357 6.2528 15.881 6.47155 15.6987 6.65384L12.6636 9.66165L13.3745 13.9273C13.411 14.1825 13.3198 14.4012 13.1011 14.5835C12.8823 14.7294 12.6545 14.7385 12.4175 14.6109L8.67139 12.6148L4.92529 14.6109C4.68831 14.7385 4.46045 14.7202 4.2417 14.5562C4.02295 14.3921 3.9318 14.1825 3.96826 13.9273L4.6792 9.66165L1.64404 6.65384C1.46175 6.47155 1.40706 6.2528 1.47998 5.99759C1.57113 5.74238 1.75342 5.58744 2.02686 5.53275L6.21045 4.93119L8.06982 1.07572C8.19743 0.838737 8.39795 0.711133 8.67139 0.692904ZM8.67139 2.85306L7.22217 5.80619C7.13102 6.00671 6.96696 6.13431 6.72998 6.189L3.50342 6.65384L5.85498 8.97806C6.00081 9.14212 6.06462 9.33353 6.04639 9.55228L5.47217 12.8335L8.37061 11.3023C8.57113 11.1929 8.77165 11.1929 8.97217 11.3023L11.8433 12.8335L11.2964 9.55228C11.2599 9.33353 11.3237 9.14212 11.4878 8.97806L13.8394 6.65384L10.6128 6.189C10.3758 6.13431 10.2118 6.00671 10.1206 5.80619L8.67139 2.85306Z" fill="#0F172A"/>
</svg>
