<svg width="12" height="13" viewBox="0 0 12 13" fill="none" xmlns="http://www.w3.org/2000/svg">
<path d="M5.99944 0.5C6.40569 0.5 6.79632 0.539063 7.17132 0.617188C7.26507 0.632813 7.38225 0.671875 7.52288 0.734375C7.64788 0.8125 7.75725 0.929688 7.851 1.08594C7.89788 1.16406 7.93694 1.25781 7.96819 1.36719L8.17913 2.25781C8.21038 2.33594 8.26507 2.39844 8.34319 2.44531C8.42132 2.49219 8.49944 2.50781 8.57757 2.49219L9.46819 2.23438C9.56194 2.20312 9.65569 2.1875 9.74944 2.1875C9.93694 2.1875 10.0932 2.22656 10.2182 2.30469C10.3588 2.38281 10.4604 2.46094 10.5229 2.53906C11.0385 3.13281 11.4213 3.8125 11.6713 4.57812C11.7182 4.67188 11.7416 4.78906 11.7416 4.92969C11.7573 5.08594 11.7182 5.24219 11.6244 5.39844C11.5619 5.47656 11.4994 5.55469 11.4369 5.63281L10.7573 6.26562C10.7104 6.32813 10.6869 6.40625 10.6869 6.5C10.6869 6.59375 10.7104 6.67187 10.7573 6.73438L11.4369 7.36719C11.4994 7.44531 11.5619 7.52344 11.6244 7.60156C11.7026 7.77344 11.7416 7.92969 11.7416 8.07031C11.7416 8.22656 11.7182 8.34375 11.6713 8.42188C11.4213 9.1875 11.0385 9.86719 10.5229 10.4609C10.4604 10.5391 10.3588 10.6172 10.2182 10.6953C10.0932 10.7734 9.93694 10.8125 9.74944 10.8125C9.65569 10.8125 9.56194 10.7969 9.46819 10.7656L8.57757 10.5078C8.49944 10.4922 8.42132 10.5078 8.34319 10.5547C8.26507 10.6016 8.21038 10.6641 8.17913 10.7422L7.96819 11.6328C7.93694 11.7422 7.89788 11.8359 7.851 11.9141C7.75725 12.0703 7.64788 12.1875 7.52288 12.2656C7.38225 12.3281 7.26507 12.3672 7.17132 12.3828C6.79632 12.4609 6.40569 12.5 5.99944 12.5C5.59319 12.5 5.20257 12.4609 4.82757 12.3828C4.73382 12.3672 4.61663 12.3281 4.476 12.2656C4.351 12.1875 4.24163 12.0703 4.14788 11.9141C4.101 11.8359 4.06194 11.7422 4.03069 11.6328L3.81975 10.7422C3.7885 10.6641 3.73382 10.6016 3.65569 10.5547C3.57757 10.5078 3.49944 10.4922 3.42132 10.5078L2.53069 10.7656C2.43694 10.7969 2.34319 10.8125 2.24944 10.8125C2.06194 10.8125 1.90569 10.7734 1.78069 10.6953C1.64007 10.6172 1.54632 10.5391 1.49944 10.4609C0.968192 9.86719 0.577567 9.1875 0.327567 8.42188C0.280692 8.32812 0.257254 8.21094 0.257254 8.07031C0.241629 7.91406 0.280692 7.75781 0.374442 7.60156C0.436942 7.52344 0.499442 7.44531 0.561942 7.36719L1.24163 6.73438C1.2885 6.67187 1.31194 6.59375 1.31194 6.5C1.31194 6.40625 1.2885 6.32813 1.24163 6.26562L0.561942 5.63281C0.499442 5.55469 0.436942 5.47656 0.374442 5.39844C0.280692 5.22656 0.241629 5.07031 0.257254 4.92969C0.257254 4.77344 0.280692 4.65625 0.327567 4.57812C0.577567 3.82812 0.968192 3.14844 1.49944 2.53906C1.54632 2.46094 1.64007 2.38281 1.78069 2.30469C1.90569 2.22656 2.06194 2.1875 2.24944 2.1875C2.34319 2.1875 2.43694 2.20312 2.53069 2.23438L3.42132 2.49219C3.49944 2.50781 3.57757 2.49219 3.65569 2.44531C3.73382 2.39844 3.7885 2.33594 3.81975 2.25781L4.03069 1.36719C4.06194 1.25781 4.101 1.16406 4.14788 1.08594C4.24163 0.929688 4.351 0.8125 4.476 0.734375C4.61663 0.671875 4.73382 0.632813 4.82757 0.617188C5.20257 0.539063 5.59319 0.5 5.99944 0.5ZM5.10882 1.69531L4.92132 2.53906C4.81194 2.91406 4.57757 3.20312 4.21819 3.40625C3.85882 3.60938 3.48382 3.66406 3.09319 3.57031L2.29632 3.33594C1.90569 3.78906 1.60882 4.30469 1.40569 4.88281L2.01507 5.46875C2.29632 5.75 2.43694 6.09375 2.43694 6.5C2.43694 6.90625 2.29632 7.25781 2.01507 7.55469L1.40569 8.11719C1.60882 8.69531 1.90569 9.21094 2.29632 9.66406L3.11663 9.42969C3.49163 9.32031 3.85882 9.375 4.21819 9.59375C4.57757 9.79688 4.81194 10.0859 4.92132 10.4609L5.10882 11.3047C5.70257 11.3984 6.29632 11.3984 6.89007 11.3047L7.101 10.4609C7.21038 10.0859 7.43694 9.79688 7.78069 9.59375C8.14007 9.39062 8.51507 9.33594 8.90569 9.42969L9.70257 9.66406C10.0932 9.21094 10.3901 8.69531 10.5932 8.11719L9.98382 7.53125C9.70257 7.25 9.56194 6.90625 9.56194 6.5C9.56194 6.09375 9.70257 5.74219 9.98382 5.44531L10.5932 4.88281C10.3901 4.30469 10.0932 3.78906 9.70257 3.33594L8.90569 3.57031C8.51507 3.67969 8.14007 3.625 7.78069 3.40625C7.43694 3.20312 7.21038 2.90625 7.101 2.51562L6.89007 1.69531C6.29632 1.60156 5.70257 1.60156 5.10882 1.69531ZM4.87444 6.5C4.89007 6.92188 5.07757 7.25 5.43694 7.48438C5.81194 7.67188 6.18694 7.67188 6.56194 7.48438C6.92132 7.25 7.10882 6.92188 7.12444 6.5C7.10882 6.07812 6.92132 5.75 6.56194 5.51562C6.18694 5.32812 5.81194 5.32812 5.43694 5.51562C5.07757 5.75 4.89007 6.07812 4.87444 6.5ZM5.99944 8.75C5.59319 8.75 5.21819 8.64844 4.87444 8.44531C4.53069 8.24219 4.25725 7.96875 4.05413 7.625C3.851 7.26563 3.74944 6.89062 3.74944 6.5C3.74944 6.10938 3.851 5.73437 4.05413 5.375C4.25725 5.03125 4.53069 4.75781 4.87444 4.55469C5.21819 4.35156 5.59319 4.25 5.99944 4.25C6.40569 4.25 6.78069 4.35156 7.12444 4.55469C7.46819 4.75781 7.74163 5.03125 7.94475 5.375C8.14788 5.73437 8.24944 6.10938 8.24944 6.5C8.24944 6.89062 8.14788 7.26563 7.94475 7.625C7.74163 7.96875 7.46819 8.24219 7.12444 8.44531C6.78069 8.64844 6.40569 8.75 5.99944 8.75Z" fill="#0F172A"/>
</svg>
