<svg width="136" height="51" viewBox="0 0 136 51" fill="none" xmlns="http://www.w3.org/2000/svg">
<g clip-path="url(#clip0_9_369)">
<path d="M0.214844 50.3439L1.01366 50.5479L1.81248 48.8736L2.61129 49.7062L3.41011 48.9487L4.20893 50.1005L5.00774 48.4686L5.80656 47.0401L6.60538 48.891L7.40419 48.8926L8.20301 48.2716L9.00183 46.9326L9.80064 44.1779L10.5995 43.65L11.3983 39.2957L12.1971 36.2295L12.9959 31.9085L13.7947 28.4943L14.5935 27.2096L15.3924 15.2012L16.1912 18.3627L16.99 20.4049L17.7888 20.1148L18.5876 20.5026L19.3864 18.6753L20.1853 21.0812L20.9841 19.268L21.7829 18.6873L22.5817 17.4833L23.3805 17.9L24.1793 18.7196L24.9782 20.2526L25.777 19.5237L26.5758 17.3737L27.3746 17.1551L28.1734 19.7579L28.9722 21.8962L29.7711 18.8072L30.5699 19.3888L31.3687 18.8864L32.1675 20.2764L32.9663 20.385L33.7651 20.5545L34.564 24.7644L35.3628 22.1422L36.1616 19.0376L36.9604 19.5266L37.7592 18.8105L38.558 19.2405L39.3569 20.741L40.1557 20.7515L40.9545 22.4177L41.7533 22.3982L42.5521 20.2291L43.3509 19.9141L44.1498 14.8026L44.9486 12.976L45.7474 12.7105L46.5462 9.63269L47.345 7.4081L48.1438 12.7866L48.9427 12.2243L49.7415 14.3803L50.5403 15.9349L51.3391 13.8823L52.1379 13.9208L52.9367 14.3394L53.7356 15.9973L54.5344 16.1725L55.3332 15.7795L56.132 14.3134L56.9308 14.0508L57.7296 13.0137L58.5285 16.5924L59.3273 16.0766L60.1261 15.9752L60.9249 18.27L61.7237 19.1L62.5225 19.5495L63.3214 18.0195L64.1202 19.1365L64.919 18.2731L65.7178 18.3391L66.5166 17.3253L67.3154 18.84L68.1143 18.3991L68.9131 18.9031L69.7119 19.5748L70.5107 18.8633L71.3095 18.0631L72.1083 18.3663L72.9072 19.1593L73.706 20.142L74.5048 19.5202L75.3036 20.4852L76.1024 20.6933L76.9012 22.4566L77.7001 23.6067L78.4989 24.7336L79.2977 26.4361L80.0965 25.9775L80.8953 26.0183L81.6941 27.0398L82.493 27.7837L83.2918 27.3461L84.0906 25.035L84.8894 25.9845L85.6882 26.4846L86.487 26.3131L87.2859 26.7209L88.0847 25.4844L88.8835 26.1634L89.6823 27.2903L90.4811 25.8627L91.2799 23.618L92.0788 21.1952L92.8776 23.3515L93.6764 23.1589L94.4752 21.5955L95.274 21.4669L96.0728 22.4953L96.8717 23.5585L97.6705 25.7298L98.4693 25.4535L99.2681 24.464L100.067 23.5957L100.866 21.6598L101.665 24.3156L102.463 19.9558L103.262 16.071L104.061 14.1038L104.86 5.49526L105.659 0.547852L106.457 6.02515L107.256 3.1554L108.055 5.83964L108.854 6.68212L109.653 9.35335L110.452 10.3633L111.25 13.0119L112.049 16.8058L112.848 18.7555L113.647 17.9232L114.446 19.1819L115.244 17.1811L116.043 16.6295L116.842 13.0475L117.641 15.4434L118.44 17.4213L119.239 17.8097L120.037 14.5991L120.836 13.9804L121.635 14.7275L122.434 14.102L123.233 17.6276L124.031 18.3034L124.83 16.0247L125.629 15.023L126.428 15.6957L127.227 15.1175L128.025 14.8325L128.824 18.0097L129.623 18.1588L130.422 15.0262L131.221 11.3493L132.02 12.1784L132.818 9.01848L133.617 7.14034L134.416 13.1705" stroke="#32CA5B" stroke-width="1.25"/>
</g>
<defs>
<clipPath id="clip0_9_369">
<rect width="135" height="50" fill="white" transform="translate(0.214844 0.547852)"/>
</clipPath>
</defs>
</svg>
