<svg width="136" height="51" viewBox="0 0 136 51" fill="none" xmlns="http://www.w3.org/2000/svg">
<g clip-path="url(#clip0_2_444)">
<path d="M0.214844 13.7538L1.01366 13.1354L1.81248 11.8999L2.61129 13.3662L3.41011 12.5017L4.20893 13.7752L5.00774 13.507L5.80656 18.034L6.60538 24.3331L7.40419 21.4461L8.20301 22.2689L9.00183 23.4391L9.80064 24.0479L10.5995 23.6976L11.3983 21.6949L12.1971 19.2828L12.9959 16.0255L13.7947 18.0841L14.5935 23.4779L15.3924 17.7647L16.1912 17.7253L16.99 17.647L17.7888 11.2188L18.5876 4.90946L19.3864 13.8837L20.1853 14.7806L20.9841 9.81515L21.7829 9.18292L22.5817 14.093L23.3805 15.6534L24.1793 18.2099L24.9782 18.8465L25.777 18.3108L26.5758 16.0458L27.3746 17.8339L28.1734 12.8002L28.9722 19.3591L29.7711 20.8157L30.5699 23.6259L31.3687 21.2069L32.1675 21.3826L32.9663 22.7686L33.7651 24.0222L34.564 27.6023L35.3628 21.8116L36.1616 21.0456L36.9604 22.6341L37.7592 24.4432L38.558 21.6204L39.3569 15.3357L40.1557 14.7077L40.9545 16.6274L41.7533 11.035L42.5521 14.0553L43.3509 15.2739L44.1498 11.9562L44.9486 20.0349L45.7474 21.0833L46.5462 13.3925L47.345 16.5451L48.1438 23.7017L48.9427 21.3813L49.7415 22.8922L50.5403 25.2951L51.3391 21.5641L52.1379 21.6581L52.9367 23.2406L53.7356 23.1162L54.5344 25.291L55.3332 25.0559L56.132 18.8112L56.9308 19.2506L57.7296 15.0253L58.5285 15.9618L59.3273 17.3155L60.1261 17.7685L60.9249 20.8539L61.7237 21.9324L62.5225 21.5443L63.3214 21.5633L64.1202 10.2281L64.919 8.81487L65.7178 8.51258L66.5166 7.30949L67.3154 12.9889L68.1143 12.4705L68.9131 16.4998L69.7119 7.50035L70.5107 7.31288L71.3095 0.547852L72.1083 10.7152L72.9072 14.3212L73.706 9.93619L74.5048 8.46752L75.3036 14.726L76.1024 15.189L76.9012 19.8576L77.7001 20.1092L78.4989 21.0109L79.2977 24.3607L80.0965 21.0047L80.8953 21.8789L81.6941 24.4631L82.493 24.2364L83.2918 24.8187L84.0906 21.9298L84.8894 23.4012L85.6882 25.5461L86.487 25.1977L87.2859 24.2602L88.0847 25.6002L88.8835 25.786L89.6823 27.241L90.4811 26.5419L91.2799 26.3256L92.0788 28.7175L92.8776 28.7702L93.6764 29.3497L94.4752 27.9971L95.274 29.0445L96.0728 31.4636L96.8717 33.3804L97.6705 36.7057L98.4693 36.0876L99.2681 34.9001L100.067 34.1158L100.866 33.0261L101.665 34.2809L102.463 32.2699L103.262 35.7201L104.061 34.8376L104.86 35.3269L105.659 34.1736L106.457 33.1359L107.256 29.3729L108.055 32.1995L108.854 29.867L109.653 34.5193L110.452 33.0144L111.25 33.4915L112.049 39.1825L112.848 41.1551L113.647 42.2123L114.446 40.78L115.244 39.7808L116.043 40.7751L116.842 38.9698L117.641 38.1568L118.44 49.6251L119.239 48.2683L120.037 43.0372L120.836 42.6846L121.635 46.7535L122.434 48.0645L123.233 50.5479L124.031 48.5695L124.83 47.7308L125.629 48.4942L126.428 45.7281L127.227 43.4401L128.025 45.2088L128.824 45.9254L129.623 47.2279L130.422 40.7876L131.221 44.3397L132.02 43.2319L132.818 39.272L133.617 36.7869L134.416 30.6428" stroke="#FF3A33" stroke-width="1.25"/>
</g>
<defs>
<clipPath id="clip0_2_444">
<rect width="135" height="50" fill="white" transform="translate(0.214844 0.547852)"/>
</clipPath>
</defs>
</svg>
