<svg width="136" height="51" viewBox="0 0 136 51" fill="none" xmlns="http://www.w3.org/2000/svg">
<g clip-path="url(#clip0_9_287)">
<path d="M0.214844 50.5479L1.01366 48.6019L1.81248 47.6126L2.61129 48.101L3.41011 46.8143L4.20893 48.0866L5.00774 44.3757L5.80656 45.5652L6.60538 47.9033L7.40419 47.1063L8.20301 46.6445L9.00183 45.0633L9.80064 37.6181L10.5995 37.7021L11.3983 34.5084L12.1971 31.2477L12.9959 28.4801L13.7947 25.1173L14.5935 26.4063L15.3924 24.1107L16.1912 23.8714L16.99 23.2184L17.7888 24.4786L18.5876 24.7726L19.3864 26.844L20.1853 26.1554L20.9841 20.736L21.7829 20.0482L22.5817 21.7877L23.3805 19.9966L24.1793 20.6664L24.9782 20.1061L25.777 19.4798L26.5758 16.6957L27.3746 18.779L28.1734 19.6827L28.9722 22.2477L29.7711 23.4757L30.5699 24.6399L31.3687 24.3486L32.1675 25.2254L32.9663 26.8146L33.7651 26.8384L34.564 32.2563L35.3628 29.8388L36.1616 30.519L36.9604 29.0375L37.7592 29.4778L38.558 24.9504L39.3569 22.8013L40.1557 24.5032L40.9545 24.4932L41.7533 23.471L42.5521 19.8859L43.3509 19.3853L44.1498 22.6427L44.9486 17.2923L45.7474 14.6212L46.5462 11.1943L47.345 9.28068L48.1438 13.244L48.9427 10.1458L49.7415 11.6485L50.5403 13.0361L51.3391 13.277L52.1379 12.3639L52.9367 13.3217L53.7356 12.0253L54.5344 13.019L55.3332 14.7172L56.132 10.5753L56.9308 7.64296L57.7296 5.96337L58.5285 5.49028L59.3273 6.27304L60.1261 5.46419L60.9249 8.57495L61.7237 11.0278L62.5225 6.811L63.3214 6.87747L64.1202 8.13275L64.919 7.59832L65.7178 7.54874L66.5166 5.18953L67.3154 8.63663L68.1143 5.54267L68.9131 8.60536L69.7119 10.774L70.5107 9.80235L71.3095 6.9085L72.1083 9.36253L72.9072 8.05648L73.706 7.03094L74.5048 3.722L75.3036 6.5281L76.1024 5.81466L76.9012 8.38581L77.7001 10.1244L78.4989 13.7411L79.2977 15.7165L80.0965 14.4164L80.8953 8.38764L81.6941 8.72956L82.493 9.60593L83.2918 9.05558L84.0906 3.62692L84.8894 4.92007L85.6882 6.14165L86.487 3.52643L87.2859 1.54558L88.0847 1.34343L88.8835 1.76568L89.6823 3.74263L90.4811 2.65823L91.2799 0.547852L92.0788 5.01976L92.8776 6.01727L93.6764 7.60466L94.4752 6.23229L95.274 8.63248L96.0728 9.80976L96.8717 10.6167L97.6705 13.3619L98.4693 12.4623L99.2681 12.3369L100.067 12.8166L100.866 10.8807L101.665 14.1808L102.463 12.6171L103.262 14.1949L104.061 11.2312L104.86 12.0032L105.659 10.0693L106.457 12.0098L107.256 8.62392L108.055 10.4916L108.854 11.1196L109.653 14.0083L110.452 16.455L111.25 17.7929L112.049 22.8759L112.848 23.7799L113.647 22.387L114.446 23.2251L115.244 20.5356L116.043 23.5342L116.842 22.8701L117.641 23.4258L118.44 27.8019L119.239 29.31L120.037 28.3061L120.836 25.9188L121.635 27.8068L122.434 29.0912L123.233 31.8853L124.031 32.9435L124.83 31.155L125.629 31.324L126.428 31.3467L127.227 30.1229L128.025 31.1654L128.824 33.9275L129.623 35.5756L130.422 31.4124L131.221 31.2665L132.02 29.7722L132.818 27.2472L133.617 26.4387L134.416 25.7903" stroke="#32CA5B" stroke-width="1.25"/>
</g>
<defs>
<clipPath id="clip0_9_287">
<rect width="135" height="50" fill="white" transform="translate(0.214844 0.547852)"/>
</clipPath>
</defs>
</svg>
