<svg width="14" height="14" viewBox="0 0 14 14" fill="none" xmlns="http://www.w3.org/2000/svg">
<path d="M1.3125 1.53125C1.27604 1.13021 1.05729 0.911458 0.65625 0.875C0.255208 0.911458 0.0364583 1.13021 0 1.53125V11.1562C0.0182292 11.7214 0.209635 12.1862 0.574219 12.5508C0.938802 12.9154 1.40365 13.1068 1.96875 13.125H13.3438C13.7448 13.0885 13.9635 12.8698 14 12.4688C13.9635 12.0677 13.7448 11.849 13.3438 11.8125H1.96875C1.56771 11.776 1.34896 11.5573 1.3125 11.1562V1.53125ZM8.75 1.3125C8.73177 1.03906 8.58594 0.893229 8.3125 0.875C8.03906 0.893229 7.89323 1.03906 7.875 1.3125V2.625C7.61979 2.625 7.41016 2.70703 7.24609 2.87109C7.08203 3.03516 7 3.24479 7 3.5V6.125C7 6.38021 7.08203 6.58984 7.24609 6.75391C7.41016 6.91797 7.61979 7 7.875 7V8.3125C7.89323 8.58594 8.03906 8.73177 8.3125 8.75C8.58594 8.73177 8.73177 8.58594 8.75 8.3125V7C9.00521 7 9.21484 6.91797 9.37891 6.75391C9.54297 6.58984 9.625 6.38021 9.625 6.125V3.5C9.625 3.24479 9.54297 3.03516 9.37891 2.87109C9.21484 2.70703 9.00521 2.625 8.75 2.625V1.3125ZM10.5 6.125V7.875C10.5 8.13021 10.582 8.33984 10.7461 8.50391C10.9102 8.66797 11.1198 8.75 11.375 8.75V10.0625C11.3932 10.3359 11.5391 10.4818 11.8125 10.5C12.0859 10.4818 12.2318 10.3359 12.25 10.0625V8.75C12.5052 8.75 12.7148 8.66797 12.8789 8.50391C13.043 8.33984 13.125 8.13021 13.125 7.875V6.125C13.125 5.86979 13.043 5.66016 12.8789 5.49609C12.7148 5.33203 12.5052 5.25 12.25 5.25V3.9375C12.2318 3.66406 12.0859 3.51823 11.8125 3.5C11.5391 3.51823 11.3932 3.66406 11.375 3.9375V5.25C11.1198 5.25 10.9102 5.33203 10.7461 5.49609C10.582 5.66016 10.5 5.86979 10.5 6.125ZM4.375 3.5C4.11979 3.5 3.91016 3.58203 3.74609 3.74609C3.58203 3.91016 3.5 4.11979 3.5 4.375V7.875C3.5 8.13021 3.58203 8.33984 3.74609 8.50391C3.91016 8.66797 4.11979 8.75 4.375 8.75V10.0625C4.39323 10.3359 4.53906 10.4818 4.8125 10.5C5.08594 10.4818 5.23177 10.3359 5.25 10.0625V8.75C5.50521 8.75 5.71484 8.66797 5.87891 8.50391C6.04297 8.33984 6.125 8.13021 6.125 7.875V4.375C6.125 4.11979 6.04297 3.91016 5.87891 3.74609C5.71484 3.58203 5.50521 3.5 5.25 3.5V2.1875C5.23177 1.91406 5.08594 1.76823 4.8125 1.75C4.53906 1.76823 4.39323 1.91406 4.375 2.1875V3.5Z" fill="#1E293B"/>
</svg>
