<svg width="136" height="51" viewBox="0 0 136 51" fill="none" xmlns="http://www.w3.org/2000/svg">
<g clip-path="url(#clip0_9_417)">
<path d="M0.214844 41.1519L1.01366 41.2296L1.81248 39.2626L2.61129 36.2941L3.41011 38.4057L4.20893 39.5935L5.00774 39.5157L5.80656 42.5395L6.60538 48.8541L7.40419 50.5479L8.20301 48.5068L9.00183 42.4161L9.80064 43.824L10.5995 42.9255L11.3983 36.5465L12.1971 28.8481L12.9959 31.1095L13.7947 21.771L14.5935 17.8826L15.3924 9.63049L16.1912 2.11799L16.99 6.20485L17.7888 5.55988L18.5876 10.7348L19.3864 12.8227L20.1853 16.5808L20.9841 14.372L21.7829 12.9074L22.5817 14.9002L23.3805 16.2924L24.1793 16.031L24.9782 18.1093L25.777 17.9488L26.5758 14.2257L27.3746 20.722L28.1734 15.0525L28.9722 20.7802L29.7711 18.5295L30.5699 17.1638L31.3687 14.0941L32.1675 19.4463L32.9663 26.0126L33.7651 21.9457L34.564 28.671L35.3628 23.4117L36.1616 22.7767L36.9604 22.9769L37.7592 22.3381L38.558 14.6524L39.3569 11.0462L40.1557 12.472L40.9545 9.79741L41.7533 9.19061L42.5521 6.02439L43.3509 7.35653L44.1498 6.52784L44.9486 3.11379L45.7474 11.4176L46.5462 2.51298L47.345 0.908228L48.1438 10.6618L48.9427 8.29051L49.7415 12.9968L50.5403 15.1304L51.3391 11.4038L52.1379 11.8484L52.9367 13.5675L53.7356 11.9127L54.5344 15.5551L55.3332 20.1871L56.132 15.005L56.9308 9.8141L57.7296 0.547852L58.5285 9.34405L59.3273 6.99956L60.1261 9.34807L60.9249 14.7748L61.7237 21.6447L62.5225 24.5724L63.3214 19.2197L64.1202 21.9623L64.919 19.9002L65.7178 25.4024L66.5166 26.2418L67.3154 31.2651L68.1143 33.2838L68.9131 39.4423L69.7119 40.3524L70.5107 37.5562L71.3095 35.0797L72.1083 37.6062L72.9072 36.2173L73.706 35.692L74.5048 32.3873L75.3036 36.0866L76.1024 38.8543L76.9012 39.3132L77.7001 40.0124L78.4989 43.7121L79.2977 44.1388L80.0965 41.5204L80.8953 36.9909L81.6941 39.4284L82.493 40.2905L83.2918 41.5686L84.0906 42.5085L84.8894 41.7981L85.6882 44.6538L86.487 41.7533L87.2859 40.4162L88.0847 40.4718L88.8835 44.0155L89.6823 42.4791L90.4811 41.2582L91.2799 39.7948L92.0788 40.3818L92.8776 41.4028L93.6764 35.0841L94.4752 31.7214L95.274 35.5875L96.0728 40.3566L96.8717 40.1649L97.6705 39.6925L98.4693 37.4175L99.2681 39.8198L100.067 36.6007L100.866 33.897L101.665 41.6589L102.463 40.5808L103.262 38.6116L104.061 38.4008L104.86 33.9514L105.659 36.4567L106.457 37.1843L107.256 29.0738L108.055 14.9865L108.854 16.3981L109.653 19.6086L110.452 22.449L111.25 13.0715L112.049 19.4798L112.848 20.3634L113.647 15.0572L114.446 22.6115L115.244 22.7453L116.043 33.2422L116.842 35.199L117.641 35.4912L118.44 34.9353L119.239 34.9165L120.037 33.391L120.836 25.1L121.635 25.8544L122.434 26.6806L123.233 32.5333L124.031 31.3427L124.83 26.2532L125.629 28.0322L126.428 31.1174L127.227 21.2755L128.025 25.3021L128.824 28.3034L129.623 33.6355L130.422 23.9109L131.221 23.7818L132.02 20.7705L132.818 15.0876L133.617 18.6958L134.416 8.59904" stroke="#32CA5B" stroke-width="1.25"/>
</g>
<defs>
<clipPath id="clip0_9_417">
<rect width="135" height="50" fill="white" transform="translate(0.214844 0.547852)"/>
</clipPath>
</defs>
</svg>
