<svg width="136" height="51" viewBox="0 0 136 51" fill="none" xmlns="http://www.w3.org/2000/svg">
<g clip-path="url(#clip0_2_761)">
<path d="M0.796387 22.6209L1.5952 21.9512L2.39402 21.0623L3.19284 20.7346L3.99165 28.1712L4.79047 22.2381L5.58929 20.1114L6.3881 19.6431L7.18692 18.6972L7.98574 19.5797L8.78455 24.1084L9.58337 19.7379L10.3822 21.3432L11.181 18.2789L11.9798 21.4441L12.7786 24.3484L13.5775 21.2387L14.3763 19.0837L15.1751 22.8673L15.9739 22.0847L16.7727 20.71L17.5715 24.3713L18.3704 7.54008L19.1692 5.59774L19.968 24.1265L20.7668 30.7421L21.5656 19.1428L22.3644 34.1995L23.1632 15.7611L23.9621 24.268L24.7609 20.8446L25.5597 21.7773L26.3585 16.6026L27.1573 21.8777L27.9562 16.769L28.755 18.2638L29.5538 22.3481L30.3526 24.1874L31.1514 21.5909L31.9502 24.4958L32.7491 50.8467L33.5479 22.4658L34.3467 24.8553L35.1455 17.6673L35.9443 33.2558L36.7431 14.3823L37.542 28.1327L38.3408 29.272L39.1396 22.9003L39.9384 1.36152L40.7372 20.2213L41.536 18.3384L42.3348 22.3013L43.1337 23.6795L43.9325 11.8938L44.7313 13.4615L45.5301 29.7288L46.3289 23.1784L47.1277 20.4669L47.9266 20.0211L48.7254 21.6975L49.5242 21.0672L50.323 25.6474L51.1218 21.1001L51.9206 17.3563L52.7195 20.7133L53.5183 21.4342L54.3171 18.4247L55.1159 27.8194L55.9147 19.2713L56.7135 21.7191L57.5124 20.0261L58.3112 20.9644L59.11 20.3246L59.9088 32.6234L60.7076 19.6166L61.5064 24.9848L62.3053 21.7514L63.1041 16.9484L63.9029 18.5548L64.7017 22.0486L65.5005 22.3423L66.2993 19.8525L67.0982 25.9678L67.897 20.991L68.6958 21.0296L69.4946 19.4258L70.2934 21.2004L71.0922 22.0329L71.8911 22.0959L72.6899 7.12932L73.4887 26.8761L74.2875 20.0504L75.0863 26.3992L75.8851 16.5611L76.684 21.3127L77.4828 21.7695L78.2816 23.5914L79.0804 25.0497L79.8792 24.0508L80.678 22.2644L81.4769 18.4101L82.2757 18.379L83.0745 19.6618L83.8733 28.1837L84.6721 22.1395L85.4709 18.8221L86.2698 22.508L87.0686 22.6285L87.8674 20.565L88.6662 20.853L89.465 22.0615L90.2638 21.8638L91.0627 22.7567L91.8615 22.6493L92.6603 21.0184L93.4591 21.7159L94.2579 22.7141L95.0567 26.3228L95.8556 26.7395L96.6544 21.7635L97.4532 24.1757L98.252 21.8048L99.0508 19.2246L99.8496 20.2393L100.648 23.8419L101.447 22.033L102.246 22.0904L103.045 20.4308L103.844 22.2597L104.643 19.2639L105.441 21.2643L106.24 20.8155L107.039 21.7159L107.838 21.4367L108.637 22.2534L109.435 21.4853L110.234 18.0163L111.033 18.1343L111.832 22.0216L112.631 24.2691L113.43 13.0221L114.228 22.1306L115.027 24.9076L115.826 16.3267L116.625 17.8919L117.424 20.6263L118.222 25.6857L119.021 14.7977L119.82 20.9736L120.619 17.6749L121.418 20.6169L122.217 25.0374L123.015 18.0029L123.814 16.8881L124.613 15.0478L125.412 21.0263L126.211 20.3714L127.009 23.9784L127.808 23.1752L128.607 25.8911L129.406 0.84668L130.205 18.3858L131.003 20.4363L131.802 44.315L132.601 27.9935L133.4 17.1498L134.199 16.7551L134.998 27.1561" stroke="#FF3A33" stroke-width="1.25"/>
</g>
<defs>
<clipPath id="clip0_2_761">
<rect width="135" height="50" fill="white" transform="translate(0.796387 0.84668)"/>
</clipPath>
</defs>
</svg>
