<svg width="14" height="14" viewBox="0 0 14 14" fill="none" xmlns="http://www.w3.org/2000/svg">
<path d="M1.3125 1.53125C1.27604 1.13021 1.05729 0.911458 0.65625 0.875C0.255208 0.911458 0.0364583 1.13021 0 1.53125V11.1562C0.0182292 11.7214 0.209635 12.1862 0.574219 12.5508C0.938802 12.9154 1.40365 13.1068 1.96875 13.125H13.3438C13.7448 13.0885 13.9635 12.8698 14 12.4688C13.9635 12.0677 13.7448 11.849 13.3438 11.8125H1.96875C1.56771 11.776 1.34896 11.5573 1.3125 11.1562V1.53125ZM12.9336 4.62109C13.1888 4.3112 13.1888 4.0013 12.9336 3.69141C12.6237 3.4362 12.3138 3.4362 12.0039 3.69141L8.75 6.94531L6.58984 4.78516C6.46224 4.65755 6.30729 4.59375 6.125 4.59375C5.94271 4.59375 5.78776 4.65755 5.66016 4.78516L3.03516 7.41016C2.77995 7.72005 2.77995 8.02995 3.03516 8.33984C3.34505 8.59505 3.65495 8.59505 3.96484 8.33984L6.125 6.17969L8.28516 8.33984C8.59505 8.59505 8.90495 8.59505 9.21484 8.33984L12.9336 4.62109Z" fill="#0F172A"/>
</svg>
