<svg width="136" height="51" viewBox="0 0 136 51" fill="none" xmlns="http://www.w3.org/2000/svg">
<g clip-path="url(#clip0_2_464)">
<path d="M0.214844 50.5479L1.01366 49.2828L1.81248 46.6832L2.61129 46.6688L3.41011 47.4634L4.20893 48.7347L5.00774 46.4266L5.80656 41.9019L6.60538 42.9365L7.40419 43.233L8.20301 43.029L9.00183 41.9253L9.80064 37.9361L10.5995 35.9537L11.3983 31.8788L12.1971 32.2004L12.9959 27.9364L13.7947 28.353L14.5935 28.9518L15.3924 26.0713L16.1912 20.6729L16.99 20.1062L17.7888 19.5318L18.5876 22.1844L19.3864 26.9975L20.1853 28.103L20.9841 27.9882L21.7829 28.3734L22.5817 29.1216L23.3805 29.6964L24.1793 29.793L24.9782 32.9925L25.777 31.2267L26.5758 28.6297L27.3746 30.0513L28.1734 30.2738L28.9722 30.8666L29.7711 27.5217L30.5699 27.8808L31.3687 26.3592L32.1675 29.4484L32.9663 31.4242L33.7651 31.2155L34.564 35.6607L35.3628 32.5429L36.1616 29.9907L36.9604 27.2898L37.7592 28.1293L38.558 25.9424L39.3569 24.6595L40.1557 23.3311L40.9545 24.2683L41.7533 23.1269L42.5521 18.8733L43.3509 18.5976L44.1498 16.8905L44.9486 15.8148L45.7474 12.2031L46.5462 8.90163L47.345 8.72531L48.1438 13.5318L48.9427 12.5721L49.7415 15.4622L50.5403 17.4318L51.3391 12.4593L52.1379 13.52L52.9367 12.2983L53.7356 11.9853L54.5344 11.9872L55.3332 11.1365L56.132 7.26572L56.9308 7.19025L57.7296 3.15516L58.5285 2.14561L59.3273 0.641249L60.1261 1.52663L60.9249 3.25933L61.7237 7.54433L62.5225 6.95622L63.3214 5.04975L64.1202 4.93367L64.919 2.22762L65.7178 2.38125L66.5166 0.547852L67.3154 4.64712L68.1143 3.49917L68.9131 4.88524L69.7119 5.47747L70.5107 4.65418L71.3095 2.31272L72.1083 2.7145L72.9072 4.24304L73.706 4.92641L74.5048 2.21327L75.3036 4.17349L76.1024 5.53573L76.9012 9.79622L77.7001 11.5145L78.4989 14.7872L79.2977 15.5997L80.0965 13.9255L80.8953 9.4318L81.6941 11.1944L82.493 13.7429L83.2918 13.9299L84.0906 11.323L84.8894 10.7623L85.6882 13.3738L86.487 11.8475L87.2859 12.9422L88.0847 13.6729L88.8835 14.5217L89.6823 15.9275L90.4811 13.4456L91.2799 13.5041L92.0788 14.9847L92.8776 13.0901L93.6764 11.2425L94.4752 10.4342L95.274 11.0123L96.0728 12.4061L96.8717 12.6492L97.6705 16.5447L98.4693 16.3189L99.2681 12.8355L100.067 13.9359L100.866 11.2049L101.665 15.1672L102.463 11.646L103.262 8.85925L104.061 6.10797L104.86 7.30383L105.659 7.89986L106.457 8.14059L107.256 6.42553L108.055 8.53536L108.854 8.00079L109.653 12.2286L110.452 11.8791L111.25 11.5533L112.049 17.2161L112.848 22.7386L113.647 21.7404L114.446 22.82L115.244 18.1697L116.043 18.5384L116.842 15.0165L117.641 18.2879L118.44 24.2878L119.239 24.5933L120.037 23.131L120.836 21.6876L121.635 24.3774L122.434 25.8213L123.233 29.1059L124.031 30.0449L124.83 27.5775L125.629 26.8289L126.428 26.9038L127.227 25.639L128.025 28.7858L128.824 35.0203L129.623 35.556L130.422 32.5727L131.221 32.376L132.02 31.0798L132.818 26.883L133.617 25.1375L134.416 25.008" stroke="#32CA5B" stroke-width="1.25"/>
</g>
<defs>
<clipPath id="clip0_2_464">
<rect width="135" height="50" fill="white" transform="translate(0.214844 0.547852)"/>
</clipPath>
</defs>
</svg>
