<svg width="136" height="51" viewBox="0 0 136 51" fill="none" xmlns="http://www.w3.org/2000/svg">
<g clip-path="url(#clip0_2_813)">
<path d="M0.796387 8.38955L1.5952 9.75031L2.39402 8.06912L3.19284 7.6598L3.99165 9.56624L4.79047 11.4243L5.58929 13.5741L6.3881 10.1219L7.18692 10.4089L7.98574 9.20937L8.78455 5.12864L9.58337 4.16886L10.3822 6.65205L11.181 2.43334L11.9798 0.84668L12.7786 2.60974L13.5775 4.61321L14.3763 3.98701L15.1751 6.54245L15.9739 7.42251L16.7727 11.1396L17.5715 27.1296L18.3704 22.5766L19.1692 27.5152L19.968 29.8582L20.7668 33.0535L21.5656 32.8968L22.3644 34.1446L23.1632 33.1523L23.9621 33.9366L24.7609 34.0048L25.5597 31.9666L26.3585 29.9063L27.1573 28.969L27.9562 30.6928L28.755 32.6989L29.5538 33.3085L30.3526 32.0423L31.1514 31.9781L31.9502 30.5837L32.7491 35.4617L33.5479 37.3856L34.3467 37.6962L35.1455 40.3508L35.9443 35.7874L36.7431 36.7477L37.542 36.0707L38.3408 37.5582L39.1396 38.0489L39.9384 45.0192L40.7372 43.1521L41.536 42.9728L42.3348 45.3824L43.1337 43.6608L43.9325 43.9239L44.7313 41.9702L45.5301 40.2284L46.3289 40.094L47.1277 39.6741L47.9266 39.5021L48.7254 40.8394L49.5242 40.1574L50.323 43.4197L51.1218 50.5495L51.9206 45.2895L52.7195 45.3339L53.5183 46.6533L54.3171 47.1646L55.1159 45.5304L55.9147 48.5771L56.7135 48.4087L57.5124 50.8467L58.3112 46.9709L59.11 46.5559L59.9088 43.8098L60.7076 45.9993L61.5064 44.9137L62.3053 42.64L63.1041 43.0071L63.9029 42.8822L64.7017 38.2641L65.5005 40.2299L66.2993 41.6133L67.0982 40.5118L67.897 38.1965L68.6958 39.1427L69.4946 38.2468L70.2934 36.996L71.0922 37.4988L71.8911 39.2215L72.6899 36.8044L73.4887 34.6408L74.2875 36.8356L75.0863 35.5345L75.8851 34.5241L76.684 32.464L77.4828 32.6794L78.2816 31.5752L79.0804 30.9494L79.8792 30.5891L80.678 31.6894L81.4769 32.1325L82.2757 32.505L83.0745 33.7677L83.8733 34.8114L84.6721 37.3445L85.4709 37.0266L86.2698 35.8593L87.0686 34.9799L87.8674 34.0617L88.6662 36.1189L89.465 36.1646L90.2638 34.9919L91.0627 36.425L91.8615 35.5454L92.6603 35.1838L93.4591 37.1573L94.2579 36.4512L95.0567 36.2862L95.8556 39.4871L96.6544 38.4019L97.4532 38.9165L98.252 39.3898L99.0508 40.7425L99.8496 38.8382L100.648 37.5352L101.447 38.5342L102.246 38.5686L103.045 36.1773L103.844 37.4216L104.643 38.6166L105.441 38.843L106.24 39.0194L107.039 38.301L107.838 37.461L108.637 38.1374L109.435 36.7241L110.234 37.6555L111.033 35.7484L111.832 35.198L112.631 34.9987L113.43 32.4324L114.228 29.5644L115.027 31.657L115.826 32.5357L116.625 29.3903L117.424 31.4733L118.222 30.6306L119.021 31.7437L119.82 28.8765L120.619 27.5222L121.418 25.3035L122.217 24.419L123.015 25.5146L123.814 26.4494L124.613 28.6993L125.412 29.8173L126.211 28.2691L127.009 30.0267L127.808 31.1383L128.607 36.0272L129.406 35.4737L130.205 36.2874L131.003 38.2691L131.802 33.6701L132.601 32.3639L133.4 32.1244L134.199 31.2607L134.998 37.3094" stroke="#FF3A33" stroke-width="1.25"/>
</g>
<defs>
<clipPath id="clip0_2_813">
<rect width="135" height="50" fill="white" transform="translate(0.796387 0.84668)"/>
</clipPath>
</defs>
</svg>
