<svg width="36" height="36" viewBox="0 0 36 36" fill="none" xmlns="http://www.w3.org/2000/svg">
<mask id="mask0_3_1061" style="mask-type:luminance" maskUnits="userSpaceOnUse" x="0" y="0" width="36" height="36">
<path d="M36 0H0V36H36V0Z" fill="white"/>
</mask>
<g mask="url(#mask0_3_1061)">
<mask id="mask1_3_1061" style="mask-type:luminance" maskUnits="userSpaceOnUse" x="0" y="2" width="36" height="32">
<path d="M14.1794 3.0566C14.1794 3.0566 5.71975 -0.104658 1.80157 7.33097C-1.09253 12.2732 2.46945 17.6162 2.46945 17.6162C2.46945 17.6162 15.9159 30.8845 17.2962 32.4429C18.0086 33.7786 18.9436 32.3093 18.9436 32.3093C18.9436 32.3093 32.4791 18.7738 34.3046 16.4585C35.2396 14.633 37.8666 6.75215 30.1638 3.36827C22.461 -0.0156084 18.1421 6.03975 18.1421 6.03975L14.1794 3.0566Z" fill="white"/>
</mask>
<g mask="url(#mask1_3_1061)">
<path d="M509.472 -1073.24H-24.8242V99.3635H509.472V-1073.24Z" fill="#EF4B53"/>
</g>
<mask id="mask2_3_1061" style="mask-type:luminance" maskUnits="userSpaceOnUse" x="2" y="4" width="12" height="9">
<path d="M12.046 4.25096C12.046 4.25096 8.93456 3.25898 5.64258 5.46852C1.35574 8.34584 1.99013 13.9913 2.17037 12.5932C3.15846 4.93527 12.3619 6.18979 12.3619 6.18979C12.3619 6.18979 13.1733 7.09167 13.2186 5.2879C13.2399 4.43263 12.046 4.25096 12.046 4.25096Z" fill="white"/>
</mask>
<g mask="url(#mask2_3_1061)">
<path d="M436.096 -1084.91H-98.2008V87.6959H436.096V-1084.91Z" fill="#FD9096"/>
</g>
</g>
</svg>
