<svg width="36" height="36" viewBox="0 0 36 36" fill="none" xmlns="http://www.w3.org/2000/svg">
<path d="M5.99942 13.5C8.4847 13.5 10.4994 11.4853 10.4994 9C10.4994 6.51472 8.4847 4.5 5.99942 4.5C3.51413 4.5 1.49942 6.51472 1.49942 9C1.49942 11.4853 3.51413 13.5 5.99942 13.5Z" fill="url(#paint0_linear_3_1054)"/>
<path d="M10.935 16.6053C9.42525 17.5474 8.18008 18.8582 7.31673 20.4143C6.45339 21.9704 6.00025 23.7207 6 25.5003H3C2.20508 25.4979 1.4434 25.1811 0.881302 24.619C0.319207 24.0569 0.00237409 23.2952 0 22.5003V19.5003C0.00356114 18.3079 0.478811 17.1654 1.32196 16.3222C2.16509 15.4791 3.30762 15.0038 4.5 15.0003H7.5C8.15485 15.0017 8.8015 15.1462 9.39483 15.4234C9.98811 15.7006 10.5137 16.104 10.935 16.6053Z" fill="url(#paint1_linear_3_1054)"/>
<path d="M30.0006 13.5C32.4859 13.5 34.5006 11.4853 34.5006 9C34.5006 6.51472 32.4859 4.5 30.0006 4.5C27.5153 4.5 25.5006 6.51472 25.5006 9C25.5006 11.4853 27.5153 13.5 30.0006 13.5Z" fill="url(#paint2_linear_3_1054)"/>
<path d="M35.9996 19.5003V22.5003C35.9973 23.2952 35.6804 24.0569 35.1184 24.619C34.5562 25.1811 33.7945 25.4979 32.9997 25.5003H29.9996C29.9994 23.7207 29.5463 21.9704 28.6829 20.4143C27.8195 18.8582 26.5744 17.5474 25.0646 16.6053C25.4859 16.104 26.0115 15.7006 26.6049 15.4234C27.1982 15.1462 27.8448 15.0017 28.4997 15.0003H31.4996C32.692 15.0038 33.8345 15.4791 34.6777 16.3222C35.5208 17.1654 35.9961 18.3079 35.9996 19.5003Z" fill="url(#paint3_linear_3_1054)"/>
<path d="M18.0006 17.4C21.3142 17.4 24.0006 14.7137 24.0006 11.4C24.0006 8.08629 21.3142 5.4 18.0006 5.4C14.6869 5.4 12.0006 8.08629 12.0006 11.4C12.0006 14.7137 14.6869 17.4 18.0006 17.4Z" fill="url(#paint4_linear_3_1054)"/>
<path d="M27.8528 24.786C27.8207 24.3234 27.7558 23.8191 27.6603 23.2865C27.5639 22.7497 27.4402 22.2427 27.2914 21.7786C27.138 21.2994 26.9294 20.8261 26.6717 20.3723C26.4042 19.9014 26.0899 19.4917 25.7372 19.1542C25.3682 18.8015 24.9168 18.5178 24.3948 18.3106C23.8743 18.1048 23.2977 18.0004 22.6807 18.0004C22.4383 18.0004 22.2042 18.0996 21.7517 18.3945C21.4732 18.5762 21.1474 18.7862 20.784 19.0184C20.4729 19.2163 20.052 19.4022 19.5315 19.57C19.0239 19.734 18.5085 19.8175 18 19.8175C17.4915 19.8175 16.9761 19.734 16.468 19.57C15.9485 19.4022 15.5271 19.2168 15.2165 19.0184C14.8564 18.7885 14.5305 18.578 14.2477 18.394C13.7958 18.0992 13.5613 18 13.3188 18C12.7019 18 12.1253 18.1043 11.6052 18.3106C11.0832 18.5173 10.6318 18.801 10.2623 19.1542C9.90964 19.4917 9.59536 19.9014 9.32788 20.3719C9.07021 20.8256 8.86158 21.2984 8.70815 21.7782C8.55983 22.2417 8.4356 22.7493 8.33965 23.2856C8.24416 23.8177 8.17927 24.322 8.14728 24.7855C8.11577 25.2398 8.10001 25.7108 8.10001 26.1869C8.10001 27.4258 8.49401 28.4284 9.27037 29.1682C10.0375 29.8983 11.0522 30.2682 12.2865 30.2682H23.7139C24.9478 30.2682 25.9625 29.8983 26.7296 29.1682C27.5064 28.4288 27.9 27.4258 27.9 26.1869C27.9 25.7084 27.8838 25.2371 27.8518 24.7851L27.8528 24.786Z" fill="url(#paint5_linear_3_1054)"/>
<defs>
<linearGradient id="paint0_linear_3_1054" x1="5.99942" y1="4.5" x2="14.6375" y2="16.2323" gradientUnits="userSpaceOnUse">
<stop stop-color="#F3B130"/>
<stop offset="1" stop-color="#F3CC30" stop-opacity="0.4"/>
</linearGradient>
<linearGradient id="paint1_linear_3_1054" x1="5.4675" y1="15.0003" x2="15.4172" y2="29.0737" gradientUnits="userSpaceOnUse">
<stop stop-color="#F3B130"/>
<stop offset="1" stop-color="#F3CC30" stop-opacity="0.4"/>
</linearGradient>
<linearGradient id="paint2_linear_3_1054" x1="30.0006" y1="4.5" x2="38.6387" y2="16.2323" gradientUnits="userSpaceOnUse">
<stop stop-color="#F3B130"/>
<stop offset="1" stop-color="#F3CC30" stop-opacity="0.4"/>
</linearGradient>
<linearGradient id="paint3_linear_3_1054" x1="30.5321" y1="15.0003" x2="40.4818" y2="29.0737" gradientUnits="userSpaceOnUse">
<stop stop-color="#F3B130"/>
<stop offset="1" stop-color="#F3CC30" stop-opacity="0.4"/>
</linearGradient>
<linearGradient id="paint4_linear_3_1054" x1="18.0006" y1="5.4" x2="29.5181" y2="21.043" gradientUnits="userSpaceOnUse">
<stop stop-color="#F3B130"/>
<stop offset="1" stop-color="#F3CC30" stop-opacity="0.4"/>
</linearGradient>
<linearGradient id="paint5_linear_3_1054" x1="18" y1="18" x2="27.3127" y2="38.4137" gradientUnits="userSpaceOnUse">
<stop stop-color="#F3B130"/>
<stop offset="1" stop-color="#F3CC30" stop-opacity="0.4"/>
</linearGradient>
</defs>
</svg>
