<svg width="136" height="51" viewBox="0 0 136 51" fill="none" xmlns="http://www.w3.org/2000/svg">
<g clip-path="url(#clip0_2_753)">
<path d="M0.796387 7.30614L1.5952 9.80433L2.39402 8.70585L3.19284 6.20037L3.99165 6.8948L4.79047 8.04829L5.58929 8.02816L6.3881 5.18081L7.18692 5.30224L7.98574 5.63134L8.78455 3.91339L9.58337 2.29813L10.3822 2.166L11.181 0.84668L11.9798 1.49285L12.7786 1.86457L13.5775 3.05904L14.3763 2.43648L15.1751 3.78185L15.9739 4.97734L16.7727 12.0041L17.5715 16.0871L18.3704 20.0102L19.1692 22.0151L19.968 22.3465L20.7668 23.5765L21.5656 25.1282L22.3644 30.7274L23.1632 27.792L23.9621 30.389L24.7609 30.0734L25.5597 29.1334L26.3585 26.4079L27.1573 24.5009L27.9562 25.2992L28.755 25.5377L29.5538 26.3146L30.3526 25.4301L31.1514 26.3645L31.9502 26.3228L32.7491 30.596L33.5479 30.7453L34.3467 30.2171L35.1455 33.5683L35.9443 29.8177L36.7431 31.8561L37.542 26.8048L38.3408 31.1334L39.1396 31.1654L39.9384 39.6144L40.7372 42.5792L41.536 42.0095L42.3348 42.1536L43.1337 41.4205L43.9325 43.4748L44.7313 42.5124L45.5301 39.7271L46.3289 40.1864L47.1277 38.9031L47.9266 39.2051L48.7254 40.4038L49.5242 39.9085L50.323 43.5836L51.1218 47.7087L51.9206 45.1343L52.7195 42.907L53.5183 45.3387L54.3171 45.2461L55.1159 43.9648L55.9147 50.8467L56.7135 47.0864L57.5124 49.8675L58.3112 46.8241L59.11 46.6519L59.9088 45.3132L60.7076 47.9855L61.5064 45.6262L62.3053 45.4936L63.1041 45.6246L63.9029 46.5235L64.7017 41.5135L65.5005 43.5043L66.2993 42.822L67.0982 42.2358L67.897 41.1804L68.6958 41.5703L69.4946 41.036L70.2934 40.987L71.0922 41.382L71.8911 41.8765L72.6899 40.4493L73.4887 39.5875L74.2875 42.3166L75.0863 43.4213L75.8851 35.7337L76.684 32.7285L77.4828 36.3545L78.2816 33.6104L79.0804 33.7904L79.8792 33.9886L80.678 34.5012L81.4769 36.0864L82.2757 35.4336L83.0745 34.788L83.8733 35.5183L84.6721 38.6591L85.4709 38.233L86.2698 37.2415L87.0686 35.6164L87.8674 34.4188L88.6662 35.8206L89.465 35.3493L90.2638 34.6324L91.0627 34.9629L91.8615 35.2689L92.6603 35.0983L93.4591 36.8431L94.2579 36.3233L95.0567 36.1599L95.8556 37.5698L96.6544 36.7809L97.4532 37.9633L98.252 38.9988L99.0508 39.0645L99.8496 37.1299L100.648 35.7169L101.447 35.9469L102.246 36.8245L103.045 35.1218L103.844 35.8675L104.643 36.2219L105.441 36.0515L106.24 35.7053L107.039 35.9406L107.838 35.6824L108.637 35.0948L109.435 35.0388L110.234 35.2828L111.033 33.9478L111.832 33.0267L112.631 34.1273L113.43 30.9189L114.228 30.4622L115.027 32.8011L115.826 32.1213L116.625 30.463L117.424 31.9831L118.222 32.5156L119.021 34.899L119.82 33.4174L120.619 32.3298L121.418 24.6787L122.217 22.6992L123.015 22.8047L123.814 23.4891L124.613 25.2418L125.412 25.5905L126.211 24.7033L127.009 25.1906L127.808 26.0095L128.607 30.2667L129.406 32.4425L130.205 27.8987L131.003 28.2759L131.802 26.8057L132.601 25.6677L133.4 26.8615L134.199 27.0059L134.998 34.9098" stroke="#FF3A33" stroke-width="1.25"/>
</g>
<defs>
<clipPath id="clip0_2_753">
<rect width="135" height="50" fill="white" transform="translate(0.796387 0.84668)"/>
</clipPath>
</defs>
</svg>
