<svg width="136" height="51" viewBox="0 0 136 51" fill="none" xmlns="http://www.w3.org/2000/svg">
<g clip-path="url(#clip0_2_839)">
<path d="M0.796387 3.42585L1.5952 4.11933L2.39402 5.48225L3.19284 4.44828L3.99165 6.78003L4.79047 14.1534L5.58929 13.9307L6.3881 9.24759L7.18692 9.08291L7.98574 8.20306L8.78455 3.49274L9.58337 4.85097L10.3822 4.35229L11.181 2.63438L11.9798 2.86332L12.7786 4.17789L13.5775 3.34737L14.3763 0.84668L15.1751 2.70588L15.9739 4.14684L16.7727 11.3046L17.5715 21.3992L18.3704 25.3339L19.1692 30.0226L19.968 36.9015L20.7668 39.6512L21.5656 42.4908L22.3644 43.7421L23.1632 38.8686L23.9621 42.9679L24.7609 41.2085L25.5597 41.4556L26.3585 36.346L27.1573 33.1506L27.9562 31.6033L28.755 33.3194L29.5538 31.9267L30.3526 28.5773L31.1514 31.2131L31.9502 31.1193L32.7491 38.0904L33.5479 39.2404L34.3467 38.6003L35.1455 39.8641L35.9443 34.8833L36.7431 39.2147L37.542 35.1952L38.3408 36.8667L39.1396 37.2634L39.9384 48.8378L40.7372 44.8307L41.536 41.8407L42.3348 42.8292L43.1337 42.1442L43.9325 43.7127L44.7313 41.2662L45.5301 37.6341L46.3289 36.2386L47.1277 33.6575L47.9266 33.3136L48.7254 33.5462L49.5242 35.0391L50.323 39.6679L51.1218 50.6397L51.9206 44.4306L52.7195 43.5982L53.5183 50.8467L54.3171 48.0638L55.1159 45.0238L55.9147 48.4521L56.7135 46.0386L57.5124 48.7976L58.3112 44.1064L59.11 44.5194L59.9088 40.1435L60.7076 43.6626L61.5064 40.714L62.3053 40.1828L63.1041 39.5884L63.9029 41.3361L64.7017 36.4144L65.5005 37.782L66.2993 38.507L67.0982 38.3473L67.897 36.5137L68.6958 37.6745L69.4946 37.2399L70.2934 36.4936L71.0922 36.342L71.8911 38.0146L72.6899 35.3609L73.4887 34.0517L74.2875 35.1839L75.0863 35.8323L75.8851 32.5567L76.684 32.4196L77.4828 33.9617L78.2816 31.7629L79.0804 31.8379L79.8792 31.6579L80.678 32.8874L81.4769 33.6202L82.2757 31.9083L83.0745 29.8956L83.8733 31.1583L84.6721 34.9451L85.4709 34.4572L86.2698 32.8045L87.0686 30.3939L87.8674 30.1685L88.6662 32.2675L89.465 31.6484L90.2638 29.3675L91.0627 31.3511L91.8615 29.9391L92.6603 29.8551L93.4591 31.715L94.2579 32.2658L95.0567 30.9883L95.8556 35.7927L96.6544 35.7175L97.4532 36.4195L98.252 37.5361L99.0508 40.4422L99.8496 38.8577L100.648 34.8413L101.447 36.3148L102.246 36.0658L103.045 33.2689L103.844 33.5935L104.643 34.2611L105.441 35.2085L106.24 32.9261L107.039 33.4087L107.838 32.9967L108.637 33.378L109.435 32.6585L110.234 33.3796L111.033 31.2152L111.832 28.5155L112.631 30.2151L113.43 27.3279L114.228 27.2292L115.027 29.2484L115.826 29.4886L116.625 28.6663L117.424 30.1804L118.222 29.0674L119.021 31.9445L119.82 28.0415L120.619 26.5624L121.418 21.6461L122.217 16.937L123.015 16.8895L123.814 15.1755L124.613 17.6808L125.412 19.362L126.211 17.6619L127.009 18.4209L127.808 18.3753L128.607 21.7833L129.406 24.9128L130.205 23.2464L131.003 23.3111L131.802 19.0825L132.601 19.7427L133.4 17.6738L134.199 17.1477L134.998 24.1372" stroke="#FF3A33" stroke-width="1.25"/>
</g>
<defs>
<clipPath id="clip0_2_839">
<rect width="135" height="50" fill="white" transform="translate(0.796387 0.84668)"/>
</clipPath>
</defs>
</svg>
