<svg width="136" height="51" viewBox="0 0 136 51" fill="none" xmlns="http://www.w3.org/2000/svg">
<g clip-path="url(#clip0_2_398)">
<path d="M0.214844 44.0025L1.01366 43.35L1.81248 37.9549L2.61129 39.9759L3.41011 41.2478L4.20893 41.2075L5.00774 41.3173L5.80656 43.0972L6.60538 45.5096L7.40419 44.4771L8.20301 44.4951L9.00183 43.1952L9.80064 43.3569L10.5995 41.5844L11.3983 42.4662L12.1971 41.7419L12.9959 40.9013L13.7947 40.6967L14.5935 41.8544L15.3924 40.0432L16.1912 39.6391L16.99 39.7854L17.7888 37.7621L18.5876 39.6019L19.3864 43.8787L20.1853 44.934L20.9841 42.4198L21.7829 43.0809L22.5817 45.5034L23.3805 44.4086L24.1793 43.369L24.9782 45.5258L25.777 43.632L26.5758 41.9878L27.3746 43.3162L28.1734 43.2981L28.9722 44.2034L29.7711 44.0096L30.5699 45.6558L31.3687 44.7389L32.1675 46.5905L32.9663 47.7727L33.7651 47.3135L34.564 50.5479L35.3628 48.9751L36.1616 46.6991L36.9604 45.9634L37.7592 46.9338L38.558 40.4406L39.3569 38.6031L40.1557 37.237L40.9545 39.0415L41.7533 37.7434L42.5521 35.44L43.3509 32.9765L44.1498 31.1535L44.9486 30.8765L45.7474 32.2578L46.5462 22.6742L47.345 25.4116L48.1438 27.6674L48.9427 24.7632L49.7415 24.5866L50.5403 25.5961L51.3391 22.2113L52.1379 21.144L52.9367 22.7022L53.7356 22.2966L54.5344 22.0703L55.3332 24.6317L56.132 20.9403L56.9308 21.0296L57.7296 18.6784L58.5285 21.3486L59.3273 22.0579L60.1261 20.0669L60.9249 18.0657L61.7237 18.2976L62.5225 18.4459L63.3214 17.9796L64.1202 17.4865L64.919 16.876L65.7178 14.2877L66.5166 7.63991L67.3154 12.663L68.1143 13.3489L68.9131 16.0747L69.7119 13.8833L70.5107 13.6473L71.3095 8.32473L72.1083 10.0404L72.9072 6.78865L73.706 3.41318L74.5048 0.547852L75.3036 2.49688L76.1024 3.88123L76.9012 8.53591L77.7001 10.809L78.4989 14.1128L79.2977 17.2705L80.0965 13.249L80.8953 11.306L81.6941 11.8598L82.493 14.1352L83.2918 11.7842L84.0906 7.21645L84.8894 7.99015L85.6882 12.9093L86.487 12.9785L87.2859 11.9009L88.0847 10.5834L88.8835 12.8606L89.6823 12.6293L90.4811 12.2571L91.2799 11.528L92.0788 13.9635L92.8776 13.8158L93.6764 13.5287L94.4752 14.1294L95.274 16.3446L96.0728 16.5944L96.8717 17.4492L97.6705 19.7654L98.4693 18.3947L99.2681 18.4095L100.067 19.2981L100.866 17.5521L101.665 19.8203L102.463 17.5599L103.262 19.9066L104.061 18.9763L104.86 19.022L105.659 16.05L106.457 16.3549L107.256 14.2168L108.055 16.9282L108.854 15.9831L109.653 19.4207L110.452 17.8745L111.25 17.3735L112.049 24.3367L112.848 23.6611L113.647 21.7738L114.446 19.9313L115.244 19.3039L116.043 19.5086L116.842 12.9887L117.641 11.4935L118.44 15.887L119.239 18.0412L120.037 13.3349L120.836 11.0015L121.635 8.10261L122.434 7.28912L123.233 13.4756L124.031 16.7699L124.83 13.8946L125.629 14.74L126.428 17.3444L127.227 12.5972L128.025 15.3L128.824 17.6657L129.623 20.5266L130.422 14.5928L131.221 15.2501L132.02 16.3315L132.818 9.96331L133.617 8.8111L134.416 5.50746" stroke="#32CA5B" stroke-width="1.25"/>
</g>
<defs>
<clipPath id="clip0_2_398">
<rect width="135" height="50" fill="white" transform="translate(0.214844 0.547852)"/>
</clipPath>
</defs>
</svg>
