<svg width="16" height="16" viewBox="0 0 16 16" fill="none" xmlns="http://www.w3.org/2000/svg">
<path d="M6.21492 7.21793C6.58495 7.21793 6.88492 6.91796 6.88492 6.54793C6.88492 6.1779 6.58495 5.87793 6.21492 5.87793C5.84489 5.87793 5.54492 6.1779 5.54492 6.54793C5.54492 6.91796 5.84489 7.21793 6.21492 7.21793Z" fill="#00AECD"/>
<path d="M4.41489 11.8479C3.81489 12.1812 3.51489 11.9979 3.51489 11.2979V4.64789C3.51489 3.98122 3.84823 3.78122 4.51489 4.04789L10.6149 7.54789C11.6816 7.88122 11.6816 8.21456 10.6149 8.54789L6.86489 10.5479V8.29789C6.86489 8.21253 6.84808 8.12801 6.81541 8.04915C6.78275 7.97029 6.73487 7.89863 6.67451 7.83827C6.61415 7.77791 6.5425 7.73003 6.46364 7.69737C6.38477 7.6647 6.30025 7.64789 6.21489 7.64789C6.12953 7.64789 6.04501 7.6647 5.96615 7.69737C5.88729 7.73003 5.81563 7.77791 5.75527 7.83827C5.69492 7.89863 5.64704 7.97029 5.61437 8.04915C5.58171 8.12801 5.56489 8.21253 5.56489 8.29789V11.2979C5.56595 11.4505 5.60581 11.6004 5.68073 11.7334C5.75566 11.8664 5.86318 11.9782 5.99318 12.0582C6.12319 12.1382 6.27141 12.1838 6.4239 12.1907C6.57639 12.1977 6.72815 12.1657 6.86489 12.0979L12.9149 8.74789C13.5816 8.28122 13.5816 7.78122 12.9149 7.24789L3.51489 2.14789C2.78156 1.94789 2.28156 2.24789 2.01489 3.04789V13.0479C2.28156 13.9812 2.78156 14.2479 3.51489 13.8479L5.01489 13.0479C5.17402 12.9683 5.29503 12.8288 5.35129 12.66C5.40755 12.4912 5.39446 12.307 5.31489 12.1479C5.23533 11.9888 5.09581 11.8678 4.92702 11.8115C4.75824 11.7552 4.57402 11.7683 4.41489 11.8479Z" fill="#00AECD"/>
</svg>
