<svg width="136" height="51" viewBox="0 0 136 51" fill="none" xmlns="http://www.w3.org/2000/svg">
<g clip-path="url(#clip0_2_781)">
<path d="M0.796387 5.06214L1.5905 9.70304L2.38462 7.19384L3.17874 5.21525L3.97286 5.0602L4.76697 5.70439L5.56109 9.44804L6.35521 9.00339L7.14933 7.91774L7.94345 6.46393L8.73756 6.52182L9.53168 4.43467L10.3258 4.1036L11.1199 1.61504L11.914 0.84668L12.7082 1.28339L13.5023 1.32216L14.2964 0.945328L15.0905 3.28007L15.8846 4.85585L16.6787 14.4398L17.4729 17.7042L18.267 20.0564L19.0611 24.6928L19.8552 25.8359L20.6493 28.2629L21.4434 29.083L22.2376 42.1049L23.0317 40.1159L23.8258 43.0097L24.6199 40.2157L25.414 36.7464L26.2082 32.5868L27.0023 29.3272L27.7964 28.5897L28.5905 31.8914L29.3846 33.5056L30.1787 29.6971L30.9729 29.7203L31.767 29.0461L32.5611 35.8725L33.3552 33.4582L34.1493 36.5803L34.9434 41.5468L35.7376 33.4541L36.5317 36.2895L37.3258 23.4205L38.1199 29.337L38.914 30.8936L39.7082 38.6556L40.5023 47.363L41.2964 38.5717L42.0905 40.7467L42.8846 41.1338L43.6787 42.8893L44.4729 38.6712L45.267 38.7522L46.0611 37.3939L46.8552 34.1406L47.6493 34.8108L48.4434 38.1843L49.2376 35.0964L50.0317 39.6508L50.8258 46.8997L51.6199 40.0853L52.414 38.3047L53.2082 45.5782L54.0023 47.1931L54.7964 45.3642L55.5905 48.1136L56.3846 43.3819L57.1787 50.8467L57.9729 42.4032L58.767 44.3099L59.5611 39.6639L60.3552 42.388L61.1493 40.1038L61.9434 39.5545L62.7376 41.5643L63.5317 43.4102L64.3258 35.6066L65.1199 37.2079L65.914 38.6622L66.7082 38.6564L67.5023 36.051L68.2964 37.7669L69.0905 34.9362L69.8846 34.6917L70.6787 35.3545L71.4729 34.5443L72.267 34.4824L73.0611 28.4445L73.8552 31.14L74.6493 35.4937L75.4434 29.4273L76.2376 22.0188L77.0317 25.5909L77.8258 21.9281L78.6199 20.9856L79.414 20.8543L80.2082 22.3623L81.0023 22.4275L81.7964 23.9502L82.5905 24.2612L83.3846 25.3978L84.1787 28.6951L84.9729 26.9911L85.767 25.3181L86.5611 23.2394L87.3552 23.7745L88.1493 23.3098L88.9434 23.5798L89.7376 22.6965L90.5317 23.1804L91.3258 23.0526L92.1199 21.4107L92.914 22.6265L93.7082 23.059L94.5023 24.0173L95.2964 25.4928L96.0905 26.6805L96.8846 27.77L97.6787 28.3492L98.4729 29.2316L99.267 28.1659L100.061 25.8343L100.855 25.7904L101.649 27.1436L102.443 25.4816L103.238 25.5861L104.032 27.0981L104.826 27.4868L105.62 26.9369L106.414 26.3696L107.208 26.0914L108.002 26.1552L108.796 25.4517L109.591 26.3546L110.385 24.4676L111.179 22.2143L111.973 22.7942L112.767 17.8178L113.561 17.8662L114.355 18.5428L115.149 17.3696L115.943 16.7699L116.738 16.7338L117.532 17.5908L118.326 19.9724L119.12 15.405L119.914 16.9032L120.708 4.49033L121.502 1.74623L122.296 4.96824L123.091 6.65418L123.885 6.56448L124.679 8.92581L125.473 5.01689L126.267 7.10867L127.061 6.52804L127.855 11.466L128.649 15.0404L129.443 14.557L130.238 13.8476L131.032 9.19823L131.826 5.36088L132.62 6.11548L133.414 2.16664L134.208 4.45494L135.002 15.5902" stroke="#FF3A33" stroke-width="1.25"/>
</g>
<defs>
<clipPath id="clip0_2_781">
<rect width="135" height="50" fill="white" transform="translate(0.796387 0.84668)"/>
</clipPath>
</defs>
</svg>
