<svg width="136" height="51" viewBox="0 0 136 51" fill="none" xmlns="http://www.w3.org/2000/svg">
<g clip-path="url(#clip0_2_943)">
<path d="M0.796387 4.63368L1.5952 5.64751L2.39402 5.30778L3.19284 5.06804L3.99165 7.89614L4.79047 10.8991L5.58929 11.573L6.3881 5.94706L7.18692 4.2766L7.98574 5.4739L8.78455 0.84668L9.58337 1.71212L10.3822 4.94146L11.181 5.03058L11.9798 5.27249L12.7786 7.18943L13.5775 6.92003L14.3763 5.71271L15.1751 6.99981L15.9739 8.45895L16.7727 12.2454L17.5715 20.1447L18.3704 9.63518L19.1692 13.0125L19.968 10.8661L20.7668 15.0551L21.5656 17.0449L22.3644 13.7006L23.1632 14.0357L23.9621 18.1634L24.7609 15.8789L25.5597 16.0183L26.3585 14.496L27.1573 12.5344L27.9562 15.0891L28.755 15.9104L29.5538 17.2275L30.3526 10.9666L31.1514 10.1954L31.9502 7.87531L32.7491 13.6785L33.5479 13.6934L34.3467 15.9607L35.1455 20.0605L35.9443 20.8651L36.7431 25.066L37.542 18.4357L38.3408 20.9887L39.1396 22.0779L39.9384 29.2196L40.7372 29.1029L41.536 25.517L42.3348 29.3841L43.1337 29.223L43.9325 30.8476L44.7313 29.1931L45.5301 28.4337L46.3289 31.3262L47.1277 37.9204L47.9266 35.5008L48.7254 34.6939L49.5242 35.3952L50.323 39.9305L51.1218 43.8923L51.9206 40.5089L52.7195 38.1297L53.5183 40.9816L54.3171 40.9312L55.1159 41.0631L55.9147 45.1703L56.7135 43.6861L57.5124 49.7231L58.3112 46.7702L59.11 46.4202L59.9088 45.9937L60.7076 49.4199L61.5064 47.0429L62.3053 48.0907L63.1041 47.9148L63.9029 48.0105L64.7017 45.7688L65.5005 48.414L66.2993 47.4405L67.0982 45.6295L67.897 44.638L68.6958 45.7881L69.4946 44.8198L70.2934 43.6455L71.0922 44.8657L71.8911 45.8382L72.6899 44.5143L73.4887 43.6758L74.2875 45.9624L75.0863 45.1341L75.8851 43.265L76.684 42.1306L77.4828 40.1093L78.2816 39.8112L79.0804 34.9417L79.8792 31.5952L80.678 33.6381L81.4769 35.6359L82.2757 34.6143L83.0745 33.9714L83.8733 35.6806L84.6721 39.5215L85.4709 40.1311L86.2698 39.2536L87.0686 38.6933L87.8674 37.1616L88.6662 40.0208L89.465 39.7638L90.2638 39.3518L91.0627 40.9384L91.8615 40.6536L92.6603 40.6358L93.4591 42.6372L94.2579 43.1315L95.0567 43.4902L95.8556 48.537L96.6544 48.2978L97.4532 49.5871L98.252 50.8467L99.0508 49.5607L99.8496 48.8905L100.648 45.5633L101.447 46.1236L102.246 46.4858L103.045 44.7857L103.844 46.4858L104.643 46.1378L105.441 46.0643L106.24 45.9695L107.039 46.8511L107.838 46.7101L108.637 46.9316L109.435 47.0735L110.234 46.543L111.033 44.6175L111.832 43.7806L112.631 45.2099L113.43 40.9895L114.228 43.4394L115.027 43.9757L115.826 43.7132L116.625 42.7961L117.424 44.4387L118.222 44.301L119.021 46.0958L119.82 42.5528L120.619 42.9983L121.418 39.8669L122.217 37.6513L123.015 35.5659L123.814 36.0009L124.613 39.8928L125.412 41.5183L126.211 41.2231L127.009 41.9397L127.808 40.5995L128.607 45.5885L129.406 46.559L130.205 45.7115L131.003 45.9433L131.802 40.0576L132.601 38.0379L133.4 40.3628L134.199 40.2401L134.998 43.0622" stroke="#FF3A33" stroke-width="1.25"/>
</g>
<defs>
<clipPath id="clip0_2_943">
<rect width="135" height="50" fill="white" transform="translate(0.796387 0.84668)"/>
</clipPath>
</defs>
</svg>
