<svg width="136" height="51" viewBox="0 0 136 51" fill="none" xmlns="http://www.w3.org/2000/svg">
<g clip-path="url(#clip0_9_305)">
<path d="M0.214844 50.4138L1.01366 50.5479L1.81248 50.0882L2.61129 48.1222L3.41011 48.8877L4.20893 48.0256L5.00774 47.1641L5.80656 44.8299L6.60538 44.7367L7.40419 45.2754L8.20301 45.8108L9.00183 45.7375L9.80064 43.9373L10.5995 44.5094L11.3983 43.2207L12.1971 44.5383L12.9959 43.5391L13.7947 42.1472L14.5935 44.0256L15.3924 43.6309L16.1912 41.425L16.99 42.1193L17.7888 41.4217L18.5876 43.3121L19.3864 44.9807L20.1853 44.9535L20.9841 45.2011L21.7829 45.137L22.5817 45.4592L23.3805 45.1901L24.1793 45.1615L24.9782 45.2485L25.777 44.2406L26.5758 43.6164L27.3746 44.7137L28.1734 45.1099L28.9722 45.4232L29.7711 44.677L30.5699 43.8997L31.3687 42.634L32.1675 42.6484L32.9663 44.3344L33.7651 44.9933L34.564 47.5518L35.3628 46.7189L36.1616 46.1661L36.9604 44.8891L37.7592 44.7309L38.558 42.1028L39.3569 39.0512L40.1557 39.0984L40.9545 37.4204L41.7533 37.3003L42.5521 35.5891L43.3509 37.0436L44.1498 35.6601L44.9486 34.6772L45.7474 36.1693L46.5462 30.0579L47.345 28.8775L48.1438 31.2603L48.9427 31.2509L49.7415 32.456L50.5403 33.0019L51.3391 32.0063L52.1379 31.1221L52.9367 30.3973L53.7356 29.9937L54.5344 31.3848L55.3332 32.1228L56.132 28.8164L56.9308 28.3685L57.7296 26.6149L58.5285 19.5738L59.3273 18.8572L60.1261 16.2461L60.9249 17.532L61.7237 17.5199L62.5225 17.6097L63.3214 15.8114L64.1202 15.9228L64.919 14.0484L65.7178 14.3061L66.5166 13.8764L67.3154 15.4536L68.1143 15.96L68.9131 16.7257L69.7119 15.4114L70.5107 15.8624L71.3095 14.8211L72.1083 14.4945L72.9072 14.677L73.706 12.6186L74.5048 5.68574L75.3036 6.14145L76.1024 5.42779L76.9012 6.72923L77.7001 9.564L78.4989 11.765L79.2977 13.2606L80.0965 11.6317L80.8953 9.35278L81.6941 9.3229L82.493 10.8005L83.2918 10.6153L84.0906 9.55247L84.8894 10.3965L85.6882 9.42428L86.487 9.17085L87.2859 8.73149L88.0847 8.15886L88.8835 9.19681L89.6823 8.5704L90.4811 7.97154L91.2799 5.68502L92.0788 8.11334L92.8776 3.52226L93.6764 0.547852L94.4752 1.71025L95.274 6.63368L96.0728 6.51069L96.8717 7.65081L97.6705 9.2928L98.4693 7.92397L99.2681 8.98956L100.067 7.31894L100.866 4.82768L101.665 8.13907L102.463 7.73603L103.262 10.2713L104.061 9.23676L104.86 8.36201L105.659 7.93314L106.457 7.73861L107.256 3.61075L108.055 6.56361L108.854 6.28697L109.653 7.51496L110.452 7.6613L111.25 5.59398L112.049 11.439L112.848 12.861L113.647 6.60908L114.446 7.95937L115.244 5.74363L116.043 8.01821L116.842 8.3304L117.641 10.9851L118.44 12.8809L119.239 14.353L120.037 10.3267L120.836 11.2204L121.635 11.9337L122.434 11.3221L123.233 14.678L124.031 14.556L124.83 12.7562L125.629 13.4094L126.428 13.3507L127.227 11.7882L128.025 13.7526L128.824 16.5974L129.623 17.9754L130.422 16.0408L131.221 15.1813L132.02 15.8602L132.818 13.0944L133.617 11.0899L134.416 8.12985" stroke="#32CA5B" stroke-width="1.25"/>
</g>
<defs>
<clipPath id="clip0_9_305">
<rect width="135" height="50" fill="white" transform="translate(0.214844 0.547852)"/>
</clipPath>
</defs>
</svg>
