<svg width="136" height="51" viewBox="0 0 136 51" fill="none" xmlns="http://www.w3.org/2000/svg">
<g clip-path="url(#clip0_9_451)">
<path d="M0.214844 42.8731L1.00896 42.5511L1.80308 39.5015L2.5972 39.6961L3.39131 41.0935L4.18543 42.0936L4.97955 40.9036L5.77367 40.7881L6.56778 41.6309L7.3619 45.7639L8.15602 46.7385L8.95014 45.5612L9.74426 44.214L10.5384 46.3508L11.3325 43.6641L12.1266 44.1554L12.9207 41.7604L13.7148 41.0673L14.509 40.3535L15.3031 39.4061L16.0972 37.3592L16.8913 37.4628L17.6854 36.0232L18.4795 37.7225L19.2737 37.8566L20.0678 41.5646L20.8619 38.4634L21.656 37.5457L22.4501 38.4228L23.2443 37.1062L24.0384 39.9109L24.8325 41.8449L25.6266 37.3872L26.4207 38.4398L27.2148 39.9235L28.009 41.1272L28.8031 43.135L29.5972 41.8409L30.3913 42.6653L31.1854 40.0164L31.9795 43.0338L32.7737 45.5463L33.5678 43.2469L34.3619 50.5479L35.156 47.5525L35.9501 46.782L36.7443 45.1006L37.5384 45.441L38.3325 42.9812L39.1266 41.8624L39.9207 41.7814L40.7148 45.4361L41.509 43.942L42.3031 41.1591L43.0972 40.1773L43.8913 39.7664L44.6854 39.161L45.4795 40.4825L46.2737 35.1393L47.0678 32.0288L47.8619 31.7319L48.656 28.2842L49.4501 30.2483L50.2443 32.7154L51.0384 32.1567L51.8325 32.6536L52.6266 31.9947L53.4207 30.3466L54.2148 31.5234L55.009 31.8258L55.8031 28.2627L56.5972 28.2675L57.3913 26.1687L58.1854 27.9715L58.9795 26.9918L59.7737 25.7829L60.5678 27.3812L61.3619 30.9039L62.156 31.1253L62.9501 28.7879L63.7443 27.4214L64.5384 24.7222L65.3325 25.7378L66.1266 18.1502L66.9207 18.6975L67.7148 16.7957L68.509 16.8895L69.3031 16.3227L70.0972 12.9179L70.8913 7.84653L71.6854 8.18282L72.4796 9.76663L73.2737 9.57766L74.0678 7.55036L74.8619 0.547852L75.656 3.5103L76.4501 4.67511L77.2443 7.64188L78.0384 11.1754L78.8325 16.8427L79.6266 14.4089L80.4207 11.6493L81.2148 15.4955L82.009 17.6746L82.8031 17.5113L83.5972 13.9202L84.3913 11.4532L85.1854 13.3798L85.9796 13.5545L86.7737 12.7163L87.5678 11.4784L88.3619 13.2484L89.156 13.8868L89.9501 12.7142L90.7443 10.2059L91.5384 11.9029L92.3325 13.9682L93.1266 13.6123L93.9207 11.5144L94.7148 13.1866L95.509 12.9338L96.3031 16.9403L97.0972 20.1227L97.8913 20.922L98.6854 20.269L99.4796 20.2259L100.274 18.4832L101.068 23.0558L101.862 19.7654L102.656 20.5647L103.45 17.6993L104.244 15.8738L105.038 14.9755L105.832 13.5332L106.627 12.6051L107.421 16.2085L108.215 15.394L109.009 16.0934L109.803 13.9559L110.597 18.3812L111.391 22.3839L112.185 28.171L112.98 24.0092L113.774 23.5533L114.568 20.7095L115.362 24.0981L116.156 19.3246L116.95 20.4608L117.744 25.047L118.538 30.6018L119.332 31.9269L120.127 29.3136L120.921 32.5355L121.715 34.1497L122.509 37.9721L123.303 40.1451L124.097 38.5341L124.891 40.8251L125.685 39.4865L126.48 37.8164L127.274 39.0099L128.068 42.0848L128.862 47.157L129.656 43.6478L130.45 44.2552L131.244 41.7866L132.038 37.4792L132.832 37.9366L133.627 38.6017L134.421 38.8344" stroke="#32CA5B" stroke-width="1.25"/>
</g>
<defs>
<clipPath id="clip0_9_451">
<rect width="135" height="50" fill="white" transform="translate(0.214844 0.547852)"/>
</clipPath>
</defs>
</svg>
