<svg width="136" height="51" viewBox="0 0 136 51" fill="none" xmlns="http://www.w3.org/2000/svg">
<g clip-path="url(#clip0_2_927)">
<path d="M0.796387 46.4982L1.5952 46.71L2.39402 46.6533L3.19284 46.6447L3.99165 46.7915L4.79047 48.5881L5.58929 47.2948L6.3881 47.2982L7.18692 47.9942L7.98574 47.6048L8.78455 47.4544L9.58337 48.1331L10.3822 47.7033L11.181 47.9005L11.9798 48.132L12.7786 48.2936L13.5775 48.7741L14.3763 48.7804L15.1751 49.5191L15.9739 50.0649L16.7727 47.8939L17.5715 48.6496L18.3704 49.2024L19.1692 46.7475L19.968 47.1678L20.7668 47.3739L21.5656 47.6276L22.3644 47.2227L23.1632 49.2444L23.9621 45.7969L24.7609 42.6956L25.5597 42.9467L26.3585 42.5419L27.1573 41.7645L27.9562 42.5441L28.755 43.0597L29.5538 44.238L30.3526 43.8482L31.1514 43.9777L31.9502 45.023L32.7491 46.137L33.5479 49.5939L34.3467 49.1879L35.1455 47.6113L35.9443 46.7852L36.7431 46.6247L37.542 47.3827L38.3408 47.3941L39.1396 48.036L39.9384 50.8467L40.7372 48.8103L41.536 49.0938L42.3348 49.6345L43.1337 49.6501L43.9325 49.1424L44.7313 49.0009L45.5301 49.0013L46.3289 49.2257L47.1277 48.5428L47.9266 49.3101L48.7254 49.1853L49.5242 49.2561L50.323 50.3453L51.1218 45.6099L51.9206 43.7962L52.7195 42.4019L53.5183 41.3108L54.3171 38.8588L55.1159 36.0737L55.9147 33.9283L56.7135 34.6458L57.5124 31.9016L58.3112 31.2296L59.11 30.4372L59.9088 28.3555L60.7076 27.7172L61.5064 26.982L62.3053 27.0815L63.1041 26.6164L63.9029 26.6712L64.7017 26.3276L65.5005 26.8633L66.2993 26.6922L67.0982 26.4093L67.897 26.9177L68.6958 26.5718L69.4946 26.7607L70.2934 26.0544L71.0922 25.9149L71.8911 24.5821L72.6899 19.9161L73.4887 15.857L74.2875 18.0051L75.0863 18.5043L75.8851 18.9582L76.684 19.5056L77.4828 20.8556L78.2816 21.1079L79.0804 19.1287L79.8792 20.4612L80.678 20.8376L81.4769 20.6619L82.2757 20.9968L83.0745 21.0314L83.8733 21.2269L84.6721 20.8341L85.4709 20.8584L86.2698 21.0229L87.0686 20.6593L87.8674 20.7842L88.6662 21.5241L89.465 21.4714L90.2638 21.6161L91.0627 21.9131L91.8615 21.8872L92.6603 21.7269L93.4591 23.7262L94.2579 24.2051L95.0567 24.808L95.8556 24.7997L96.6544 17.6602L97.4532 13.4292L98.252 14.0409L99.0508 13.7084L99.8496 13.6659L100.648 13.8846L101.447 13.93L102.246 14.2221L103.045 14.1034L103.844 14.6663L104.643 14.9825L105.441 15.1716L106.24 15.0671L107.039 15.3315L107.838 15.3525L108.637 15.291L109.435 15.4258L110.234 15.2513L111.033 15.488L111.832 15.5042L112.631 14.4899L113.43 14.5026L114.228 14.7835L115.027 15.0496L115.826 15.0425L116.625 15.5655L117.424 15.6048L118.222 16.1189L119.021 15.5511L119.82 14.8262L120.619 15.0418L121.418 14.3429L122.217 15.0521L123.015 14.5827L123.814 15.0108L124.613 15.0716L125.412 14.9787L126.211 15.5858L127.009 16.373L127.808 18.8353L128.607 20.0722L129.406 15.081L130.205 11.7897L131.003 9.03807L131.802 11.3856L132.601 8.94L133.4 2.98458L134.199 0.84668L134.998 1.63784" stroke="#32CA5B" stroke-width="1.25"/>
</g>
<defs>
<clipPath id="clip0_2_927">
<rect width="135" height="50" fill="white" transform="translate(0.796387 0.84668)"/>
</clipPath>
</defs>
</svg>
