<svg width="136" height="51" viewBox="0 0 136 51" fill="none" xmlns="http://www.w3.org/2000/svg">
<g clip-path="url(#clip0_2_859)">
<path d="M0.796387 5.31028L1.5952 4.54533L2.39402 4.62184L3.19284 3.32942L3.99165 6.54492L4.79047 12.9155L5.58929 13.4629L6.3881 10.4144L7.18692 10.2135L7.98574 8.88897L8.78455 4.60065L9.58337 2.81705L10.3822 3.40552L11.181 1.56401L11.9798 2.48488L12.7786 3.52336L13.5775 2.60854L14.3763 0.84668L15.1751 1.46916L15.9739 2.35309L16.7727 8.30757L17.5715 22.0794L18.3704 25.8865L19.1692 31.8028L19.968 35.7216L20.7668 37.2813L21.5656 36.5329L22.3644 34.859L23.1632 33.2069L23.9621 37.0877L24.7609 36.6565L25.5597 35.8579L26.3585 33.4933L27.1573 32.597L27.9562 30.9296L28.755 32.3304L29.5538 33.4928L30.3526 28.9162L31.1514 29.5345L31.9502 28.2043L32.7491 34.313L33.5479 32.6067L34.3467 32.5473L35.1455 35.6588L35.9443 32.3964L36.7431 35.0428L37.542 32.0215L38.3408 30.9327L39.1396 31.0524L39.9384 37.889L40.7372 36.8769L41.536 34.7682L42.3348 35.4537L43.1337 36.0514L43.9325 37.2237L44.7313 36.3341L45.5301 35.6366L46.3289 33.5384L47.1277 33.4746L47.9266 32.8259L48.7254 35.4339L49.5242 35.2298L50.323 39.6511L51.1218 47.9598L51.9206 40.8093L52.7195 38.3146L53.5183 43.9394L54.3171 41.8806L55.1159 43.5897L55.9147 48.7869L56.7135 47.8177L57.5124 50.8467L58.3112 47.2929L59.11 46.6367L59.9088 43.8726L60.7076 45.1216L61.5064 41.9461L62.3053 40.7792L63.1041 40.4902L63.9029 41.726L64.7017 36.301L65.5005 36.5506L66.2993 36.8605L67.0982 36.1872L67.897 34.4789L68.6958 36.431L69.4946 34.9357L70.2934 33.8167L71.0922 33.4187L71.8911 34.0152L72.6899 32.6605L73.4887 32.9463L74.2875 33.4987L75.0863 32.2885L75.8851 28.2934L76.684 23.573L77.4828 25.4885L78.2816 22.466L79.0804 22.7858L79.8792 23.7213L80.678 24.6309L81.4769 24.2865L82.2757 21.1606L83.0745 18.8931L83.8733 20.9538L84.6721 23.1844L85.4709 24.2095L86.2698 20.7081L87.0686 18.9175L87.8674 16.5288L88.6662 18.0336L89.465 17.1224L90.2638 15.6142L91.0627 17.1859L91.8615 16.5933L92.6603 16.544L93.4591 18.228L94.2579 18.67L95.0567 18.6374L95.8556 23.0121L96.6544 21.3467L97.4532 21.6368L98.252 23.3161L99.0508 25.6097L99.8496 23.3725L100.648 20.9064L101.447 23.0786L102.246 23.9964L103.045 21.9045L103.844 24.0331L104.643 25.6965L105.441 26.4295L106.24 26.2827L107.039 25.8382L107.838 24.8611L108.637 25.8337L109.435 25.0703L110.234 26.6478L111.033 25.3046L111.832 24.1205L112.631 25.008L113.43 20.193L114.228 21.1352L115.027 24.5858L115.826 25.2548L116.625 23.9729L117.424 25.5559L118.222 25.2854L119.021 26.7756L119.82 22.0933L120.619 20.3083L121.418 12.5445L122.217 9.34139L123.015 12.3372L123.814 13.7262L124.613 15.9457L125.412 17.1904L126.211 15.0655L127.009 16.4676L127.808 16.694L128.607 21.412L129.406 26.0911L130.205 23.0452L131.003 23.5818L131.802 21.5525L132.601 18.3289L133.4 20.8985L134.199 19.3968L134.998 26.0317" stroke="#FF3A33" stroke-width="1.25"/>
</g>
<defs>
<clipPath id="clip0_2_859">
<rect width="135" height="50" fill="white" transform="translate(0.796387 0.84668)"/>
</clipPath>
</defs>
</svg>
