<svg width="136" height="51" viewBox="0 0 136 51" fill="none" xmlns="http://www.w3.org/2000/svg">
<g clip-path="url(#clip0_2_913)">
<path d="M0.796387 6.12063L1.5952 5.67983L2.39402 4.51621L3.19284 1.93053L3.99165 5.02173L4.79047 8.30972L5.58929 9.33892L6.3881 5.28118L7.18692 6.27312L7.98574 5.25179L8.78455 3.46595L9.58337 0.84668L10.3822 3.03429L11.181 2.7249L11.9798 2.77788L12.7786 3.5416L13.5775 3.68975L14.3763 4.49593L15.1751 5.88069L15.9739 6.33687L16.7727 12.1315L17.5715 17.4918L18.3704 22.3868L19.1692 24.0691L19.968 26.7316L20.7668 25.6668L21.5656 27.3533L22.3644 28.7779L23.1632 27.7482L23.9621 29.7641L24.7609 30.4936L25.5597 29.5363L26.3585 26.4513L27.1573 25.5646L27.9562 27.4172L28.755 28.338L29.5538 28.048L30.3526 27.2598L31.1514 27.6419L31.9502 27.2206L32.7491 31.5083L33.5479 31.9135L34.3467 33.3116L35.1455 35.9729L35.9443 33.7746L36.7431 37.7957L37.542 35.8617L38.3408 41.3397L39.1396 41.0184L39.9384 45.0761L40.7372 43.854L41.536 43.8957L42.3348 43.5651L43.1337 43.5316L43.9325 44.3969L44.7313 43.5473L45.5301 42.9288L46.3289 43.4553L47.1277 41.8941L47.9266 42.3175L48.7254 43.9164L49.5242 43.5608L50.323 46.4804L51.1218 50.8467L51.9206 46.2959L52.7195 44.5476L53.5183 45.5159L54.3171 45.973L55.1159 46.509L55.9147 47.9563L56.7135 46.5462L57.5124 50.0991L58.3112 47.0397L59.11 47.4278L59.9088 46.0433L60.7076 47.9801L61.5064 46.8862L62.3053 45.3309L63.1041 46.8971L63.9029 47.06L64.7017 44.9981L65.5005 47.2401L66.2993 46.6954L67.0982 47.0441L67.897 45.7285L68.6958 46.94L69.4946 46.5262L70.2934 45.6166L71.0922 46.3718L71.8911 48.4977L72.6899 48.4504L73.4887 46.5984L74.2875 47.6834L75.0863 47.8424L75.8851 43.0711L76.684 41.5249L77.4828 43.133L78.2816 40.9515L79.0804 40.9686L79.8792 40.968L80.678 41.5148L81.4769 41.8146L82.2757 41.6715L83.0745 39.964L83.8733 39.9694L84.6721 41.9275L85.4709 41.506L86.2698 40.1799L87.0686 38.6447L87.8674 38.0005L88.6662 39.0949L89.465 38.153L90.2638 38.4079L91.0627 40.0355L91.8615 39.5628L92.6603 39.0285L93.4591 41.3714L94.2579 40.8519L95.0567 41.7443L95.8556 43.5704L96.6544 42.1216L97.4532 43.2236L98.252 44.8657L99.0508 44.9116L99.8496 43.779L100.648 42.8607L101.447 42.9379L102.246 42.4724L103.045 40.4746L103.844 41.405L104.643 42.5249L105.441 42.8042L106.24 41.9981L107.039 41.9513L107.838 42.6301L108.637 42.3191L109.435 41.9631L110.234 42.7431L111.033 41.0487L111.832 40.6205L112.631 41.5152L113.43 39.5245L114.228 39.1028L115.027 40.8205L115.826 41.1881L116.625 39.7708L117.424 40.4331L118.222 39.6816L119.021 41.2928L119.82 38.9512L120.619 38.1339L121.418 34.6364L122.217 31.8568L123.015 31.6817L123.814 32.4222L124.613 34.4326L125.412 34.5819L126.211 33.639L127.009 34.6285L127.808 34.5561L128.607 36.0275L129.406 37.0176L130.205 36.7877L131.003 36.1606L131.802 33.8928L132.601 33.8366L133.4 34.6818L134.199 33.2229L134.998 36.7738" stroke="#FF3A33" stroke-width="1.25"/>
</g>
<defs>
<clipPath id="clip0_2_913">
<rect width="135" height="50" fill="white" transform="translate(0.796387 0.84668)"/>
</clipPath>
</defs>
</svg>
