<svg width="136" height="51" viewBox="0 0 136 51" fill="none" xmlns="http://www.w3.org/2000/svg">
<g clip-path="url(#clip0_9_409)">
<path d="M0.214844 42.9505L1.01366 39.9995L1.81248 38.7794L2.61129 36.9935L3.41011 34.0271L4.20893 31.2944L5.00774 27.3957L5.80656 29.5805L6.60538 36.4881L7.40419 31.3248L8.20301 32.0307L9.00183 28.2396L9.80064 29.9131L10.5995 31.6782L11.3983 32.0871L12.1971 33.523L12.9959 31.1044L13.7947 31.171L14.5935 28.2877L15.3924 25.0626L16.1912 28.3574L16.99 26.6984L17.7888 29.3497L18.5876 27.9165L19.3864 31.0139L20.1853 27.8799L20.9841 27.1788L21.7829 27.2167L22.5817 29.6046L23.3805 28.2069L24.1793 29.358L24.9782 32.7134L25.777 28.2197L26.5758 29.4432L27.3746 27.1744L28.1734 31.1491L28.9722 31.6238L29.7711 32.8841L30.5699 33.8519L31.3687 34.5778L32.1675 38.7654L32.9663 41.9239L33.7651 42.0334L34.564 45.1407L35.3628 41.1381L36.1616 38.4994L36.9604 37.1616L37.7592 35.0135L38.558 29.9646L39.3569 30.0429L40.1557 29.4884L40.9545 34.4815L41.7533 29.3868L42.5521 27.6613L43.3509 28.2794L44.1498 29.6671L44.9486 24.8492L45.7474 20.8971L46.5462 22.8801L47.345 25.6848L48.1438 25.4415L48.9427 28.4794L49.7415 34.2048L50.5403 29.8864L51.3391 26.3434L52.1379 29.6896L52.9367 26.7234L53.7356 28.0737L54.5344 28.386L55.3332 26.2527L56.132 27.6629L56.9308 26.6015L57.7296 22.2766L58.5285 23.6444L59.3273 8.65473L60.1261 4.70307L60.9249 11.0595L61.7237 10.727L62.5225 4.11405L63.3214 8.16565L64.1202 0.547852L64.919 1.62127L65.7178 3.00004L66.5166 9.40225L67.3154 8.81018L68.1143 9.46007L68.9131 9.35974L69.7119 10.8161L70.5107 9.5954L71.3095 12.0709L72.1083 10.6607L72.9072 12.0294L73.706 5.94363L74.5048 6.59934L75.3036 1.26503L76.1024 5.65886L76.9012 13.9095L77.7001 5.22576L78.4989 12.6781L79.2977 11.9055L80.0965 6.2795L80.8953 8.1861L81.6941 8.68498L82.493 11.614L83.2918 7.47725L84.0906 10.6496L84.8894 14.246L85.6882 12.684L86.487 13.7091L87.2859 15.9747L88.0847 18.0762L88.8835 21.3821L89.6823 20.0655L90.4811 21.3116L91.2799 17.7157L92.0788 20.3456L92.8776 18.0992L93.6764 16.2185L94.4752 18.7982L95.274 19.2922L96.0728 23.1218L96.8717 23.7046L97.6705 24.9143L98.4693 24.2937L99.2681 26.4206L100.067 23.7423L100.866 24.46L101.665 25.6577L102.463 25.0991L103.262 25.0819L104.061 27.7284L104.86 21.8777L105.659 21.975L106.457 22.2198L107.256 19.3061L108.055 20.0591L108.854 20.7967L109.653 24.4961L110.452 26.561L111.25 20.7354L112.049 28.4629L112.848 26.066L113.647 26.5904L114.446 22.3259L115.244 22.2554L116.043 22.3349L116.842 21.0928L117.641 26.4845L118.44 30.071L119.239 27.3374L120.037 29.3631L120.836 28.2355L121.635 28.7723L122.434 34.015L123.233 42.5143L124.031 41.0344L124.83 41.5708L125.629 41.3698L126.428 36.1408L127.227 37.8725L128.025 40.7643L128.824 50.5479L129.623 44.0983L130.422 40.8504L131.221 44.7034L132.02 41.7596L132.818 40.3489L133.617 42.9345L134.416 36.178" stroke="#32CA5B" stroke-width="1.25"/>
</g>
<defs>
<clipPath id="clip0_9_409">
<rect width="135" height="50" fill="white" transform="translate(0.214844 0.547852)"/>
</clipPath>
</defs>
</svg>
