<svg width="136" height="51" viewBox="0 0 136 51" fill="none" xmlns="http://www.w3.org/2000/svg">
<g clip-path="url(#clip0_16_301)">
<path d="M0.796387 15.4135L1.5952 16.3597L2.39402 14.6933L3.19284 13.2366L3.99165 15.5283L4.79047 18.3101L5.58929 22.4037L6.3881 15.504L7.18692 15.3796L7.98574 13.2391L8.78455 8.93545L9.58337 8.37889L10.3822 8.57777L11.181 6.80838L11.9798 2.47093L12.7786 3.47045L13.5775 3.4167L14.3763 0.84668L15.1751 1.88011L15.9739 1.09613L16.7727 9.09245L17.5715 22.0106L18.3704 13.4033L19.1692 21.5781L19.968 22.5969L20.7668 27.3734L21.5656 30.8079L22.3644 28.2607L23.1632 29.8637L23.9621 28.3584L24.7609 28.64L25.5597 30.1111L26.3585 23.5404L27.1573 19.6413L27.9562 19.0125L28.755 22.8651L29.5538 23.0139L30.3526 22.2709L31.1514 24.1982L31.9502 23.1531L32.7491 30.579L33.5479 30.6924L34.3467 33.355L35.1455 34.0414L35.9443 32.4813L36.7431 31.1915L37.542 26.2033L38.3408 30.959L39.1396 30.4559L39.9384 40.4589L40.7372 40.8284L41.536 37.0162L42.3348 37.8171L43.1337 37.9687L43.9325 39.303L44.7313 37.2773L45.5301 36.7343L46.3289 35.0497L47.1277 32.9927L47.9266 34.2139L48.7254 37.1994L49.5242 36.8527L50.323 43.5755L51.1218 49.7701L51.9206 44.985L52.7195 42.4108L53.5183 45.6093L54.3171 47.601L55.1159 42.6545L55.9147 48.9392L56.7135 47.2403L57.5124 50.8467L58.3112 48.3922L59.11 48.811L59.9088 45.2288L60.7076 47.6222L61.5064 47.7385L62.3053 45.884L63.1041 46.8254L63.9029 48.4502L64.7017 43.0423L65.5005 46.3832L66.2993 46.1188L67.0982 46.3422L67.897 45.7581L68.6958 46.017L69.4946 44.8647L70.2934 43.2987L71.0922 43.9895L71.8911 43.6104L72.6899 41.6554L73.4887 42.1038L74.2875 40.1929L75.0863 41.5693L75.8851 35.8209L76.684 32.8421L77.4828 35.0966L78.2816 34.2672L79.0804 32.8495L79.8792 32.8464L80.678 34.2171L81.4769 33.7906L82.2757 30.0113L83.0745 29.8328L83.8733 31.3808L84.6721 33.592L85.4709 36.4967L86.2698 35.1943L87.0686 33.5625L87.8674 32.6802L88.6662 33.9735L89.465 32.7372L90.2638 29.8682L91.0627 32.148L91.8615 32.3569L92.6603 31.8888L93.4591 35.3908L94.2579 35.7207L95.0567 38.1897L95.8556 41.078L96.6544 41.7271L97.4532 43.4878L98.252 45.3521L99.0508 47.8762L99.8496 45.679L100.648 42.0016L101.447 42.5265L102.246 42.911L103.045 39.6894L103.844 42.0059L104.643 44.3447L105.441 44.797L106.24 44.1875L107.039 44.7493L107.838 44.4467L108.637 44.3002L109.435 42.8696L110.234 43.3456L111.033 41.7352L111.832 40.6665L112.631 39.2685L113.43 31.1837L114.228 31.1291L115.027 33.9346L115.826 35.0182L116.625 33.0536L117.424 36.4473L118.222 35.7811L119.021 36.951L119.82 32.2668L120.619 30.98L121.418 24.352L122.217 18.937L123.015 21.9857L123.814 21.0195L124.613 21.776L125.412 23.3273L126.211 21.276L127.009 21.6918L127.808 23.8219L128.607 28.5556L129.406 32.4002L130.205 28.4291L131.003 29.8232L131.802 23.842L132.601 21.3865L133.4 21.0046L134.199 19.6444L134.998 27.9271" stroke="#FF3A33" stroke-width="1.25"/>
</g>
<defs>
<clipPath id="clip0_16_301">
<rect width="135" height="50" fill="white" transform="translate(0.796387 0.84668)"/>
</clipPath>
</defs>
</svg>
