<svg width="13" height="13" viewBox="0 0 13 13" fill="none" xmlns="http://www.w3.org/2000/svg">
<path d="M5.91602 10.334C6.08529 10.4863 6.27995 10.5625 6.5 10.5625C6.72005 10.5625 6.91471 10.4863 7.08398 10.334L11.959 5.45898C12.1113 5.28971 12.1875 5.09505 12.1875 4.875C12.1875 4.65495 12.1113 4.46029 11.959 4.29102C11.7897 4.13867 11.5951 4.0625 11.375 4.0625C11.1549 4.0625 10.9603 4.13867 10.791 4.29102L6.5 8.60742L2.20898 4.29102C2.03971 4.13867 1.84505 4.0625 1.625 4.0625C1.40495 4.0625 1.21029 4.13867 1.04102 4.29102C0.888672 4.46029 0.8125 4.65495 0.8125 4.875C0.8125 5.09505 0.888672 5.28971 1.04102 5.45898L5.91602 10.334Z" fill="white"/>
</svg>
