<svg width="136" height="51" viewBox="0 0 136 51" fill="none" xmlns="http://www.w3.org/2000/svg">
<g clip-path="url(#clip0_2_783)">
<path d="M0.796387 9.18569L1.5952 11.0635L2.39402 8.0958L3.19284 7.0602L3.99165 6.92882L4.79047 7.52692L5.58929 8.22237L6.3881 5.01494L7.18692 6.68692L7.98574 4.79977L8.78455 4.09748L9.58337 3.224L10.3822 2.25784L11.181 1.42948L11.9798 1.65459L12.7786 0.84668L13.5775 3.60536L14.3763 2.80122L15.1751 3.86155L15.9739 5.81161L16.7727 12.5395L17.5715 21.5645L18.3704 20.5136L19.1692 25.6251L19.968 21.9175L20.7668 24.4758L21.5656 27.2222L22.3644 30.0662L23.1632 29.9744L23.9621 30.4213L24.7609 30.9551L25.5597 28.1399L26.3585 26.7447L27.1573 24.8652L27.9562 25.7209L28.755 25.4893L29.5538 27.174L30.3526 26.1714L31.1514 26.6559L31.9502 27.1888L32.7491 30.8739L33.5479 29.8661L34.3467 31.349L35.1455 33.915L35.9443 32.0545L36.7431 31.683L37.542 28.4846L38.3408 30.5788L39.1396 34.4984L39.9384 38.4742L40.7372 42.9703L41.536 42.9649L42.3348 44.8685L43.1337 42.1289L43.9325 43.1335L44.7313 41.2446L45.5301 40.1346L46.3289 40.706L47.1277 39.0823L47.9266 39.356L48.7254 40.4048L49.5242 41.1868L50.323 45.7267L51.1218 48.2221L51.9206 45.5825L52.7195 43.8176L53.5183 46.0987L54.3171 47.5332L55.1159 45.2494L55.9147 50.8467L56.7135 48.7425L57.5124 48.9908L58.3112 47.0697L59.11 47.5111L59.9088 46.0956L60.7076 47.2738L61.5064 46.1098L62.3053 45.7896L63.1041 46.3599L63.9029 46.9657L64.7017 42.6322L65.5005 43.8519L66.2993 43.1874L67.0982 41.7715L67.897 42.0765L68.6958 42.073L69.4946 41.3065L70.2934 40.8599L71.0922 41.9305L71.8911 41.8049L72.6899 41.5833L73.4887 39.7982L74.2875 42.2287L75.0863 41.3993L75.8851 36.0032L76.684 33.9323L77.4828 36.1469L78.2816 34.1177L79.0804 34.5444L79.8792 34.2867L80.678 34.8834L81.4769 35.6741L82.2757 36.2382L83.0745 34.9265L83.8733 36.2796L84.6721 38.9247L85.4709 38.777L86.2698 36.7145L87.0686 36.4274L87.8674 35.5592L88.6662 36.0136L89.465 35.2297L90.2638 34.7794L91.0627 35.2714L91.8615 35.6748L92.6603 35.0537L93.4591 37.338L94.2579 37.0865L95.0567 36.8988L95.8556 37.7332L96.6544 38.1424L97.4532 38.868L98.252 39.7332L99.0508 38.896L99.8496 37.337L100.648 35.8098L101.447 37.1466L102.246 37.1837L103.045 35.9228L103.844 35.9202L104.643 36.4212L105.441 36.4862L106.24 35.982L107.039 36.0716L107.838 35.9339L108.637 35.2201L109.435 34.6955L110.234 35.4757L111.033 34.5327L111.832 33.9656L112.631 33.9081L113.43 30.3867L114.228 31.3575L115.027 32.7454L115.826 32.1681L116.625 31.0989L117.424 32.2954L118.222 32.787L119.021 34.838L119.82 32.904L120.619 32.7733L121.418 25.1945L122.217 25.1274L123.015 22.8026L123.814 24.3087L124.613 24.5845L125.412 26.2342L126.211 25.0486L127.009 26.3636L127.808 26.5505L128.607 29.9259L129.406 31.3672L130.205 28.9399L131.003 28.4957L131.802 25.7222L132.601 26.3735L133.4 27.3735L134.199 27.0897L134.998 34.8044" stroke="#FF3A33" stroke-width="1.25"/>
</g>
<defs>
<clipPath id="clip0_2_783">
<rect width="135" height="50" fill="white" transform="translate(0.796387 0.84668)"/>
</clipPath>
</defs>
</svg>
