<svg width="136" height="51" viewBox="0 0 136 51" fill="none" xmlns="http://www.w3.org/2000/svg">
<g clip-path="url(#clip0_2_793)">
<path d="M0.796387 35.0924L1.5952 31.9217L2.39402 33.9441L3.19284 32.431L3.99165 32.5812L4.79047 35.6477L5.58929 36.9058L6.3881 32.4608L7.18692 28.5377L7.98574 28.3175L8.78455 25.1137L9.58337 24.9334L10.3822 25.7977L11.181 28.8631L11.9798 28.6434L12.7786 27.5994L13.5775 25.9104L14.3763 25.3647L15.1751 24.1381L15.9739 25.9148L16.7727 26.8006L17.5715 36.1617L18.3704 34.3122L19.1692 36.9654L19.968 36.3457L20.7668 39.7545L21.5656 42.6288L22.3644 40.0977L23.1632 37.7906L23.9621 38.1693L24.7609 37.9839L25.5597 38.5605L26.3585 33.4256L27.1573 33.2685L27.9562 33.2366L28.755 30.5051L29.5538 27.2794L30.3526 22.6197L31.1514 24.5736L31.9502 22.6936L32.7491 27.7851L33.5479 27.6882L34.3467 31.3657L35.1455 31.3173L35.9443 25.1904L36.7431 28.2074L37.542 25.1835L38.3408 27.8367L39.1396 30.7094L39.9384 36.8484L40.7372 34.664L41.536 33.5729L42.3348 34.5837L43.1337 31.0359L43.9325 29.3448L44.7313 22.0866L45.5301 17.1154L46.3289 19.9156L47.1277 20.047L47.9266 21.6637L48.7254 22.5861L49.5242 23.1429L50.323 28.7561L51.1218 29.006L51.9206 27.593L52.7195 22.6793L53.5183 27.4121L54.3171 27.5762L55.1159 28.9816L55.9147 33.7657L56.7135 43.8811L57.5124 49.5508L58.3112 45.3565L59.11 40.9554L59.9088 40.2224L60.7076 47.3395L61.5064 44.9848L62.3053 46.7793L63.1041 46.5873L63.9029 50.3928L64.7017 45.1313L65.5005 50.8467L66.2993 48.4586L67.0982 46.5415L67.897 45.0042L68.6958 43.8179L69.4946 44.1213L70.2934 38.6439L71.0922 37.5738L71.8911 39.321L72.6899 39.5767L73.4887 36.4028L74.2875 37.6545L75.0863 38.5974L75.8851 39.5727L76.684 40.1507L77.4828 36.695L78.2816 37.4561L79.0804 35.964L79.8792 35.3929L80.678 37.2634L81.4769 39.2538L82.2757 35.9368L83.0745 39.3697L83.8733 40.1809L84.6721 42.3853L85.4709 44.079L86.2698 42.532L87.0686 42.7842L87.8674 41.1175L88.6662 42.1599L89.465 41.3912L90.2638 41.9242L91.0627 43.7967L91.8615 43.1927L92.6603 42.3505L93.4591 43.217L94.2579 42.8198L95.0567 43.6615L95.8556 41.9665L96.6544 39.3232L97.4532 40.4556L98.252 41.2756L99.0508 42.8731L99.8496 41.7191L100.648 40.0775L101.447 40.1785L102.246 40.8417L103.045 40.4184L103.844 40.1917L104.643 40.9733L105.441 42.6357L106.24 42.9575L107.039 41.4232L107.838 41.4335L108.637 40.8996L109.435 40.3402L110.234 41.4931L111.033 41.4703L111.832 40.2258L112.631 41.9701L113.43 37.9146L114.228 39.0759L115.027 36.8587L115.826 36.8374L116.625 30.2703L117.424 30.9573L118.222 30.2761L119.021 33.7981L119.82 30.7714L120.619 30.1997L121.418 24.5766L122.217 23.01L123.015 24.3294L123.814 23.8051L124.613 23.341L125.412 24.5618L126.211 23.1496L127.009 21.8866L127.808 16.3085L128.607 19.7112L129.406 21.9331L130.205 18.7574L131.003 20.9673L131.802 15.156L132.601 7.02383L133.4 5.45057L134.199 0.84668L134.998 8.24634" stroke="#32CA5B" stroke-width="1.25"/>
</g>
<defs>
<clipPath id="clip0_2_793">
<rect width="135" height="50" fill="white" transform="translate(0.796387 0.84668)"/>
</clipPath>
</defs>
</svg>
