<svg width="14" height="14" viewBox="0 0 14 14" fill="none" xmlns="http://www.w3.org/2000/svg">
<path d="M8.06641 5.00391C7.8112 5.3138 7.8112 5.6237 8.06641 5.93359C8.3763 6.1888 8.6862 6.1888 8.99609 5.93359L12.6875 2.24219V4.59375C12.724 4.99479 12.9427 5.21354 13.3438 5.25C13.7448 5.21354 13.9635 4.99479 14 4.59375V0.65625C13.9635 0.255208 13.7448 0.0364583 13.3438 0H9.40625C9.00521 0.0364583 8.78646 0.255208 8.75 0.65625C8.78646 1.05729 9.00521 1.27604 9.40625 1.3125H11.7578L8.06641 5.00391ZM5.93359 8.99609C6.1888 8.6862 6.1888 8.3763 5.93359 8.06641C5.6237 7.8112 5.3138 7.8112 5.00391 8.06641L1.3125 11.7578V9.40625C1.27604 9.00521 1.05729 8.78646 0.65625 8.75C0.255208 8.78646 0.0364583 9.00521 0 9.40625V13.3438C0.0364583 13.7448 0.255208 13.9635 0.65625 14H4.59375C4.99479 13.9635 5.21354 13.7448 5.25 13.3438C5.21354 12.9427 4.99479 12.724 4.59375 12.6875H2.24219L5.93359 8.99609Z" fill="#1E293B"/>
</svg>
