<svg width="15" height="13" viewBox="0 0 15 13" fill="none" xmlns="http://www.w3.org/2000/svg">
<path d="M8.05156 0.456983C7.89922 0.169222 7.65378 0.0168786 7.31523 -4.85182e-05C6.99362 0.0168786 6.74818 0.169222 6.57891 0.456983L4.95391 3.80855L1.29766 4.36714C0.976042 4.41792 0.764453 4.59565 0.662891 4.90034C0.561328 5.22196 0.629036 5.50125 0.866016 5.73823L3.50664 8.35347L2.87188 12.0605C2.83802 12.3821 2.94805 12.6445 3.20195 12.8476C3.47279 13.0338 3.76055 13.0507 4.06523 12.8984L7.31523 11.1718L10.5906 12.8984C10.8784 13.0507 11.1577 13.0338 11.4285 12.8476C11.6993 12.6445 11.8094 12.3821 11.7586 12.0605L11.1492 8.35347L13.7898 5.73823C14.0099 5.50125 14.0776 5.22196 13.993 4.90034C13.8745 4.59565 13.6544 4.41792 13.3328 4.36714L9.67656 3.80855L8.05156 0.456983Z" fill="#EAB308"/>
</svg>
