<svg width="15" height="15" viewBox="0 0 15 15" fill="none" xmlns="http://www.w3.org/2000/svg">
<path d="M13.6479 2.36133L13.1284 1.8418C12.3263 1.07617 11.3966 0.693359 10.3394 0.693359C9.28206 0.693359 8.35238 1.07617 7.55029 1.8418L1.94482 7.44727C1.1792 8.24935 0.796387 9.17904 0.796387 10.2363C0.796387 11.2936 1.1792 12.2233 1.94482 13.0254L2.46436 13.5449C3.26644 14.3105 4.19613 14.6934 5.25342 14.6934C6.31071 14.6934 7.2404 14.3105 8.04248 13.5449L13.6479 7.93945C14.4136 7.13737 14.7964 6.20768 14.7964 5.15039C14.7964 4.0931 14.4136 3.16341 13.6479 2.36133ZM7.35889 12.9434C6.7391 13.5449 6.01904 13.8457 5.19873 13.8457C4.39665 13.8457 3.67659 13.5449 3.03857 12.9434L2.54639 12.4512C1.94482 11.8132 1.64404 11.0931 1.64404 10.291C1.64404 9.4707 1.94482 8.75065 2.54639 8.13086L5.1167 5.56055L9.95654 10.373L7.35889 12.9434ZM10.4761 9.85352L5.63623 5.01367L8.23389 2.44336C8.85368 1.8418 9.57373 1.54102 10.394 1.54102C11.1961 1.54102 11.9162 1.8418 12.5542 2.44336L13.0464 2.93555C13.6479 3.57357 13.9487 4.29362 13.9487 5.0957C13.9487 5.91602 13.6479 6.63607 13.0464 7.25586L10.4761 9.85352ZM2.79248 12.2051L3.28467 12.6973C3.84977 13.2259 4.48779 13.4902 5.19873 13.4902C5.9279 13.4902 6.56592 13.2259 7.11279 12.6973L9.43701 10.373L5.1167 6.05273L2.79248 8.37695C2.26383 8.94206 1.99951 9.58008 1.99951 10.291C1.99951 11.002 2.26383 11.64 2.79248 12.2051Z" fill="#64748B"/>
</svg>
