<svg width="136" height="51" viewBox="0 0 136 51" fill="none" xmlns="http://www.w3.org/2000/svg">
<g clip-path="url(#clip0_2_777)">
<path d="M0.796387 15.201L1.5952 14.9987L2.39402 16.7241L3.19284 11.7484L3.99165 12.2372L4.79047 14.7533L5.58929 18.7226L6.3881 8.94992L7.18692 9.24056L7.98574 8.53884L8.78455 7.64871L9.58337 7.78804L10.3822 5.19638L11.181 3.99097L11.9798 3.71418L12.7786 5.13635L13.5775 4.80308L14.3763 4.15712L15.1751 5.20236L15.9739 5.41442L16.7727 12.7938L17.5715 35.4045L18.3704 26.6804L19.1692 34.6865L19.968 38.3199L20.7668 39.3804L21.5656 42.7875L22.3644 41.944L23.1632 38.3886L23.9621 39.9868L24.7609 35.0507L25.5597 33.7516L26.3585 33.9066L27.1573 31.7211L27.9562 30.7671L28.755 34.4L29.5538 33.446L30.3526 29.604L31.1514 31.4911L31.9502 30.5664L32.7491 37.6367L33.5479 35.3888L34.3467 35.5232L35.1455 40.0192L35.9443 33.0062L36.7431 35.6152L37.542 33.3472L38.3408 31.1939L39.1396 33.16L39.9384 43.7609L40.7372 41.1829L41.536 38.1616L42.3348 42.2163L43.1337 40.7466L43.9325 40.4693L44.7313 34.7822L45.5301 36.1247L46.3289 37.0718L47.1277 34.6529L47.9266 34.9079L48.7254 39.3014L49.5242 36.966L50.323 43.6908L51.1218 47.1782L51.9206 45.8791L52.7195 41.1196L53.5183 44.6357L54.3171 45.2264L55.1159 41.7941L55.9147 50.8467L56.7135 47.1982L57.5124 50.4508L58.3112 47.4315L59.11 47.8604L59.9088 45.7054L60.7076 48.3305L61.5064 45.8349L62.3053 43.7427L63.1041 44.6321L63.9029 45.8193L64.7017 38.7979L65.5005 36.2496L66.2993 38.4416L67.0982 37.8326L67.897 35.4735L68.6958 36.3286L69.4946 33.8035L70.2934 32.0813L71.0922 31.5217L71.8911 28.1851L72.6899 19.2623L73.4887 20.1425L74.2875 23.1891L75.0863 24.8959L75.8851 20.5737L76.684 21.2824L77.4828 21.728L78.2816 19.9952L79.0804 19.7106L79.8792 20.3605L80.678 21.6389L81.4769 22.7811L82.2757 21.0517L83.0745 16.7869L83.8733 18.0984L84.6721 23.6153L85.4709 23.6263L86.2698 23.2807L87.0686 19.7247L87.8674 19.3714L88.6662 18.6457L89.465 17.2292L90.2638 15.7802L91.0627 17.9602L91.8615 18.5014L92.6603 17.7802L93.4591 20.9321L94.2579 20.6006L95.0567 18.9397L95.8556 24.0569L96.6544 23.0351L97.4532 25.5206L98.252 26.8032L99.0508 29.8457L99.8496 26.1997L100.648 23.1788L101.447 23.5692L102.246 22.0493L103.045 21.6813L103.844 22.0691L104.643 24.2448L105.441 26.0214L106.24 24.3128L107.039 23.3767L107.838 24.7211L108.637 22.9799L109.435 22.7316L110.234 24.0305L111.033 22.6905L111.832 20.2241L112.631 20.5172L113.43 5.51248L114.228 1.10025L115.027 4.838L115.826 7.45582L116.625 7.17519L117.424 12.1081L118.222 11.4397L119.021 14.7196L119.82 11.9039L120.619 10.4193L121.418 1.41989L122.217 0.84668L123.015 3.15483L123.814 3.70573L124.613 5.68831L125.412 6.67269L126.211 3.20094L127.009 5.01004L127.808 5.34114L128.607 12.2926L129.406 15.8266L130.205 12.4685L131.003 14.5992L131.802 10.8417L132.601 10.8284L133.4 11.4903L134.199 9.0789L134.998 15.9052" stroke="#FF3A33" stroke-width="1.25"/>
</g>
<defs>
<clipPath id="clip0_2_777">
<rect width="135" height="50" fill="white" transform="translate(0.796387 0.84668)"/>
</clipPath>
</defs>
</svg>
