<svg width="136" height="41" viewBox="0 0 136 41" fill="none" xmlns="http://www.w3.org/2000/svg">
<g clip-path="url(#clip0_9_467)">
<path d="M130.415 40.5479H4.94484C3.69118 40.5452 2.48962 40.046 1.60315 39.1595C0.716672 38.2731 0.217486 37.0715 0.214844 35.8179L0.214844 5.27785C0.214844 4.02338 0.713182 2.82028 1.60023 1.93324C2.48728 1.04619 3.69037 0.547852 4.94484 0.547852L130.415 0.547852C133.015 0.547852 135.215 2.66785 135.215 5.27785V35.8179C135.215 38.4179 133.015 40.5479 130.415 40.5479Z" fill="#A6A6A6"/>
<path d="M134.245 35.8182C134.245 36.834 133.841 37.8082 133.123 38.5265C132.405 39.2447 131.431 39.6482 130.415 39.6482H4.94475C3.92897 39.6482 2.95479 39.2447 2.23653 38.5265C1.51826 37.8082 1.11475 36.834 1.11475 35.8182V5.26824C1.12 4.25673 1.52415 3.28815 2.2394 2.5729C2.95466 1.85765 3.92324 1.4535 4.93475 1.44824H130.415C131.431 1.44824 132.405 1.85176 133.123 2.57002C133.841 3.28829 134.245 4.26246 134.245 5.27824V35.8182Z" fill="black"/>
<path d="M30.3449 20.3283C30.3149 17.1083 32.9849 15.5283 33.1049 15.4683C31.5849 13.2683 29.2449 12.9683 28.4049 12.9383C26.4549 12.7183 24.5449 14.1083 23.5449 14.1083C22.5149 14.1083 20.9749 12.9483 19.3149 12.9883C17.1849 13.0183 15.1849 14.2583 14.0849 16.1883C11.8149 20.0883 13.5049 25.8683 15.6849 29.0383C16.7649 30.5883 18.0349 32.3383 19.6849 32.2683C21.3149 32.1983 21.9249 31.2283 23.8849 31.2283C25.8349 31.2283 26.4049 32.2583 28.0849 32.2283C29.8349 32.1883 30.9349 30.6583 31.9849 29.0883C33.2349 27.3083 33.7449 25.5583 33.7649 25.4683C33.7249 25.4483 30.3649 24.1683 30.3449 20.3083V20.3283ZM27.1449 10.8583C28.0149 9.75832 28.6149 8.28832 28.4449 6.77832C27.1849 6.82832 25.6049 7.64832 24.6949 8.71832C23.8949 9.65832 23.1649 11.2183 23.3549 12.6583C24.7749 12.7583 26.2349 11.9383 27.1549 10.8583H27.1449ZM53.8649 32.0483H51.5849L50.3449 28.1483H46.0149L44.8349 32.0483H42.6349L46.9049 18.7483H49.5449L53.8449 32.0483H53.8649ZM49.9649 26.5083L48.8449 23.0283C48.7249 22.6783 48.5049 21.8283 48.1749 20.5283H48.1349C47.936 21.3644 47.726 22.1978 47.5049 23.0283L46.3849 26.5083H49.9649ZM64.8649 27.1383C64.8649 28.7583 64.4349 30.0383 63.5649 30.9983C62.7649 31.8383 61.7849 32.2583 60.6149 32.2583C59.3449 32.2583 58.4449 31.8083 57.8849 30.8983H57.8449V35.9483H55.7149V25.6283C55.7149 24.5983 55.6849 23.5483 55.6349 22.4683H57.5149L57.6349 23.9983H57.6649C58.3849 22.8483 59.4649 22.2783 60.9049 22.2783C62.0249 22.2783 62.9749 22.7383 63.7349 23.6283C64.4849 24.5283 64.8649 25.7083 64.8649 27.1683V27.1383ZM62.7049 27.2083C62.7049 26.2683 62.4849 25.5083 62.0649 24.9083C61.6049 24.2583 60.9849 23.9483 60.2049 23.9483C59.6849 23.9483 59.2049 24.1283 58.7749 24.4783C58.3449 24.8283 58.0749 25.2783 57.9349 25.8483C57.8749 26.1183 57.8349 26.3283 57.8349 26.4983V28.0983C57.8349 28.7983 58.0549 29.3983 58.4849 29.8683C58.9149 30.3383 59.4649 30.5883 60.1449 30.5883C60.9449 30.5883 61.5749 30.2883 62.0249 29.6683C62.4749 29.0483 62.6949 28.2283 62.6949 27.2183L62.7049 27.2083ZM75.9049 27.1283C75.9049 28.7483 75.4649 30.0283 74.5749 30.9883C73.7949 31.8283 72.8049 32.2483 71.6349 32.2483C70.3749 32.2483 69.4649 31.7983 68.9149 30.8883H68.8849V35.9383H66.7549V25.6283C66.7549 24.5983 66.7249 23.5483 66.6749 22.4683H68.5449L68.6649 23.9983H68.7049C69.4049 22.8483 70.4849 22.2783 71.9349 22.2783C73.0649 22.2783 74.0149 22.7383 74.7649 23.6283C75.5249 24.5283 75.9049 25.7083 75.9049 27.1683V27.1283ZM73.7349 27.1983C73.7349 26.2583 73.5349 25.4983 73.0949 24.8983C72.6249 24.2483 72.0149 23.9383 71.2349 23.9383C70.7106 23.9406 70.2041 24.1283 69.8049 24.4683C69.3849 24.8183 69.1049 25.2683 68.9749 25.8383C68.9049 26.1083 68.8749 26.3183 68.8749 26.4883V28.0883C68.8749 28.7883 69.0749 29.3883 69.5149 29.8583C69.9549 30.3383 70.5149 30.5783 71.1949 30.5783C71.9949 30.5783 72.6249 30.2783 73.0749 29.6583C73.5149 29.0383 73.7449 28.2183 73.7449 27.2083L73.7349 27.1983ZM88.2349 28.2983C88.2349 29.4283 87.8549 30.3483 87.0649 31.0683C86.1949 31.8383 84.9849 32.2283 83.4349 32.2283C82.0049 32.2283 80.8549 31.9483 79.9849 31.3983L80.4849 29.6183C81.4149 30.1783 82.4449 30.4583 83.5649 30.4583C84.3649 30.4583 84.9949 30.2783 85.4449 29.9183C85.8849 29.5583 86.1149 29.0683 86.1149 28.4683C86.1149 27.9283 85.9349 27.4683 85.5649 27.0983C85.2049 26.7283 84.5849 26.3983 83.7349 26.0683C81.4049 25.1983 80.2349 23.9283 80.2349 22.2683C80.2349 21.1683 80.6349 20.2683 81.4649 19.5683C82.2649 18.8683 83.3649 18.5183 84.7249 18.5183C85.9449 18.5183 86.9449 18.7183 87.7549 19.1483L87.2149 20.9183C86.4549 20.5183 85.6149 20.3183 84.6649 20.3183C83.9149 20.3183 83.3249 20.4883 82.9049 20.8583C82.7314 21.01 82.5931 21.1978 82.4998 21.4085C82.4066 21.6193 82.3605 21.8479 82.3649 22.0783C82.3649 22.5983 82.5649 23.0383 82.9649 23.3783C83.3249 23.6983 83.9649 24.0383 84.9049 24.4083C86.0549 24.8683 86.9049 25.4083 87.4349 26.0283C87.9749 26.6283 88.2349 27.4083 88.2349 28.3283V28.2983ZM95.2949 24.0383H92.9349V28.7083C92.9349 29.8883 93.3349 30.4783 94.1749 30.4783C94.5549 30.4783 94.8749 30.4483 95.1249 30.3783L95.1849 31.9983C94.7549 32.1583 94.1849 32.2383 93.5149 32.2383C92.6749 32.2383 92.0149 31.9783 91.5349 31.4683C91.0649 30.9683 90.8349 30.0883 90.8349 28.8683V24.0483H89.4349V22.4483H90.8349V20.6983L92.9349 20.0683V22.4683H95.2749V24.0683L95.2949 24.0383ZM105.895 27.1683C105.895 28.6383 105.465 29.8483 104.625 30.7983C103.725 31.7683 102.565 32.2583 101.105 32.2583C99.7049 32.2583 98.5849 31.7883 97.7449 30.8583C96.9049 29.9283 96.4949 28.7583 96.4949 27.3283C96.4949 25.8283 96.9149 24.6083 97.7749 23.6583C98.6449 22.7183 99.8049 22.2383 101.275 22.2383C102.675 22.2383 103.805 22.7183 104.655 23.6383C105.475 24.5583 105.885 25.7383 105.885 27.1683H105.895ZM103.675 27.2383C103.675 26.3383 103.475 25.5883 103.105 24.9583C102.665 24.1883 102.025 23.8083 101.205 23.8083C100.335 23.8083 99.6849 24.1883 99.2449 24.9583C98.8449 25.5883 98.6649 26.3583 98.6649 27.2783C98.6649 28.1583 98.8649 28.9183 99.2449 29.5483C99.7049 30.3283 100.345 30.7083 101.175 30.7083C101.995 30.7083 102.635 30.3083 103.095 29.5383C103.475 28.8883 103.675 28.1183 103.675 27.2383ZM112.815 24.3183C112.594 24.278 112.37 24.2579 112.145 24.2583C111.395 24.2583 110.815 24.5583 110.405 25.1083C110.065 25.6083 109.885 26.2483 109.885 27.0083V32.0383H107.755L107.775 25.4683C107.775 24.3683 107.745 23.3683 107.695 22.4483H109.535L109.615 24.2983H109.675C109.905 23.6583 110.255 23.1583 110.745 22.7683C111.191 22.4407 111.731 22.2654 112.285 22.2683C112.465 22.2683 112.645 22.2683 112.805 22.2983V24.3283L112.815 24.3183ZM122.355 26.7883C122.36 27.1135 122.333 27.4384 122.275 27.7583H115.875C115.905 28.7083 116.215 29.4283 116.805 29.9283C117.355 30.3683 118.055 30.5883 118.905 30.5883C119.855 30.5883 120.725 30.4383 121.505 30.1383L121.835 31.6383C120.935 32.0183 119.855 32.2183 118.615 32.2183C117.135 32.2183 115.965 31.7783 115.115 30.9183C114.275 30.0183 113.845 28.8583 113.845 27.3783C113.845 25.9383 114.245 24.7283 115.045 23.7783C115.865 22.7483 116.975 22.2283 118.385 22.2283C119.785 22.2283 120.815 22.7283 121.525 23.7583C122.105 24.5783 122.385 25.5783 122.385 26.7783L122.355 26.7883ZM120.325 26.2383C120.325 25.6083 120.195 25.0583 119.905 24.5983C119.545 23.9983 118.985 23.6983 118.205 23.6983C117.525 23.6983 116.955 23.9983 116.525 24.5783C116.165 25.0383 115.955 25.5783 115.895 26.2383H120.325ZM49.2649 10.5483C49.2649 11.7483 48.9149 12.6183 48.2049 13.2183C47.5449 13.7683 46.6049 14.0383 45.4049 14.0383C44.8049 14.0383 44.3049 13.9983 43.8849 13.9383V7.54832C44.4349 7.44832 45.0349 7.41832 45.6849 7.41832C46.8349 7.41832 47.6849 7.66832 48.2849 8.15832C48.9249 8.71832 49.2549 9.51832 49.2549 10.5583L49.2649 10.5483ZM48.1649 10.5883C48.1649 9.82832 47.9649 9.23832 47.5649 8.82832C47.1449 8.42832 46.5649 8.22832 45.7849 8.22832C45.4549 8.22832 45.1849 8.22832 44.9349 8.28832V13.1883C45.0649 13.1883 45.3049 13.2083 45.6349 13.2083C46.4349 13.2083 47.0649 12.9783 47.5049 12.5383C47.9449 12.0983 48.1449 11.4383 48.1449 10.5783L48.1649 10.5883ZM55.1249 11.5883C55.1249 12.3083 54.9249 12.9083 54.5249 13.3683C54.0749 13.8483 53.5049 14.0883 52.7849 14.0883C52.0849 14.0883 51.5449 13.8583 51.1349 13.3883C50.7349 12.9383 50.5349 12.3583 50.5349 11.6683C50.5349 10.9383 50.7349 10.3383 51.1649 9.86832C51.5949 9.39832 52.1649 9.16832 52.8649 9.16832C53.5649 9.16832 54.1249 9.39832 54.5449 9.86832C54.9449 10.3083 55.1449 10.8683 55.1449 11.5883H55.1249ZM54.0449 11.6183C54.0449 11.1883 53.9449 10.8183 53.7649 10.4983C53.5449 10.1283 53.2349 9.93832 52.8249 9.93832C52.4049 9.93832 52.0849 10.1183 51.8649 10.4883C51.6649 10.7883 51.5849 11.1883 51.5849 11.6283C51.5849 12.0583 51.6849 12.4283 51.8649 12.7283C52.0949 13.1283 52.4049 13.2983 52.8149 13.2983C53.2149 13.2983 53.5149 13.0983 53.7449 12.7283C53.9449 12.4083 54.0449 12.0283 54.0449 11.5983V11.6183ZM62.9949 9.26832L61.5149 13.9683H60.5449L59.9449 11.9383C59.785 11.4323 59.6515 10.9182 59.5449 10.3983C59.448 10.9171 59.3143 11.4284 59.1449 11.9283L58.5049 13.9583H57.5249L56.1449 9.25832H57.2149L57.7649 11.4883C57.8849 12.0183 57.9949 12.5183 58.0849 12.9883C58.1849 12.6083 58.3049 12.1083 58.4849 11.4883L59.1549 9.24832H60.0149L60.6549 11.4483C60.8049 11.9883 60.9349 12.5083 61.0349 12.9983H61.0549C61.1349 12.5183 61.2349 11.9983 61.3749 11.4483L61.9549 9.24832H62.9849L62.9949 9.26832ZM68.4249 13.9683H67.3749V11.2683C67.3749 10.4483 67.0549 10.0283 66.4249 10.0283C66.2799 10.0248 66.1361 10.0545 66.0043 10.1151C65.8726 10.1758 65.7565 10.2658 65.6649 10.3783C65.4718 10.6001 65.3652 10.8842 65.3649 11.1783V13.9783H64.3149V10.6183C64.3149 10.1983 64.3149 9.74832 64.2849 9.26832H65.2149L65.2549 9.99832H65.2849C65.4049 9.77832 65.5849 9.59832 65.8249 9.43832C66.1249 9.23832 66.4249 9.15832 66.7849 9.15832C67.2249 9.15832 67.5849 9.29832 67.8849 9.58832C68.2449 9.93832 68.4249 10.4583 68.4249 11.1483V13.9783V13.9683ZM71.3249 13.9683H70.2649V7.11832H71.3149V13.9883L71.3249 13.9683ZM77.4849 11.5883C77.4849 12.3083 77.2849 12.9083 76.8649 13.3683C76.4249 13.8483 75.8649 14.0883 75.1349 14.0883C74.4549 14.0883 73.9049 13.8583 73.4949 13.3883C73.0949 12.9383 72.8749 12.3583 72.8749 11.6683C72.8749 10.9383 73.0749 10.3383 73.5149 9.86832C73.9549 9.39832 74.5149 9.16832 75.2149 9.16832C75.9149 9.16832 76.4749 9.39832 76.8949 9.86832C77.2949 10.3083 77.4949 10.8683 77.4949 11.5883H77.4849ZM76.3849 11.6183C76.3849 11.1883 76.3049 10.8183 76.1149 10.4983C75.8849 10.1283 75.5749 9.93832 75.1649 9.93832C74.7449 9.93832 74.4249 10.1183 74.2049 10.4883C74.0049 10.7883 73.9049 11.1883 73.9049 11.6283C73.9049 12.0583 74.0049 12.4283 74.2049 12.7283C74.4249 13.1283 74.7349 13.2983 75.1449 13.2983C75.5449 13.2983 75.8449 13.0983 76.0849 12.7283C76.2849 12.4083 76.3849 12.0283 76.3849 11.5983V11.6183ZM82.5549 13.9783H81.6149L81.5149 13.4383H81.4949C81.1749 13.8583 80.7149 14.0783 80.1149 14.0783C79.6749 14.0783 79.3149 13.9383 79.0449 13.6483C78.8012 13.3928 78.6683 13.0514 78.6749 12.6983C78.6749 12.1283 78.9149 11.6983 79.3949 11.3783C79.8949 11.0783 80.5549 10.9283 81.4349 10.9383V10.8383C81.4349 10.2183 81.1049 9.90832 80.4549 9.90832C79.9849 9.90832 79.5749 10.0283 79.2249 10.2583L79.0249 9.55832C79.4549 9.29832 79.9949 9.15832 80.6249 9.15832C81.8649 9.15832 82.4849 9.80832 82.4849 11.1083V12.8483C82.4849 13.3283 82.5149 13.6983 82.5549 13.9783ZM81.4549 12.3583V11.6583C80.3149 11.6283 79.7349 11.9383 79.7349 12.5983C79.7349 12.8383 79.8049 13.0283 79.9349 13.1483C80.0649 13.2683 80.2549 13.3183 80.4549 13.3183C80.6849 13.3183 80.9049 13.2483 81.0949 13.0983C81.2131 13.0146 81.3094 12.9037 81.3756 12.7749C81.4417 12.646 81.4758 12.5031 81.4749 12.3583H81.4549ZM88.5049 13.9883H87.5749L87.5349 13.2383H87.5149C87.2149 13.8083 86.7149 14.0983 85.9949 14.0983C85.4249 14.0983 84.9549 13.8783 84.5949 13.4283C84.2349 12.9783 84.0149 12.4083 84.0149 11.6983C84.0149 10.9283 84.2149 10.2983 84.6349 9.83832C85.0349 9.39832 85.5049 9.17832 86.0849 9.17832C86.7149 9.17832 87.1649 9.39832 87.4149 9.81832H87.4349V7.11832H88.4849V12.7183C88.4849 13.1783 88.4849 13.6183 88.5249 13.9883H88.5049ZM87.4249 12.0083V11.2083C87.4345 11.0285 87.4036 10.8489 87.3343 10.6827C87.2651 10.5166 87.1593 10.3681 87.0249 10.2483C86.8323 10.0771 86.5826 9.98438 86.3249 9.98832C85.9249 9.98832 85.6249 10.1383 85.3949 10.4483C85.1749 10.7483 85.0549 11.1483 85.0549 11.6483C85.0549 12.1083 85.1549 12.4883 85.3749 12.7783C85.6049 13.0783 85.9149 13.2483 86.2949 13.2483C86.6349 13.2483 86.9149 13.1183 87.1249 12.8483C87.3249 12.6183 87.4249 12.3283 87.4249 11.9883V12.0083ZM97.4749 11.6083C97.4749 12.3083 97.2749 12.9083 96.8549 13.3783C96.4149 13.8583 95.8549 14.0983 95.1249 14.0983C94.4249 14.0983 93.8849 13.8683 93.4749 13.3983C93.0749 12.9483 92.8549 12.3683 92.8549 11.6783C92.8549 10.9483 93.0549 10.3483 93.4949 9.87832C93.9349 9.40832 94.4949 9.17832 95.1949 9.17832C95.8949 9.17832 96.4549 9.40832 96.8749 9.87832C97.2749 10.3183 97.4749 10.8783 97.4749 11.5983V11.6083ZM96.3749 11.6283C96.3749 11.1983 96.2949 10.8283 96.1049 10.5083C95.8849 10.1383 95.5749 9.94832 95.1649 9.94832C94.7449 9.94832 94.4249 10.1283 94.2049 10.4983C94.0049 10.7983 93.9249 11.1983 93.9249 11.6383C93.9249 12.0683 94.0249 12.4383 94.2049 12.7383C94.4349 13.1383 94.7449 13.3083 95.1549 13.3083C95.5549 13.3083 95.8549 13.1083 96.0949 12.7383C96.2949 12.4183 96.3949 12.0383 96.3949 11.6083L96.3749 11.6283ZM103.105 13.9883H102.055V11.2883C102.055 10.4583 101.755 10.0483 101.105 10.0483C100.805 10.0483 100.545 10.1483 100.355 10.3783C100.165 10.6083 100.055 10.8783 100.055 11.1783V13.9783H99.0149V10.6183C99.0149 10.1983 98.9849 9.74832 98.9649 9.26832H99.8849L99.9349 9.99832H99.9649C100.094 9.76825 100.28 9.57534 100.505 9.43832C100.785 9.23832 101.105 9.15832 101.445 9.15832C101.885 9.15832 102.245 9.29832 102.545 9.58832C102.905 9.93832 103.085 10.4583 103.085 11.1483V13.9783L103.105 13.9883ZM110.165 10.0583H109.015V12.3583C109.015 12.9383 109.215 13.2283 109.615 13.2283C109.795 13.2283 109.955 13.2083 110.075 13.1783L110.105 13.9783C109.885 14.0483 109.605 14.0783 109.285 14.0783C108.865 14.0783 108.545 13.9583 108.315 13.7083C108.085 13.4583 107.975 13.0383 107.975 12.4383V10.0483H107.275V9.26832H107.975V8.39832L109.005 8.09832V9.26832H110.145V10.0483L110.165 10.0583ZM115.705 13.9883H114.655V11.3083C114.655 10.4683 114.335 10.0483 113.705 10.0483C113.225 10.0283 112.885 10.2783 112.705 10.7683C112.67 10.8919 112.653 11.0199 112.655 11.1483V13.9783H111.615V7.10832H112.645V9.94832H112.665C112.995 9.42832 113.465 9.16832 114.085 9.16832C114.515 9.16832 114.885 9.30832 115.165 9.59832C115.515 9.94832 115.695 10.4783 115.695 11.1783V13.9783L115.705 13.9883ZM121.435 11.4083C121.435 11.6083 121.435 11.7583 121.405 11.8883H118.265C118.265 12.3483 118.425 12.7083 118.715 12.9483C118.985 13.1483 119.315 13.2683 119.745 13.2683C120.225 13.2683 120.645 13.1983 121.025 13.0483L121.195 13.7783C120.745 13.9783 120.215 14.0783 119.595 14.0783C118.895 14.0783 118.295 13.8583 117.895 13.4283C117.475 12.9983 117.265 12.4283 117.265 11.6883C117.265 10.9883 117.465 10.3883 117.845 9.91832C118.245 9.41832 118.805 9.15832 119.495 9.15832C120.175 9.15832 120.695 9.42832 121.035 9.92832C121.305 10.3283 121.435 10.8283 121.435 11.4083ZM120.435 11.1383C120.45 10.8576 120.38 10.5789 120.235 10.3383C120.055 10.0383 119.785 9.89832 119.405 9.89832C119.242 9.89696 119.081 9.93543 118.937 10.0104C118.792 10.0853 118.668 10.1945 118.575 10.3283C118.404 10.5629 118.301 10.8394 118.275 11.1283H120.445L120.435 11.1383Z" fill="white"/>
</g>
<defs>
<clipPath id="clip0_9_467">
<rect width="135" height="40" fill="white" transform="translate(0.214844 0.547852)"/>
</clipPath>
</defs>
</svg>
