<svg width="136" height="51" viewBox="0 0 136 51" fill="none" xmlns="http://www.w3.org/2000/svg">
<g clip-path="url(#clip0_2_484)">
<path d="M0.214844 27.6513L1.01842 26.8203L1.82199 20.0095L2.62556 24.9192L3.42913 25.7643L4.2327 27.737L5.03627 28.2508L5.83984 32.6653L6.64341 36.185L7.44699 36.7455L8.25056 30.1298L9.05413 26.2091L9.8577 26.605L10.6613 23.7214L11.4648 24.7981L12.2684 18.2772L13.072 20.2974L13.8756 23.3494L14.6791 25.8775L15.4827 23.3798L16.2863 25.3699L17.0898 25.8283L17.8934 31.1199L18.697 33.546L19.5006 33.8425L20.3041 32.7137L21.1077 32.6481L21.9113 33.3334L22.7148 33.4058L23.5184 32.5187L24.322 35.2866L25.1256 34.5743L25.9291 31.2555L26.7327 39.9393L27.5363 41.8139L28.3398 48.814L29.1434 48.5964L29.947 47.7444L30.7506 46.2713L31.5541 47.0013L32.3577 50.3245L33.1613 47.8704L33.9648 50.5479L34.7684 42.6093L35.572 43.9811L36.3756 40.0961L37.1791 42.1723L37.9827 35.4855L38.7863 36.1187L39.5898 31.7859L40.3934 33.5084L41.197 34.1951L42.0006 31.1122L42.8041 29.59L43.6077 31.2172L44.4113 31.8645L45.2148 30.387L46.0184 24.5856L46.822 21.4456L47.6256 29.3644L48.4291 22.3153L49.2327 25.974L50.0363 25.9977L50.8398 26.9416L51.6434 30.0608L52.447 28.7078L53.2506 25.9248L54.0541 32.7687L54.8577 32.5918L55.6613 24.9832L56.4648 24.5182L57.2684 18.7994L58.072 20.338L58.8756 17.6906L59.6791 15.5763L60.4827 21.2268L61.2863 26.3679L62.0898 22.3003L62.8934 21.9007L63.697 18.3405L64.5006 10.6916L65.3041 9.60992L66.1077 0.547852L66.9113 6.60345L67.7148 5.30931L68.5184 6.84091L69.322 8.3135L70.1256 7.54418L70.9291 4.09021L71.7327 5.83001L72.5363 8.14372L73.3398 7.17979L74.1434 6.51337L74.947 8.70092L75.7506 8.00553L76.5541 11.9855L77.3577 12.7703L78.1613 14.0525L78.9648 18.124L79.7684 17.1751L80.572 15.4254L81.3756 14.3678L82.1791 21.2822L82.9827 17.6757L83.7863 15.4603L84.5898 15.9652L85.3934 17.4346L86.197 14.4L87.0006 14.1675L87.8041 13.2911L88.6077 14.0622L89.4113 16.6409L90.2148 14.8991L91.0184 14.0089L91.822 15.4953L92.6256 15.7376L93.4291 14.9095L94.2327 14.1746L95.0363 16.2242L95.8398 16.5361L96.6434 22.6406L97.447 26.1981L98.2506 24.9597L99.0541 24.1232L99.8577 24.2489L100.661 21.9353L101.465 24.3153L102.268 21.284L103.072 21.8559L103.876 17.8623L104.679 16.7125L105.483 18.45L106.286 18.4508L107.09 17.4633L107.893 17.8134L108.697 17.5903L109.501 21.0821L110.304 20.9151L111.108 24.0554L111.911 34.9927L112.715 35.9528L113.518 31.7119L114.322 30.9284L115.126 25.8556L115.929 27.579L116.733 28.9483L117.536 27.3386L118.34 36.8179L119.143 39.8133L119.947 30.5177L120.751 30.0138L121.554 31.2131L122.358 35.2444L123.161 37.9419L123.965 38.8731L124.768 39.2321L125.572 44.1461L126.376 42.1326L127.179 38.1537L127.983 37.2343L128.786 39.691L129.59 41.0426L130.393 35.055L131.197 34.5298L132.001 34.1068L132.804 30.3834L133.608 26.3177L134.411 26.4672" stroke="#32CA5B" stroke-width="1.25"/>
</g>
<defs>
<clipPath id="clip0_2_484">
<rect width="135" height="50" fill="white" transform="translate(0.214844 0.547852)"/>
</clipPath>
</defs>
</svg>
