<svg width="136" height="51" viewBox="0 0 136 51" fill="none" xmlns="http://www.w3.org/2000/svg">
<g clip-path="url(#clip0_9_337)">
<path d="M0.214844 33.9526L1.01366 30.1139L1.81248 31.4016L2.61129 32.8467L3.41011 33.3655L4.20893 29.0961L5.00774 35.2986L5.80656 29.8337L6.60538 36.8361L7.40419 33.829L8.20301 29.1691L9.00183 29.786L9.80064 24.4058L10.5995 28.977L11.3983 36.2544L12.1971 34.7082L12.9959 32.7464L13.7947 30.9829L14.5935 27.7669L15.3924 20.1158L16.1912 32.2462L16.99 31.6744L17.7888 36.568L18.5876 32.6322L19.3864 33.7187L20.1853 30.6849L20.9841 33.3703L21.7829 30.1874L22.5817 32.6038L23.3805 33.2413L24.1793 36.8018L24.9782 32.1396L25.777 32.2734L26.5758 32.6063L27.3746 33.8315L28.1734 28.6163L28.9722 32.717L29.7711 29.4217L30.5699 32.699L31.3687 32.8226L32.1675 35.0394L32.9663 34.332L33.7651 36.189L34.564 35.6255L35.3628 32.2894L36.1616 29.6024L36.9604 35.4592L37.7592 34.6831L38.558 33.5593L39.3569 36.1519L40.1557 32.2877L40.9545 34.8382L41.7533 29.6674L42.5521 32.9048L43.3509 33.8777L44.1498 38.2052L44.9486 38.4298L45.7474 39.2111L46.5462 31.1289L47.345 35.3118L48.1438 34.5463L48.9427 28.2975L49.7415 31.3727L50.5403 33.6961L51.3391 32.8464L52.1379 31.599L52.9367 31.7409L53.7356 30.9561L54.5344 33.0245L55.3332 32.2448L56.132 32.4569L56.9308 31.6375L57.7296 31.9839L58.5285 34.5299L59.3273 33.2124L60.1261 33.7372L60.9249 33.9821L61.7237 31.6699L62.5225 27.895L63.3214 35.8079L64.1202 35.0136L64.919 32.8963L65.7178 30.7834L66.5166 32.3602L67.3154 28.1385L68.1143 34.0812L68.9131 27.1948L69.7119 32.1941L70.5107 29.4392L71.3095 33.6778L72.1083 25.7991L72.9072 26.8895L73.706 28.7644L74.5048 30.116L75.3036 29.3962L76.1024 28.6287L76.9012 32.4841L77.7001 29.6415L78.4989 30.2854L79.2977 28.5107L80.0965 30.1586L80.8953 28.7764L81.6941 29.8717L82.493 24.1139L83.2918 30.0786L84.0906 30.6262L84.8894 30.3927L85.6882 28.1005L86.487 30.5685L87.2859 29.2887L88.0847 30.1248L88.8835 32.3977L89.6823 30.9058L90.4811 30.5369L91.2799 31.9981L92.0788 29.7981L92.8776 30.0012L93.6764 30.9523L94.4752 31.0012L95.274 32.2941L96.0728 30.6132L96.8717 32.4322L97.6705 29.8479L98.4693 30.9362L99.2681 31.1339L100.067 30.6897L100.866 30.9463L101.665 27.0224L102.463 31.5083L103.262 30.6511L104.061 29.5276L104.86 31.0728L105.659 28.9108L106.457 28.7397L107.256 30.5061L108.055 31.8924L108.854 32.6507L109.653 32.2556L110.452 23.6851L111.25 31.5025L112.049 29.4193L112.848 31.0849L113.647 33.4212L114.446 33.1005L115.244 34.4691L116.043 33.5579L116.842 37.7854L117.641 33.2075L118.44 28.9912L119.239 0.547852L120.037 31.3446L120.836 38.8037L121.635 26.6384L122.434 24.9011L123.233 36.6011L124.031 31.018L124.83 24.4684L125.629 29.5496L126.428 32.6387L127.227 30.4471L128.025 35.7206L128.824 50.5479L129.623 30.2124L130.422 31.059L131.221 36.5774L132.02 33.0637L132.818 33.8755L133.617 35.9017L134.416 33.3831" stroke="#32CA5B" stroke-width="1.25"/>
</g>
<defs>
<clipPath id="clip0_9_337">
<rect width="135" height="50" fill="white" transform="translate(0.214844 0.547852)"/>
</clipPath>
</defs>
</svg>
