<svg width="136" height="51" viewBox="0 0 136 51" fill="none" xmlns="http://www.w3.org/2000/svg">
<g clip-path="url(#clip0_2_863)">
<path d="M0.796387 23.4828L1.5905 27.7316L2.38462 29.7828L3.17874 28.6112L3.97286 30.2976L4.76697 32.8485L5.56109 31.4089L6.35521 29.0684L7.14933 30.0747L7.94345 31.6522L8.73756 27.8939L9.53168 29.9616L10.3258 27.9163L11.1199 22.9542L11.914 22.9181L12.7082 22.8356L13.5023 22.7808L14.2964 22.431L15.0905 21.3064L15.8846 20.9182L16.6787 22.4359L17.4729 24.9724L18.267 25.7779L19.0611 24.8904L19.8552 23.3834L20.6493 27.6136L21.4434 31.1648L22.2376 37.7519L23.0317 39.9186L23.8258 37.6255L24.6199 41.683L25.414 32.3696L26.2082 34.2982L27.0023 31.0416L27.7964 30.9588L28.5905 29.574L29.3846 32.4058L30.1787 32.8276L30.9729 33.9473L31.767 37.059L32.5611 32.1072L33.3552 34.9919L34.1493 37.0319L34.9434 39.7538L35.7376 22.7695L36.5317 34.0235L37.3258 30.9965L38.1199 31.4605L38.914 31.9583L39.7082 41.115L40.5023 45.6244L41.2964 44.0601L42.0905 48.2196L42.8846 46.9692L43.6787 47.7754L44.4729 42.6749L45.267 46.9687L46.0611 45.913L46.8552 45.1048L47.6493 44.9027L48.4434 46.3364L49.2376 44.8522L50.0317 46.2037L50.8258 50.8467L51.6199 48.4977L52.414 46.026L53.2082 47.9086L54.0023 48.3629L54.7964 41.903L55.5905 46.1161L56.3846 44.3013L57.1787 49.6027L57.9729 45.9838L58.767 43.3688L59.5611 40.9469L60.3552 40.7457L61.1493 44.7983L61.9434 46.6188L62.7376 46.5201L63.5317 46.1383L64.3258 39.0129L65.1199 41.3057L65.914 40.4169L66.7082 41.1603L67.5023 38.9531L68.2964 44.4865L69.0905 41.1124L69.8846 44.9945L70.6787 43.318L71.4729 45.3014L72.267 41.0687L73.0611 41.1831L73.8552 38.4375L74.6493 38.2223L75.4434 30.8388L76.2376 27.5257L77.0317 35.9951L77.8258 32.8208L78.6199 32.3013L79.414 30.3935L80.2082 32.1815L81.0023 32.3555L81.7964 32.7362L82.5905 30.4964L83.3846 30.6404L84.1787 32.1276L84.9729 32.8464L85.767 33.3302L86.5611 26.0581L87.3552 31.5962L88.1493 30.8541L88.9434 31.0523L89.7376 30.1669L90.5317 25.9229L91.3258 26.2202L92.1199 25.0938L92.914 25.7208L93.7082 25.1854L94.5023 26.5196L95.2964 27.5176L96.0905 25.7291L96.8846 27.8275L97.6787 27.8176L98.4729 28.8855L99.267 26.6905L100.061 26.297L100.855 28.9133L101.649 27.3981L102.443 26.7437L103.238 26.4323L104.032 26.0153L104.826 25.9288L105.62 25.3591L106.414 26.219L107.208 28.6479L108.002 26.1129L108.796 25.0552L109.591 25.4875L110.385 23.917L111.179 22.0646L111.973 24.2923L112.767 24.5801L113.561 22.2225L114.355 25.4813L115.149 24.7654L115.943 23.0344L116.738 25.1355L117.532 26.3877L118.326 28.6429L119.12 25.0477L119.914 25.4518L120.708 18.5194L121.502 18.5928L122.296 22.3345L123.091 21.1578L123.885 18.9487L124.679 22.3954L125.473 20.2654L126.267 20.7289L127.061 20.1611L127.855 21.2961L128.649 25.4709L129.443 25.5403L130.238 25.6051L131.032 7.46909L131.826 11.7695L132.62 3.54219L133.414 0.84668L134.208 4.44238L135.002 9.5482" stroke="#32CA5B" stroke-width="1.25"/>
</g>
<defs>
<clipPath id="clip0_2_863">
<rect width="135" height="50" fill="white" transform="translate(0.796387 0.84668)"/>
</clipPath>
</defs>
</svg>
