<svg width="11" height="15" viewBox="0 0 11 15" fill="none" xmlns="http://www.w3.org/2000/svg">
<path d="M1.08984 1.26953C0.834635 1.26953 0.625 1.35156 0.460938 1.51562C0.296875 1.67969 0.214844 1.88932 0.214844 2.14453C0.214844 2.39974 0.296875 2.60938 0.460938 2.77344C0.625 2.9375 0.834635 3.01953 1.08984 3.01953H9.83984C10.0951 3.01953 10.3047 2.9375 10.4688 2.77344C10.6328 2.60938 10.7148 2.39974 10.7148 2.14453C10.7148 1.88932 10.6328 1.67969 10.4688 1.51562C10.3047 1.35156 10.0951 1.26953 9.83984 1.26953H1.08984ZM6.09375 5.01562C5.91146 4.85156 5.70182 4.76953 5.46484 4.76953C5.22786 4.76953 5.01823 4.85156 4.83594 5.01562L1.33594 8.51562C1.17188 8.69792 1.08984 8.90755 1.08984 9.14453C1.08984 9.38151 1.17188 9.59115 1.33594 9.77344C1.51823 9.9375 1.72786 10.0195 1.96484 10.0195C2.20182 10.0195 2.41146 9.9375 2.59375 9.77344L4.58984 7.75V12.6445C4.58984 12.8997 4.67188 13.1094 4.83594 13.2734C5 13.4375 5.20964 13.5195 5.46484 13.5195C5.72005 13.5195 5.92969 13.4375 6.09375 13.2734C6.25781 13.1094 6.33984 12.8997 6.33984 12.6445V7.75L8.33594 9.77344C8.51823 9.9375 8.72786 10.0195 8.96484 10.0195C9.20182 10.0195 9.41146 9.9375 9.59375 9.77344C9.75781 9.59115 9.83984 9.38151 9.83984 9.14453C9.83984 8.90755 9.75781 8.69792 9.59375 8.51562L6.09375 5.01562Z" fill="#0F172A"/>
</svg>
