<svg width="12" height="13" viewBox="0 0 12 13" fill="none" xmlns="http://www.w3.org/2000/svg">
<path d="M5.46094 10.0391C5.61719 10.1797 5.79688 10.25 6 10.25C6.20312 10.25 6.38281 10.1797 6.53906 10.0391L11.0391 5.53906C11.1797 5.38281 11.25 5.20312 11.25 5C11.25 4.79688 11.1797 4.61719 11.0391 4.46094C10.8828 4.32031 10.7031 4.25 10.5 4.25C10.2969 4.25 10.1172 4.32031 9.96094 4.46094L6 8.44531L2.03906 4.46094C1.88281 4.32031 1.70312 4.25 1.5 4.25C1.29688 4.25 1.11719 4.32031 0.960938 4.46094C0.820312 4.61719 0.75 4.79688 0.75 5C0.75 5.20312 0.820312 5.38281 0.960938 5.53906L5.46094 10.0391Z" fill="#0F172A"/>
</svg>
