<svg width="136" height="51" viewBox="0 0 136 51" fill="none" xmlns="http://www.w3.org/2000/svg">
<g clip-path="url(#clip0_2_883)">
<path d="M0.796387 0.855191L1.5952 0.84668L2.39402 2.73554L3.19284 2.06124L3.99165 3.73614L4.79047 7.44291L5.58929 4.97536L6.3881 2.97129L7.18692 5.02143L7.98574 5.95767L8.78455 3.38996L9.58337 3.43357L10.3822 5.27116L11.181 2.10922L11.9798 1.72539L12.7786 3.54145L13.5775 4.57005L14.3763 3.86796L15.1751 5.03288L15.9739 4.96179L16.7727 11.0914L17.5715 17.1797L18.3704 20.2579L19.1692 25.5765L19.968 27.965L20.7668 31.7819L21.5656 32.6338L22.3644 33.3039L23.1632 30.9805L23.9621 32.8097L24.7609 34.4623L25.5597 34.3201L26.3585 32.7944L27.1573 31.4556L27.9562 30.6802L28.755 30.8607L29.5538 30.9381L30.3526 29.9453L31.1514 30.7857L31.9502 30.8305L32.7491 35.4078L33.5479 36.0208L34.3467 35.8972L35.1455 36.4909L35.9443 34.037L36.7431 34.7453L37.542 33.0282L38.3408 37.3093L39.1396 40.0406L39.9384 44.6786L40.7372 44.428L41.536 41.7975L42.3348 43.7276L43.1337 42.2206L43.9325 42.2189L44.7313 41.0351L45.5301 41.2245L46.3289 41.0278L47.1277 39.5408L47.9266 40.5525L48.7254 41.6126L49.5242 42.19L50.323 43.8138L51.1218 46.8312L51.9206 45.7115L52.7195 45.2157L53.5183 47.8449L54.3171 46.2776L55.1159 46.0164L55.9147 48.2786L56.7135 47.5305L57.5124 50.8467L58.3112 47.4306L59.11 48.2588L59.9088 46.3334L60.7076 47.4701L61.5064 46.6637L62.3053 45.5346L63.1041 45.8967L63.9029 46.1798L64.7017 44.0033L65.5005 45.3362L66.2993 45.0044L67.0982 44.7335L67.897 43.0668L68.6958 42.9321L69.4946 41.7686L70.2934 40.4721L71.0922 41.934L71.8911 42.5585L72.6899 41.3737L73.4887 39.3788L74.2875 40.1422L75.0863 40.107L75.8851 40.0681L76.684 38.7349L77.4828 40.4367L78.2816 39.7326L79.0804 39.2211L79.8792 39.8272L80.678 39.8773L81.4769 40.4861L82.2757 39.3237L83.0745 38.5927L83.8733 39.7137L84.6721 40.9391L85.4709 41.5783L86.2698 39.9882L87.0686 39.0466L87.8674 38.2296L88.6662 39.0903L89.465 39.0603L90.2638 38.6276L91.0627 39.1107L91.8615 38.7325L92.6603 38.5451L93.4591 40.0097L94.2579 40.0011L95.0567 40.847L95.8556 42.2569L96.6544 42.1173L97.4532 42.583L98.252 43.1177L99.0508 43.4767L99.8496 41.3189L100.648 40.407L101.447 41.0523L102.246 41.6319L103.045 39.7263L103.844 40.1167L104.643 40.7481L105.441 40.7805L106.24 40.1007L107.039 39.3428L107.838 39.1664L108.637 39.3751L109.435 38.8056L110.234 38.7822L111.033 36.252L111.832 35.9286L112.631 36.0771L113.43 31.2172L114.228 32.4295L115.027 34.9807L115.826 35.0916L116.625 34.0609L117.424 35.0267L118.222 34.7623L119.021 35.2961L119.82 32.7622L120.619 32.6217L121.418 29.0223L122.217 26.4368L123.015 28.1199L123.814 29.0319L124.613 30.4173L125.412 29.4877L126.211 29.5544L127.009 29.9866L127.808 29.641L128.607 33.7105L129.406 35.8628L130.205 34.9078L131.003 35.4509L131.802 33.3612L132.601 30.5464L133.4 32.8731L134.199 32.4753L134.998 36.4885" stroke="#FF3A33" stroke-width="1.25"/>
</g>
<defs>
<clipPath id="clip0_2_883">
<rect width="135" height="50" fill="white" transform="translate(0.796387 0.84668)"/>
</clipPath>
</defs>
</svg>
