<svg width="48" height="48" viewBox="0 0 48 48" fill="none" xmlns="http://www.w3.org/2000/svg">
<g clip-path="url(#clip0_3_817)">
<mask id="mask0_3_817" style="mask-type:luminance" maskUnits="userSpaceOnUse" x="0" y="0" width="48" height="48">
<path d="M48 0H0V48H48V0Z" fill="white"/>
</mask>
<g mask="url(#mask0_3_817)">
<path d="M38.2041 0.122449H9.79592C4.45341 0.122449 0.122452 4.45341 0.122452 9.79592V38.2041C0.122452 43.5466 4.45341 47.8775 9.79592 47.8775H38.2041C43.5466 47.8775 47.8776 43.5466 47.8776 38.2041V9.79592C47.8776 4.45341 43.5466 0.122449 38.2041 0.122449Z" fill="url(#paint0_linear_3_817)" stroke="#3F3F3F" stroke-width="0.244898"/>
<path d="M24.4898 10.7755C24.4898 10.2345 24.929 9.79222 25.4685 9.83148C27.794 10.0004 30.042 10.7692 31.99 12.0704C34.2099 13.5534 35.9403 15.6612 36.9621 18.1273C37.9838 20.5935 38.2511 23.3071 37.7303 25.9251C37.2732 28.2221 36.2274 30.3551 34.7025 32.1185C34.3487 32.5276 33.7256 32.5254 33.3431 32.143L24.7768 23.5791C24.5931 23.3953 24.4898 23.1461 24.4898 22.8863V10.7755Z" fill="#00D092"/>
<path d="M32.1486 33.5584C32.5313 33.941 32.5335 34.5644 32.124 34.9182C30.6977 36.151 29.0258 37.0737 27.2145 37.623C25.0901 38.2673 22.8395 38.3778 20.662 37.9448C18.4847 37.5118 16.4476 36.5487 14.7316 35.1406C13.0154 33.7326 11.6731 31.9232 10.8235 29.8727C9.97391 27.8222 9.64332 25.5939 9.86096 23.3851C10.0785 21.1763 10.8376 19.0552 12.071 17.2099C13.3044 15.3644 14.974 13.8516 16.9319 12.8053C18.6014 11.9133 20.4363 11.3839 22.317 11.2473C22.8566 11.208 23.2958 11.6503 23.2958 12.1913V24.708L32.1486 33.5584Z" fill="#006E4D"/>
<path d="M33.6508 17.7385H32.3993C32.6255 18.0258 32.7688 18.3769 32.829 18.7918H33.8948L33.6508 19.6323H32.8448C32.7811 20.2636 32.532 20.7388 32.097 21.0581C31.6622 21.3772 31.0577 21.5368 30.2834 21.5368L32.8978 24.5798V24.6436H31.694L28.8835 21.3613L28.8781 20.6963H30.1985C30.6405 20.6928 30.9993 20.597 31.2751 20.409C31.5508 20.2175 31.7257 19.9586 31.8 19.6323H28.7296L28.9735 18.7918H31.7895C31.6199 18.1179 31.1001 17.7669 30.2304 17.7385H28.7402L28.9896 16.898H33.8948L33.6508 17.7385Z" fill="white"/>
</g>
</g>
<defs>
<linearGradient id="paint0_linear_3_817" x1="24" y1="8.61593e-09" x2="24" y2="48" gradientUnits="userSpaceOnUse">
<stop stop-color="#515151" stop-opacity="0.61"/>
<stop offset="1" stop-color="#1B1B1B" stop-opacity="0"/>
</linearGradient>
<clipPath id="clip0_3_817">
<rect width="48" height="48" fill="white"/>
</clipPath>
</defs>
</svg>
