<svg width="136" height="51" viewBox="0 0 136 51" fill="none" xmlns="http://www.w3.org/2000/svg">
<g clip-path="url(#clip0_2_809)">
<path d="M0.796387 10.6809L1.59996 8.91215L2.40353 6.40947L3.2071 7.0762L4.01067 8.94671L4.81424 8.38201L5.61782 5.63653L6.42139 5.46731L7.22496 5.82494L8.02853 4.02442L8.8321 1.93941L9.63567 2.2996L10.4392 0.901932L11.2428 0.84668L12.0464 1.605L12.85 2.65186L13.6535 2.29736L14.4571 2.89724L15.2607 4.85683L16.0642 10.8514L16.8678 16.3613L17.6714 19.524L18.475 24.121L19.2785 22.6682L20.0821 24.4093L20.8857 27.1461L21.6892 31.1L22.4928 30.1119L23.2964 30.6776L24.1 32.0508L24.9035 29.9256L25.7071 27.1426L26.5107 24.1865L27.3142 25.3457L28.1178 25.4881L28.9214 26.949L29.725 26.0469L30.5285 27.1481L31.3321 26.7779L32.1357 30.5736L32.9392 31.2037L33.7428 30.31L34.5464 33.4385L35.35 30.5093L36.1535 33.8088L36.9571 30.2722L37.7607 31.9667L38.5642 33.8941L39.3678 38.7877L40.1714 42.1001L40.975 41.4936L41.7785 41.999L42.5821 42.1224L43.3857 44.2033L44.1892 42.3856L44.9928 41.4238L45.7964 41.0454L46.6 39.709L47.4035 39.4935L48.2071 41.1347L49.0107 40.6372L49.8142 42.945L50.6178 48.3755L51.4214 46.0934L52.225 44.1261L53.0285 47.3326L53.8321 46.7578L54.6357 46.866L55.4392 50.325L56.2428 48.3741L57.0464 50.8467L57.85 48.7267L58.6535 47.6008L59.4571 46.7768L60.2607 48.2371L61.0642 46.7012L61.8678 46.9065L62.6714 46.7641L63.475 47.5733L64.2785 42.3108L65.0821 43.2626L65.8857 44.0698L66.6892 42.8486L67.4928 41.4463L68.2964 41.9768L69.1 41.7306L69.9035 41.3434L70.7071 41.8711L71.5107 41.9542L72.3142 41.5163L73.1178 39.6313L73.9214 41.3779L74.725 41.1761L75.5285 39.0311L76.3321 33.2716L77.1357 35.9657L77.9392 34.1117L78.7428 34.1543L79.5464 34.2844L80.35 35.0258L81.1535 35.5908L81.9571 36.1805L82.7607 35.87L83.5642 35.9825L84.3678 38.5366L85.1714 38.6974L85.975 37.957L86.7785 36.094L87.5821 35.3676L88.3857 35.8677L89.1892 35.9321L89.9928 34.9182L90.7964 35.6734L91.6 35.5045L92.4035 35.4397L93.2071 36.4267L94.0107 36.3972L94.8142 36.4754L95.6178 37.674L96.4214 37.4511L97.225 37.8024L98.0285 39.6583L98.8321 39.5491L99.6357 37.7058L100.439 35.7266L101.243 36.6208L102.046 37.2509L102.85 36.6474L103.654 35.9231L104.457 36.4577L105.261 36.295L106.064 36.0716L106.868 35.65L107.671 36.1015L108.475 35.2145L109.279 35.2931L110.082 35.4856L110.886 34.4612L111.689 33.5359L112.493 34.0492L113.296 30.8958L114.1 30.7969L114.904 32.6469L115.707 31.8201L116.511 31.514L117.314 31.6583L118.118 32.8464L118.921 35.5152L119.725 32.7134L120.529 32.6868L121.332 25.6478L122.136 25.0141L122.939 21.7644L123.743 24.058L124.546 24.7399L125.35 26.0741L126.154 25.3352L126.957 25.9866L127.761 26.6268L128.564 30.3629L129.368 31.8573L130.171 28.2595L130.975 28.6132L131.779 26.8804L132.582 23.3408L133.386 26.9928L134.189 27.0356L134.993 33.6542" stroke="#FF3A33" stroke-width="1.25"/>
</g>
<defs>
<clipPath id="clip0_2_809">
<rect width="135" height="50" fill="white" transform="translate(0.796387 0.84668)"/>
</clipPath>
</defs>
</svg>
