<svg width="136" height="51" viewBox="0 0 136 51" fill="none" xmlns="http://www.w3.org/2000/svg">
<g clip-path="url(#clip0_2_524)">
<path d="M0.214844 40.7966L1.01366 31.5034L1.81248 28.2582L2.61129 30.4275L3.41011 28.5284L4.20893 33.5339L5.00774 33.747L5.80656 32.8632L6.60538 43.1078L7.40419 36.9193L8.20301 23.7085L9.00183 15.9103L9.80064 7.09862L10.5995 10.12L11.3983 28.8423L12.1971 24.512L12.9959 21.0793L13.7947 21.9438L14.5935 18.277L15.3924 8.13465L16.1912 11.9633L16.99 9.33613L17.7888 15.6644L18.5876 14.9316L19.3864 24.8079L20.1853 19.5099L20.9841 18.6164L21.7829 20.0521L22.5817 19.0342L23.3805 24.1335L24.1793 22.141L24.9782 21.622L25.777 26.7239L26.5758 26.4563L27.3746 25.4408L28.1734 40.6508L28.9722 41.2086L29.7711 38.5902L30.5699 44.594L31.3687 34.8289L32.1675 39.9485L32.9663 46.9089L33.7651 49.5226L34.564 48.8354L35.3628 36.3235L36.1616 33.9865L36.9604 39.4597L37.7592 38.6449L38.558 37.8118L39.3569 28.9454L40.1557 26.4817L40.9545 23.9301L41.7533 13.4888L42.5521 11.2102L43.3509 28.5455L44.1498 24.8485L44.9486 15.15L45.7474 14.3639L46.5462 10.537L47.345 9.47171L48.1438 13.4779L48.9427 25.2309L49.7415 23.0208L50.5403 17.0457L51.3391 16.2552L52.1379 15.933L52.9367 18.7394L53.7356 50.5479L54.5344 45.1829L55.3332 36.2404L56.132 31.6956L56.9308 29.9783L57.7296 17.4072L58.5285 19.6036L59.3273 22.2682L60.1261 19.2041L60.9249 20.5993L61.7237 14.6108L62.5225 15.8768L63.3214 24.6875L64.1202 23.0128L64.919 9.73091L65.7178 15.8319L66.5166 21.1658L67.3154 10.1175L68.1143 14.049L68.9131 24.5926L69.7119 18.3631L70.5107 15.5234L71.3095 18.6192L72.1083 18.8389L72.9072 15.9675L73.706 11.281L74.5048 16.3548L75.3036 17.0413L76.1024 15.4812L76.9012 17.999L77.7001 24.1037L78.4989 33.466L79.2977 34.6048L80.0965 34.4101L80.8953 33.6922L81.6941 29.6083L82.493 30.908L83.2918 23.2199L84.0906 27.0094L84.8894 26.3856L85.6882 41.4577L86.487 40.8335L87.2859 43.6326L88.0847 42.3522L88.8835 48.7909L89.6823 45.5078L90.4811 43.8352L91.2799 35.3341L92.0788 15.3402L92.8776 3.32441L93.6764 9.69626L94.4752 12.6526L95.274 13.7826L96.0728 24.0511L96.8717 16.0713L97.6705 22.6344L98.4693 20.5397L99.2681 27.8087L100.067 23.3781L100.866 35.4385L101.665 27.5911L102.463 23.6031L103.262 25.0436L104.061 28.4627L104.86 21.229L105.659 21.3344L106.457 15.2816L107.256 13.0185L108.055 7.15055L108.854 14.385L109.653 14.0451L110.452 23.0099L111.25 26.0683L112.049 32.7878L112.848 28.2956L113.647 22.5264L114.446 12.504L115.244 1.81327L116.043 0.547852L116.842 17.8058L117.641 27.1521L118.44 17.5587L119.239 24.1734L120.037 32.3128L120.836 35.1555L121.635 27.5413L122.434 31.0846L123.233 37.9076L124.031 34.5009L124.83 38.1941L125.629 32.8832L126.428 32.1064L127.227 34.2253L128.025 29.1568L128.824 41.7469L129.623 36.6575L130.422 31.0691L131.221 39.1256L132.02 33.2918L132.818 28.7038L133.617 21.532L134.416 20.731" stroke="#32CA5B" stroke-width="1.25"/>
</g>
<defs>
<clipPath id="clip0_2_524">
<rect width="135" height="50" fill="white" transform="translate(0.214844 0.547852)"/>
</clipPath>
</defs>
</svg>
