<svg width="136" height="51" viewBox="0 0 136 51" fill="none" xmlns="http://www.w3.org/2000/svg">
<g clip-path="url(#clip0_9_283)">
<path d="M0.214844 44.3727L1.01366 41.4406L1.81248 41.2077L2.61129 38.2687L3.41011 37.0372L4.20893 42.2089L5.00774 41.2974L5.80656 41.4432L6.60538 44.5266L7.40419 45.5258L8.20301 44.6254L9.00183 45.5307L9.80064 40.4003L10.5995 37.124L11.3983 30.892L12.1971 31.0117L12.9959 27.2934L13.7947 25.8775L14.5935 31.0795L15.3924 31.9474L16.1912 28.7016L16.99 29.4098L17.7888 28.2356L18.5876 29.7691L19.3864 35.277L20.1853 37.4422L20.9841 36.8872L21.7829 38.2925L22.5817 41.3844L23.3805 41.411L24.1793 39.1067L24.9782 38.4799L25.777 36.9788L26.5758 36.891L27.3746 41.2929L28.1734 43.6139L28.9722 46.3177L29.7711 46.0797L30.5699 44.4782L31.3687 41.7323L32.1675 42.8216L32.9663 48.6429L33.7651 47.617L34.564 50.5479L35.3628 46.8775L36.1616 45.3212L36.9604 43.6554L37.7592 41.5085L38.558 38.0024L39.3569 36.8836L40.1557 36.024L40.9545 39.1426L41.7533 36.0871L42.5521 28.7577L43.3509 26.6191L44.1498 26.6462L44.9486 17.6883L45.7474 20.4608L46.5462 15.3496L47.345 10.1913L48.1438 15.7374L48.9427 16.248L49.7415 22.2732L50.5403 19.0214L51.3391 15.9429L52.1379 18.6548L52.9367 16.1119L53.7356 13.7451L54.5344 14.2812L55.3332 18.6012L56.132 13.7121L56.9308 13.6726L57.7296 12.6771L58.5285 12.5076L59.3273 10.24L60.1261 7.55998L60.9249 7.87416L61.7237 10.6825L62.5225 12.2412L63.3214 6.98497L64.1202 4.99325L64.919 0.547852L65.7178 2.08017L66.5166 1.19798L67.3154 4.77093L68.1143 4.77774L68.9131 6.23973L69.7119 6.2335L70.5107 5.78461L71.3095 4.69121L72.1083 4.94746L72.9072 5.73159L73.706 3.33128L74.5048 1.39837L75.3036 1.27638L76.1024 1.01953L76.9012 3.24787L77.7001 5.41769L78.4989 6.20491L79.2977 11.5676L80.0965 7.87883L80.8953 5.28623L81.6941 7.4123L82.493 11.1232L83.2918 9.90274L84.0906 8.36922L84.8894 9.65244L85.6882 10.2615L86.487 7.70807L87.2859 7.12521L88.0847 6.27916L88.8835 6.83765L89.6823 7.81374L90.4811 7.59054L91.2799 5.28662L92.0788 7.29049L92.8776 6.07504L93.6764 7.36126L94.4752 6.9135L95.274 8.088L96.0728 8.09393L96.8717 9.96758L97.6705 10.7844L98.4693 9.68276L99.2681 8.57505L100.067 8.11041L100.866 6.87454L101.665 7.05016L102.463 6.59115L103.262 8.0288L104.061 6.49803L104.86 5.28978L105.659 5.27818L106.457 5.62646L107.256 4.64032L108.055 5.07225L108.854 2.1205L109.653 9.34751L110.452 9.27158L111.25 12.1356L112.049 21.526L112.848 28.1674L113.647 29.1663L114.446 27.7247L115.244 27.2046L116.043 28.7241L116.842 26.0843L117.641 30.3757L118.44 36.327L119.239 40.7598L120.037 35.5606L120.836 32.0632L121.635 34.2861L122.434 38.8154L123.233 39.1367L124.031 41.8849L124.83 38.6469L125.629 44.3159L126.428 41.2508L127.227 38.8339L128.025 38.6445L128.824 39.4314L129.623 44.0044L130.422 43.4612L131.221 42.1351L132.02 40.3592L132.818 40.4299L133.617 37.8804L134.416 33.5751" stroke="#32CA5B" stroke-width="1.25"/>
</g>
<defs>
<clipPath id="clip0_9_283">
<rect width="135" height="50" fill="white" transform="translate(0.214844 0.547852)"/>
</clipPath>
</defs>
</svg>
