<svg width="136" height="51" viewBox="0 0 136 51" fill="none" xmlns="http://www.w3.org/2000/svg">
<g clip-path="url(#clip0_2_779)">
<path d="M0.796387 10.7766L1.59996 8.75762L2.40353 6.28241L3.2071 6.61337L4.01067 7.47742L4.81424 8.58636L5.61782 5.35554L6.42139 5.29736L7.22496 5.96025L8.02853 3.83939L8.8321 2.42163L9.63567 2.66726L10.4392 0.852135L11.2428 0.84668L12.0464 1.26536L12.85 1.60585L13.6535 1.89424L14.4571 2.39526L15.2607 4.45146L16.0642 11.1049L16.8678 14.3376L17.6714 20.0797L18.475 23.6714L19.2785 22.6503L20.0821 23.6548L20.8857 26.1171L21.6892 31.4157L22.4928 29.4552L23.2964 30.5039L24.1 32.1665L24.9035 29.7632L25.7071 26.4394L26.5107 24.6018L27.3142 24.7512L28.1178 25.1041L28.9214 25.4222L29.725 25.2809L30.5285 25.5801L31.3321 26.5315L32.1357 30.197L32.9392 29.9196L33.7428 30.331L34.5464 32.8121L35.35 32.2698L36.1535 32.8176L36.9571 29.0018L37.7607 29.8376L38.5642 30.5154L39.3678 37.4224L40.1714 42.0757L40.975 40.4472L41.7785 42.4022L42.5821 43.3143L43.3857 44.3952L44.1892 43.3354L44.9928 41.6383L45.7964 40.8865L46.6 39.5194L47.4035 39.4155L48.2071 42.0473L49.0107 40.4485L49.8142 44.2534L50.6178 49.6661L51.4214 46.2851L52.225 45.2356L53.0285 46.1517L53.8321 46.4028L54.6357 48.1191L55.4392 50.6656L56.2428 49.5757L57.0464 50.8467L57.85 48.5053L58.6535 48.2835L59.4571 46.6668L60.2607 48.0316L61.0642 46.5347L61.8678 46.2566L62.6714 46.6365L63.475 47.6732L64.2785 42.8525L65.0821 43.2535L65.8857 44.1947L66.6892 42.7678L67.4928 42.0978L68.2964 42.2092L69.1 41.3422L69.9035 41.3514L70.7071 42.0194L71.5107 41.7509L72.3142 41.855L73.1178 40.5335L73.9214 41.3583L74.725 43.5258L75.5285 37.8241L76.3321 33.898L77.1357 35.0815L77.9392 35.0279L78.7428 34.0732L79.5464 34.2848L80.35 34.9866L81.1535 35.747L81.9571 36.2614L82.7607 35.3221L83.5642 36.1776L84.3678 37.7509L85.1714 38.6947L85.975 38.1367L86.7785 36.6522L87.5821 35.8847L88.3857 36.0013L89.1892 35.8048L89.9928 35.1455L90.7964 35.3308L91.6 35.7302L92.4035 35.6794L93.2071 36.9949L94.0107 36.3593L94.8142 36.5162L95.6178 37.2835L96.4214 37.3441L97.225 38.6379L98.0285 39.4276L98.8321 39.9543L99.6357 37.9419L100.439 36.9789L101.243 37.6963L102.046 37.3579L102.85 36.4825L103.654 36.0523L104.457 36.4793L105.261 36.5584L106.064 36.3619L106.868 36.0398L107.671 35.8277L108.475 35.4207L109.279 35.243L110.082 35.5115L110.886 34.7131L111.689 34.0033L112.493 33.7522L113.296 32.0316L114.1 31.344L114.904 32.4666L115.707 31.6274L116.511 31.3237L117.314 31.4278L118.118 32.453L118.921 34.5471L119.725 34.0015L120.529 32.9809L121.332 25.3843L122.136 25.059L122.939 22.3146L123.743 23.6982L124.546 24.6381L125.35 26.2602L126.154 24.5077L126.957 25.7969L127.761 26.1558L128.564 29.7667L129.368 31.9115L130.171 28.4253L130.975 28.6074L131.779 27.1994L132.582 27.133L133.386 27.0957L134.189 27.3353L134.993 31.3575" stroke="#FF3A33" stroke-width="1.25"/>
</g>
<defs>
<clipPath id="clip0_2_779">
<rect width="135" height="50" fill="white" transform="translate(0.796387 0.84668)"/>
</clipPath>
</defs>
</svg>
