<svg width="48" height="48" viewBox="0 0 48 48" fill="none" xmlns="http://www.w3.org/2000/svg">
<g clip-path="url(#clip0_3_779)">
<mask id="mask0_3_779" style="mask-type:luminance" maskUnits="userSpaceOnUse" x="0" y="0" width="48" height="48">
<path d="M48 0H0V48H48V0Z" fill="white"/>
</mask>
<g mask="url(#mask0_3_779)">
<path d="M38.2041 0.122449H9.79592C4.45341 0.122449 0.122452 4.45341 0.122452 9.79592V38.2041C0.122452 43.5466 4.45341 47.8775 9.79592 47.8775H38.2041C43.5466 47.8775 47.8776 43.5466 47.8776 38.2041V9.79592C47.8776 4.45341 43.5466 0.122449 38.2041 0.122449Z" fill="url(#paint0_linear_3_779)" stroke="#3F3F3F" stroke-width="0.244898"/>
<path d="M34.3539 13.102H13.6461C12.0607 13.102 10.7755 14.3873 10.7755 15.9726V34.0355C10.7755 35.6209 12.0607 36.9061 13.6461 36.9061H34.3539C35.9393 36.9061 37.2245 35.6209 37.2245 34.0355V15.9726C37.2245 14.3873 35.9393 13.102 34.3539 13.102Z" fill="#00D797"/>
<path d="M25.2645 21.7002H23.3936C22.9973 21.7002 22.676 22.0215 22.676 22.4179V24.2887C22.676 24.685 22.9973 25.0063 23.3936 25.0063H25.2645C25.6608 25.0063 25.9821 24.685 25.9821 24.2887V22.4179C25.9821 22.0215 25.6608 21.7002 25.2645 21.7002Z" fill="#92FFDE"/>
<path d="M25.2645 28.3221H23.3936C22.9973 28.3221 22.676 28.6434 22.676 29.0397V30.9105C22.676 31.3069 22.9973 31.6282 23.3936 31.6282H25.2645C25.6608 31.6282 25.9821 31.3069 25.9821 30.9105V29.0397C25.9821 28.6434 25.6608 28.3221 25.2645 28.3221Z" fill="#92FFDE"/>
<path d="M18.6522 28.3125H16.7814C16.385 28.3125 16.0637 28.6338 16.0637 29.0301V30.9009C16.0637 31.2973 16.385 31.6186 16.7814 31.6186H18.6522C19.0486 31.6186 19.3699 31.2973 19.3699 30.9009V29.0301C19.3699 28.6338 19.0486 28.3125 18.6522 28.3125Z" fill="#92FFDE"/>
<path d="M31.8767 21.7002H30.0059C29.6095 21.7002 29.2882 22.0215 29.2882 22.4179V24.2887C29.2882 24.685 29.6095 25.0063 30.0059 25.0063H31.8767C32.2731 25.0063 32.5944 24.685 32.5944 24.2887V22.4179C32.5944 22.0215 32.2731 21.7002 31.8767 21.7002Z" fill="#92FFDE"/>
<path d="M31.8767 28.3221H30.0059C29.6095 28.3221 29.2882 28.6434 29.2882 29.0397V30.9105C29.2882 31.3069 29.6095 31.6282 30.0059 31.6282H31.8767C32.2731 31.6282 32.5944 31.3069 32.5944 30.9105V29.0397C32.5944 28.6434 32.2731 28.3221 31.8767 28.3221Z" fill="#92FFDE"/>
<path d="M10.7755 15.3106C10.7755 13.7253 12.0607 12.44 13.6461 12.44H34.3539C35.9393 12.44 37.2245 13.7253 37.2245 15.3106V17.7298H10.7755V15.3106Z" fill="#92FFDE"/>
<path d="M18.7163 11.1184C18.7163 10.388 18.1242 9.79592 17.3938 9.79592C16.6635 9.79592 16.0714 10.388 16.0714 11.1184V13.7633C16.0714 14.4936 16.6635 15.0857 17.3938 15.0857C18.1242 15.0857 18.7163 14.4936 18.7163 13.7633V11.1184Z" fill="#00D797"/>
<path d="M31.9408 11.1184C31.9408 10.388 31.3487 9.79592 30.6183 9.79592C29.8879 9.79592 29.2959 10.388 29.2959 11.1184V13.7633C29.2959 14.4936 29.8879 15.0857 30.6183 15.0857C31.3487 15.0857 31.9408 14.4936 31.9408 13.7633V11.1184Z" fill="#00D797"/>
</g>
</g>
<defs>
<linearGradient id="paint0_linear_3_779" x1="24" y1="8.61593e-09" x2="24" y2="48" gradientUnits="userSpaceOnUse">
<stop stop-color="#515151" stop-opacity="0.61"/>
<stop offset="1" stop-color="#1B1B1B" stop-opacity="0"/>
</linearGradient>
<clipPath id="clip0_3_779">
<rect width="48" height="48" fill="white"/>
</clipPath>
</defs>
</svg>
