<svg width="136" height="51" viewBox="0 0 136 51" fill="none" xmlns="http://www.w3.org/2000/svg">
<g clip-path="url(#clip0_2_905)">
<path d="M0.796387 1.24082L1.5952 4.6049L2.39402 4.5105L3.19284 3.56638L3.99165 5.46941L4.79047 10.1206L5.58929 14.4349L6.3881 10.0114L7.18692 8.95671L7.98574 8.38937L8.78455 4.76312L9.58337 2.016L10.3822 3.4559L11.181 0.84668L11.9798 1.40373L12.7786 2.54963L13.5775 3.50006L14.3763 1.63141L15.1751 2.45523L15.9739 4.02884L16.7727 11.528L17.5715 29.7738L18.3704 28.156L19.1692 35.9902L19.968 33.4754L20.7668 35.5402L21.5656 37.9263L22.3644 41.856L23.1632 38.7654L23.9621 39.3767L24.7609 39.2386L25.5597 36.5057L26.3585 30.643L27.1573 29.4672L27.9562 29.7652L28.755 33.3684L29.5538 32.1729L30.3526 30.336L31.1514 26.8614L31.9502 27.6991L32.7491 37.1863L33.5479 39.3751L34.3467 37.2971L35.1455 41.6371L35.9443 37.4998L36.7431 39.0255L37.542 32.9812L38.3408 34.2257L39.1396 37.4421L39.9384 42.8737L40.7372 40.9529L41.536 38.7832L42.3348 42.4773L43.1337 38.5798L43.9325 41.2717L44.7313 38.4522L45.5301 37.3341L46.3289 36.921L47.1277 37.1546L47.9266 37.1479L48.7254 39.1171L49.5242 38.8393L50.323 41.6082L51.1218 45.4183L51.9206 41.6755L52.7195 44.9993L53.5183 44.9924L54.3171 42.5907L55.1159 46.1903L55.9147 50.8467L56.7135 47.5823L57.5124 50.0131L58.3112 40.849L59.11 40.3507L59.9088 37.629L60.7076 39.265L61.5064 38.863L62.3053 38.2169L63.1041 38.9109L63.9029 38.5733L64.7017 35.3753L65.5005 37.2717L66.2993 38.1169L67.0982 37.3897L67.897 36.1295L68.6958 37.0254L69.4946 36.4455L70.2934 36.3199L71.0922 36.2653L71.8911 36.9604L72.6899 36.0058L73.4887 35.0527L74.2875 36.8133L75.0863 34.7934L75.8851 33.2501L76.684 31.7169L77.4828 32.7344L78.2816 31.404L79.0804 27.0905L79.8792 28.3666L80.678 31.7499L81.4769 32.3681L82.2757 32.1834L83.0745 31.7456L83.8733 32.8212L84.6721 34.7351L85.4709 35.0939L86.2698 33.4021L87.0686 32.533L87.8674 31.7564L88.6662 29.5437L89.465 32.7992L90.2638 29.6521L91.0627 30.054L91.8615 29.8779L92.6603 28.0734L93.4591 34.1291L94.2579 34.5412L95.0567 34.3519L95.8556 35.8851L96.6544 36.3641L97.4532 36.9656L98.252 37.4952L99.0508 37.4553L99.8496 35.9298L100.648 35.7733L101.447 36.4068L102.246 36.2264L103.045 35.8901L103.844 36.1205L104.643 36.2393L105.441 36.8382L106.24 36.2588L107.039 36.3479L107.838 36.5874L108.637 36.1959L109.435 35.972L110.234 36.041L111.033 34.9717L111.832 34.7409L112.631 35.1974L113.43 34.1805L114.228 32.9661L115.027 33.9826L115.826 31.4074L116.625 33.9537L117.424 34.5983L118.222 35.0656L119.021 35.1806L119.82 33.7586L120.619 34.4033L121.418 31.3336L122.217 22.928L123.015 23.0518L123.814 26.5266L124.613 25.1425L125.412 28.1678L126.211 24.657L127.009 27.5424L127.808 31.913L128.607 34.0766L129.406 34.6481L130.205 33.9024L131.003 34.2971L131.802 31.8022L132.601 33.2895L133.4 31.9291L134.199 32.6132L134.998 37.4676" stroke="#FF3A33" stroke-width="1.25"/>
</g>
<defs>
<clipPath id="clip0_2_905">
<rect width="135" height="50" fill="white" transform="translate(0.796387 0.84668)"/>
</clipPath>
</defs>
</svg>
