<svg width="272" height="30" viewBox="0 0 272 30" fill="none" xmlns="http://www.w3.org/2000/svg">
<path d="M3.00399 9.7537H8.30733L9.60535 3.7828H13.1656L11.8676 9.7537H16.9114L18.2094 3.7828H21.7326L20.4346 9.7537H25.2929V12.9802H19.767L18.5802 18.5061H23.4385V21.7326H17.8756L16.5776 27.8147H13.0544L14.3524 21.7326H9.30866L8.01064 27.8147H4.45036L5.74838 21.7326H1.14967V18.5061H6.45302L7.63978 12.9802H3.00399V9.7537ZM10.0133 18.5061H15.02L16.2438 12.9802H11.2001L10.0133 18.5061ZM50.9639 27.8147L55.0063 8.6782L43.1016 27.8147H39.6525L35.2763 8.82654L31.2339 27.8147H26.9319L32.4949 1.52054H37.8724L42.4711 21.3988L54.7467 1.52054H60.9401L55.34 27.8147H50.9639ZM71.2739 13.0544C70.4085 13.0544 69.6421 13.2645 68.9745 13.6849C68.307 14.1052 67.7507 14.6615 67.3056 15.3537C66.8606 16.0213 66.5145 16.7754 66.2672 17.616C66.0447 18.4319 65.9334 19.2478 65.9334 20.0637C65.9334 21.3988 66.2549 22.4743 66.8977 23.2902C67.5652 24.0814 68.5295 24.477 69.7904 24.477C70.5074 24.477 71.1873 24.3039 71.8302 23.9578C72.473 23.6116 73.0293 23.1171 73.499 22.4743C73.9935 21.8315 74.3768 21.0774 74.6487 20.212C74.9207 19.322 75.0567 18.333 75.0567 17.2451C75.0567 16.0089 74.7353 15.0076 74.0924 14.2411C73.4743 13.45 72.5348 13.0544 71.2739 13.0544ZM81.0276 9.7537L78.0978 23.5127C77.9741 24.0814 77.8752 24.65 77.8011 25.2187C77.7516 25.7626 77.7269 26.3313 77.7269 26.9247C77.7269 27.0236 77.7269 27.1472 77.7269 27.2955C77.7269 27.4439 77.7393 27.6169 77.764 27.8147H73.7587C73.7339 27.6417 73.7216 27.5057 73.7216 27.4068C73.7216 27.3079 73.7216 27.1966 73.7216 27.073C73.7216 26.8505 73.7216 26.6527 73.7216 26.4796C73.7216 26.3066 73.7463 26.0099 73.7957 25.5896C73.2765 26.2571 72.5966 26.8505 71.756 27.3697C70.9401 27.8889 69.9635 28.1485 68.8262 28.1485C67.6641 28.1485 66.6381 27.9507 65.748 27.5551C64.8579 27.1348 64.1038 26.5662 63.4857 25.8492C62.8924 25.1322 62.435 24.2915 62.1135 23.3273C61.7921 22.363 61.6314 21.3123 61.6314 20.175C61.6314 18.6668 61.8663 17.2575 62.3361 15.9471C62.8058 14.612 63.4487 13.45 64.2646 12.461C65.1052 11.472 66.0941 10.6932 67.2315 10.1246C68.3688 9.55591 69.605 9.27158 70.9401 9.27158C71.756 9.27158 72.4606 9.35811 73.054 9.53118C73.6721 9.67953 74.1913 9.88968 74.6116 10.1617C75.0567 10.4089 75.4152 10.6932 75.6871 11.0146C75.9838 11.3113 76.2064 11.608 76.3547 11.9047L76.8368 9.7537H81.0276ZM99.7194 23.5127C99.571 24.2545 99.4598 24.9096 99.3856 25.4783C99.3362 26.0222 99.3114 26.5044 99.3114 26.9247C99.3114 26.9741 99.3114 27.1101 99.3114 27.3326C99.3114 27.5304 99.3238 27.6911 99.3485 27.8147H95.3803C95.3556 27.6417 95.3432 27.481 95.3432 27.3326C95.3432 27.1595 95.3432 27.0112 95.3432 26.8876C95.3432 26.6156 95.3432 26.3807 95.3432 26.1829C95.3679 25.9604 95.3926 25.7626 95.4174 25.5896C94.8982 26.2571 94.2182 26.8505 93.3776 27.3697C92.5617 27.8889 91.5851 28.1485 90.4478 28.1485C89.2858 28.1485 88.2597 27.9507 87.3696 27.5551C86.4796 27.1348 85.7255 26.5662 85.1074 25.8492C84.514 25.1322 84.0566 24.2915 83.7352 23.3273C83.4138 22.363 83.2531 21.3123 83.2531 20.175C83.2531 18.6668 83.4879 17.2575 83.9577 15.9471C84.4275 14.612 85.0703 13.45 85.8862 12.461C86.7268 11.472 87.7158 10.6932 88.8531 10.1246C89.9904 9.55591 91.2266 9.27158 92.5617 9.27158C93.3282 9.27158 94.0081 9.35811 94.6015 9.53118C95.1949 9.67953 95.7141 9.87732 96.1591 10.1246C96.6041 10.3471 96.9626 10.619 97.2346 10.9405C97.5313 11.2372 97.7662 11.5338 97.9392 11.8305L100.239 0.964243H104.504L99.7194 23.5127ZM92.8955 13.0544C92.0302 13.0544 91.2637 13.2645 90.5962 13.6849C89.9286 14.1052 89.3723 14.6615 88.9273 15.3537C88.4822 16.0213 88.1361 16.7754 87.8889 17.616C87.6663 18.4319 87.5551 19.2478 87.5551 20.0637C87.5551 21.3988 87.8765 22.4743 88.5193 23.2902C89.1869 24.0814 90.1511 24.477 91.4119 24.477C92.1291 24.477 92.809 24.3039 93.4518 23.9578C94.0946 23.6116 94.6509 23.1171 95.1207 22.4743C95.6152 21.8315 95.9984 21.0774 96.2704 20.212C96.5423 19.322 96.6783 18.333 96.6783 17.2451C96.6783 16.0089 96.3569 15.0076 95.7141 14.2411C95.096 13.45 94.1564 13.0544 92.8955 13.0544ZM118.189 16.8001C118.189 16.7507 118.189 16.6765 118.189 16.5776C118.213 16.454 118.226 16.3427 118.226 16.2438C118.226 15.8482 118.164 15.4526 118.04 15.057C117.917 14.6367 117.706 14.2659 117.41 13.9445C117.138 13.5983 116.767 13.3263 116.297 13.1286C115.827 12.906 115.246 12.7948 114.554 12.7948C113.887 12.7948 113.268 12.906 112.7 13.1286C112.156 13.3511 111.674 13.6478 111.253 14.0186C110.833 14.3895 110.475 14.8222 110.178 15.3166C109.881 15.7864 109.659 16.2809 109.51 16.8001H118.189ZM109.028 19.9524C109.003 20.0761 108.991 20.212 108.991 20.3604C108.991 21.646 109.387 22.6968 110.178 23.5127C110.969 24.3039 111.995 24.6995 113.256 24.6995C114.443 24.6995 115.419 24.4399 116.186 23.9207C116.952 23.3767 117.509 22.7586 117.855 22.0664L121.155 23.8836C120.859 24.477 120.451 25.0456 119.932 25.5896C119.437 26.1335 118.856 26.6156 118.189 27.0359C117.521 27.4315 116.755 27.7529 115.889 28.0002C115.049 28.2474 114.134 28.371 113.145 28.371C112.032 28.371 110.969 28.1856 109.955 27.8147C108.966 27.4439 108.089 26.9123 107.322 26.22C106.581 25.503 105.987 24.6377 105.542 23.624C105.097 22.5856 104.875 21.4112 104.875 20.1008C104.875 18.3948 105.146 16.8743 105.69 15.5392C106.259 14.1793 107.001 13.0297 107.916 12.0901C108.83 11.1506 109.869 10.4336 111.031 9.93913C112.218 9.44465 113.429 9.19741 114.665 9.19741C115.902 9.19741 117.002 9.38284 117.966 9.7537C118.93 10.1246 119.734 10.6438 120.377 11.3113C121.044 11.9542 121.551 12.733 121.897 13.6478C122.243 14.5626 122.416 15.5639 122.416 16.6518C122.416 17.2699 122.355 17.8756 122.231 18.469C122.132 19.0376 122.021 19.5321 121.897 19.9524H109.028ZM124.682 27.8147L130.245 1.52054H146.452L145.561 5.71129H133.805L132.247 13.0915H142.78L141.927 17.2081H131.394L129.132 27.8147H124.682ZM154.937 13.0544C154.22 13.0544 153.528 13.2151 152.86 13.5365C152.217 13.8579 151.649 14.3153 151.154 14.9087C150.66 15.5021 150.264 16.2191 149.967 17.0597C149.671 17.8756 149.522 18.8028 149.522 19.8412C149.522 21.2752 149.893 22.4125 150.635 23.2531C151.401 24.0937 152.403 24.5141 153.639 24.5141C154.307 24.5141 154.962 24.3781 155.605 24.1061C156.248 23.8094 156.829 23.3767 157.348 22.8081C157.867 22.2147 158.275 21.4977 158.572 20.6571C158.893 19.7917 159.054 18.8028 159.054 17.6902C159.054 16.2562 158.683 15.1312 157.941 14.3153C157.224 13.4994 156.223 13.0791 154.937 13.0544ZM163.393 17.5418C163.393 19.0253 163.146 20.4346 162.651 21.7697C162.157 23.0801 161.465 24.2297 160.574 25.2187C159.684 26.1829 158.621 26.9494 157.385 27.518C156.174 28.0867 154.851 28.371 153.417 28.371C152.156 28.371 151.018 28.1609 150.005 27.7406C148.991 27.2955 148.126 26.6898 147.409 25.9233C146.716 25.1569 146.172 24.2668 145.777 23.2531C145.406 22.2394 145.22 21.1516 145.22 19.9895C145.22 18.4072 145.48 16.9608 145.999 15.6504C146.518 14.3153 147.223 13.178 148.113 12.2385C149.028 11.2742 150.091 10.5325 151.303 10.0133C152.539 9.46937 153.849 9.19741 155.234 9.19741C156.52 9.19741 157.669 9.41992 158.683 9.86496C159.697 10.2853 160.55 10.8787 161.242 11.6451C161.959 12.3868 162.491 13.2645 162.837 14.2782C163.208 15.2919 163.393 16.3798 163.393 17.5418ZM178.87 14.1299C178.302 14.0063 177.795 13.9445 177.35 13.9445C176.707 13.9445 176.089 14.0434 175.496 14.2411C174.927 14.4142 174.383 14.7109 173.864 15.1312C173.369 15.5515 172.924 16.1078 172.529 16.8001C172.158 17.4924 171.861 18.3454 171.639 19.3591L169.821 27.8147H165.593L168.746 12.869C168.944 12.0036 169.055 11.2866 169.08 10.7179C169.129 10.1493 169.154 9.82787 169.154 9.7537H173.307C173.307 9.87732 173.295 10.0504 173.27 10.2729C173.27 10.4707 173.258 10.6932 173.233 10.9405C173.233 11.163 173.209 11.3979 173.159 11.6451C173.134 11.8676 173.097 12.0654 173.048 12.2385C173.394 11.7193 173.79 11.2866 174.235 10.9405C174.68 10.5943 175.137 10.3224 175.607 10.1246C176.101 9.92677 176.596 9.79079 177.09 9.71661C177.585 9.61772 178.054 9.56827 178.5 9.56827C178.994 9.56827 179.427 9.60536 179.798 9.67953L178.87 14.1299ZM191.739 5.67421L187.029 27.8147H182.579L187.252 5.67421H179.056L179.946 1.52054H200.492L199.602 5.67421H191.739ZM208.858 14.1299C208.289 14.0063 207.782 13.9445 207.337 13.9445C206.694 13.9445 206.076 14.0434 205.483 14.2411C204.914 14.4142 204.37 14.7109 203.851 15.1312C203.357 15.5515 202.912 16.1078 202.516 16.8001C202.145 17.4924 201.848 18.3454 201.626 19.3591L199.809 27.8147H195.581L198.733 12.869C198.931 12.0036 199.042 11.2866 199.067 10.7179C199.116 10.1493 199.141 9.82787 199.141 9.7537H203.295C203.295 9.87732 203.282 10.0504 203.258 10.2729C203.258 10.4707 203.245 10.6932 203.221 10.9405C203.221 11.163 203.196 11.3979 203.146 11.6451C203.122 11.8676 203.085 12.0654 203.035 12.2385C203.381 11.7193 203.777 11.2866 204.222 10.9405C204.667 10.5943 205.124 10.3224 205.594 10.1246C206.089 9.92677 206.583 9.79079 207.078 9.71661C207.572 9.61772 208.042 9.56827 208.487 9.56827C208.981 9.56827 209.414 9.60536 209.785 9.67953L208.858 14.1299ZM219.727 13.0544C218.862 13.0544 218.095 13.2645 217.428 13.6849C216.76 14.1052 216.204 14.6615 215.759 15.3537C215.314 16.0213 214.968 16.7754 214.72 17.616C214.498 18.4319 214.387 19.2478 214.387 20.0637C214.387 21.3988 214.708 22.4743 215.351 23.2902C216.019 24.0814 216.983 24.477 218.244 24.477C218.961 24.477 219.641 24.3039 220.283 23.9578C220.926 23.6116 221.483 23.1171 221.952 22.4743C222.447 21.8315 222.83 21.0774 223.102 20.212C223.374 19.322 223.51 18.333 223.51 17.2451C223.51 16.0089 223.189 15.0076 222.546 14.2411C221.928 13.45 220.988 13.0544 219.727 13.0544ZM229.481 9.7537L226.551 23.5127C226.427 24.0814 226.329 24.65 226.254 25.2187C226.205 25.7626 226.18 26.3313 226.18 26.9247C226.18 27.0236 226.18 27.1472 226.18 27.2955C226.18 27.4439 226.193 27.6169 226.217 27.8147H222.212C222.187 27.6417 222.175 27.5057 222.175 27.4068C222.175 27.3079 222.175 27.1966 222.175 27.073C222.175 26.8505 222.175 26.6527 222.175 26.4796C222.175 26.3066 222.2 26.0099 222.249 25.5896C221.73 26.2571 221.05 26.8505 220.209 27.3697C219.393 27.8889 218.417 28.1485 217.279 28.1485C216.117 28.1485 215.091 27.9507 214.201 27.5551C213.311 27.1348 212.557 26.5662 211.939 25.8492C211.346 25.1322 210.888 24.2915 210.567 23.3273C210.245 22.363 210.085 21.3123 210.085 20.175C210.085 18.6668 210.32 17.2575 210.789 15.9471C211.259 14.612 211.902 13.45 212.718 12.461C213.558 11.472 214.547 10.6932 215.685 10.1246C216.822 9.55591 218.058 9.27158 219.393 9.27158C220.209 9.27158 220.914 9.35811 221.507 9.53118C222.125 9.67953 222.645 9.88968 223.065 10.1617C223.51 10.4089 223.868 10.6932 224.14 11.0146C224.437 11.3113 224.66 11.608 224.808 11.9047L225.29 9.7537H229.481ZM248.174 23.5127C248.026 24.2545 247.914 24.9096 247.84 25.4783C247.791 26.0222 247.766 26.5044 247.766 26.9247C247.766 26.9741 247.766 27.1101 247.766 27.3326C247.766 27.5304 247.778 27.6911 247.803 27.8147H243.835C243.81 27.6417 243.798 27.481 243.798 27.3326C243.798 27.1595 243.798 27.0112 243.798 26.8876C243.798 26.6156 243.798 26.3807 243.798 26.1829C243.822 25.9604 243.847 25.7626 243.872 25.5896C243.353 26.2571 242.673 26.8505 241.832 27.3697C241.016 27.8889 240.04 28.1485 238.902 28.1485C237.74 28.1485 236.714 27.9507 235.824 27.5551C234.934 27.1348 234.18 26.5662 233.562 25.8492C232.969 25.1322 232.511 24.2915 232.19 23.3273C231.868 22.363 231.708 21.3123 231.708 20.175C231.708 18.6668 231.942 17.2575 232.412 15.9471C232.882 14.612 233.525 13.45 234.341 12.461C235.181 11.472 236.17 10.6932 237.308 10.1246C238.445 9.55591 239.681 9.27158 241.016 9.27158C241.783 9.27158 242.463 9.35811 243.056 9.53118C243.649 9.67953 244.169 9.87732 244.614 10.1246C245.059 10.3471 245.417 10.619 245.689 10.9405C245.986 11.2372 246.221 11.5338 246.394 11.8305L248.693 0.964243H252.958L248.174 23.5127ZM241.35 13.0544C240.485 13.0544 239.718 13.2645 239.051 13.6849C238.383 14.1052 237.827 14.6615 237.382 15.3537C236.937 16.0213 236.591 16.7754 236.343 17.616C236.121 18.4319 236.01 19.2478 236.01 20.0637C236.01 21.3988 236.331 22.4743 236.974 23.2902C237.641 24.0814 238.606 24.477 239.867 24.477C240.584 24.477 241.263 24.3039 241.906 23.9578C242.549 23.6116 243.105 23.1171 243.575 22.4743C244.07 21.8315 244.453 21.0774 244.725 20.212C244.997 19.322 245.133 18.333 245.133 17.2451C245.133 16.0089 244.811 15.0076 244.169 14.2411C243.55 13.45 242.611 13.0544 241.35 13.0544ZM266.643 16.8001C266.643 16.7507 266.643 16.6765 266.643 16.5776C266.668 16.454 266.68 16.3427 266.68 16.2438C266.68 15.8482 266.618 15.4526 266.495 15.057C266.371 14.6367 266.161 14.2659 265.864 13.9445C265.592 13.5983 265.221 13.3263 264.751 13.1286C264.282 12.906 263.701 12.7948 263.008 12.7948C262.341 12.7948 261.723 12.906 261.154 13.1286C260.61 13.3511 260.128 13.6478 259.708 14.0186C259.287 14.3895 258.929 14.8222 258.632 15.3166C258.336 15.7864 258.113 16.2809 257.965 16.8001H266.643ZM257.483 19.9524C257.458 20.0761 257.445 20.212 257.445 20.3604C257.445 21.646 257.841 22.6968 258.632 23.5127C259.423 24.3039 260.449 24.6995 261.71 24.6995C262.897 24.6995 263.874 24.4399 264.64 23.9207C265.407 23.3767 265.963 22.7586 266.309 22.0664L269.61 23.8836C269.313 24.477 268.905 25.0456 268.386 25.5896C267.891 26.1335 267.31 26.6156 266.643 27.0359C265.975 27.4315 265.209 27.7529 264.344 28.0002C263.503 28.2474 262.588 28.371 261.599 28.371C260.487 28.371 259.423 28.1856 258.41 27.8147C257.421 27.4439 256.543 26.9123 255.777 26.22C255.035 25.503 254.441 24.6377 253.996 23.624C253.551 22.5856 253.329 21.4112 253.329 20.1008C253.329 18.3948 253.601 16.8743 254.145 15.5392C254.713 14.1793 255.455 13.0297 256.37 12.0901C257.285 11.1506 258.323 10.4336 259.485 9.93913C260.672 9.44465 261.883 9.19741 263.12 9.19741C264.356 9.19741 265.456 9.38284 266.42 9.7537C267.385 10.1246 268.188 10.6438 268.831 11.3113C269.499 11.9542 270.005 12.733 270.352 13.6478C270.698 14.5626 270.871 15.5639 270.871 16.6518C270.871 17.2699 270.809 17.8756 270.685 18.469C270.586 19.0376 270.475 19.5321 270.352 19.9524H257.483Z" fill="#EF9309"/>
</svg>
