<svg width="136" height="51" viewBox="0 0 136 51" fill="none" xmlns="http://www.w3.org/2000/svg">
<g clip-path="url(#clip0_2_921)">
<path d="M0.796387 6.7159L1.5952 8.31157L2.39402 6.57223L3.19284 3.58961L3.99165 2.26523L4.79047 4.68488L5.58929 10.4625L6.3881 7.51894L7.18692 7.8287L7.98574 7.99982L8.78455 4.09027L9.58337 4.09272L10.3822 3.10358L11.181 2.83022L11.9798 1.93411L12.7786 2.423L13.5775 3.76864L14.3763 2.4344L15.1751 0.84668L15.9739 2.09425L16.7727 8.06737L17.5715 13.9449L18.3704 21.9409L19.1692 25.6119L19.968 31.5825L20.7668 34.6981L21.5656 35.8552L22.3644 38.7738L23.1632 36.5439L23.9621 37.0465L24.7609 35.8094L25.5597 35.2079L26.3585 32.1484L27.1573 28.5243L27.9562 28.3635L28.755 33.3348L29.5538 32.2139L30.3526 28.6207L31.1514 28.6736L31.9502 29.4576L32.7491 35.3001L33.5479 26.434L34.3467 25.5324L35.1455 30.3354L35.9443 29.2817L36.7431 33.2511L37.542 29.2017L38.3408 19.2506L39.1396 21.884L39.9384 28.7797L40.7372 35.8266L41.536 34.068L42.3348 37.0594L43.1337 38.7183L43.9325 39.9064L44.7313 38.2553L45.5301 35.9602L46.3289 35.4061L47.1277 34.1334L47.9266 35.227L48.7254 33.4613L49.5242 32.3357L50.323 33.7848L51.1218 42.6489L51.9206 42.0137L52.7195 40.0007L53.5183 40.8094L54.3171 45.0784L55.1159 43.5413L55.9147 44.8705L56.7135 44.6367L57.5124 50.8467L58.3112 46.3657L59.11 46.2982L59.9088 42.7042L60.7076 45.2627L61.5064 41.0919L62.3053 39.9183L63.1041 39.5887L63.9029 45.7916L64.7017 39.7011L65.5005 40.7597L66.2993 40.3042L67.0982 40.0824L67.897 39.2841L68.6958 40.3438L69.4946 36.7061L70.2934 36.3773L71.0922 39.4589L71.8911 35.9215L72.6899 32.3084L73.4887 31.8141L74.2875 33.6015L75.0863 34.4357L75.8851 30.2067L76.684 27.3281L77.4828 29.4367L78.2816 26.7357L79.0804 24.2367L79.8792 22.5653L80.678 23.2718L81.4769 24.6795L82.2757 17.094L83.0745 16.7165L83.8733 20.5591L84.6721 27.7868L85.4709 26.6368L86.2698 24.079L87.0686 21.8292L87.8674 21.6275L88.6662 21.6848L89.465 20.2523L90.2638 17.7144L91.0627 21.3982L91.8615 22.38L92.6603 16.4412L93.4591 16.7496L94.2579 18.9849L95.0567 19.1876L95.8556 21.9529L96.6544 22.3909L97.4532 25.7118L98.252 23.2343L99.0508 27.1053L99.8496 24.4195L100.648 21.9807L101.447 22.2742L102.246 23.8442L103.045 22.5926L103.844 23.3474L104.643 24.1165L105.441 27.4754L106.24 26.773L107.039 27.5401L107.838 26.6071L108.637 23.6056L109.435 22.3577L110.234 23.3137L111.033 22.5145L111.832 18.942L112.631 20.1201L113.43 15.8157L114.228 14.8615L115.027 15.0506L115.826 16.9646L116.625 15.105L117.424 15.6117L118.222 14.9509L119.021 17.0836L119.82 15.9165L120.619 14.5993L121.418 10.6488L122.217 13.6408L123.015 10.9434L123.814 10.8836L124.613 11.5389L125.412 11.1L126.211 10.4268L127.009 11.0912L127.808 11.4483L128.607 14.7237L129.406 20.6259L130.205 17.7702L131.003 20.4923L131.802 15.8528L132.601 15.683L133.4 15.588L134.199 15.0735L134.998 17.8604" stroke="#FF3A33" stroke-width="1.25"/>
</g>
<defs>
<clipPath id="clip0_2_921">
<rect width="135" height="50" fill="white" transform="translate(0.796387 0.84668)"/>
</clipPath>
</defs>
</svg>
