<svg width="13" height="14" viewBox="0 0 13 14" fill="none" xmlns="http://www.w3.org/2000/svg">
<path d="M6.79632 1.19336C7.20257 1.19336 7.59319 1.23242 7.96819 1.31055C8.06194 1.32617 8.17913 1.36523 8.31976 1.42773C8.44476 1.50586 8.55413 1.62305 8.64788 1.7793C8.69476 1.85742 8.73382 1.95117 8.76507 2.06055L8.97601 2.95117C9.00726 3.0293 9.06194 3.0918 9.14007 3.13867C9.21819 3.18555 9.29632 3.20117 9.37444 3.18555L10.2651 2.92773C10.3588 2.89648 10.4526 2.88086 10.5463 2.88086C10.7338 2.88086 10.8901 2.91992 11.0151 2.99805C11.1557 3.07617 11.2573 3.1543 11.3198 3.23242C11.8354 3.82617 12.2182 4.50586 12.4682 5.27148C12.5151 5.36523 12.5385 5.48242 12.5385 5.62305C12.5541 5.7793 12.5151 5.93555 12.4213 6.0918C12.3588 6.16992 12.2963 6.24805 12.2338 6.32617L11.5541 6.95898C11.5073 7.02148 11.4838 7.09961 11.4838 7.19336C11.4838 7.28711 11.5073 7.36523 11.5541 7.42773L12.2338 8.06055C12.2963 8.13867 12.3588 8.2168 12.4213 8.29492C12.4994 8.4668 12.5385 8.62305 12.5385 8.76367C12.5385 8.91992 12.5151 9.03711 12.4682 9.11523C12.2182 9.88086 11.8354 10.5605 11.3198 11.1543C11.2573 11.2324 11.1557 11.3105 11.0151 11.3887C10.8901 11.4668 10.7338 11.5059 10.5463 11.5059C10.4526 11.5059 10.3588 11.4902 10.2651 11.459L9.37444 11.2012C9.29632 11.1855 9.21819 11.2012 9.14007 11.248C9.06194 11.2949 9.00726 11.3574 8.97601 11.4355L8.76507 12.3262C8.73382 12.4355 8.69476 12.5293 8.64788 12.6074C8.55413 12.7637 8.44476 12.8809 8.31976 12.959C8.17913 13.0215 8.06194 13.0605 7.96819 13.0762C7.59319 13.1543 7.20257 13.1934 6.79632 13.1934C6.39007 13.1934 5.99944 13.1543 5.62444 13.0762C5.53069 13.0605 5.4135 13.0215 5.27288 12.959C5.14788 12.8809 5.0385 12.7637 4.94475 12.6074C4.89788 12.5293 4.85882 12.4355 4.82757 12.3262L4.61663 11.4355C4.58538 11.3574 4.53069 11.2949 4.45257 11.248C4.37444 11.2012 4.29632 11.1855 4.21819 11.2012L3.32757 11.459C3.23382 11.4902 3.14007 11.5059 3.04632 11.5059C2.85882 11.5059 2.70257 11.4668 2.57757 11.3887C2.43694 11.3105 2.34319 11.2324 2.29632 11.1543C1.76507 10.5605 1.37444 9.88086 1.12444 9.11523C1.07757 9.02148 1.05413 8.9043 1.05413 8.76367C1.0385 8.60742 1.07757 8.45117 1.17132 8.29492C1.23382 8.2168 1.29632 8.13867 1.35882 8.06055L2.0385 7.42773C2.08538 7.36523 2.10882 7.28711 2.10882 7.19336C2.10882 7.09961 2.08538 7.02148 2.0385 6.95898L1.35882 6.32617C1.29632 6.24805 1.23382 6.16992 1.17132 6.0918C1.07757 5.91992 1.0385 5.76367 1.05413 5.62305C1.05413 5.4668 1.07757 5.34961 1.12444 5.27148C1.37444 4.52148 1.76507 3.8418 2.29632 3.23242C2.34319 3.1543 2.43694 3.07617 2.57757 2.99805C2.70257 2.91992 2.85882 2.88086 3.04632 2.88086C3.14007 2.88086 3.23382 2.89648 3.32757 2.92773L4.21819 3.18555C4.29632 3.20117 4.37444 3.18555 4.45257 3.13867C4.53069 3.0918 4.58538 3.0293 4.61663 2.95117L4.82757 2.06055C4.85882 1.95117 4.89788 1.85742 4.94475 1.7793C5.0385 1.62305 5.14788 1.50586 5.27288 1.42773C5.4135 1.36523 5.53069 1.32617 5.62444 1.31055C5.99944 1.23242 6.39007 1.19336 6.79632 1.19336ZM5.90569 2.38867L5.71819 3.23242C5.60882 3.60742 5.37444 3.89648 5.01507 4.09961C4.65569 4.30273 4.28069 4.35742 3.89007 4.26367L3.09319 4.0293C2.70257 4.48242 2.40569 4.99805 2.20257 5.57617L2.81194 6.16211C3.09319 6.44336 3.23382 6.78711 3.23382 7.19336C3.23382 7.59961 3.09319 7.95117 2.81194 8.24805L2.20257 8.81055C2.40569 9.38867 2.70257 9.9043 3.09319 10.3574L3.9135 10.123C4.2885 10.0137 4.65569 10.0684 5.01507 10.2871C5.37444 10.4902 5.60882 10.7793 5.71819 11.1543L5.90569 11.998C6.49944 12.0918 7.09319 12.0918 7.68694 11.998L7.89788 11.1543C8.00726 10.7793 8.23382 10.4902 8.57757 10.2871C8.93694 10.084 9.31194 10.0293 9.70257 10.123L10.4994 10.3574C10.8901 9.9043 11.1869 9.38867 11.3901 8.81055L10.7807 8.22461C10.4994 7.94336 10.3588 7.59961 10.3588 7.19336C10.3588 6.78711 10.4994 6.43555 10.7807 6.13867L11.3901 5.57617C11.1869 4.99805 10.8901 4.48242 10.4994 4.0293L9.70257 4.26367C9.31194 4.37305 8.93694 4.31836 8.57757 4.09961C8.23382 3.89648 8.00726 3.59961 7.89788 3.20898L7.68694 2.38867C7.09319 2.29492 6.49944 2.29492 5.90569 2.38867ZM5.67132 7.19336C5.68694 7.61523 5.87444 7.94336 6.23382 8.17773C6.60882 8.36523 6.98382 8.36523 7.35882 8.17773C7.71819 7.94336 7.90569 7.61523 7.92132 7.19336C7.90569 6.77148 7.71819 6.44336 7.35882 6.20898C6.98382 6.02148 6.60882 6.02148 6.23382 6.20898C5.87444 6.44336 5.68694 6.77148 5.67132 7.19336ZM6.79632 9.44336C6.39007 9.44336 6.01507 9.3418 5.67132 9.13867C5.32757 8.93555 5.05413 8.66211 4.851 8.31836C4.64788 7.95898 4.54632 7.58398 4.54632 7.19336C4.54632 6.80273 4.64788 6.42773 4.851 6.06836C5.05413 5.72461 5.32757 5.45117 5.67132 5.24805C6.01507 5.04492 6.39007 4.94336 6.79632 4.94336C7.20257 4.94336 7.57757 5.04492 7.92132 5.24805C8.26507 5.45117 8.53851 5.72461 8.74163 6.06836C8.94476 6.42773 9.04632 6.80273 9.04632 7.19336C9.04632 7.58398 8.94476 7.95898 8.74163 8.31836C8.53851 8.66211 8.26507 8.93555 7.92132 9.13867C7.57757 9.3418 7.20257 9.44336 6.79632 9.44336Z" fill="#0F172A"/>
</svg>
