<svg width="136" height="51" viewBox="0 0 136 51" fill="none" xmlns="http://www.w3.org/2000/svg">
<g clip-path="url(#clip0_16_425)">
<path d="M0.796387 44.7175L1.5952 44.9489L2.39402 44.8596L3.19284 42.5233L3.99165 43.8834L4.79047 46.8229L5.58929 50.004L6.3881 44.052L7.18692 44.2432L7.98574 43.2542L8.78455 39.8594L9.58337 38.1614L10.3822 41.2106L11.181 37.8763L11.9798 38.4332L12.7786 39.1314L13.5775 37.2446L14.3763 37.5006L15.1751 40.4705L15.9739 41.5483L16.7727 44.1513L17.5715 50.8467L18.3704 46.353L19.1692 46.3986L19.968 40.9237L20.7668 38.6242L21.5656 38.5687L22.3644 37.3513L23.1632 39.245L23.9621 41.6353L24.7609 41.7551L25.5597 38.6458L26.3585 35.1593L27.1573 34.0995L27.9562 33.2096L28.755 34.9219L29.5538 34.0563L30.3526 4.83609L31.1514 7.51922L31.9502 4.38716L32.7491 10.8564L33.5479 0.84668L34.3467 5.36353L35.1455 7.15852L35.9443 4.26006L36.7431 5.80779L37.542 3.708L38.3408 8.74316L39.1396 10.9965L39.9384 21.3707L40.7372 21.6152L41.536 19.4344L42.3348 24.4413L43.1337 20.1882L43.9325 20.4645L44.7313 17.4907L45.5301 17.6148L46.3289 19.433L47.1277 20.2911L47.9266 20.3482L48.7254 18.2232L49.5242 17.256L50.323 23.3323L51.1218 28.5016L51.9206 24.9336L52.7195 21.571L53.5183 22.9573L54.3171 23.9862L55.1159 23.5384L55.9147 33.7111L56.7135 35.0488L57.5124 36.0347L58.3112 29.1237L59.11 32.5704L59.9088 30.9896L60.7076 34.6012L61.5064 33.6577L62.3053 34.0081L63.1041 33.433L63.9029 37.5526L64.7017 31.347L65.5005 33.6831L66.2993 34.7962L67.0982 35.2036L67.897 35.1099L68.6958 35.8699L69.4946 34.6786L70.2934 33.1574L71.0922 34.875L71.8911 35.1999L72.6899 33.2499L73.4887 30.2987L74.2875 34.0109L75.0863 32.51L75.8851 29.8263L76.684 28.8616L77.4828 26.6682L78.2816 25.1041L79.0804 26.7534L79.8792 29.1655L80.678 29.513L81.4769 29.6423L82.2757 26.2202L83.0745 20.0367L83.8733 17.6571L84.6721 12.5975L85.4709 10.478L86.2698 13.005L87.0686 10.4015L87.8674 13.9271L88.6662 18.2375L89.465 17.0741L90.2638 17.3582L91.0627 21.4823L91.8615 21.4934L92.6603 19.3477L93.4591 20.4262L94.2579 19.4682L95.0567 19.9598L95.8556 23.1399L96.6544 20.8382L97.4532 23.1495L98.252 24.7204L99.0508 24.7925L99.8496 23.6292L100.648 23.0533L101.447 23.1775L102.246 19.1397L103.045 20.0666L103.844 22.9686L104.643 25.0347L105.441 24.8916L106.24 24.3971L107.039 22.5163L107.838 22.0136L108.637 20.5364L109.435 21.9096L110.234 23.6566L111.033 23.5667L111.832 23.3819L112.631 25.2647L113.43 21.1093L114.228 22.2253L115.027 23.7318L115.826 22.8334L116.625 21.7959L117.424 23.7459L118.222 23.5815L119.021 23.4131L119.82 20.7986L120.619 22.3007L121.418 19.4106L122.217 14.4828L123.015 18.7276L123.814 19.2054L124.613 19.0987L125.412 19.4566L126.211 18.3592L127.009 21.1631L127.808 23.4707L128.607 26.4965L129.406 29.2903L130.205 27.3099L131.003 27.8303L131.802 25.38L132.601 26.4961L133.4 26.3867L134.199 26.7139L134.998 31.1115" stroke="#32CA5B" stroke-width="1.25"/>
</g>
<defs>
<clipPath id="clip0_16_425">
<rect width="135" height="50" fill="white" transform="translate(0.796387 0.84668)"/>
</clipPath>
</defs>
</svg>
