<svg width="136" height="51" viewBox="0 0 136 51" fill="none" xmlns="http://www.w3.org/2000/svg">
<g clip-path="url(#clip0_2_530)">
<path d="M0.214844 50.3963L1.01366 49.5055L1.81248 47.0736L2.61129 49.3455L3.41011 50.1999L4.20893 49.8374L5.00774 48.8447L5.80656 50.5479L6.60538 48.7716L7.40419 47.1926L8.20301 46.2432L9.00183 44.2241L9.80064 44.0163L10.5995 41.8997L11.3983 41.7768L12.1971 35.0497L12.9959 36.6258L13.7947 37.9228L14.5935 36.7348L15.3924 34.579L16.1912 35.6406L16.99 35.4782L17.7888 37.6632L18.5876 39.4851L19.3864 42.1835L20.1853 41.0934L20.9841 40.214L21.7829 37.2417L22.5817 37.7337L23.3805 35.8674L24.1793 37.0443L24.9782 38.2654L25.777 34L26.5758 37.3215L27.3746 36.6077L28.1734 39.3748L28.9722 38.0572L29.7711 38.3591L30.5699 37.9549L31.3687 38.8276L32.1675 40.1645L32.9663 40.2817L33.7651 41.7994L34.564 40.799L35.3628 40.0428L36.1616 38.9755L36.9604 38.8261L37.7592 33.609L38.558 32.9721L39.3569 29.6682L40.1557 27.2577L40.9545 25.5295L41.7533 23.9437L42.5521 26.6444L43.3509 24.265L44.1498 21.9881L44.9486 24.8096L45.7474 18.445L46.5462 11.9233L47.345 16.542L48.1438 11.9349L48.9427 13.9691L49.7415 14.9121L50.5403 10.8347L51.3391 13.5767L52.1379 9.47173L52.9367 5.25308L53.7356 8.07116L54.5344 10.2854L55.3332 5.86792L56.132 6.83396L56.9308 5.28238L57.7296 2.33937L58.5285 3.17949L59.3273 1.44437L60.1261 3.65509L60.9249 6.2802L61.7237 4.81136L62.5225 6.60107L63.3214 6.90487L64.1202 1.21714L64.919 4.08714L65.7178 0.547852L66.5166 6.33226L67.3154 7.47201L68.1143 8.86202L68.9131 9.19887L69.7119 8.7594L70.5107 7.71651L71.3095 9.23648L72.1083 9.00123L72.9072 9.06768L73.706 5.99021L74.5048 7.68311L75.3036 9.74101L76.1024 12.2421L76.9012 15.7867L77.7001 17.9211L78.4989 19.3163L79.2977 18.1239L80.0965 14.8017L80.8953 14.3585L81.6941 16.8283L82.493 17.0427L83.2918 15.9662L84.0906 16.9511L84.8894 17.5175L85.6882 16.2196L86.487 15.542L87.2859 15.7276L88.0847 16.4463L88.8835 17.2536L89.6823 16.5699L90.4811 16.1789L91.2799 17.9568L92.0788 16.3044L92.8776 14.9743L93.6764 12.7105L94.4752 15.3318L95.274 16.4136L96.0728 19.1592L96.8717 21.0701L97.6705 18.4032L98.4693 17.9843L99.2681 19.3728L100.067 17.8209L100.866 19.8982L101.665 16.8918L102.463 17.4101L103.262 16.1711L104.061 15.1218L104.86 13.6298L105.659 11.6184L106.457 6.27284L107.256 9.50547L108.055 6.44543L108.854 10.9671L109.653 11.1402L110.452 9.33541L111.25 17.87L112.049 22.3079L112.848 19.236L113.647 18.651L114.446 16.8371L115.244 17.937L116.043 16.0753L116.842 18.2441L117.641 22.8379L118.44 23.9163L119.239 20.2659L120.037 20.2294L120.836 21.0189L121.635 22.2552L122.434 24.6063L123.233 24.8397L124.031 23.0918L124.83 23.1332L125.629 22.3295L126.428 21.1648L127.227 21.1358L128.025 23.2901L128.824 24.2274L129.623 21.6742L130.422 22.4589L131.221 22.852L132.02 18.6887L132.818 16.889L133.617 18.2447L134.416 17.0096" stroke="#32CA5B" stroke-width="1.25"/>
</g>
<defs>
<clipPath id="clip0_2_530">
<rect width="135" height="50" fill="white" transform="translate(0.214844 0.547852)"/>
</clipPath>
</defs>
</svg>
