<svg width="11" height="14" viewBox="0 0 11 14" fill="none" xmlns="http://www.w3.org/2000/svg">
<path d="M9.50537 4.52734C9.65771 4.35807 9.73389 4.16341 9.73389 3.94336C9.73389 3.72331 9.65771 3.52865 9.50537 3.35938C9.3361 3.20703 9.14144 3.13086 8.92139 3.13086C8.70133 3.13086 8.50667 3.20703 8.3374 3.35938L5.67139 6.05078L3.00537 3.35938C2.8361 3.20703 2.64144 3.13086 2.42139 3.13086C2.20133 3.13086 2.00667 3.20703 1.8374 3.35938C1.68506 3.52865 1.60889 3.72331 1.60889 3.94336C1.60889 4.16341 1.68506 4.35807 1.8374 4.52734L4.52881 7.19336L1.8374 9.85938C1.68506 10.0286 1.60889 10.2233 1.60889 10.4434C1.60889 10.6634 1.68506 10.8581 1.8374 11.0273C2.00667 11.1797 2.20133 11.2559 2.42139 11.2559C2.64144 11.2559 2.8361 11.1797 3.00537 11.0273L5.67139 8.33594L8.3374 11.0273C8.50667 11.1797 8.70133 11.2559 8.92139 11.2559C9.14144 11.2559 9.3361 11.1797 9.50537 11.0273C9.65771 10.8581 9.73389 10.6634 9.73389 10.4434C9.73389 10.2233 9.65771 10.0286 9.50537 9.85938L6.81396 7.19336L9.50537 4.52734Z" fill="#F8FAFC"/>
</svg>
