<svg width="136" height="51" viewBox="0 0 136 51" fill="none" xmlns="http://www.w3.org/2000/svg">
<g clip-path="url(#clip0_2_857)">
<path d="M0.796387 18.4096L1.5952 18.0989L2.39402 18.0698L3.19284 14.7747L3.99165 16.0424L4.79047 20.798L5.58929 19.704L6.3881 12.8946L7.18692 13.0708L7.98574 13.9958L8.78455 8.15288L9.58337 9.04405L10.3822 9.96109L11.181 2.87926L11.9798 2.20657L12.7786 4.26111L13.5775 3.36785L14.3763 1.41657L15.1751 0.84668L15.9739 3.02907L16.7727 9.6687L17.5715 15.3798L18.3704 12.3718L19.1692 16.9396L19.968 16.1558L20.7668 22.8643L21.5656 26.811L22.3644 26.9098L23.1632 22.5756L23.9621 24.6493L24.7609 27.0722L25.5597 27.8621L26.3585 24.4796L27.1573 22.4831L27.9562 21.8268L28.755 19.5822L29.5538 15.3351L30.3526 12.4456L31.1514 12.4675L31.9502 11.8507L32.7491 14.9326L33.5479 15.8247L34.3467 20.0354L35.1455 26.8873L35.9443 20.2909L36.7431 18.8454L37.542 12.9818L38.3408 19.7304L39.1396 23.1607L39.9384 28.8768L40.7372 31.7399L41.536 29.1006L42.3348 29.2857L43.1337 28.9919L43.9325 33.2276L44.7313 36.908L45.5301 34.0141L46.3289 32.6811L47.1277 33.7366L47.9266 31.9764L48.7254 35.3505L49.5242 34.1727L50.323 40.4917L51.1218 47.5543L51.9206 44.8739L52.7195 41.9826L53.5183 46.1253L54.3171 45.1999L55.1159 40.9568L55.9147 43.6865L56.7135 43.5559L57.5124 49.2077L58.3112 45.8938L59.11 47.7199L59.9088 45.3257L60.7076 50.8467L61.5064 47.6557L62.3053 45.9131L63.1041 46.4103L63.9029 46.9436L64.7017 43.5068L65.5005 46.7717L66.2993 47.1282L67.0982 46.9212L67.897 44.7314L68.6958 44.1067L69.4946 41.2719L70.2934 42.2537L71.0922 43.3875L71.8911 41.9671L72.6899 42.7992L73.4887 41.4916L74.2875 42.6838L75.0863 46.2342L75.8851 40.4421L76.684 37.6041L77.4828 37.2508L78.2816 37.0803L79.0804 36.2191L79.8792 35.6587L80.678 37.4567L81.4769 39.3626L82.2757 38.9963L83.0745 38.5452L83.8733 38.3938L84.6721 42.8304L85.4709 43.7729L86.2698 41.8957L87.0686 39.3149L87.8674 38.0159L88.6662 37.0819L89.465 38.0439L90.2638 36.7549L91.0627 39.1112L91.8615 40.3008L92.6603 39.5901L93.4591 42.8509L94.2579 43.6339L95.0567 43.0354L95.8556 45.4647L96.6544 45.5518L97.4532 46.6419L98.252 47.9733L99.0508 49.3281L99.8496 48.7589L100.648 45.7459L101.447 46.093L102.246 46.0803L103.045 42.2578L103.844 39.2287L104.643 41.3791L105.441 42.414L106.24 40.7005L107.039 39.6894L107.838 39.1192L108.637 39.4647L109.435 39.8069L110.234 41.835L111.033 39.5983L111.832 40.4117L112.631 40.6606L113.43 34.1466L114.228 32.2826L115.027 34.8544L115.826 36.3733L116.625 35.0647L117.424 36.5127L118.222 34.7868L119.021 36.3042L119.82 33.0777L120.619 31.6538L121.418 30.3706L122.217 28.2929L123.015 28.2261L123.814 26.8397L124.613 29.5468L125.412 30.3993L126.211 27.8977L127.009 28.0205L127.808 29.5274L128.607 32.3825L129.406 34.4176L130.205 32.7509L131.003 32.9089L131.802 28.0176L132.601 26.2516L133.4 24.8736L134.199 21.5618L134.998 26.3014" stroke="#FF3A33" stroke-width="1.25"/>
</g>
<defs>
<clipPath id="clip0_2_857">
<rect width="135" height="50" fill="white" transform="translate(0.796387 0.84668)"/>
</clipPath>
</defs>
</svg>
