<svg width="136" height="51" viewBox="0 0 136 51" fill="none" xmlns="http://www.w3.org/2000/svg">
<g clip-path="url(#clip0_2_508)">
<path d="M0.214844 49.5816L1.01366 46.7858L1.81248 43.827L2.61129 45.1677L3.41011 43.2334L4.20893 44.8653L5.00774 42.9987L5.80656 42.2831L6.60538 40.3456L7.40419 46.9372L8.20301 50.5479L9.00183 42.6545L9.80064 45.1948L10.5995 43.4026L11.3983 38.425L12.1971 37.5756L12.9959 34.6352L13.7947 29.7043L14.5935 31.2488L15.3924 30.0087L16.1912 27.3099L16.99 27.1549L17.7888 26.9001L18.5876 28.8252L19.3864 22.7814L20.1853 28.346L20.9841 18.3624L21.7829 17.5616L22.5817 24.7293L23.3805 20.3416L24.1793 21.984L24.9782 25.0348L25.777 23.6047L26.5758 20.2659L27.3746 23.5892L28.1734 27.0992L28.9722 29.7477L29.7711 26.7764L30.5699 29.401L31.3687 27.1615L32.1675 30.2887L32.9663 34.2092L33.7651 34.8144L34.564 42.7275L35.3628 39.4415L36.1616 33.8744L36.9604 30.5358L37.7592 30.6428L38.558 26.3733L39.3569 22.9467L40.1557 22.113L40.9545 27.16L41.7533 24.6451L42.5521 19.2789L43.3509 20.8461L44.1498 21.3641L44.9486 17.6049L45.7474 19.6538L46.5462 11.6496L47.345 12.1974L48.1438 14.4567L48.9427 15.0675L49.7415 19.0078L50.5403 18.4017L51.3391 13.8231L52.1379 11.7449L52.9367 9.63331L53.7356 10.091L54.5344 9.65846L55.3332 10.2245L56.132 5.11107L56.9308 4.02361L57.7296 3.0146L58.5285 3.80226L59.3273 3.95253L60.1261 2.74561L60.9249 4.94076L61.7237 7.85005L62.5225 5.02972L63.3214 4.10289L64.1202 3.50491L64.919 0.547852L65.7178 1.06684L66.5166 0.874109L67.3154 6.43069L68.1143 3.85247L68.9131 7.48475L69.7119 10.7923L70.5107 12.7612L71.3095 7.95108L72.1083 9.3242L72.9072 11.0451L73.706 11.0748L74.5048 7.4913L75.3036 8.60359L76.1024 9.79132L76.9012 13.2423L77.7001 15.9158L78.4989 17.5429L79.2977 21.7127L80.0965 21.0584L80.8953 18.2365L81.6941 19.7446L82.493 22.6994L83.2918 22.0219L84.0906 20.4797L84.8894 20.3078L85.6882 22.6555L86.487 21.4833L87.2859 22.1948L88.0847 20.9034L88.8835 22.342L89.6823 22.5762L90.4811 21.465L91.2799 20.221L92.0788 23.1222L92.8776 21.4278L93.6764 20.3168L94.4752 18.9104L95.274 21.3421L96.0728 22.5823L96.8717 24.9495L97.6705 28.5636L98.4693 27.9003L99.2681 26.1483L100.067 26.2271L100.866 22.6815L101.665 27.3245L102.463 22.6601L103.262 24.0945L104.061 19.9702L104.86 17.014L105.659 17.7414L106.457 15.7255L107.256 12.5791L108.055 14.9041L108.854 15.2807L109.653 18.9818L110.452 20.2649L111.25 21.1272L112.049 31.2333L112.848 38.2034L113.647 32.8828L114.446 32.8594L115.244 28.5567L116.043 31.2599L116.842 28.6038L117.641 29.8939L118.44 37.3789L119.239 39.1642L120.037 38.034L120.836 35.1855L121.635 37.2731L122.434 39.1497L123.233 43.893L124.031 42.0648L124.83 37.9637L125.629 38.1694L126.428 38.3457L127.227 36.8399L128.025 38.6427L128.824 44.2042L129.623 47.633L130.422 41.5949L131.221 40.8054L132.02 43.0562L132.818 37.5247L133.617 36.0317L134.416 37.4159" stroke="#32CA5B" stroke-width="1.25"/>
</g>
<defs>
<clipPath id="clip0_2_508">
<rect width="135" height="50" fill="white" transform="translate(0.214844 0.547852)"/>
</clipPath>
</defs>
</svg>
