<svg width="136" height="51" viewBox="0 0 136 51" fill="none" xmlns="http://www.w3.org/2000/svg">
<g clip-path="url(#clip0_2_426)">
<path d="M0.214844 48.9165L1.01366 45.6064L1.81248 45.6369L2.61129 43.3238L3.41011 44.8767L4.20893 45.2529L5.00774 42.9496L5.80656 43.6695L6.60538 45.4436L7.40419 48.3936L8.20301 50.5479L9.00183 48.4351L9.80064 44.4829L10.5995 42.9853L11.3983 39.3552L12.1971 39.1584L12.9959 41.2067L13.7947 35.9507L14.5935 37.5429L15.3924 36.8425L16.1912 32.4961L16.99 31.6903L17.7888 31.9868L18.5876 33.8717L19.3864 35.9916L20.1853 39.4058L20.9841 39.3704L21.7829 39.6124L22.5817 38.5825L23.3805 39.4816L24.1793 37.1231L24.9782 37.999L25.777 35.6369L26.5758 31.8711L27.3746 34.035L28.1734 34.0264L28.9722 36.8614L29.7711 34.6179L30.5699 35.7693L31.3687 34.8062L32.1675 36.0274L32.9663 38.4719L33.7651 40.5348L34.564 43.3591L35.3628 42.7304L36.1616 39.6207L36.9604 38.84L37.7592 39.1162L38.558 34.6533L39.3569 29.9825L40.1557 25.6084L40.9545 24.9581L41.7533 19.035L42.5521 21.7662L43.3509 20.789L44.1498 19.391L44.9486 18.8782L45.7474 18.1123L46.5462 19.0795L47.345 17.4951L48.1438 18.7228L48.9427 14.7118L49.7415 18.5696L50.5403 20.8641L51.3391 15.6699L52.1379 16.9333L52.9367 13.2153L53.7356 13.7268L54.5344 15.3105L55.3332 14.7158L56.132 6.59826L56.9308 9.39278L57.7296 9.63477L58.5285 6.30001L59.3273 6.71077L60.1261 5.1295L60.9249 7.7777L61.7237 7.42518L62.5225 6.23435L63.3214 6.99468L64.1202 3.05116L64.919 2.39878L65.7178 2.3371L66.5166 2.71184L67.3154 3.48189L68.1143 4.33877L68.9131 4.77969L69.7119 3.96217L70.5107 2.16178L71.3095 0.547852L72.1083 3.18304L72.9072 2.68916L73.706 3.6625L74.5048 1.37451L75.3036 4.5419L76.1024 5.66126L76.9012 9.49069L77.7001 11.3395L78.4989 15.7149L79.2977 17.1932L80.0965 11.7009L80.8953 12.7133L81.6941 14.5079L82.493 16.3584L83.2918 13.0425L84.0906 11.7601L84.8894 13.2426L85.6882 12.1911L86.487 9.62003L87.2859 9.77359L88.0847 9.00726L88.8835 7.49287L89.6823 9.18285L90.4811 8.73359L91.2799 8.98955L92.0788 10.7724L92.8776 8.19084L93.6764 8.77991L94.4752 7.18749L95.274 9.98978L96.0728 8.64773L96.8717 13.9468L97.6705 17.9449L98.4693 16.649L99.2681 15.06L100.067 14.9249L100.866 13.9152L101.665 17.6517L102.463 13.8203L103.262 14.15L104.061 10.1338L104.86 9.43049L105.659 8.14278L106.457 7.55414L107.256 6.92158L108.055 8.57346L108.854 6.61118L109.653 10.9307L110.452 12.2184L111.25 13.5971L112.049 23.8409L112.848 24.1116L113.647 22.2456L114.446 23.1505L115.244 19.7903L116.043 23.4833L116.842 21.0413L117.641 21.0056L118.44 27.1001L119.239 28.2303L120.037 25.3063L120.836 25.784L121.635 27.9259L122.434 29.3315L123.233 34.143L124.031 32.6957L124.83 30.7787L125.629 31.1849L126.428 30.7756L127.227 29.882L128.025 30.948L128.824 36.0043L129.623 35.9621L130.422 32.569L131.221 32.277L132.02 32.28L132.818 30.0522L133.617 29.9163L134.416 29.1405" stroke="#32CA5B" stroke-width="1.25"/>
</g>
<defs>
<clipPath id="clip0_2_426">
<rect width="135" height="50" fill="white" transform="translate(0.214844 0.547852)"/>
</clipPath>
</defs>
</svg>
