<svg width="136" height="51" viewBox="0 0 136 51" fill="none" xmlns="http://www.w3.org/2000/svg">
<g clip-path="url(#clip0_2_765)">
<path d="M0.796387 9.90998L1.59996 8.61167L2.40353 6.25662L3.2071 6.49701L4.01067 9.16324L4.81424 7.83229L5.61782 4.97512L6.42139 5.90459L7.22496 5.44221L8.02853 3.73057L8.8321 2.21445L9.63567 1.99388L10.4392 1.04749L11.2428 0.84668L12.0464 1.38045L12.85 2.77015L13.6535 2.40011L14.4571 3.86179L15.2607 4.65025L16.0642 10.4378L16.8678 15.9236L17.6714 19.2815L18.475 23.7912L19.2785 22.4418L20.0821 23.3625L20.8857 25.1382L21.6892 30.7976L22.4928 29.4005L23.2964 30.4543L24.1 31.2972L24.9035 29.1221L25.7071 26.0937L26.5107 23.6709L27.3142 24.5984L28.1178 25.0277L28.9214 26.4423L29.725 25.3232L30.5285 26.5518L31.3321 26.8193L32.1357 30.1783L32.9392 30.7741L33.7428 30.1583L34.5464 33.2681L35.35 29.7859L36.1535 33.0113L36.9571 27.0244L37.7607 31.2016L38.5642 33.9604L39.3678 37.6052L40.1714 41.6246L40.975 40.6512L41.7785 41.7912L42.5821 41.2682L43.3857 43.6888L44.1892 42.6034L44.9928 40.8968L45.7964 40.3801L46.6 39.1079L47.4035 39.0036L48.2071 40.7263L49.0107 40.1055L49.8142 43.5194L50.6178 48.1654L51.4214 45.8955L52.225 44.024L53.0285 47.2873L53.8321 45.5347L54.6357 46.0445L55.4392 50.8467L56.2428 47.5665L57.0464 50.5358L57.85 47.077L58.6535 47.003L59.4571 45.8356L60.2607 47.3734L61.0642 45.8366L61.8678 45.5555L62.6714 45.9763L63.475 47.3676L64.2785 41.7055L65.0821 42.9093L65.8857 43.0415L66.6892 42.6325L67.4928 40.9664L68.2964 42.2249L69.1 41.5744L69.9035 41.3116L70.7071 41.7841L71.5107 42.1201L72.3142 40.7784L73.1178 40.1167L73.9214 42.0574L74.725 43.7635L75.5285 36.2101L76.3321 32.8378L77.1357 36.0273L77.9392 33.9702L78.7428 33.9025L79.5464 33.806L80.35 34.6454L81.1535 36.2985L81.9571 35.6015L82.7607 34.9527L83.5642 35.8195L84.3678 38.3611L85.1714 38.4153L85.975 37.1105L86.7785 36.2494L87.5821 34.6818L88.3857 36.0313L89.1892 35.5747L89.9928 34.6921L90.7964 35.3312L91.6 35.4344L92.4035 35.1908L93.2071 37.2858L94.0107 36.6868L94.8142 35.9522L95.6178 37.601L96.4214 36.9926L97.225 38.2992L98.0285 39.4797L98.8321 39.3459L99.6357 37.1671L100.439 35.7832L101.243 36.1388L102.046 37.0687L102.85 35.2346L103.654 35.9568L104.457 36.3748L105.261 35.8932L106.064 35.9016L106.868 35.989L107.671 35.7377L108.475 35.1721L109.279 34.6803L110.082 35.2866L110.886 33.9501L111.689 33.2339L112.493 34.2505L113.296 31.2955L114.1 31.266L114.904 32.4499L115.707 32.1635L116.511 31.2291L117.314 31.8521L118.118 32.5569L118.921 34.6411L119.725 32.2936L120.529 32.4079L121.332 24.6536L122.136 24.7231L122.939 22.8687L123.743 24.0158L124.546 24.5477L125.35 25.5989L126.154 24.6499L126.957 25.2663L127.761 26.3085L128.564 30.1954L129.368 30.6577L130.171 27.7861L130.975 28.2218L131.779 26.0624L132.582 25.5833L133.386 27.4592L134.189 26.4272L134.993 34.6606" stroke="#FF3A33" stroke-width="1.25"/>
</g>
<defs>
<clipPath id="clip0_2_765">
<rect width="135" height="50" fill="white" transform="translate(0.796387 0.84668)"/>
</clipPath>
</defs>
</svg>
