<svg width="136" height="51" viewBox="0 0 136 51" fill="none" xmlns="http://www.w3.org/2000/svg">
<g clip-path="url(#clip0_9_433)">
<path d="M0.214844 49.7369L1.01366 49.4345L1.81248 49.1632L2.61129 48.9681L3.41011 48.5259L4.20893 49.32L5.00774 49.0136L5.80656 48.7908L6.60538 50.5479L7.40419 49.7359L8.20301 49.2814L9.00183 48.6913L9.80064 48.2808L10.5995 47.3687L11.3983 46.0451L12.1971 45.8531L12.9959 45.3931L13.7947 46.2165L14.5935 40.5953L15.3924 41.0528L16.1912 40.9149L16.99 42.9242L17.7888 42.9473L18.5876 42.5231L19.3864 44.6482L20.1853 46.0905L20.9841 45.9711L21.7829 46.2701L22.5817 45.7747L23.3805 45.1643L24.1793 43.0455L24.9782 45.1417L25.777 44.543L26.5758 43.7894L27.3746 43.7045L28.1734 45.4881L28.9722 45.1654L29.7711 45.711L30.5699 45.4463L31.3687 45.4432L32.1675 45.1265L32.9663 45.6574L33.7651 43.1739L34.564 46.4053L35.3628 46.104L36.1616 45.8862L36.9604 45.8662L37.7592 44.5158L38.558 44.5201L39.3569 42.2022L40.1557 40.3948L40.9545 39.4291L41.7533 36.849L42.5521 36.4621L43.3509 35.9818L44.1498 36.5852L44.9486 35.6286L45.7474 33.4076L46.5462 26.119L47.345 29.033L48.1438 27.8568L48.9427 25.9116L49.7415 27.5029L50.5403 24.9666L51.3391 25.4468L52.1379 27.9992L52.9367 2.35508L53.7356 5.05435L54.5344 0.547852L55.3332 1.46846L56.132 5.62239L56.9308 9.63503L57.7296 5.97714L58.5285 8.43012L59.3273 11.5346L60.1261 9.59187L60.9249 8.75695L61.7237 12.0131L62.5225 10.5192L63.3214 8.51507L64.1202 2.01463L64.919 2.71761L65.7178 5.25222L66.5166 4.74826L67.3154 7.64723L68.1143 7.42846L68.9131 6.14188L69.7119 5.62853L70.5107 7.36748L71.3095 6.20596L72.1083 9.61821L72.9072 7.27353L73.706 4.37356L74.5048 5.14036L75.3036 8.53314L76.1024 8.27911L76.9012 11.9768L77.7001 16.9734L78.4989 18.9274L79.2977 21.9078L80.0965 20.4751L80.8953 19.3933L81.6941 19.4499L82.493 19.8075L83.2918 19.6568L84.0906 18.3352L84.8894 19.2014L85.6882 19.4003L86.487 18.9015L87.2859 19.0441L88.0847 19.082L88.8835 18.9912L89.6823 18.9096L90.4811 18.0174L91.2799 18.2962L92.0788 17.9646L92.8776 19.9681L93.6764 18.233L94.4752 18.3175L95.274 19.0964L96.0728 19.4581L96.8717 21.5256L97.6705 24.2239L98.4693 23.0167L99.2681 22.577L100.067 22.5036L100.866 22.431L101.665 22.797L102.463 20.6257L103.262 22.8365L104.061 20.2937L104.86 21.8917L105.659 21.4816L106.457 21.4994L107.256 19.8772L108.055 20.3274L108.854 20.2105L109.653 21.4576L110.452 23.2476L111.25 24.8986L112.049 28.4348L112.848 29.4452L113.647 29.4701L114.446 29.9268L115.244 27.3723L116.043 29.3179L116.842 29.0314L117.641 29.5909L118.44 30.738L119.239 32.3996L120.037 31.8493L120.836 29.9907L121.635 31.0807L122.434 32.5251L123.233 33.4738L124.031 35.2384L124.83 35.022L125.629 35.8711L126.428 34.9455L127.227 33.3583L128.025 32.6535L128.824 33.9412L129.623 37.0158L130.422 35.4493L131.221 35.6142L132.02 35.7052L132.818 33.6247L133.617 33.626L134.416 33.2461" stroke="#32CA5B" stroke-width="1.25"/>
</g>
<defs>
<clipPath id="clip0_9_433">
<rect width="135" height="50" fill="white" transform="translate(0.214844 0.547852)"/>
</clipPath>
</defs>
</svg>
