<svg width="136" height="51" viewBox="0 0 136 51" fill="none" xmlns="http://www.w3.org/2000/svg">
<g clip-path="url(#clip0_2_867)">
<path d="M0.796387 12.756L1.5952 11.4133L2.39402 12.315L3.19284 11.5399L3.99165 11.1579L4.79047 15.4169L5.58929 15.6167L6.3881 11.4175L7.18692 6.48867L7.98574 7.60007L8.78455 3.36429L9.58337 0.84668L10.3822 2.9395L11.181 6.27083L11.9798 9.08182L12.7786 8.71629L13.5775 9.06554L14.3763 7.99563L15.1751 6.69118L15.9739 6.37295L16.7727 10.2043L17.5715 17.0085L18.3704 18.6977L19.1692 22.9676L19.968 25.2988L20.7668 26.1928L21.5656 30.9692L22.3644 29.0666L23.1632 27.9908L23.9621 28.1691L24.7609 26.6895L25.5597 28.419L26.3585 23.1335L27.1573 22.7739L27.9562 25.0105L28.755 23.5501L29.5538 20.4017L30.3526 15.4372L31.1514 13.2858L31.9502 12.1859L32.7491 19.9287L33.5479 23.5382L34.3467 26.1975L35.1455 32.0263L35.9443 30.7115L36.7431 26.9498L37.542 21.3161L38.3408 27.8777L39.1396 31.5801L39.9384 38.5491L40.7372 36.8519L41.536 34.5938L42.3348 37.6497L43.1337 36.2164L43.9325 32.8348L44.7313 30.6985L45.5301 28.4243L46.3289 29.9942L47.1277 30.7359L47.9266 30.8949L48.7254 35.3052L49.5242 36.6286L50.323 40.0317L51.1218 42.9059L51.9206 41.0072L52.7195 36.1931L53.5183 38.8613L54.3171 41.793L55.1159 40.9067L55.9147 47.4756L56.7135 47.7487L57.5124 50.8467L58.3112 47.6157L59.11 48.6976L59.9088 44.0356L60.7076 47.6021L61.5064 45.2895L62.3053 45.168L63.1041 46.1703L63.9029 47.6952L64.7017 45.0281L65.5005 48.4115L66.2993 50.8394L67.0982 47.4848L67.897 45.6246L68.6958 46.9739L69.4946 43.9968L70.2934 39.7375L71.0922 38.9801L71.8911 39.1464L72.6899 37.6475L73.4887 34.8288L74.2875 38.5936L75.0863 40.2055L75.8851 35.5631L76.684 33.7046L77.4828 32.6843L78.2816 33.5019L79.0804 32.1227L79.8792 33.3979L80.678 34.4706L81.4769 35.5976L82.2757 35.0674L83.0745 36.8337L83.8733 38.1358L84.6721 39.7053L85.4709 41.1095L86.2698 40.4857L87.0686 39.7951L87.8674 39.3298L88.6662 39.7412L89.465 38.3542L90.2638 37.9837L91.0627 41.8889L91.8615 40.9974L92.6603 39.2123L93.4591 41.0236L94.2579 39.8837L95.0567 40.3912L95.8556 42.5668L96.6544 38.4031L97.4532 39.8706L98.252 41.7769L99.0508 44.1785L99.8496 41.3684L100.648 39.8097L101.447 40.8068L102.246 41.8167L103.045 39.092L103.844 40.7094L104.643 42.1737L105.441 42.912L106.24 43.24L107.039 43.1979L107.838 42.2645L108.637 41.6739L109.435 39.1901L110.234 40.3777L111.033 38.2634L111.832 37.4968L112.631 36.6744L113.43 27.5054L114.228 26.6262L115.027 30.4715L115.826 29.0668L116.625 27.1624L117.424 28.8576L118.222 29.0209L119.021 31.0504L119.82 28.399L120.619 26.7585L121.418 21.7107L122.217 22.3476L123.015 26.9369L123.814 27.1735L124.613 25.6214L125.412 28.5642L126.211 26.3659L127.009 25.2341L127.808 24.0676L128.607 29.016L129.406 30.7555L130.205 28.512L131.003 30.57L131.802 22.7941L132.601 23.7153L133.4 25.7739L134.199 18.8316L134.998 25.5677" stroke="#FF3A33" stroke-width="1.25"/>
</g>
<defs>
<clipPath id="clip0_2_867">
<rect width="135" height="50" fill="white" transform="translate(0.796387 0.84668)"/>
</clipPath>
</defs>
</svg>
