<svg width="135" height="41" viewBox="0 0 135 41" fill="none" xmlns="http://www.w3.org/2000/svg">
<g clip-path="url(#clip0_15_15827)">
<path d="M129.564 0.497559H5.26892C2.52294 0.497559 0.296875 2.72362 0.296875 5.46961V35.2999C0.296875 38.0459 2.52294 40.2719 5.26892 40.2719H129.564C132.31 40.2719 134.536 38.0459 134.536 35.2999V5.46961C134.536 2.72362 132.31 0.497559 129.564 0.497559Z" fill="black"/>
<path d="M129.566 1.2825C130.674 1.28608 131.735 1.72857 132.517 2.51303C133.299 3.29748 133.738 4.35992 133.738 5.46751V35.3025C133.734 36.4078 133.293 37.4667 132.512 38.2483C131.73 39.0298 130.671 39.4705 129.566 39.474H5.26488C4.15962 39.4705 3.10065 39.0298 2.31911 38.2483C1.53757 37.4667 1.09693 36.4078 1.09338 35.3025V5.46751C1.09337 4.35992 1.53243 3.29748 2.31436 2.51303C3.09628 1.72857 4.15728 1.28608 5.26488 1.2825H129.566ZM129.566 0.499512H5.26488C3.94783 0.501298 2.68523 1.02528 1.75394 1.95658C0.822647 2.88787 0.298661 4.15046 0.296875 5.46751V35.3025C0.298661 36.6195 0.822647 37.8821 1.75394 38.8134C2.68523 39.7447 3.94783 40.2687 5.26488 40.2705H129.566C130.883 40.2687 132.146 39.7447 133.077 38.8134C134.008 37.8821 134.532 36.6195 134.534 35.3025V5.46751C134.532 4.15163 134.009 2.89006 133.079 1.95896C132.15 1.02786 130.889 0.503081 129.573 0.499512H129.566Z" fill="#A6A6A6"/>
<path d="M49.7474 10.9353C49.7643 11.271 49.7131 11.6066 49.5972 11.9221C49.4812 12.2376 49.3027 12.5264 49.0724 12.7713C48.8108 13.041 48.4952 13.2526 48.1463 13.3922C47.7974 13.5318 47.4229 13.5962 47.0474 13.5813C46.4801 13.5733 45.9276 13.3993 45.4581 13.0807C44.9887 12.7621 44.6229 12.3129 44.406 11.7886C44.1891 11.2643 44.1306 10.688 44.2378 10.1309C44.3449 9.5737 44.613 9.06018 45.0089 8.65377C45.2723 8.38497 45.5877 8.17271 45.9359 8.02995C46.284 7.8872 46.6577 7.81695 47.0339 7.82351C47.4277 7.81763 47.8184 7.89348 48.1814 8.04626C48.5107 8.17909 48.8043 8.38714 49.0387 8.65377L48.5459 9.14651C48.362 8.9297 48.1304 8.75838 47.8693 8.64597C47.6082 8.53355 47.3246 8.48308 47.0407 8.49851C46.7531 8.49651 46.468 8.55271 46.2027 8.6637C45.9374 8.7747 45.6972 8.9382 45.4967 9.14439C45.2962 9.35058 45.1395 9.59519 45.0359 9.86351C44.9324 10.1318 44.8842 10.4183 44.8942 10.7058C44.884 11.1362 45.0028 11.5599 45.2351 11.9224C45.4675 12.2849 45.8029 12.5697 46.1983 12.7402C46.5937 12.9107 47.031 12.9591 47.4542 12.8792C47.8773 12.7994 48.2669 12.5949 48.5729 12.292C48.855 11.9854 49.0179 11.5879 49.0319 11.1715H47.0474V10.51H49.7204C49.7434 10.6438 49.7547 10.7793 49.7542 10.915L49.7474 10.9353ZM53.9662 8.64026H51.4822V10.375H53.7434V11.0365H51.4822V12.7915H53.9662V13.4665H50.7464V7.95176H53.9662V8.64026ZM56.9834 13.4665H56.2747V8.63351H54.7222V7.94501H58.5697V8.62001H56.9699L56.9834 13.4665ZM61.2697 13.4665V7.95176H61.9784V13.4665H61.2697ZM65.1172 13.4665H64.4152V8.63351H62.8627V7.94501H66.6562V8.62001H65.1239L65.1172 13.4665ZM73.8382 12.751C73.3005 13.2869 72.5723 13.5877 71.8132 13.5877C71.0541 13.5877 70.3259 13.2869 69.7882 12.751C69.262 12.1987 68.9685 11.4652 68.9685 10.7024C68.9685 9.93959 69.262 9.20605 69.7882 8.65377C70.0531 8.386 70.3684 8.17343 70.716 8.02836C71.0636 7.88329 71.4365 7.80859 71.8132 7.80859C72.1898 7.80859 72.5627 7.88329 72.9103 8.02836C73.2579 8.17343 73.5733 8.386 73.8382 8.65377C74.3624 9.2057 74.6546 9.93783 74.6546 10.699C74.6546 11.4602 74.3624 12.1923 73.8382 12.7443V12.751ZM70.3079 12.2785C70.7065 12.6763 71.2467 12.8997 71.8098 12.8997C72.3729 12.8997 72.9131 12.6763 73.3117 12.2785C73.7016 11.8448 73.9173 11.2822 73.9173 10.699C73.9173 10.1158 73.7016 9.55321 73.3117 9.11951C72.9131 8.72174 72.3729 8.49835 71.8098 8.49835C71.2467 8.49835 70.7065 8.72174 70.3079 9.11951C69.9142 9.55403 69.6962 10.1194 69.6962 10.7058C69.6962 11.2921 69.9142 11.8575 70.3079 12.292V12.2785ZM75.6404 13.4598V7.94501H76.5179L79.1977 12.238V7.94501H79.8929V13.4598H79.1504L76.3559 8.96426V13.453L75.6404 13.4598Z" fill="white" stroke="white" stroke-width="0.1836" stroke-miterlimit="10"/>
<path d="M68.8107 21.5125C68.037 21.5152 67.2814 21.7471 66.6393 22.1789C65.9973 22.6107 65.4976 23.2231 65.2034 23.9387C64.9091 24.6543 64.8335 25.441 64.9861 26.1996C65.1387 26.9581 65.5126 27.6544 66.0606 28.2006C66.6087 28.7468 67.3063 29.1183 68.0654 29.2683C68.8244 29.4183 69.6109 29.3399 70.3255 29.0432C71.0401 28.7465 71.6507 28.2447 72.0803 27.6012C72.5099 26.9577 72.7392 26.2013 72.7392 25.4276C72.7484 24.9098 72.653 24.3954 72.4586 23.9154C72.2643 23.4353 71.975 22.9995 71.6082 22.6339C71.2414 22.2683 70.8045 21.9806 70.3238 21.7879C69.8431 21.5952 69.3285 21.5016 68.8107 21.5125ZM68.8107 27.7901C68.3345 27.824 67.8591 27.7136 67.4465 27.4734C67.0339 27.2331 66.7032 26.8742 66.4976 26.4433C66.292 26.0124 66.2209 25.5295 66.2938 25.0577C66.3666 24.5858 66.5799 24.1469 66.9058 23.798C67.2317 23.4491 67.6552 23.2065 68.1211 23.1018C68.5869 22.9972 69.0734 23.0353 69.5173 23.2112C69.9612 23.3871 70.3417 23.6926 70.6094 24.0879C70.8771 24.4833 71.0195 24.9501 71.018 25.4276C71.0315 25.7279 70.9851 26.0279 70.8813 26.31C70.7775 26.5922 70.6186 26.8508 70.4137 27.0708C70.2088 27.2907 69.9621 27.4676 69.688 27.5911C69.4139 27.7147 69.118 27.7823 68.8175 27.7901H68.8107ZM60.2517 21.5125C59.4774 21.5125 58.7205 21.7422 58.0766 22.1723C57.4328 22.6025 56.931 23.214 56.6347 23.9293C56.3384 24.6447 56.2609 25.4319 56.4119 26.1913C56.563 26.9508 56.9359 27.6483 57.4834 28.1959C58.0309 28.7434 58.7285 29.1163 59.4879 29.2673C60.2474 29.4184 61.0345 29.3409 61.7499 29.0445C62.4653 28.7482 63.0767 28.2464 63.5069 27.6026C63.9371 26.9588 64.1667 26.2019 64.1667 25.4276C64.1759 24.9098 64.0805 24.3954 63.8861 23.9154C63.6918 23.4353 63.4025 22.9995 63.0357 22.6339C62.6689 22.2683 62.232 21.9806 61.7513 21.7879C61.2706 21.5952 60.756 21.5016 60.2382 21.5125H60.2517ZM60.2517 27.7901C59.7751 27.8267 59.2986 27.7188 58.8843 27.4804C58.47 27.242 58.1373 26.8841 57.9296 26.4537C57.7219 26.0232 57.6488 25.5401 57.7199 25.0674C57.7911 24.5948 58.0031 24.1545 58.3283 23.8043C58.6536 23.454 59.0769 23.21 59.543 23.1041C60.0091 22.9982 60.4963 23.0353 60.941 23.2107C61.3856 23.386 61.7671 23.6913 62.0355 24.0868C62.3039 24.4823 62.4468 24.9496 62.4455 25.4276C62.459 25.7279 62.4126 26.0279 62.3088 26.31C62.205 26.5922 62.0461 26.8508 61.8412 27.0708C61.6363 27.2907 61.3896 27.4676 61.1155 27.5911C60.8414 27.7147 60.5455 27.7823 60.245 27.7901H60.2517ZM50.0592 22.7276V24.3745H54.0215C53.9605 25.1557 53.6369 25.8932 53.1035 26.467C52.7059 26.8724 52.2278 27.19 51.6999 27.3993C51.1721 27.6085 50.6063 27.7049 50.039 27.6821C48.8682 27.6821 47.7453 27.217 46.9174 26.3891C46.0896 25.5612 45.6245 24.4383 45.6245 23.2675C45.6245 22.0967 46.0896 20.9739 46.9174 20.146C47.7453 19.3181 48.8682 18.853 50.039 18.853C51.1602 18.8346 52.243 19.2618 53.0495 20.041L54.2105 18.8733C53.6667 18.3223 53.018 17.8861 52.3026 17.5904C51.5872 17.2948 50.8197 17.1457 50.0457 17.152C48.4345 17.152 46.8893 17.7921 45.75 18.9314C44.6107 20.0707 43.9707 21.6159 43.9707 23.227C43.9707 24.8382 44.6107 26.3834 45.75 27.5227C46.8893 28.662 48.4345 29.3021 50.0457 29.3021C50.8327 29.3373 51.6182 29.2038 52.3493 28.9104C53.0805 28.617 53.7404 28.1706 54.2847 27.6011C55.2466 26.5416 55.7597 25.1501 55.7157 23.7198C55.7201 23.3713 55.6907 23.0232 55.628 22.6803H50.0457L50.0592 22.7276ZM91.7202 24.0101C91.4812 23.3034 91.033 22.6861 90.435 22.2401C89.8371 21.794 89.1177 21.5403 88.3722 21.5125C87.8686 21.5115 87.3701 21.6139 86.9076 21.8134C86.4452 22.0128 86.0286 22.3051 85.6837 22.6722C85.3388 23.0392 85.073 23.4731 84.9026 23.9471C84.7323 24.4211 84.6611 24.925 84.6935 25.4276C84.6834 25.9409 84.7768 26.4511 84.9681 26.9276C85.1593 27.4042 85.4445 27.8374 85.8067 28.2014C86.1688 28.5654 86.6005 28.8529 87.0761 29.0466C87.5516 29.2403 88.0613 29.3364 88.5747 29.3291C89.2176 29.3325 89.8513 29.1764 90.4191 28.8748C90.9869 28.5733 91.471 28.1356 91.8282 27.6011L90.4985 26.6763C90.2992 27.0079 90.017 27.2818 89.6797 27.4712C89.3424 27.6606 88.9615 27.7588 88.5747 27.7563C88.1776 27.7713 87.7852 27.6667 87.4482 27.4561C87.1113 27.2455 86.8453 26.9385 86.6847 26.575L91.916 24.4151L91.7202 24.0101ZM86.3877 25.3128C86.3685 25.0284 86.4064 24.7431 86.499 24.4736C86.5916 24.204 86.7371 23.9557 86.927 23.7432C87.1169 23.5307 87.3473 23.3582 87.6048 23.236C87.8622 23.1137 88.1415 23.0441 88.4262 23.0313C88.7228 23.0125 89.0184 23.0812 89.2764 23.2287C89.5343 23.3763 89.7433 23.5963 89.8775 23.8616L86.3877 25.3128ZM82.1352 29.0928H83.8565V17.6178H82.1352V29.0928ZM79.3205 22.3901H79.2665C79.0069 22.1012 78.6895 21.8701 78.3348 21.7119C77.9801 21.5538 77.5961 21.472 77.2077 21.472C76.1694 21.472 75.1736 21.8845 74.4394 22.6187C73.7052 23.3529 73.2927 24.3487 73.2927 25.387C73.2927 26.4254 73.7052 27.4212 74.4394 28.1554C75.1736 28.8896 76.1694 29.3021 77.2077 29.3021C77.5971 29.3087 77.9832 29.2299 78.3389 29.0713C78.6945 28.9127 79.0112 28.6781 79.2665 28.384H79.3205V29.0185C79.3205 30.517 78.5105 31.3136 77.228 31.3136C76.8015 31.302 76.388 31.1644 76.0396 30.9182C75.6913 30.6719 75.4236 30.328 75.2705 29.9298L73.7652 30.5508C74.0477 31.2375 74.5289 31.8241 75.147 32.2354C75.7652 32.6468 76.4922 32.864 77.2347 32.8593C79.2597 32.8593 80.9202 31.678 80.9202 28.789V21.7353H79.334L79.3205 22.3901ZM77.363 27.7901C76.7782 27.7275 76.2372 27.451 75.8441 27.0136C75.451 26.5762 75.2335 26.0089 75.2335 25.4208C75.2335 24.8327 75.451 24.2654 75.8441 23.828C76.2372 23.3906 76.7782 23.1141 77.363 23.0515C77.6578 23.066 77.9467 23.1394 78.2127 23.2675C78.4787 23.3956 78.7162 23.5758 78.9113 23.7973C79.1064 24.0189 79.2551 24.2773 79.3486 24.5573C79.442 24.8373 79.4784 25.1332 79.4555 25.4276C79.4794 25.7225 79.4432 26.0191 79.3491 26.2997C79.255 26.5802 79.105 26.8387 78.9081 27.0596C78.7113 27.2804 78.4716 27.4591 78.2037 27.5846C77.9358 27.7102 77.6452 27.7801 77.3495 27.7901H77.363ZM99.773 17.5976H95.669V29.0995H97.3902V24.7526H99.7932C100.281 24.7816 100.769 24.7105 101.228 24.5438C101.687 24.377 102.107 24.1181 102.462 23.7829C102.817 23.4477 103.1 23.0434 103.292 22.5948C103.485 22.1462 103.584 21.6629 103.584 21.1746C103.583 20.6863 103.482 20.2034 103.287 19.7555C103.092 19.3077 102.808 18.9044 102.452 18.5706C102.096 18.2368 101.675 17.9794 101.215 17.8144C100.756 17.6494 100.267 17.5802 99.7797 17.611L99.773 17.5976ZM99.773 23.1325H97.3835V19.2041H99.8135C100.072 19.2041 100.329 19.255 100.568 19.3541C100.807 19.4531 101.024 19.5983 101.207 19.7813C101.39 19.9644 101.535 20.1816 101.634 20.4208C101.733 20.6599 101.784 20.9162 101.784 21.175C101.784 21.4339 101.733 21.6902 101.634 21.9293C101.535 22.1684 101.39 22.3857 101.207 22.5688C101.024 22.7518 100.807 22.897 100.568 22.996C100.329 23.0951 100.072 23.1461 99.8135 23.1461L99.773 23.1325ZM110.384 21.472C109.759 21.4355 109.137 21.5821 108.594 21.8938C108.05 22.2055 107.61 22.6689 107.326 23.227L108.845 23.8683C108.993 23.5912 109.219 23.3633 109.495 23.2122C109.77 23.0612 110.084 22.9937 110.397 23.0178C110.617 22.9906 110.84 23.0078 111.052 23.0682C111.265 23.1286 111.464 23.231 111.636 23.3695C111.808 23.5079 111.951 23.6796 112.056 23.8742C112.161 24.0689 112.226 24.2826 112.247 24.5028V24.6175C111.692 24.3223 111.073 24.1693 110.445 24.172C108.798 24.172 107.137 25.0968 107.137 26.764C107.153 27.1189 107.241 27.4668 107.393 27.7874C107.546 28.108 107.762 28.3948 108.027 28.6307C108.293 28.8667 108.603 29.047 108.939 29.1612C109.276 29.2753 109.631 29.3209 109.986 29.2953C110.42 29.3256 110.854 29.2381 111.243 29.0421C111.631 28.846 111.959 28.5487 112.193 28.1815H112.247V29.0995H113.907V24.6851C113.907 22.6736 112.375 21.5125 110.418 21.5125L110.384 21.472ZM110.181 27.7765C109.874 27.8217 109.562 27.7455 109.31 27.5641C109.058 27.3827 108.886 27.1102 108.831 26.8045C108.831 25.8798 109.81 25.5761 110.674 25.5761C111.217 25.564 111.753 25.6968 112.227 25.9608C112.17 26.4577 111.936 26.9176 111.568 27.2561C111.2 27.5945 110.722 27.7889 110.222 27.8035L110.181 27.7765ZM119.949 21.7556L117.978 26.737H117.924L115.878 21.7556H114.042L117.1 28.7215L115.359 32.5961H117.147L121.859 21.7556H119.955H119.949ZM104.491 29.1131H106.206V17.611H104.484L104.491 29.1131Z" fill="white"/>
<path d="M15.7491 8.43779C15.4468 8.7995 15.2946 9.2633 15.3239 9.73379V30.0783C15.2981 30.5442 15.4501 31.0025 15.7491 31.3608L15.8166 31.4283L27.2039 20.0478V19.7643L15.8099 8.38379L15.7491 8.43779Z" fill="url(#paint0_linear_15_15827)"/>
<path d="M30.9831 23.8411L27.2031 20.0409V19.7709L30.9831 15.9639L31.0506 16.0111L35.5731 18.5761C36.8556 19.2984 36.8556 20.4999 35.5731 21.2356L31.0776 23.7871L30.9831 23.8411Z" fill="url(#paint1_linear_15_15827)"/>
<path d="M31.084 23.787L27.2028 19.9058L15.748 31.3605C16.0104 31.5905 16.3447 31.7217 16.6934 31.7315C17.0422 31.7414 17.3834 31.6293 17.6583 31.4145L31.0908 23.787" fill="url(#paint2_linear_15_15827)"/>
<path d="M31.0839 16.0243L17.6514 8.39685C17.3767 8.17941 17.0345 8.06507 16.6843 8.0737C16.3341 8.08233 15.998 8.21338 15.7344 8.44409L27.2094 19.9191L31.0839 16.0243Z" fill="url(#paint3_linear_15_15827)"/>
<path opacity="0.2" d="M30.9837 23.7061L17.6524 31.293C17.3868 31.4929 17.0635 31.601 16.7311 31.601C16.3987 31.601 16.0753 31.4929 15.8097 31.293L15.7422 31.3606L15.8097 31.4281C16.0748 31.629 16.3984 31.7377 16.7311 31.7377C17.0637 31.7377 17.3873 31.629 17.6524 31.4281L31.0849 23.7871L30.9837 23.7061Z" fill="black"/>
<path opacity="0.12" d="M15.7484 31.2323C15.4494 30.874 15.2974 30.4157 15.3231 29.9498V30.0848C15.2974 30.5507 15.4494 31.009 15.7484 31.3673L15.8159 31.2998L15.7484 31.2323ZM35.5731 21.1073L30.9831 23.706L31.0506 23.787L35.5731 21.222C35.8281 21.1024 36.0471 20.9177 36.2082 20.6867C36.3694 20.4557 36.4669 20.1864 36.4911 19.9058C36.4387 20.1606 36.3288 20.4002 36.1697 20.6061C36.0106 20.812 35.8065 20.9788 35.5731 21.0938V21.1073Z" fill="black"/>
<path opacity="0.25" d="M17.6519 8.51877L35.5732 18.7113C35.8074 18.827 36.0119 18.9948 36.171 19.2019C36.3302 19.4091 36.4397 19.6499 36.4912 19.906C36.4692 19.623 36.3728 19.3509 36.2115 19.1173C36.0503 18.8838 35.83 18.6971 35.5732 18.5763L17.6519 8.38378C16.3694 7.65478 15.3164 8.26228 15.3164 9.73378V9.86877C15.3367 8.38377 16.3627 7.78977 17.6452 8.51877H17.6519Z" fill="white"/>
</g>
<defs>
<linearGradient id="paint0_linear_15_15827" x1="26.1837" y1="9.58125" x2="10.757" y2="25.0079" gradientUnits="userSpaceOnUse">
<stop stop-color="#00A0FF"/>
<stop offset="0.01" stop-color="#00A1FF"/>
<stop offset="0.26" stop-color="#00BEFF"/>
<stop offset="0.51" stop-color="#00D2FF"/>
<stop offset="0.76" stop-color="#00DFFF"/>
<stop offset="1" stop-color="#00E3FF"/>
</linearGradient>
<linearGradient id="paint1_linear_15_15827" x1="37.2427" y1="19.9605" x2="15.0036" y2="19.9605" gradientUnits="userSpaceOnUse">
<stop stop-color="#FFE000"/>
<stop offset="0.41" stop-color="#FFBD00"/>
<stop offset="0.78" stop-color="#FFA500"/>
<stop offset="1" stop-color="#FF9C00"/>
</linearGradient>
<linearGradient id="paint2_linear_15_15827" x1="28.9682" y1="22.0749" x2="8.04383" y2="42.9902" gradientUnits="userSpaceOnUse">
<stop stop-color="#FF3A44"/>
<stop offset="1" stop-color="#C31162"/>
</linearGradient>
<linearGradient id="paint3_linear_15_15827" x1="12.8519" y1="1.73876" x2="22.1925" y2="11.0794" gradientUnits="userSpaceOnUse">
<stop stop-color="#32A071"/>
<stop offset="0.07" stop-color="#2DA771"/>
<stop offset="0.48" stop-color="#15CF74"/>
<stop offset="0.8" stop-color="#06E775"/>
<stop offset="1" stop-color="#00F076"/>
</linearGradient>
<clipPath id="clip0_15_15827">
<rect width="135" height="40.5" fill="white"/>
</clipPath>
</defs>
</svg>
