<svg width="15" height="15" viewBox="0 0 15 15" fill="none" xmlns="http://www.w3.org/2000/svg">
<path d="M9.18359 2.71875C9.03776 2.77344 8.96484 2.8737 8.96484 3.01953C8.96484 3.16536 9.03776 3.26562 9.18359 3.32031L10.7148 3.89453L11.2891 5.45312C11.3438 5.58073 11.444 5.64453 11.5898 5.64453C11.7357 5.64453 11.8359 5.58073 11.8906 5.45312L12.4648 3.89453L14.0234 3.32031C14.151 3.26562 14.2148 3.16536 14.2148 3.01953C14.2148 2.8737 14.151 2.77344 14.0234 2.71875L12.4648 2.14453L11.8906 0.613281C11.8359 0.467448 11.7357 0.394531 11.5898 0.394531C11.444 0.394531 11.3438 0.467448 11.2891 0.613281L10.7148 2.14453L9.18359 2.71875ZM0.460938 6.95703C0.296875 7.04818 0.214844 7.1849 0.214844 7.36719C0.214844 7.54948 0.296875 7.67708 0.460938 7.75L0.925781 7.96875L1.14453 8.07812H1.17188L3.57812 9.19922L4.69922 11.6055V11.6328L4.80859 11.8516L5.02734 12.3164C5.11849 12.4805 5.25521 12.5625 5.4375 12.5625C5.60156 12.5625 5.72917 12.4805 5.82031 12.3164L6.03906 11.8516L6.14844 11.6328V11.6055L7.26953 9.19922L9.67578 8.07812H9.70312L9.92188 7.96875L10.3867 7.75C10.5508 7.67708 10.6328 7.54948 10.6328 7.36719C10.6328 7.1849 10.5508 7.04818 10.3867 6.95703L9.92188 6.73828L9.70312 6.65625L9.67578 6.62891L7.26953 5.50781L6.14844 3.10156L6.03906 2.85547L5.82031 2.39062C5.7474 2.22656 5.61979 2.14453 5.4375 2.14453C5.25521 2.14453 5.11849 2.22656 5.02734 2.39062L4.80859 2.85547L4.72656 3.07422L4.69922 3.10156L3.57812 5.50781L1.17188 6.62891L0.925781 6.73828L0.460938 6.95703ZM2.73047 7.36719L4.15234 6.71094C4.42578 6.5651 4.63542 6.34635 4.78125 6.05469L5.4375 4.66016L6.06641 6.05469C6.21224 6.34635 6.43099 6.5651 6.72266 6.71094L8.11719 7.36719L6.72266 7.99609C6.43099 8.14193 6.21224 8.36068 6.06641 8.65234L5.4375 10.0469L4.78125 8.65234C4.63542 8.36068 4.42578 8.14193 4.15234 7.99609L2.73047 7.36719ZM10.7148 10.8945L9.18359 11.4688C9.03776 11.5234 8.96484 11.6237 8.96484 11.7695C8.96484 11.9154 9.03776 12.0156 9.18359 12.0703L10.7148 12.6445L11.2891 14.2031C11.3438 14.3307 11.444 14.3945 11.5898 14.3945C11.7357 14.3945 11.8359 14.3307 11.8906 14.2031L12.4648 12.6445L14.0234 12.0703C14.151 12.0156 14.2148 11.9154 14.2148 11.7695C14.2148 11.6237 14.151 11.5234 14.0234 11.4688L12.4648 10.8945L11.8906 9.36328C11.8359 9.21745 11.7357 9.14453 11.5898 9.14453C11.444 9.14453 11.3438 9.21745 11.2891 9.36328L10.7148 10.8945Z" fill="#0F172A"/>
</svg>
