<svg width="136" height="51" viewBox="0 0 136 51" fill="none" xmlns="http://www.w3.org/2000/svg">
<g clip-path="url(#clip0_2_807)">
<path d="M0.796387 8.26075L1.5952 9.09775L2.39402 9.02262L3.19284 7.02029L3.99165 9.53763L4.79047 13.1832L5.58929 14.9491L6.3881 12.47L7.18692 11.3686L7.98574 12.2386L8.78455 8.69418L9.58337 6.12531L10.3822 7.3004L11.181 0.84668L11.9798 1.24806L12.7786 2.31015L13.5775 1.46066L14.3763 1.03661L15.1751 2.40828L15.9739 2.30072L16.7727 7.08925L17.5715 12.0742L18.3704 10.8244L19.1692 15.4379L19.968 16.6063L20.7668 20.1643L21.5656 24.7935L22.3644 27.9169L23.1632 26.893L23.9621 27.8619L24.7609 28.518L25.5597 26.4436L26.3585 25.5576L27.1573 22.8601L27.9562 24.438L28.755 24.3915L29.5538 24.1934L30.3526 19.1728L31.1514 21.9289L31.9502 21.0332L32.7491 27.6307L33.5479 29.7738L34.3467 29.7823L35.1455 31.8372L35.9443 27.7923L36.7431 27.8931L37.542 23.8661L38.3408 28.2607L39.1396 30.32L39.9384 34.5402L40.7372 36.2111L41.536 34.0307L42.3348 37.4213L43.1337 34.6568L43.9325 36.2435L44.7313 31.8063L45.5301 32.7632L46.3289 33.0486L47.1277 32.2598L47.9266 34.452L48.7254 36.4955L49.5242 35.298L50.323 39.8778L51.1218 44.6186L51.9206 41.8866L52.7195 40.4142L53.5183 42.3491L54.3171 42.9408L55.1159 42.8401L55.9147 45.7135L56.7135 46.3306L57.5124 50.8467L58.3112 48.5861L59.11 48.7445L59.9088 45.2362L60.7076 47.7862L61.5064 47.5972L62.3053 45.8144L63.1041 46.4846L63.9029 47.9276L64.7017 43.1772L65.5005 44.3644L66.2993 44.2036L67.0982 44.4206L67.897 42.8329L68.6958 41.5805L69.4946 40.5613L70.2934 39.6917L71.0922 40.1963L71.8911 40.5615L72.6899 38.4932L73.4887 37.928L74.2875 36.6894L75.0863 38.8731L75.8851 36.5394L76.684 33.1848L77.4828 34.4134L78.2816 32.2175L79.0804 30.8631L79.8792 32.2L80.678 33.9753L81.4769 34.5963L82.2757 32.813L83.0745 31.7964L83.8733 32.907L84.6721 35.6968L85.4709 36.8437L86.2698 35.5168L87.0686 33.0847L87.8674 32.8787L88.6662 33.4077L89.465 31.531L90.2638 31.8386L91.0627 33.3766L91.8615 32.5113L92.6603 31.6947L93.4591 32.6641L94.2579 31.5407L95.0567 31.6955L95.8556 34.4112L96.6544 33.1929L97.4532 35.0984L98.252 35.4017L99.0508 36.7953L99.8496 35.9885L100.648 34.5022L101.447 34.6697L102.246 34.6603L103.045 32.0972L103.844 33.2953L104.643 34.5609L105.441 35.0382L106.24 35.0428L107.039 34.9555L107.838 34.9263L108.637 35.2143L109.435 34.1429L110.234 34.6358L111.033 33.6809L111.832 32.7123L112.631 32.1876L113.43 24.1208L114.228 20.3155L115.027 20.8968L115.826 21.9603L116.625 19.4025L117.424 21.525L118.222 21.5955L119.021 24.6014L119.82 21.5398L120.619 19.4834L121.418 14.6185L122.217 11.6744L123.015 13.4697L123.814 13.4201L124.613 14.5441L125.412 14.2095L126.211 11.9568L127.009 13.258L127.808 13.4886L128.607 17.2866L129.406 21.2156L130.205 18.2283L131.003 19.7372L131.802 16.9132L132.601 12.3242L133.4 16.2306L134.199 12.9788L134.998 19.5968" stroke="#FF3A33" stroke-width="1.25"/>
</g>
<defs>
<clipPath id="clip0_2_807">
<rect width="135" height="50" fill="white" transform="translate(0.796387 0.84668)"/>
</clipPath>
</defs>
</svg>
