<svg width="136" height="51" viewBox="0 0 136 51" fill="none" xmlns="http://www.w3.org/2000/svg">
<g clip-path="url(#clip0_2_420)">
<path d="M0.214844 35.8654L1.01366 35.555L1.81248 32.4689L2.61129 32.623L3.41011 33.3497L4.20893 36.0508L5.00774 37.2461L5.80656 35.4268L6.60538 39.9934L7.40419 42.9289L8.20301 41.0164L9.00183 40.2003L9.80064 37.3525L10.5995 43.5274L11.3983 43.5124L12.1971 40.4549L12.9959 39.2361L13.7947 33.329L14.5935 29.5294L15.3924 26.296L16.1912 21.0907L16.99 23.3902L17.7888 24.4736L18.5876 27.0588L19.3864 34.8489L20.1853 35.2141L20.9841 34.0258L21.7829 29.4713L22.5817 33.4701L23.3805 36.5678L24.1793 39.8487L24.9782 42.1503L25.777 38.5545L26.5758 36.7762L27.3746 42.5651L28.1734 43.9171L28.9722 42.939L29.7711 39.624L30.5699 38.627L31.3687 38.3263L32.1675 36.1214L32.9663 42.6607L33.7651 40.9876L34.564 43.5677L35.3628 44.1715L36.1616 43.3281L36.9604 42.7534L37.7592 43.5286L38.558 38.7471L39.3569 38.2878L40.1557 36.8735L40.9545 38.8239L41.7533 38.4093L42.5521 40.0226L43.3509 38.7433L44.1498 32.5382L44.9486 28.3038L45.7474 30.2283L46.5462 27.2074L47.345 31.8388L48.1438 35.0975L48.9427 31.0212L49.7415 33.2106L50.5403 35.5254L51.3391 31.5453L52.1379 33.0032L52.9367 31.9853L53.7356 27.3248L54.5344 28.2277L55.3332 30.199L56.132 26.9569L56.9308 26.8962L57.7296 26.5459L58.5285 26.938L59.3273 28.5671L60.1261 26.6782L60.9249 29.2326L61.7237 29.7264L62.5225 26.9308L63.3214 20.5922L64.1202 13.7364L64.919 0.547852L65.7178 2.76501L66.5166 5.19993L67.3154 14.5161L68.1143 10.2174L68.9131 10.5876L69.7119 4.62998L70.5107 9.76708L71.3095 9.70006L72.1083 8.08801L72.9072 5.62123L73.706 2.96072L74.5048 2.53999L75.3036 5.22011L76.1024 7.75773L76.9012 8.54762L77.7001 18.3808L78.4989 19.626L79.2977 25.4202L80.0965 20.2683L80.8953 17.8163L81.6941 20.1285L82.493 25.2408L83.2918 21.5946L84.0906 20.7522L84.8894 21.5957L85.6882 24.2956L86.487 22.834L87.2859 22.7657L88.0847 22.4318L88.8835 24.7699L89.6823 21.7006L90.4811 22.9495L91.2799 24.3441L92.0788 28.8615L92.8776 27.5357L93.6764 28.1029L94.4752 26.3113L95.274 29.362L96.0728 29.0839L96.8717 32.8014L97.6705 34.8248L98.4693 33.361L99.2681 31.9367L100.067 33.3428L100.866 31.2703L101.665 36.4715L102.463 34.3549L103.262 37.7247L104.061 39.0295L104.86 36.3134L105.659 35.5455L106.457 36.7406L107.256 32.5712L108.055 34.2633L108.854 30.0312L109.653 35.206L110.452 36.7564L111.25 33.9989L112.049 40.3801L112.848 42.2196L113.647 41.4468L114.446 40.251L115.244 38.5422L116.043 42.1897L116.842 39.026L117.641 40.3808L118.44 45.8895L119.239 45.2648L120.037 42.3171L120.836 40.375L121.635 39.9199L122.434 44.5216L123.233 47.9392L124.031 46.5417L124.83 44.5099L125.629 44.3795L126.428 43.0528L127.227 40.549L128.025 42.467L128.824 47.6049L129.623 50.5479L130.422 47.4464L131.221 45.5589L132.02 44.7173L132.818 43.1005L133.617 41.6183L134.416 41.8947" stroke="#FF3A33" stroke-width="1.25"/>
</g>
<defs>
<clipPath id="clip0_2_420">
<rect width="135" height="50" fill="white" transform="translate(0.214844 0.547852)"/>
</clipPath>
</defs>
</svg>
