<svg width="136" height="51" viewBox="0 0 136 51" fill="none" xmlns="http://www.w3.org/2000/svg">
<g clip-path="url(#clip0_2_933)">
<path d="M0.796387 9.51978L1.59996 8.79255L2.40353 8.50598L3.2071 6.9725L4.01067 8.49437L4.81424 8.72386L5.61782 7.28294L6.42139 4.76303L7.22496 6.02587L8.02853 7.08235L8.8321 4.22951L9.63567 3.35934L10.4392 6.8089L11.2428 0.84668L12.0464 1.39367L12.85 1.85215L13.6535 2.66534L14.4571 2.68159L15.2607 5.12777L16.0642 12.2988L16.8678 16.0459L17.6714 20.9155L18.475 23.9755L19.2785 28.8358L20.0821 23.8058L20.8857 24.3573L21.6892 32.2914L22.4928 30.4171L23.2964 30.4264L24.1 31.797L24.9035 29.6814L25.7071 26.8959L26.5107 24.7678L27.3142 24.4756L28.1178 25.7741L28.9214 25.7976L29.725 26.3022L30.5285 25.703L31.3321 26.184L32.1357 30.6585L32.9392 29.6434L33.7428 30.5204L34.5464 33.0804L35.35 34.4196L36.1535 33.0814L36.9571 30.9328L37.7607 30.5362L38.5642 31.3889L39.3678 38.0783L40.1714 38.4746L40.975 41.6877L41.7785 43.6276L42.5821 43.1133L43.3857 44.388L44.1892 43.064L44.9928 42.5815L45.7964 41.5525L46.6 39.6631L47.4035 39.3511L48.2071 40.4924L49.0107 40.6679L49.8142 44.5586L50.6178 47.2472L51.4214 49.0999L52.225 45.7297L53.0285 45.6697L53.8321 46.1877L54.6357 47.0845L55.4392 46.4288L56.2428 50.4002L57.0464 50.8467L57.85 48.8658L58.6535 48.6277L59.4571 46.6131L60.2607 47.6626L61.0642 46.4078L61.8678 46.5576L62.6714 46.0113L63.475 46.8072L64.2785 42.6831L65.0821 42.5599L65.8857 43.6439L66.6892 42.6137L67.4928 42.0475L68.2964 42.1105L69.1 41.1423L69.9035 41.0384L70.7071 42.2511L71.5107 41.4309L72.3142 44.1303L73.1178 42.1896L73.9214 43.0298L74.725 44.5218L75.5285 39.2634L76.3321 33.1506L77.1357 35.3595L77.9392 34.4038L78.7428 33.9578L79.5464 33.8154L80.35 34.2797L81.1535 35.1936L81.9571 36.066L82.7607 35.3594L83.5642 36.3844L84.3678 38.02L85.1714 38.8592L85.975 38.1007L86.7785 36.7428L87.5821 36.0413L88.3857 36.0178L89.1892 36.1738L89.9928 34.8481L90.7964 34.7914L91.6 34.8669L92.4035 36.2988L93.2071 36.4368L94.0107 36.3942L94.8142 36.9269L95.6178 37.6431L96.4214 37.6098L97.225 37.6167L98.0285 39.1801L98.8321 39.752L99.6357 37.3645L100.439 37.6261L101.243 36.8412L102.046 37.2308L102.85 36.4979L103.654 35.6857L104.457 36.2632L105.261 36.5075L106.064 36.244L106.868 35.8821L107.671 35.7848L108.475 35.2339L109.279 35.047L110.082 36.5619L110.886 35.5265L111.689 34.4221L112.493 33.6782L113.296 32.9322L114.1 31.7786L114.904 31.578L115.707 32.1801L116.511 31.6846L117.314 31.2251L118.118 31.7378L118.921 34.7167L119.725 33.5476L120.529 32.8153L121.332 25.2666L122.136 25.3809L122.939 21.9813L123.743 24.0468L124.546 24.753L125.35 26.1203L126.154 25.4076L126.957 26.0034L127.761 25.9741L128.564 29.7249L129.368 32.4272L130.171 28.8912L130.975 29.2376L131.779 29.4209L132.582 30.4777L133.386 27.9363L134.189 26.7112L134.993 30.0589" stroke="#FF3A33" stroke-width="1.25"/>
</g>
<defs>
<clipPath id="clip0_2_933">
<rect width="135" height="50" fill="white" transform="translate(0.796387 0.84668)"/>
</clipPath>
</defs>
</svg>
