<svg width="136" height="51" viewBox="0 0 136 51" fill="none" xmlns="http://www.w3.org/2000/svg">
<g clip-path="url(#clip0_2_468)">
<path d="M0.214844 50.3505L1.01366 48.0127L1.81248 48.7832L2.61129 46.2126L3.41011 49.0923L4.20893 50.0104L5.00774 49.4837L5.80656 49.7026L6.60538 50.5479L7.40419 49.8151L8.20301 50.2699L9.00183 48.7733L9.80064 44.5476L10.5995 44.1767L11.3983 41.335L12.1971 42.3354L12.9959 41.484L13.7947 39.9027L14.5935 39.3664L15.3924 36.4715L16.1912 32.6975L16.99 31.8335L17.7888 29.9473L18.5876 33.1726L19.3864 33.4061L20.1853 35.5774L20.9841 35.6576L21.7829 36.0815L22.5817 37.4486L23.3805 35.7182L24.1793 34.1945L24.9782 35.9097L25.777 30.0956L26.5758 27.3569L27.3746 31.362L28.1734 30.4351L28.9722 33.2102L29.7711 31.7463L30.5699 31.1707L31.3687 27.6907L32.1675 27.3897L32.9663 32.1351L33.7651 30.2301L34.564 33.889L35.3628 30.8804L36.1616 27.3907L36.9604 27.9825L37.7592 27.9291L38.558 21.5307L39.3569 21.4087L40.1557 20.5826L40.9545 20.9512L41.7533 16.4185L42.5521 5.05612L43.3509 4.62386L44.1498 2.69403L44.9486 0.547852L45.7474 6.43558L46.5462 5.06955L47.345 5.13991L48.1438 10.1015L48.9427 10.6258L49.7415 12.7568L50.5403 15.3345L51.3391 14.5719L52.1379 14.0903L52.9367 14.8254L53.7356 14.8961L54.5344 14.9553L55.3332 15.9991L56.132 9.61196L56.9308 9.30353L57.7296 9.2485L58.5285 11.2878L59.3273 11.5254L60.1261 8.80677L60.9249 11.9903L61.7237 11.8972L62.5225 13.7816L63.3214 14.1348L64.1202 16.556L64.919 13.4884L65.7178 12.9486L66.5166 11.8844L67.3154 17.4997L68.1143 15.3526L68.9131 15.6241L69.7119 15.6059L70.5107 15.1386L71.3095 13.7333L72.1083 15.3786L72.9072 13.9332L73.706 13.3003L74.5048 11.9587L75.3036 13.7987L76.1024 14.4278L76.9012 15.4335L77.7001 16.0373L78.4989 17.2475L79.2977 16.9598L80.0965 17.1821L80.8953 15.5075L81.6941 15.3953L82.493 15.5613L83.2918 15.1781L84.0906 11.7514L84.8894 11.6109L85.6882 13.7706L86.487 12.2432L87.2859 14.2296L88.0847 14.192L88.8835 15.7585L89.6823 16.2475L90.4811 16.1317L91.2799 14.5353L92.0788 13.5292L92.8776 14.8153L93.6764 15.2389L94.4752 16.2437L95.274 16.6809L96.0728 15.3922L96.8717 15.7045L97.6705 17.6544L98.4693 15.2295L99.2681 16.7626L100.067 16.1326L100.866 10.5713L101.665 19.3514L102.463 16.949L103.262 20.9255L104.061 19.8468L104.86 17.9127L105.659 15.9347L106.457 14.5377L107.256 12.709L108.055 14.5394L108.854 14.1327L109.653 18.4158L110.452 18.9877L111.25 20.3038L112.049 26.8274L112.848 30.2049L113.647 26.655L114.446 27.1102L115.244 26.2384L116.043 23.6504L116.842 20.0728L117.641 21.681L118.44 25.9783L119.239 25.1159L120.037 23.6652L120.836 22.8926L121.635 24.5261L122.434 25.4604L123.233 28.4286L124.031 27.9309L124.83 26.4848L125.629 26.5753L126.428 26.7565L127.227 24.4494L128.025 26.2173L128.824 30.1011L129.623 30.2921L130.422 26.3162L131.221 26.1794L132.02 26.1722L132.818 24.3055L133.617 23.8448L134.416 24.8209" stroke="#32CA5B" stroke-width="1.25"/>
</g>
<defs>
<clipPath id="clip0_2_468">
<rect width="135" height="50" fill="white" transform="translate(0.214844 0.547852)"/>
</clipPath>
</defs>
</svg>
