<svg width="136" height="51" viewBox="0 0 136 51" fill="none" xmlns="http://www.w3.org/2000/svg">
<g clip-path="url(#clip0_9_425)">
<path d="M0.214844 43.0074L1.01366 41.9894L1.81248 40.0922L2.61129 42.1649L3.41011 40.7773L4.20893 40.876L5.00774 38.9359L5.80656 40.2877L6.60538 44.4483L7.40419 42.5868L8.20301 44.0686L9.00183 40.4973L9.80064 42.2797L10.5995 41.5668L11.3983 39.0057L12.1971 39.5329L12.9959 36.2049L13.7947 36.0266L14.5935 37.7882L15.3924 32.3345L16.1912 31.3933L16.99 32.7829L17.7888 32.6744L18.5876 31.9068L19.3864 35.9617L20.1853 36.0834L20.9841 35.1282L21.7829 36.2359L22.5817 35.2954L23.3805 36.5405L24.1793 34.2515L24.9782 35.2757L25.777 33.189L26.5758 32.6489L27.3746 30.682L28.1734 37.376L28.9722 35.7899L29.7711 34.8833L30.5699 34.1789L31.3687 29.7278L32.1675 33.8729L32.9663 36.3402L33.7651 36.0075L34.564 41.4502L35.3628 38.6225L36.1616 38.0944L36.9604 37.1919L37.7592 36.1587L38.558 33.6834L39.3569 32.6647L40.1557 33.1337L40.9545 33.2832L41.7533 31.3631L42.5521 31.3972L43.3509 32.9511L44.1498 33.5611L44.9486 32.4181L45.7474 29.3374L46.5462 15.3083L47.345 18.8005L48.1438 21.1381L48.9427 23.3189L49.7415 26.7824L50.5403 26.207L51.3391 22.1393L52.1379 22.6899L52.9367 19.1776L53.7356 21.0854L54.5344 22.8542L55.3332 19.8041L56.132 19.2799L56.9308 16.715L57.7296 13.8475L58.5285 15.0638L59.3273 13.0778L60.1261 4.59876L60.9249 8.92002L61.7237 6.76939L62.5225 6.27926L63.3214 3.99854L64.1202 2.31896L64.919 0.717814L65.7178 8.17166L66.5166 6.81238L67.3154 10.9151L68.1143 10.1881L68.9131 11.9315L69.7119 10.9186L70.5107 10.429L71.3095 8.43261L72.1083 8.43595L72.9072 3.95498L73.706 2.4323L74.5048 0.547852L75.3036 2.72143L76.1024 4.44393L76.9012 7.51298L77.7001 9.95832L78.4989 8.3367L79.2977 12.8583L80.0965 19.4768L80.8953 12.5289L81.6941 15.5959L82.493 17.6376L83.2918 18.5144L84.0906 15.6571L84.8894 15.5033L85.6882 18.7893L86.487 17.1385L87.2859 17.8073L88.0847 17.5136L88.8835 17.8346L89.6823 17.6759L90.4811 15.7486L91.2799 14.1491L92.0788 14.4391L92.8776 15.1363L93.6764 14.9204L94.4752 16.7759L95.274 17.6855L96.0728 18.7918L96.8717 20.9632L97.6705 24.5647L98.4693 23.6063L99.2681 22.4999L100.067 22.8906L100.866 20.7256L101.665 24.6556L102.463 22.2034L103.262 24.0667L104.061 20.62L104.86 20.3187L105.659 17.9803L106.457 17.1431L107.256 13.4606L108.055 16.3242L108.854 14.6309L109.653 20.897L110.452 20.6209L111.25 22.9929L112.049 29.5066L112.848 31.5096L113.647 31.0081L114.446 31.5817L115.244 28.399L116.043 29.3158L116.842 28.1803L117.641 29.1157L118.44 35.8208L119.239 36.2151L120.037 33.7519L120.836 35.5035L121.635 37.1675L122.434 37.3206L123.233 43.0875L124.031 42.9663L124.83 41.1541L125.629 42.8068L126.428 43.3665L127.227 40.3813L128.025 43.384L128.824 49.0872L129.623 50.5479L130.422 44.3757L131.221 45.8898L132.02 41.8571L132.818 39.1816L133.617 37.3871L134.416 37.8132" stroke="#32CA5B" stroke-width="1.25"/>
</g>
<defs>
<clipPath id="clip0_9_425">
<rect width="135" height="50" fill="white" transform="translate(0.214844 0.547852)"/>
</clipPath>
</defs>
</svg>
