<svg width="136" height="51" viewBox="0 0 136 51" fill="none" xmlns="http://www.w3.org/2000/svg">
<g clip-path="url(#clip0_2_542)">
<path d="M0.214844 50.5479L1.01366 50.3329L1.81248 49.7593L2.61129 50.4279L3.41011 50.3189L4.20893 50.2066L5.00774 49.1261L5.80656 49.2356L6.60538 50.0832L7.40419 50.2123L8.20301 49.1628L9.00183 48.8342L9.80064 47.9472L10.5995 47.7227L11.3983 47.4183L12.1971 46.9901L12.9959 44.8701L13.7947 45.7494L14.5935 46.1925L15.3924 44.7137L16.1912 40.9156L16.99 37.2783L17.7888 31.3383L18.5876 33.4586L19.3864 37.2852L20.1853 40.2399L20.9841 37.7421L21.7829 38.0751L22.5817 39.0395L23.3805 39.0337L24.1793 36.9847L24.9782 39.4426L25.777 38.7286L26.5758 37.0486L27.3746 38.8654L28.1734 37.3527L28.9722 39.9333L29.7711 38.4124L30.5699 37.9308L31.3687 37.4741L32.1675 37.9035L32.9663 35.7003L33.7651 38.7996L34.564 41.4656L35.3628 41.0885L36.1616 39.2318L36.9604 36.855L37.7592 36.2559L38.558 34.2775L39.3569 33.6209L40.1557 35.2215L40.9545 34.6186L41.7533 33.9154L42.5521 34.8564L43.3509 35.3396L44.1498 35.4055L44.9486 35.4448L45.7474 36.37L46.5462 34.2905L47.345 33.2051L48.1438 34.1835L48.9427 33.831L49.7415 35.1997L50.5403 37.017L51.3391 34.9992L52.1379 35.822L52.9367 33.2017L53.7356 33.3022L54.5344 33.0768L55.3332 35.2127L56.132 32.5733L56.9308 31.6401L57.7296 31.0819L58.5285 30.7901L59.3273 30.9688L60.1261 28.5613L60.9249 27.8006L61.7237 29.7608L62.5225 29.4577L63.3214 25.0172L64.1202 25.2081L64.919 20.4544L65.7178 13.2914L66.5166 6.20412L67.3154 0.547852L68.1143 1.32881L68.9131 5.32829L69.7119 6.66555L70.5107 5.8372L71.3095 6.88189L72.1083 9.99716L72.9072 13.4113L73.706 14.2914L74.5048 11.2933L75.3036 14.1608L76.1024 13.8745L76.9012 18.0592L77.7001 20.0572L78.4989 20.2857L79.2977 24.8166L80.0965 22.2926L80.8953 21.3991L81.6941 20.1791L82.493 20.8253L83.2918 21.3999L84.0906 21.6739L84.8894 22.2974L85.6882 22.9761L86.487 22.7764L87.2859 22.4015L88.0847 21.6103L88.8835 22.2314L89.6823 22.3927L90.4811 22.0544L91.2799 21.7238L92.0788 22.2664L92.8776 20.8657L93.6764 17.2343L94.4752 16.8992L95.274 17.954L96.0728 19.0613L96.8717 21.4216L97.6705 23.0701L98.4693 24.0254L99.2681 23.9383L100.067 25.3444L100.866 24.6418L101.665 28.6792L102.463 26.9864L103.262 28.2113L104.061 25.2722L104.86 23.6881L105.659 24.3128L106.457 24.0017L107.256 22.6066L108.055 22.1497L108.854 22.2581L109.653 24.0404L110.452 23.1471L111.25 22.1516L112.049 25.7332L112.848 27.4729L113.647 25.6331L114.446 26.4386L115.244 26.5182L116.043 28.0496L116.842 27.2596L117.641 27.3984L118.44 31.874L119.239 32.791L120.037 30.1678L120.836 29.762L121.635 29.1514L122.434 30.4915L123.233 33.8682L124.031 32.9722L124.83 31.2463L125.629 31.9757L126.428 32.0704L127.227 31.3181L128.025 32.238L128.824 35.6213L129.623 36.5339L130.422 32.3699L131.221 32.7769L132.02 32.257L132.818 30.2163L133.617 29.6386L134.416 29.8324" stroke="#32CA5B" stroke-width="1.25"/>
</g>
<defs>
<clipPath id="clip0_2_542">
<rect width="135" height="50" fill="white" transform="translate(0.214844 0.547852)"/>
</clipPath>
</defs>
</svg>
