<svg width="136" height="51" viewBox="0 0 136 51" fill="none" xmlns="http://www.w3.org/2000/svg">
<g clip-path="url(#clip0_9_371)">
<path d="M0.214844 47.6324L1.01366 43.6749L1.81248 42.4411L2.61129 41.4438L3.41011 41.2903L4.20893 41.8363L5.00774 42.9617L5.80656 42.6685L6.60538 43.5483L7.40419 42.5765L8.20301 41.4919L9.00183 40.3714L9.80064 41.5386L10.5995 41.1322L11.3983 44.5427L12.1971 48.9542L12.9959 47.2533L13.7947 45.569L14.5935 44.798L15.3924 45.9431L16.1912 45.4306L16.99 46.3328L17.7888 46.0273L18.5876 46.5729L19.3864 43.4056L20.1853 40.3097L20.9841 43.5796L21.7829 40.8379L22.5817 41.8342L23.3805 40.7416L24.1793 41.1158L24.9782 43.1258L25.777 42.716L26.5758 36.8605L27.3746 38.0264L28.1734 39.5717L28.9722 39.7595L29.7711 42.1127L30.5699 43.1482L31.3687 43.6807L32.1675 45.4087L32.9663 45.6394L33.7651 47.5293L34.564 42.6265L35.3628 46.4824L36.1616 45.3537L36.9604 45.8967L37.7592 45.0754L38.558 44.2047L39.3569 43.604L40.1557 42.9101L40.9545 42.9351L41.7533 42.0081L42.5521 40.3517L43.3509 42.7626L44.1498 42.8803L44.9486 39.2682L45.7474 38.4912L46.5462 42.0864L47.345 44.2951L48.1438 44.4664L48.9427 44.7495L49.7415 46.463L50.5403 43.0666L51.3391 50.5479L52.1379 41.4837L52.9367 46.9112L53.7356 43.7478L54.5344 44.4031L55.3332 45.5583L56.132 44.1809L56.9308 45.4277L57.7296 44.47L58.5285 44.8266L59.3273 40.6199L60.1261 41.6923L60.9249 27.33L61.7237 23.5966L62.5225 19.855L63.3214 23.2571L64.1202 15.832L64.919 6.68981L65.7178 5.56689L66.5166 8.19785L67.3154 10.1946L68.1143 11.0319L68.9131 9.4682L69.7119 10.3784L70.5107 8.71529L71.3095 11.2494L72.1083 8.19091L72.9072 9.08039L73.706 11.455L74.5048 13.8334L75.3036 14.3602L76.1024 14.3255L76.9012 15.8381L77.7001 14.2677L78.4989 14.8436L79.2977 16.5193L80.0965 9.93061L80.8953 4.29634L81.6941 4.0242L82.493 5.31071L83.2918 5.00689L84.0906 3.93251L84.8894 4.84417L85.6882 4.45594L86.487 2.1141L87.2859 2.60582L88.0847 2.57255L88.8835 0.547852L89.6823 1.11862L90.4811 1.52095L91.2799 5.29854L92.0788 4.36468L92.8776 5.10184L93.6764 6.12159L94.4752 4.61136L95.274 4.46129L96.0728 4.95263L96.8717 5.43265L97.6705 4.7154L98.4693 6.79692L99.2681 6.74166L100.067 6.26843L100.866 5.61855L101.665 4.94988L102.463 4.86945L103.262 4.59986L104.061 4.51146L104.86 1.8624L105.659 1.26411L106.457 1.26739L107.256 2.28685L108.055 3.11984L108.854 3.83824L109.653 3.17965L110.452 3.52162L111.25 3.81789L112.049 7.20374L112.848 8.81169L113.647 9.90616L114.446 9.47164L115.244 9.06695L116.043 12.1576L116.842 8.1031L117.641 7.43205L118.44 10.4206L119.239 11.608L120.037 8.05699L120.836 9.82492L121.635 10.5376L122.434 16.5204L123.233 15.7047L124.031 15.5159L124.83 16.4599L125.629 19.7634L126.428 21.3582L127.227 20.4473L128.025 21.7584L128.824 23.7418L129.623 22.6225L130.422 20.8027L131.221 21.5851L132.02 22.8116L132.818 19.8896L133.617 21.4972L134.416 16.3843" stroke="#32CA5B" stroke-width="1.25"/>
</g>
<defs>
<clipPath id="clip0_9_371">
<rect width="135" height="50" fill="white" transform="translate(0.214844 0.547852)"/>
</clipPath>
</defs>
</svg>
