<svg width="15" height="15" viewBox="0 0 15 15" fill="none" xmlns="http://www.w3.org/2000/svg">
<path d="M9.76514 3.01758C9.6193 3.07227 9.54639 3.17253 9.54639 3.31836C9.54639 3.46419 9.6193 3.56445 9.76514 3.61914L11.2964 4.19336L11.8706 5.75195C11.9253 5.87956 12.0256 5.94336 12.1714 5.94336C12.3172 5.94336 12.4175 5.87956 12.4722 5.75195L13.0464 4.19336L14.605 3.61914C14.7326 3.56445 14.7964 3.46419 14.7964 3.31836C14.7964 3.17253 14.7326 3.07227 14.605 3.01758L13.0464 2.44336L12.4722 0.912109C12.4175 0.766276 12.3172 0.693359 12.1714 0.693359C12.0256 0.693359 11.9253 0.766276 11.8706 0.912109L11.2964 2.44336L9.76514 3.01758ZM1.04248 7.25586C0.878418 7.34701 0.796387 7.48372 0.796387 7.66602C0.796387 7.84831 0.878418 7.97591 1.04248 8.04883L1.50732 8.26758L1.72607 8.37695H1.75342L4.15967 9.49805L5.28076 11.9043V11.9316L5.39014 12.1504L5.60889 12.6152C5.70003 12.7793 5.83675 12.8613 6.01904 12.8613C6.18311 12.8613 6.31071 12.7793 6.40186 12.6152L6.62061 12.1504L6.72998 11.9316V11.9043L7.85107 9.49805L10.2573 8.37695H10.2847L10.5034 8.26758L10.9683 8.04883C11.1323 7.97591 11.2144 7.84831 11.2144 7.66602C11.2144 7.48372 11.1323 7.34701 10.9683 7.25586L10.5034 7.03711L10.2847 6.95508L10.2573 6.92773L7.85107 5.80664L6.72998 3.40039L6.62061 3.1543L6.40186 2.68945C6.32894 2.52539 6.20133 2.44336 6.01904 2.44336C5.83675 2.44336 5.70003 2.52539 5.60889 2.68945L5.39014 3.1543L5.30811 3.37305L5.28076 3.40039L4.15967 5.80664L1.75342 6.92773L1.50732 7.03711L1.04248 7.25586ZM3.31201 7.66602L4.73389 7.00977C5.00732 6.86393 5.21696 6.64518 5.36279 6.35352L6.01904 4.95898L6.64795 6.35352C6.79378 6.64518 7.01253 6.86393 7.3042 7.00977L8.69873 7.66602L7.3042 8.29492C7.01253 8.44076 6.79378 8.65951 6.64795 8.95117L6.01904 10.3457L5.36279 8.95117C5.21696 8.65951 5.00732 8.44076 4.73389 8.29492L3.31201 7.66602ZM11.2964 11.1934L9.76514 11.7676C9.6193 11.8223 9.54639 11.9225 9.54639 12.0684C9.54639 12.2142 9.6193 12.3145 9.76514 12.3691L11.2964 12.9434L11.8706 14.502C11.9253 14.6296 12.0256 14.6934 12.1714 14.6934C12.3172 14.6934 12.4175 14.6296 12.4722 14.502L13.0464 12.9434L14.605 12.3691C14.7326 12.3145 14.7964 12.2142 14.7964 12.0684C14.7964 11.9225 14.7326 11.8223 14.605 11.7676L13.0464 11.1934L12.4722 9.66211C12.4175 9.51628 12.3172 9.44336 12.1714 9.44336C12.0256 9.44336 11.9253 9.51628 11.8706 9.66211L11.2964 11.1934Z" fill="#0F172A"/>
</svg>
