<svg width="136" height="51" viewBox="0 0 136 51" fill="none" xmlns="http://www.w3.org/2000/svg">
<g clip-path="url(#clip0_16_341)">
<path d="M0.796387 2.92397L1.5905 4.23L2.38462 4.17545L3.17874 1.8627L3.97286 2.78033L4.76697 8.27095L5.56109 11.0946L6.35521 7.56612L7.14933 8.67616L7.94345 5.6162L8.73756 3.30874L9.53168 2.9999L10.3258 3.97979L11.1199 1.17721L11.914 0.84668L12.7082 2.26551L13.5023 2.74821L14.2964 1.72587L15.0905 3.83486L15.8846 4.92935L16.6787 8.83349L17.4729 18.504L18.267 21.5527L19.0611 26.5434L19.8552 30.2764L20.6493 32.6153L21.4434 33.2063L22.2376 36.8811L23.0317 34.0689L23.8258 37.231L24.6199 36.2429L25.414 36.4702L26.2082 33.5755L27.0023 31.9554L27.7964 30.9895L28.5905 30.7114L29.3846 29.9894L30.1787 27.7313L30.9729 27.439L31.767 27.2081L32.5611 34.5L33.3552 34.0013L34.1493 33.8413L34.9434 36.9309L35.7376 33.4725L36.5317 35.6586L37.3258 34.2519L38.1199 38.5561L38.914 38.4712L39.7082 46.0499L40.5023 43.6208L41.2964 43.8409L42.0905 43.3351L42.8846 41.9368L43.6787 42.6853L44.4729 41.9952L45.267 41.4929L46.0611 40.4317L46.8552 39.1579L47.6493 40.4388L48.4434 42.0883L49.2376 41.1885L50.0317 45.6839L50.8258 49.0367L51.6199 45.6605L52.414 44.528L53.2082 49.9983L54.0023 48.7036L54.7964 47.2767L55.5905 50.8467L56.3846 47.3287L57.1787 49.9658L57.9729 47.4187L58.767 46.5908L59.5611 41.688L60.3552 44.0722L61.1493 43.1225L61.9434 43.3138L62.7376 42.8769L63.5317 43.9126L64.3258 40.1763L65.1199 40.6394L65.914 41.5145L66.7082 41.5984L67.5023 39.8097L68.2964 40.4937L69.0905 40.5692L69.8846 36.7206L70.6787 37.6608L71.4729 39.8487L72.267 38.073L73.0611 35.9994L73.8552 36.9081L74.6493 35.9689L75.4434 34.3741L76.2376 28.0344L77.0317 30.5973L77.8258 26.0913L78.6199 26.7358L79.414 27.022L80.2082 30.2743L81.0023 27.576L81.7964 24.8341L82.5905 26.0002L83.3846 26.6389L84.1787 30.0728L84.9729 32.5284L85.767 30.0767L86.5611 29.5658L87.3552 28.8165L88.1493 30.9056L88.9434 30.2724L89.7376 29.6517L90.5317 31.4394L91.3258 30.9227L92.1199 30.9123L92.914 33.035L93.7082 32.0194L94.5023 32.8981L95.2964 35.097L96.0905 34.9202L96.8846 35.9824L97.6787 37.2157L98.4729 38.4402L99.267 36.4004L100.061 34.2769L100.855 34.9677L101.649 35.9772L102.443 34.579L103.238 36.6811L104.032 38.0116L104.826 38.6218L105.62 37.4526L106.414 37.55L107.208 37.0916L108.002 36.673L108.796 34.8543L109.591 37.0708L110.385 34.6512L111.179 33.4647L111.973 34.278L112.767 31.2681L113.561 30.8234L114.355 31.3158L115.149 32.9102L115.943 31.909L116.738 33.46L117.532 32.29L118.326 33.7066L119.12 32.4482L119.914 28.4318L120.708 23.9006L121.502 23.5901L122.296 24.1747L123.091 22.9199L123.885 23.2525L124.679 24.7442L125.473 22.7889L126.267 23.6426L127.061 24.5048L127.855 29.502L128.649 32.2543L129.443 30.8431L130.238 31.2951L131.032 27.9424L131.826 25.3373L132.62 28.3163L133.414 27.9833L134.208 29.4946L135.002 34.6324" stroke="#FF3A33" stroke-width="1.25"/>
</g>
<defs>
<clipPath id="clip0_16_341">
<rect width="135" height="50" fill="white" transform="translate(0.796387 0.84668)"/>
</clipPath>
</defs>
</svg>
