<svg width="34" height="42" viewBox="0 0 34 42" fill="none" xmlns="http://www.w3.org/2000/svg">
<path fill-rule="evenodd" clip-rule="evenodd" d="M8 9C8 4.02944 12.0294 0 17 0C21.9706 0 26 4.02944 26 9C26 13.9706 21.9706 18 17 18C12.0294 18 8 13.9706 8 9Z" fill="#0B87AC"/>
<path fill-rule="evenodd" clip-rule="evenodd" d="M0.502493 37.2107C0.657173 28.2311 7.98397 21 17 21C26.0162 21 33.3432 28.2315 33.4975 37.2113C33.5078 37.8068 33.1647 38.352 32.6233 38.6004C27.8654 40.7836 22.573 42 17.0006 42C11.4277 42 6.13487 40.7834 1.37664 38.5998C0.835304 38.3514 0.492234 37.8062 0.502493 37.2107Z" fill="#0B87AC"/>
</svg>
