<svg width="22" height="28" viewBox="0 0 22 28" fill="none" xmlns="http://www.w3.org/2000/svg">
<path fill-rule="evenodd" clip-rule="evenodd" d="M5 6C5 2.68629 7.68629 0 11 0C14.3137 0 17 2.68629 17 6C17 9.31371 14.3137 12 11 12C7.68629 12 5 9.31371 5 6Z" fill="#0B87AC"/>
<path fill-rule="evenodd" clip-rule="evenodd" d="M0.00166177 24.8071C0.104782 18.8208 4.98931 14 11 14C17.0108 14 21.8955 18.821 21.9983 24.8075C22.0052 25.2046 21.7764 25.568 21.4155 25.7336C18.2436 27.1891 14.7154 28 11.0004 28C7.28515 28 3.75658 27.1889 0.584429 25.7332C0.223536 25.5676 -0.00517733 25.2041 0.00166177 24.8071Z" fill="#0B87AC"/>
</svg>
