<svg width="18" height="22" viewBox="0 0 18 22" fill="none" xmlns="http://www.w3.org/2000/svg">
<path fill-rule="evenodd" clip-rule="evenodd" d="M4.5 5C4.5 2.51472 6.51472 0.5 9 0.5C11.4853 0.5 13.5 2.51472 13.5 5C13.5 7.48528 11.4853 9.5 9 9.5C6.51472 9.5 4.5 7.48528 4.5 5Z" fill="#5C5F66"/>
<path fill-rule="evenodd" clip-rule="evenodd" d="M0.751246 19.1053C0.828587 14.6156 4.49198 11 9 11C13.5081 11 17.1716 14.6157 17.2488 19.1056C17.2539 19.4034 17.0823 19.676 16.8117 19.8002C14.4327 20.8918 11.7865 21.5 9.00032 21.5C6.21386 21.5 3.56743 20.8917 1.18832 19.7999C0.917652 19.6757 0.746117 19.4031 0.751246 19.1053Z" fill="#5C5F66"/>
</svg>
