<svg width="28" height="36" viewBox="0 0 28 36" fill="none" xmlns="http://www.w3.org/2000/svg">
<path fill-rule="evenodd" clip-rule="evenodd" d="M6.50006 8C6.50006 3.85786 9.85793 0.5 14.0001 0.5C18.1422 0.5 21.5001 3.85786 21.5001 8C21.5001 12.1421 18.1422 15.5 14.0001 15.5C9.85793 15.5 6.50006 12.1421 6.50006 8Z" fill="#F6E717"/>
<path fill-rule="evenodd" clip-rule="evenodd" d="M0.25214 31.5089C0.38104 24.0259 6.4867 18 14.0001 18C21.5136 18 27.6194 24.0262 27.748 31.5094C27.7565 32.0057 27.4706 32.46 27.0195 32.667C23.0546 34.4863 18.6443 35.5 14.0006 35.5C9.3565 35.5 4.94579 34.4861 0.980599 32.6665C0.529482 32.4595 0.243591 32.0052 0.25214 31.5089Z" fill="#F6E717"/>
</svg>
