<svg width="28" height="36" viewBox="0 0 28 36" fill="none" xmlns="http://www.w3.org/2000/svg">
<path fill-rule="evenodd" clip-rule="evenodd" d="M6.5 8C6.5 3.85786 9.85786 0.5 14 0.5C18.1421 0.5 21.5 3.85786 21.5 8C21.5 12.1421 18.1421 15.5 14 15.5C9.85786 15.5 6.5 12.1421 6.5 8Z" fill="#0B87AC"/>
<path fill-rule="evenodd" clip-rule="evenodd" d="M0.252077 31.5089C0.380977 24.0259 6.48664 18 14 18C21.5135 18 27.6193 24.0262 27.7479 31.5094C27.7565 32.0057 27.4706 32.46 27.0194 32.667C23.0545 34.4863 18.6442 35.5 14.0005 35.5C9.35643 35.5 4.94572 34.4861 0.980536 32.6665C0.52942 32.4595 0.243528 32.0052 0.252077 31.5089Z" fill="#0B87AC"/>
</svg>
