<svg width="28" height="29" viewBox="0 0 28 29" fill="none" xmlns="http://www.w3.org/2000/svg">
<path d="M27.6068 26.1395L22.4159 20.9866C24.4309 18.4724 25.4067 15.2811 25.1426 12.069C24.8786 8.85686 23.3949 5.86804 20.9965 3.71709C18.5981 1.56615 15.4674 0.416561 12.2481 0.50472C9.02875 0.592879 5.96552 1.91208 3.68827 4.19107C1.41101 6.47006 0.0928087 9.53561 0.00471654 12.7574C-0.0833757 15.9791 1.06534 19.1122 3.21465 21.5125C5.36397 23.9127 8.35052 25.3975 11.5602 25.6618C14.7699 25.926 17.9588 24.9494 20.4711 22.933L25.62 28.0858C25.7501 28.2171 25.9048 28.3212 26.0753 28.3923C26.2459 28.4634 26.4287 28.5 26.6134 28.5C26.7981 28.5 26.981 28.4634 27.1515 28.3923C27.322 28.3212 27.4768 28.2171 27.6068 28.0858C27.859 27.8247 28 27.4758 28 27.1127C28 26.7495 27.859 26.4006 27.6068 26.1395ZM12.6218 22.933C10.6847 22.933 8.79105 22.3581 7.1804 21.2811C5.56976 20.2041 4.31441 18.6733 3.57312 16.8823C2.83182 15.0913 2.63786 13.1205 3.01577 11.2191C3.39368 9.31782 4.32649 7.57134 5.69623 6.20056C7.06597 4.82977 8.81112 3.89626 10.711 3.51806C12.6109 3.13987 14.5802 3.33397 16.3698 4.07583C18.1595 4.81769 19.6891 6.07399 20.7653 7.68586C21.8415 9.29773 22.4159 11.1928 22.4159 13.1313C22.4159 15.7309 21.384 18.224 19.5473 20.0621C17.7105 21.9003 15.2193 22.933 12.6218 22.933Z" fill="#070D1D"/>
</svg>
